G04 #@! TF.GenerationSoftware,KiCad,Pcbnew,9.0.9-9.0.9~ubuntu24.04.1*
G04 #@! TF.CreationDate,2026-09-01T13:43:03-06:00*
G04 #@! TF.ProjectId,ckt-soundplay-array,636b742d-736f-4756-9e64-706c61792d61,rev?*
G04 #@! TF.SameCoordinates,Original*
G04 #@! TF.FileFunction,Paste,Top*
G04 #@! TF.FilePolarity,Positive*
%FSLAX46Y46*%
G04 Gerber Fmt 4.6, Leading zero omitted, Abs format (unit mm)*
G04 Created by KiCad (PCBNEW 9.0.9-9.0.9~ubuntu24.04.1) date 2026-09-01 13:43:03*
%MOMM*%
%LPD*%
G01*
G04 APERTURE LIST*
%ADD10R,1.400000X1.900000*%
%ADD11R,1.500000X0.900000*%
%ADD12R,0.900000X1.500000*%
%ADD13R,0.900000X0.900000*%
%ADD14R,5.562600X2.108200*%
%ADD15R,2.300000X0.500000*%
%ADD16R,2.500000X2.000000*%
%ADD17R,0.700000X1.200000*%
%ADD18R,1.000000X0.800000*%
%ADD19R,1.000000X1.200000*%
%ADD20R,1.000000X2.800000*%
%ADD21R,1.300000X1.900000*%
G04 APERTURE END LIST*
G36*
G01*
X120876001Y-89944000D02*
X120876001Y-88994000D01*
G75*
G02*
X121126001Y-88744000I250000J0D01*
G01*
X121626001Y-88744000D01*
G75*
G02*
X121876001Y-88994000I0J-250000D01*
G01*
X121876001Y-89944000D01*
G75*
G02*
X121626001Y-90194000I-250000J0D01*
G01*
X121126001Y-90194000D01*
G75*
G02*
X120876001Y-89944000I0J250000D01*
G01*
G37*
G36*
G01*
X122776001Y-89944000D02*
X122776001Y-88994000D01*
G75*
G02*
X123026001Y-88744000I250000J0D01*
G01*
X123526001Y-88744000D01*
G75*
G02*
X123776001Y-88994000I0J-250000D01*
G01*
X123776001Y-89944000D01*
G75*
G02*
X123526001Y-90194000I-250000J0D01*
G01*
X123026001Y-90194000D01*
G75*
G02*
X122776001Y-89944000I0J250000D01*
G01*
G37*
D10*
X130211000Y-174686000D03*
X126911000Y-174686000D03*
G36*
G01*
X173928000Y-44061000D02*
X173928000Y-44961000D01*
G75*
G02*
X173678000Y-45211000I-250000J0D01*
G01*
X173153000Y-45211000D01*
G75*
G02*
X172903000Y-44961000I0J250000D01*
G01*
X172903000Y-44061000D01*
G75*
G02*
X173153000Y-43811000I250000J0D01*
G01*
X173678000Y-43811000D01*
G75*
G02*
X173928000Y-44061000I0J-250000D01*
G01*
G37*
G36*
G01*
X172103000Y-44061000D02*
X172103000Y-44961000D01*
G75*
G02*
X171853000Y-45211000I-250000J0D01*
G01*
X171328000Y-45211000D01*
G75*
G02*
X171078000Y-44961000I0J250000D01*
G01*
X171078000Y-44061000D01*
G75*
G02*
X171328000Y-43811000I250000J0D01*
G01*
X171853000Y-43811000D01*
G75*
G02*
X172103000Y-44061000I0J-250000D01*
G01*
G37*
G36*
G01*
X159491000Y-63208000D02*
X158591000Y-63208000D01*
G75*
G02*
X158341000Y-62958000I0J250000D01*
G01*
X158341000Y-62433000D01*
G75*
G02*
X158591000Y-62183000I250000J0D01*
G01*
X159491000Y-62183000D01*
G75*
G02*
X159741000Y-62433000I0J-250000D01*
G01*
X159741000Y-62958000D01*
G75*
G02*
X159491000Y-63208000I-250000J0D01*
G01*
G37*
G36*
G01*
X159491000Y-61383000D02*
X158591000Y-61383000D01*
G75*
G02*
X158341000Y-61133000I0J250000D01*
G01*
X158341000Y-60608000D01*
G75*
G02*
X158591000Y-60358000I250000J0D01*
G01*
X159491000Y-60358000D01*
G75*
G02*
X159741000Y-60608000I0J-250000D01*
G01*
X159741000Y-61133000D01*
G75*
G02*
X159491000Y-61383000I-250000J0D01*
G01*
G37*
G36*
G01*
X129168000Y-73669250D02*
X129168000Y-72756750D01*
G75*
G02*
X129411750Y-72513000I243750J0D01*
G01*
X129899250Y-72513000D01*
G75*
G02*
X130143000Y-72756750I0J-243750D01*
G01*
X130143000Y-73669250D01*
G75*
G02*
X129899250Y-73913000I-243750J0D01*
G01*
X129411750Y-73913000D01*
G75*
G02*
X129168000Y-73669250I0J243750D01*
G01*
G37*
G36*
G01*
X131043000Y-73669250D02*
X131043000Y-72756750D01*
G75*
G02*
X131286750Y-72513000I243750J0D01*
G01*
X131774250Y-72513000D01*
G75*
G02*
X132018000Y-72756750I0J-243750D01*
G01*
X132018000Y-73669250D01*
G75*
G02*
X131774250Y-73913000I-243750J0D01*
G01*
X131286750Y-73913000D01*
G75*
G02*
X131043000Y-73669250I0J243750D01*
G01*
G37*
G36*
G01*
X131667000Y-127795000D02*
X132567000Y-127795000D01*
G75*
G02*
X132817000Y-128045000I0J-250000D01*
G01*
X132817000Y-128570000D01*
G75*
G02*
X132567000Y-128820000I-250000J0D01*
G01*
X131667000Y-128820000D01*
G75*
G02*
X131417000Y-128570000I0J250000D01*
G01*
X131417000Y-128045000D01*
G75*
G02*
X131667000Y-127795000I250000J0D01*
G01*
G37*
G36*
G01*
X131667000Y-129620000D02*
X132567000Y-129620000D01*
G75*
G02*
X132817000Y-129870000I0J-250000D01*
G01*
X132817000Y-130395000D01*
G75*
G02*
X132567000Y-130645000I-250000J0D01*
G01*
X131667000Y-130645000D01*
G75*
G02*
X131417000Y-130395000I0J250000D01*
G01*
X131417000Y-129870000D01*
G75*
G02*
X131667000Y-129620000I250000J0D01*
G01*
G37*
G36*
G01*
X155645000Y-179713000D02*
X156595000Y-179713000D01*
G75*
G02*
X156845000Y-179963000I0J-250000D01*
G01*
X156845000Y-180463000D01*
G75*
G02*
X156595000Y-180713000I-250000J0D01*
G01*
X155645000Y-180713000D01*
G75*
G02*
X155395000Y-180463000I0J250000D01*
G01*
X155395000Y-179963000D01*
G75*
G02*
X155645000Y-179713000I250000J0D01*
G01*
G37*
G36*
G01*
X155645000Y-181613000D02*
X156595000Y-181613000D01*
G75*
G02*
X156845000Y-181863000I0J-250000D01*
G01*
X156845000Y-182363000D01*
G75*
G02*
X156595000Y-182613000I-250000J0D01*
G01*
X155645000Y-182613000D01*
G75*
G02*
X155395000Y-182363000I0J250000D01*
G01*
X155395000Y-181863000D01*
G75*
G02*
X155645000Y-181613000I250000J0D01*
G01*
G37*
G36*
G01*
X121173000Y-72473000D02*
X121173000Y-71223000D01*
G75*
G02*
X121323000Y-71073000I150000J0D01*
G01*
X121623000Y-71073000D01*
G75*
G02*
X121773000Y-71223000I0J-150000D01*
G01*
X121773000Y-72473000D01*
G75*
G02*
X121623000Y-72623000I-150000J0D01*
G01*
X121323000Y-72623000D01*
G75*
G02*
X121173000Y-72473000I0J150000D01*
G01*
G37*
G36*
G01*
X122173000Y-72473000D02*
X122173000Y-71223000D01*
G75*
G02*
X122323000Y-71073000I150000J0D01*
G01*
X122623000Y-71073000D01*
G75*
G02*
X122773000Y-71223000I0J-150000D01*
G01*
X122773000Y-72473000D01*
G75*
G02*
X122623000Y-72623000I-150000J0D01*
G01*
X122323000Y-72623000D01*
G75*
G02*
X122173000Y-72473000I0J150000D01*
G01*
G37*
G36*
G01*
X123173000Y-72473000D02*
X123173000Y-71223000D01*
G75*
G02*
X123323000Y-71073000I150000J0D01*
G01*
X123623000Y-71073000D01*
G75*
G02*
X123773000Y-71223000I0J-150000D01*
G01*
X123773000Y-72473000D01*
G75*
G02*
X123623000Y-72623000I-150000J0D01*
G01*
X123323000Y-72623000D01*
G75*
G02*
X123173000Y-72473000I0J150000D01*
G01*
G37*
G36*
G01*
X124173000Y-72473000D02*
X124173000Y-71223000D01*
G75*
G02*
X124323000Y-71073000I150000J0D01*
G01*
X124623000Y-71073000D01*
G75*
G02*
X124773000Y-71223000I0J-150000D01*
G01*
X124773000Y-72473000D01*
G75*
G02*
X124623000Y-72623000I-150000J0D01*
G01*
X124323000Y-72623000D01*
G75*
G02*
X124173000Y-72473000I0J150000D01*
G01*
G37*
G36*
G01*
X119573000Y-76373000D02*
X119573000Y-75073000D01*
G75*
G02*
X119823000Y-74823000I250000J0D01*
G01*
X120523000Y-74823000D01*
G75*
G02*
X120773000Y-75073000I0J-250000D01*
G01*
X120773000Y-76373000D01*
G75*
G02*
X120523000Y-76623000I-250000J0D01*
G01*
X119823000Y-76623000D01*
G75*
G02*
X119573000Y-76373000I0J250000D01*
G01*
G37*
G36*
G01*
X125173000Y-76373000D02*
X125173000Y-75073000D01*
G75*
G02*
X125423000Y-74823000I250000J0D01*
G01*
X126123000Y-74823000D01*
G75*
G02*
X126373000Y-75073000I0J-250000D01*
G01*
X126373000Y-76373000D01*
G75*
G02*
X126123000Y-76623000I-250000J0D01*
G01*
X125423000Y-76623000D01*
G75*
G02*
X125173000Y-76373000I0J250000D01*
G01*
G37*
G36*
G01*
X132440000Y-168745000D02*
X131540000Y-168745000D01*
G75*
G02*
X131290000Y-168495000I0J250000D01*
G01*
X131290000Y-167970000D01*
G75*
G02*
X131540000Y-167720000I250000J0D01*
G01*
X132440000Y-167720000D01*
G75*
G02*
X132690000Y-167970000I0J-250000D01*
G01*
X132690000Y-168495000D01*
G75*
G02*
X132440000Y-168745000I-250000J0D01*
G01*
G37*
G36*
G01*
X132440000Y-166920000D02*
X131540000Y-166920000D01*
G75*
G02*
X131290000Y-166670000I0J250000D01*
G01*
X131290000Y-166145000D01*
G75*
G02*
X131540000Y-165895000I250000J0D01*
G01*
X132440000Y-165895000D01*
G75*
G02*
X132690000Y-166145000I0J-250000D01*
G01*
X132690000Y-166670000D01*
G75*
G02*
X132440000Y-166920000I-250000J0D01*
G01*
G37*
G36*
G01*
X152023000Y-119875000D02*
X151073000Y-119875000D01*
G75*
G02*
X150823000Y-119625000I0J250000D01*
G01*
X150823000Y-119125000D01*
G75*
G02*
X151073000Y-118875000I250000J0D01*
G01*
X152023000Y-118875000D01*
G75*
G02*
X152273000Y-119125000I0J-250000D01*
G01*
X152273000Y-119625000D01*
G75*
G02*
X152023000Y-119875000I-250000J0D01*
G01*
G37*
G36*
G01*
X152023000Y-117975000D02*
X151073000Y-117975000D01*
G75*
G02*
X150823000Y-117725000I0J250000D01*
G01*
X150823000Y-117225000D01*
G75*
G02*
X151073000Y-116975000I250000J0D01*
G01*
X152023000Y-116975000D01*
G75*
G02*
X152273000Y-117225000I0J-250000D01*
G01*
X152273000Y-117725000D01*
G75*
G02*
X152023000Y-117975000I-250000J0D01*
G01*
G37*
D11*
X138607000Y-87515000D03*
X138607000Y-88785000D03*
X138607000Y-90055000D03*
X138607000Y-91325000D03*
X138607000Y-92595000D03*
X138607000Y-93865000D03*
X138607000Y-95135000D03*
X138607000Y-96405000D03*
X138607000Y-97675000D03*
X138607000Y-98945000D03*
X138607000Y-100215000D03*
X138607000Y-101485000D03*
X138607000Y-102755000D03*
X138607000Y-104025000D03*
D12*
X140372000Y-105275000D03*
X141642000Y-105275000D03*
X142912000Y-105275000D03*
X144182000Y-105275000D03*
X145452000Y-105275000D03*
X146722000Y-105275000D03*
X147992000Y-105275000D03*
X149262000Y-105275000D03*
X150532000Y-105275000D03*
X151802000Y-105275000D03*
X153072000Y-105275000D03*
X154342000Y-105275000D03*
D11*
X156107000Y-104025000D03*
X156107000Y-102755000D03*
X156107000Y-101485000D03*
X156107000Y-100215000D03*
X156107000Y-98945000D03*
X156107000Y-97675000D03*
X156107000Y-96405000D03*
X156107000Y-95135000D03*
X156107000Y-93865000D03*
X156107000Y-92595000D03*
X156107000Y-91325000D03*
X156107000Y-90055000D03*
X156107000Y-88785000D03*
X156107000Y-87515000D03*
D13*
X144457000Y-93835000D03*
X144457000Y-95235000D03*
X144457000Y-96635000D03*
X145857000Y-93835000D03*
X145857000Y-95235000D03*
X145857000Y-96635000D03*
X147257000Y-93835000D03*
X147257000Y-95235000D03*
X147257000Y-96635000D03*
D14*
X142023000Y-115364300D03*
X142023000Y-119961700D03*
G36*
G01*
X122378001Y-153331800D02*
X122378001Y-153581800D01*
G75*
G02*
X122253001Y-153706800I-125000J0D01*
G01*
X122003001Y-153706800D01*
G75*
G02*
X121878001Y-153581800I0J125000D01*
G01*
X121878001Y-153331800D01*
G75*
G02*
X122003001Y-153206800I125000J0D01*
G01*
X122253001Y-153206800D01*
G75*
G02*
X122378001Y-153331800I0J-125000D01*
G01*
G37*
G36*
G01*
X122378001Y-152711800D02*
X122378001Y-152961800D01*
G75*
G02*
X122253001Y-153086800I-125000J0D01*
G01*
X122003001Y-153086800D01*
G75*
G02*
X121878001Y-152961800I0J125000D01*
G01*
X121878001Y-152711800D01*
G75*
G02*
X122003001Y-152586800I125000J0D01*
G01*
X122253001Y-152586800D01*
G75*
G02*
X122378001Y-152711800I0J-125000D01*
G01*
G37*
G36*
G01*
X121758001Y-153331800D02*
X121758001Y-153581800D01*
G75*
G02*
X121633001Y-153706800I-125000J0D01*
G01*
X121383001Y-153706800D01*
G75*
G02*
X121258001Y-153581800I0J125000D01*
G01*
X121258001Y-153331800D01*
G75*
G02*
X121383001Y-153206800I125000J0D01*
G01*
X121633001Y-153206800D01*
G75*
G02*
X121758001Y-153331800I0J-125000D01*
G01*
G37*
G36*
G01*
X121758001Y-152711800D02*
X121758001Y-152961800D01*
G75*
G02*
X121633001Y-153086800I-125000J0D01*
G01*
X121383001Y-153086800D01*
G75*
G02*
X121258001Y-152961800I0J125000D01*
G01*
X121258001Y-152711800D01*
G75*
G02*
X121383001Y-152586800I125000J0D01*
G01*
X121633001Y-152586800D01*
G75*
G02*
X121758001Y-152711800I0J-125000D01*
G01*
G37*
G36*
G01*
X123668001Y-153834300D02*
X123668001Y-153959300D01*
G75*
G02*
X123605501Y-154021800I-62500J0D01*
G01*
X122905501Y-154021800D01*
G75*
G02*
X122843001Y-153959300I0J62500D01*
G01*
X122843001Y-153834300D01*
G75*
G02*
X122905501Y-153771800I62500J0D01*
G01*
X123605501Y-153771800D01*
G75*
G02*
X123668001Y-153834300I0J-62500D01*
G01*
G37*
G36*
G01*
X123668001Y-153334300D02*
X123668001Y-153459300D01*
G75*
G02*
X123605501Y-153521800I-62500J0D01*
G01*
X122905501Y-153521800D01*
G75*
G02*
X122843001Y-153459300I0J62500D01*
G01*
X122843001Y-153334300D01*
G75*
G02*
X122905501Y-153271800I62500J0D01*
G01*
X123605501Y-153271800D01*
G75*
G02*
X123668001Y-153334300I0J-62500D01*
G01*
G37*
G36*
G01*
X123668001Y-152834300D02*
X123668001Y-152959300D01*
G75*
G02*
X123605501Y-153021800I-62500J0D01*
G01*
X122905501Y-153021800D01*
G75*
G02*
X122843001Y-152959300I0J62500D01*
G01*
X122843001Y-152834300D01*
G75*
G02*
X122905501Y-152771800I62500J0D01*
G01*
X123605501Y-152771800D01*
G75*
G02*
X123668001Y-152834300I0J-62500D01*
G01*
G37*
G36*
G01*
X123668001Y-152334300D02*
X123668001Y-152459300D01*
G75*
G02*
X123605501Y-152521800I-62500J0D01*
G01*
X122905501Y-152521800D01*
G75*
G02*
X122843001Y-152459300I0J62500D01*
G01*
X122843001Y-152334300D01*
G75*
G02*
X122905501Y-152271800I62500J0D01*
G01*
X123605501Y-152271800D01*
G75*
G02*
X123668001Y-152334300I0J-62500D01*
G01*
G37*
G36*
G01*
X122693001Y-151359300D02*
X122693001Y-152059300D01*
G75*
G02*
X122630501Y-152121800I-62500J0D01*
G01*
X122505501Y-152121800D01*
G75*
G02*
X122443001Y-152059300I0J62500D01*
G01*
X122443001Y-151359300D01*
G75*
G02*
X122505501Y-151296800I62500J0D01*
G01*
X122630501Y-151296800D01*
G75*
G02*
X122693001Y-151359300I0J-62500D01*
G01*
G37*
G36*
G01*
X122193001Y-151359300D02*
X122193001Y-152059300D01*
G75*
G02*
X122130501Y-152121800I-62500J0D01*
G01*
X122005501Y-152121800D01*
G75*
G02*
X121943001Y-152059300I0J62500D01*
G01*
X121943001Y-151359300D01*
G75*
G02*
X122005501Y-151296800I62500J0D01*
G01*
X122130501Y-151296800D01*
G75*
G02*
X122193001Y-151359300I0J-62500D01*
G01*
G37*
G36*
G01*
X121693001Y-151359300D02*
X121693001Y-152059300D01*
G75*
G02*
X121630501Y-152121800I-62500J0D01*
G01*
X121505501Y-152121800D01*
G75*
G02*
X121443001Y-152059300I0J62500D01*
G01*
X121443001Y-151359300D01*
G75*
G02*
X121505501Y-151296800I62500J0D01*
G01*
X121630501Y-151296800D01*
G75*
G02*
X121693001Y-151359300I0J-62500D01*
G01*
G37*
G36*
G01*
X121193001Y-151359300D02*
X121193001Y-152059300D01*
G75*
G02*
X121130501Y-152121800I-62500J0D01*
G01*
X121005501Y-152121800D01*
G75*
G02*
X120943001Y-152059300I0J62500D01*
G01*
X120943001Y-151359300D01*
G75*
G02*
X121005501Y-151296800I62500J0D01*
G01*
X121130501Y-151296800D01*
G75*
G02*
X121193001Y-151359300I0J-62500D01*
G01*
G37*
G36*
G01*
X120793001Y-152334300D02*
X120793001Y-152459300D01*
G75*
G02*
X120730501Y-152521800I-62500J0D01*
G01*
X120030501Y-152521800D01*
G75*
G02*
X119968001Y-152459300I0J62500D01*
G01*
X119968001Y-152334300D01*
G75*
G02*
X120030501Y-152271800I62500J0D01*
G01*
X120730501Y-152271800D01*
G75*
G02*
X120793001Y-152334300I0J-62500D01*
G01*
G37*
G36*
G01*
X120793001Y-152834300D02*
X120793001Y-152959300D01*
G75*
G02*
X120730501Y-153021800I-62500J0D01*
G01*
X120030501Y-153021800D01*
G75*
G02*
X119968001Y-152959300I0J62500D01*
G01*
X119968001Y-152834300D01*
G75*
G02*
X120030501Y-152771800I62500J0D01*
G01*
X120730501Y-152771800D01*
G75*
G02*
X120793001Y-152834300I0J-62500D01*
G01*
G37*
G36*
G01*
X120793001Y-153334300D02*
X120793001Y-153459300D01*
G75*
G02*
X120730501Y-153521800I-62500J0D01*
G01*
X120030501Y-153521800D01*
G75*
G02*
X119968001Y-153459300I0J62500D01*
G01*
X119968001Y-153334300D01*
G75*
G02*
X120030501Y-153271800I62500J0D01*
G01*
X120730501Y-153271800D01*
G75*
G02*
X120793001Y-153334300I0J-62500D01*
G01*
G37*
G36*
G01*
X120793001Y-153834300D02*
X120793001Y-153959300D01*
G75*
G02*
X120730501Y-154021800I-62500J0D01*
G01*
X120030501Y-154021800D01*
G75*
G02*
X119968001Y-153959300I0J62500D01*
G01*
X119968001Y-153834300D01*
G75*
G02*
X120030501Y-153771800I62500J0D01*
G01*
X120730501Y-153771800D01*
G75*
G02*
X120793001Y-153834300I0J-62500D01*
G01*
G37*
G36*
G01*
X121193001Y-154234300D02*
X121193001Y-154934300D01*
G75*
G02*
X121130501Y-154996800I-62500J0D01*
G01*
X121005501Y-154996800D01*
G75*
G02*
X120943001Y-154934300I0J62500D01*
G01*
X120943001Y-154234300D01*
G75*
G02*
X121005501Y-154171800I62500J0D01*
G01*
X121130501Y-154171800D01*
G75*
G02*
X121193001Y-154234300I0J-62500D01*
G01*
G37*
G36*
G01*
X121693001Y-154234300D02*
X121693001Y-154934300D01*
G75*
G02*
X121630501Y-154996800I-62500J0D01*
G01*
X121505501Y-154996800D01*
G75*
G02*
X121443001Y-154934300I0J62500D01*
G01*
X121443001Y-154234300D01*
G75*
G02*
X121505501Y-154171800I62500J0D01*
G01*
X121630501Y-154171800D01*
G75*
G02*
X121693001Y-154234300I0J-62500D01*
G01*
G37*
G36*
G01*
X122193001Y-154234300D02*
X122193001Y-154934300D01*
G75*
G02*
X122130501Y-154996800I-62500J0D01*
G01*
X122005501Y-154996800D01*
G75*
G02*
X121943001Y-154934300I0J62500D01*
G01*
X121943001Y-154234300D01*
G75*
G02*
X122005501Y-154171800I62500J0D01*
G01*
X122130501Y-154171800D01*
G75*
G02*
X122193001Y-154234300I0J-62500D01*
G01*
G37*
G36*
G01*
X122693001Y-154234300D02*
X122693001Y-154934300D01*
G75*
G02*
X122630501Y-154996800I-62500J0D01*
G01*
X122505501Y-154996800D01*
G75*
G02*
X122443001Y-154934300I0J62500D01*
G01*
X122443001Y-154234300D01*
G75*
G02*
X122505501Y-154171800I62500J0D01*
G01*
X122630501Y-154171800D01*
G75*
G02*
X122693001Y-154234300I0J-62500D01*
G01*
G37*
G36*
G01*
X169381000Y-103726000D02*
X169381000Y-104676000D01*
G75*
G02*
X169131000Y-104926000I-250000J0D01*
G01*
X168631000Y-104926000D01*
G75*
G02*
X168381000Y-104676000I0J250000D01*
G01*
X168381000Y-103726000D01*
G75*
G02*
X168631000Y-103476000I250000J0D01*
G01*
X169131000Y-103476000D01*
G75*
G02*
X169381000Y-103726000I0J-250000D01*
G01*
G37*
G36*
G01*
X167481000Y-103726000D02*
X167481000Y-104676000D01*
G75*
G02*
X167231000Y-104926000I-250000J0D01*
G01*
X166731000Y-104926000D01*
G75*
G02*
X166481000Y-104676000I0J250000D01*
G01*
X166481000Y-103726000D01*
G75*
G02*
X166731000Y-103476000I250000J0D01*
G01*
X167231000Y-103476000D01*
G75*
G02*
X167481000Y-103726000I0J-250000D01*
G01*
G37*
D10*
X130211000Y-111694000D03*
X126911000Y-111694000D03*
G36*
G01*
X137393000Y-64986000D02*
X136493000Y-64986000D01*
G75*
G02*
X136243000Y-64736000I0J250000D01*
G01*
X136243000Y-64211000D01*
G75*
G02*
X136493000Y-63961000I250000J0D01*
G01*
X137393000Y-63961000D01*
G75*
G02*
X137643000Y-64211000I0J-250000D01*
G01*
X137643000Y-64736000D01*
G75*
G02*
X137393000Y-64986000I-250000J0D01*
G01*
G37*
G36*
G01*
X137393000Y-63161000D02*
X136493000Y-63161000D01*
G75*
G02*
X136243000Y-62911000I0J250000D01*
G01*
X136243000Y-62386000D01*
G75*
G02*
X136493000Y-62136000I250000J0D01*
G01*
X137393000Y-62136000D01*
G75*
G02*
X137643000Y-62386000I0J-250000D01*
G01*
X137643000Y-62911000D01*
G75*
G02*
X137393000Y-63161000I-250000J0D01*
G01*
G37*
G36*
G01*
X155645000Y-120023000D02*
X156595000Y-120023000D01*
G75*
G02*
X156845000Y-120273000I0J-250000D01*
G01*
X156845000Y-120773000D01*
G75*
G02*
X156595000Y-121023000I-250000J0D01*
G01*
X155645000Y-121023000D01*
G75*
G02*
X155395000Y-120773000I0J250000D01*
G01*
X155395000Y-120273000D01*
G75*
G02*
X155645000Y-120023000I250000J0D01*
G01*
G37*
G36*
G01*
X155645000Y-121923000D02*
X156595000Y-121923000D01*
G75*
G02*
X156845000Y-122173000I0J-250000D01*
G01*
X156845000Y-122673000D01*
G75*
G02*
X156595000Y-122923000I-250000J0D01*
G01*
X155645000Y-122923000D01*
G75*
G02*
X155395000Y-122673000I0J250000D01*
G01*
X155395000Y-122173000D01*
G75*
G02*
X155645000Y-121923000I250000J0D01*
G01*
G37*
G36*
G01*
X171683000Y-182564500D02*
X170783000Y-182564500D01*
G75*
G02*
X170533000Y-182314500I0J250000D01*
G01*
X170533000Y-181789500D01*
G75*
G02*
X170783000Y-181539500I250000J0D01*
G01*
X171683000Y-181539500D01*
G75*
G02*
X171933000Y-181789500I0J-250000D01*
G01*
X171933000Y-182314500D01*
G75*
G02*
X171683000Y-182564500I-250000J0D01*
G01*
G37*
G36*
G01*
X171683000Y-180739500D02*
X170783000Y-180739500D01*
G75*
G02*
X170533000Y-180489500I0J250000D01*
G01*
X170533000Y-179964500D01*
G75*
G02*
X170783000Y-179714500I250000J0D01*
G01*
X171683000Y-179714500D01*
G75*
G02*
X171933000Y-179964500I0J-250000D01*
G01*
X171933000Y-180489500D01*
G75*
G02*
X171683000Y-180739500I-250000J0D01*
G01*
G37*
G36*
G01*
X173928000Y-46982000D02*
X173928000Y-47882000D01*
G75*
G02*
X173678000Y-48132000I-250000J0D01*
G01*
X173153000Y-48132000D01*
G75*
G02*
X172903000Y-47882000I0J250000D01*
G01*
X172903000Y-46982000D01*
G75*
G02*
X173153000Y-46732000I250000J0D01*
G01*
X173678000Y-46732000D01*
G75*
G02*
X173928000Y-46982000I0J-250000D01*
G01*
G37*
G36*
G01*
X172103000Y-46982000D02*
X172103000Y-47882000D01*
G75*
G02*
X171853000Y-48132000I-250000J0D01*
G01*
X171328000Y-48132000D01*
G75*
G02*
X171078000Y-47882000I0J250000D01*
G01*
X171078000Y-46982000D01*
G75*
G02*
X171328000Y-46732000I250000J0D01*
G01*
X171853000Y-46732000D01*
G75*
G02*
X172103000Y-46982000I0J-250000D01*
G01*
G37*
G36*
G01*
X172705250Y-192367000D02*
X171792750Y-192367000D01*
G75*
G02*
X171549000Y-192123250I0J243750D01*
G01*
X171549000Y-191635750D01*
G75*
G02*
X171792750Y-191392000I243750J0D01*
G01*
X172705250Y-191392000D01*
G75*
G02*
X172949000Y-191635750I0J-243750D01*
G01*
X172949000Y-192123250D01*
G75*
G02*
X172705250Y-192367000I-243750J0D01*
G01*
G37*
G36*
G01*
X172705250Y-190492000D02*
X171792750Y-190492000D01*
G75*
G02*
X171549000Y-190248250I0J243750D01*
G01*
X171549000Y-189760750D01*
G75*
G02*
X171792750Y-189517000I243750J0D01*
G01*
X172705250Y-189517000D01*
G75*
G02*
X172949000Y-189760750I0J-243750D01*
G01*
X172949000Y-190248250D01*
G75*
G02*
X172705250Y-190492000I-243750J0D01*
G01*
G37*
G36*
G01*
X134436000Y-106180000D02*
X135386000Y-106180000D01*
G75*
G02*
X135636000Y-106430000I0J-250000D01*
G01*
X135636000Y-106930000D01*
G75*
G02*
X135386000Y-107180000I-250000J0D01*
G01*
X134436000Y-107180000D01*
G75*
G02*
X134186000Y-106930000I0J250000D01*
G01*
X134186000Y-106430000D01*
G75*
G02*
X134436000Y-106180000I250000J0D01*
G01*
G37*
G36*
G01*
X134436000Y-108080000D02*
X135386000Y-108080000D01*
G75*
G02*
X135636000Y-108330000I0J-250000D01*
G01*
X135636000Y-108830000D01*
G75*
G02*
X135386000Y-109080000I-250000J0D01*
G01*
X134436000Y-109080000D01*
G75*
G02*
X134186000Y-108830000I0J250000D01*
G01*
X134186000Y-108330000D01*
G75*
G02*
X134436000Y-108080000I250000J0D01*
G01*
G37*
G36*
G01*
X125231000Y-149609000D02*
X125231000Y-148709000D01*
G75*
G02*
X125481000Y-148459000I250000J0D01*
G01*
X126006000Y-148459000D01*
G75*
G02*
X126256000Y-148709000I0J-250000D01*
G01*
X126256000Y-149609000D01*
G75*
G02*
X126006000Y-149859000I-250000J0D01*
G01*
X125481000Y-149859000D01*
G75*
G02*
X125231000Y-149609000I0J250000D01*
G01*
G37*
G36*
G01*
X127056000Y-149609000D02*
X127056000Y-148709000D01*
G75*
G02*
X127306000Y-148459000I250000J0D01*
G01*
X127831000Y-148459000D01*
G75*
G02*
X128081000Y-148709000I0J-250000D01*
G01*
X128081000Y-149609000D01*
G75*
G02*
X127831000Y-149859000I-250000J0D01*
G01*
X127306000Y-149859000D01*
G75*
G02*
X127056000Y-149609000I0J250000D01*
G01*
G37*
G36*
G01*
X169381000Y-163416000D02*
X169381000Y-164366000D01*
G75*
G02*
X169131000Y-164616000I-250000J0D01*
G01*
X168631000Y-164616000D01*
G75*
G02*
X168381000Y-164366000I0J250000D01*
G01*
X168381000Y-163416000D01*
G75*
G02*
X168631000Y-163166000I250000J0D01*
G01*
X169131000Y-163166000D01*
G75*
G02*
X169381000Y-163416000I0J-250000D01*
G01*
G37*
G36*
G01*
X167481000Y-163416000D02*
X167481000Y-164366000D01*
G75*
G02*
X167231000Y-164616000I-250000J0D01*
G01*
X166731000Y-164616000D01*
G75*
G02*
X166481000Y-164366000I0J250000D01*
G01*
X166481000Y-163416000D01*
G75*
G02*
X166731000Y-163166000I250000J0D01*
G01*
X167231000Y-163166000D01*
G75*
G02*
X167481000Y-163416000I0J-250000D01*
G01*
G37*
G36*
G01*
X168035000Y-100739000D02*
X168035000Y-99789000D01*
G75*
G02*
X168285000Y-99539000I250000J0D01*
G01*
X168785000Y-99539000D01*
G75*
G02*
X169035000Y-99789000I0J-250000D01*
G01*
X169035000Y-100739000D01*
G75*
G02*
X168785000Y-100989000I-250000J0D01*
G01*
X168285000Y-100989000D01*
G75*
G02*
X168035000Y-100739000I0J250000D01*
G01*
G37*
G36*
G01*
X169935000Y-100739000D02*
X169935000Y-99789000D01*
G75*
G02*
X170185000Y-99539000I250000J0D01*
G01*
X170685000Y-99539000D01*
G75*
G02*
X170935000Y-99789000I0J-250000D01*
G01*
X170935000Y-100739000D01*
G75*
G02*
X170685000Y-100989000I-250000J0D01*
G01*
X170185000Y-100989000D01*
G75*
G02*
X169935000Y-100739000I0J250000D01*
G01*
G37*
G36*
G01*
X135259000Y-89649000D02*
X134309000Y-89649000D01*
G75*
G02*
X134059000Y-89399000I0J250000D01*
G01*
X134059000Y-88899000D01*
G75*
G02*
X134309000Y-88649000I250000J0D01*
G01*
X135259000Y-88649000D01*
G75*
G02*
X135509000Y-88899000I0J-250000D01*
G01*
X135509000Y-89399000D01*
G75*
G02*
X135259000Y-89649000I-250000J0D01*
G01*
G37*
G36*
G01*
X135259000Y-87749000D02*
X134309000Y-87749000D01*
G75*
G02*
X134059000Y-87499000I0J250000D01*
G01*
X134059000Y-86999000D01*
G75*
G02*
X134309000Y-86749000I250000J0D01*
G01*
X135259000Y-86749000D01*
G75*
G02*
X135509000Y-86999000I0J-250000D01*
G01*
X135509000Y-87499000D01*
G75*
G02*
X135259000Y-87749000I-250000J0D01*
G01*
G37*
G36*
G01*
X177331000Y-170128500D02*
X178435000Y-170128500D01*
G75*
G02*
X178573000Y-170266500I0J-138000D01*
G01*
X178573000Y-172090500D01*
G75*
G02*
X178435000Y-172228500I-138000J0D01*
G01*
X177331000Y-172228500D01*
G75*
G02*
X177193000Y-172090500I0J138000D01*
G01*
X177193000Y-170266500D01*
G75*
G02*
X177331000Y-170128500I138000J0D01*
G01*
G37*
G36*
G01*
X177331000Y-161028500D02*
X178435000Y-161028500D01*
G75*
G02*
X178573000Y-161166500I0J-138000D01*
G01*
X178573000Y-162990500D01*
G75*
G02*
X178435000Y-163128500I-138000J0D01*
G01*
X177331000Y-163128500D01*
G75*
G02*
X177193000Y-162990500I0J138000D01*
G01*
X177193000Y-161166500D01*
G75*
G02*
X177331000Y-161028500I138000J0D01*
G01*
G37*
G36*
G01*
X181811000Y-170128500D02*
X182915000Y-170128500D01*
G75*
G02*
X183053000Y-170266500I0J-138000D01*
G01*
X183053000Y-172090500D01*
G75*
G02*
X182915000Y-172228500I-138000J0D01*
G01*
X181811000Y-172228500D01*
G75*
G02*
X181673000Y-172090500I0J138000D01*
G01*
X181673000Y-170266500D01*
G75*
G02*
X181811000Y-170128500I138000J0D01*
G01*
G37*
G36*
G01*
X181811000Y-161028500D02*
X182915000Y-161028500D01*
G75*
G02*
X183053000Y-161166500I0J-138000D01*
G01*
X183053000Y-162990500D01*
G75*
G02*
X182915000Y-163128500I-138000J0D01*
G01*
X181811000Y-163128500D01*
G75*
G02*
X181673000Y-162990500I0J138000D01*
G01*
X181673000Y-161166500D01*
G75*
G02*
X181811000Y-161028500I138000J0D01*
G01*
G37*
G36*
G01*
X127884000Y-57968000D02*
X128984000Y-57968000D01*
G75*
G02*
X129234000Y-58218000I0J-250000D01*
G01*
X129234000Y-61218000D01*
G75*
G02*
X128984000Y-61468000I-250000J0D01*
G01*
X127884000Y-61468000D01*
G75*
G02*
X127634000Y-61218000I0J250000D01*
G01*
X127634000Y-58218000D01*
G75*
G02*
X127884000Y-57968000I250000J0D01*
G01*
G37*
G36*
G01*
X127884000Y-63368000D02*
X128984000Y-63368000D01*
G75*
G02*
X129234000Y-63618000I0J-250000D01*
G01*
X129234000Y-66618000D01*
G75*
G02*
X128984000Y-66868000I-250000J0D01*
G01*
X127884000Y-66868000D01*
G75*
G02*
X127634000Y-66618000I0J250000D01*
G01*
X127634000Y-63618000D01*
G75*
G02*
X127884000Y-63368000I250000J0D01*
G01*
G37*
G36*
G01*
X129646000Y-109055000D02*
X128746000Y-109055000D01*
G75*
G02*
X128496000Y-108805000I0J250000D01*
G01*
X128496000Y-108280000D01*
G75*
G02*
X128746000Y-108030000I250000J0D01*
G01*
X129646000Y-108030000D01*
G75*
G02*
X129896000Y-108280000I0J-250000D01*
G01*
X129896000Y-108805000D01*
G75*
G02*
X129646000Y-109055000I-250000J0D01*
G01*
G37*
G36*
G01*
X129646000Y-107230000D02*
X128746000Y-107230000D01*
G75*
G02*
X128496000Y-106980000I0J250000D01*
G01*
X128496000Y-106455000D01*
G75*
G02*
X128746000Y-106205000I250000J0D01*
G01*
X129646000Y-106205000D01*
G75*
G02*
X129896000Y-106455000I0J-250000D01*
G01*
X129896000Y-106980000D01*
G75*
G02*
X129646000Y-107230000I-250000J0D01*
G01*
G37*
G36*
G01*
X169381000Y-106647000D02*
X169381000Y-107597000D01*
G75*
G02*
X169131000Y-107847000I-250000J0D01*
G01*
X168631000Y-107847000D01*
G75*
G02*
X168381000Y-107597000I0J250000D01*
G01*
X168381000Y-106647000D01*
G75*
G02*
X168631000Y-106397000I250000J0D01*
G01*
X169131000Y-106397000D01*
G75*
G02*
X169381000Y-106647000I0J-250000D01*
G01*
G37*
G36*
G01*
X167481000Y-106647000D02*
X167481000Y-107597000D01*
G75*
G02*
X167231000Y-107847000I-250000J0D01*
G01*
X166731000Y-107847000D01*
G75*
G02*
X166481000Y-107597000I0J250000D01*
G01*
X166481000Y-106647000D01*
G75*
G02*
X166731000Y-106397000I250000J0D01*
G01*
X167231000Y-106397000D01*
G75*
G02*
X167481000Y-106647000I0J-250000D01*
G01*
G37*
G36*
G01*
X177331000Y-184409000D02*
X178435000Y-184409000D01*
G75*
G02*
X178573000Y-184547000I0J-138000D01*
G01*
X178573000Y-186371000D01*
G75*
G02*
X178435000Y-186509000I-138000J0D01*
G01*
X177331000Y-186509000D01*
G75*
G02*
X177193000Y-186371000I0J138000D01*
G01*
X177193000Y-184547000D01*
G75*
G02*
X177331000Y-184409000I138000J0D01*
G01*
G37*
G36*
G01*
X177331000Y-175309000D02*
X178435000Y-175309000D01*
G75*
G02*
X178573000Y-175447000I0J-138000D01*
G01*
X178573000Y-177271000D01*
G75*
G02*
X178435000Y-177409000I-138000J0D01*
G01*
X177331000Y-177409000D01*
G75*
G02*
X177193000Y-177271000I0J138000D01*
G01*
X177193000Y-175447000D01*
G75*
G02*
X177331000Y-175309000I138000J0D01*
G01*
G37*
G36*
G01*
X181811000Y-184409000D02*
X182915000Y-184409000D01*
G75*
G02*
X183053000Y-184547000I0J-138000D01*
G01*
X183053000Y-186371000D01*
G75*
G02*
X182915000Y-186509000I-138000J0D01*
G01*
X181811000Y-186509000D01*
G75*
G02*
X181673000Y-186371000I0J138000D01*
G01*
X181673000Y-184547000D01*
G75*
G02*
X181811000Y-184409000I138000J0D01*
G01*
G37*
G36*
G01*
X181811000Y-175309000D02*
X182915000Y-175309000D01*
G75*
G02*
X183053000Y-175447000I0J-138000D01*
G01*
X183053000Y-177271000D01*
G75*
G02*
X182915000Y-177409000I-138000J0D01*
G01*
X181811000Y-177409000D01*
G75*
G02*
X181673000Y-177271000I0J138000D01*
G01*
X181673000Y-175447000D01*
G75*
G02*
X181811000Y-175309000I138000J0D01*
G01*
G37*
G36*
G01*
X125800000Y-165870000D02*
X126750000Y-165870000D01*
G75*
G02*
X127000000Y-166120000I0J-250000D01*
G01*
X127000000Y-166620000D01*
G75*
G02*
X126750000Y-166870000I-250000J0D01*
G01*
X125800000Y-166870000D01*
G75*
G02*
X125550000Y-166620000I0J250000D01*
G01*
X125550000Y-166120000D01*
G75*
G02*
X125800000Y-165870000I250000J0D01*
G01*
G37*
G36*
G01*
X125800000Y-167770000D02*
X126750000Y-167770000D01*
G75*
G02*
X127000000Y-168020000I0J-250000D01*
G01*
X127000000Y-168520000D01*
G75*
G02*
X126750000Y-168770000I-250000J0D01*
G01*
X125800000Y-168770000D01*
G75*
G02*
X125550000Y-168520000I0J250000D01*
G01*
X125550000Y-168020000D01*
G75*
G02*
X125800000Y-167770000I250000J0D01*
G01*
G37*
G36*
G01*
X171683000Y-63184500D02*
X170783000Y-63184500D01*
G75*
G02*
X170533000Y-62934500I0J250000D01*
G01*
X170533000Y-62409500D01*
G75*
G02*
X170783000Y-62159500I250000J0D01*
G01*
X171683000Y-62159500D01*
G75*
G02*
X171933000Y-62409500I0J-250000D01*
G01*
X171933000Y-62934500D01*
G75*
G02*
X171683000Y-63184500I-250000J0D01*
G01*
G37*
G36*
G01*
X171683000Y-61359500D02*
X170783000Y-61359500D01*
G75*
G02*
X170533000Y-61109500I0J250000D01*
G01*
X170533000Y-60584500D01*
G75*
G02*
X170783000Y-60334500I250000J0D01*
G01*
X171683000Y-60334500D01*
G75*
G02*
X171933000Y-60584500I0J-250000D01*
G01*
X171933000Y-61109500D01*
G75*
G02*
X171683000Y-61359500I-250000J0D01*
G01*
G37*
G36*
G01*
X164281000Y-60394000D02*
X165231000Y-60394000D01*
G75*
G02*
X165481000Y-60644000I0J-250000D01*
G01*
X165481000Y-61144000D01*
G75*
G02*
X165231000Y-61394000I-250000J0D01*
G01*
X164281000Y-61394000D01*
G75*
G02*
X164031000Y-61144000I0J250000D01*
G01*
X164031000Y-60644000D01*
G75*
G02*
X164281000Y-60394000I250000J0D01*
G01*
G37*
G36*
G01*
X164281000Y-62294000D02*
X165231000Y-62294000D01*
G75*
G02*
X165481000Y-62544000I0J-250000D01*
G01*
X165481000Y-63044000D01*
G75*
G02*
X165231000Y-63294000I-250000J0D01*
G01*
X164281000Y-63294000D01*
G75*
G02*
X164031000Y-63044000I0J250000D01*
G01*
X164031000Y-62544000D01*
G75*
G02*
X164281000Y-62294000I250000J0D01*
G01*
G37*
X130211000Y-171384000D03*
X126911000Y-171384000D03*
G36*
G01*
X177331000Y-124719000D02*
X178435000Y-124719000D01*
G75*
G02*
X178573000Y-124857000I0J-138000D01*
G01*
X178573000Y-126681000D01*
G75*
G02*
X178435000Y-126819000I-138000J0D01*
G01*
X177331000Y-126819000D01*
G75*
G02*
X177193000Y-126681000I0J138000D01*
G01*
X177193000Y-124857000D01*
G75*
G02*
X177331000Y-124719000I138000J0D01*
G01*
G37*
G36*
G01*
X177331000Y-115619000D02*
X178435000Y-115619000D01*
G75*
G02*
X178573000Y-115757000I0J-138000D01*
G01*
X178573000Y-117581000D01*
G75*
G02*
X178435000Y-117719000I-138000J0D01*
G01*
X177331000Y-117719000D01*
G75*
G02*
X177193000Y-117581000I0J138000D01*
G01*
X177193000Y-115757000D01*
G75*
G02*
X177331000Y-115619000I138000J0D01*
G01*
G37*
G36*
G01*
X181811000Y-124719000D02*
X182915000Y-124719000D01*
G75*
G02*
X183053000Y-124857000I0J-138000D01*
G01*
X183053000Y-126681000D01*
G75*
G02*
X182915000Y-126819000I-138000J0D01*
G01*
X181811000Y-126819000D01*
G75*
G02*
X181673000Y-126681000I0J138000D01*
G01*
X181673000Y-124857000D01*
G75*
G02*
X181811000Y-124719000I138000J0D01*
G01*
G37*
G36*
G01*
X181811000Y-115619000D02*
X182915000Y-115619000D01*
G75*
G02*
X183053000Y-115757000I0J-138000D01*
G01*
X183053000Y-117581000D01*
G75*
G02*
X182915000Y-117719000I-138000J0D01*
G01*
X181811000Y-117719000D01*
G75*
G02*
X181673000Y-117581000I0J138000D01*
G01*
X181673000Y-115757000D01*
G75*
G02*
X181811000Y-115619000I138000J0D01*
G01*
G37*
G36*
G01*
X131667000Y-187485000D02*
X132567000Y-187485000D01*
G75*
G02*
X132817000Y-187735000I0J-250000D01*
G01*
X132817000Y-188260000D01*
G75*
G02*
X132567000Y-188510000I-250000J0D01*
G01*
X131667000Y-188510000D01*
G75*
G02*
X131417000Y-188260000I0J250000D01*
G01*
X131417000Y-187735000D01*
G75*
G02*
X131667000Y-187485000I250000J0D01*
G01*
G37*
G36*
G01*
X131667000Y-189310000D02*
X132567000Y-189310000D01*
G75*
G02*
X132817000Y-189560000I0J-250000D01*
G01*
X132817000Y-190085000D01*
G75*
G02*
X132567000Y-190335000I-250000J0D01*
G01*
X131667000Y-190335000D01*
G75*
G02*
X131417000Y-190085000I0J250000D01*
G01*
X131417000Y-189560000D01*
G75*
G02*
X131667000Y-189310000I250000J0D01*
G01*
G37*
G36*
G01*
X121173000Y-132163000D02*
X121173000Y-130913000D01*
G75*
G02*
X121323000Y-130763000I150000J0D01*
G01*
X121623000Y-130763000D01*
G75*
G02*
X121773000Y-130913000I0J-150000D01*
G01*
X121773000Y-132163000D01*
G75*
G02*
X121623000Y-132313000I-150000J0D01*
G01*
X121323000Y-132313000D01*
G75*
G02*
X121173000Y-132163000I0J150000D01*
G01*
G37*
G36*
G01*
X122173000Y-132163000D02*
X122173000Y-130913000D01*
G75*
G02*
X122323000Y-130763000I150000J0D01*
G01*
X122623000Y-130763000D01*
G75*
G02*
X122773000Y-130913000I0J-150000D01*
G01*
X122773000Y-132163000D01*
G75*
G02*
X122623000Y-132313000I-150000J0D01*
G01*
X122323000Y-132313000D01*
G75*
G02*
X122173000Y-132163000I0J150000D01*
G01*
G37*
G36*
G01*
X123173000Y-132163000D02*
X123173000Y-130913000D01*
G75*
G02*
X123323000Y-130763000I150000J0D01*
G01*
X123623000Y-130763000D01*
G75*
G02*
X123773000Y-130913000I0J-150000D01*
G01*
X123773000Y-132163000D01*
G75*
G02*
X123623000Y-132313000I-150000J0D01*
G01*
X123323000Y-132313000D01*
G75*
G02*
X123173000Y-132163000I0J150000D01*
G01*
G37*
G36*
G01*
X124173000Y-132163000D02*
X124173000Y-130913000D01*
G75*
G02*
X124323000Y-130763000I150000J0D01*
G01*
X124623000Y-130763000D01*
G75*
G02*
X124773000Y-130913000I0J-150000D01*
G01*
X124773000Y-132163000D01*
G75*
G02*
X124623000Y-132313000I-150000J0D01*
G01*
X124323000Y-132313000D01*
G75*
G02*
X124173000Y-132163000I0J150000D01*
G01*
G37*
G36*
G01*
X119573000Y-136063000D02*
X119573000Y-134763000D01*
G75*
G02*
X119823000Y-134513000I250000J0D01*
G01*
X120523000Y-134513000D01*
G75*
G02*
X120773000Y-134763000I0J-250000D01*
G01*
X120773000Y-136063000D01*
G75*
G02*
X120523000Y-136313000I-250000J0D01*
G01*
X119823000Y-136313000D01*
G75*
G02*
X119573000Y-136063000I0J250000D01*
G01*
G37*
G36*
G01*
X125173000Y-136063000D02*
X125173000Y-134763000D01*
G75*
G02*
X125423000Y-134513000I250000J0D01*
G01*
X126123000Y-134513000D01*
G75*
G02*
X126373000Y-134763000I0J-250000D01*
G01*
X126373000Y-136063000D01*
G75*
G02*
X126123000Y-136313000I-250000J0D01*
G01*
X125423000Y-136313000D01*
G75*
G02*
X125173000Y-136063000I0J250000D01*
G01*
G37*
G36*
G01*
X128614000Y-142461000D02*
X128614000Y-143411000D01*
G75*
G02*
X128364000Y-143661000I-250000J0D01*
G01*
X127864000Y-143661000D01*
G75*
G02*
X127614000Y-143411000I0J250000D01*
G01*
X127614000Y-142461000D01*
G75*
G02*
X127864000Y-142211000I250000J0D01*
G01*
X128364000Y-142211000D01*
G75*
G02*
X128614000Y-142461000I0J-250000D01*
G01*
G37*
G36*
G01*
X126714000Y-142461000D02*
X126714000Y-143411000D01*
G75*
G02*
X126464000Y-143661000I-250000J0D01*
G01*
X125964000Y-143661000D01*
G75*
G02*
X125714000Y-143411000I0J250000D01*
G01*
X125714000Y-142461000D01*
G75*
G02*
X125964000Y-142211000I250000J0D01*
G01*
X126464000Y-142211000D01*
G75*
G02*
X126714000Y-142461000I0J-250000D01*
G01*
G37*
D11*
X138607000Y-27825000D03*
X138607000Y-29095000D03*
X138607000Y-30365000D03*
X138607000Y-31635000D03*
X138607000Y-32905000D03*
X138607000Y-34175000D03*
X138607000Y-35445000D03*
X138607000Y-36715000D03*
X138607000Y-37985000D03*
X138607000Y-39255000D03*
X138607000Y-40525000D03*
X138607000Y-41795000D03*
X138607000Y-43065000D03*
X138607000Y-44335000D03*
D12*
X140372000Y-45585000D03*
X141642000Y-45585000D03*
X142912000Y-45585000D03*
X144182000Y-45585000D03*
X145452000Y-45585000D03*
X146722000Y-45585000D03*
X147992000Y-45585000D03*
X149262000Y-45585000D03*
X150532000Y-45585000D03*
X151802000Y-45585000D03*
X153072000Y-45585000D03*
X154342000Y-45585000D03*
D11*
X156107000Y-44335000D03*
X156107000Y-43065000D03*
X156107000Y-41795000D03*
X156107000Y-40525000D03*
X156107000Y-39255000D03*
X156107000Y-37985000D03*
X156107000Y-36715000D03*
X156107000Y-35445000D03*
X156107000Y-34175000D03*
X156107000Y-32905000D03*
X156107000Y-31635000D03*
X156107000Y-30365000D03*
X156107000Y-29095000D03*
X156107000Y-27825000D03*
D13*
X144457000Y-34145000D03*
X144457000Y-35545000D03*
X144457000Y-36945000D03*
X145857000Y-34145000D03*
X145857000Y-35545000D03*
X145857000Y-36945000D03*
X147257000Y-34145000D03*
X147257000Y-35545000D03*
X147257000Y-36945000D03*
G36*
G01*
X135259000Y-29959000D02*
X134309000Y-29959000D01*
G75*
G02*
X134059000Y-29709000I0J250000D01*
G01*
X134059000Y-29209000D01*
G75*
G02*
X134309000Y-28959000I250000J0D01*
G01*
X135259000Y-28959000D01*
G75*
G02*
X135509000Y-29209000I0J-250000D01*
G01*
X135509000Y-29709000D01*
G75*
G02*
X135259000Y-29959000I-250000J0D01*
G01*
G37*
G36*
G01*
X135259000Y-28059000D02*
X134309000Y-28059000D01*
G75*
G02*
X134059000Y-27809000I0J250000D01*
G01*
X134059000Y-27309000D01*
G75*
G02*
X134309000Y-27059000I250000J0D01*
G01*
X135259000Y-27059000D01*
G75*
G02*
X135509000Y-27309000I0J-250000D01*
G01*
X135509000Y-27809000D01*
G75*
G02*
X135259000Y-28059000I-250000J0D01*
G01*
G37*
G36*
G01*
X128057500Y-86225000D02*
X128057500Y-87125000D01*
G75*
G02*
X127807500Y-87375000I-250000J0D01*
G01*
X127282500Y-87375000D01*
G75*
G02*
X127032500Y-87125000I0J250000D01*
G01*
X127032500Y-86225000D01*
G75*
G02*
X127282500Y-85975000I250000J0D01*
G01*
X127807500Y-85975000D01*
G75*
G02*
X128057500Y-86225000I0J-250000D01*
G01*
G37*
G36*
G01*
X126232500Y-86225000D02*
X126232500Y-87125000D01*
G75*
G02*
X125982500Y-87375000I-250000J0D01*
G01*
X125457500Y-87375000D01*
G75*
G02*
X125207500Y-87125000I0J250000D01*
G01*
X125207500Y-86225000D01*
G75*
G02*
X125457500Y-85975000I250000J0D01*
G01*
X125982500Y-85975000D01*
G75*
G02*
X126232500Y-86225000I0J-250000D01*
G01*
G37*
G36*
G01*
X127884000Y-177348000D02*
X128984000Y-177348000D01*
G75*
G02*
X129234000Y-177598000I0J-250000D01*
G01*
X129234000Y-180598000D01*
G75*
G02*
X128984000Y-180848000I-250000J0D01*
G01*
X127884000Y-180848000D01*
G75*
G02*
X127634000Y-180598000I0J250000D01*
G01*
X127634000Y-177598000D01*
G75*
G02*
X127884000Y-177348000I250000J0D01*
G01*
G37*
G36*
G01*
X127884000Y-182748000D02*
X128984000Y-182748000D01*
G75*
G02*
X129234000Y-182998000I0J-250000D01*
G01*
X129234000Y-185998000D01*
G75*
G02*
X128984000Y-186248000I-250000J0D01*
G01*
X127884000Y-186248000D01*
G75*
G02*
X127634000Y-185998000I0J250000D01*
G01*
X127634000Y-182998000D01*
G75*
G02*
X127884000Y-182748000I250000J0D01*
G01*
G37*
G36*
G01*
X125800000Y-46490000D02*
X126750000Y-46490000D01*
G75*
G02*
X127000000Y-46740000I0J-250000D01*
G01*
X127000000Y-47240000D01*
G75*
G02*
X126750000Y-47490000I-250000J0D01*
G01*
X125800000Y-47490000D01*
G75*
G02*
X125550000Y-47240000I0J250000D01*
G01*
X125550000Y-46740000D01*
G75*
G02*
X125800000Y-46490000I250000J0D01*
G01*
G37*
G36*
G01*
X125800000Y-48390000D02*
X126750000Y-48390000D01*
G75*
G02*
X127000000Y-48640000I0J-250000D01*
G01*
X127000000Y-49140000D01*
G75*
G02*
X126750000Y-49390000I-250000J0D01*
G01*
X125800000Y-49390000D01*
G75*
G02*
X125550000Y-49140000I0J250000D01*
G01*
X125550000Y-48640000D01*
G75*
G02*
X125800000Y-48390000I250000J0D01*
G01*
G37*
G36*
G01*
X128781000Y-68105000D02*
X129681000Y-68105000D01*
G75*
G02*
X129931000Y-68355000I0J-250000D01*
G01*
X129931000Y-68880000D01*
G75*
G02*
X129681000Y-69130000I-250000J0D01*
G01*
X128781000Y-69130000D01*
G75*
G02*
X128531000Y-68880000I0J250000D01*
G01*
X128531000Y-68355000D01*
G75*
G02*
X128781000Y-68105000I250000J0D01*
G01*
G37*
G36*
G01*
X128781000Y-69930000D02*
X129681000Y-69930000D01*
G75*
G02*
X129931000Y-70180000I0J-250000D01*
G01*
X129931000Y-70705000D01*
G75*
G02*
X129681000Y-70955000I-250000J0D01*
G01*
X128781000Y-70955000D01*
G75*
G02*
X128531000Y-70705000I0J250000D01*
G01*
X128531000Y-70180000D01*
G75*
G02*
X128781000Y-69930000I250000J0D01*
G01*
G37*
G36*
G01*
X120876001Y-30254000D02*
X120876001Y-29304000D01*
G75*
G02*
X121126001Y-29054000I250000J0D01*
G01*
X121626001Y-29054000D01*
G75*
G02*
X121876001Y-29304000I0J-250000D01*
G01*
X121876001Y-30254000D01*
G75*
G02*
X121626001Y-30504000I-250000J0D01*
G01*
X121126001Y-30504000D01*
G75*
G02*
X120876001Y-30254000I0J250000D01*
G01*
G37*
G36*
G01*
X122776001Y-30254000D02*
X122776001Y-29304000D01*
G75*
G02*
X123026001Y-29054000I250000J0D01*
G01*
X123526001Y-29054000D01*
G75*
G02*
X123776001Y-29304000I0J-250000D01*
G01*
X123776001Y-30254000D01*
G75*
G02*
X123526001Y-30504000I-250000J0D01*
G01*
X123026001Y-30504000D01*
G75*
G02*
X122776001Y-30254000I0J250000D01*
G01*
G37*
G36*
G01*
X169381000Y-44036000D02*
X169381000Y-44986000D01*
G75*
G02*
X169131000Y-45236000I-250000J0D01*
G01*
X168631000Y-45236000D01*
G75*
G02*
X168381000Y-44986000I0J250000D01*
G01*
X168381000Y-44036000D01*
G75*
G02*
X168631000Y-43786000I250000J0D01*
G01*
X169131000Y-43786000D01*
G75*
G02*
X169381000Y-44036000I0J-250000D01*
G01*
G37*
G36*
G01*
X167481000Y-44036000D02*
X167481000Y-44986000D01*
G75*
G02*
X167231000Y-45236000I-250000J0D01*
G01*
X166731000Y-45236000D01*
G75*
G02*
X166481000Y-44986000I0J250000D01*
G01*
X166481000Y-44036000D01*
G75*
G02*
X166731000Y-43786000I250000J0D01*
G01*
X167231000Y-43786000D01*
G75*
G02*
X167481000Y-44036000I0J-250000D01*
G01*
G37*
G36*
G01*
X115077000Y-32557000D02*
X116327000Y-32557000D01*
G75*
G02*
X116477000Y-32707000I0J-150000D01*
G01*
X116477000Y-33007000D01*
G75*
G02*
X116327000Y-33157000I-150000J0D01*
G01*
X115077000Y-33157000D01*
G75*
G02*
X114927000Y-33007000I0J150000D01*
G01*
X114927000Y-32707000D01*
G75*
G02*
X115077000Y-32557000I150000J0D01*
G01*
G37*
G36*
G01*
X115077000Y-33557000D02*
X116327000Y-33557000D01*
G75*
G02*
X116477000Y-33707000I0J-150000D01*
G01*
X116477000Y-34007000D01*
G75*
G02*
X116327000Y-34157000I-150000J0D01*
G01*
X115077000Y-34157000D01*
G75*
G02*
X114927000Y-34007000I0J150000D01*
G01*
X114927000Y-33707000D01*
G75*
G02*
X115077000Y-33557000I150000J0D01*
G01*
G37*
G36*
G01*
X115077000Y-34557000D02*
X116327000Y-34557000D01*
G75*
G02*
X116477000Y-34707000I0J-150000D01*
G01*
X116477000Y-35007000D01*
G75*
G02*
X116327000Y-35157000I-150000J0D01*
G01*
X115077000Y-35157000D01*
G75*
G02*
X114927000Y-35007000I0J150000D01*
G01*
X114927000Y-34707000D01*
G75*
G02*
X115077000Y-34557000I150000J0D01*
G01*
G37*
G36*
G01*
X115077000Y-35557000D02*
X116327000Y-35557000D01*
G75*
G02*
X116477000Y-35707000I0J-150000D01*
G01*
X116477000Y-36007000D01*
G75*
G02*
X116327000Y-36157000I-150000J0D01*
G01*
X115077000Y-36157000D01*
G75*
G02*
X114927000Y-36007000I0J150000D01*
G01*
X114927000Y-35707000D01*
G75*
G02*
X115077000Y-35557000I150000J0D01*
G01*
G37*
G36*
G01*
X111177000Y-30957000D02*
X112477000Y-30957000D01*
G75*
G02*
X112727000Y-31207000I0J-250000D01*
G01*
X112727000Y-31907000D01*
G75*
G02*
X112477000Y-32157000I-250000J0D01*
G01*
X111177000Y-32157000D01*
G75*
G02*
X110927000Y-31907000I0J250000D01*
G01*
X110927000Y-31207000D01*
G75*
G02*
X111177000Y-30957000I250000J0D01*
G01*
G37*
G36*
G01*
X111177000Y-36557000D02*
X112477000Y-36557000D01*
G75*
G02*
X112727000Y-36807000I0J-250000D01*
G01*
X112727000Y-37507000D01*
G75*
G02*
X112477000Y-37757000I-250000J0D01*
G01*
X111177000Y-37757000D01*
G75*
G02*
X110927000Y-37507000I0J250000D01*
G01*
X110927000Y-36807000D01*
G75*
G02*
X111177000Y-36557000I250000J0D01*
G01*
G37*
G36*
G01*
X133588000Y-116868000D02*
X133588000Y-115918000D01*
G75*
G02*
X133838000Y-115668000I250000J0D01*
G01*
X134338000Y-115668000D01*
G75*
G02*
X134588000Y-115918000I0J-250000D01*
G01*
X134588000Y-116868000D01*
G75*
G02*
X134338000Y-117118000I-250000J0D01*
G01*
X133838000Y-117118000D01*
G75*
G02*
X133588000Y-116868000I0J250000D01*
G01*
G37*
G36*
G01*
X135488000Y-116868000D02*
X135488000Y-115918000D01*
G75*
G02*
X135738000Y-115668000I250000J0D01*
G01*
X136238000Y-115668000D01*
G75*
G02*
X136488000Y-115918000I0J-250000D01*
G01*
X136488000Y-116868000D01*
G75*
G02*
X136238000Y-117118000I-250000J0D01*
G01*
X135738000Y-117118000D01*
G75*
G02*
X135488000Y-116868000I0J250000D01*
G01*
G37*
G36*
G01*
X128057500Y-145915000D02*
X128057500Y-146815000D01*
G75*
G02*
X127807500Y-147065000I-250000J0D01*
G01*
X127282500Y-147065000D01*
G75*
G02*
X127032500Y-146815000I0J250000D01*
G01*
X127032500Y-145915000D01*
G75*
G02*
X127282500Y-145665000I250000J0D01*
G01*
X127807500Y-145665000D01*
G75*
G02*
X128057500Y-145915000I0J-250000D01*
G01*
G37*
G36*
G01*
X126232500Y-145915000D02*
X126232500Y-146815000D01*
G75*
G02*
X125982500Y-147065000I-250000J0D01*
G01*
X125457500Y-147065000D01*
G75*
G02*
X125207500Y-146815000I0J250000D01*
G01*
X125207500Y-145915000D01*
G75*
G02*
X125457500Y-145665000I250000J0D01*
G01*
X125982500Y-145665000D01*
G75*
G02*
X126232500Y-145915000I0J-250000D01*
G01*
G37*
G36*
G01*
X168035000Y-41049000D02*
X168035000Y-40099000D01*
G75*
G02*
X168285000Y-39849000I250000J0D01*
G01*
X168785000Y-39849000D01*
G75*
G02*
X169035000Y-40099000I0J-250000D01*
G01*
X169035000Y-41049000D01*
G75*
G02*
X168785000Y-41299000I-250000J0D01*
G01*
X168285000Y-41299000D01*
G75*
G02*
X168035000Y-41049000I0J250000D01*
G01*
G37*
G36*
G01*
X169935000Y-41049000D02*
X169935000Y-40099000D01*
G75*
G02*
X170185000Y-39849000I250000J0D01*
G01*
X170685000Y-39849000D01*
G75*
G02*
X170935000Y-40099000I0J-250000D01*
G01*
X170935000Y-41049000D01*
G75*
G02*
X170685000Y-41299000I-250000J0D01*
G01*
X170185000Y-41299000D01*
G75*
G02*
X169935000Y-41049000I0J250000D01*
G01*
G37*
D14*
X142023000Y-55674300D03*
X142023000Y-60271700D03*
G36*
G01*
X129646000Y-49365000D02*
X128746000Y-49365000D01*
G75*
G02*
X128496000Y-49115000I0J250000D01*
G01*
X128496000Y-48590000D01*
G75*
G02*
X128746000Y-48340000I250000J0D01*
G01*
X129646000Y-48340000D01*
G75*
G02*
X129896000Y-48590000I0J-250000D01*
G01*
X129896000Y-49115000D01*
G75*
G02*
X129646000Y-49365000I-250000J0D01*
G01*
G37*
G36*
G01*
X129646000Y-47540000D02*
X128746000Y-47540000D01*
G75*
G02*
X128496000Y-47290000I0J250000D01*
G01*
X128496000Y-46765000D01*
G75*
G02*
X128746000Y-46515000I250000J0D01*
G01*
X129646000Y-46515000D01*
G75*
G02*
X129896000Y-46765000I0J-250000D01*
G01*
X129896000Y-47290000D01*
G75*
G02*
X129646000Y-47540000I-250000J0D01*
G01*
G37*
G36*
G01*
X176769250Y-132677000D02*
X175856750Y-132677000D01*
G75*
G02*
X175613000Y-132433250I0J243750D01*
G01*
X175613000Y-131945750D01*
G75*
G02*
X175856750Y-131702000I243750J0D01*
G01*
X176769250Y-131702000D01*
G75*
G02*
X177013000Y-131945750I0J-243750D01*
G01*
X177013000Y-132433250D01*
G75*
G02*
X176769250Y-132677000I-243750J0D01*
G01*
G37*
G36*
G01*
X176769250Y-130802000D02*
X175856750Y-130802000D01*
G75*
G02*
X175613000Y-130558250I0J243750D01*
G01*
X175613000Y-130070750D01*
G75*
G02*
X175856750Y-129827000I243750J0D01*
G01*
X176769250Y-129827000D01*
G75*
G02*
X177013000Y-130070750I0J-243750D01*
G01*
X177013000Y-130558250D01*
G75*
G02*
X176769250Y-130802000I-243750J0D01*
G01*
G37*
G36*
G01*
X132440000Y-109055000D02*
X131540000Y-109055000D01*
G75*
G02*
X131290000Y-108805000I0J250000D01*
G01*
X131290000Y-108280000D01*
G75*
G02*
X131540000Y-108030000I250000J0D01*
G01*
X132440000Y-108030000D01*
G75*
G02*
X132690000Y-108280000I0J-250000D01*
G01*
X132690000Y-108805000D01*
G75*
G02*
X132440000Y-109055000I-250000J0D01*
G01*
G37*
G36*
G01*
X132440000Y-107230000D02*
X131540000Y-107230000D01*
G75*
G02*
X131290000Y-106980000I0J250000D01*
G01*
X131290000Y-106455000D01*
G75*
G02*
X131540000Y-106205000I250000J0D01*
G01*
X132440000Y-106205000D01*
G75*
G02*
X132690000Y-106455000I0J-250000D01*
G01*
X132690000Y-106980000D01*
G75*
G02*
X132440000Y-107230000I-250000J0D01*
G01*
G37*
D10*
X130211000Y-52004000D03*
X126911000Y-52004000D03*
G36*
G01*
X121173000Y-191853000D02*
X121173000Y-190603000D01*
G75*
G02*
X121323000Y-190453000I150000J0D01*
G01*
X121623000Y-190453000D01*
G75*
G02*
X121773000Y-190603000I0J-150000D01*
G01*
X121773000Y-191853000D01*
G75*
G02*
X121623000Y-192003000I-150000J0D01*
G01*
X121323000Y-192003000D01*
G75*
G02*
X121173000Y-191853000I0J150000D01*
G01*
G37*
G36*
G01*
X122173000Y-191853000D02*
X122173000Y-190603000D01*
G75*
G02*
X122323000Y-190453000I150000J0D01*
G01*
X122623000Y-190453000D01*
G75*
G02*
X122773000Y-190603000I0J-150000D01*
G01*
X122773000Y-191853000D01*
G75*
G02*
X122623000Y-192003000I-150000J0D01*
G01*
X122323000Y-192003000D01*
G75*
G02*
X122173000Y-191853000I0J150000D01*
G01*
G37*
G36*
G01*
X123173000Y-191853000D02*
X123173000Y-190603000D01*
G75*
G02*
X123323000Y-190453000I150000J0D01*
G01*
X123623000Y-190453000D01*
G75*
G02*
X123773000Y-190603000I0J-150000D01*
G01*
X123773000Y-191853000D01*
G75*
G02*
X123623000Y-192003000I-150000J0D01*
G01*
X123323000Y-192003000D01*
G75*
G02*
X123173000Y-191853000I0J150000D01*
G01*
G37*
G36*
G01*
X124173000Y-191853000D02*
X124173000Y-190603000D01*
G75*
G02*
X124323000Y-190453000I150000J0D01*
G01*
X124623000Y-190453000D01*
G75*
G02*
X124773000Y-190603000I0J-150000D01*
G01*
X124773000Y-191853000D01*
G75*
G02*
X124623000Y-192003000I-150000J0D01*
G01*
X124323000Y-192003000D01*
G75*
G02*
X124173000Y-191853000I0J150000D01*
G01*
G37*
G36*
G01*
X119573000Y-195753000D02*
X119573000Y-194453000D01*
G75*
G02*
X119823000Y-194203000I250000J0D01*
G01*
X120523000Y-194203000D01*
G75*
G02*
X120773000Y-194453000I0J-250000D01*
G01*
X120773000Y-195753000D01*
G75*
G02*
X120523000Y-196003000I-250000J0D01*
G01*
X119823000Y-196003000D01*
G75*
G02*
X119573000Y-195753000I0J250000D01*
G01*
G37*
G36*
G01*
X125173000Y-195753000D02*
X125173000Y-194453000D01*
G75*
G02*
X125423000Y-194203000I250000J0D01*
G01*
X126123000Y-194203000D01*
G75*
G02*
X126373000Y-194453000I0J-250000D01*
G01*
X126373000Y-195753000D01*
G75*
G02*
X126123000Y-196003000I-250000J0D01*
G01*
X125423000Y-196003000D01*
G75*
G02*
X125173000Y-195753000I0J250000D01*
G01*
G37*
G36*
G01*
X142330000Y-171290000D02*
X142330000Y-172240000D01*
G75*
G02*
X142080000Y-172490000I-250000J0D01*
G01*
X141580000Y-172490000D01*
G75*
G02*
X141330000Y-172240000I0J250000D01*
G01*
X141330000Y-171290000D01*
G75*
G02*
X141580000Y-171040000I250000J0D01*
G01*
X142080000Y-171040000D01*
G75*
G02*
X142330000Y-171290000I0J-250000D01*
G01*
G37*
G36*
G01*
X140430000Y-171290000D02*
X140430000Y-172240000D01*
G75*
G02*
X140180000Y-172490000I-250000J0D01*
G01*
X139680000Y-172490000D01*
G75*
G02*
X139430000Y-172240000I0J250000D01*
G01*
X139430000Y-171290000D01*
G75*
G02*
X139680000Y-171040000I250000J0D01*
G01*
X140180000Y-171040000D01*
G75*
G02*
X140430000Y-171290000I0J-250000D01*
G01*
G37*
G36*
G01*
X120876001Y-146840000D02*
X120876001Y-145890000D01*
G75*
G02*
X121126001Y-145640000I250000J0D01*
G01*
X121626001Y-145640000D01*
G75*
G02*
X121876001Y-145890000I0J-250000D01*
G01*
X121876001Y-146840000D01*
G75*
G02*
X121626001Y-147090000I-250000J0D01*
G01*
X121126001Y-147090000D01*
G75*
G02*
X120876001Y-146840000I0J250000D01*
G01*
G37*
G36*
G01*
X122776001Y-146840000D02*
X122776001Y-145890000D01*
G75*
G02*
X123026001Y-145640000I250000J0D01*
G01*
X123526001Y-145640000D01*
G75*
G02*
X123776001Y-145890000I0J-250000D01*
G01*
X123776001Y-146840000D01*
G75*
G02*
X123526001Y-147090000I-250000J0D01*
G01*
X123026001Y-147090000D01*
G75*
G02*
X122776001Y-146840000I0J250000D01*
G01*
G37*
G36*
G01*
X131200000Y-24006000D02*
X131200000Y-23106000D01*
G75*
G02*
X131450000Y-22856000I250000J0D01*
G01*
X131975000Y-22856000D01*
G75*
G02*
X132225000Y-23106000I0J-250000D01*
G01*
X132225000Y-24006000D01*
G75*
G02*
X131975000Y-24256000I-250000J0D01*
G01*
X131450000Y-24256000D01*
G75*
G02*
X131200000Y-24006000I0J250000D01*
G01*
G37*
G36*
G01*
X133025000Y-24006000D02*
X133025000Y-23106000D01*
G75*
G02*
X133275000Y-22856000I250000J0D01*
G01*
X133800000Y-22856000D01*
G75*
G02*
X134050000Y-23106000I0J-250000D01*
G01*
X134050000Y-24006000D01*
G75*
G02*
X133800000Y-24256000I-250000J0D01*
G01*
X133275000Y-24256000D01*
G75*
G02*
X133025000Y-24006000I0J250000D01*
G01*
G37*
G36*
G01*
X152023000Y-179565000D02*
X151073000Y-179565000D01*
G75*
G02*
X150823000Y-179315000I0J250000D01*
G01*
X150823000Y-178815000D01*
G75*
G02*
X151073000Y-178565000I250000J0D01*
G01*
X152023000Y-178565000D01*
G75*
G02*
X152273000Y-178815000I0J-250000D01*
G01*
X152273000Y-179315000D01*
G75*
G02*
X152023000Y-179565000I-250000J0D01*
G01*
G37*
G36*
G01*
X152023000Y-177665000D02*
X151073000Y-177665000D01*
G75*
G02*
X150823000Y-177415000I0J250000D01*
G01*
X150823000Y-176915000D01*
G75*
G02*
X151073000Y-176665000I250000J0D01*
G01*
X152023000Y-176665000D01*
G75*
G02*
X152273000Y-176915000I0J-250000D01*
G01*
X152273000Y-177415000D01*
G75*
G02*
X152023000Y-177665000I-250000J0D01*
G01*
G37*
G36*
G01*
X173928000Y-103751000D02*
X173928000Y-104651000D01*
G75*
G02*
X173678000Y-104901000I-250000J0D01*
G01*
X173153000Y-104901000D01*
G75*
G02*
X172903000Y-104651000I0J250000D01*
G01*
X172903000Y-103751000D01*
G75*
G02*
X173153000Y-103501000I250000J0D01*
G01*
X173678000Y-103501000D01*
G75*
G02*
X173928000Y-103751000I0J-250000D01*
G01*
G37*
G36*
G01*
X172103000Y-103751000D02*
X172103000Y-104651000D01*
G75*
G02*
X171853000Y-104901000I-250000J0D01*
G01*
X171328000Y-104901000D01*
G75*
G02*
X171078000Y-104651000I0J250000D01*
G01*
X171078000Y-103751000D01*
G75*
G02*
X171328000Y-103501000I250000J0D01*
G01*
X171853000Y-103501000D01*
G75*
G02*
X172103000Y-103751000I0J-250000D01*
G01*
G37*
D15*
X119429000Y-165588000D03*
X119429000Y-166388000D03*
X119429000Y-167188000D03*
X119429000Y-167988000D03*
X119429000Y-168788000D03*
D16*
X113829000Y-162738000D03*
X113829000Y-171638000D03*
X119329000Y-162738000D03*
X119329000Y-171638000D03*
G36*
G01*
X177331000Y-110438500D02*
X178435000Y-110438500D01*
G75*
G02*
X178573000Y-110576500I0J-138000D01*
G01*
X178573000Y-112400500D01*
G75*
G02*
X178435000Y-112538500I-138000J0D01*
G01*
X177331000Y-112538500D01*
G75*
G02*
X177193000Y-112400500I0J138000D01*
G01*
X177193000Y-110576500D01*
G75*
G02*
X177331000Y-110438500I138000J0D01*
G01*
G37*
G36*
G01*
X177331000Y-101338500D02*
X178435000Y-101338500D01*
G75*
G02*
X178573000Y-101476500I0J-138000D01*
G01*
X178573000Y-103300500D01*
G75*
G02*
X178435000Y-103438500I-138000J0D01*
G01*
X177331000Y-103438500D01*
G75*
G02*
X177193000Y-103300500I0J138000D01*
G01*
X177193000Y-101476500D01*
G75*
G02*
X177331000Y-101338500I138000J0D01*
G01*
G37*
G36*
G01*
X181811000Y-110438500D02*
X182915000Y-110438500D01*
G75*
G02*
X183053000Y-110576500I0J-138000D01*
G01*
X183053000Y-112400500D01*
G75*
G02*
X182915000Y-112538500I-138000J0D01*
G01*
X181811000Y-112538500D01*
G75*
G02*
X181673000Y-112400500I0J138000D01*
G01*
X181673000Y-110576500D01*
G75*
G02*
X181811000Y-110438500I138000J0D01*
G01*
G37*
G36*
G01*
X181811000Y-101338500D02*
X182915000Y-101338500D01*
G75*
G02*
X183053000Y-101476500I0J-138000D01*
G01*
X183053000Y-103300500D01*
G75*
G02*
X182915000Y-103438500I-138000J0D01*
G01*
X181811000Y-103438500D01*
G75*
G02*
X181673000Y-103300500I0J138000D01*
G01*
X181673000Y-101476500D01*
G75*
G02*
X181811000Y-101338500I138000J0D01*
G01*
G37*
G36*
G01*
X172705250Y-132677000D02*
X171792750Y-132677000D01*
G75*
G02*
X171549000Y-132433250I0J243750D01*
G01*
X171549000Y-131945750D01*
G75*
G02*
X171792750Y-131702000I243750J0D01*
G01*
X172705250Y-131702000D01*
G75*
G02*
X172949000Y-131945750I0J-243750D01*
G01*
X172949000Y-132433250D01*
G75*
G02*
X172705250Y-132677000I-243750J0D01*
G01*
G37*
G36*
G01*
X172705250Y-130802000D02*
X171792750Y-130802000D01*
G75*
G02*
X171549000Y-130558250I0J243750D01*
G01*
X171549000Y-130070750D01*
G75*
G02*
X171792750Y-129827000I243750J0D01*
G01*
X172705250Y-129827000D01*
G75*
G02*
X172949000Y-130070750I0J-243750D01*
G01*
X172949000Y-130558250D01*
G75*
G02*
X172705250Y-130802000I-243750J0D01*
G01*
G37*
G36*
G01*
X152023000Y-60185000D02*
X151073000Y-60185000D01*
G75*
G02*
X150823000Y-59935000I0J250000D01*
G01*
X150823000Y-59435000D01*
G75*
G02*
X151073000Y-59185000I250000J0D01*
G01*
X152023000Y-59185000D01*
G75*
G02*
X152273000Y-59435000I0J-250000D01*
G01*
X152273000Y-59935000D01*
G75*
G02*
X152023000Y-60185000I-250000J0D01*
G01*
G37*
G36*
G01*
X152023000Y-58285000D02*
X151073000Y-58285000D01*
G75*
G02*
X150823000Y-58035000I0J250000D01*
G01*
X150823000Y-57535000D01*
G75*
G02*
X151073000Y-57285000I250000J0D01*
G01*
X152023000Y-57285000D01*
G75*
G02*
X152273000Y-57535000I0J-250000D01*
G01*
X152273000Y-58035000D01*
G75*
G02*
X152023000Y-58285000I-250000J0D01*
G01*
G37*
G36*
G01*
X122378001Y-93641800D02*
X122378001Y-93891800D01*
G75*
G02*
X122253001Y-94016800I-125000J0D01*
G01*
X122003001Y-94016800D01*
G75*
G02*
X121878001Y-93891800I0J125000D01*
G01*
X121878001Y-93641800D01*
G75*
G02*
X122003001Y-93516800I125000J0D01*
G01*
X122253001Y-93516800D01*
G75*
G02*
X122378001Y-93641800I0J-125000D01*
G01*
G37*
G36*
G01*
X122378001Y-93021800D02*
X122378001Y-93271800D01*
G75*
G02*
X122253001Y-93396800I-125000J0D01*
G01*
X122003001Y-93396800D01*
G75*
G02*
X121878001Y-93271800I0J125000D01*
G01*
X121878001Y-93021800D01*
G75*
G02*
X122003001Y-92896800I125000J0D01*
G01*
X122253001Y-92896800D01*
G75*
G02*
X122378001Y-93021800I0J-125000D01*
G01*
G37*
G36*
G01*
X121758001Y-93641800D02*
X121758001Y-93891800D01*
G75*
G02*
X121633001Y-94016800I-125000J0D01*
G01*
X121383001Y-94016800D01*
G75*
G02*
X121258001Y-93891800I0J125000D01*
G01*
X121258001Y-93641800D01*
G75*
G02*
X121383001Y-93516800I125000J0D01*
G01*
X121633001Y-93516800D01*
G75*
G02*
X121758001Y-93641800I0J-125000D01*
G01*
G37*
G36*
G01*
X121758001Y-93021800D02*
X121758001Y-93271800D01*
G75*
G02*
X121633001Y-93396800I-125000J0D01*
G01*
X121383001Y-93396800D01*
G75*
G02*
X121258001Y-93271800I0J125000D01*
G01*
X121258001Y-93021800D01*
G75*
G02*
X121383001Y-92896800I125000J0D01*
G01*
X121633001Y-92896800D01*
G75*
G02*
X121758001Y-93021800I0J-125000D01*
G01*
G37*
G36*
G01*
X123668001Y-94144300D02*
X123668001Y-94269300D01*
G75*
G02*
X123605501Y-94331800I-62500J0D01*
G01*
X122905501Y-94331800D01*
G75*
G02*
X122843001Y-94269300I0J62500D01*
G01*
X122843001Y-94144300D01*
G75*
G02*
X122905501Y-94081800I62500J0D01*
G01*
X123605501Y-94081800D01*
G75*
G02*
X123668001Y-94144300I0J-62500D01*
G01*
G37*
G36*
G01*
X123668001Y-93644300D02*
X123668001Y-93769300D01*
G75*
G02*
X123605501Y-93831800I-62500J0D01*
G01*
X122905501Y-93831800D01*
G75*
G02*
X122843001Y-93769300I0J62500D01*
G01*
X122843001Y-93644300D01*
G75*
G02*
X122905501Y-93581800I62500J0D01*
G01*
X123605501Y-93581800D01*
G75*
G02*
X123668001Y-93644300I0J-62500D01*
G01*
G37*
G36*
G01*
X123668001Y-93144300D02*
X123668001Y-93269300D01*
G75*
G02*
X123605501Y-93331800I-62500J0D01*
G01*
X122905501Y-93331800D01*
G75*
G02*
X122843001Y-93269300I0J62500D01*
G01*
X122843001Y-93144300D01*
G75*
G02*
X122905501Y-93081800I62500J0D01*
G01*
X123605501Y-93081800D01*
G75*
G02*
X123668001Y-93144300I0J-62500D01*
G01*
G37*
G36*
G01*
X123668001Y-92644300D02*
X123668001Y-92769300D01*
G75*
G02*
X123605501Y-92831800I-62500J0D01*
G01*
X122905501Y-92831800D01*
G75*
G02*
X122843001Y-92769300I0J62500D01*
G01*
X122843001Y-92644300D01*
G75*
G02*
X122905501Y-92581800I62500J0D01*
G01*
X123605501Y-92581800D01*
G75*
G02*
X123668001Y-92644300I0J-62500D01*
G01*
G37*
G36*
G01*
X122693001Y-91669300D02*
X122693001Y-92369300D01*
G75*
G02*
X122630501Y-92431800I-62500J0D01*
G01*
X122505501Y-92431800D01*
G75*
G02*
X122443001Y-92369300I0J62500D01*
G01*
X122443001Y-91669300D01*
G75*
G02*
X122505501Y-91606800I62500J0D01*
G01*
X122630501Y-91606800D01*
G75*
G02*
X122693001Y-91669300I0J-62500D01*
G01*
G37*
G36*
G01*
X122193001Y-91669300D02*
X122193001Y-92369300D01*
G75*
G02*
X122130501Y-92431800I-62500J0D01*
G01*
X122005501Y-92431800D01*
G75*
G02*
X121943001Y-92369300I0J62500D01*
G01*
X121943001Y-91669300D01*
G75*
G02*
X122005501Y-91606800I62500J0D01*
G01*
X122130501Y-91606800D01*
G75*
G02*
X122193001Y-91669300I0J-62500D01*
G01*
G37*
G36*
G01*
X121693001Y-91669300D02*
X121693001Y-92369300D01*
G75*
G02*
X121630501Y-92431800I-62500J0D01*
G01*
X121505501Y-92431800D01*
G75*
G02*
X121443001Y-92369300I0J62500D01*
G01*
X121443001Y-91669300D01*
G75*
G02*
X121505501Y-91606800I62500J0D01*
G01*
X121630501Y-91606800D01*
G75*
G02*
X121693001Y-91669300I0J-62500D01*
G01*
G37*
G36*
G01*
X121193001Y-91669300D02*
X121193001Y-92369300D01*
G75*
G02*
X121130501Y-92431800I-62500J0D01*
G01*
X121005501Y-92431800D01*
G75*
G02*
X120943001Y-92369300I0J62500D01*
G01*
X120943001Y-91669300D01*
G75*
G02*
X121005501Y-91606800I62500J0D01*
G01*
X121130501Y-91606800D01*
G75*
G02*
X121193001Y-91669300I0J-62500D01*
G01*
G37*
G36*
G01*
X120793001Y-92644300D02*
X120793001Y-92769300D01*
G75*
G02*
X120730501Y-92831800I-62500J0D01*
G01*
X120030501Y-92831800D01*
G75*
G02*
X119968001Y-92769300I0J62500D01*
G01*
X119968001Y-92644300D01*
G75*
G02*
X120030501Y-92581800I62500J0D01*
G01*
X120730501Y-92581800D01*
G75*
G02*
X120793001Y-92644300I0J-62500D01*
G01*
G37*
G36*
G01*
X120793001Y-93144300D02*
X120793001Y-93269300D01*
G75*
G02*
X120730501Y-93331800I-62500J0D01*
G01*
X120030501Y-93331800D01*
G75*
G02*
X119968001Y-93269300I0J62500D01*
G01*
X119968001Y-93144300D01*
G75*
G02*
X120030501Y-93081800I62500J0D01*
G01*
X120730501Y-93081800D01*
G75*
G02*
X120793001Y-93144300I0J-62500D01*
G01*
G37*
G36*
G01*
X120793001Y-93644300D02*
X120793001Y-93769300D01*
G75*
G02*
X120730501Y-93831800I-62500J0D01*
G01*
X120030501Y-93831800D01*
G75*
G02*
X119968001Y-93769300I0J62500D01*
G01*
X119968001Y-93644300D01*
G75*
G02*
X120030501Y-93581800I62500J0D01*
G01*
X120730501Y-93581800D01*
G75*
G02*
X120793001Y-93644300I0J-62500D01*
G01*
G37*
G36*
G01*
X120793001Y-94144300D02*
X120793001Y-94269300D01*
G75*
G02*
X120730501Y-94331800I-62500J0D01*
G01*
X120030501Y-94331800D01*
G75*
G02*
X119968001Y-94269300I0J62500D01*
G01*
X119968001Y-94144300D01*
G75*
G02*
X120030501Y-94081800I62500J0D01*
G01*
X120730501Y-94081800D01*
G75*
G02*
X120793001Y-94144300I0J-62500D01*
G01*
G37*
G36*
G01*
X121193001Y-94544300D02*
X121193001Y-95244300D01*
G75*
G02*
X121130501Y-95306800I-62500J0D01*
G01*
X121005501Y-95306800D01*
G75*
G02*
X120943001Y-95244300I0J62500D01*
G01*
X120943001Y-94544300D01*
G75*
G02*
X121005501Y-94481800I62500J0D01*
G01*
X121130501Y-94481800D01*
G75*
G02*
X121193001Y-94544300I0J-62500D01*
G01*
G37*
G36*
G01*
X121693001Y-94544300D02*
X121693001Y-95244300D01*
G75*
G02*
X121630501Y-95306800I-62500J0D01*
G01*
X121505501Y-95306800D01*
G75*
G02*
X121443001Y-95244300I0J62500D01*
G01*
X121443001Y-94544300D01*
G75*
G02*
X121505501Y-94481800I62500J0D01*
G01*
X121630501Y-94481800D01*
G75*
G02*
X121693001Y-94544300I0J-62500D01*
G01*
G37*
G36*
G01*
X122193001Y-94544300D02*
X122193001Y-95244300D01*
G75*
G02*
X122130501Y-95306800I-62500J0D01*
G01*
X122005501Y-95306800D01*
G75*
G02*
X121943001Y-95244300I0J62500D01*
G01*
X121943001Y-94544300D01*
G75*
G02*
X122005501Y-94481800I62500J0D01*
G01*
X122130501Y-94481800D01*
G75*
G02*
X122193001Y-94544300I0J-62500D01*
G01*
G37*
G36*
G01*
X122693001Y-94544300D02*
X122693001Y-95244300D01*
G75*
G02*
X122630501Y-95306800I-62500J0D01*
G01*
X122505501Y-95306800D01*
G75*
G02*
X122443001Y-95244300I0J62500D01*
G01*
X122443001Y-94544300D01*
G75*
G02*
X122505501Y-94481800I62500J0D01*
G01*
X122630501Y-94481800D01*
G75*
G02*
X122693001Y-94544300I0J-62500D01*
G01*
G37*
G36*
G01*
X169381000Y-46957000D02*
X169381000Y-47907000D01*
G75*
G02*
X169131000Y-48157000I-250000J0D01*
G01*
X168631000Y-48157000D01*
G75*
G02*
X168381000Y-47907000I0J250000D01*
G01*
X168381000Y-46957000D01*
G75*
G02*
X168631000Y-46707000I250000J0D01*
G01*
X169131000Y-46707000D01*
G75*
G02*
X169381000Y-46957000I0J-250000D01*
G01*
G37*
G36*
G01*
X167481000Y-46957000D02*
X167481000Y-47907000D01*
G75*
G02*
X167231000Y-48157000I-250000J0D01*
G01*
X166731000Y-48157000D01*
G75*
G02*
X166481000Y-47907000I0J250000D01*
G01*
X166481000Y-46957000D01*
G75*
G02*
X166731000Y-46707000I250000J0D01*
G01*
X167231000Y-46707000D01*
G75*
G02*
X167481000Y-46957000I0J-250000D01*
G01*
G37*
G36*
G01*
X131200000Y-143386000D02*
X131200000Y-142486000D01*
G75*
G02*
X131450000Y-142236000I250000J0D01*
G01*
X131975000Y-142236000D01*
G75*
G02*
X132225000Y-142486000I0J-250000D01*
G01*
X132225000Y-143386000D01*
G75*
G02*
X131975000Y-143636000I-250000J0D01*
G01*
X131450000Y-143636000D01*
G75*
G02*
X131200000Y-143386000I0J250000D01*
G01*
G37*
G36*
G01*
X133025000Y-143386000D02*
X133025000Y-142486000D01*
G75*
G02*
X133275000Y-142236000I250000J0D01*
G01*
X133800000Y-142236000D01*
G75*
G02*
X134050000Y-142486000I0J-250000D01*
G01*
X134050000Y-143386000D01*
G75*
G02*
X133800000Y-143636000I-250000J0D01*
G01*
X133275000Y-143636000D01*
G75*
G02*
X133025000Y-143386000I0J250000D01*
G01*
G37*
G36*
G01*
X176769250Y-72987000D02*
X175856750Y-72987000D01*
G75*
G02*
X175613000Y-72743250I0J243750D01*
G01*
X175613000Y-72255750D01*
G75*
G02*
X175856750Y-72012000I243750J0D01*
G01*
X176769250Y-72012000D01*
G75*
G02*
X177013000Y-72255750I0J-243750D01*
G01*
X177013000Y-72743250D01*
G75*
G02*
X176769250Y-72987000I-243750J0D01*
G01*
G37*
G36*
G01*
X176769250Y-71112000D02*
X175856750Y-71112000D01*
G75*
G02*
X175613000Y-70868250I0J243750D01*
G01*
X175613000Y-70380750D01*
G75*
G02*
X175856750Y-70137000I243750J0D01*
G01*
X176769250Y-70137000D01*
G75*
G02*
X177013000Y-70380750I0J-243750D01*
G01*
X177013000Y-70868250D01*
G75*
G02*
X176769250Y-71112000I-243750J0D01*
G01*
G37*
G36*
G01*
X133588000Y-176558000D02*
X133588000Y-175608000D01*
G75*
G02*
X133838000Y-175358000I250000J0D01*
G01*
X134338000Y-175358000D01*
G75*
G02*
X134588000Y-175608000I0J-250000D01*
G01*
X134588000Y-176558000D01*
G75*
G02*
X134338000Y-176808000I-250000J0D01*
G01*
X133838000Y-176808000D01*
G75*
G02*
X133588000Y-176558000I0J250000D01*
G01*
G37*
G36*
G01*
X135488000Y-176558000D02*
X135488000Y-175608000D01*
G75*
G02*
X135738000Y-175358000I250000J0D01*
G01*
X136238000Y-175358000D01*
G75*
G02*
X136488000Y-175608000I0J-250000D01*
G01*
X136488000Y-176558000D01*
G75*
G02*
X136238000Y-176808000I-250000J0D01*
G01*
X135738000Y-176808000D01*
G75*
G02*
X135488000Y-176558000I0J250000D01*
G01*
G37*
G36*
G01*
X177331000Y-50748500D02*
X178435000Y-50748500D01*
G75*
G02*
X178573000Y-50886500I0J-138000D01*
G01*
X178573000Y-52710500D01*
G75*
G02*
X178435000Y-52848500I-138000J0D01*
G01*
X177331000Y-52848500D01*
G75*
G02*
X177193000Y-52710500I0J138000D01*
G01*
X177193000Y-50886500D01*
G75*
G02*
X177331000Y-50748500I138000J0D01*
G01*
G37*
G36*
G01*
X177331000Y-41648500D02*
X178435000Y-41648500D01*
G75*
G02*
X178573000Y-41786500I0J-138000D01*
G01*
X178573000Y-43610500D01*
G75*
G02*
X178435000Y-43748500I-138000J0D01*
G01*
X177331000Y-43748500D01*
G75*
G02*
X177193000Y-43610500I0J138000D01*
G01*
X177193000Y-41786500D01*
G75*
G02*
X177331000Y-41648500I138000J0D01*
G01*
G37*
G36*
G01*
X181811000Y-50748500D02*
X182915000Y-50748500D01*
G75*
G02*
X183053000Y-50886500I0J-138000D01*
G01*
X183053000Y-52710500D01*
G75*
G02*
X182915000Y-52848500I-138000J0D01*
G01*
X181811000Y-52848500D01*
G75*
G02*
X181673000Y-52710500I0J138000D01*
G01*
X181673000Y-50886500D01*
G75*
G02*
X181811000Y-50748500I138000J0D01*
G01*
G37*
G36*
G01*
X181811000Y-41648500D02*
X182915000Y-41648500D01*
G75*
G02*
X183053000Y-41786500I0J-138000D01*
G01*
X183053000Y-43610500D01*
G75*
G02*
X182915000Y-43748500I-138000J0D01*
G01*
X181811000Y-43748500D01*
G75*
G02*
X181673000Y-43610500I0J138000D01*
G01*
X181673000Y-41786500D01*
G75*
G02*
X181811000Y-41648500I138000J0D01*
G01*
G37*
G36*
G01*
X131667000Y-68105000D02*
X132567000Y-68105000D01*
G75*
G02*
X132817000Y-68355000I0J-250000D01*
G01*
X132817000Y-68880000D01*
G75*
G02*
X132567000Y-69130000I-250000J0D01*
G01*
X131667000Y-69130000D01*
G75*
G02*
X131417000Y-68880000I0J250000D01*
G01*
X131417000Y-68355000D01*
G75*
G02*
X131667000Y-68105000I250000J0D01*
G01*
G37*
G36*
G01*
X131667000Y-69930000D02*
X132567000Y-69930000D01*
G75*
G02*
X132817000Y-70180000I0J-250000D01*
G01*
X132817000Y-70705000D01*
G75*
G02*
X132567000Y-70955000I-250000J0D01*
G01*
X131667000Y-70955000D01*
G75*
G02*
X131417000Y-70705000I0J250000D01*
G01*
X131417000Y-70180000D01*
G75*
G02*
X131667000Y-69930000I250000J0D01*
G01*
G37*
G36*
G01*
X125231000Y-89919000D02*
X125231000Y-89019000D01*
G75*
G02*
X125481000Y-88769000I250000J0D01*
G01*
X126006000Y-88769000D01*
G75*
G02*
X126256000Y-89019000I0J-250000D01*
G01*
X126256000Y-89919000D01*
G75*
G02*
X126006000Y-90169000I-250000J0D01*
G01*
X125481000Y-90169000D01*
G75*
G02*
X125231000Y-89919000I0J250000D01*
G01*
G37*
G36*
G01*
X127056000Y-89919000D02*
X127056000Y-89019000D01*
G75*
G02*
X127306000Y-88769000I250000J0D01*
G01*
X127831000Y-88769000D01*
G75*
G02*
X128081000Y-89019000I0J-250000D01*
G01*
X128081000Y-89919000D01*
G75*
G02*
X127831000Y-90169000I-250000J0D01*
G01*
X127306000Y-90169000D01*
G75*
G02*
X127056000Y-89919000I0J250000D01*
G01*
G37*
G36*
G01*
X159491000Y-182588000D02*
X158591000Y-182588000D01*
G75*
G02*
X158341000Y-182338000I0J250000D01*
G01*
X158341000Y-181813000D01*
G75*
G02*
X158591000Y-181563000I250000J0D01*
G01*
X159491000Y-181563000D01*
G75*
G02*
X159741000Y-181813000I0J-250000D01*
G01*
X159741000Y-182338000D01*
G75*
G02*
X159491000Y-182588000I-250000J0D01*
G01*
G37*
G36*
G01*
X159491000Y-180763000D02*
X158591000Y-180763000D01*
G75*
G02*
X158341000Y-180513000I0J250000D01*
G01*
X158341000Y-179988000D01*
G75*
G02*
X158591000Y-179738000I250000J0D01*
G01*
X159491000Y-179738000D01*
G75*
G02*
X159741000Y-179988000I0J-250000D01*
G01*
X159741000Y-180513000D01*
G75*
G02*
X159491000Y-180763000I-250000J0D01*
G01*
G37*
D17*
X165059000Y-156428000D03*
X166159000Y-156428000D03*
X167259000Y-156428000D03*
X168359000Y-156428000D03*
X169459000Y-156428000D03*
X170559000Y-156428000D03*
X171659000Y-156428000D03*
X172759000Y-156428000D03*
X173709000Y-156428000D03*
D18*
X174659000Y-145928000D03*
D19*
X174659000Y-152128000D03*
D20*
X174659000Y-141778000D03*
D19*
X163509000Y-156428000D03*
D21*
X161159000Y-141328000D03*
G36*
G01*
X177331000Y-65029000D02*
X178435000Y-65029000D01*
G75*
G02*
X178573000Y-65167000I0J-138000D01*
G01*
X178573000Y-66991000D01*
G75*
G02*
X178435000Y-67129000I-138000J0D01*
G01*
X177331000Y-67129000D01*
G75*
G02*
X177193000Y-66991000I0J138000D01*
G01*
X177193000Y-65167000D01*
G75*
G02*
X177331000Y-65029000I138000J0D01*
G01*
G37*
G36*
G01*
X177331000Y-55929000D02*
X178435000Y-55929000D01*
G75*
G02*
X178573000Y-56067000I0J-138000D01*
G01*
X178573000Y-57891000D01*
G75*
G02*
X178435000Y-58029000I-138000J0D01*
G01*
X177331000Y-58029000D01*
G75*
G02*
X177193000Y-57891000I0J138000D01*
G01*
X177193000Y-56067000D01*
G75*
G02*
X177331000Y-55929000I138000J0D01*
G01*
G37*
G36*
G01*
X181811000Y-65029000D02*
X182915000Y-65029000D01*
G75*
G02*
X183053000Y-65167000I0J-138000D01*
G01*
X183053000Y-66991000D01*
G75*
G02*
X182915000Y-67129000I-138000J0D01*
G01*
X181811000Y-67129000D01*
G75*
G02*
X181673000Y-66991000I0J138000D01*
G01*
X181673000Y-65167000D01*
G75*
G02*
X181811000Y-65029000I138000J0D01*
G01*
G37*
G36*
G01*
X181811000Y-55929000D02*
X182915000Y-55929000D01*
G75*
G02*
X183053000Y-56067000I0J-138000D01*
G01*
X183053000Y-57891000D01*
G75*
G02*
X182915000Y-58029000I-138000J0D01*
G01*
X181811000Y-58029000D01*
G75*
G02*
X181673000Y-57891000I0J138000D01*
G01*
X181673000Y-56067000D01*
G75*
G02*
X181811000Y-55929000I138000J0D01*
G01*
G37*
D17*
X165059000Y-96738000D03*
X166159000Y-96738000D03*
X167259000Y-96738000D03*
X168359000Y-96738000D03*
X169459000Y-96738000D03*
X170559000Y-96738000D03*
X171659000Y-96738000D03*
X172759000Y-96738000D03*
X173709000Y-96738000D03*
D18*
X174659000Y-86238000D03*
D19*
X174659000Y-92438000D03*
D20*
X174659000Y-82088000D03*
D19*
X163509000Y-96738000D03*
D21*
X161159000Y-81638000D03*
G36*
G01*
X129168000Y-133359250D02*
X129168000Y-132446750D01*
G75*
G02*
X129411750Y-132203000I243750J0D01*
G01*
X129899250Y-132203000D01*
G75*
G02*
X130143000Y-132446750I0J-243750D01*
G01*
X130143000Y-133359250D01*
G75*
G02*
X129899250Y-133603000I-243750J0D01*
G01*
X129411750Y-133603000D01*
G75*
G02*
X129168000Y-133359250I0J243750D01*
G01*
G37*
G36*
G01*
X131043000Y-133359250D02*
X131043000Y-132446750D01*
G75*
G02*
X131286750Y-132203000I243750J0D01*
G01*
X131774250Y-132203000D01*
G75*
G02*
X132018000Y-132446750I0J-243750D01*
G01*
X132018000Y-133359250D01*
G75*
G02*
X131774250Y-133603000I-243750J0D01*
G01*
X131286750Y-133603000D01*
G75*
G02*
X131043000Y-133359250I0J243750D01*
G01*
G37*
G36*
G01*
X129646000Y-168745000D02*
X128746000Y-168745000D01*
G75*
G02*
X128496000Y-168495000I0J250000D01*
G01*
X128496000Y-167970000D01*
G75*
G02*
X128746000Y-167720000I250000J0D01*
G01*
X129646000Y-167720000D01*
G75*
G02*
X129896000Y-167970000I0J-250000D01*
G01*
X129896000Y-168495000D01*
G75*
G02*
X129646000Y-168745000I-250000J0D01*
G01*
G37*
G36*
G01*
X129646000Y-166920000D02*
X128746000Y-166920000D01*
G75*
G02*
X128496000Y-166670000I0J250000D01*
G01*
X128496000Y-166145000D01*
G75*
G02*
X128746000Y-165895000I250000J0D01*
G01*
X129646000Y-165895000D01*
G75*
G02*
X129896000Y-166145000I0J-250000D01*
G01*
X129896000Y-166670000D01*
G75*
G02*
X129646000Y-166920000I-250000J0D01*
G01*
G37*
G36*
G01*
X134436000Y-165870000D02*
X135386000Y-165870000D01*
G75*
G02*
X135636000Y-166120000I0J-250000D01*
G01*
X135636000Y-166620000D01*
G75*
G02*
X135386000Y-166870000I-250000J0D01*
G01*
X134436000Y-166870000D01*
G75*
G02*
X134186000Y-166620000I0J250000D01*
G01*
X134186000Y-166120000D01*
G75*
G02*
X134436000Y-165870000I250000J0D01*
G01*
G37*
G36*
G01*
X134436000Y-167770000D02*
X135386000Y-167770000D01*
G75*
G02*
X135636000Y-168020000I0J-250000D01*
G01*
X135636000Y-168520000D01*
G75*
G02*
X135386000Y-168770000I-250000J0D01*
G01*
X134436000Y-168770000D01*
G75*
G02*
X134186000Y-168520000I0J250000D01*
G01*
X134186000Y-168020000D01*
G75*
G02*
X134436000Y-167770000I250000J0D01*
G01*
G37*
G36*
G01*
X128781000Y-187485000D02*
X129681000Y-187485000D01*
G75*
G02*
X129931000Y-187735000I0J-250000D01*
G01*
X129931000Y-188260000D01*
G75*
G02*
X129681000Y-188510000I-250000J0D01*
G01*
X128781000Y-188510000D01*
G75*
G02*
X128531000Y-188260000I0J250000D01*
G01*
X128531000Y-187735000D01*
G75*
G02*
X128781000Y-187485000I250000J0D01*
G01*
G37*
G36*
G01*
X128781000Y-189310000D02*
X129681000Y-189310000D01*
G75*
G02*
X129931000Y-189560000I0J-250000D01*
G01*
X129931000Y-190085000D01*
G75*
G02*
X129681000Y-190335000I-250000J0D01*
G01*
X128781000Y-190335000D01*
G75*
G02*
X128531000Y-190085000I0J250000D01*
G01*
X128531000Y-189560000D01*
G75*
G02*
X128781000Y-189310000I250000J0D01*
G01*
G37*
G36*
G01*
X132211000Y-29959000D02*
X131261000Y-29959000D01*
G75*
G02*
X131011000Y-29709000I0J250000D01*
G01*
X131011000Y-29209000D01*
G75*
G02*
X131261000Y-28959000I250000J0D01*
G01*
X132211000Y-28959000D01*
G75*
G02*
X132461000Y-29209000I0J-250000D01*
G01*
X132461000Y-29709000D01*
G75*
G02*
X132211000Y-29959000I-250000J0D01*
G01*
G37*
G36*
G01*
X132211000Y-28059000D02*
X131261000Y-28059000D01*
G75*
G02*
X131011000Y-27809000I0J250000D01*
G01*
X131011000Y-27309000D01*
G75*
G02*
X131261000Y-27059000I250000J0D01*
G01*
X132211000Y-27059000D01*
G75*
G02*
X132461000Y-27309000I0J-250000D01*
G01*
X132461000Y-27809000D01*
G75*
G02*
X132211000Y-28059000I-250000J0D01*
G01*
G37*
G36*
G01*
X115077000Y-151937000D02*
X116327000Y-151937000D01*
G75*
G02*
X116477000Y-152087000I0J-150000D01*
G01*
X116477000Y-152387000D01*
G75*
G02*
X116327000Y-152537000I-150000J0D01*
G01*
X115077000Y-152537000D01*
G75*
G02*
X114927000Y-152387000I0J150000D01*
G01*
X114927000Y-152087000D01*
G75*
G02*
X115077000Y-151937000I150000J0D01*
G01*
G37*
G36*
G01*
X115077000Y-152937000D02*
X116327000Y-152937000D01*
G75*
G02*
X116477000Y-153087000I0J-150000D01*
G01*
X116477000Y-153387000D01*
G75*
G02*
X116327000Y-153537000I-150000J0D01*
G01*
X115077000Y-153537000D01*
G75*
G02*
X114927000Y-153387000I0J150000D01*
G01*
X114927000Y-153087000D01*
G75*
G02*
X115077000Y-152937000I150000J0D01*
G01*
G37*
G36*
G01*
X115077000Y-153937000D02*
X116327000Y-153937000D01*
G75*
G02*
X116477000Y-154087000I0J-150000D01*
G01*
X116477000Y-154387000D01*
G75*
G02*
X116327000Y-154537000I-150000J0D01*
G01*
X115077000Y-154537000D01*
G75*
G02*
X114927000Y-154387000I0J150000D01*
G01*
X114927000Y-154087000D01*
G75*
G02*
X115077000Y-153937000I150000J0D01*
G01*
G37*
G36*
G01*
X115077000Y-154937000D02*
X116327000Y-154937000D01*
G75*
G02*
X116477000Y-155087000I0J-150000D01*
G01*
X116477000Y-155387000D01*
G75*
G02*
X116327000Y-155537000I-150000J0D01*
G01*
X115077000Y-155537000D01*
G75*
G02*
X114927000Y-155387000I0J150000D01*
G01*
X114927000Y-155087000D01*
G75*
G02*
X115077000Y-154937000I150000J0D01*
G01*
G37*
G36*
G01*
X111177000Y-150337000D02*
X112477000Y-150337000D01*
G75*
G02*
X112727000Y-150587000I0J-250000D01*
G01*
X112727000Y-151287000D01*
G75*
G02*
X112477000Y-151537000I-250000J0D01*
G01*
X111177000Y-151537000D01*
G75*
G02*
X110927000Y-151287000I0J250000D01*
G01*
X110927000Y-150587000D01*
G75*
G02*
X111177000Y-150337000I250000J0D01*
G01*
G37*
G36*
G01*
X111177000Y-155937000D02*
X112477000Y-155937000D01*
G75*
G02*
X112727000Y-156187000I0J-250000D01*
G01*
X112727000Y-156887000D01*
G75*
G02*
X112477000Y-157137000I-250000J0D01*
G01*
X111177000Y-157137000D01*
G75*
G02*
X110927000Y-156887000I0J250000D01*
G01*
X110927000Y-156187000D01*
G75*
G02*
X111177000Y-155937000I250000J0D01*
G01*
G37*
G36*
G01*
X133238000Y-52347000D02*
X133238000Y-52047000D01*
G75*
G02*
X133388000Y-51897000I150000J0D01*
G01*
X134413000Y-51897000D01*
G75*
G02*
X134563000Y-52047000I0J-150000D01*
G01*
X134563000Y-52347000D01*
G75*
G02*
X134413000Y-52497000I-150000J0D01*
G01*
X133388000Y-52497000D01*
G75*
G02*
X133238000Y-52347000I0J150000D01*
G01*
G37*
G36*
G01*
X133238000Y-53297000D02*
X133238000Y-52997000D01*
G75*
G02*
X133388000Y-52847000I150000J0D01*
G01*
X134413000Y-52847000D01*
G75*
G02*
X134563000Y-52997000I0J-150000D01*
G01*
X134563000Y-53297000D01*
G75*
G02*
X134413000Y-53447000I-150000J0D01*
G01*
X133388000Y-53447000D01*
G75*
G02*
X133238000Y-53297000I0J150000D01*
G01*
G37*
G36*
G01*
X133238000Y-54247000D02*
X133238000Y-53947000D01*
G75*
G02*
X133388000Y-53797000I150000J0D01*
G01*
X134413000Y-53797000D01*
G75*
G02*
X134563000Y-53947000I0J-150000D01*
G01*
X134563000Y-54247000D01*
G75*
G02*
X134413000Y-54397000I-150000J0D01*
G01*
X133388000Y-54397000D01*
G75*
G02*
X133238000Y-54247000I0J150000D01*
G01*
G37*
G36*
G01*
X135513000Y-54247000D02*
X135513000Y-53947000D01*
G75*
G02*
X135663000Y-53797000I150000J0D01*
G01*
X136688000Y-53797000D01*
G75*
G02*
X136838000Y-53947000I0J-150000D01*
G01*
X136838000Y-54247000D01*
G75*
G02*
X136688000Y-54397000I-150000J0D01*
G01*
X135663000Y-54397000D01*
G75*
G02*
X135513000Y-54247000I0J150000D01*
G01*
G37*
G36*
G01*
X135513000Y-53297000D02*
X135513000Y-52997000D01*
G75*
G02*
X135663000Y-52847000I150000J0D01*
G01*
X136688000Y-52847000D01*
G75*
G02*
X136838000Y-52997000I0J-150000D01*
G01*
X136838000Y-53297000D01*
G75*
G02*
X136688000Y-53447000I-150000J0D01*
G01*
X135663000Y-53447000D01*
G75*
G02*
X135513000Y-53297000I0J150000D01*
G01*
G37*
G36*
G01*
X135513000Y-52347000D02*
X135513000Y-52047000D01*
G75*
G02*
X135663000Y-51897000I150000J0D01*
G01*
X136688000Y-51897000D01*
G75*
G02*
X136838000Y-52047000I0J-150000D01*
G01*
X136838000Y-52347000D01*
G75*
G02*
X136688000Y-52497000I-150000J0D01*
G01*
X135663000Y-52497000D01*
G75*
G02*
X135513000Y-52347000I0J150000D01*
G01*
G37*
G36*
G01*
X155645000Y-60333000D02*
X156595000Y-60333000D01*
G75*
G02*
X156845000Y-60583000I0J-250000D01*
G01*
X156845000Y-61083000D01*
G75*
G02*
X156595000Y-61333000I-250000J0D01*
G01*
X155645000Y-61333000D01*
G75*
G02*
X155395000Y-61083000I0J250000D01*
G01*
X155395000Y-60583000D01*
G75*
G02*
X155645000Y-60333000I250000J0D01*
G01*
G37*
G36*
G01*
X155645000Y-62233000D02*
X156595000Y-62233000D01*
G75*
G02*
X156845000Y-62483000I0J-250000D01*
G01*
X156845000Y-62983000D01*
G75*
G02*
X156595000Y-63233000I-250000J0D01*
G01*
X155645000Y-63233000D01*
G75*
G02*
X155395000Y-62983000I0J250000D01*
G01*
X155395000Y-62483000D01*
G75*
G02*
X155645000Y-62233000I250000J0D01*
G01*
G37*
G36*
G01*
X125231000Y-30229000D02*
X125231000Y-29329000D01*
G75*
G02*
X125481000Y-29079000I250000J0D01*
G01*
X126006000Y-29079000D01*
G75*
G02*
X126256000Y-29329000I0J-250000D01*
G01*
X126256000Y-30229000D01*
G75*
G02*
X126006000Y-30479000I-250000J0D01*
G01*
X125481000Y-30479000D01*
G75*
G02*
X125231000Y-30229000I0J250000D01*
G01*
G37*
G36*
G01*
X127056000Y-30229000D02*
X127056000Y-29329000D01*
G75*
G02*
X127306000Y-29079000I250000J0D01*
G01*
X127831000Y-29079000D01*
G75*
G02*
X128081000Y-29329000I0J-250000D01*
G01*
X128081000Y-30229000D01*
G75*
G02*
X127831000Y-30479000I-250000J0D01*
G01*
X127306000Y-30479000D01*
G75*
G02*
X127056000Y-30229000I0J250000D01*
G01*
G37*
G36*
G01*
X162285000Y-182588000D02*
X161385000Y-182588000D01*
G75*
G02*
X161135000Y-182338000I0J250000D01*
G01*
X161135000Y-181813000D01*
G75*
G02*
X161385000Y-181563000I250000J0D01*
G01*
X162285000Y-181563000D01*
G75*
G02*
X162535000Y-181813000I0J-250000D01*
G01*
X162535000Y-182338000D01*
G75*
G02*
X162285000Y-182588000I-250000J0D01*
G01*
G37*
G36*
G01*
X162285000Y-180763000D02*
X161385000Y-180763000D01*
G75*
G02*
X161135000Y-180513000I0J250000D01*
G01*
X161135000Y-179988000D01*
G75*
G02*
X161385000Y-179738000I250000J0D01*
G01*
X162285000Y-179738000D01*
G75*
G02*
X162535000Y-179988000I0J-250000D01*
G01*
X162535000Y-180513000D01*
G75*
G02*
X162285000Y-180763000I-250000J0D01*
G01*
G37*
G36*
G01*
X168762000Y-63208000D02*
X167862000Y-63208000D01*
G75*
G02*
X167612000Y-62958000I0J250000D01*
G01*
X167612000Y-62433000D01*
G75*
G02*
X167862000Y-62183000I250000J0D01*
G01*
X168762000Y-62183000D01*
G75*
G02*
X169012000Y-62433000I0J-250000D01*
G01*
X169012000Y-62958000D01*
G75*
G02*
X168762000Y-63208000I-250000J0D01*
G01*
G37*
G36*
G01*
X168762000Y-61383000D02*
X167862000Y-61383000D01*
G75*
G02*
X167612000Y-61133000I0J250000D01*
G01*
X167612000Y-60608000D01*
G75*
G02*
X167862000Y-60358000I250000J0D01*
G01*
X168762000Y-60358000D01*
G75*
G02*
X169012000Y-60608000I0J-250000D01*
G01*
X169012000Y-61133000D01*
G75*
G02*
X168762000Y-61383000I-250000J0D01*
G01*
G37*
G36*
G01*
X127884000Y-117658000D02*
X128984000Y-117658000D01*
G75*
G02*
X129234000Y-117908000I0J-250000D01*
G01*
X129234000Y-120908000D01*
G75*
G02*
X128984000Y-121158000I-250000J0D01*
G01*
X127884000Y-121158000D01*
G75*
G02*
X127634000Y-120908000I0J250000D01*
G01*
X127634000Y-117908000D01*
G75*
G02*
X127884000Y-117658000I250000J0D01*
G01*
G37*
G36*
G01*
X127884000Y-123058000D02*
X128984000Y-123058000D01*
G75*
G02*
X129234000Y-123308000I0J-250000D01*
G01*
X129234000Y-126308000D01*
G75*
G02*
X128984000Y-126558000I-250000J0D01*
G01*
X127884000Y-126558000D01*
G75*
G02*
X127634000Y-126308000I0J250000D01*
G01*
X127634000Y-123308000D01*
G75*
G02*
X127884000Y-123058000I250000J0D01*
G01*
G37*
G36*
G01*
X128057500Y-26535000D02*
X128057500Y-27435000D01*
G75*
G02*
X127807500Y-27685000I-250000J0D01*
G01*
X127282500Y-27685000D01*
G75*
G02*
X127032500Y-27435000I0J250000D01*
G01*
X127032500Y-26535000D01*
G75*
G02*
X127282500Y-26285000I250000J0D01*
G01*
X127807500Y-26285000D01*
G75*
G02*
X128057500Y-26535000I0J-250000D01*
G01*
G37*
G36*
G01*
X126232500Y-26535000D02*
X126232500Y-27435000D01*
G75*
G02*
X125982500Y-27685000I-250000J0D01*
G01*
X125457500Y-27685000D01*
G75*
G02*
X125207500Y-27435000I0J250000D01*
G01*
X125207500Y-26535000D01*
G75*
G02*
X125457500Y-26285000I250000J0D01*
G01*
X125982500Y-26285000D01*
G75*
G02*
X126232500Y-26535000I0J-250000D01*
G01*
G37*
G36*
G01*
X142330000Y-111600000D02*
X142330000Y-112550000D01*
G75*
G02*
X142080000Y-112800000I-250000J0D01*
G01*
X141580000Y-112800000D01*
G75*
G02*
X141330000Y-112550000I0J250000D01*
G01*
X141330000Y-111600000D01*
G75*
G02*
X141580000Y-111350000I250000J0D01*
G01*
X142080000Y-111350000D01*
G75*
G02*
X142330000Y-111600000I0J-250000D01*
G01*
G37*
G36*
G01*
X140430000Y-111600000D02*
X140430000Y-112550000D01*
G75*
G02*
X140180000Y-112800000I-250000J0D01*
G01*
X139680000Y-112800000D01*
G75*
G02*
X139430000Y-112550000I0J250000D01*
G01*
X139430000Y-111600000D01*
G75*
G02*
X139680000Y-111350000I250000J0D01*
G01*
X140180000Y-111350000D01*
G75*
G02*
X140430000Y-111600000I0J-250000D01*
G01*
G37*
D15*
X119429000Y-46208000D03*
X119429000Y-47008000D03*
X119429000Y-47808000D03*
X119429000Y-48608000D03*
X119429000Y-49408000D03*
D16*
X113829000Y-43358000D03*
X113829000Y-52258000D03*
X119329000Y-43358000D03*
X119329000Y-52258000D03*
G36*
G01*
X173928000Y-106672000D02*
X173928000Y-107572000D01*
G75*
G02*
X173678000Y-107822000I-250000J0D01*
G01*
X173153000Y-107822000D01*
G75*
G02*
X172903000Y-107572000I0J250000D01*
G01*
X172903000Y-106672000D01*
G75*
G02*
X173153000Y-106422000I250000J0D01*
G01*
X173678000Y-106422000D01*
G75*
G02*
X173928000Y-106672000I0J-250000D01*
G01*
G37*
G36*
G01*
X172103000Y-106672000D02*
X172103000Y-107572000D01*
G75*
G02*
X171853000Y-107822000I-250000J0D01*
G01*
X171328000Y-107822000D01*
G75*
G02*
X171078000Y-107572000I0J250000D01*
G01*
X171078000Y-106672000D01*
G75*
G02*
X171328000Y-106422000I250000J0D01*
G01*
X171853000Y-106422000D01*
G75*
G02*
X172103000Y-106672000I0J-250000D01*
G01*
G37*
D10*
X130211000Y-114996000D03*
X126911000Y-114996000D03*
G36*
G01*
X168762000Y-182588000D02*
X167862000Y-182588000D01*
G75*
G02*
X167612000Y-182338000I0J250000D01*
G01*
X167612000Y-181813000D01*
G75*
G02*
X167862000Y-181563000I250000J0D01*
G01*
X168762000Y-181563000D01*
G75*
G02*
X169012000Y-181813000I0J-250000D01*
G01*
X169012000Y-182338000D01*
G75*
G02*
X168762000Y-182588000I-250000J0D01*
G01*
G37*
G36*
G01*
X168762000Y-180763000D02*
X167862000Y-180763000D01*
G75*
G02*
X167612000Y-180513000I0J250000D01*
G01*
X167612000Y-179988000D01*
G75*
G02*
X167862000Y-179738000I250000J0D01*
G01*
X168762000Y-179738000D01*
G75*
G02*
X169012000Y-179988000I0J-250000D01*
G01*
X169012000Y-180513000D01*
G75*
G02*
X168762000Y-180763000I-250000J0D01*
G01*
G37*
G36*
G01*
X132211000Y-89649000D02*
X131261000Y-89649000D01*
G75*
G02*
X131011000Y-89399000I0J250000D01*
G01*
X131011000Y-88899000D01*
G75*
G02*
X131261000Y-88649000I250000J0D01*
G01*
X132211000Y-88649000D01*
G75*
G02*
X132461000Y-88899000I0J-250000D01*
G01*
X132461000Y-89399000D01*
G75*
G02*
X132211000Y-89649000I-250000J0D01*
G01*
G37*
G36*
G01*
X132211000Y-87749000D02*
X131261000Y-87749000D01*
G75*
G02*
X131011000Y-87499000I0J250000D01*
G01*
X131011000Y-86999000D01*
G75*
G02*
X131261000Y-86749000I250000J0D01*
G01*
X132211000Y-86749000D01*
G75*
G02*
X132461000Y-86999000I0J-250000D01*
G01*
X132461000Y-87499000D01*
G75*
G02*
X132211000Y-87749000I-250000J0D01*
G01*
G37*
G36*
G01*
X135259000Y-149339000D02*
X134309000Y-149339000D01*
G75*
G02*
X134059000Y-149089000I0J250000D01*
G01*
X134059000Y-148589000D01*
G75*
G02*
X134309000Y-148339000I250000J0D01*
G01*
X135259000Y-148339000D01*
G75*
G02*
X135509000Y-148589000I0J-250000D01*
G01*
X135509000Y-149089000D01*
G75*
G02*
X135259000Y-149339000I-250000J0D01*
G01*
G37*
G36*
G01*
X135259000Y-147439000D02*
X134309000Y-147439000D01*
G75*
G02*
X134059000Y-147189000I0J250000D01*
G01*
X134059000Y-146689000D01*
G75*
G02*
X134309000Y-146439000I250000J0D01*
G01*
X135259000Y-146439000D01*
G75*
G02*
X135509000Y-146689000I0J-250000D01*
G01*
X135509000Y-147189000D01*
G75*
G02*
X135259000Y-147439000I-250000J0D01*
G01*
G37*
G36*
G01*
X149229000Y-60185000D02*
X148279000Y-60185000D01*
G75*
G02*
X148029000Y-59935000I0J250000D01*
G01*
X148029000Y-59435000D01*
G75*
G02*
X148279000Y-59185000I250000J0D01*
G01*
X149229000Y-59185000D01*
G75*
G02*
X149479000Y-59435000I0J-250000D01*
G01*
X149479000Y-59935000D01*
G75*
G02*
X149229000Y-60185000I-250000J0D01*
G01*
G37*
G36*
G01*
X149229000Y-58285000D02*
X148279000Y-58285000D01*
G75*
G02*
X148029000Y-58035000I0J250000D01*
G01*
X148029000Y-57535000D01*
G75*
G02*
X148279000Y-57285000I250000J0D01*
G01*
X149229000Y-57285000D01*
G75*
G02*
X149479000Y-57535000I0J-250000D01*
G01*
X149479000Y-58035000D01*
G75*
G02*
X149229000Y-58285000I-250000J0D01*
G01*
G37*
G36*
G01*
X120876001Y-27460000D02*
X120876001Y-26510000D01*
G75*
G02*
X121126001Y-26260000I250000J0D01*
G01*
X121626001Y-26260000D01*
G75*
G02*
X121876001Y-26510000I0J-250000D01*
G01*
X121876001Y-27460000D01*
G75*
G02*
X121626001Y-27710000I-250000J0D01*
G01*
X121126001Y-27710000D01*
G75*
G02*
X120876001Y-27460000I0J250000D01*
G01*
G37*
G36*
G01*
X122776001Y-27460000D02*
X122776001Y-26510000D01*
G75*
G02*
X123026001Y-26260000I250000J0D01*
G01*
X123526001Y-26260000D01*
G75*
G02*
X123776001Y-26510000I0J-250000D01*
G01*
X123776001Y-27460000D01*
G75*
G02*
X123526001Y-27710000I-250000J0D01*
G01*
X123026001Y-27710000D01*
G75*
G02*
X122776001Y-27460000I0J250000D01*
G01*
G37*
G36*
G01*
X173928000Y-163441000D02*
X173928000Y-164341000D01*
G75*
G02*
X173678000Y-164591000I-250000J0D01*
G01*
X173153000Y-164591000D01*
G75*
G02*
X172903000Y-164341000I0J250000D01*
G01*
X172903000Y-163441000D01*
G75*
G02*
X173153000Y-163191000I250000J0D01*
G01*
X173678000Y-163191000D01*
G75*
G02*
X173928000Y-163441000I0J-250000D01*
G01*
G37*
G36*
G01*
X172103000Y-163441000D02*
X172103000Y-164341000D01*
G75*
G02*
X171853000Y-164591000I-250000J0D01*
G01*
X171328000Y-164591000D01*
G75*
G02*
X171078000Y-164341000I0J250000D01*
G01*
X171078000Y-163441000D01*
G75*
G02*
X171328000Y-163191000I250000J0D01*
G01*
X171853000Y-163191000D01*
G75*
G02*
X172103000Y-163441000I0J-250000D01*
G01*
G37*
G36*
G01*
X115077000Y-92247000D02*
X116327000Y-92247000D01*
G75*
G02*
X116477000Y-92397000I0J-150000D01*
G01*
X116477000Y-92697000D01*
G75*
G02*
X116327000Y-92847000I-150000J0D01*
G01*
X115077000Y-92847000D01*
G75*
G02*
X114927000Y-92697000I0J150000D01*
G01*
X114927000Y-92397000D01*
G75*
G02*
X115077000Y-92247000I150000J0D01*
G01*
G37*
G36*
G01*
X115077000Y-93247000D02*
X116327000Y-93247000D01*
G75*
G02*
X116477000Y-93397000I0J-150000D01*
G01*
X116477000Y-93697000D01*
G75*
G02*
X116327000Y-93847000I-150000J0D01*
G01*
X115077000Y-93847000D01*
G75*
G02*
X114927000Y-93697000I0J150000D01*
G01*
X114927000Y-93397000D01*
G75*
G02*
X115077000Y-93247000I150000J0D01*
G01*
G37*
G36*
G01*
X115077000Y-94247000D02*
X116327000Y-94247000D01*
G75*
G02*
X116477000Y-94397000I0J-150000D01*
G01*
X116477000Y-94697000D01*
G75*
G02*
X116327000Y-94847000I-150000J0D01*
G01*
X115077000Y-94847000D01*
G75*
G02*
X114927000Y-94697000I0J150000D01*
G01*
X114927000Y-94397000D01*
G75*
G02*
X115077000Y-94247000I150000J0D01*
G01*
G37*
G36*
G01*
X115077000Y-95247000D02*
X116327000Y-95247000D01*
G75*
G02*
X116477000Y-95397000I0J-150000D01*
G01*
X116477000Y-95697000D01*
G75*
G02*
X116327000Y-95847000I-150000J0D01*
G01*
X115077000Y-95847000D01*
G75*
G02*
X114927000Y-95697000I0J150000D01*
G01*
X114927000Y-95397000D01*
G75*
G02*
X115077000Y-95247000I150000J0D01*
G01*
G37*
G36*
G01*
X111177000Y-90647000D02*
X112477000Y-90647000D01*
G75*
G02*
X112727000Y-90897000I0J-250000D01*
G01*
X112727000Y-91597000D01*
G75*
G02*
X112477000Y-91847000I-250000J0D01*
G01*
X111177000Y-91847000D01*
G75*
G02*
X110927000Y-91597000I0J250000D01*
G01*
X110927000Y-90897000D01*
G75*
G02*
X111177000Y-90647000I250000J0D01*
G01*
G37*
G36*
G01*
X111177000Y-96247000D02*
X112477000Y-96247000D01*
G75*
G02*
X112727000Y-96497000I0J-250000D01*
G01*
X112727000Y-97197000D01*
G75*
G02*
X112477000Y-97447000I-250000J0D01*
G01*
X111177000Y-97447000D01*
G75*
G02*
X110927000Y-97197000I0J250000D01*
G01*
X110927000Y-96497000D01*
G75*
G02*
X111177000Y-96247000I250000J0D01*
G01*
G37*
G36*
G01*
X159491000Y-122898000D02*
X158591000Y-122898000D01*
G75*
G02*
X158341000Y-122648000I0J250000D01*
G01*
X158341000Y-122123000D01*
G75*
G02*
X158591000Y-121873000I250000J0D01*
G01*
X159491000Y-121873000D01*
G75*
G02*
X159741000Y-122123000I0J-250000D01*
G01*
X159741000Y-122648000D01*
G75*
G02*
X159491000Y-122898000I-250000J0D01*
G01*
G37*
G36*
G01*
X159491000Y-121073000D02*
X158591000Y-121073000D01*
G75*
G02*
X158341000Y-120823000I0J250000D01*
G01*
X158341000Y-120298000D01*
G75*
G02*
X158591000Y-120048000I250000J0D01*
G01*
X159491000Y-120048000D01*
G75*
G02*
X159741000Y-120298000I0J-250000D01*
G01*
X159741000Y-120823000D01*
G75*
G02*
X159491000Y-121073000I-250000J0D01*
G01*
G37*
G36*
G01*
X171683000Y-122874500D02*
X170783000Y-122874500D01*
G75*
G02*
X170533000Y-122624500I0J250000D01*
G01*
X170533000Y-122099500D01*
G75*
G02*
X170783000Y-121849500I250000J0D01*
G01*
X171683000Y-121849500D01*
G75*
G02*
X171933000Y-122099500I0J-250000D01*
G01*
X171933000Y-122624500D01*
G75*
G02*
X171683000Y-122874500I-250000J0D01*
G01*
G37*
G36*
G01*
X171683000Y-121049500D02*
X170783000Y-121049500D01*
G75*
G02*
X170533000Y-120799500I0J250000D01*
G01*
X170533000Y-120274500D01*
G75*
G02*
X170783000Y-120024500I250000J0D01*
G01*
X171683000Y-120024500D01*
G75*
G02*
X171933000Y-120274500I0J-250000D01*
G01*
X171933000Y-120799500D01*
G75*
G02*
X171683000Y-121049500I-250000J0D01*
G01*
G37*
G36*
G01*
X128781000Y-127795000D02*
X129681000Y-127795000D01*
G75*
G02*
X129931000Y-128045000I0J-250000D01*
G01*
X129931000Y-128570000D01*
G75*
G02*
X129681000Y-128820000I-250000J0D01*
G01*
X128781000Y-128820000D01*
G75*
G02*
X128531000Y-128570000I0J250000D01*
G01*
X128531000Y-128045000D01*
G75*
G02*
X128781000Y-127795000I250000J0D01*
G01*
G37*
G36*
G01*
X128781000Y-129620000D02*
X129681000Y-129620000D01*
G75*
G02*
X129931000Y-129870000I0J-250000D01*
G01*
X129931000Y-130395000D01*
G75*
G02*
X129681000Y-130645000I-250000J0D01*
G01*
X128781000Y-130645000D01*
G75*
G02*
X128531000Y-130395000I0J250000D01*
G01*
X128531000Y-129870000D01*
G75*
G02*
X128781000Y-129620000I250000J0D01*
G01*
G37*
G36*
G01*
X169381000Y-166337000D02*
X169381000Y-167287000D01*
G75*
G02*
X169131000Y-167537000I-250000J0D01*
G01*
X168631000Y-167537000D01*
G75*
G02*
X168381000Y-167287000I0J250000D01*
G01*
X168381000Y-166337000D01*
G75*
G02*
X168631000Y-166087000I250000J0D01*
G01*
X169131000Y-166087000D01*
G75*
G02*
X169381000Y-166337000I0J-250000D01*
G01*
G37*
G36*
G01*
X167481000Y-166337000D02*
X167481000Y-167287000D01*
G75*
G02*
X167231000Y-167537000I-250000J0D01*
G01*
X166731000Y-167537000D01*
G75*
G02*
X166481000Y-167287000I0J250000D01*
G01*
X166481000Y-166337000D01*
G75*
G02*
X166731000Y-166087000I250000J0D01*
G01*
X167231000Y-166087000D01*
G75*
G02*
X167481000Y-166337000I0J-250000D01*
G01*
G37*
G36*
G01*
X129168000Y-193049250D02*
X129168000Y-192136750D01*
G75*
G02*
X129411750Y-191893000I243750J0D01*
G01*
X129899250Y-191893000D01*
G75*
G02*
X130143000Y-192136750I0J-243750D01*
G01*
X130143000Y-193049250D01*
G75*
G02*
X129899250Y-193293000I-243750J0D01*
G01*
X129411750Y-193293000D01*
G75*
G02*
X129168000Y-193049250I0J243750D01*
G01*
G37*
G36*
G01*
X131043000Y-193049250D02*
X131043000Y-192136750D01*
G75*
G02*
X131286750Y-191893000I243750J0D01*
G01*
X131774250Y-191893000D01*
G75*
G02*
X132018000Y-192136750I0J-243750D01*
G01*
X132018000Y-193049250D01*
G75*
G02*
X131774250Y-193293000I-243750J0D01*
G01*
X131286750Y-193293000D01*
G75*
G02*
X131043000Y-193049250I0J243750D01*
G01*
G37*
G36*
G01*
X172705250Y-72987000D02*
X171792750Y-72987000D01*
G75*
G02*
X171549000Y-72743250I0J243750D01*
G01*
X171549000Y-72255750D01*
G75*
G02*
X171792750Y-72012000I243750J0D01*
G01*
X172705250Y-72012000D01*
G75*
G02*
X172949000Y-72255750I0J-243750D01*
G01*
X172949000Y-72743250D01*
G75*
G02*
X172705250Y-72987000I-243750J0D01*
G01*
G37*
G36*
G01*
X172705250Y-71112000D02*
X171792750Y-71112000D01*
G75*
G02*
X171549000Y-70868250I0J243750D01*
G01*
X171549000Y-70380750D01*
G75*
G02*
X171792750Y-70137000I243750J0D01*
G01*
X172705250Y-70137000D01*
G75*
G02*
X172949000Y-70380750I0J-243750D01*
G01*
X172949000Y-70868250D01*
G75*
G02*
X172705250Y-71112000I-243750J0D01*
G01*
G37*
G36*
G01*
X134436000Y-46490000D02*
X135386000Y-46490000D01*
G75*
G02*
X135636000Y-46740000I0J-250000D01*
G01*
X135636000Y-47240000D01*
G75*
G02*
X135386000Y-47490000I-250000J0D01*
G01*
X134436000Y-47490000D01*
G75*
G02*
X134186000Y-47240000I0J250000D01*
G01*
X134186000Y-46740000D01*
G75*
G02*
X134436000Y-46490000I250000J0D01*
G01*
G37*
G36*
G01*
X134436000Y-48390000D02*
X135386000Y-48390000D01*
G75*
G02*
X135636000Y-48640000I0J-250000D01*
G01*
X135636000Y-49140000D01*
G75*
G02*
X135386000Y-49390000I-250000J0D01*
G01*
X134436000Y-49390000D01*
G75*
G02*
X134186000Y-49140000I0J250000D01*
G01*
X134186000Y-48640000D01*
G75*
G02*
X134436000Y-48390000I250000J0D01*
G01*
G37*
D11*
X138607000Y-147205000D03*
X138607000Y-148475000D03*
X138607000Y-149745000D03*
X138607000Y-151015000D03*
X138607000Y-152285000D03*
X138607000Y-153555000D03*
X138607000Y-154825000D03*
X138607000Y-156095000D03*
X138607000Y-157365000D03*
X138607000Y-158635000D03*
X138607000Y-159905000D03*
X138607000Y-161175000D03*
X138607000Y-162445000D03*
X138607000Y-163715000D03*
D12*
X140372000Y-164965000D03*
X141642000Y-164965000D03*
X142912000Y-164965000D03*
X144182000Y-164965000D03*
X145452000Y-164965000D03*
X146722000Y-164965000D03*
X147992000Y-164965000D03*
X149262000Y-164965000D03*
X150532000Y-164965000D03*
X151802000Y-164965000D03*
X153072000Y-164965000D03*
X154342000Y-164965000D03*
D11*
X156107000Y-163715000D03*
X156107000Y-162445000D03*
X156107000Y-161175000D03*
X156107000Y-159905000D03*
X156107000Y-158635000D03*
X156107000Y-157365000D03*
X156107000Y-156095000D03*
X156107000Y-154825000D03*
X156107000Y-153555000D03*
X156107000Y-152285000D03*
X156107000Y-151015000D03*
X156107000Y-149745000D03*
X156107000Y-148475000D03*
X156107000Y-147205000D03*
D13*
X144457000Y-153525000D03*
X144457000Y-154925000D03*
X144457000Y-156325000D03*
X145857000Y-153525000D03*
X145857000Y-154925000D03*
X145857000Y-156325000D03*
X147257000Y-153525000D03*
X147257000Y-154925000D03*
X147257000Y-156325000D03*
D15*
X119429000Y-105898000D03*
X119429000Y-106698000D03*
X119429000Y-107498000D03*
X119429000Y-108298000D03*
X119429000Y-109098000D03*
D16*
X113829000Y-103048000D03*
X113829000Y-111948000D03*
X119329000Y-103048000D03*
X119329000Y-111948000D03*
G36*
G01*
X133238000Y-112037000D02*
X133238000Y-111737000D01*
G75*
G02*
X133388000Y-111587000I150000J0D01*
G01*
X134413000Y-111587000D01*
G75*
G02*
X134563000Y-111737000I0J-150000D01*
G01*
X134563000Y-112037000D01*
G75*
G02*
X134413000Y-112187000I-150000J0D01*
G01*
X133388000Y-112187000D01*
G75*
G02*
X133238000Y-112037000I0J150000D01*
G01*
G37*
G36*
G01*
X133238000Y-112987000D02*
X133238000Y-112687000D01*
G75*
G02*
X133388000Y-112537000I150000J0D01*
G01*
X134413000Y-112537000D01*
G75*
G02*
X134563000Y-112687000I0J-150000D01*
G01*
X134563000Y-112987000D01*
G75*
G02*
X134413000Y-113137000I-150000J0D01*
G01*
X133388000Y-113137000D01*
G75*
G02*
X133238000Y-112987000I0J150000D01*
G01*
G37*
G36*
G01*
X133238000Y-113937000D02*
X133238000Y-113637000D01*
G75*
G02*
X133388000Y-113487000I150000J0D01*
G01*
X134413000Y-113487000D01*
G75*
G02*
X134563000Y-113637000I0J-150000D01*
G01*
X134563000Y-113937000D01*
G75*
G02*
X134413000Y-114087000I-150000J0D01*
G01*
X133388000Y-114087000D01*
G75*
G02*
X133238000Y-113937000I0J150000D01*
G01*
G37*
G36*
G01*
X135513000Y-113937000D02*
X135513000Y-113637000D01*
G75*
G02*
X135663000Y-113487000I150000J0D01*
G01*
X136688000Y-113487000D01*
G75*
G02*
X136838000Y-113637000I0J-150000D01*
G01*
X136838000Y-113937000D01*
G75*
G02*
X136688000Y-114087000I-150000J0D01*
G01*
X135663000Y-114087000D01*
G75*
G02*
X135513000Y-113937000I0J150000D01*
G01*
G37*
G36*
G01*
X135513000Y-112987000D02*
X135513000Y-112687000D01*
G75*
G02*
X135663000Y-112537000I150000J0D01*
G01*
X136688000Y-112537000D01*
G75*
G02*
X136838000Y-112687000I0J-150000D01*
G01*
X136838000Y-112987000D01*
G75*
G02*
X136688000Y-113137000I-150000J0D01*
G01*
X135663000Y-113137000D01*
G75*
G02*
X135513000Y-112987000I0J150000D01*
G01*
G37*
G36*
G01*
X135513000Y-112037000D02*
X135513000Y-111737000D01*
G75*
G02*
X135663000Y-111587000I150000J0D01*
G01*
X136688000Y-111587000D01*
G75*
G02*
X136838000Y-111737000I0J-150000D01*
G01*
X136838000Y-112037000D01*
G75*
G02*
X136688000Y-112187000I-150000J0D01*
G01*
X135663000Y-112187000D01*
G75*
G02*
X135513000Y-112037000I0J150000D01*
G01*
G37*
G36*
G01*
X164281000Y-179774000D02*
X165231000Y-179774000D01*
G75*
G02*
X165481000Y-180024000I0J-250000D01*
G01*
X165481000Y-180524000D01*
G75*
G02*
X165231000Y-180774000I-250000J0D01*
G01*
X164281000Y-180774000D01*
G75*
G02*
X164031000Y-180524000I0J250000D01*
G01*
X164031000Y-180024000D01*
G75*
G02*
X164281000Y-179774000I250000J0D01*
G01*
G37*
G36*
G01*
X164281000Y-181674000D02*
X165231000Y-181674000D01*
G75*
G02*
X165481000Y-181924000I0J-250000D01*
G01*
X165481000Y-182424000D01*
G75*
G02*
X165231000Y-182674000I-250000J0D01*
G01*
X164281000Y-182674000D01*
G75*
G02*
X164031000Y-182424000I0J250000D01*
G01*
X164031000Y-181924000D01*
G75*
G02*
X164281000Y-181674000I250000J0D01*
G01*
G37*
G36*
G01*
X142330000Y-51910000D02*
X142330000Y-52860000D01*
G75*
G02*
X142080000Y-53110000I-250000J0D01*
G01*
X141580000Y-53110000D01*
G75*
G02*
X141330000Y-52860000I0J250000D01*
G01*
X141330000Y-51910000D01*
G75*
G02*
X141580000Y-51660000I250000J0D01*
G01*
X142080000Y-51660000D01*
G75*
G02*
X142330000Y-51910000I0J-250000D01*
G01*
G37*
G36*
G01*
X140430000Y-51910000D02*
X140430000Y-52860000D01*
G75*
G02*
X140180000Y-53110000I-250000J0D01*
G01*
X139680000Y-53110000D01*
G75*
G02*
X139430000Y-52860000I0J250000D01*
G01*
X139430000Y-51910000D01*
G75*
G02*
X139680000Y-51660000I250000J0D01*
G01*
X140180000Y-51660000D01*
G75*
G02*
X140430000Y-51910000I0J-250000D01*
G01*
G37*
D14*
X142023000Y-175054300D03*
X142023000Y-179651700D03*
G36*
G01*
X149229000Y-119875000D02*
X148279000Y-119875000D01*
G75*
G02*
X148029000Y-119625000I0J250000D01*
G01*
X148029000Y-119125000D01*
G75*
G02*
X148279000Y-118875000I250000J0D01*
G01*
X149229000Y-118875000D01*
G75*
G02*
X149479000Y-119125000I0J-250000D01*
G01*
X149479000Y-119625000D01*
G75*
G02*
X149229000Y-119875000I-250000J0D01*
G01*
G37*
G36*
G01*
X149229000Y-117975000D02*
X148279000Y-117975000D01*
G75*
G02*
X148029000Y-117725000I0J250000D01*
G01*
X148029000Y-117225000D01*
G75*
G02*
X148279000Y-116975000I250000J0D01*
G01*
X149229000Y-116975000D01*
G75*
G02*
X149479000Y-117225000I0J-250000D01*
G01*
X149479000Y-117725000D01*
G75*
G02*
X149229000Y-117975000I-250000J0D01*
G01*
G37*
D10*
X130211000Y-55306000D03*
X126911000Y-55306000D03*
G36*
G01*
X176769250Y-192367000D02*
X175856750Y-192367000D01*
G75*
G02*
X175613000Y-192123250I0J243750D01*
G01*
X175613000Y-191635750D01*
G75*
G02*
X175856750Y-191392000I243750J0D01*
G01*
X176769250Y-191392000D01*
G75*
G02*
X177013000Y-191635750I0J-243750D01*
G01*
X177013000Y-192123250D01*
G75*
G02*
X176769250Y-192367000I-243750J0D01*
G01*
G37*
G36*
G01*
X176769250Y-190492000D02*
X175856750Y-190492000D01*
G75*
G02*
X175613000Y-190248250I0J243750D01*
G01*
X175613000Y-189760750D01*
G75*
G02*
X175856750Y-189517000I243750J0D01*
G01*
X176769250Y-189517000D01*
G75*
G02*
X177013000Y-189760750I0J-243750D01*
G01*
X177013000Y-190248250D01*
G75*
G02*
X176769250Y-190492000I-243750J0D01*
G01*
G37*
G36*
G01*
X122378001Y-33951800D02*
X122378001Y-34201800D01*
G75*
G02*
X122253001Y-34326800I-125000J0D01*
G01*
X122003001Y-34326800D01*
G75*
G02*
X121878001Y-34201800I0J125000D01*
G01*
X121878001Y-33951800D01*
G75*
G02*
X122003001Y-33826800I125000J0D01*
G01*
X122253001Y-33826800D01*
G75*
G02*
X122378001Y-33951800I0J-125000D01*
G01*
G37*
G36*
G01*
X122378001Y-33331800D02*
X122378001Y-33581800D01*
G75*
G02*
X122253001Y-33706800I-125000J0D01*
G01*
X122003001Y-33706800D01*
G75*
G02*
X121878001Y-33581800I0J125000D01*
G01*
X121878001Y-33331800D01*
G75*
G02*
X122003001Y-33206800I125000J0D01*
G01*
X122253001Y-33206800D01*
G75*
G02*
X122378001Y-33331800I0J-125000D01*
G01*
G37*
G36*
G01*
X121758001Y-33951800D02*
X121758001Y-34201800D01*
G75*
G02*
X121633001Y-34326800I-125000J0D01*
G01*
X121383001Y-34326800D01*
G75*
G02*
X121258001Y-34201800I0J125000D01*
G01*
X121258001Y-33951800D01*
G75*
G02*
X121383001Y-33826800I125000J0D01*
G01*
X121633001Y-33826800D01*
G75*
G02*
X121758001Y-33951800I0J-125000D01*
G01*
G37*
G36*
G01*
X121758001Y-33331800D02*
X121758001Y-33581800D01*
G75*
G02*
X121633001Y-33706800I-125000J0D01*
G01*
X121383001Y-33706800D01*
G75*
G02*
X121258001Y-33581800I0J125000D01*
G01*
X121258001Y-33331800D01*
G75*
G02*
X121383001Y-33206800I125000J0D01*
G01*
X121633001Y-33206800D01*
G75*
G02*
X121758001Y-33331800I0J-125000D01*
G01*
G37*
G36*
G01*
X123668001Y-34454300D02*
X123668001Y-34579300D01*
G75*
G02*
X123605501Y-34641800I-62500J0D01*
G01*
X122905501Y-34641800D01*
G75*
G02*
X122843001Y-34579300I0J62500D01*
G01*
X122843001Y-34454300D01*
G75*
G02*
X122905501Y-34391800I62500J0D01*
G01*
X123605501Y-34391800D01*
G75*
G02*
X123668001Y-34454300I0J-62500D01*
G01*
G37*
G36*
G01*
X123668001Y-33954300D02*
X123668001Y-34079300D01*
G75*
G02*
X123605501Y-34141800I-62500J0D01*
G01*
X122905501Y-34141800D01*
G75*
G02*
X122843001Y-34079300I0J62500D01*
G01*
X122843001Y-33954300D01*
G75*
G02*
X122905501Y-33891800I62500J0D01*
G01*
X123605501Y-33891800D01*
G75*
G02*
X123668001Y-33954300I0J-62500D01*
G01*
G37*
G36*
G01*
X123668001Y-33454300D02*
X123668001Y-33579300D01*
G75*
G02*
X123605501Y-33641800I-62500J0D01*
G01*
X122905501Y-33641800D01*
G75*
G02*
X122843001Y-33579300I0J62500D01*
G01*
X122843001Y-33454300D01*
G75*
G02*
X122905501Y-33391800I62500J0D01*
G01*
X123605501Y-33391800D01*
G75*
G02*
X123668001Y-33454300I0J-62500D01*
G01*
G37*
G36*
G01*
X123668001Y-32954300D02*
X123668001Y-33079300D01*
G75*
G02*
X123605501Y-33141800I-62500J0D01*
G01*
X122905501Y-33141800D01*
G75*
G02*
X122843001Y-33079300I0J62500D01*
G01*
X122843001Y-32954300D01*
G75*
G02*
X122905501Y-32891800I62500J0D01*
G01*
X123605501Y-32891800D01*
G75*
G02*
X123668001Y-32954300I0J-62500D01*
G01*
G37*
G36*
G01*
X122693001Y-31979300D02*
X122693001Y-32679300D01*
G75*
G02*
X122630501Y-32741800I-62500J0D01*
G01*
X122505501Y-32741800D01*
G75*
G02*
X122443001Y-32679300I0J62500D01*
G01*
X122443001Y-31979300D01*
G75*
G02*
X122505501Y-31916800I62500J0D01*
G01*
X122630501Y-31916800D01*
G75*
G02*
X122693001Y-31979300I0J-62500D01*
G01*
G37*
G36*
G01*
X122193001Y-31979300D02*
X122193001Y-32679300D01*
G75*
G02*
X122130501Y-32741800I-62500J0D01*
G01*
X122005501Y-32741800D01*
G75*
G02*
X121943001Y-32679300I0J62500D01*
G01*
X121943001Y-31979300D01*
G75*
G02*
X122005501Y-31916800I62500J0D01*
G01*
X122130501Y-31916800D01*
G75*
G02*
X122193001Y-31979300I0J-62500D01*
G01*
G37*
G36*
G01*
X121693001Y-31979300D02*
X121693001Y-32679300D01*
G75*
G02*
X121630501Y-32741800I-62500J0D01*
G01*
X121505501Y-32741800D01*
G75*
G02*
X121443001Y-32679300I0J62500D01*
G01*
X121443001Y-31979300D01*
G75*
G02*
X121505501Y-31916800I62500J0D01*
G01*
X121630501Y-31916800D01*
G75*
G02*
X121693001Y-31979300I0J-62500D01*
G01*
G37*
G36*
G01*
X121193001Y-31979300D02*
X121193001Y-32679300D01*
G75*
G02*
X121130501Y-32741800I-62500J0D01*
G01*
X121005501Y-32741800D01*
G75*
G02*
X120943001Y-32679300I0J62500D01*
G01*
X120943001Y-31979300D01*
G75*
G02*
X121005501Y-31916800I62500J0D01*
G01*
X121130501Y-31916800D01*
G75*
G02*
X121193001Y-31979300I0J-62500D01*
G01*
G37*
G36*
G01*
X120793001Y-32954300D02*
X120793001Y-33079300D01*
G75*
G02*
X120730501Y-33141800I-62500J0D01*
G01*
X120030501Y-33141800D01*
G75*
G02*
X119968001Y-33079300I0J62500D01*
G01*
X119968001Y-32954300D01*
G75*
G02*
X120030501Y-32891800I62500J0D01*
G01*
X120730501Y-32891800D01*
G75*
G02*
X120793001Y-32954300I0J-62500D01*
G01*
G37*
G36*
G01*
X120793001Y-33454300D02*
X120793001Y-33579300D01*
G75*
G02*
X120730501Y-33641800I-62500J0D01*
G01*
X120030501Y-33641800D01*
G75*
G02*
X119968001Y-33579300I0J62500D01*
G01*
X119968001Y-33454300D01*
G75*
G02*
X120030501Y-33391800I62500J0D01*
G01*
X120730501Y-33391800D01*
G75*
G02*
X120793001Y-33454300I0J-62500D01*
G01*
G37*
G36*
G01*
X120793001Y-33954300D02*
X120793001Y-34079300D01*
G75*
G02*
X120730501Y-34141800I-62500J0D01*
G01*
X120030501Y-34141800D01*
G75*
G02*
X119968001Y-34079300I0J62500D01*
G01*
X119968001Y-33954300D01*
G75*
G02*
X120030501Y-33891800I62500J0D01*
G01*
X120730501Y-33891800D01*
G75*
G02*
X120793001Y-33954300I0J-62500D01*
G01*
G37*
G36*
G01*
X120793001Y-34454300D02*
X120793001Y-34579300D01*
G75*
G02*
X120730501Y-34641800I-62500J0D01*
G01*
X120030501Y-34641800D01*
G75*
G02*
X119968001Y-34579300I0J62500D01*
G01*
X119968001Y-34454300D01*
G75*
G02*
X120030501Y-34391800I62500J0D01*
G01*
X120730501Y-34391800D01*
G75*
G02*
X120793001Y-34454300I0J-62500D01*
G01*
G37*
G36*
G01*
X121193001Y-34854300D02*
X121193001Y-35554300D01*
G75*
G02*
X121130501Y-35616800I-62500J0D01*
G01*
X121005501Y-35616800D01*
G75*
G02*
X120943001Y-35554300I0J62500D01*
G01*
X120943001Y-34854300D01*
G75*
G02*
X121005501Y-34791800I62500J0D01*
G01*
X121130501Y-34791800D01*
G75*
G02*
X121193001Y-34854300I0J-62500D01*
G01*
G37*
G36*
G01*
X121693001Y-34854300D02*
X121693001Y-35554300D01*
G75*
G02*
X121630501Y-35616800I-62500J0D01*
G01*
X121505501Y-35616800D01*
G75*
G02*
X121443001Y-35554300I0J62500D01*
G01*
X121443001Y-34854300D01*
G75*
G02*
X121505501Y-34791800I62500J0D01*
G01*
X121630501Y-34791800D01*
G75*
G02*
X121693001Y-34854300I0J-62500D01*
G01*
G37*
G36*
G01*
X122193001Y-34854300D02*
X122193001Y-35554300D01*
G75*
G02*
X122130501Y-35616800I-62500J0D01*
G01*
X122005501Y-35616800D01*
G75*
G02*
X121943001Y-35554300I0J62500D01*
G01*
X121943001Y-34854300D01*
G75*
G02*
X122005501Y-34791800I62500J0D01*
G01*
X122130501Y-34791800D01*
G75*
G02*
X122193001Y-34854300I0J-62500D01*
G01*
G37*
G36*
G01*
X122693001Y-34854300D02*
X122693001Y-35554300D01*
G75*
G02*
X122630501Y-35616800I-62500J0D01*
G01*
X122505501Y-35616800D01*
G75*
G02*
X122443001Y-35554300I0J62500D01*
G01*
X122443001Y-34854300D01*
G75*
G02*
X122505501Y-34791800I62500J0D01*
G01*
X122630501Y-34791800D01*
G75*
G02*
X122693001Y-34854300I0J-62500D01*
G01*
G37*
G36*
G01*
X137393000Y-124676000D02*
X136493000Y-124676000D01*
G75*
G02*
X136243000Y-124426000I0J250000D01*
G01*
X136243000Y-123901000D01*
G75*
G02*
X136493000Y-123651000I250000J0D01*
G01*
X137393000Y-123651000D01*
G75*
G02*
X137643000Y-123901000I0J-250000D01*
G01*
X137643000Y-124426000D01*
G75*
G02*
X137393000Y-124676000I-250000J0D01*
G01*
G37*
G36*
G01*
X137393000Y-122851000D02*
X136493000Y-122851000D01*
G75*
G02*
X136243000Y-122601000I0J250000D01*
G01*
X136243000Y-122076000D01*
G75*
G02*
X136493000Y-121826000I250000J0D01*
G01*
X137393000Y-121826000D01*
G75*
G02*
X137643000Y-122076000I0J-250000D01*
G01*
X137643000Y-122601000D01*
G75*
G02*
X137393000Y-122851000I-250000J0D01*
G01*
G37*
G36*
G01*
X132211000Y-149339000D02*
X131261000Y-149339000D01*
G75*
G02*
X131011000Y-149089000I0J250000D01*
G01*
X131011000Y-148589000D01*
G75*
G02*
X131261000Y-148339000I250000J0D01*
G01*
X132211000Y-148339000D01*
G75*
G02*
X132461000Y-148589000I0J-250000D01*
G01*
X132461000Y-149089000D01*
G75*
G02*
X132211000Y-149339000I-250000J0D01*
G01*
G37*
G36*
G01*
X132211000Y-147439000D02*
X131261000Y-147439000D01*
G75*
G02*
X131011000Y-147189000I0J250000D01*
G01*
X131011000Y-146689000D01*
G75*
G02*
X131261000Y-146439000I250000J0D01*
G01*
X132211000Y-146439000D01*
G75*
G02*
X132461000Y-146689000I0J-250000D01*
G01*
X132461000Y-147189000D01*
G75*
G02*
X132211000Y-147439000I-250000J0D01*
G01*
G37*
G36*
G01*
X133238000Y-171727000D02*
X133238000Y-171427000D01*
G75*
G02*
X133388000Y-171277000I150000J0D01*
G01*
X134413000Y-171277000D01*
G75*
G02*
X134563000Y-171427000I0J-150000D01*
G01*
X134563000Y-171727000D01*
G75*
G02*
X134413000Y-171877000I-150000J0D01*
G01*
X133388000Y-171877000D01*
G75*
G02*
X133238000Y-171727000I0J150000D01*
G01*
G37*
G36*
G01*
X133238000Y-172677000D02*
X133238000Y-172377000D01*
G75*
G02*
X133388000Y-172227000I150000J0D01*
G01*
X134413000Y-172227000D01*
G75*
G02*
X134563000Y-172377000I0J-150000D01*
G01*
X134563000Y-172677000D01*
G75*
G02*
X134413000Y-172827000I-150000J0D01*
G01*
X133388000Y-172827000D01*
G75*
G02*
X133238000Y-172677000I0J150000D01*
G01*
G37*
G36*
G01*
X133238000Y-173627000D02*
X133238000Y-173327000D01*
G75*
G02*
X133388000Y-173177000I150000J0D01*
G01*
X134413000Y-173177000D01*
G75*
G02*
X134563000Y-173327000I0J-150000D01*
G01*
X134563000Y-173627000D01*
G75*
G02*
X134413000Y-173777000I-150000J0D01*
G01*
X133388000Y-173777000D01*
G75*
G02*
X133238000Y-173627000I0J150000D01*
G01*
G37*
G36*
G01*
X135513000Y-173627000D02*
X135513000Y-173327000D01*
G75*
G02*
X135663000Y-173177000I150000J0D01*
G01*
X136688000Y-173177000D01*
G75*
G02*
X136838000Y-173327000I0J-150000D01*
G01*
X136838000Y-173627000D01*
G75*
G02*
X136688000Y-173777000I-150000J0D01*
G01*
X135663000Y-173777000D01*
G75*
G02*
X135513000Y-173627000I0J150000D01*
G01*
G37*
G36*
G01*
X135513000Y-172677000D02*
X135513000Y-172377000D01*
G75*
G02*
X135663000Y-172227000I150000J0D01*
G01*
X136688000Y-172227000D01*
G75*
G02*
X136838000Y-172377000I0J-150000D01*
G01*
X136838000Y-172677000D01*
G75*
G02*
X136688000Y-172827000I-150000J0D01*
G01*
X135663000Y-172827000D01*
G75*
G02*
X135513000Y-172677000I0J150000D01*
G01*
G37*
G36*
G01*
X135513000Y-171727000D02*
X135513000Y-171427000D01*
G75*
G02*
X135663000Y-171277000I150000J0D01*
G01*
X136688000Y-171277000D01*
G75*
G02*
X136838000Y-171427000I0J-150000D01*
G01*
X136838000Y-171727000D01*
G75*
G02*
X136688000Y-171877000I-150000J0D01*
G01*
X135663000Y-171877000D01*
G75*
G02*
X135513000Y-171727000I0J150000D01*
G01*
G37*
G36*
G01*
X149229000Y-179565000D02*
X148279000Y-179565000D01*
G75*
G02*
X148029000Y-179315000I0J250000D01*
G01*
X148029000Y-178815000D01*
G75*
G02*
X148279000Y-178565000I250000J0D01*
G01*
X149229000Y-178565000D01*
G75*
G02*
X149479000Y-178815000I0J-250000D01*
G01*
X149479000Y-179315000D01*
G75*
G02*
X149229000Y-179565000I-250000J0D01*
G01*
G37*
G36*
G01*
X149229000Y-177665000D02*
X148279000Y-177665000D01*
G75*
G02*
X148029000Y-177415000I0J250000D01*
G01*
X148029000Y-176915000D01*
G75*
G02*
X148279000Y-176665000I250000J0D01*
G01*
X149229000Y-176665000D01*
G75*
G02*
X149479000Y-176915000I0J-250000D01*
G01*
X149479000Y-177415000D01*
G75*
G02*
X149229000Y-177665000I-250000J0D01*
G01*
G37*
G36*
G01*
X128614000Y-82771000D02*
X128614000Y-83721000D01*
G75*
G02*
X128364000Y-83971000I-250000J0D01*
G01*
X127864000Y-83971000D01*
G75*
G02*
X127614000Y-83721000I0J250000D01*
G01*
X127614000Y-82771000D01*
G75*
G02*
X127864000Y-82521000I250000J0D01*
G01*
X128364000Y-82521000D01*
G75*
G02*
X128614000Y-82771000I0J-250000D01*
G01*
G37*
G36*
G01*
X126714000Y-82771000D02*
X126714000Y-83721000D01*
G75*
G02*
X126464000Y-83971000I-250000J0D01*
G01*
X125964000Y-83971000D01*
G75*
G02*
X125714000Y-83721000I0J250000D01*
G01*
X125714000Y-82771000D01*
G75*
G02*
X125964000Y-82521000I250000J0D01*
G01*
X126464000Y-82521000D01*
G75*
G02*
X126714000Y-82771000I0J-250000D01*
G01*
G37*
G36*
G01*
X120876001Y-87150000D02*
X120876001Y-86200000D01*
G75*
G02*
X121126001Y-85950000I250000J0D01*
G01*
X121626001Y-85950000D01*
G75*
G02*
X121876001Y-86200000I0J-250000D01*
G01*
X121876001Y-87150000D01*
G75*
G02*
X121626001Y-87400000I-250000J0D01*
G01*
X121126001Y-87400000D01*
G75*
G02*
X120876001Y-87150000I0J250000D01*
G01*
G37*
G36*
G01*
X122776001Y-87150000D02*
X122776001Y-86200000D01*
G75*
G02*
X123026001Y-85950000I250000J0D01*
G01*
X123526001Y-85950000D01*
G75*
G02*
X123776001Y-86200000I0J-250000D01*
G01*
X123776001Y-87150000D01*
G75*
G02*
X123526001Y-87400000I-250000J0D01*
G01*
X123026001Y-87400000D01*
G75*
G02*
X122776001Y-87150000I0J250000D01*
G01*
G37*
G36*
G01*
X133588000Y-57178000D02*
X133588000Y-56228000D01*
G75*
G02*
X133838000Y-55978000I250000J0D01*
G01*
X134338000Y-55978000D01*
G75*
G02*
X134588000Y-56228000I0J-250000D01*
G01*
X134588000Y-57178000D01*
G75*
G02*
X134338000Y-57428000I-250000J0D01*
G01*
X133838000Y-57428000D01*
G75*
G02*
X133588000Y-57178000I0J250000D01*
G01*
G37*
G36*
G01*
X135488000Y-57178000D02*
X135488000Y-56228000D01*
G75*
G02*
X135738000Y-55978000I250000J0D01*
G01*
X136238000Y-55978000D01*
G75*
G02*
X136488000Y-56228000I0J-250000D01*
G01*
X136488000Y-57178000D01*
G75*
G02*
X136238000Y-57428000I-250000J0D01*
G01*
X135738000Y-57428000D01*
G75*
G02*
X135488000Y-57178000I0J250000D01*
G01*
G37*
G36*
G01*
X128614000Y-23081000D02*
X128614000Y-24031000D01*
G75*
G02*
X128364000Y-24281000I-250000J0D01*
G01*
X127864000Y-24281000D01*
G75*
G02*
X127614000Y-24031000I0J250000D01*
G01*
X127614000Y-23081000D01*
G75*
G02*
X127864000Y-22831000I250000J0D01*
G01*
X128364000Y-22831000D01*
G75*
G02*
X128614000Y-23081000I0J-250000D01*
G01*
G37*
G36*
G01*
X126714000Y-23081000D02*
X126714000Y-24031000D01*
G75*
G02*
X126464000Y-24281000I-250000J0D01*
G01*
X125964000Y-24281000D01*
G75*
G02*
X125714000Y-24031000I0J250000D01*
G01*
X125714000Y-23081000D01*
G75*
G02*
X125964000Y-22831000I250000J0D01*
G01*
X126464000Y-22831000D01*
G75*
G02*
X126714000Y-23081000I0J-250000D01*
G01*
G37*
G36*
G01*
X131200000Y-83696000D02*
X131200000Y-82796000D01*
G75*
G02*
X131450000Y-82546000I250000J0D01*
G01*
X131975000Y-82546000D01*
G75*
G02*
X132225000Y-82796000I0J-250000D01*
G01*
X132225000Y-83696000D01*
G75*
G02*
X131975000Y-83946000I-250000J0D01*
G01*
X131450000Y-83946000D01*
G75*
G02*
X131200000Y-83696000I0J250000D01*
G01*
G37*
G36*
G01*
X133025000Y-83696000D02*
X133025000Y-82796000D01*
G75*
G02*
X133275000Y-82546000I250000J0D01*
G01*
X133800000Y-82546000D01*
G75*
G02*
X134050000Y-82796000I0J-250000D01*
G01*
X134050000Y-83696000D01*
G75*
G02*
X133800000Y-83946000I-250000J0D01*
G01*
X133275000Y-83946000D01*
G75*
G02*
X133025000Y-83696000I0J250000D01*
G01*
G37*
G36*
G01*
X168762000Y-122898000D02*
X167862000Y-122898000D01*
G75*
G02*
X167612000Y-122648000I0J250000D01*
G01*
X167612000Y-122123000D01*
G75*
G02*
X167862000Y-121873000I250000J0D01*
G01*
X168762000Y-121873000D01*
G75*
G02*
X169012000Y-122123000I0J-250000D01*
G01*
X169012000Y-122648000D01*
G75*
G02*
X168762000Y-122898000I-250000J0D01*
G01*
G37*
G36*
G01*
X168762000Y-121073000D02*
X167862000Y-121073000D01*
G75*
G02*
X167612000Y-120823000I0J250000D01*
G01*
X167612000Y-120298000D01*
G75*
G02*
X167862000Y-120048000I250000J0D01*
G01*
X168762000Y-120048000D01*
G75*
G02*
X169012000Y-120298000I0J-250000D01*
G01*
X169012000Y-120823000D01*
G75*
G02*
X168762000Y-121073000I-250000J0D01*
G01*
G37*
G36*
G01*
X162285000Y-63208000D02*
X161385000Y-63208000D01*
G75*
G02*
X161135000Y-62958000I0J250000D01*
G01*
X161135000Y-62433000D01*
G75*
G02*
X161385000Y-62183000I250000J0D01*
G01*
X162285000Y-62183000D01*
G75*
G02*
X162535000Y-62433000I0J-250000D01*
G01*
X162535000Y-62958000D01*
G75*
G02*
X162285000Y-63208000I-250000J0D01*
G01*
G37*
G36*
G01*
X162285000Y-61383000D02*
X161385000Y-61383000D01*
G75*
G02*
X161135000Y-61133000I0J250000D01*
G01*
X161135000Y-60608000D01*
G75*
G02*
X161385000Y-60358000I250000J0D01*
G01*
X162285000Y-60358000D01*
G75*
G02*
X162535000Y-60608000I0J-250000D01*
G01*
X162535000Y-61133000D01*
G75*
G02*
X162285000Y-61383000I-250000J0D01*
G01*
G37*
G36*
G01*
X173928000Y-166362000D02*
X173928000Y-167262000D01*
G75*
G02*
X173678000Y-167512000I-250000J0D01*
G01*
X173153000Y-167512000D01*
G75*
G02*
X172903000Y-167262000I0J250000D01*
G01*
X172903000Y-166362000D01*
G75*
G02*
X173153000Y-166112000I250000J0D01*
G01*
X173678000Y-166112000D01*
G75*
G02*
X173928000Y-166362000I0J-250000D01*
G01*
G37*
G36*
G01*
X172103000Y-166362000D02*
X172103000Y-167262000D01*
G75*
G02*
X171853000Y-167512000I-250000J0D01*
G01*
X171328000Y-167512000D01*
G75*
G02*
X171078000Y-167262000I0J250000D01*
G01*
X171078000Y-166362000D01*
G75*
G02*
X171328000Y-166112000I250000J0D01*
G01*
X171853000Y-166112000D01*
G75*
G02*
X172103000Y-166362000I0J-250000D01*
G01*
G37*
G36*
G01*
X120876001Y-149634000D02*
X120876001Y-148684000D01*
G75*
G02*
X121126001Y-148434000I250000J0D01*
G01*
X121626001Y-148434000D01*
G75*
G02*
X121876001Y-148684000I0J-250000D01*
G01*
X121876001Y-149634000D01*
G75*
G02*
X121626001Y-149884000I-250000J0D01*
G01*
X121126001Y-149884000D01*
G75*
G02*
X120876001Y-149634000I0J250000D01*
G01*
G37*
G36*
G01*
X122776001Y-149634000D02*
X122776001Y-148684000D01*
G75*
G02*
X123026001Y-148434000I250000J0D01*
G01*
X123526001Y-148434000D01*
G75*
G02*
X123776001Y-148684000I0J-250000D01*
G01*
X123776001Y-149634000D01*
G75*
G02*
X123526001Y-149884000I-250000J0D01*
G01*
X123026001Y-149884000D01*
G75*
G02*
X122776001Y-149634000I0J250000D01*
G01*
G37*
G36*
G01*
X164281000Y-120084000D02*
X165231000Y-120084000D01*
G75*
G02*
X165481000Y-120334000I0J-250000D01*
G01*
X165481000Y-120834000D01*
G75*
G02*
X165231000Y-121084000I-250000J0D01*
G01*
X164281000Y-121084000D01*
G75*
G02*
X164031000Y-120834000I0J250000D01*
G01*
X164031000Y-120334000D01*
G75*
G02*
X164281000Y-120084000I250000J0D01*
G01*
G37*
G36*
G01*
X164281000Y-121984000D02*
X165231000Y-121984000D01*
G75*
G02*
X165481000Y-122234000I0J-250000D01*
G01*
X165481000Y-122734000D01*
G75*
G02*
X165231000Y-122984000I-250000J0D01*
G01*
X164281000Y-122984000D01*
G75*
G02*
X164031000Y-122734000I0J250000D01*
G01*
X164031000Y-122234000D01*
G75*
G02*
X164281000Y-121984000I250000J0D01*
G01*
G37*
G36*
G01*
X125800000Y-106180000D02*
X126750000Y-106180000D01*
G75*
G02*
X127000000Y-106430000I0J-250000D01*
G01*
X127000000Y-106930000D01*
G75*
G02*
X126750000Y-107180000I-250000J0D01*
G01*
X125800000Y-107180000D01*
G75*
G02*
X125550000Y-106930000I0J250000D01*
G01*
X125550000Y-106430000D01*
G75*
G02*
X125800000Y-106180000I250000J0D01*
G01*
G37*
G36*
G01*
X125800000Y-108080000D02*
X126750000Y-108080000D01*
G75*
G02*
X127000000Y-108330000I0J-250000D01*
G01*
X127000000Y-108830000D01*
G75*
G02*
X126750000Y-109080000I-250000J0D01*
G01*
X125800000Y-109080000D01*
G75*
G02*
X125550000Y-108830000I0J250000D01*
G01*
X125550000Y-108330000D01*
G75*
G02*
X125800000Y-108080000I250000J0D01*
G01*
G37*
G36*
G01*
X162285000Y-122898000D02*
X161385000Y-122898000D01*
G75*
G02*
X161135000Y-122648000I0J250000D01*
G01*
X161135000Y-122123000D01*
G75*
G02*
X161385000Y-121873000I250000J0D01*
G01*
X162285000Y-121873000D01*
G75*
G02*
X162535000Y-122123000I0J-250000D01*
G01*
X162535000Y-122648000D01*
G75*
G02*
X162285000Y-122898000I-250000J0D01*
G01*
G37*
G36*
G01*
X162285000Y-121073000D02*
X161385000Y-121073000D01*
G75*
G02*
X161135000Y-120823000I0J250000D01*
G01*
X161135000Y-120298000D01*
G75*
G02*
X161385000Y-120048000I250000J0D01*
G01*
X162285000Y-120048000D01*
G75*
G02*
X162535000Y-120298000I0J-250000D01*
G01*
X162535000Y-120823000D01*
G75*
G02*
X162285000Y-121073000I-250000J0D01*
G01*
G37*
G36*
G01*
X168035000Y-160429000D02*
X168035000Y-159479000D01*
G75*
G02*
X168285000Y-159229000I250000J0D01*
G01*
X168785000Y-159229000D01*
G75*
G02*
X169035000Y-159479000I0J-250000D01*
G01*
X169035000Y-160429000D01*
G75*
G02*
X168785000Y-160679000I-250000J0D01*
G01*
X168285000Y-160679000D01*
G75*
G02*
X168035000Y-160429000I0J250000D01*
G01*
G37*
G36*
G01*
X169935000Y-160429000D02*
X169935000Y-159479000D01*
G75*
G02*
X170185000Y-159229000I250000J0D01*
G01*
X170685000Y-159229000D01*
G75*
G02*
X170935000Y-159479000I0J-250000D01*
G01*
X170935000Y-160429000D01*
G75*
G02*
X170685000Y-160679000I-250000J0D01*
G01*
X170185000Y-160679000D01*
G75*
G02*
X169935000Y-160429000I0J250000D01*
G01*
G37*
G36*
G01*
X132440000Y-49365000D02*
X131540000Y-49365000D01*
G75*
G02*
X131290000Y-49115000I0J250000D01*
G01*
X131290000Y-48590000D01*
G75*
G02*
X131540000Y-48340000I250000J0D01*
G01*
X132440000Y-48340000D01*
G75*
G02*
X132690000Y-48590000I0J-250000D01*
G01*
X132690000Y-49115000D01*
G75*
G02*
X132440000Y-49365000I-250000J0D01*
G01*
G37*
G36*
G01*
X132440000Y-47540000D02*
X131540000Y-47540000D01*
G75*
G02*
X131290000Y-47290000I0J250000D01*
G01*
X131290000Y-46765000D01*
G75*
G02*
X131540000Y-46515000I250000J0D01*
G01*
X132440000Y-46515000D01*
G75*
G02*
X132690000Y-46765000I0J-250000D01*
G01*
X132690000Y-47290000D01*
G75*
G02*
X132440000Y-47540000I-250000J0D01*
G01*
G37*
D17*
X165059000Y-37048000D03*
X166159000Y-37048000D03*
X167259000Y-37048000D03*
X168359000Y-37048000D03*
X169459000Y-37048000D03*
X170559000Y-37048000D03*
X171659000Y-37048000D03*
X172759000Y-37048000D03*
X173709000Y-37048000D03*
D18*
X174659000Y-26548000D03*
D19*
X174659000Y-32748000D03*
D20*
X174659000Y-22398000D03*
D19*
X163509000Y-37048000D03*
D21*
X161159000Y-21948000D03*
G36*
G01*
X137393000Y-184366000D02*
X136493000Y-184366000D01*
G75*
G02*
X136243000Y-184116000I0J250000D01*
G01*
X136243000Y-183591000D01*
G75*
G02*
X136493000Y-183341000I250000J0D01*
G01*
X137393000Y-183341000D01*
G75*
G02*
X137643000Y-183591000I0J-250000D01*
G01*
X137643000Y-184116000D01*
G75*
G02*
X137393000Y-184366000I-250000J0D01*
G01*
G37*
G36*
G01*
X137393000Y-182541000D02*
X136493000Y-182541000D01*
G75*
G02*
X136243000Y-182291000I0J250000D01*
G01*
X136243000Y-181766000D01*
G75*
G02*
X136493000Y-181516000I250000J0D01*
G01*
X137393000Y-181516000D01*
G75*
G02*
X137643000Y-181766000I0J-250000D01*
G01*
X137643000Y-182291000D01*
G75*
G02*
X137393000Y-182541000I-250000J0D01*
G01*
G37*
M02*
