M48
INCH,TZ
T1C0.0120
T2C0.0394
T3C0.0472
T4C0.0512
T5C0.1260
%
G90
G05
T1
X45472Y-15524
X45472Y-39024
X45472Y-62524
X45669Y-15824
X45669Y-39324
X45669Y-62824
X46615Y-13474
X46615Y-36974
X46615Y-60474
X46915Y-13474
X46915Y-36974
X46915Y-60474
X47115Y-27924
X47115Y-51424
X47115Y-74924
X47323Y-16322
X47323Y-21322
X47323Y-39822
X47323Y-44822
X47323Y-63322
X47323Y-68322
X47365Y-28174
X47365Y-51674
X47365Y-75174
X47565Y-9524
X47565Y-9824
X47565Y-33024
X47565Y-33324
X47565Y-56524
X47565Y-56824
X47915Y-9524
X47915Y-9824
X47915Y-33024
X47915Y-33324
X47915Y-56524
X47915Y-56824
X48665Y-11174
X48665Y-34674
X48665Y-58174
X48815Y-19274
X48815Y-42774
X48815Y-66274
X49015Y-10474
X49015Y-10824
X49015Y-11174
X49015Y-11524
X49015Y-11874
X49015Y-33974
X49015Y-34324
X49015Y-34674
X49015Y-35024
X49015Y-35374
X49015Y-57474
X49015Y-57824
X49015Y-58174
X49015Y-58524
X49015Y-58874
X49065Y-13124
X49065Y-36624
X49065Y-60124
X49115Y-19274
X49115Y-42774
X49115Y-66274
X49365Y-11174
X49365Y-13124
X49365Y-34674
X49365Y-36624
X49365Y-58174
X49365Y-60124
X49515Y-24974
X49515Y-25324
X49515Y-25674
X49515Y-48474
X49515Y-48824
X49515Y-49174
X49515Y-71974
X49515Y-72324
X49515Y-72674
X49865Y-24974
X49865Y-25324
X49865Y-25674
X49865Y-48474
X49865Y-48824
X49865Y-49174
X49865Y-71974
X49865Y-72324
X49865Y-72674
X49965Y-12674
X49965Y-36174
X49965Y-59674
X50515Y-12674
X50515Y-36174
X50515Y-59674
X51015Y-28274
X51015Y-51774
X51015Y-75274
X51165Y-9524
X51165Y-9824
X51165Y-33024
X51165Y-33324
X51165Y-56524
X51165Y-56824
X51265Y-24974
X51265Y-25324
X51265Y-25674
X51265Y-48474
X51265Y-48824
X51265Y-49174
X51265Y-71974
X51265Y-72324
X51265Y-72674
X51615Y-24974
X51615Y-25324
X51615Y-25674
X51615Y-48474
X51615Y-48824
X51615Y-49174
X51615Y-71974
X51615Y-72324
X51615Y-72674
X51765Y-10324
X51765Y-33824
X51765Y-57324
X52115Y-10324
X52115Y-33824
X52115Y-57324
X52465Y-10324
X52465Y-33824
X52465Y-57324
X52815Y-10324
X52815Y-33824
X52815Y-57324
X53165Y-10324
X53165Y-33824
X53165Y-57324
X53565Y-22924
X53565Y-46424
X53565Y-69924
X53715Y-19274
X53715Y-42774
X53715Y-66274
X53915Y-22924
X53915Y-46424
X53915Y-69924
X54015Y-19274
X54015Y-42774
X54015Y-66274
X54065Y-22124
X54065Y-22524
X54065Y-45624
X54065Y-46024
X54065Y-69124
X54065Y-69524
X54265Y-22924
X54265Y-46424
X54265Y-69924
X55765Y-17424
X55765Y-18474
X55765Y-40924
X55765Y-41974
X55765Y-64424
X55765Y-65474
X56365Y-13424
X56365Y-13974
X56365Y-14524
X56365Y-36924
X56365Y-37474
X56365Y-38024
X56365Y-60424
X56365Y-60974
X56365Y-61524
X56865Y-12974
X56865Y-15024
X56865Y-36474
X56865Y-38524
X56865Y-59974
X56865Y-62024
X57415Y-12974
X57415Y-15024
X57415Y-36474
X57415Y-38524
X57415Y-59974
X57415Y-62024
X57515Y-23524
X57515Y-23874
X57515Y-24224
X57515Y-24574
X57515Y-24924
X57515Y-47024
X57515Y-47374
X57515Y-47724
X57515Y-48074
X57515Y-48424
X57515Y-70524
X57515Y-70874
X57515Y-71224
X57515Y-71574
X57515Y-71924
X57915Y-23524
X57915Y-23874
X57915Y-24224
X57915Y-24574
X57915Y-24924
X57915Y-47024
X57915Y-47374
X57915Y-47724
X57915Y-48074
X57915Y-48424
X57915Y-70524
X57915Y-70874
X57915Y-71224
X57915Y-71574
X57915Y-71924
X57965Y-12974
X57965Y-15024
X57965Y-36474
X57965Y-38524
X57965Y-59974
X57965Y-62024
X58415Y-22224
X58415Y-45724
X58415Y-69224
X58465Y-13424
X58465Y-13974
X58465Y-14524
X58465Y-36924
X58465Y-37474
X58465Y-38024
X58465Y-60424
X58465Y-60974
X58465Y-61524
X58765Y-22224
X58765Y-45724
X58765Y-69224
X59115Y-22124
X59115Y-22474
X59115Y-22824
X59115Y-45624
X59115Y-45974
X59115Y-46324
X59115Y-69124
X59115Y-69474
X59115Y-69824
X59465Y-22224
X59465Y-45724
X59465Y-69224
X59865Y-22224
X59865Y-45724
X59865Y-69224
X60415Y-22874
X60415Y-46374
X60415Y-69874
X60665Y-22674
X60665Y-46174
X60665Y-69674
X61115Y-25674
X61115Y-49174
X61115Y-72674
X61465Y-25674
X61465Y-49174
X61465Y-72674
X61815Y-25674
X61815Y-49174
X61815Y-72674
X62115Y-10974
X62115Y-34474
X62115Y-57974
X62415Y-10974
X62415Y-34474
X62415Y-57974
X62615Y-25124
X62615Y-48624
X62615Y-72124
X63715Y-25124
X63715Y-48624
X63715Y-72124
X64415Y-15224
X64415Y-38724
X64415Y-62224
X64865Y-25674
X64865Y-49174
X64865Y-72674
X65215Y-25674
X65215Y-49174
X65215Y-72674
X65265Y-17224
X65265Y-17524
X65265Y-17824
X65265Y-18874
X65265Y-19174
X65265Y-19474
X65265Y-40724
X65265Y-41024
X65265Y-41324
X65265Y-42374
X65265Y-42674
X65265Y-42974
X65265Y-64224
X65265Y-64524
X65265Y-64824
X65265Y-65874
X65265Y-66174
X65265Y-66474
X65565Y-25674
X65565Y-49174
X65565Y-72674
X66283Y-15338
X66283Y-38838
X66283Y-62338
X67149Y-15172
X67149Y-15474
X67149Y-38672
X67149Y-38974
X67149Y-62172
X67149Y-62474
X68515Y-20874
X68515Y-21174
X68515Y-44374
X68515Y-44674
X68515Y-67874
X68515Y-68174
X68615Y-15274
X68615Y-28524
X68615Y-38774
X68615Y-52024
X68615Y-62274
X68615Y-75524
X68915Y-15174
X68915Y-38674
X68915Y-62174
X69065Y-15674
X69065Y-16074
X69065Y-39174
X69065Y-39574
X69065Y-62674
X69065Y-63074
T2
X47267Y-8624
X47267Y-32124
X47267Y-55624
X48267Y-8624
X48267Y-32124
X48267Y-55624
X48865Y-15824
X48865Y-39324
X48865Y-62824
X49865Y-15824
X49865Y-39324
X49865Y-62824
X50865Y-15824
X50865Y-39324
X50865Y-62824
X51865Y-15824
X51865Y-39324
X51865Y-62824
X52865Y-15824
X52865Y-39324
X52865Y-62824
X62917Y-17774
X62917Y-41274
X62917Y-64774
X63917Y-17774
X63917Y-41274
X63917Y-64774
T3
X53937Y-27247
X53937Y-50747
X53937Y-74247
X55315Y-27247
X55315Y-50747
X55315Y-74247
X56693Y-27247
X56693Y-50747
X56693Y-74247
X58537Y-27247
X58537Y-50747
X58537Y-74247
X59915Y-27247
X59915Y-50747
X59915Y-74247
X61293Y-27247
X61293Y-50747
X61293Y-74247
X63137Y-27247
X63137Y-50747
X63137Y-74247
X64515Y-27247
X64515Y-50747
X64515Y-74247
X65893Y-27247
X65893Y-50747
X65893Y-74247
X70987Y-12046
X70987Y-13424
X70987Y-14802
X70987Y-35546
X70987Y-36924
X70987Y-38302
X70987Y-59046
X70987Y-60424
X70987Y-61802
T4
X46346Y-23790
X46346Y-25758
X46346Y-47290
X46346Y-49258
X46346Y-70790
X46346Y-72758
T5
X45165Y-9574
X45165Y-28674
X45165Y-33074
X45165Y-52174
X45165Y-56574
X45165Y-75674
X71765Y-9574
X71765Y-28674
X71765Y-33074
X71765Y-52174
X71765Y-56574
X71765Y-75674
M30
