G04 #@! TF.GenerationSoftware,KiCad,Pcbnew,9.0.9-9.0.9~ubuntu24.04.1*
G04 #@! TF.CreationDate,2026-09-01T13:43:03-06:00*
G04 #@! TF.ProjectId,ckt-soundplay-array,636b742d-736f-4756-9e64-706c61792d61,rev?*
G04 #@! TF.SameCoordinates,Original*
G04 #@! TF.FileFunction,Profile,NP*
%FSLAX46Y46*%
G04 Gerber Fmt 4.6, Leading zero omitted, Abs format (unit mm)*
G04 Created by KiCad (PCBNEW 9.0.9-9.0.9~ubuntu24.04.1) date 2026-09-01 13:43:03*
%MOMM*%
%LPD*%
G01*
G04 APERTURE LIST*
G04 #@! TA.AperFunction,Profile*
%ADD10C,0.100000*%
G04 #@! TD*
G04 APERTURE END LIST*
D10*
X102780456Y-196529100D02*
X107859055Y-196529564D01*
X102780659Y-20000625D02*
X102780456Y-196529100D01*
X102795586Y-20000000D02*
X102780659Y-20000625D01*
X107859055Y-20000435D02*
X102795586Y-20000000D01*
X107859055Y-196529564D02*
X107860000Y-195031812D01*
X107860000Y-21599787D02*
X107859055Y-20000435D01*
X107860000Y-27137812D02*
X107861528Y-27075533D01*
X107860000Y-70113787D02*
X107860000Y-27137812D01*
X107860000Y-75651812D02*
X107861528Y-75589533D01*
X107860000Y-81289787D02*
X107860000Y-75651812D01*
X107860000Y-86827812D02*
X107861528Y-86765533D01*
X107860000Y-129803787D02*
X107860000Y-86827812D01*
X107860000Y-135341812D02*
X107861528Y-135279533D01*
X107860000Y-140979787D02*
X107860000Y-135341812D01*
X107860000Y-146517812D02*
X107861528Y-146455533D01*
X107860000Y-189493787D02*
X107860000Y-146517812D01*
X107860000Y-195031812D02*
X107861528Y-194969533D01*
X107861528Y-21662066D02*
X107860000Y-21599787D01*
X107861528Y-27075533D02*
X107866110Y-27013416D01*
X107861528Y-70176066D02*
X107860000Y-70113787D01*
X107861528Y-75589533D02*
X107866110Y-75527416D01*
X107861528Y-81352066D02*
X107860000Y-81289787D01*
X107861528Y-86765533D02*
X107866110Y-86703416D01*
X107861528Y-129866066D02*
X107860000Y-129803787D01*
X107861528Y-135279533D02*
X107866110Y-135217416D01*
X107861528Y-141042066D02*
X107860000Y-140979787D01*
X107861528Y-146455533D02*
X107866110Y-146393416D01*
X107861528Y-189556066D02*
X107860000Y-189493787D01*
X107861528Y-194969533D02*
X107866110Y-194907416D01*
X107866110Y-21724183D02*
X107861528Y-21662066D01*
X107866110Y-27013416D02*
X107873735Y-26951599D01*
X107866110Y-70238183D02*
X107861528Y-70176066D01*
X107866110Y-75527416D02*
X107873735Y-75465599D01*
X107866110Y-81414183D02*
X107861528Y-81352066D01*
X107866110Y-86703416D02*
X107873735Y-86641599D01*
X107866110Y-129928183D02*
X107861528Y-129866066D01*
X107866110Y-135217416D02*
X107873735Y-135155599D01*
X107866110Y-141104183D02*
X107861528Y-141042066D01*
X107866110Y-146393416D02*
X107873735Y-146331599D01*
X107866110Y-189618183D02*
X107861528Y-189556066D01*
X107866110Y-194907416D02*
X107873735Y-194845599D01*
X107873735Y-21786000D02*
X107866110Y-21724183D01*
X107873735Y-26951599D02*
X107884383Y-26890230D01*
X107873735Y-70300000D02*
X107866110Y-70238183D01*
X107873735Y-75465599D02*
X107884383Y-75404230D01*
X107873735Y-81476000D02*
X107866110Y-81414183D01*
X107873735Y-86641599D02*
X107884383Y-86580230D01*
X107873735Y-129990000D02*
X107866110Y-129928183D01*
X107873735Y-135155599D02*
X107884383Y-135094230D01*
X107873735Y-141166000D02*
X107866110Y-141104183D01*
X107873735Y-146331599D02*
X107884383Y-146270230D01*
X107873735Y-189680000D02*
X107866110Y-189618183D01*
X107873735Y-194845599D02*
X107884383Y-194784230D01*
X107884383Y-21847369D02*
X107873735Y-21786000D01*
X107884383Y-26890230D02*
X107898030Y-26829458D01*
X107884383Y-70361369D02*
X107873735Y-70300000D01*
X107884383Y-75404230D02*
X107898030Y-75343458D01*
X107884383Y-81537369D02*
X107873735Y-81476000D01*
X107884383Y-86580230D02*
X107898030Y-86519458D01*
X107884383Y-130051369D02*
X107873735Y-129990000D01*
X107884383Y-135094230D02*
X107898030Y-135033458D01*
X107884383Y-141227369D02*
X107873735Y-141166000D01*
X107884383Y-146270230D02*
X107898030Y-146209458D01*
X107884383Y-189741369D02*
X107873735Y-189680000D01*
X107884383Y-194784230D02*
X107898030Y-194723458D01*
X107898030Y-21908141D02*
X107884383Y-21847369D01*
X107898030Y-26829458D02*
X107914643Y-26769428D01*
X107898030Y-70422141D02*
X107884383Y-70361369D01*
X107898030Y-75343458D02*
X107914643Y-75283428D01*
X107898030Y-81598141D02*
X107884383Y-81537369D01*
X107898030Y-86519458D02*
X107914643Y-86459428D01*
X107898030Y-130112141D02*
X107884383Y-130051369D01*
X107898030Y-135033458D02*
X107914643Y-134973428D01*
X107898030Y-141288141D02*
X107884383Y-141227369D01*
X107898030Y-146209458D02*
X107914643Y-146149428D01*
X107898030Y-189802141D02*
X107884383Y-189741369D01*
X107898030Y-194723458D02*
X107914643Y-194663428D01*
X107914643Y-21968171D02*
X107898030Y-21908141D01*
X107914643Y-26769428D02*
X107934180Y-26710286D01*
X107914643Y-70482171D02*
X107898030Y-70422141D01*
X107914643Y-75283428D02*
X107934180Y-75224286D01*
X107914643Y-81658171D02*
X107898030Y-81598141D01*
X107914643Y-86459428D02*
X107934180Y-86400286D01*
X107914643Y-130172171D02*
X107898030Y-130112141D01*
X107914643Y-134973428D02*
X107934180Y-134914286D01*
X107914643Y-141348171D02*
X107898030Y-141288141D01*
X107914643Y-146149428D02*
X107934180Y-146090286D01*
X107914643Y-189862171D02*
X107898030Y-189802141D01*
X107914643Y-194663428D02*
X107934180Y-194604286D01*
X107934180Y-22027313D02*
X107914643Y-21968171D01*
X107934180Y-26710286D02*
X107956597Y-26652174D01*
X107934180Y-70541313D02*
X107914643Y-70482171D01*
X107934180Y-75224286D02*
X107956597Y-75166174D01*
X107934180Y-81717313D02*
X107914643Y-81658171D01*
X107934180Y-86400286D02*
X107956597Y-86342174D01*
X107934180Y-130231313D02*
X107914643Y-130172171D01*
X107934180Y-134914286D02*
X107956597Y-134856174D01*
X107934180Y-141407313D02*
X107914643Y-141348171D01*
X107934180Y-146090286D02*
X107956597Y-146032174D01*
X107934180Y-189921313D02*
X107914643Y-189862171D01*
X107934180Y-194604286D02*
X107956597Y-194546174D01*
X107956597Y-22085425D02*
X107934180Y-22027313D01*
X107956597Y-26652174D02*
X107981837Y-26595232D01*
X107956597Y-70599425D02*
X107934180Y-70541313D01*
X107956597Y-75166174D02*
X107981837Y-75109232D01*
X107956597Y-81775425D02*
X107934180Y-81717313D01*
X107956597Y-86342174D02*
X107981837Y-86285232D01*
X107956597Y-130289425D02*
X107934180Y-130231313D01*
X107956597Y-134856174D02*
X107981837Y-134799232D01*
X107956597Y-141465425D02*
X107934180Y-141407313D01*
X107956597Y-146032174D02*
X107981837Y-145975232D01*
X107956597Y-189979425D02*
X107934180Y-189921313D01*
X107956597Y-194546174D02*
X107981837Y-194489232D01*
X107981837Y-22142367D02*
X107956597Y-22085425D01*
X107981837Y-26595232D02*
X108009842Y-26539597D01*
X107981837Y-70656367D02*
X107956597Y-70599425D01*
X107981837Y-75109232D02*
X108009842Y-75053597D01*
X107981837Y-81832367D02*
X107956597Y-81775425D01*
X107981837Y-86285232D02*
X108009842Y-86229597D01*
X107981837Y-130346367D02*
X107956597Y-130289425D01*
X107981837Y-134799232D02*
X108009842Y-134743597D01*
X107981837Y-141522367D02*
X107956597Y-141465425D01*
X107981837Y-145975232D02*
X108009842Y-145919597D01*
X107981837Y-190036367D02*
X107956597Y-189979425D01*
X107981837Y-194489232D02*
X108009842Y-194433597D01*
X108009842Y-22198002D02*
X107981837Y-22142367D01*
X108009842Y-26539597D02*
X108040542Y-26485403D01*
X108009842Y-70712002D02*
X107981837Y-70656367D01*
X108009842Y-75053597D02*
X108040542Y-74999403D01*
X108009842Y-81888002D02*
X107981837Y-81832367D01*
X108009842Y-86229597D02*
X108040542Y-86175403D01*
X108009842Y-130402002D02*
X107981837Y-130346367D01*
X108009842Y-134743597D02*
X108040542Y-134689403D01*
X108009842Y-141578002D02*
X107981837Y-141522367D01*
X108009842Y-145919597D02*
X108040542Y-145865403D01*
X108009842Y-190092002D02*
X107981837Y-190036367D01*
X108009842Y-194433597D02*
X108040542Y-194379403D01*
X108040542Y-22252196D02*
X108009842Y-22198002D01*
X108040542Y-26485403D02*
X108073865Y-26432781D01*
X108040542Y-70766196D02*
X108009842Y-70712002D01*
X108040542Y-74999403D02*
X108073865Y-74946781D01*
X108040542Y-81942196D02*
X108009842Y-81888002D01*
X108040542Y-86175403D02*
X108073865Y-86122781D01*
X108040542Y-130456196D02*
X108009842Y-130402002D01*
X108040542Y-134689403D02*
X108073865Y-134636781D01*
X108040542Y-141632196D02*
X108009842Y-141578002D01*
X108040542Y-145865403D02*
X108073865Y-145812781D01*
X108040542Y-190146196D02*
X108009842Y-190092002D01*
X108040542Y-194379403D02*
X108073865Y-194326781D01*
X108073865Y-22304818D02*
X108040542Y-22252196D01*
X108073865Y-26432781D02*
X108109729Y-26381857D01*
X108073865Y-70818818D02*
X108040542Y-70766196D01*
X108073865Y-74946781D02*
X108109729Y-74895857D01*
X108073865Y-81994818D02*
X108040542Y-81942196D01*
X108073865Y-86122781D02*
X108109729Y-86071857D01*
X108073865Y-130508818D02*
X108040542Y-130456196D01*
X108073865Y-134636781D02*
X108109729Y-134585857D01*
X108073865Y-141684818D02*
X108040542Y-141632196D01*
X108073865Y-145812781D02*
X108109729Y-145761857D01*
X108073865Y-190198818D02*
X108040542Y-190146196D01*
X108073865Y-194326781D02*
X108109729Y-194275857D01*
X108109729Y-22355742D02*
X108073865Y-22304818D01*
X108109729Y-26381857D02*
X108148049Y-26332755D01*
X108109729Y-70869742D02*
X108073865Y-70818818D01*
X108109729Y-74895857D02*
X108148049Y-74846755D01*
X108109729Y-82045742D02*
X108073865Y-81994818D01*
X108109729Y-86071857D02*
X108148049Y-86022755D01*
X108109729Y-130559742D02*
X108073865Y-130508818D01*
X108109729Y-134585857D02*
X108148049Y-134536755D01*
X108109729Y-141735742D02*
X108073865Y-141684818D01*
X108109729Y-145761857D02*
X108148049Y-145712755D01*
X108109729Y-190249742D02*
X108073865Y-190198818D01*
X108109729Y-194275857D02*
X108148049Y-194226755D01*
X108148049Y-22404844D02*
X108109729Y-22355742D01*
X108148049Y-26332755D02*
X108188733Y-26285591D01*
X108148049Y-70918844D02*
X108109729Y-70869742D01*
X108148049Y-74846755D02*
X108188733Y-74799591D01*
X108148049Y-82094844D02*
X108109729Y-82045742D01*
X108148049Y-86022755D02*
X108188733Y-85975591D01*
X108148049Y-130608844D02*
X108109729Y-130559742D01*
X108148049Y-134536755D02*
X108188733Y-134489591D01*
X108148049Y-141784844D02*
X108109729Y-141735742D01*
X108148049Y-145712755D02*
X108188733Y-145665591D01*
X108148049Y-190298844D02*
X108109729Y-190249742D01*
X108148049Y-194226755D02*
X108188733Y-194179591D01*
X108188733Y-22452008D02*
X108148049Y-22404844D01*
X108188733Y-26285591D02*
X108231681Y-26240481D01*
X108188733Y-70966008D02*
X108148049Y-70918844D01*
X108188733Y-74799591D02*
X108231681Y-74754481D01*
X108188733Y-82142008D02*
X108148049Y-82094844D01*
X108188733Y-85975591D02*
X108231681Y-85930481D01*
X108188733Y-130656008D02*
X108148049Y-130608844D01*
X108188733Y-134489591D02*
X108231681Y-134444481D01*
X108188733Y-141832008D02*
X108148049Y-141784844D01*
X108188733Y-145665591D02*
X108231681Y-145620481D01*
X108188733Y-190346008D02*
X108148049Y-190298844D01*
X108188733Y-194179591D02*
X108231681Y-194134481D01*
X108231681Y-22497118D02*
X108188733Y-22452008D01*
X108231681Y-26240481D02*
X108276791Y-26197533D01*
X108231681Y-71011118D02*
X108188733Y-70966008D01*
X108231681Y-74754481D02*
X108276791Y-74711533D01*
X108231681Y-82187118D02*
X108188733Y-82142008D01*
X108231681Y-85930481D02*
X108276791Y-85887533D01*
X108231681Y-130701118D02*
X108188733Y-130656008D01*
X108231681Y-134444481D02*
X108276791Y-134401533D01*
X108231681Y-141877118D02*
X108188733Y-141832008D01*
X108231681Y-145620481D02*
X108276791Y-145577533D01*
X108231681Y-190391118D02*
X108188733Y-190346008D01*
X108231681Y-194134481D02*
X108276791Y-194091533D01*
X108276791Y-22540066D02*
X108231681Y-22497118D01*
X108276791Y-26197533D02*
X108323955Y-26156849D01*
X108276791Y-71054066D02*
X108231681Y-71011118D01*
X108276791Y-74711533D02*
X108323955Y-74670849D01*
X108276791Y-82230066D02*
X108231681Y-82187118D01*
X108276791Y-85887533D02*
X108323955Y-85846849D01*
X108276791Y-130744066D02*
X108231681Y-130701118D01*
X108276791Y-134401533D02*
X108323955Y-134360849D01*
X108276791Y-141920066D02*
X108231681Y-141877118D01*
X108276791Y-145577533D02*
X108323955Y-145536849D01*
X108276791Y-190434066D02*
X108231681Y-190391118D01*
X108276791Y-194091533D02*
X108323955Y-194050849D01*
X108323955Y-22580750D02*
X108276791Y-22540066D01*
X108323955Y-26156849D02*
X108373057Y-26118529D01*
X108323955Y-71094750D02*
X108276791Y-71054066D01*
X108323955Y-74670849D02*
X108373057Y-74632529D01*
X108323955Y-82270750D02*
X108276791Y-82230066D01*
X108323955Y-85846849D02*
X108373057Y-85808529D01*
X108323955Y-130784750D02*
X108276791Y-130744066D01*
X108323955Y-134360849D02*
X108373057Y-134322529D01*
X108323955Y-141960750D02*
X108276791Y-141920066D01*
X108323955Y-145536849D02*
X108373057Y-145498529D01*
X108323955Y-190474750D02*
X108276791Y-190434066D01*
X108323955Y-194050849D02*
X108373057Y-194012529D01*
X108373057Y-22619070D02*
X108323955Y-22580750D01*
X108373057Y-26118529D02*
X108423981Y-26082665D01*
X108373057Y-71133070D02*
X108323955Y-71094750D01*
X108373057Y-74632529D02*
X108423981Y-74596665D01*
X108373057Y-82309070D02*
X108323955Y-82270750D01*
X108373057Y-85808529D02*
X108423981Y-85772665D01*
X108373057Y-130823070D02*
X108323955Y-130784750D01*
X108373057Y-134322529D02*
X108423981Y-134286665D01*
X108373057Y-141999070D02*
X108323955Y-141960750D01*
X108373057Y-145498529D02*
X108423981Y-145462665D01*
X108373057Y-190513070D02*
X108323955Y-190474750D01*
X108373057Y-194012529D02*
X108423981Y-193976665D01*
X108423981Y-22654934D02*
X108373057Y-22619070D01*
X108423981Y-26082665D02*
X108476603Y-26049342D01*
X108423981Y-71168934D02*
X108373057Y-71133070D01*
X108423981Y-74596665D02*
X108476603Y-74563342D01*
X108423981Y-82344934D02*
X108373057Y-82309070D01*
X108423981Y-85772665D02*
X108476603Y-85739342D01*
X108423981Y-130858934D02*
X108373057Y-130823070D01*
X108423981Y-134286665D02*
X108476603Y-134253342D01*
X108423981Y-142034934D02*
X108373057Y-141999070D01*
X108423981Y-145462665D02*
X108476603Y-145429342D01*
X108423981Y-190548934D02*
X108373057Y-190513070D01*
X108423981Y-193976665D02*
X108476603Y-193943342D01*
X108476603Y-22688257D02*
X108423981Y-22654934D01*
X108476603Y-26049342D02*
X108530797Y-26018642D01*
X108476603Y-71202257D02*
X108423981Y-71168934D01*
X108476603Y-74563342D02*
X108530797Y-74532642D01*
X108476603Y-82378257D02*
X108423981Y-82344934D01*
X108476603Y-85739342D02*
X108530797Y-85708642D01*
X108476603Y-130892257D02*
X108423981Y-130858934D01*
X108476603Y-134253342D02*
X108530797Y-134222642D01*
X108476603Y-142068257D02*
X108423981Y-142034934D01*
X108476603Y-145429342D02*
X108530797Y-145398642D01*
X108476603Y-190582257D02*
X108423981Y-190548934D01*
X108476603Y-193943342D02*
X108530797Y-193912642D01*
X108530797Y-22718957D02*
X108476603Y-22688257D01*
X108530797Y-26018642D02*
X108586432Y-25990637D01*
X108530797Y-71232957D02*
X108476603Y-71202257D01*
X108530797Y-74532642D02*
X108586432Y-74504637D01*
X108530797Y-82408957D02*
X108476603Y-82378257D01*
X108530797Y-85708642D02*
X108586432Y-85680637D01*
X108530797Y-130922957D02*
X108476603Y-130892257D01*
X108530797Y-134222642D02*
X108586432Y-134194637D01*
X108530797Y-142098957D02*
X108476603Y-142068257D01*
X108530797Y-145398642D02*
X108586432Y-145370637D01*
X108530797Y-190612957D02*
X108476603Y-190582257D01*
X108530797Y-193912642D02*
X108586432Y-193884637D01*
X108586432Y-22746962D02*
X108530797Y-22718957D01*
X108586432Y-25990637D02*
X108643374Y-25965397D01*
X108586432Y-71260962D02*
X108530797Y-71232957D01*
X108586432Y-74504637D02*
X108643374Y-74479397D01*
X108586432Y-82436962D02*
X108530797Y-82408957D01*
X108586432Y-85680637D02*
X108643374Y-85655397D01*
X108586432Y-130950962D02*
X108530797Y-130922957D01*
X108586432Y-134194637D02*
X108643374Y-134169397D01*
X108586432Y-142126962D02*
X108530797Y-142098957D01*
X108586432Y-145370637D02*
X108643374Y-145345397D01*
X108586432Y-190640962D02*
X108530797Y-190612957D01*
X108586432Y-193884637D02*
X108643374Y-193859397D01*
X108643374Y-22772202D02*
X108586432Y-22746962D01*
X108643374Y-25965397D02*
X108701486Y-25942980D01*
X108643374Y-71286202D02*
X108586432Y-71260962D01*
X108643374Y-74479397D02*
X108701486Y-74456980D01*
X108643374Y-82462202D02*
X108586432Y-82436962D01*
X108643374Y-85655397D02*
X108701486Y-85632980D01*
X108643374Y-130976202D02*
X108586432Y-130950962D01*
X108643374Y-134169397D02*
X108701486Y-134146980D01*
X108643374Y-142152202D02*
X108586432Y-142126962D01*
X108643374Y-145345397D02*
X108701486Y-145322980D01*
X108643374Y-190666202D02*
X108586432Y-190640962D01*
X108643374Y-193859397D02*
X108701486Y-193836980D01*
X108701486Y-22794619D02*
X108643374Y-22772202D01*
X108701486Y-25942980D02*
X108760628Y-25923443D01*
X108701486Y-71308619D02*
X108643374Y-71286202D01*
X108701486Y-74456980D02*
X108760628Y-74437443D01*
X108701486Y-82484619D02*
X108643374Y-82462202D01*
X108701486Y-85632980D02*
X108760628Y-85613443D01*
X108701486Y-130998619D02*
X108643374Y-130976202D01*
X108701486Y-134146980D02*
X108760628Y-134127443D01*
X108701486Y-142174619D02*
X108643374Y-142152202D01*
X108701486Y-145322980D02*
X108760628Y-145303443D01*
X108701486Y-190688619D02*
X108643374Y-190666202D01*
X108701486Y-193836980D02*
X108760628Y-193817443D01*
X108760628Y-22814156D02*
X108701486Y-22794619D01*
X108760628Y-25923443D02*
X108820658Y-25906830D01*
X108760628Y-71328156D02*
X108701486Y-71308619D01*
X108760628Y-74437443D02*
X108820658Y-74420830D01*
X108760628Y-82504156D02*
X108701486Y-82484619D01*
X108760628Y-85613443D02*
X108820658Y-85596830D01*
X108760628Y-131018156D02*
X108701486Y-130998619D01*
X108760628Y-134127443D02*
X108820658Y-134110830D01*
X108760628Y-142194156D02*
X108701486Y-142174619D01*
X108760628Y-145303443D02*
X108820658Y-145286830D01*
X108760628Y-190708156D02*
X108701486Y-190688619D01*
X108760628Y-193817443D02*
X108820658Y-193800830D01*
X108820658Y-22830769D02*
X108760628Y-22814156D01*
X108820658Y-25906830D02*
X108881430Y-25893183D01*
X108820658Y-71344769D02*
X108760628Y-71328156D01*
X108820658Y-74420830D02*
X108881430Y-74407183D01*
X108820658Y-82520769D02*
X108760628Y-82504156D01*
X108820658Y-85596830D02*
X108881430Y-85583183D01*
X108820658Y-131034769D02*
X108760628Y-131018156D01*
X108820658Y-134110830D02*
X108881430Y-134097183D01*
X108820658Y-142210769D02*
X108760628Y-142194156D01*
X108820658Y-145286830D02*
X108881430Y-145273183D01*
X108820658Y-190724769D02*
X108760628Y-190708156D01*
X108820658Y-193800830D02*
X108881430Y-193787183D01*
X108881430Y-22844416D02*
X108820658Y-22830769D01*
X108881430Y-25893183D02*
X108942799Y-25882535D01*
X108881430Y-71358416D02*
X108820658Y-71344769D01*
X108881430Y-74407183D02*
X108942799Y-74396535D01*
X108881430Y-82534416D02*
X108820658Y-82520769D01*
X108881430Y-85583183D02*
X108942799Y-85572535D01*
X108881430Y-131048416D02*
X108820658Y-131034769D01*
X108881430Y-134097183D02*
X108942799Y-134086535D01*
X108881430Y-142224416D02*
X108820658Y-142210769D01*
X108881430Y-145273183D02*
X108942799Y-145262535D01*
X108881430Y-190738416D02*
X108820658Y-190724769D01*
X108881430Y-193787183D02*
X108942799Y-193776535D01*
X108942799Y-22855064D02*
X108881430Y-22844416D01*
X108942799Y-25882535D02*
X109004616Y-25874910D01*
X108942799Y-71369064D02*
X108881430Y-71358416D01*
X108942799Y-74396535D02*
X109004616Y-74388910D01*
X108942799Y-82545064D02*
X108881430Y-82534416D01*
X108942799Y-85572535D02*
X109004616Y-85564910D01*
X108942799Y-131059064D02*
X108881430Y-131048416D01*
X108942799Y-134086535D02*
X109004616Y-134078910D01*
X108942799Y-142235064D02*
X108881430Y-142224416D01*
X108942799Y-145262535D02*
X109004616Y-145254910D01*
X108942799Y-190749064D02*
X108881430Y-190738416D01*
X108942799Y-193776535D02*
X109004616Y-193768910D01*
X109004616Y-22862689D02*
X108942799Y-22855064D01*
X109004616Y-25874910D02*
X109066733Y-25870328D01*
X109004616Y-71376689D02*
X108942799Y-71369064D01*
X109004616Y-74388910D02*
X109066733Y-74384328D01*
X109004616Y-82552689D02*
X108942799Y-82545064D01*
X109004616Y-85564910D02*
X109066733Y-85560328D01*
X109004616Y-131066689D02*
X108942799Y-131059064D01*
X109004616Y-134078910D02*
X109066733Y-134074328D01*
X109004616Y-142242689D02*
X108942799Y-142235064D01*
X109004616Y-145254910D02*
X109066733Y-145250328D01*
X109004616Y-190756689D02*
X108942799Y-190749064D01*
X109004616Y-193768910D02*
X109066733Y-193764328D01*
X109066733Y-22867271D02*
X109004616Y-22862689D01*
X109066733Y-25870328D02*
X109130987Y-25868800D01*
X109066733Y-71381271D02*
X109004616Y-71376689D01*
X109066733Y-74384328D02*
X109130987Y-74382800D01*
X109066733Y-82557271D02*
X109004616Y-82552689D01*
X109066733Y-85560328D02*
X109130987Y-85558800D01*
X109066733Y-131071271D02*
X109004616Y-131066689D01*
X109066733Y-134074328D02*
X109130987Y-134072800D01*
X109066733Y-142247271D02*
X109004616Y-142242689D01*
X109066733Y-145250328D02*
X109130987Y-145248800D01*
X109066733Y-190761271D02*
X109004616Y-190756689D01*
X109066733Y-193764328D02*
X109130987Y-193762800D01*
X109129012Y-71382800D02*
X109066733Y-71381271D01*
X109129012Y-82558800D02*
X109066733Y-82557271D01*
X109129012Y-131072800D02*
X109066733Y-131071271D01*
X109129012Y-142248800D02*
X109066733Y-142247271D01*
X109129012Y-190762800D02*
X109066733Y-190761271D01*
X109130987Y-22868800D02*
X109066733Y-22867271D01*
X109130987Y-25868800D02*
X109193266Y-25870328D01*
X109130987Y-74382800D02*
X109193266Y-74384328D01*
X109130987Y-85558800D02*
X109193266Y-85560328D01*
X109130987Y-134072800D02*
X109193266Y-134074328D01*
X109130987Y-145248800D02*
X109193266Y-145250328D01*
X109130987Y-193762800D02*
X109193266Y-193764328D01*
X109193266Y-22867271D02*
X109130987Y-22868800D01*
X109193266Y-25870328D02*
X109255383Y-25874910D01*
X109193266Y-71381271D02*
X109129012Y-71382800D01*
X109193266Y-74384328D02*
X109255383Y-74388910D01*
X109193266Y-82557271D02*
X109129012Y-82558800D01*
X109193266Y-85560328D02*
X109255383Y-85564910D01*
X109193266Y-131071271D02*
X109129012Y-131072800D01*
X109193266Y-134074328D02*
X109255383Y-134078910D01*
X109193266Y-142247271D02*
X109129012Y-142248800D01*
X109193266Y-145250328D02*
X109255383Y-145254910D01*
X109193266Y-190761271D02*
X109129012Y-190762800D01*
X109193266Y-193764328D02*
X109255383Y-193768910D01*
X109255383Y-22862689D02*
X109193266Y-22867271D01*
X109255383Y-25874910D02*
X109317200Y-25882535D01*
X109255383Y-71376689D02*
X109193266Y-71381271D01*
X109255383Y-74388910D02*
X109317200Y-74396535D01*
X109255383Y-82552689D02*
X109193266Y-82557271D01*
X109255383Y-85564910D02*
X109317200Y-85572535D01*
X109255383Y-131066689D02*
X109193266Y-131071271D01*
X109255383Y-134078910D02*
X109317200Y-134086535D01*
X109255383Y-142242689D02*
X109193266Y-142247271D01*
X109255383Y-145254910D02*
X109317200Y-145262535D01*
X109255383Y-190756689D02*
X109193266Y-190761271D01*
X109255383Y-193768910D02*
X109317200Y-193776535D01*
X109317200Y-22855064D02*
X109255383Y-22862689D01*
X109317200Y-25882535D02*
X109378569Y-25893183D01*
X109317200Y-71369064D02*
X109255383Y-71376689D01*
X109317200Y-74396535D02*
X109378569Y-74407183D01*
X109317200Y-82545064D02*
X109255383Y-82552689D01*
X109317200Y-85572535D02*
X109378569Y-85583183D01*
X109317200Y-131059064D02*
X109255383Y-131066689D01*
X109317200Y-134086535D02*
X109378569Y-134097183D01*
X109317200Y-142235064D02*
X109255383Y-142242689D01*
X109317200Y-145262535D02*
X109378569Y-145273183D01*
X109317200Y-190749064D02*
X109255383Y-190756689D01*
X109317200Y-193776535D02*
X109378569Y-193787183D01*
X109378569Y-22844416D02*
X109317200Y-22855064D01*
X109378569Y-25893183D02*
X109439341Y-25906830D01*
X109378569Y-71358416D02*
X109317200Y-71369064D01*
X109378569Y-74407183D02*
X109439341Y-74420830D01*
X109378569Y-82534416D02*
X109317200Y-82545064D01*
X109378569Y-85583183D02*
X109439341Y-85596830D01*
X109378569Y-131048416D02*
X109317200Y-131059064D01*
X109378569Y-134097183D02*
X109439341Y-134110830D01*
X109378569Y-142224416D02*
X109317200Y-142235064D01*
X109378569Y-145273183D02*
X109439341Y-145286830D01*
X109378569Y-190738416D02*
X109317200Y-190749064D01*
X109378569Y-193787183D02*
X109439341Y-193800830D01*
X109439341Y-22830769D02*
X109378569Y-22844416D01*
X109439341Y-25906830D02*
X109499371Y-25923443D01*
X109439341Y-71344769D02*
X109378569Y-71358416D01*
X109439341Y-74420830D02*
X109499371Y-74437443D01*
X109439341Y-82520769D02*
X109378569Y-82534416D01*
X109439341Y-85596830D02*
X109499371Y-85613443D01*
X109439341Y-131034769D02*
X109378569Y-131048416D01*
X109439341Y-134110830D02*
X109499371Y-134127443D01*
X109439341Y-142210769D02*
X109378569Y-142224416D01*
X109439341Y-145286830D02*
X109499371Y-145303443D01*
X109439341Y-190724769D02*
X109378569Y-190738416D01*
X109439341Y-193800830D02*
X109499371Y-193817443D01*
X109499371Y-22814156D02*
X109439341Y-22830769D01*
X109499371Y-25923443D02*
X109558513Y-25942980D01*
X109499371Y-71328156D02*
X109439341Y-71344769D01*
X109499371Y-74437443D02*
X109558513Y-74456980D01*
X109499371Y-82504156D02*
X109439341Y-82520769D01*
X109499371Y-85613443D02*
X109558513Y-85632980D01*
X109499371Y-131018156D02*
X109439341Y-131034769D01*
X109499371Y-134127443D02*
X109558513Y-134146980D01*
X109499371Y-142194156D02*
X109439341Y-142210769D01*
X109499371Y-145303443D02*
X109558513Y-145322980D01*
X109499371Y-190708156D02*
X109439341Y-190724769D01*
X109499371Y-193817443D02*
X109558513Y-193836980D01*
X109558513Y-22794619D02*
X109499371Y-22814156D01*
X109558513Y-25942980D02*
X109616625Y-25965397D01*
X109558513Y-71308619D02*
X109499371Y-71328156D01*
X109558513Y-74456980D02*
X109616625Y-74479397D01*
X109558513Y-82484619D02*
X109499371Y-82504156D01*
X109558513Y-85632980D02*
X109616625Y-85655397D01*
X109558513Y-130998619D02*
X109499371Y-131018156D01*
X109558513Y-134146980D02*
X109616625Y-134169397D01*
X109558513Y-142174619D02*
X109499371Y-142194156D01*
X109558513Y-145322980D02*
X109616625Y-145345397D01*
X109558513Y-190688619D02*
X109499371Y-190708156D01*
X109558513Y-193836980D02*
X109616625Y-193859397D01*
X109616625Y-22772202D02*
X109558513Y-22794619D01*
X109616625Y-25965397D02*
X109673567Y-25990637D01*
X109616625Y-71286202D02*
X109558513Y-71308619D01*
X109616625Y-74479397D02*
X109673567Y-74504637D01*
X109616625Y-82462202D02*
X109558513Y-82484619D01*
X109616625Y-85655397D02*
X109673567Y-85680637D01*
X109616625Y-130976202D02*
X109558513Y-130998619D01*
X109616625Y-134169397D02*
X109673567Y-134194637D01*
X109616625Y-142152202D02*
X109558513Y-142174619D01*
X109616625Y-145345397D02*
X109673567Y-145370637D01*
X109616625Y-190666202D02*
X109558513Y-190688619D01*
X109616625Y-193859397D02*
X109673567Y-193884637D01*
X109673567Y-22746962D02*
X109616625Y-22772202D01*
X109673567Y-25990637D02*
X109729202Y-26018642D01*
X109673567Y-71260962D02*
X109616625Y-71286202D01*
X109673567Y-74504637D02*
X109729202Y-74532642D01*
X109673567Y-82436962D02*
X109616625Y-82462202D01*
X109673567Y-85680637D02*
X109729202Y-85708642D01*
X109673567Y-130950962D02*
X109616625Y-130976202D01*
X109673567Y-134194637D02*
X109729202Y-134222642D01*
X109673567Y-142126962D02*
X109616625Y-142152202D01*
X109673567Y-145370637D02*
X109729202Y-145398642D01*
X109673567Y-190640962D02*
X109616625Y-190666202D01*
X109673567Y-193884637D02*
X109729202Y-193912642D01*
X109729202Y-22718957D02*
X109673567Y-22746962D01*
X109729202Y-26018642D02*
X109783396Y-26049342D01*
X109729202Y-71232957D02*
X109673567Y-71260962D01*
X109729202Y-74532642D02*
X109783396Y-74563342D01*
X109729202Y-82408957D02*
X109673567Y-82436962D01*
X109729202Y-85708642D02*
X109783396Y-85739342D01*
X109729202Y-130922957D02*
X109673567Y-130950962D01*
X109729202Y-134222642D02*
X109783396Y-134253342D01*
X109729202Y-142098957D02*
X109673567Y-142126962D01*
X109729202Y-145398642D02*
X109783396Y-145429342D01*
X109729202Y-190612957D02*
X109673567Y-190640962D01*
X109729202Y-193912642D02*
X109783396Y-193943342D01*
X109783396Y-22688257D02*
X109729202Y-22718957D01*
X109783396Y-26049342D02*
X109836018Y-26082665D01*
X109783396Y-71202257D02*
X109729202Y-71232957D01*
X109783396Y-74563342D02*
X109836018Y-74596665D01*
X109783396Y-82378257D02*
X109729202Y-82408957D01*
X109783396Y-85739342D02*
X109836018Y-85772665D01*
X109783396Y-130892257D02*
X109729202Y-130922957D01*
X109783396Y-134253342D02*
X109836018Y-134286665D01*
X109783396Y-142068257D02*
X109729202Y-142098957D01*
X109783396Y-145429342D02*
X109836018Y-145462665D01*
X109783396Y-190582257D02*
X109729202Y-190612957D01*
X109783396Y-193943342D02*
X109836018Y-193976665D01*
X109836018Y-22654934D02*
X109783396Y-22688257D01*
X109836018Y-26082665D02*
X109886942Y-26118529D01*
X109836018Y-71168934D02*
X109783396Y-71202257D01*
X109836018Y-74596665D02*
X109886942Y-74632529D01*
X109836018Y-82344934D02*
X109783396Y-82378257D01*
X109836018Y-85772665D02*
X109886942Y-85808529D01*
X109836018Y-130858934D02*
X109783396Y-130892257D01*
X109836018Y-134286665D02*
X109886942Y-134322529D01*
X109836018Y-142034934D02*
X109783396Y-142068257D01*
X109836018Y-145462665D02*
X109886942Y-145498529D01*
X109836018Y-190548934D02*
X109783396Y-190582257D01*
X109836018Y-193976665D02*
X109886942Y-194012529D01*
X109886942Y-22619070D02*
X109836018Y-22654934D01*
X109886942Y-26118529D02*
X109936044Y-26156849D01*
X109886942Y-71133070D02*
X109836018Y-71168934D01*
X109886942Y-74632529D02*
X109936044Y-74670849D01*
X109886942Y-82309070D02*
X109836018Y-82344934D01*
X109886942Y-85808529D02*
X109936044Y-85846849D01*
X109886942Y-130823070D02*
X109836018Y-130858934D01*
X109886942Y-134322529D02*
X109936044Y-134360849D01*
X109886942Y-141999070D02*
X109836018Y-142034934D01*
X109886942Y-145498529D02*
X109936044Y-145536849D01*
X109886942Y-190513070D02*
X109836018Y-190548934D01*
X109886942Y-194012529D02*
X109936044Y-194050849D01*
X109936044Y-22580750D02*
X109886942Y-22619070D01*
X109936044Y-26156849D02*
X109983208Y-26197533D01*
X109936044Y-71094750D02*
X109886942Y-71133070D01*
X109936044Y-74670849D02*
X109983208Y-74711533D01*
X109936044Y-82270750D02*
X109886942Y-82309070D01*
X109936044Y-85846849D02*
X109983208Y-85887533D01*
X109936044Y-130784750D02*
X109886942Y-130823070D01*
X109936044Y-134360849D02*
X109983208Y-134401533D01*
X109936044Y-141960750D02*
X109886942Y-141999070D01*
X109936044Y-145536849D02*
X109983208Y-145577533D01*
X109936044Y-190474750D02*
X109886942Y-190513070D01*
X109936044Y-194050849D02*
X109983208Y-194091533D01*
X109983208Y-22540066D02*
X109936044Y-22580750D01*
X109983208Y-26197533D02*
X110028318Y-26240481D01*
X109983208Y-71054066D02*
X109936044Y-71094750D01*
X109983208Y-74711533D02*
X110028318Y-74754481D01*
X109983208Y-82230066D02*
X109936044Y-82270750D01*
X109983208Y-85887533D02*
X110028318Y-85930481D01*
X109983208Y-130744066D02*
X109936044Y-130784750D01*
X109983208Y-134401533D02*
X110028318Y-134444481D01*
X109983208Y-141920066D02*
X109936044Y-141960750D01*
X109983208Y-145577533D02*
X110028318Y-145620481D01*
X109983208Y-190434066D02*
X109936044Y-190474750D01*
X109983208Y-194091533D02*
X110028318Y-194134481D01*
X110028318Y-22497118D02*
X109983208Y-22540066D01*
X110028318Y-26240481D02*
X110071266Y-26285591D01*
X110028318Y-71011118D02*
X109983208Y-71054066D01*
X110028318Y-74754481D02*
X110071266Y-74799591D01*
X110028318Y-82187118D02*
X109983208Y-82230066D01*
X110028318Y-85930481D02*
X110071266Y-85975591D01*
X110028318Y-130701118D02*
X109983208Y-130744066D01*
X110028318Y-134444481D02*
X110071266Y-134489591D01*
X110028318Y-141877118D02*
X109983208Y-141920066D01*
X110028318Y-145620481D02*
X110071266Y-145665591D01*
X110028318Y-190391118D02*
X109983208Y-190434066D01*
X110028318Y-194134481D02*
X110071266Y-194179591D01*
X110071266Y-22452008D02*
X110028318Y-22497118D01*
X110071266Y-26285591D02*
X110111950Y-26332755D01*
X110071266Y-70966008D02*
X110028318Y-71011118D01*
X110071266Y-74799591D02*
X110111950Y-74846755D01*
X110071266Y-82142008D02*
X110028318Y-82187118D01*
X110071266Y-85975591D02*
X110111950Y-86022755D01*
X110071266Y-130656008D02*
X110028318Y-130701118D01*
X110071266Y-134489591D02*
X110111950Y-134536755D01*
X110071266Y-141832008D02*
X110028318Y-141877118D01*
X110071266Y-145665591D02*
X110111950Y-145712755D01*
X110071266Y-190346008D02*
X110028318Y-190391118D01*
X110071266Y-194179591D02*
X110111950Y-194226755D01*
X110111950Y-22404844D02*
X110071266Y-22452008D01*
X110111950Y-26332755D02*
X110150270Y-26381857D01*
X110111950Y-70918844D02*
X110071266Y-70966008D01*
X110111950Y-74846755D02*
X110150270Y-74895857D01*
X110111950Y-82094844D02*
X110071266Y-82142008D01*
X110111950Y-86022755D02*
X110150270Y-86071857D01*
X110111950Y-130608844D02*
X110071266Y-130656008D01*
X110111950Y-134536755D02*
X110150270Y-134585857D01*
X110111950Y-141784844D02*
X110071266Y-141832008D01*
X110111950Y-145712755D02*
X110150270Y-145761857D01*
X110111950Y-190298844D02*
X110071266Y-190346008D01*
X110111950Y-194226755D02*
X110150270Y-194275857D01*
X110150270Y-22355742D02*
X110111950Y-22404844D01*
X110150270Y-26381857D02*
X110186134Y-26432781D01*
X110150270Y-70869742D02*
X110111950Y-70918844D01*
X110150270Y-74895857D02*
X110186134Y-74946781D01*
X110150270Y-82045742D02*
X110111950Y-82094844D01*
X110150270Y-86071857D02*
X110186134Y-86122781D01*
X110150270Y-130559742D02*
X110111950Y-130608844D01*
X110150270Y-134585857D02*
X110186134Y-134636781D01*
X110150270Y-141735742D02*
X110111950Y-141784844D01*
X110150270Y-145761857D02*
X110186134Y-145812781D01*
X110150270Y-190249742D02*
X110111950Y-190298844D01*
X110150270Y-194275857D02*
X110186134Y-194326781D01*
X110186134Y-22304818D02*
X110150270Y-22355742D01*
X110186134Y-26432781D02*
X110219457Y-26485403D01*
X110186134Y-70818818D02*
X110150270Y-70869742D01*
X110186134Y-74946781D02*
X110219457Y-74999403D01*
X110186134Y-81994818D02*
X110150270Y-82045742D01*
X110186134Y-86122781D02*
X110219457Y-86175403D01*
X110186134Y-130508818D02*
X110150270Y-130559742D01*
X110186134Y-134636781D02*
X110219457Y-134689403D01*
X110186134Y-141684818D02*
X110150270Y-141735742D01*
X110186134Y-145812781D02*
X110219457Y-145865403D01*
X110186134Y-190198818D02*
X110150270Y-190249742D01*
X110186134Y-194326781D02*
X110219457Y-194379403D01*
X110219457Y-22252196D02*
X110186134Y-22304818D01*
X110219457Y-26485403D02*
X110250157Y-26539597D01*
X110219457Y-70766196D02*
X110186134Y-70818818D01*
X110219457Y-74999403D02*
X110250157Y-75053597D01*
X110219457Y-81942196D02*
X110186134Y-81994818D01*
X110219457Y-86175403D02*
X110250157Y-86229597D01*
X110219457Y-130456196D02*
X110186134Y-130508818D01*
X110219457Y-134689403D02*
X110250157Y-134743597D01*
X110219457Y-141632196D02*
X110186134Y-141684818D01*
X110219457Y-145865403D02*
X110250157Y-145919597D01*
X110219457Y-190146196D02*
X110186134Y-190198818D01*
X110219457Y-194379403D02*
X110250157Y-194433597D01*
X110250157Y-22198002D02*
X110219457Y-22252196D01*
X110250157Y-26539597D02*
X110278162Y-26595232D01*
X110250157Y-70712002D02*
X110219457Y-70766196D01*
X110250157Y-75053597D02*
X110278162Y-75109232D01*
X110250157Y-81888002D02*
X110219457Y-81942196D01*
X110250157Y-86229597D02*
X110278162Y-86285232D01*
X110250157Y-130402002D02*
X110219457Y-130456196D01*
X110250157Y-134743597D02*
X110278162Y-134799232D01*
X110250157Y-141578002D02*
X110219457Y-141632196D01*
X110250157Y-145919597D02*
X110278162Y-145975232D01*
X110250157Y-190092002D02*
X110219457Y-190146196D01*
X110250157Y-194433597D02*
X110278162Y-194489232D01*
X110278162Y-22142367D02*
X110250157Y-22198002D01*
X110278162Y-26595232D02*
X110303402Y-26652174D01*
X110278162Y-70656367D02*
X110250157Y-70712002D01*
X110278162Y-75109232D02*
X110303402Y-75166174D01*
X110278162Y-81832367D02*
X110250157Y-81888002D01*
X110278162Y-86285232D02*
X110303402Y-86342174D01*
X110278162Y-130346367D02*
X110250157Y-130402002D01*
X110278162Y-134799232D02*
X110303402Y-134856174D01*
X110278162Y-141522367D02*
X110250157Y-141578002D01*
X110278162Y-145975232D02*
X110303402Y-146032174D01*
X110278162Y-190036367D02*
X110250157Y-190092002D01*
X110278162Y-194489232D02*
X110303402Y-194546174D01*
X110303402Y-22085425D02*
X110278162Y-22142367D01*
X110303402Y-26652174D02*
X110325819Y-26710286D01*
X110303402Y-70599425D02*
X110278162Y-70656367D01*
X110303402Y-75166174D02*
X110325819Y-75224286D01*
X110303402Y-81775425D02*
X110278162Y-81832367D01*
X110303402Y-86342174D02*
X110325819Y-86400286D01*
X110303402Y-130289425D02*
X110278162Y-130346367D01*
X110303402Y-134856174D02*
X110325819Y-134914286D01*
X110303402Y-141465425D02*
X110278162Y-141522367D01*
X110303402Y-146032174D02*
X110325819Y-146090286D01*
X110303402Y-189979425D02*
X110278162Y-190036367D01*
X110303402Y-194546174D02*
X110325819Y-194604286D01*
X110325819Y-22027313D02*
X110303402Y-22085425D01*
X110325819Y-26710286D02*
X110345356Y-26769428D01*
X110325819Y-70541313D02*
X110303402Y-70599425D01*
X110325819Y-75224286D02*
X110345356Y-75283428D01*
X110325819Y-81717313D02*
X110303402Y-81775425D01*
X110325819Y-86400286D02*
X110345356Y-86459428D01*
X110325819Y-130231313D02*
X110303402Y-130289425D01*
X110325819Y-134914286D02*
X110345356Y-134973428D01*
X110325819Y-141407313D02*
X110303402Y-141465425D01*
X110325819Y-146090286D02*
X110345356Y-146149428D01*
X110325819Y-189921313D02*
X110303402Y-189979425D01*
X110325819Y-194604286D02*
X110345356Y-194663428D01*
X110345356Y-21968171D02*
X110325819Y-22027313D01*
X110345356Y-26769428D02*
X110361969Y-26829458D01*
X110345356Y-70482171D02*
X110325819Y-70541313D01*
X110345356Y-75283428D02*
X110361969Y-75343458D01*
X110345356Y-81658171D02*
X110325819Y-81717313D01*
X110345356Y-86459428D02*
X110361969Y-86519458D01*
X110345356Y-130172171D02*
X110325819Y-130231313D01*
X110345356Y-134973428D02*
X110361969Y-135033458D01*
X110345356Y-141348171D02*
X110325819Y-141407313D01*
X110345356Y-146149428D02*
X110361969Y-146209458D01*
X110345356Y-189862171D02*
X110325819Y-189921313D01*
X110345356Y-194663428D02*
X110361969Y-194723458D01*
X110361969Y-21908141D02*
X110345356Y-21968171D01*
X110361969Y-26829458D02*
X110375616Y-26890230D01*
X110361969Y-70422141D02*
X110345356Y-70482171D01*
X110361969Y-75343458D02*
X110375616Y-75404230D01*
X110361969Y-81598141D02*
X110345356Y-81658171D01*
X110361969Y-86519458D02*
X110375616Y-86580230D01*
X110361969Y-130112141D02*
X110345356Y-130172171D01*
X110361969Y-135033458D02*
X110375616Y-135094230D01*
X110361969Y-141288141D02*
X110345356Y-141348171D01*
X110361969Y-146209458D02*
X110375616Y-146270230D01*
X110361969Y-189802141D02*
X110345356Y-189862171D01*
X110361969Y-194723458D02*
X110375616Y-194784230D01*
X110375616Y-21847369D02*
X110361969Y-21908141D01*
X110375616Y-26890230D02*
X110386264Y-26951599D01*
X110375616Y-70361369D02*
X110361969Y-70422141D01*
X110375616Y-75404230D02*
X110386264Y-75465599D01*
X110375616Y-81537369D02*
X110361969Y-81598141D01*
X110375616Y-86580230D02*
X110386264Y-86641599D01*
X110375616Y-130051369D02*
X110361969Y-130112141D01*
X110375616Y-135094230D02*
X110386264Y-135155599D01*
X110375616Y-141227369D02*
X110361969Y-141288141D01*
X110375616Y-146270230D02*
X110386264Y-146331599D01*
X110375616Y-189741369D02*
X110361969Y-189802141D01*
X110375616Y-194784230D02*
X110386264Y-194845599D01*
X110386264Y-21786000D02*
X110375616Y-21847369D01*
X110386264Y-26951599D02*
X110393889Y-27013416D01*
X110386264Y-70300000D02*
X110375616Y-70361369D01*
X110386264Y-75465599D02*
X110393889Y-75527416D01*
X110386264Y-81476000D02*
X110375616Y-81537369D01*
X110386264Y-86641599D02*
X110393889Y-86703416D01*
X110386264Y-129990000D02*
X110375616Y-130051369D01*
X110386264Y-135155599D02*
X110393889Y-135217416D01*
X110386264Y-141166000D02*
X110375616Y-141227369D01*
X110386264Y-146331599D02*
X110393889Y-146393416D01*
X110386264Y-189680000D02*
X110375616Y-189741369D01*
X110386264Y-194845599D02*
X110393889Y-194907416D01*
X110393889Y-21724183D02*
X110386264Y-21786000D01*
X110393889Y-27013416D02*
X110398471Y-27075533D01*
X110393889Y-70238183D02*
X110386264Y-70300000D01*
X110393889Y-75527416D02*
X110398471Y-75589533D01*
X110393889Y-81414183D02*
X110386264Y-81476000D01*
X110393889Y-86703416D02*
X110398471Y-86765533D01*
X110393889Y-129928183D02*
X110386264Y-129990000D01*
X110393889Y-135217416D02*
X110398471Y-135279533D01*
X110393889Y-141104183D02*
X110386264Y-141166000D01*
X110393889Y-146393416D02*
X110398471Y-146455533D01*
X110393889Y-189618183D02*
X110386264Y-189680000D01*
X110393889Y-194907416D02*
X110398471Y-194969533D01*
X110398471Y-21662066D02*
X110393889Y-21724183D01*
X110398471Y-27075533D02*
X110400000Y-27137812D01*
X110398471Y-70176066D02*
X110393889Y-70238183D01*
X110398471Y-75589533D02*
X110400000Y-75651812D01*
X110398471Y-81352066D02*
X110393889Y-81414183D01*
X110398471Y-86765533D02*
X110400000Y-86827812D01*
X110398471Y-129866066D02*
X110393889Y-129928183D01*
X110398471Y-135279533D02*
X110400000Y-135341812D01*
X110398471Y-141042066D02*
X110393889Y-141104183D01*
X110398471Y-146455533D02*
X110400000Y-146517812D01*
X110398471Y-189556066D02*
X110393889Y-189618183D01*
X110398471Y-194969533D02*
X110400000Y-195031812D01*
X110400000Y-20015586D02*
X110400000Y-21599787D01*
X110400000Y-21599787D02*
X110398471Y-21662066D01*
X110400000Y-27137812D02*
X110400000Y-70113787D01*
X110400000Y-70113787D02*
X110398471Y-70176066D01*
X110400000Y-75651812D02*
X110400000Y-77134413D01*
X110400000Y-77134413D02*
X110401275Y-77149647D01*
X110400000Y-79705586D02*
X110400000Y-81289787D01*
X110400000Y-81289787D02*
X110398471Y-81352066D01*
X110400000Y-86827812D02*
X110400000Y-129803787D01*
X110400000Y-129803787D02*
X110398471Y-129866066D01*
X110400000Y-135341812D02*
X110400000Y-136824413D01*
X110400000Y-136824413D02*
X110401275Y-136839647D01*
X110400000Y-139395586D02*
X110400000Y-140979787D01*
X110400000Y-140979787D02*
X110398471Y-141042066D01*
X110400000Y-146517812D02*
X110400000Y-189493787D01*
X110400000Y-189493787D02*
X110398471Y-189556066D01*
X110400000Y-195031812D02*
X110400000Y-196514413D01*
X110400000Y-196514413D02*
X110401324Y-196529650D01*
X110401275Y-77149647D02*
X158278587Y-77150000D01*
X110401275Y-79690352D02*
X110400000Y-79705586D01*
X110401275Y-136839647D02*
X158278587Y-136840000D01*
X110401275Y-139380352D02*
X110400000Y-139395586D01*
X110401324Y-20000349D02*
X110400000Y-20015586D01*
X110401324Y-196529650D02*
X186598964Y-196529600D01*
X158278587Y-77150000D02*
X158340866Y-77151528D01*
X158278587Y-79690000D02*
X110401275Y-79690352D01*
X158278587Y-136840000D02*
X158340866Y-136841528D01*
X158278587Y-139380000D02*
X110401275Y-139380352D01*
X158340866Y-77151528D02*
X158402983Y-77156110D01*
X158340866Y-79688471D02*
X158278587Y-79690000D01*
X158340866Y-136841528D02*
X158402983Y-136846110D01*
X158340866Y-139378471D02*
X158278587Y-139380000D01*
X158402983Y-77156110D02*
X158464800Y-77163735D01*
X158402983Y-79683889D02*
X158340866Y-79688471D01*
X158402983Y-136846110D02*
X158464800Y-136853735D01*
X158402983Y-139373889D02*
X158340866Y-139378471D01*
X158464800Y-77163735D02*
X158526169Y-77174383D01*
X158464800Y-79676264D02*
X158402983Y-79683889D01*
X158464800Y-136853735D02*
X158526169Y-136864383D01*
X158464800Y-139366264D02*
X158402983Y-139373889D01*
X158526169Y-77174383D02*
X158586941Y-77188030D01*
X158526169Y-79665616D02*
X158464800Y-79676264D01*
X158526169Y-136864383D02*
X158586941Y-136878030D01*
X158526169Y-139355616D02*
X158464800Y-139366264D01*
X158586941Y-77188030D02*
X158646971Y-77204643D01*
X158586941Y-79651969D02*
X158526169Y-79665616D01*
X158586941Y-136878030D02*
X158646971Y-136894643D01*
X158586941Y-139341969D02*
X158526169Y-139355616D01*
X158646971Y-77204643D02*
X158706113Y-77224180D01*
X158646971Y-79635356D02*
X158586941Y-79651969D01*
X158646971Y-136894643D02*
X158706113Y-136914180D01*
X158646971Y-139325356D02*
X158586941Y-139341969D01*
X158706113Y-77224180D02*
X158764225Y-77246597D01*
X158706113Y-79615819D02*
X158646971Y-79635356D01*
X158706113Y-136914180D02*
X158764225Y-136936597D01*
X158706113Y-139305819D02*
X158646971Y-139325356D01*
X158764225Y-77246597D02*
X158821167Y-77271837D01*
X158764225Y-79593402D02*
X158706113Y-79615819D01*
X158764225Y-136936597D02*
X158821167Y-136961837D01*
X158764225Y-139283402D02*
X158706113Y-139305819D01*
X158821167Y-77271837D02*
X158876802Y-77299842D01*
X158821167Y-79568162D02*
X158764225Y-79593402D01*
X158821167Y-136961837D02*
X158876802Y-136989842D01*
X158821167Y-139258162D02*
X158764225Y-139283402D01*
X158876802Y-77299842D02*
X158930996Y-77330542D01*
X158876802Y-79540157D02*
X158821167Y-79568162D01*
X158876802Y-136989842D02*
X158930996Y-137020542D01*
X158876802Y-139230157D02*
X158821167Y-139258162D01*
X158930996Y-77330542D02*
X158983618Y-77363865D01*
X158930996Y-79509457D02*
X158876802Y-79540157D01*
X158930996Y-137020542D02*
X158983618Y-137053865D01*
X158930996Y-139199457D02*
X158876802Y-139230157D01*
X158983618Y-77363865D02*
X159034542Y-77399729D01*
X158983618Y-79476134D02*
X158930996Y-79509457D01*
X158983618Y-137053865D02*
X159034542Y-137089729D01*
X158983618Y-139166134D02*
X158930996Y-139199457D01*
X159034542Y-77399729D02*
X159083644Y-77438049D01*
X159034542Y-79440270D02*
X158983618Y-79476134D01*
X159034542Y-137089729D02*
X159083644Y-137128049D01*
X159034542Y-139130270D02*
X158983618Y-139166134D01*
X159083644Y-77438049D02*
X159130808Y-77478733D01*
X159083644Y-79401950D02*
X159034542Y-79440270D01*
X159083644Y-137128049D02*
X159130808Y-137168733D01*
X159083644Y-139091950D02*
X159034542Y-139130270D01*
X159130808Y-77478733D02*
X159175918Y-77521681D01*
X159130808Y-79361266D02*
X159083644Y-79401950D01*
X159130808Y-137168733D02*
X159175918Y-137211681D01*
X159130808Y-139051266D02*
X159083644Y-139091950D01*
X159175918Y-77521681D02*
X159218866Y-77566791D01*
X159175918Y-79318318D02*
X159130808Y-79361266D01*
X159175918Y-137211681D02*
X159218866Y-137256791D01*
X159175918Y-139008318D02*
X159130808Y-139051266D01*
X159218866Y-77566791D02*
X159259550Y-77613955D01*
X159218866Y-79273208D02*
X159175918Y-79318318D01*
X159218866Y-137256791D02*
X159259550Y-137303955D01*
X159218866Y-138963208D02*
X159175918Y-139008318D01*
X159259550Y-77613955D02*
X159297870Y-77663057D01*
X159259550Y-79226044D02*
X159218866Y-79273208D01*
X159259550Y-137303955D02*
X159297870Y-137353057D01*
X159259550Y-138916044D02*
X159218866Y-138963208D01*
X159297870Y-77663057D02*
X159333734Y-77713981D01*
X159297870Y-79176942D02*
X159259550Y-79226044D01*
X159297870Y-137353057D02*
X159333734Y-137403981D01*
X159297870Y-138866942D02*
X159259550Y-138916044D01*
X159333734Y-77713981D02*
X159367057Y-77766603D01*
X159333734Y-79126018D02*
X159297870Y-79176942D01*
X159333734Y-137403981D02*
X159367057Y-137456603D01*
X159333734Y-138816018D02*
X159297870Y-138866942D01*
X159367057Y-77766603D02*
X159397757Y-77820797D01*
X159367057Y-79073396D02*
X159333734Y-79126018D01*
X159367057Y-137456603D02*
X159397757Y-137510797D01*
X159367057Y-138763396D02*
X159333734Y-138816018D01*
X159397757Y-77820797D02*
X159425762Y-77876432D01*
X159397757Y-79019202D02*
X159367057Y-79073396D01*
X159397757Y-137510797D02*
X159425762Y-137566432D01*
X159397757Y-138709202D02*
X159367057Y-138763396D01*
X159425762Y-77876432D02*
X159451002Y-77933374D01*
X159425762Y-78963567D02*
X159397757Y-79019202D01*
X159425762Y-137566432D02*
X159451002Y-137623374D01*
X159425762Y-138653567D02*
X159397757Y-138709202D01*
X159451002Y-77933374D02*
X159473419Y-77991486D01*
X159451002Y-78906625D02*
X159425762Y-78963567D01*
X159451002Y-137623374D02*
X159473419Y-137681486D01*
X159451002Y-138596625D02*
X159425762Y-138653567D01*
X159473419Y-77991486D02*
X159492956Y-78050628D01*
X159473419Y-78848513D02*
X159451002Y-78906625D01*
X159473419Y-137681486D02*
X159492956Y-137740628D01*
X159473419Y-138538513D02*
X159451002Y-138596625D01*
X159492956Y-78050628D02*
X159509569Y-78110658D01*
X159492956Y-78789371D02*
X159473419Y-78848513D01*
X159492956Y-137740628D02*
X159509569Y-137800658D01*
X159492956Y-138479371D02*
X159473419Y-138538513D01*
X159509569Y-78110658D02*
X159523216Y-78171430D01*
X159509569Y-78729341D02*
X159492956Y-78789371D01*
X159509569Y-137800658D02*
X159523216Y-137861430D01*
X159509569Y-138419341D02*
X159492956Y-138479371D01*
X159523216Y-78171430D02*
X159533864Y-78232799D01*
X159523216Y-78668569D02*
X159509569Y-78729341D01*
X159523216Y-137861430D02*
X159533864Y-137922799D01*
X159523216Y-138358569D02*
X159509569Y-138419341D01*
X159533864Y-78232799D02*
X159541489Y-78294616D01*
X159533864Y-78607200D02*
X159523216Y-78668569D01*
X159533864Y-137922799D02*
X159541489Y-137984616D01*
X159533864Y-138297200D02*
X159523216Y-138358569D01*
X159541489Y-78294616D02*
X159546071Y-78356733D01*
X159541489Y-78545383D02*
X159533864Y-78607200D01*
X159541489Y-137984616D02*
X159546071Y-138046733D01*
X159541489Y-138235383D02*
X159533864Y-138297200D01*
X159546071Y-78356733D02*
X159547600Y-78419012D01*
X159546071Y-78483266D02*
X159541489Y-78545383D01*
X159546071Y-138046733D02*
X159547600Y-138109012D01*
X159546071Y-138173266D02*
X159541489Y-138235383D01*
X159547600Y-78419012D02*
X159546071Y-78483266D01*
X159547600Y-138109012D02*
X159546071Y-138173266D01*
X162547600Y-78420987D02*
X162549128Y-78356733D01*
X162547600Y-138110987D02*
X162549128Y-138046733D01*
X162549128Y-78356733D02*
X162553710Y-78294616D01*
X162549128Y-78483266D02*
X162547600Y-78420987D01*
X162549128Y-138046733D02*
X162553710Y-137984616D01*
X162549128Y-138173266D02*
X162547600Y-138110987D01*
X162553710Y-78294616D02*
X162561335Y-78232799D01*
X162553710Y-78545383D02*
X162549128Y-78483266D01*
X162553710Y-137984616D02*
X162561335Y-137922799D01*
X162553710Y-138235383D02*
X162549128Y-138173266D01*
X162561335Y-78232799D02*
X162571983Y-78171430D01*
X162561335Y-78607200D02*
X162553710Y-78545383D01*
X162561335Y-137922799D02*
X162571983Y-137861430D01*
X162561335Y-138297200D02*
X162553710Y-138235383D01*
X162571983Y-78171430D02*
X162585630Y-78110658D01*
X162571983Y-78668569D02*
X162561335Y-78607200D01*
X162571983Y-137861430D02*
X162585630Y-137800658D01*
X162571983Y-138358569D02*
X162561335Y-138297200D01*
X162585630Y-78110658D02*
X162602243Y-78050628D01*
X162585630Y-78729341D02*
X162571983Y-78668569D01*
X162585630Y-137800658D02*
X162602243Y-137740628D01*
X162585630Y-138419341D02*
X162571983Y-138358569D01*
X162602243Y-78050628D02*
X162621780Y-77991486D01*
X162602243Y-78789371D02*
X162585630Y-78729341D01*
X162602243Y-137740628D02*
X162621780Y-137681486D01*
X162602243Y-138479371D02*
X162585630Y-138419341D01*
X162621780Y-77991486D02*
X162644197Y-77933374D01*
X162621780Y-78848513D02*
X162602243Y-78789371D01*
X162621780Y-137681486D02*
X162644197Y-137623374D01*
X162621780Y-138538513D02*
X162602243Y-138479371D01*
X162644197Y-77933374D02*
X162669437Y-77876432D01*
X162644197Y-78906625D02*
X162621780Y-78848513D01*
X162644197Y-137623374D02*
X162669437Y-137566432D01*
X162644197Y-138596625D02*
X162621780Y-138538513D01*
X162669437Y-77876432D02*
X162697442Y-77820797D01*
X162669437Y-78963567D02*
X162644197Y-78906625D01*
X162669437Y-137566432D02*
X162697442Y-137510797D01*
X162669437Y-138653567D02*
X162644197Y-138596625D01*
X162697442Y-77820797D02*
X162728142Y-77766603D01*
X162697442Y-79019202D02*
X162669437Y-78963567D01*
X162697442Y-137510797D02*
X162728142Y-137456603D01*
X162697442Y-138709202D02*
X162669437Y-138653567D01*
X162728142Y-77766603D02*
X162761465Y-77713981D01*
X162728142Y-79073396D02*
X162697442Y-79019202D01*
X162728142Y-137456603D02*
X162761465Y-137403981D01*
X162728142Y-138763396D02*
X162697442Y-138709202D01*
X162761465Y-77713981D02*
X162797329Y-77663057D01*
X162761465Y-79126018D02*
X162728142Y-79073396D01*
X162761465Y-137403981D02*
X162797329Y-137353057D01*
X162761465Y-138816018D02*
X162728142Y-138763396D01*
X162797329Y-77663057D02*
X162835649Y-77613955D01*
X162797329Y-79176942D02*
X162761465Y-79126018D01*
X162797329Y-137353057D02*
X162835649Y-137303955D01*
X162797329Y-138866942D02*
X162761465Y-138816018D01*
X162835649Y-77613955D02*
X162876333Y-77566791D01*
X162835649Y-79226044D02*
X162797329Y-79176942D01*
X162835649Y-137303955D02*
X162876333Y-137256791D01*
X162835649Y-138916044D02*
X162797329Y-138866942D01*
X162876333Y-77566791D02*
X162919281Y-77521681D01*
X162876333Y-79273208D02*
X162835649Y-79226044D01*
X162876333Y-137256791D02*
X162919281Y-137211681D01*
X162876333Y-138963208D02*
X162835649Y-138916044D01*
X162919281Y-77521681D02*
X162964391Y-77478733D01*
X162919281Y-79318318D02*
X162876333Y-79273208D01*
X162919281Y-137211681D02*
X162964391Y-137168733D01*
X162919281Y-139008318D02*
X162876333Y-138963208D01*
X162964391Y-77478733D02*
X163011555Y-77438049D01*
X162964391Y-79361266D02*
X162919281Y-79318318D01*
X162964391Y-137168733D02*
X163011555Y-137128049D01*
X162964391Y-139051266D02*
X162919281Y-139008318D01*
X163011555Y-77438049D02*
X163060657Y-77399729D01*
X163011555Y-79401950D02*
X162964391Y-79361266D01*
X163011555Y-137128049D02*
X163060657Y-137089729D01*
X163011555Y-139091950D02*
X162964391Y-139051266D01*
X163060657Y-77399729D02*
X163111581Y-77363865D01*
X163060657Y-79440270D02*
X163011555Y-79401950D01*
X163060657Y-137089729D02*
X163111581Y-137053865D01*
X163060657Y-139130270D02*
X163011555Y-139091950D01*
X163111581Y-77363865D02*
X163164203Y-77330542D01*
X163111581Y-79476134D02*
X163060657Y-79440270D01*
X163111581Y-137053865D02*
X163164203Y-137020542D01*
X163111581Y-139166134D02*
X163060657Y-139130270D01*
X163164203Y-77330542D02*
X163218397Y-77299842D01*
X163164203Y-79509457D02*
X163111581Y-79476134D01*
X163164203Y-137020542D02*
X163218397Y-136989842D01*
X163164203Y-139199457D02*
X163111581Y-139166134D01*
X163218397Y-77299842D02*
X163274032Y-77271837D01*
X163218397Y-79540157D02*
X163164203Y-79509457D01*
X163218397Y-136989842D02*
X163274032Y-136961837D01*
X163218397Y-139230157D02*
X163164203Y-139199457D01*
X163274032Y-77271837D02*
X163330974Y-77246597D01*
X163274032Y-79568162D02*
X163218397Y-79540157D01*
X163274032Y-136961837D02*
X163330974Y-136936597D01*
X163274032Y-139258162D02*
X163218397Y-139230157D01*
X163330974Y-77246597D02*
X163389086Y-77224180D01*
X163330974Y-79593402D02*
X163274032Y-79568162D01*
X163330974Y-136936597D02*
X163389086Y-136914180D01*
X163330974Y-139283402D02*
X163274032Y-139258162D01*
X163389086Y-77224180D02*
X163448228Y-77204643D01*
X163389086Y-79615819D02*
X163330974Y-79593402D01*
X163389086Y-136914180D02*
X163448228Y-136894643D01*
X163389086Y-139305819D02*
X163330974Y-139283402D01*
X163448228Y-77204643D02*
X163508258Y-77188030D01*
X163448228Y-79635356D02*
X163389086Y-79615819D01*
X163448228Y-136894643D02*
X163508258Y-136878030D01*
X163448228Y-139325356D02*
X163389086Y-139305819D01*
X163508258Y-77188030D02*
X163569030Y-77174383D01*
X163508258Y-79651969D02*
X163448228Y-79635356D01*
X163508258Y-136878030D02*
X163569030Y-136864383D01*
X163508258Y-139341969D02*
X163448228Y-139325356D01*
X163569030Y-77174383D02*
X163630399Y-77163735D01*
X163569030Y-79665616D02*
X163508258Y-79651969D01*
X163569030Y-136864383D02*
X163630399Y-136853735D01*
X163569030Y-139355616D02*
X163508258Y-139341969D01*
X163630399Y-77163735D02*
X163692216Y-77156110D01*
X163630399Y-79676264D02*
X163569030Y-79665616D01*
X163630399Y-136853735D02*
X163692216Y-136846110D01*
X163630399Y-139366264D02*
X163569030Y-139355616D01*
X163692216Y-77156110D02*
X163754333Y-77151528D01*
X163692216Y-79683889D02*
X163630399Y-79676264D01*
X163692216Y-136846110D02*
X163754333Y-136841528D01*
X163692216Y-139373889D02*
X163630399Y-139366264D01*
X163754333Y-77151528D02*
X163816612Y-77150000D01*
X163754333Y-79688471D02*
X163692216Y-79683889D01*
X163754333Y-136841528D02*
X163816612Y-136840000D01*
X163754333Y-139378471D02*
X163692216Y-139373889D01*
X163816612Y-77150000D02*
X186598675Y-77149650D01*
X163816612Y-79690000D02*
X163754333Y-79688471D01*
X163816612Y-136840000D02*
X186598675Y-136839650D01*
X163816612Y-139380000D02*
X163754333Y-139378471D01*
X186598675Y-77149650D02*
X186600000Y-77134413D01*
X186598675Y-136839650D02*
X186600000Y-136824413D01*
X186598964Y-20000399D02*
X110401324Y-20000349D01*
X186598964Y-196529600D02*
X186600000Y-196514413D01*
X186599374Y-79690659D02*
X163816612Y-79690000D01*
X186599374Y-139380659D02*
X163816612Y-139380000D01*
X186600000Y-20015586D02*
X186598964Y-20000399D01*
X186600000Y-45170987D02*
X186600000Y-20015586D01*
X186600000Y-50709012D02*
X186601528Y-50646733D01*
X186600000Y-77134413D02*
X186600000Y-50709012D01*
X186600000Y-104860987D02*
X186599374Y-79690659D01*
X186600000Y-110399012D02*
X186601528Y-110336733D01*
X186600000Y-136824413D02*
X186600000Y-110399012D01*
X186600000Y-164550987D02*
X186599374Y-139380659D01*
X186600000Y-170089012D02*
X186601528Y-170026733D01*
X186600000Y-196514413D02*
X186600000Y-170089012D01*
X186601528Y-45233266D02*
X186600000Y-45170987D01*
X186601528Y-50646733D02*
X186606110Y-50584616D01*
X186601528Y-104923266D02*
X186600000Y-104860987D01*
X186601528Y-110336733D02*
X186606110Y-110274616D01*
X186601528Y-164613266D02*
X186600000Y-164550987D01*
X186601528Y-170026733D02*
X186606110Y-169964616D01*
X186606110Y-45295383D02*
X186601528Y-45233266D01*
X186606110Y-50584616D02*
X186613735Y-50522799D01*
X186606110Y-104985383D02*
X186601528Y-104923266D01*
X186606110Y-110274616D02*
X186613735Y-110212799D01*
X186606110Y-164675383D02*
X186601528Y-164613266D01*
X186606110Y-169964616D02*
X186613735Y-169902799D01*
X186613735Y-45357200D02*
X186606110Y-45295383D01*
X186613735Y-50522799D02*
X186624383Y-50461430D01*
X186613735Y-105047200D02*
X186606110Y-104985383D01*
X186613735Y-110212799D02*
X186624383Y-110151430D01*
X186613735Y-164737200D02*
X186606110Y-164675383D01*
X186613735Y-169902799D02*
X186624383Y-169841430D01*
X186624383Y-45418569D02*
X186613735Y-45357200D01*
X186624383Y-50461430D02*
X186638030Y-50400658D01*
X186624383Y-105108569D02*
X186613735Y-105047200D01*
X186624383Y-110151430D02*
X186638030Y-110090658D01*
X186624383Y-164798569D02*
X186613735Y-164737200D01*
X186624383Y-169841430D02*
X186638030Y-169780658D01*
X186638030Y-45479341D02*
X186624383Y-45418569D01*
X186638030Y-50400658D02*
X186654643Y-50340628D01*
X186638030Y-105169341D02*
X186624383Y-105108569D01*
X186638030Y-110090658D02*
X186654643Y-110030628D01*
X186638030Y-164859341D02*
X186624383Y-164798569D01*
X186638030Y-169780658D02*
X186654643Y-169720628D01*
X186654643Y-45539371D02*
X186638030Y-45479341D01*
X186654643Y-50340628D02*
X186674180Y-50281486D01*
X186654643Y-105229371D02*
X186638030Y-105169341D01*
X186654643Y-110030628D02*
X186674180Y-109971486D01*
X186654643Y-164919371D02*
X186638030Y-164859341D01*
X186654643Y-169720628D02*
X186674180Y-169661486D01*
X186674180Y-45598513D02*
X186654643Y-45539371D01*
X186674180Y-50281486D02*
X186696597Y-50223374D01*
X186674180Y-105288513D02*
X186654643Y-105229371D01*
X186674180Y-109971486D02*
X186696597Y-109913374D01*
X186674180Y-164978513D02*
X186654643Y-164919371D01*
X186674180Y-169661486D02*
X186696597Y-169603374D01*
X186696597Y-45656625D02*
X186674180Y-45598513D01*
X186696597Y-50223374D02*
X186721837Y-50166432D01*
X186696597Y-105346625D02*
X186674180Y-105288513D01*
X186696597Y-109913374D02*
X186721837Y-109856432D01*
X186696597Y-165036625D02*
X186674180Y-164978513D01*
X186696597Y-169603374D02*
X186721837Y-169546432D01*
X186721837Y-45713567D02*
X186696597Y-45656625D01*
X186721837Y-50166432D02*
X186749842Y-50110797D01*
X186721837Y-105403567D02*
X186696597Y-105346625D01*
X186721837Y-109856432D02*
X186749842Y-109800797D01*
X186721837Y-165093567D02*
X186696597Y-165036625D01*
X186721837Y-169546432D02*
X186749842Y-169490797D01*
X186749842Y-45769202D02*
X186721837Y-45713567D01*
X186749842Y-50110797D02*
X186780542Y-50056603D01*
X186749842Y-105459202D02*
X186721837Y-105403567D01*
X186749842Y-109800797D02*
X186780542Y-109746603D01*
X186749842Y-165149202D02*
X186721837Y-165093567D01*
X186749842Y-169490797D02*
X186780542Y-169436603D01*
X186780542Y-45823396D02*
X186749842Y-45769202D01*
X186780542Y-50056603D02*
X186813865Y-50003981D01*
X186780542Y-105513396D02*
X186749842Y-105459202D01*
X186780542Y-109746603D02*
X186813865Y-109693981D01*
X186780542Y-165203396D02*
X186749842Y-165149202D01*
X186780542Y-169436603D02*
X186813865Y-169383981D01*
X186813865Y-45876018D02*
X186780542Y-45823396D01*
X186813865Y-50003981D02*
X186849729Y-49953057D01*
X186813865Y-105566018D02*
X186780542Y-105513396D01*
X186813865Y-109693981D02*
X186849729Y-109643057D01*
X186813865Y-165256018D02*
X186780542Y-165203396D01*
X186813865Y-169383981D02*
X186849729Y-169333057D01*
X186849729Y-45926942D02*
X186813865Y-45876018D01*
X186849729Y-49953057D02*
X186888049Y-49903955D01*
X186849729Y-105616942D02*
X186813865Y-105566018D01*
X186849729Y-109643057D02*
X186888049Y-109593955D01*
X186849729Y-165306942D02*
X186813865Y-165256018D01*
X186849729Y-169333057D02*
X186888049Y-169283955D01*
X186888049Y-45976044D02*
X186849729Y-45926942D01*
X186888049Y-49903955D02*
X186928733Y-49856791D01*
X186888049Y-105666044D02*
X186849729Y-105616942D01*
X186888049Y-109593955D02*
X186928733Y-109546791D01*
X186888049Y-165356044D02*
X186849729Y-165306942D01*
X186888049Y-169283955D02*
X186928733Y-169236791D01*
X186928733Y-46023208D02*
X186888049Y-45976044D01*
X186928733Y-49856791D02*
X186971681Y-49811681D01*
X186928733Y-105713208D02*
X186888049Y-105666044D01*
X186928733Y-109546791D02*
X186971681Y-109501681D01*
X186928733Y-165403208D02*
X186888049Y-165356044D01*
X186928733Y-169236791D02*
X186971681Y-169191681D01*
X186971681Y-46068318D02*
X186928733Y-46023208D01*
X186971681Y-49811681D02*
X187016791Y-49768733D01*
X186971681Y-105758318D02*
X186928733Y-105713208D01*
X186971681Y-109501681D02*
X187016791Y-109458733D01*
X186971681Y-165448318D02*
X186928733Y-165403208D01*
X186971681Y-169191681D02*
X187016791Y-169148733D01*
X187016791Y-46111266D02*
X186971681Y-46068318D01*
X187016791Y-49768733D02*
X187063955Y-49728049D01*
X187016791Y-105801266D02*
X186971681Y-105758318D01*
X187016791Y-109458733D02*
X187063955Y-109418049D01*
X187016791Y-165491266D02*
X186971681Y-165448318D01*
X187016791Y-169148733D02*
X187063955Y-169108049D01*
X187063955Y-46151950D02*
X187016791Y-46111266D01*
X187063955Y-49728049D02*
X187113057Y-49689729D01*
X187063955Y-105841950D02*
X187016791Y-105801266D01*
X187063955Y-109418049D02*
X187113057Y-109379729D01*
X187063955Y-165531950D02*
X187016791Y-165491266D01*
X187063955Y-169108049D02*
X187113057Y-169069729D01*
X187113057Y-46190270D02*
X187063955Y-46151950D01*
X187113057Y-49689729D02*
X187163981Y-49653865D01*
X187113057Y-105880270D02*
X187063955Y-105841950D01*
X187113057Y-109379729D02*
X187163981Y-109343865D01*
X187113057Y-165570270D02*
X187063955Y-165531950D01*
X187113057Y-169069729D02*
X187163981Y-169033865D01*
X187163981Y-46226134D02*
X187113057Y-46190270D01*
X187163981Y-49653865D02*
X187216603Y-49620542D01*
X187163981Y-105916134D02*
X187113057Y-105880270D01*
X187163981Y-109343865D02*
X187216603Y-109310542D01*
X187163981Y-165606134D02*
X187113057Y-165570270D01*
X187163981Y-169033865D02*
X187216603Y-169000542D01*
X187216603Y-46259457D02*
X187163981Y-46226134D01*
X187216603Y-49620542D02*
X187270797Y-49589842D01*
X187216603Y-105949457D02*
X187163981Y-105916134D01*
X187216603Y-109310542D02*
X187270797Y-109279842D01*
X187216603Y-165639457D02*
X187163981Y-165606134D01*
X187216603Y-169000542D02*
X187270797Y-168969842D01*
X187270797Y-46290157D02*
X187216603Y-46259457D01*
X187270797Y-49589842D02*
X187326432Y-49561837D01*
X187270797Y-105980157D02*
X187216603Y-105949457D01*
X187270797Y-109279842D02*
X187326432Y-109251837D01*
X187270797Y-165670157D02*
X187216603Y-165639457D01*
X187270797Y-168969842D02*
X187326432Y-168941837D01*
X187326432Y-46318162D02*
X187270797Y-46290157D01*
X187326432Y-49561837D02*
X187383374Y-49536597D01*
X187326432Y-106008162D02*
X187270797Y-105980157D01*
X187326432Y-109251837D02*
X187383374Y-109226597D01*
X187326432Y-165698162D02*
X187270797Y-165670157D01*
X187326432Y-168941837D02*
X187383374Y-168916597D01*
X187383374Y-46343402D02*
X187326432Y-46318162D01*
X187383374Y-49536597D02*
X187441486Y-49514180D01*
X187383374Y-106033402D02*
X187326432Y-106008162D01*
X187383374Y-109226597D02*
X187441486Y-109204180D01*
X187383374Y-165723402D02*
X187326432Y-165698162D01*
X187383374Y-168916597D02*
X187441486Y-168894180D01*
X187441486Y-46365819D02*
X187383374Y-46343402D01*
X187441486Y-49514180D02*
X187500628Y-49494643D01*
X187441486Y-106055819D02*
X187383374Y-106033402D01*
X187441486Y-109204180D02*
X187500628Y-109184643D01*
X187441486Y-165745819D02*
X187383374Y-165723402D01*
X187441486Y-168894180D02*
X187500628Y-168874643D01*
X187500628Y-46385356D02*
X187441486Y-46365819D01*
X187500628Y-49494643D02*
X187560658Y-49478030D01*
X187500628Y-106075356D02*
X187441486Y-106055819D01*
X187500628Y-109184643D02*
X187560658Y-109168030D01*
X187500628Y-165765356D02*
X187441486Y-165745819D01*
X187500628Y-168874643D02*
X187560658Y-168858030D01*
X187560658Y-46401969D02*
X187500628Y-46385356D01*
X187560658Y-49478030D02*
X187621430Y-49464383D01*
X187560658Y-106091969D02*
X187500628Y-106075356D01*
X187560658Y-109168030D02*
X187621430Y-109154383D01*
X187560658Y-165781969D02*
X187500628Y-165765356D01*
X187560658Y-168858030D02*
X187621430Y-168844383D01*
X187621430Y-46415616D02*
X187560658Y-46401969D01*
X187621430Y-49464383D02*
X187682799Y-49453735D01*
X187621430Y-106105616D02*
X187560658Y-106091969D01*
X187621430Y-109154383D02*
X187682799Y-109143735D01*
X187621430Y-165795616D02*
X187560658Y-165781969D01*
X187621430Y-168844383D02*
X187682799Y-168833735D01*
X187682799Y-46426264D02*
X187621430Y-46415616D01*
X187682799Y-49453735D02*
X187744616Y-49446110D01*
X187682799Y-106116264D02*
X187621430Y-106105616D01*
X187682799Y-109143735D02*
X187744616Y-109136110D01*
X187682799Y-165806264D02*
X187621430Y-165795616D01*
X187682799Y-168833735D02*
X187744616Y-168826110D01*
X187744616Y-46433889D02*
X187682799Y-46426264D01*
X187744616Y-49446110D02*
X187806733Y-49441528D01*
X187744616Y-106123889D02*
X187682799Y-106116264D01*
X187744616Y-109136110D02*
X187806733Y-109131528D01*
X187744616Y-165813889D02*
X187682799Y-165806264D01*
X187744616Y-168826110D02*
X187806733Y-168821528D01*
X187806733Y-46438471D02*
X187744616Y-46433889D01*
X187806733Y-49441528D02*
X187869012Y-49440000D01*
X187806733Y-106128471D02*
X187744616Y-106123889D01*
X187806733Y-109131528D02*
X187869012Y-109130000D01*
X187806733Y-165818471D02*
X187744616Y-165813889D01*
X187806733Y-168821528D02*
X187870987Y-168820000D01*
X187869012Y-49440000D02*
X187933266Y-49441528D01*
X187869012Y-109130000D02*
X187933266Y-109131528D01*
X187870987Y-46440000D02*
X187806733Y-46438471D01*
X187870987Y-106130000D02*
X187806733Y-106128471D01*
X187870987Y-165820000D02*
X187806733Y-165818471D01*
X187870987Y-168820000D02*
X187933266Y-168821528D01*
X187933266Y-46438471D02*
X187870987Y-46440000D01*
X187933266Y-49441528D02*
X187995383Y-49446110D01*
X187933266Y-106128471D02*
X187870987Y-106130000D01*
X187933266Y-109131528D02*
X187995383Y-109136110D01*
X187933266Y-165818471D02*
X187870987Y-165820000D01*
X187933266Y-168821528D02*
X187995383Y-168826110D01*
X187995383Y-46433889D02*
X187933266Y-46438471D01*
X187995383Y-49446110D02*
X188057200Y-49453735D01*
X187995383Y-106123889D02*
X187933266Y-106128471D01*
X187995383Y-109136110D02*
X188057200Y-109143735D01*
X187995383Y-165813889D02*
X187933266Y-165818471D01*
X187995383Y-168826110D02*
X188057200Y-168833735D01*
X188057200Y-46426264D02*
X187995383Y-46433889D01*
X188057200Y-49453735D02*
X188118569Y-49464383D01*
X188057200Y-106116264D02*
X187995383Y-106123889D01*
X188057200Y-109143735D02*
X188118569Y-109154383D01*
X188057200Y-165806264D02*
X187995383Y-165813889D01*
X188057200Y-168833735D02*
X188118569Y-168844383D01*
X188118569Y-46415616D02*
X188057200Y-46426264D01*
X188118569Y-49464383D02*
X188179341Y-49478030D01*
X188118569Y-106105616D02*
X188057200Y-106116264D01*
X188118569Y-109154383D02*
X188179341Y-109168030D01*
X188118569Y-165795616D02*
X188057200Y-165806264D01*
X188118569Y-168844383D02*
X188179341Y-168858030D01*
X188179341Y-46401969D02*
X188118569Y-46415616D01*
X188179341Y-49478030D02*
X188239371Y-49494643D01*
X188179341Y-106091969D02*
X188118569Y-106105616D01*
X188179341Y-109168030D02*
X188239371Y-109184643D01*
X188179341Y-165781969D02*
X188118569Y-165795616D01*
X188179341Y-168858030D02*
X188239371Y-168874643D01*
X188239371Y-46385356D02*
X188179341Y-46401969D01*
X188239371Y-49494643D02*
X188298513Y-49514180D01*
X188239371Y-106075356D02*
X188179341Y-106091969D01*
X188239371Y-109184643D02*
X188298513Y-109204180D01*
X188239371Y-165765356D02*
X188179341Y-165781969D01*
X188239371Y-168874643D02*
X188298513Y-168894180D01*
X188298513Y-46365819D02*
X188239371Y-46385356D01*
X188298513Y-49514180D02*
X188356625Y-49536597D01*
X188298513Y-106055819D02*
X188239371Y-106075356D01*
X188298513Y-109204180D02*
X188356625Y-109226597D01*
X188298513Y-165745819D02*
X188239371Y-165765356D01*
X188298513Y-168894180D02*
X188356625Y-168916597D01*
X188356625Y-46343402D02*
X188298513Y-46365819D01*
X188356625Y-49536597D02*
X188413567Y-49561837D01*
X188356625Y-106033402D02*
X188298513Y-106055819D01*
X188356625Y-109226597D02*
X188413567Y-109251837D01*
X188356625Y-165723402D02*
X188298513Y-165745819D01*
X188356625Y-168916597D02*
X188413567Y-168941837D01*
X188413567Y-46318162D02*
X188356625Y-46343402D01*
X188413567Y-49561837D02*
X188469202Y-49589842D01*
X188413567Y-106008162D02*
X188356625Y-106033402D01*
X188413567Y-109251837D02*
X188469202Y-109279842D01*
X188413567Y-165698162D02*
X188356625Y-165723402D01*
X188413567Y-168941837D02*
X188469202Y-168969842D01*
X188469202Y-46290157D02*
X188413567Y-46318162D01*
X188469202Y-49589842D02*
X188523396Y-49620542D01*
X188469202Y-105980157D02*
X188413567Y-106008162D01*
X188469202Y-109279842D02*
X188523396Y-109310542D01*
X188469202Y-165670157D02*
X188413567Y-165698162D01*
X188469202Y-168969842D02*
X188523396Y-169000542D01*
X188523396Y-46259457D02*
X188469202Y-46290157D01*
X188523396Y-49620542D02*
X188576018Y-49653865D01*
X188523396Y-105949457D02*
X188469202Y-105980157D01*
X188523396Y-109310542D02*
X188576018Y-109343865D01*
X188523396Y-165639457D02*
X188469202Y-165670157D01*
X188523396Y-169000542D02*
X188576018Y-169033865D01*
X188576018Y-46226134D02*
X188523396Y-46259457D01*
X188576018Y-49653865D02*
X188626942Y-49689729D01*
X188576018Y-105916134D02*
X188523396Y-105949457D01*
X188576018Y-109343865D02*
X188626942Y-109379729D01*
X188576018Y-165606134D02*
X188523396Y-165639457D01*
X188576018Y-169033865D02*
X188626942Y-169069729D01*
X188626942Y-46190270D02*
X188576018Y-46226134D01*
X188626942Y-49689729D02*
X188676044Y-49728049D01*
X188626942Y-105880270D02*
X188576018Y-105916134D01*
X188626942Y-109379729D02*
X188676044Y-109418049D01*
X188626942Y-165570270D02*
X188576018Y-165606134D01*
X188626942Y-169069729D02*
X188676044Y-169108049D01*
X188676044Y-46151950D02*
X188626942Y-46190270D01*
X188676044Y-49728049D02*
X188723208Y-49768733D01*
X188676044Y-105841950D02*
X188626942Y-105880270D01*
X188676044Y-109418049D02*
X188723208Y-109458733D01*
X188676044Y-165531950D02*
X188626942Y-165570270D01*
X188676044Y-169108049D02*
X188723208Y-169148733D01*
X188723208Y-46111266D02*
X188676044Y-46151950D01*
X188723208Y-49768733D02*
X188768318Y-49811681D01*
X188723208Y-105801266D02*
X188676044Y-105841950D01*
X188723208Y-109458733D02*
X188768318Y-109501681D01*
X188723208Y-165491266D02*
X188676044Y-165531950D01*
X188723208Y-169148733D02*
X188768318Y-169191681D01*
X188768318Y-46068318D02*
X188723208Y-46111266D01*
X188768318Y-49811681D02*
X188811266Y-49856791D01*
X188768318Y-105758318D02*
X188723208Y-105801266D01*
X188768318Y-109501681D02*
X188811266Y-109546791D01*
X188768318Y-165448318D02*
X188723208Y-165491266D01*
X188768318Y-169191681D02*
X188811266Y-169236791D01*
X188811266Y-46023208D02*
X188768318Y-46068318D01*
X188811266Y-49856791D02*
X188851950Y-49903955D01*
X188811266Y-105713208D02*
X188768318Y-105758318D01*
X188811266Y-109546791D02*
X188851950Y-109593955D01*
X188811266Y-165403208D02*
X188768318Y-165448318D01*
X188811266Y-169236791D02*
X188851950Y-169283955D01*
X188851950Y-45976044D02*
X188811266Y-46023208D01*
X188851950Y-49903955D02*
X188890270Y-49953057D01*
X188851950Y-105666044D02*
X188811266Y-105713208D01*
X188851950Y-109593955D02*
X188890270Y-109643057D01*
X188851950Y-165356044D02*
X188811266Y-165403208D01*
X188851950Y-169283955D02*
X188890270Y-169333057D01*
X188890270Y-45926942D02*
X188851950Y-45976044D01*
X188890270Y-49953057D02*
X188926134Y-50003981D01*
X188890270Y-105616942D02*
X188851950Y-105666044D01*
X188890270Y-109643057D02*
X188926134Y-109693981D01*
X188890270Y-165306942D02*
X188851950Y-165356044D01*
X188890270Y-169333057D02*
X188926134Y-169383981D01*
X188926134Y-45876018D02*
X188890270Y-45926942D01*
X188926134Y-50003981D02*
X188959457Y-50056603D01*
X188926134Y-105566018D02*
X188890270Y-105616942D01*
X188926134Y-109693981D02*
X188959457Y-109746603D01*
X188926134Y-165256018D02*
X188890270Y-165306942D01*
X188926134Y-169383981D02*
X188959457Y-169436603D01*
X188959457Y-45823396D02*
X188926134Y-45876018D01*
X188959457Y-50056603D02*
X188990157Y-50110797D01*
X188959457Y-105513396D02*
X188926134Y-105566018D01*
X188959457Y-109746603D02*
X188990157Y-109800797D01*
X188959457Y-165203396D02*
X188926134Y-165256018D01*
X188959457Y-169436603D02*
X188990157Y-169490797D01*
X188990157Y-45769202D02*
X188959457Y-45823396D01*
X188990157Y-50110797D02*
X189018162Y-50166432D01*
X188990157Y-105459202D02*
X188959457Y-105513396D01*
X188990157Y-109800797D02*
X189018162Y-109856432D01*
X188990157Y-165149202D02*
X188959457Y-165203396D01*
X188990157Y-169490797D02*
X189018162Y-169546432D01*
X189018162Y-45713567D02*
X188990157Y-45769202D01*
X189018162Y-50166432D02*
X189043402Y-50223374D01*
X189018162Y-105403567D02*
X188990157Y-105459202D01*
X189018162Y-109856432D02*
X189043402Y-109913374D01*
X189018162Y-165093567D02*
X188990157Y-165149202D01*
X189018162Y-169546432D02*
X189043402Y-169603374D01*
X189043402Y-45656625D02*
X189018162Y-45713567D01*
X189043402Y-50223374D02*
X189065819Y-50281486D01*
X189043402Y-105346625D02*
X189018162Y-105403567D01*
X189043402Y-109913374D02*
X189065819Y-109971486D01*
X189043402Y-165036625D02*
X189018162Y-165093567D01*
X189043402Y-169603374D02*
X189065819Y-169661486D01*
X189065819Y-45598513D02*
X189043402Y-45656625D01*
X189065819Y-50281486D02*
X189085356Y-50340628D01*
X189065819Y-105288513D02*
X189043402Y-105346625D01*
X189065819Y-109971486D02*
X189085356Y-110030628D01*
X189065819Y-164978513D02*
X189043402Y-165036625D01*
X189065819Y-169661486D02*
X189085356Y-169720628D01*
X189085356Y-45539371D02*
X189065819Y-45598513D01*
X189085356Y-50340628D02*
X189101969Y-50400658D01*
X189085356Y-105229371D02*
X189065819Y-105288513D01*
X189085356Y-110030628D02*
X189101969Y-110090658D01*
X189085356Y-164919371D02*
X189065819Y-164978513D01*
X189085356Y-169720628D02*
X189101969Y-169780658D01*
X189101969Y-45479341D02*
X189085356Y-45539371D01*
X189101969Y-50400658D02*
X189115616Y-50461430D01*
X189101969Y-105169341D02*
X189085356Y-105229371D01*
X189101969Y-110090658D02*
X189115616Y-110151430D01*
X189101969Y-164859341D02*
X189085356Y-164919371D01*
X189101969Y-169780658D02*
X189115616Y-169841430D01*
X189115616Y-45418569D02*
X189101969Y-45479341D01*
X189115616Y-50461430D02*
X189126264Y-50522799D01*
X189115616Y-105108569D02*
X189101969Y-105169341D01*
X189115616Y-110151430D02*
X189126264Y-110212799D01*
X189115616Y-164798569D02*
X189101969Y-164859341D01*
X189115616Y-169841430D02*
X189126264Y-169902799D01*
X189126264Y-45357200D02*
X189115616Y-45418569D01*
X189126264Y-50522799D02*
X189133889Y-50584616D01*
X189126264Y-105047200D02*
X189115616Y-105108569D01*
X189126264Y-110212799D02*
X189133889Y-110274616D01*
X189126264Y-164737200D02*
X189115616Y-164798569D01*
X189126264Y-169902799D02*
X189133889Y-169964616D01*
X189133889Y-45295383D02*
X189126264Y-45357200D01*
X189133889Y-50584616D02*
X189138471Y-50646733D01*
X189133889Y-104985383D02*
X189126264Y-105047200D01*
X189133889Y-110274616D02*
X189138471Y-110336733D01*
X189133889Y-164675383D02*
X189126264Y-164737200D01*
X189133889Y-169964616D02*
X189138471Y-170026733D01*
X189138471Y-45233266D02*
X189133889Y-45295383D01*
X189138471Y-50646733D02*
X189140000Y-50709012D01*
X189138471Y-104923266D02*
X189133889Y-104985383D01*
X189138471Y-110336733D02*
X189140000Y-110399012D01*
X189138471Y-164613266D02*
X189133889Y-164675383D01*
X189138471Y-170026733D02*
X189140000Y-170089012D01*
X189140000Y-45170987D02*
X189138471Y-45233266D01*
X189140000Y-50709012D02*
X189140000Y-104860987D01*
X189140000Y-104860987D02*
X189138471Y-104923266D01*
X189140000Y-110399012D02*
X189140000Y-164550987D01*
X189140000Y-164550987D02*
X189138471Y-164613266D01*
X189140000Y-170089012D02*
X189140373Y-196528869D01*
X189140373Y-20001130D02*
X189140000Y-45170987D01*
X189140373Y-196528869D02*
X189155586Y-196530000D01*
X189155586Y-20000000D02*
X189140373Y-20001130D01*
X189155586Y-196530000D02*
X194219100Y-196529543D01*
X194219100Y-196529543D02*
X194219543Y-20000899D01*
X194219543Y-20000899D02*
X189155586Y-20000000D01*
M02*
