M48
INCH,TZ
T1C0.0197
T2C0.0354
%
G90
G05
T1
X43465Y-9003
X43465Y-9397
X43465Y-9791
X43465Y-10185
X43465Y-28103
X43465Y-28497
X43465Y-28891
X43465Y-29285
X43465Y-32503
X43465Y-32897
X43465Y-33291
X43465Y-33685
X43465Y-51603
X43465Y-51997
X43465Y-52391
X43465Y-52785
X43465Y-56003
X43465Y-56397
X43465Y-56791
X43465Y-57185
X43465Y-75103
X43465Y-75497
X43465Y-75891
X43465Y-76285
X62814Y-30374
X62814Y-31374
X62814Y-53874
X62814Y-54874
X63208Y-30374
X63208Y-31374
X63208Y-53874
X63208Y-54874
X63601Y-30374
X63601Y-31374
X63601Y-53874
X63601Y-54874
X63995Y-30374
X63995Y-31374
X63995Y-53874
X63995Y-54874
X73465Y-18283
X73465Y-18677
X73465Y-19071
X73465Y-19465
X73465Y-41783
X73465Y-42177
X73465Y-42571
X73465Y-42965
X73465Y-65283
X73465Y-65677
X73465Y-66071
X73465Y-66465
T2
X45897Y-17956
X45897Y-19688
X45897Y-41456
X45897Y-43188
X45897Y-64956
X45897Y-66688
M30
