G04 #@! TF.GenerationSoftware,KiCad,Pcbnew,6.0.2+dfsg-1*
G04 #@! TF.CreationDate,2023-03-16T12:58:22-06:00*
G04 #@! TF.ProjectId,ckt-soundplay,636b742d-736f-4756-9e64-706c61792e6b,rev?*
G04 #@! TF.SameCoordinates,Original*
G04 #@! TF.FileFunction,Copper,L2,Bot*
G04 #@! TF.FilePolarity,Positive*
%FSLAX46Y46*%
G04 Gerber Fmt 4.6, Leading zero omitted, Abs format (unit mm)*
G04 Created by KiCad (PCBNEW 6.0.2+dfsg-1) date 2023-03-16 12:58:22*
%MOMM*%
%LPD*%
G01*
G04 APERTURE LIST*
G04 #@! TA.AperFunction,ComponentPad*
%ADD10R,2.500000X2.500000*%
G04 #@! TD*
G04 #@! TA.AperFunction,ComponentPad*
%ADD11C,2.500000*%
G04 #@! TD*
G04 #@! TA.AperFunction,ComponentPad*
%ADD12R,2.300000X2.300000*%
G04 #@! TD*
G04 #@! TA.AperFunction,ComponentPad*
%ADD13C,2.300000*%
G04 #@! TD*
G04 #@! TA.AperFunction,ComponentPad*
%ADD14C,6.400000*%
G04 #@! TD*
G04 #@! TA.AperFunction,ComponentPad*
%ADD15R,1.700000X1.700000*%
G04 #@! TD*
G04 #@! TA.AperFunction,ComponentPad*
%ADD16O,1.700000X1.700000*%
G04 #@! TD*
G04 #@! TA.AperFunction,ViaPad*
%ADD17C,0.609600*%
G04 #@! TD*
G04 #@! TA.AperFunction,Conductor*
%ADD18C,0.635000*%
G04 #@! TD*
G04 #@! TA.AperFunction,Conductor*
%ADD19C,0.508000*%
G04 #@! TD*
G04 #@! TA.AperFunction,Conductor*
%ADD20C,0.254000*%
G04 #@! TD*
G04 #@! TA.AperFunction,Conductor*
%ADD21C,0.177800*%
G04 #@! TD*
G04 APERTURE END LIST*
D10*
X32720000Y-175046000D03*
D11*
X32720000Y-180046000D03*
D12*
X51999000Y-183827000D03*
D13*
X55499000Y-183827000D03*
X58999000Y-183827000D03*
D14*
X97282000Y-187452000D03*
X97282000Y-138938000D03*
D12*
X63683000Y-183827000D03*
D13*
X67183000Y-183827000D03*
X70683000Y-183827000D03*
D12*
X95308000Y-152217000D03*
D13*
X95308000Y-148717000D03*
X95308000Y-145217000D03*
D14*
X29718000Y-187452000D03*
X29718000Y-138938000D03*
D12*
X75367000Y-183827000D03*
D13*
X78867000Y-183827000D03*
X82367000Y-183827000D03*
D15*
X39116000Y-154813000D03*
D16*
X41656000Y-154813000D03*
X44196000Y-154813000D03*
X46736000Y-154813000D03*
X49276000Y-154813000D03*
D17*
X80645000Y-179832000D03*
X39497000Y-144780000D03*
X66040000Y-171069000D03*
X51054000Y-172847000D03*
X70231000Y-179832000D03*
X62230000Y-147574000D03*
X78105000Y-158242000D03*
X33401000Y-148844000D03*
X58166000Y-148717000D03*
X72009000Y-179832000D03*
X52832000Y-172847000D03*
X50038000Y-140843000D03*
X80772000Y-158369000D03*
X51435000Y-163576000D03*
X85559000Y-153924000D03*
X90043000Y-153162000D03*
X67056000Y-171069000D03*
X89027000Y-167640000D03*
X58166000Y-150114000D03*
X47371000Y-140843000D03*
X63500000Y-148717000D03*
X46482000Y-140843000D03*
X63373000Y-171069000D03*
X51943000Y-172847000D03*
X59436000Y-147574000D03*
X39751000Y-163576000D03*
X89027000Y-168402000D03*
X52197000Y-163576000D03*
X65151000Y-170815000D03*
X52324000Y-171831000D03*
X62230000Y-152781000D03*
X39497000Y-143891000D03*
X80772000Y-159893000D03*
X79756000Y-179832000D03*
X38608000Y-143002000D03*
X39497000Y-141224000D03*
X40386000Y-147955000D03*
X80772000Y-162560000D03*
X60833000Y-147574000D03*
X60833000Y-152781000D03*
X80772000Y-163322000D03*
X39497000Y-142113000D03*
X78613000Y-153289000D03*
X80772000Y-159131000D03*
X59436000Y-152781000D03*
X81534000Y-179832000D03*
X89281000Y-187071000D03*
X40767000Y-138684000D03*
X80772000Y-164084000D03*
X65151000Y-172593000D03*
X40767000Y-137795000D03*
X65151000Y-171704000D03*
X48260000Y-140843000D03*
X73533000Y-142494000D03*
X39497000Y-143002000D03*
X39624000Y-147955000D03*
X35201000Y-168778000D03*
X85559000Y-153156000D03*
X64262000Y-171069000D03*
X34163000Y-148844000D03*
X89281000Y-153416000D03*
X38989000Y-163576000D03*
X63500000Y-151511000D03*
X52324000Y-170815000D03*
X58166000Y-151511000D03*
X49149000Y-140843000D03*
X63500000Y-150114000D03*
X72771000Y-142494000D03*
X71120000Y-179832000D03*
X40386000Y-143002000D03*
X35201000Y-156078000D03*
X62103000Y-176149000D03*
X61087000Y-174371000D03*
X35814000Y-138811000D03*
X44958000Y-139573000D03*
X62103000Y-177927000D03*
X62103000Y-177038000D03*
X61087000Y-175260000D03*
X36703000Y-138811000D03*
X61087000Y-177927000D03*
X61087000Y-177038000D03*
X62103000Y-175260000D03*
X35814000Y-139573000D03*
X83359000Y-153578000D03*
X36703000Y-139573000D03*
X61087000Y-176149000D03*
X44958000Y-138811000D03*
X62103000Y-174371000D03*
X74041000Y-178435000D03*
X43307000Y-146812000D03*
X41910000Y-146812000D03*
X76835000Y-178435000D03*
X90424000Y-155448000D03*
X68453000Y-172720000D03*
X90424000Y-154432000D03*
X69088000Y-172212000D03*
D18*
X40767000Y-137795000D02*
X40767000Y-141859000D01*
D19*
X83359000Y-153578000D02*
X83359000Y-150495000D01*
D20*
X75367000Y-179761000D02*
X75367000Y-183827000D01*
X74041000Y-178435000D02*
X75367000Y-179761000D01*
D21*
X41910000Y-146812000D02*
X43307000Y-146812000D01*
D20*
X76835000Y-178435000D02*
X82227000Y-183827000D01*
X82227000Y-183827000D02*
X82367000Y-183827000D01*
X68707000Y-172974000D02*
X68453000Y-172720000D01*
X89408000Y-172974000D02*
X68707000Y-172974000D01*
X90424000Y-155448000D02*
X90424000Y-171958000D01*
X90424000Y-171958000D02*
X89408000Y-172974000D01*
X69850000Y-172466000D02*
X69596000Y-172212000D01*
X69596000Y-172212000D02*
X69088000Y-172212000D01*
X90424000Y-154432000D02*
X89662000Y-155194000D01*
X89662000Y-155194000D02*
X89662000Y-155727160D01*
X89916000Y-171704000D02*
X89154000Y-172466000D01*
X89154000Y-172466000D02*
X69850000Y-172466000D01*
X89662000Y-155727160D02*
X89916000Y-155981160D01*
X89916000Y-155981160D02*
X89916000Y-171704000D01*
G04 #@! TA.AperFunction,Conductor*
G36*
X101288121Y-134894002D02*
G01*
X101334614Y-134947658D01*
X101346000Y-135000000D01*
X101346000Y-178563000D01*
X101325998Y-178631121D01*
X101272342Y-178677614D01*
X101220000Y-178689000D01*
X77680713Y-178689000D01*
X77612592Y-178668998D01*
X77591618Y-178652095D01*
X77433100Y-178493577D01*
X77399074Y-178431265D01*
X77397273Y-178420928D01*
X77380982Y-178297179D01*
X77380981Y-178297177D01*
X77379904Y-178288993D01*
X77323547Y-178152937D01*
X77233897Y-178036103D01*
X77117063Y-177946453D01*
X76981007Y-177890096D01*
X76972823Y-177889019D01*
X76972821Y-177889018D01*
X76843188Y-177871952D01*
X76835000Y-177870874D01*
X76826812Y-177871952D01*
X76697179Y-177889018D01*
X76697177Y-177889019D01*
X76688993Y-177890096D01*
X76552937Y-177946453D01*
X76436103Y-178036103D01*
X76346453Y-178152937D01*
X76290096Y-178288993D01*
X76270874Y-178435000D01*
X76271952Y-178443188D01*
X76285560Y-178546554D01*
X76274620Y-178616703D01*
X76227492Y-178669801D01*
X76160638Y-178689000D01*
X74886713Y-178689000D01*
X74818592Y-178668998D01*
X74797618Y-178652095D01*
X74639100Y-178493577D01*
X74605074Y-178431265D01*
X74603273Y-178420928D01*
X74586982Y-178297179D01*
X74586981Y-178297177D01*
X74585904Y-178288993D01*
X74529547Y-178152937D01*
X74439897Y-178036103D01*
X74323063Y-177946453D01*
X74187007Y-177890096D01*
X74178823Y-177889019D01*
X74178821Y-177889018D01*
X74049188Y-177871952D01*
X74041000Y-177870874D01*
X74032812Y-177871952D01*
X73903179Y-177889018D01*
X73903177Y-177889019D01*
X73894993Y-177890096D01*
X73758937Y-177946453D01*
X73642103Y-178036103D01*
X73552453Y-178152937D01*
X73496096Y-178288993D01*
X73476874Y-178435000D01*
X73477952Y-178443188D01*
X73491560Y-178546554D01*
X73480620Y-178616703D01*
X73433492Y-178669801D01*
X73366638Y-178689000D01*
X60451000Y-178689000D01*
X60382879Y-178668998D01*
X60336386Y-178615342D01*
X60325000Y-178563000D01*
X60325000Y-173735000D01*
X60345002Y-173666879D01*
X60398658Y-173620386D01*
X60451000Y-173609000D01*
X91059000Y-173609000D01*
X91059000Y-151765000D01*
X83057000Y-151765000D01*
X82988879Y-151744998D01*
X82942386Y-151691342D01*
X82931000Y-151639000D01*
X82931000Y-151041933D01*
X93903500Y-151041933D01*
X93903501Y-153392066D01*
X93910612Y-153427818D01*
X93912650Y-153438063D01*
X93918266Y-153466301D01*
X93974516Y-153550484D01*
X94058699Y-153606734D01*
X94132933Y-153621500D01*
X95307810Y-153621500D01*
X96483066Y-153621499D01*
X96518818Y-153614388D01*
X96545126Y-153609156D01*
X96545128Y-153609155D01*
X96557301Y-153606734D01*
X96567621Y-153599839D01*
X96567622Y-153599838D01*
X96631168Y-153557377D01*
X96641484Y-153550484D01*
X96697734Y-153466301D01*
X96712500Y-153392067D01*
X96712499Y-151041934D01*
X96697734Y-150967699D01*
X96641484Y-150883516D01*
X96557301Y-150827266D01*
X96483067Y-150812500D01*
X95308190Y-150812500D01*
X94132934Y-150812501D01*
X94097182Y-150819612D01*
X94070874Y-150824844D01*
X94070872Y-150824845D01*
X94058699Y-150827266D01*
X94048379Y-150834161D01*
X94048378Y-150834162D01*
X93987985Y-150874516D01*
X93974516Y-150883516D01*
X93918266Y-150967699D01*
X93903500Y-151041933D01*
X82931000Y-151041933D01*
X82931000Y-148682567D01*
X93899107Y-148682567D01*
X93899404Y-148687720D01*
X93899404Y-148687723D01*
X93912103Y-148907971D01*
X93912401Y-148913139D01*
X93913538Y-148918185D01*
X93913539Y-148918191D01*
X93931765Y-148999063D01*
X93963176Y-149138442D01*
X94050066Y-149352428D01*
X94170740Y-149549349D01*
X94321955Y-149723916D01*
X94499651Y-149871442D01*
X94504103Y-149874044D01*
X94504108Y-149874047D01*
X94664878Y-149967993D01*
X94699056Y-149987965D01*
X94914814Y-150070355D01*
X94919880Y-150071386D01*
X94919881Y-150071386D01*
X94972674Y-150082127D01*
X95141132Y-150116400D01*
X95271323Y-150121174D01*
X95366767Y-150124674D01*
X95366771Y-150124674D01*
X95371931Y-150124863D01*
X95377051Y-150124207D01*
X95377053Y-150124207D01*
X95456730Y-150114000D01*
X95601013Y-150095517D01*
X95605961Y-150094032D01*
X95605968Y-150094031D01*
X95817276Y-150030635D01*
X95817275Y-150030635D01*
X95822226Y-150029150D01*
X96029629Y-149927544D01*
X96033834Y-149924544D01*
X96033840Y-149924541D01*
X96213449Y-149796427D01*
X96213451Y-149796425D01*
X96217653Y-149793428D01*
X96381247Y-149630404D01*
X96516018Y-149442850D01*
X96618347Y-149235803D01*
X96633397Y-149186267D01*
X96683982Y-149019775D01*
X96683983Y-149019769D01*
X96685486Y-149014823D01*
X96715631Y-148785845D01*
X96717314Y-148717000D01*
X96698390Y-148486822D01*
X96642126Y-148262826D01*
X96550033Y-148051028D01*
X96424585Y-147857114D01*
X96269150Y-147686293D01*
X96195068Y-147627786D01*
X96091956Y-147546353D01*
X96091951Y-147546350D01*
X96087902Y-147543152D01*
X96083386Y-147540659D01*
X96083383Y-147540657D01*
X95890234Y-147434033D01*
X95890230Y-147434031D01*
X95885710Y-147431536D01*
X95880841Y-147429812D01*
X95880837Y-147429810D01*
X95672878Y-147356168D01*
X95672874Y-147356167D01*
X95668003Y-147354442D01*
X95662913Y-147353535D01*
X95662908Y-147353534D01*
X95539550Y-147331561D01*
X95440628Y-147313941D01*
X95354124Y-147312884D01*
X95214861Y-147311182D01*
X95214859Y-147311182D01*
X95209691Y-147311119D01*
X94981394Y-147346053D01*
X94761869Y-147417805D01*
X94557010Y-147524448D01*
X94552877Y-147527551D01*
X94552874Y-147527553D01*
X94376454Y-147660013D01*
X94372319Y-147663118D01*
X94212757Y-147830090D01*
X94082609Y-148020881D01*
X94080435Y-148025565D01*
X94080433Y-148025568D01*
X94021340Y-148152874D01*
X93985369Y-148230366D01*
X93923649Y-148452921D01*
X93899107Y-148682567D01*
X82931000Y-148682567D01*
X82931000Y-145182567D01*
X93899107Y-145182567D01*
X93899404Y-145187720D01*
X93899404Y-145187723D01*
X93905253Y-145289167D01*
X93912401Y-145413139D01*
X93913538Y-145418185D01*
X93913539Y-145418191D01*
X93934161Y-145509694D01*
X93963176Y-145638442D01*
X94050066Y-145852428D01*
X94170740Y-146049349D01*
X94321955Y-146223916D01*
X94499651Y-146371442D01*
X94504103Y-146374044D01*
X94504108Y-146374047D01*
X94665917Y-146468600D01*
X94699056Y-146487965D01*
X94914814Y-146570355D01*
X94919880Y-146571386D01*
X94919881Y-146571386D01*
X94972674Y-146582127D01*
X95141132Y-146616400D01*
X95271323Y-146621174D01*
X95366767Y-146624674D01*
X95366771Y-146624674D01*
X95371931Y-146624863D01*
X95377051Y-146624207D01*
X95377053Y-146624207D01*
X95448088Y-146615107D01*
X95601013Y-146595517D01*
X95605961Y-146594032D01*
X95605968Y-146594031D01*
X95817276Y-146530635D01*
X95817275Y-146530635D01*
X95822226Y-146529150D01*
X96029629Y-146427544D01*
X96033834Y-146424544D01*
X96033840Y-146424541D01*
X96213449Y-146296427D01*
X96213451Y-146296425D01*
X96217653Y-146293428D01*
X96381247Y-146130404D01*
X96516018Y-145942850D01*
X96618347Y-145735803D01*
X96633397Y-145686267D01*
X96683982Y-145519775D01*
X96683983Y-145519769D01*
X96685486Y-145514823D01*
X96715631Y-145285845D01*
X96717314Y-145217000D01*
X96698390Y-144986822D01*
X96642126Y-144762826D01*
X96550033Y-144551028D01*
X96424585Y-144357114D01*
X96269150Y-144186293D01*
X96195068Y-144127786D01*
X96091956Y-144046353D01*
X96091951Y-144046350D01*
X96087902Y-144043152D01*
X96083386Y-144040659D01*
X96083383Y-144040657D01*
X95890234Y-143934033D01*
X95890230Y-143934031D01*
X95885710Y-143931536D01*
X95880841Y-143929812D01*
X95880837Y-143929810D01*
X95672878Y-143856168D01*
X95672874Y-143856167D01*
X95668003Y-143854442D01*
X95662913Y-143853535D01*
X95662908Y-143853534D01*
X95539550Y-143831561D01*
X95440628Y-143813941D01*
X95354124Y-143812884D01*
X95214861Y-143811182D01*
X95214859Y-143811182D01*
X95209691Y-143811119D01*
X94981394Y-143846053D01*
X94761869Y-143917805D01*
X94557010Y-144024448D01*
X94552877Y-144027551D01*
X94552874Y-144027553D01*
X94527835Y-144046353D01*
X94372319Y-144163118D01*
X94212757Y-144330090D01*
X94082609Y-144520881D01*
X93985369Y-144730366D01*
X93923649Y-144952921D01*
X93899107Y-145182567D01*
X82931000Y-145182567D01*
X82931000Y-139954000D01*
X41465000Y-139954000D01*
X41396879Y-139933998D01*
X41350386Y-139880342D01*
X41339000Y-139828000D01*
X41339000Y-138925924D01*
X93822447Y-138925924D01*
X93841378Y-139299624D01*
X93900557Y-139669094D01*
X93999293Y-140030011D01*
X94136430Y-140378154D01*
X94310365Y-140709450D01*
X94312262Y-140712274D01*
X94312265Y-140712278D01*
X94388080Y-140825103D01*
X94519061Y-141020024D01*
X94521256Y-141022630D01*
X94521260Y-141022636D01*
X94607512Y-141125063D01*
X94760079Y-141306241D01*
X95030598Y-141564755D01*
X95327455Y-141792541D01*
X95647176Y-141986935D01*
X95986021Y-142145661D01*
X95989239Y-142146763D01*
X95989242Y-142146764D01*
X96336803Y-142265761D01*
X96336811Y-142265763D01*
X96340026Y-142266864D01*
X96705051Y-142349126D01*
X96788562Y-142358641D01*
X97073442Y-142391100D01*
X97073450Y-142391100D01*
X97076825Y-142391485D01*
X97080229Y-142391503D01*
X97080232Y-142391503D01*
X97283556Y-142392567D01*
X97450999Y-142393444D01*
X97454385Y-142393094D01*
X97454387Y-142393094D01*
X97819805Y-142355332D01*
X97819814Y-142355331D01*
X97823197Y-142354981D01*
X97826530Y-142354267D01*
X97826533Y-142354266D01*
X98006820Y-142315616D01*
X98189063Y-142276546D01*
X98544318Y-142159056D01*
X98884807Y-142003887D01*
X99009459Y-141929874D01*
X99203601Y-141814601D01*
X99203606Y-141814598D01*
X99206546Y-141812852D01*
X99236354Y-141790472D01*
X99398804Y-141668500D01*
X99505771Y-141588187D01*
X99778983Y-141332521D01*
X100022985Y-141048842D01*
X100044737Y-141017192D01*
X100232992Y-140743280D01*
X100232997Y-140743273D01*
X100234922Y-140740471D01*
X100236534Y-140737477D01*
X100236539Y-140737469D01*
X100410694Y-140414027D01*
X100412316Y-140411015D01*
X100553091Y-140064327D01*
X100584519Y-139954000D01*
X100605501Y-139880342D01*
X100655601Y-139704463D01*
X100718647Y-139335634D01*
X100720850Y-139299624D01*
X100741380Y-138963948D01*
X100741490Y-138962152D01*
X100741574Y-138938000D01*
X100721339Y-138564368D01*
X100660870Y-138195107D01*
X100560875Y-137834537D01*
X100557627Y-137826373D01*
X100423783Y-137490039D01*
X100423779Y-137490031D01*
X100422523Y-137486874D01*
X100247434Y-137156188D01*
X100245534Y-137153382D01*
X100245530Y-137153375D01*
X100039561Y-136849162D01*
X100037654Y-136846345D01*
X99795639Y-136560970D01*
X99524219Y-136303402D01*
X99521512Y-136301340D01*
X99521504Y-136301333D01*
X99229281Y-136078720D01*
X99226569Y-136076654D01*
X98906172Y-135883377D01*
X98903082Y-135881943D01*
X98903077Y-135881940D01*
X98569871Y-135727272D01*
X98569869Y-135727271D01*
X98566775Y-135725835D01*
X98563540Y-135724740D01*
X98563535Y-135724738D01*
X98215583Y-135606963D01*
X98212348Y-135605868D01*
X97847038Y-135524881D01*
X97714294Y-135510226D01*
X97478500Y-135484193D01*
X97478495Y-135484193D01*
X97475119Y-135483820D01*
X97471720Y-135483814D01*
X97471719Y-135483814D01*
X97294987Y-135483506D01*
X97100940Y-135483167D01*
X96962079Y-135498007D01*
X96732263Y-135522567D01*
X96732257Y-135522568D01*
X96728879Y-135522929D01*
X96363289Y-135602641D01*
X96008446Y-135721369D01*
X95668501Y-135877727D01*
X95665567Y-135879483D01*
X95665565Y-135879484D01*
X95656110Y-135885143D01*
X95347431Y-136069883D01*
X95048991Y-136295591D01*
X95046509Y-136297930D01*
X95046503Y-136297935D01*
X95040702Y-136303402D01*
X94776674Y-136552210D01*
X94533664Y-136836738D01*
X94531736Y-136839565D01*
X94531734Y-136839567D01*
X94527111Y-136846345D01*
X94322804Y-137145847D01*
X94146561Y-137475921D01*
X94145288Y-137479089D01*
X94145287Y-137479090D01*
X94035007Y-137753422D01*
X94006997Y-137823098D01*
X93905744Y-138183317D01*
X93843986Y-138552365D01*
X93822447Y-138925924D01*
X41339000Y-138925924D01*
X41339000Y-137757508D01*
X41324277Y-137645678D01*
X41266641Y-137506532D01*
X41174955Y-137387045D01*
X41055468Y-137295359D01*
X40916322Y-137237723D01*
X40767000Y-137218064D01*
X40617678Y-137237723D01*
X40478532Y-137295359D01*
X40359045Y-137387045D01*
X40267359Y-137506532D01*
X40209723Y-137645678D01*
X40195000Y-137757508D01*
X40195000Y-139828000D01*
X40174998Y-139896121D01*
X40121342Y-139942614D01*
X40069000Y-139954000D01*
X35559000Y-139954000D01*
X35490879Y-139933998D01*
X35444386Y-139880342D01*
X35433000Y-139828000D01*
X35433000Y-135000000D01*
X35453002Y-134931879D01*
X35506658Y-134885386D01*
X35559000Y-134874000D01*
X101220000Y-134874000D01*
X101288121Y-134894002D01*
G37*
G04 #@! TD.AperFunction*
G04 #@! TA.AperFunction,Conductor*
G36*
X34994121Y-134817802D02*
G01*
X35040614Y-134871458D01*
X35052000Y-134923800D01*
X35052000Y-140335000D01*
X82297000Y-140335000D01*
X82365121Y-140355002D01*
X82411614Y-140408658D01*
X82423000Y-140461000D01*
X82423000Y-152273000D01*
X82800700Y-152273000D01*
X82868821Y-152293002D01*
X82915314Y-152346658D01*
X82926700Y-152399000D01*
X82926700Y-153333837D01*
X82914755Y-153387386D01*
X82892258Y-153435303D01*
X82890878Y-153444168D01*
X82890877Y-153444170D01*
X82876742Y-153534955D01*
X82870968Y-153572037D01*
X82872132Y-153580939D01*
X82872132Y-153580942D01*
X82887746Y-153700346D01*
X82887747Y-153700350D01*
X82888911Y-153709251D01*
X82944644Y-153835914D01*
X83033687Y-153941843D01*
X83041158Y-153946816D01*
X83041159Y-153946817D01*
X83048391Y-153951631D01*
X83148881Y-154018523D01*
X83242290Y-154047706D01*
X83272398Y-154057113D01*
X83272399Y-154057113D01*
X83280967Y-154059790D01*
X83346599Y-154060992D01*
X83410348Y-154062161D01*
X83410351Y-154062161D01*
X83419326Y-154062325D01*
X83427989Y-154059963D01*
X83427991Y-154059963D01*
X83544171Y-154028289D01*
X83552835Y-154025927D01*
X83670762Y-153953519D01*
X83763627Y-153850924D01*
X83823964Y-153726389D01*
X83846922Y-153589925D01*
X83847068Y-153578000D01*
X83844944Y-153563165D01*
X83828723Y-153449903D01*
X83828722Y-153449901D01*
X83827450Y-153441016D01*
X83802599Y-153386359D01*
X83791300Y-153334208D01*
X83791300Y-152399000D01*
X83811302Y-152330879D01*
X83864958Y-152284386D01*
X83917300Y-152273000D01*
X90425000Y-152273000D01*
X90493121Y-152293002D01*
X90539614Y-152346658D01*
X90551000Y-152399000D01*
X90551000Y-153822856D01*
X90530998Y-153890977D01*
X90477342Y-153937470D01*
X90424231Y-153948854D01*
X90357762Y-153948448D01*
X90349131Y-153950915D01*
X90349129Y-153950915D01*
X90233341Y-153984007D01*
X90233338Y-153984008D01*
X90224707Y-153986475D01*
X90107673Y-154060318D01*
X90016069Y-154164040D01*
X90012255Y-154172163D01*
X90012254Y-154172165D01*
X89985461Y-154229233D01*
X89957258Y-154289303D01*
X89955878Y-154298168D01*
X89955877Y-154298170D01*
X89937349Y-154417164D01*
X89937349Y-154417168D01*
X89935968Y-154426037D01*
X89937133Y-154434943D01*
X89937114Y-154436464D01*
X89916282Y-154504336D01*
X89900218Y-154524022D01*
X89483800Y-154940440D01*
X89481655Y-154942291D01*
X89476820Y-154944655D01*
X89468908Y-154953184D01*
X89468907Y-154953185D01*
X89442978Y-154981137D01*
X89439698Y-154984542D01*
X89426043Y-154998197D01*
X89423286Y-155002216D01*
X89420834Y-155005008D01*
X89407384Y-155019507D01*
X89407382Y-155019510D01*
X89399472Y-155028037D01*
X89395162Y-155038839D01*
X89392932Y-155042367D01*
X89386316Y-155054760D01*
X89384627Y-155058572D01*
X89378044Y-155068168D01*
X89375358Y-155079487D01*
X89372226Y-155092683D01*
X89366663Y-155110270D01*
X89357327Y-155133673D01*
X89356700Y-155140068D01*
X89356700Y-155143364D01*
X89356682Y-155143517D01*
X89356550Y-155146220D01*
X89356367Y-155146211D01*
X89354897Y-155158768D01*
X89354470Y-155167507D01*
X89351783Y-155178828D01*
X89353352Y-155190357D01*
X89353352Y-155190358D01*
X89355549Y-155206500D01*
X89356700Y-155223491D01*
X89356700Y-155673870D01*
X89356493Y-155676695D01*
X89354744Y-155681788D01*
X89356213Y-155720924D01*
X89356611Y-155731516D01*
X89356700Y-155736243D01*
X89356700Y-155755553D01*
X89357592Y-155760340D01*
X89357833Y-155764058D01*
X89359011Y-155795442D01*
X89363605Y-155806134D01*
X89364525Y-155810219D01*
X89368601Y-155823635D01*
X89370106Y-155827534D01*
X89372236Y-155838971D01*
X89385453Y-155860413D01*
X89393961Y-155876792D01*
X89400393Y-155891764D01*
X89400396Y-155891768D01*
X89403906Y-155899939D01*
X89407985Y-155904904D01*
X89410311Y-155907230D01*
X89410402Y-155907345D01*
X89412223Y-155909353D01*
X89412087Y-155909476D01*
X89419940Y-155919410D01*
X89425810Y-155925883D01*
X89431915Y-155935788D01*
X89454158Y-155952702D01*
X89466977Y-155963896D01*
X89573795Y-156070714D01*
X89607821Y-156133026D01*
X89610700Y-156159809D01*
X89610700Y-171525350D01*
X89590698Y-171593471D01*
X89573795Y-171614445D01*
X89064445Y-172123795D01*
X89002133Y-172157821D01*
X88975350Y-172160700D01*
X70028650Y-172160700D01*
X69960529Y-172140698D01*
X69939554Y-172123795D01*
X69899592Y-172083832D01*
X69849556Y-172033796D01*
X69847709Y-172031656D01*
X69845345Y-172026820D01*
X69836190Y-172018327D01*
X69808863Y-171992978D01*
X69805458Y-171989698D01*
X69791803Y-171976043D01*
X69787784Y-171973286D01*
X69784992Y-171970834D01*
X69770493Y-171957384D01*
X69770490Y-171957382D01*
X69761963Y-171949472D01*
X69751161Y-171945162D01*
X69747633Y-171942932D01*
X69735240Y-171936316D01*
X69731428Y-171934627D01*
X69721832Y-171928044D01*
X69697317Y-171922226D01*
X69679730Y-171916663D01*
X69656327Y-171907327D01*
X69649932Y-171906700D01*
X69646636Y-171906700D01*
X69646483Y-171906682D01*
X69643780Y-171906550D01*
X69643789Y-171906367D01*
X69631232Y-171904897D01*
X69622493Y-171904470D01*
X69611172Y-171901783D01*
X69599643Y-171903352D01*
X69599642Y-171903352D01*
X69583500Y-171905549D01*
X69566509Y-171906700D01*
X69520443Y-171906700D01*
X69452322Y-171886698D01*
X69424991Y-171862949D01*
X69414704Y-171851011D01*
X69414705Y-171851011D01*
X69408844Y-171844210D01*
X69292721Y-171768943D01*
X69284119Y-171766371D01*
X69284116Y-171766369D01*
X69168744Y-171731866D01*
X69168745Y-171731866D01*
X69160141Y-171729293D01*
X69151165Y-171729238D01*
X69151164Y-171729238D01*
X69091941Y-171728877D01*
X69021762Y-171728448D01*
X69013131Y-171730915D01*
X69013129Y-171730915D01*
X68897341Y-171764007D01*
X68897338Y-171764008D01*
X68888707Y-171766475D01*
X68771673Y-171840318D01*
X68680069Y-171944040D01*
X68676255Y-171952163D01*
X68676254Y-171952165D01*
X68656663Y-171993892D01*
X68621258Y-172069303D01*
X68619878Y-172078168D01*
X68619877Y-172078170D01*
X68611738Y-172130444D01*
X68581493Y-172194677D01*
X68521324Y-172232361D01*
X68486469Y-172237057D01*
X68386762Y-172236448D01*
X68378131Y-172238915D01*
X68378129Y-172238915D01*
X68262341Y-172272007D01*
X68262338Y-172272008D01*
X68253707Y-172274475D01*
X68136673Y-172348318D01*
X68045069Y-172452040D01*
X67986258Y-172577303D01*
X67984878Y-172586168D01*
X67984877Y-172586170D01*
X67975598Y-172645769D01*
X67964968Y-172714037D01*
X67966132Y-172722939D01*
X67966132Y-172722942D01*
X67981746Y-172842346D01*
X67981747Y-172842350D01*
X67982911Y-172851251D01*
X67986528Y-172859471D01*
X68015033Y-172924254D01*
X68024161Y-172994662D01*
X67993774Y-173058827D01*
X67933520Y-173096377D01*
X67899704Y-173101000D01*
X59817000Y-173101000D01*
X59817000Y-179197000D01*
X74319051Y-179197000D01*
X74387172Y-179217002D01*
X74408146Y-179233905D01*
X75024795Y-179850554D01*
X75058821Y-179912866D01*
X75061700Y-179939649D01*
X75061700Y-182372701D01*
X75041698Y-182440822D01*
X74988042Y-182487315D01*
X74935700Y-182498701D01*
X74199440Y-182498701D01*
X74147431Y-182509045D01*
X74088453Y-182548453D01*
X74049045Y-182607431D01*
X74038700Y-182659439D01*
X74038701Y-184994560D01*
X74049045Y-185046569D01*
X74055940Y-185056888D01*
X74055941Y-185056890D01*
X74072308Y-185081385D01*
X74088453Y-185105547D01*
X74147431Y-185144955D01*
X74199439Y-185155300D01*
X75366622Y-185155300D01*
X76534560Y-185155299D01*
X76586569Y-185144955D01*
X76612838Y-185127403D01*
X76635231Y-185112440D01*
X76645547Y-185105547D01*
X76684955Y-185046569D01*
X76695300Y-184994561D01*
X76695300Y-183831930D01*
X77204261Y-183831930D01*
X77223961Y-184082236D01*
X77225504Y-184091983D01*
X77284117Y-184336123D01*
X77287166Y-184345508D01*
X77383248Y-184577470D01*
X77387729Y-184586264D01*
X77517404Y-184797875D01*
X77526670Y-184803922D01*
X77536875Y-184797915D01*
X78494978Y-183839812D01*
X78501356Y-183828132D01*
X79231408Y-183828132D01*
X79231539Y-183829965D01*
X79235790Y-183836580D01*
X80195666Y-184796456D01*
X80209204Y-184803849D01*
X80215735Y-184799280D01*
X80346271Y-184586264D01*
X80350752Y-184577470D01*
X80446834Y-184345508D01*
X80449883Y-184336123D01*
X80508496Y-184091983D01*
X80510039Y-184082236D01*
X80529739Y-183831930D01*
X80529739Y-183822070D01*
X80510039Y-183571764D01*
X80508496Y-183562017D01*
X80449883Y-183317877D01*
X80446834Y-183308492D01*
X80350752Y-183076530D01*
X80346271Y-183067736D01*
X80216596Y-182856125D01*
X80207330Y-182850078D01*
X80197125Y-182856085D01*
X79239022Y-183814188D01*
X79231408Y-183828132D01*
X78501356Y-183828132D01*
X78502592Y-183825868D01*
X78502461Y-183824035D01*
X78498210Y-183817420D01*
X77538334Y-182857544D01*
X77524796Y-182850151D01*
X77518265Y-182854720D01*
X77387729Y-183067736D01*
X77383248Y-183076530D01*
X77287166Y-183308492D01*
X77284117Y-183317877D01*
X77225504Y-183562017D01*
X77223961Y-183571764D01*
X77204261Y-183822070D01*
X77204261Y-183831930D01*
X76695300Y-183831930D01*
X76695299Y-182659440D01*
X76684955Y-182607431D01*
X76662643Y-182574038D01*
X76652440Y-182558769D01*
X76645547Y-182548453D01*
X76586569Y-182509045D01*
X76534561Y-182498700D01*
X75798300Y-182498700D01*
X75757329Y-182486670D01*
X77890078Y-182486670D01*
X77896085Y-182496875D01*
X78854188Y-183454978D01*
X78868132Y-183462592D01*
X78869965Y-183462461D01*
X78876580Y-183458210D01*
X79836456Y-182498334D01*
X79843849Y-182484796D01*
X79839280Y-182478265D01*
X79626264Y-182347729D01*
X79617470Y-182343248D01*
X79385508Y-182247166D01*
X79376123Y-182244117D01*
X79131983Y-182185504D01*
X79122236Y-182183961D01*
X78871930Y-182164261D01*
X78862070Y-182164261D01*
X78611764Y-182183961D01*
X78602017Y-182185504D01*
X78357877Y-182244117D01*
X78348492Y-182247166D01*
X78116530Y-182343248D01*
X78107736Y-182347729D01*
X77896125Y-182477404D01*
X77890078Y-182486670D01*
X75757329Y-182486670D01*
X75730179Y-182478698D01*
X75683686Y-182425042D01*
X75672300Y-182372700D01*
X75672300Y-179814281D01*
X75672507Y-179811462D01*
X75674255Y-179806371D01*
X75673644Y-179790074D01*
X75672389Y-179756658D01*
X75672300Y-179751932D01*
X75672300Y-179732607D01*
X75671409Y-179727821D01*
X75671167Y-179724092D01*
X75670425Y-179704342D01*
X75669989Y-179692718D01*
X75665397Y-179682029D01*
X75664478Y-179677952D01*
X75660399Y-179664525D01*
X75658894Y-179660626D01*
X75656764Y-179649189D01*
X75643547Y-179627747D01*
X75635039Y-179611368D01*
X75628607Y-179596396D01*
X75628604Y-179596392D01*
X75625094Y-179588221D01*
X75621015Y-179583256D01*
X75618689Y-179580930D01*
X75618598Y-179580815D01*
X75616777Y-179578807D01*
X75616913Y-179578684D01*
X75609060Y-179568750D01*
X75603190Y-179562277D01*
X75597085Y-179552372D01*
X75574842Y-179535458D01*
X75562023Y-179524264D01*
X75449854Y-179412095D01*
X75415828Y-179349783D01*
X75420893Y-179278968D01*
X75463440Y-179222132D01*
X75529960Y-179197321D01*
X75538949Y-179197000D01*
X77113051Y-179197000D01*
X77181172Y-179217002D01*
X77202146Y-179233905D01*
X81123257Y-183155016D01*
X81157283Y-183217328D01*
X81152218Y-183288143D01*
X81148357Y-183297361D01*
X81116361Y-183365976D01*
X81116361Y-183365977D01*
X81114038Y-183370959D01*
X81112616Y-183376267D01*
X81112615Y-183376269D01*
X81055307Y-183590147D01*
X81053883Y-183595462D01*
X81033626Y-183827000D01*
X81053883Y-184058538D01*
X81055307Y-184063851D01*
X81055307Y-184063853D01*
X81090011Y-184193369D01*
X81114038Y-184283041D01*
X81116360Y-184288022D01*
X81116361Y-184288023D01*
X81209938Y-184488700D01*
X81209941Y-184488705D01*
X81212264Y-184493687D01*
X81215420Y-184498194D01*
X81215421Y-184498196D01*
X81323124Y-184652011D01*
X81345576Y-184684076D01*
X81509924Y-184848424D01*
X81514432Y-184851581D01*
X81514435Y-184851583D01*
X81545660Y-184873447D01*
X81700313Y-184981736D01*
X81705295Y-184984059D01*
X81705300Y-184984062D01*
X81861481Y-185056890D01*
X81910959Y-185079962D01*
X81916267Y-185081384D01*
X81916269Y-185081385D01*
X82130147Y-185138693D01*
X82130149Y-185138693D01*
X82135462Y-185140117D01*
X82367000Y-185160374D01*
X82598538Y-185140117D01*
X82603851Y-185138693D01*
X82603853Y-185138693D01*
X82817731Y-185081385D01*
X82817733Y-185081384D01*
X82823041Y-185079962D01*
X82872519Y-185056890D01*
X83028700Y-184984062D01*
X83028705Y-184984059D01*
X83033687Y-184981736D01*
X83188340Y-184873447D01*
X83219565Y-184851583D01*
X83219568Y-184851581D01*
X83224076Y-184848424D01*
X83388424Y-184684076D01*
X83410877Y-184652011D01*
X83518579Y-184498196D01*
X83518580Y-184498194D01*
X83521736Y-184493687D01*
X83524059Y-184488705D01*
X83524062Y-184488700D01*
X83617639Y-184288023D01*
X83617640Y-184288022D01*
X83619962Y-184283041D01*
X83643990Y-184193369D01*
X83678693Y-184063853D01*
X83678693Y-184063851D01*
X83680117Y-184058538D01*
X83700374Y-183827000D01*
X83680117Y-183595462D01*
X83678693Y-183590147D01*
X83621385Y-183376269D01*
X83621384Y-183376267D01*
X83619962Y-183370959D01*
X83617639Y-183365977D01*
X83524062Y-183165300D01*
X83524059Y-183165295D01*
X83521736Y-183160313D01*
X83518027Y-183155016D01*
X83391583Y-182974435D01*
X83391581Y-182974432D01*
X83388424Y-182969924D01*
X83224076Y-182805576D01*
X83219568Y-182802419D01*
X83219565Y-182802417D01*
X83038196Y-182675421D01*
X83038194Y-182675420D01*
X83033687Y-182672264D01*
X83028705Y-182669941D01*
X83028700Y-182669938D01*
X82828023Y-182576361D01*
X82828022Y-182576360D01*
X82823041Y-182574038D01*
X82817733Y-182572616D01*
X82817731Y-182572615D01*
X82603853Y-182515307D01*
X82603851Y-182515307D01*
X82598538Y-182513883D01*
X82367000Y-182493626D01*
X82135462Y-182513883D01*
X82130149Y-182515307D01*
X82130147Y-182515307D01*
X81916269Y-182572615D01*
X81916267Y-182572616D01*
X81910959Y-182574038D01*
X81905978Y-182576360D01*
X81905977Y-182576361D01*
X81705300Y-182669938D01*
X81705295Y-182669941D01*
X81700313Y-182672264D01*
X81671469Y-182692461D01*
X81604195Y-182715149D01*
X81535335Y-182697864D01*
X81510103Y-182678343D01*
X78243855Y-179412095D01*
X78209829Y-179349783D01*
X78214894Y-179278968D01*
X78257441Y-179222132D01*
X78323961Y-179197321D01*
X78332950Y-179197000D01*
X101296200Y-179197000D01*
X101364321Y-179217002D01*
X101410814Y-179270658D01*
X101422200Y-179323000D01*
X101422200Y-191466200D01*
X101402198Y-191534321D01*
X101348542Y-191580814D01*
X101296200Y-191592200D01*
X25703800Y-191592200D01*
X25635679Y-191572198D01*
X25589186Y-191518542D01*
X25577800Y-191466200D01*
X25577800Y-187440190D01*
X26334759Y-187440190D01*
X26353272Y-187805647D01*
X26353809Y-187809002D01*
X26353810Y-187809008D01*
X26359449Y-187844213D01*
X26411146Y-188166967D01*
X26507704Y-188519923D01*
X26641816Y-188860387D01*
X26643399Y-188863402D01*
X26810330Y-189181359D01*
X26810335Y-189181367D01*
X26811914Y-189184375D01*
X26813808Y-189187193D01*
X26813813Y-189187202D01*
X26834187Y-189217521D01*
X27016007Y-189488098D01*
X27251708Y-189768002D01*
X27379733Y-189890346D01*
X27513797Y-190018461D01*
X27513804Y-190018467D01*
X27516260Y-190020814D01*
X27806569Y-190243575D01*
X27809482Y-190245346D01*
X28116322Y-190431908D01*
X28116327Y-190431911D01*
X28119237Y-190433680D01*
X28122325Y-190435126D01*
X28122324Y-190435126D01*
X28447524Y-190587462D01*
X28447534Y-190587466D01*
X28450608Y-190588906D01*
X28453826Y-190590008D01*
X28453829Y-190590009D01*
X28793582Y-190706333D01*
X28793590Y-190706335D01*
X28796805Y-190707436D01*
X29153778Y-190787883D01*
X29237166Y-190797384D01*
X29513968Y-190828922D01*
X29513976Y-190828922D01*
X29517351Y-190829307D01*
X29520755Y-190829325D01*
X29520758Y-190829325D01*
X29719775Y-190830367D01*
X29883272Y-190831223D01*
X29886658Y-190830873D01*
X29886660Y-190830873D01*
X30243867Y-190793959D01*
X30243875Y-190793958D01*
X30247259Y-190793608D01*
X30250592Y-190792893D01*
X30250595Y-190792893D01*
X30426847Y-190755108D01*
X30605055Y-190716904D01*
X30952474Y-190602006D01*
X31285452Y-190450259D01*
X31381431Y-190393271D01*
X31597149Y-190265187D01*
X31597154Y-190265184D01*
X31600094Y-190263438D01*
X31624191Y-190245346D01*
X31889982Y-190045784D01*
X31892719Y-190043729D01*
X31895222Y-190041387D01*
X32157407Y-189796039D01*
X32157410Y-189796036D01*
X32159904Y-189793702D01*
X32182010Y-189768002D01*
X32396297Y-189518869D01*
X32398523Y-189516281D01*
X32507340Y-189357951D01*
X32603856Y-189217521D01*
X32603861Y-189217514D01*
X32605786Y-189214712D01*
X32607398Y-189211718D01*
X32607403Y-189211710D01*
X32777645Y-188895535D01*
X32779267Y-188892523D01*
X32916937Y-188553482D01*
X33017186Y-188201557D01*
X33078840Y-187840862D01*
X33080789Y-187809008D01*
X33101068Y-187477449D01*
X33101180Y-187475619D01*
X33101262Y-187452000D01*
X33100622Y-187440190D01*
X93898759Y-187440190D01*
X93917272Y-187805647D01*
X93917809Y-187809002D01*
X93917810Y-187809008D01*
X93923449Y-187844213D01*
X93975146Y-188166967D01*
X94071704Y-188519923D01*
X94205816Y-188860387D01*
X94207399Y-188863402D01*
X94374330Y-189181359D01*
X94374335Y-189181367D01*
X94375914Y-189184375D01*
X94377808Y-189187193D01*
X94377813Y-189187202D01*
X94398187Y-189217521D01*
X94580007Y-189488098D01*
X94815708Y-189768002D01*
X94943733Y-189890346D01*
X95077797Y-190018461D01*
X95077804Y-190018467D01*
X95080260Y-190020814D01*
X95370569Y-190243575D01*
X95373482Y-190245346D01*
X95680322Y-190431908D01*
X95680327Y-190431911D01*
X95683237Y-190433680D01*
X95686325Y-190435126D01*
X95686324Y-190435126D01*
X96011524Y-190587462D01*
X96011534Y-190587466D01*
X96014608Y-190588906D01*
X96017826Y-190590008D01*
X96017829Y-190590009D01*
X96357582Y-190706333D01*
X96357590Y-190706335D01*
X96360805Y-190707436D01*
X96717778Y-190787883D01*
X96801166Y-190797384D01*
X97077968Y-190828922D01*
X97077976Y-190828922D01*
X97081351Y-190829307D01*
X97084755Y-190829325D01*
X97084758Y-190829325D01*
X97283775Y-190830367D01*
X97447272Y-190831223D01*
X97450658Y-190830873D01*
X97450660Y-190830873D01*
X97807867Y-190793959D01*
X97807875Y-190793958D01*
X97811259Y-190793608D01*
X97814592Y-190792893D01*
X97814595Y-190792893D01*
X97990847Y-190755108D01*
X98169055Y-190716904D01*
X98516474Y-190602006D01*
X98849452Y-190450259D01*
X98945431Y-190393271D01*
X99161149Y-190265187D01*
X99161154Y-190265184D01*
X99164094Y-190263438D01*
X99188191Y-190245346D01*
X99453982Y-190045784D01*
X99456719Y-190043729D01*
X99459222Y-190041387D01*
X99721407Y-189796039D01*
X99721410Y-189796036D01*
X99723904Y-189793702D01*
X99746010Y-189768002D01*
X99960297Y-189518869D01*
X99962523Y-189516281D01*
X100071340Y-189357951D01*
X100167856Y-189217521D01*
X100167861Y-189217514D01*
X100169786Y-189214712D01*
X100171398Y-189211718D01*
X100171403Y-189211710D01*
X100341645Y-188895535D01*
X100343267Y-188892523D01*
X100480937Y-188553482D01*
X100581186Y-188201557D01*
X100642840Y-187840862D01*
X100644789Y-187809008D01*
X100665068Y-187477449D01*
X100665180Y-187475619D01*
X100665262Y-187452000D01*
X100645473Y-187086610D01*
X100586338Y-186725494D01*
X100488549Y-186372877D01*
X100482841Y-186358531D01*
X100354509Y-186036049D01*
X100354505Y-186036041D01*
X100353249Y-186032884D01*
X100347577Y-186022172D01*
X100183616Y-185712501D01*
X100183614Y-185712497D01*
X100182022Y-185709491D01*
X100033238Y-185489739D01*
X99978785Y-185409312D01*
X99978779Y-185409305D01*
X99976869Y-185406483D01*
X99740192Y-185127403D01*
X99474759Y-184875516D01*
X99472052Y-184873454D01*
X99472044Y-184873447D01*
X99223457Y-184684076D01*
X99183675Y-184653770D01*
X99057191Y-184577470D01*
X98873260Y-184466515D01*
X98873254Y-184466512D01*
X98870345Y-184464757D01*
X98538435Y-184310689D01*
X98288730Y-184226169D01*
X98195053Y-184194461D01*
X98195048Y-184194460D01*
X98191826Y-184193369D01*
X97989098Y-184148425D01*
X97837910Y-184114907D01*
X97837904Y-184114906D01*
X97834575Y-184114168D01*
X97831186Y-184113794D01*
X97831181Y-184113793D01*
X97474240Y-184074386D01*
X97474235Y-184074386D01*
X97470859Y-184074013D01*
X97467460Y-184074007D01*
X97467459Y-184074007D01*
X97294188Y-184073705D01*
X97104934Y-184073375D01*
X97006672Y-184083876D01*
X96744463Y-184111897D01*
X96744455Y-184111898D01*
X96741080Y-184112259D01*
X96383554Y-184190213D01*
X96036538Y-184306323D01*
X96033445Y-184307746D01*
X96033444Y-184307746D01*
X96023921Y-184312126D01*
X95704092Y-184459231D01*
X95701158Y-184460987D01*
X95701156Y-184460988D01*
X95691921Y-184466515D01*
X95390104Y-184647149D01*
X95098248Y-184867878D01*
X95095768Y-184870215D01*
X94873837Y-185079352D01*
X94831937Y-185118836D01*
X94594287Y-185397088D01*
X94388079Y-185699379D01*
X94215723Y-186022172D01*
X94214448Y-186025344D01*
X94214446Y-186025348D01*
X94210145Y-186036049D01*
X94079238Y-186361691D01*
X94078319Y-186364959D01*
X94078317Y-186364966D01*
X94075168Y-186376170D01*
X93980218Y-186713964D01*
X93979656Y-186717321D01*
X93979656Y-186717322D01*
X93978289Y-186725494D01*
X93919823Y-187074871D01*
X93898759Y-187440190D01*
X33100622Y-187440190D01*
X33081473Y-187086610D01*
X33022338Y-186725494D01*
X32924549Y-186372877D01*
X32918841Y-186358531D01*
X32790509Y-186036049D01*
X32790505Y-186036041D01*
X32789249Y-186032884D01*
X32783577Y-186022172D01*
X32619616Y-185712501D01*
X32619614Y-185712497D01*
X32618022Y-185709491D01*
X32469238Y-185489739D01*
X32414785Y-185409312D01*
X32414779Y-185409305D01*
X32412869Y-185406483D01*
X32176192Y-185127403D01*
X31910759Y-184875516D01*
X31908052Y-184873454D01*
X31908044Y-184873447D01*
X31659457Y-184684076D01*
X31619675Y-184653770D01*
X31493191Y-184577470D01*
X31309260Y-184466515D01*
X31309254Y-184466512D01*
X31306345Y-184464757D01*
X30974435Y-184310689D01*
X30724730Y-184226169D01*
X30631053Y-184194461D01*
X30631048Y-184194460D01*
X30627826Y-184193369D01*
X30425098Y-184148425D01*
X30273910Y-184114907D01*
X30273904Y-184114906D01*
X30270575Y-184114168D01*
X30267186Y-184113794D01*
X30267181Y-184113793D01*
X29910240Y-184074386D01*
X29910235Y-184074386D01*
X29906859Y-184074013D01*
X29903460Y-184074007D01*
X29903459Y-184074007D01*
X29730188Y-184073705D01*
X29540934Y-184073375D01*
X29442672Y-184083876D01*
X29180463Y-184111897D01*
X29180455Y-184111898D01*
X29177080Y-184112259D01*
X28819554Y-184190213D01*
X28472538Y-184306323D01*
X28469445Y-184307746D01*
X28469444Y-184307746D01*
X28459921Y-184312126D01*
X28140092Y-184459231D01*
X28137158Y-184460987D01*
X28137156Y-184460988D01*
X28127921Y-184466515D01*
X27826104Y-184647149D01*
X27534248Y-184867878D01*
X27531768Y-184870215D01*
X27309837Y-185079352D01*
X27267937Y-185118836D01*
X27030287Y-185397088D01*
X26824079Y-185699379D01*
X26651723Y-186022172D01*
X26650448Y-186025344D01*
X26650446Y-186025348D01*
X26646145Y-186036049D01*
X26515238Y-186361691D01*
X26514319Y-186364959D01*
X26514317Y-186364966D01*
X26511168Y-186376170D01*
X26416218Y-186713964D01*
X26415656Y-186717321D01*
X26415656Y-186717322D01*
X26414289Y-186725494D01*
X26355823Y-187074871D01*
X26334759Y-187440190D01*
X25577800Y-187440190D01*
X25577800Y-182659439D01*
X50670700Y-182659439D01*
X50670701Y-184994560D01*
X50681045Y-185046569D01*
X50687940Y-185056888D01*
X50687941Y-185056890D01*
X50704308Y-185081385D01*
X50720453Y-185105547D01*
X50779431Y-185144955D01*
X50831439Y-185155300D01*
X51998622Y-185155300D01*
X53166560Y-185155299D01*
X53218569Y-185144955D01*
X53244838Y-185127403D01*
X53267231Y-185112440D01*
X53277547Y-185105547D01*
X53316955Y-185046569D01*
X53327300Y-184994561D01*
X53327299Y-183827000D01*
X54165626Y-183827000D01*
X54185883Y-184058538D01*
X54187307Y-184063851D01*
X54187307Y-184063853D01*
X54222011Y-184193369D01*
X54246038Y-184283041D01*
X54248360Y-184288022D01*
X54248361Y-184288023D01*
X54341938Y-184488700D01*
X54341941Y-184488705D01*
X54344264Y-184493687D01*
X54347420Y-184498194D01*
X54347421Y-184498196D01*
X54455124Y-184652011D01*
X54477576Y-184684076D01*
X54641924Y-184848424D01*
X54646432Y-184851581D01*
X54646435Y-184851583D01*
X54677660Y-184873447D01*
X54832313Y-184981736D01*
X54837295Y-184984059D01*
X54837300Y-184984062D01*
X54993481Y-185056890D01*
X55042959Y-185079962D01*
X55048267Y-185081384D01*
X55048269Y-185081385D01*
X55262147Y-185138693D01*
X55262149Y-185138693D01*
X55267462Y-185140117D01*
X55499000Y-185160374D01*
X55730538Y-185140117D01*
X55735851Y-185138693D01*
X55735853Y-185138693D01*
X55949731Y-185081385D01*
X55949733Y-185081384D01*
X55955041Y-185079962D01*
X56004519Y-185056890D01*
X56160700Y-184984062D01*
X56160705Y-184984059D01*
X56165687Y-184981736D01*
X56320340Y-184873447D01*
X56351565Y-184851583D01*
X56351568Y-184851581D01*
X56356076Y-184848424D01*
X56520424Y-184684076D01*
X56542877Y-184652011D01*
X56650579Y-184498196D01*
X56650580Y-184498194D01*
X56653736Y-184493687D01*
X56656059Y-184488705D01*
X56656062Y-184488700D01*
X56749639Y-184288023D01*
X56749640Y-184288022D01*
X56751962Y-184283041D01*
X56775990Y-184193369D01*
X56810693Y-184063853D01*
X56810693Y-184063851D01*
X56812117Y-184058538D01*
X56832374Y-183827000D01*
X57665626Y-183827000D01*
X57685883Y-184058538D01*
X57687307Y-184063851D01*
X57687307Y-184063853D01*
X57722011Y-184193369D01*
X57746038Y-184283041D01*
X57748360Y-184288022D01*
X57748361Y-184288023D01*
X57841938Y-184488700D01*
X57841941Y-184488705D01*
X57844264Y-184493687D01*
X57847420Y-184498194D01*
X57847421Y-184498196D01*
X57955124Y-184652011D01*
X57977576Y-184684076D01*
X58141924Y-184848424D01*
X58146432Y-184851581D01*
X58146435Y-184851583D01*
X58177660Y-184873447D01*
X58332313Y-184981736D01*
X58337295Y-184984059D01*
X58337300Y-184984062D01*
X58493481Y-185056890D01*
X58542959Y-185079962D01*
X58548267Y-185081384D01*
X58548269Y-185081385D01*
X58762147Y-185138693D01*
X58762149Y-185138693D01*
X58767462Y-185140117D01*
X58999000Y-185160374D01*
X59230538Y-185140117D01*
X59235851Y-185138693D01*
X59235853Y-185138693D01*
X59449731Y-185081385D01*
X59449733Y-185081384D01*
X59455041Y-185079962D01*
X59504519Y-185056890D01*
X59580051Y-185021669D01*
X62025001Y-185021669D01*
X62025371Y-185028490D01*
X62030895Y-185079352D01*
X62034521Y-185094604D01*
X62079676Y-185215054D01*
X62088214Y-185230649D01*
X62164715Y-185332724D01*
X62177276Y-185345285D01*
X62279351Y-185421786D01*
X62294946Y-185430324D01*
X62415394Y-185475478D01*
X62430649Y-185479105D01*
X62481514Y-185484631D01*
X62488328Y-185485000D01*
X63410885Y-185485000D01*
X63426124Y-185480525D01*
X63427329Y-185479135D01*
X63429000Y-185471452D01*
X63429000Y-185466884D01*
X63937000Y-185466884D01*
X63941475Y-185482123D01*
X63942865Y-185483328D01*
X63950548Y-185484999D01*
X64877669Y-185484999D01*
X64884490Y-185484629D01*
X64935352Y-185479105D01*
X64950604Y-185475479D01*
X65071054Y-185430324D01*
X65086649Y-185421786D01*
X65188724Y-185345285D01*
X65201285Y-185332724D01*
X65277786Y-185230649D01*
X65286324Y-185215054D01*
X65303512Y-185169204D01*
X66206151Y-185169204D01*
X66210720Y-185175735D01*
X66423736Y-185306271D01*
X66432530Y-185310752D01*
X66664492Y-185406834D01*
X66673877Y-185409883D01*
X66918017Y-185468496D01*
X66927764Y-185470039D01*
X67178070Y-185489739D01*
X67187930Y-185489739D01*
X67438236Y-185470039D01*
X67447983Y-185468496D01*
X67692123Y-185409883D01*
X67701508Y-185406834D01*
X67933470Y-185310752D01*
X67942264Y-185306271D01*
X68153875Y-185176596D01*
X68158699Y-185169204D01*
X69706151Y-185169204D01*
X69710720Y-185175735D01*
X69923736Y-185306271D01*
X69932530Y-185310752D01*
X70164492Y-185406834D01*
X70173877Y-185409883D01*
X70418017Y-185468496D01*
X70427764Y-185470039D01*
X70678070Y-185489739D01*
X70687930Y-185489739D01*
X70938236Y-185470039D01*
X70947983Y-185468496D01*
X71192123Y-185409883D01*
X71201508Y-185406834D01*
X71433470Y-185310752D01*
X71442264Y-185306271D01*
X71653875Y-185176596D01*
X71658699Y-185169204D01*
X77890151Y-185169204D01*
X77894720Y-185175735D01*
X78107736Y-185306271D01*
X78116530Y-185310752D01*
X78348492Y-185406834D01*
X78357877Y-185409883D01*
X78602017Y-185468496D01*
X78611764Y-185470039D01*
X78862070Y-185489739D01*
X78871930Y-185489739D01*
X79122236Y-185470039D01*
X79131983Y-185468496D01*
X79376123Y-185409883D01*
X79385508Y-185406834D01*
X79617470Y-185310752D01*
X79626264Y-185306271D01*
X79837875Y-185176596D01*
X79843922Y-185167330D01*
X79837915Y-185157125D01*
X78879812Y-184199022D01*
X78865868Y-184191408D01*
X78864035Y-184191539D01*
X78857420Y-184195790D01*
X77897544Y-185155666D01*
X77890151Y-185169204D01*
X71658699Y-185169204D01*
X71659922Y-185167330D01*
X71653915Y-185157125D01*
X70695812Y-184199022D01*
X70681868Y-184191408D01*
X70680035Y-184191539D01*
X70673420Y-184195790D01*
X69713544Y-185155666D01*
X69706151Y-185169204D01*
X68158699Y-185169204D01*
X68159922Y-185167330D01*
X68153915Y-185157125D01*
X67195812Y-184199022D01*
X67181868Y-184191408D01*
X67180035Y-184191539D01*
X67173420Y-184195790D01*
X66213544Y-185155666D01*
X66206151Y-185169204D01*
X65303512Y-185169204D01*
X65331478Y-185094606D01*
X65335105Y-185079351D01*
X65340631Y-185028486D01*
X65341000Y-185021672D01*
X65341000Y-184321393D01*
X65361002Y-184253272D01*
X65414658Y-184206779D01*
X65484932Y-184196675D01*
X65549512Y-184226169D01*
X65589519Y-184291980D01*
X65600116Y-184336120D01*
X65603166Y-184345508D01*
X65699248Y-184577470D01*
X65703729Y-184586264D01*
X65833404Y-184797875D01*
X65842670Y-184803922D01*
X65852875Y-184797915D01*
X66810978Y-183839812D01*
X66817356Y-183828132D01*
X67547408Y-183828132D01*
X67547539Y-183829965D01*
X67551790Y-183836580D01*
X68511666Y-184796456D01*
X68525204Y-184803849D01*
X68531735Y-184799280D01*
X68662271Y-184586264D01*
X68666752Y-184577470D01*
X68762834Y-184345508D01*
X68765883Y-184336123D01*
X68810481Y-184150358D01*
X68845833Y-184088789D01*
X68908860Y-184056106D01*
X68979551Y-184062686D01*
X69035462Y-184106441D01*
X69055519Y-184150358D01*
X69100117Y-184336123D01*
X69103166Y-184345508D01*
X69199248Y-184577470D01*
X69203729Y-184586264D01*
X69333404Y-184797875D01*
X69342670Y-184803922D01*
X69352875Y-184797915D01*
X70310978Y-183839812D01*
X70317356Y-183828132D01*
X71047408Y-183828132D01*
X71047539Y-183829965D01*
X71051790Y-183836580D01*
X72011666Y-184796456D01*
X72025204Y-184803849D01*
X72031735Y-184799280D01*
X72162271Y-184586264D01*
X72166752Y-184577470D01*
X72262834Y-184345508D01*
X72265883Y-184336123D01*
X72324496Y-184091983D01*
X72326039Y-184082236D01*
X72345739Y-183831930D01*
X72345739Y-183822070D01*
X72326039Y-183571764D01*
X72324496Y-183562017D01*
X72265883Y-183317877D01*
X72262834Y-183308492D01*
X72166752Y-183076530D01*
X72162271Y-183067736D01*
X72032596Y-182856125D01*
X72023330Y-182850078D01*
X72013125Y-182856085D01*
X71055022Y-183814188D01*
X71047408Y-183828132D01*
X70317356Y-183828132D01*
X70318592Y-183825868D01*
X70318461Y-183824035D01*
X70314210Y-183817420D01*
X69354334Y-182857544D01*
X69340796Y-182850151D01*
X69334265Y-182854720D01*
X69203729Y-183067736D01*
X69199248Y-183076530D01*
X69103166Y-183308492D01*
X69100117Y-183317877D01*
X69055519Y-183503642D01*
X69020167Y-183565211D01*
X68957140Y-183597894D01*
X68886449Y-183591314D01*
X68830538Y-183547559D01*
X68810481Y-183503642D01*
X68765883Y-183317877D01*
X68762834Y-183308492D01*
X68666752Y-183076530D01*
X68662271Y-183067736D01*
X68532596Y-182856125D01*
X68523330Y-182850078D01*
X68513125Y-182856085D01*
X67555022Y-183814188D01*
X67547408Y-183828132D01*
X66817356Y-183828132D01*
X66818592Y-183825868D01*
X66818461Y-183824035D01*
X66814210Y-183817420D01*
X65854334Y-182857544D01*
X65840796Y-182850151D01*
X65834265Y-182854720D01*
X65703729Y-183067736D01*
X65699248Y-183076530D01*
X65603166Y-183308492D01*
X65600114Y-183317886D01*
X65589517Y-183362024D01*
X65554165Y-183423593D01*
X65491139Y-183456275D01*
X65420448Y-183449694D01*
X65364536Y-183405940D01*
X65340999Y-183332609D01*
X65340999Y-182632331D01*
X65340629Y-182625510D01*
X65335105Y-182574648D01*
X65331479Y-182559396D01*
X65304215Y-182486670D01*
X66206078Y-182486670D01*
X66212085Y-182496875D01*
X67170188Y-183454978D01*
X67184132Y-183462592D01*
X67185965Y-183462461D01*
X67192580Y-183458210D01*
X68152456Y-182498334D01*
X68158826Y-182486670D01*
X69706078Y-182486670D01*
X69712085Y-182496875D01*
X70670188Y-183454978D01*
X70684132Y-183462592D01*
X70685965Y-183462461D01*
X70692580Y-183458210D01*
X71652456Y-182498334D01*
X71659849Y-182484796D01*
X71655280Y-182478265D01*
X71442264Y-182347729D01*
X71433470Y-182343248D01*
X71201508Y-182247166D01*
X71192123Y-182244117D01*
X70947983Y-182185504D01*
X70938236Y-182183961D01*
X70687930Y-182164261D01*
X70678070Y-182164261D01*
X70427764Y-182183961D01*
X70418017Y-182185504D01*
X70173877Y-182244117D01*
X70164492Y-182247166D01*
X69932530Y-182343248D01*
X69923736Y-182347729D01*
X69712125Y-182477404D01*
X69706078Y-182486670D01*
X68158826Y-182486670D01*
X68159849Y-182484796D01*
X68155280Y-182478265D01*
X67942264Y-182347729D01*
X67933470Y-182343248D01*
X67701508Y-182247166D01*
X67692123Y-182244117D01*
X67447983Y-182185504D01*
X67438236Y-182183961D01*
X67187930Y-182164261D01*
X67178070Y-182164261D01*
X66927764Y-182183961D01*
X66918017Y-182185504D01*
X66673877Y-182244117D01*
X66664492Y-182247166D01*
X66432530Y-182343248D01*
X66423736Y-182347729D01*
X66212125Y-182477404D01*
X66206078Y-182486670D01*
X65304215Y-182486670D01*
X65286324Y-182438946D01*
X65277786Y-182423351D01*
X65201285Y-182321276D01*
X65188724Y-182308715D01*
X65086649Y-182232214D01*
X65071054Y-182223676D01*
X64950606Y-182178522D01*
X64935351Y-182174895D01*
X64884486Y-182169369D01*
X64877672Y-182169000D01*
X63955115Y-182169000D01*
X63939876Y-182173475D01*
X63938671Y-182174865D01*
X63937000Y-182182548D01*
X63937000Y-185466884D01*
X63429000Y-185466884D01*
X63429000Y-184099115D01*
X63424525Y-184083876D01*
X63423135Y-184082671D01*
X63415452Y-184081000D01*
X62043116Y-184081000D01*
X62027877Y-184085475D01*
X62026672Y-184086865D01*
X62025001Y-184094548D01*
X62025001Y-185021669D01*
X59580051Y-185021669D01*
X59660700Y-184984062D01*
X59660705Y-184984059D01*
X59665687Y-184981736D01*
X59820340Y-184873447D01*
X59851565Y-184851583D01*
X59851568Y-184851581D01*
X59856076Y-184848424D01*
X60020424Y-184684076D01*
X60042877Y-184652011D01*
X60150579Y-184498196D01*
X60150580Y-184498194D01*
X60153736Y-184493687D01*
X60156059Y-184488705D01*
X60156062Y-184488700D01*
X60249639Y-184288023D01*
X60249640Y-184288022D01*
X60251962Y-184283041D01*
X60275990Y-184193369D01*
X60310693Y-184063853D01*
X60310693Y-184063851D01*
X60312117Y-184058538D01*
X60332374Y-183827000D01*
X60312117Y-183595462D01*
X60310693Y-183590147D01*
X60301245Y-183554885D01*
X62025000Y-183554885D01*
X62029475Y-183570124D01*
X62030865Y-183571329D01*
X62038548Y-183573000D01*
X63410885Y-183573000D01*
X63426124Y-183568525D01*
X63427329Y-183567135D01*
X63429000Y-183559452D01*
X63429000Y-182187116D01*
X63424525Y-182171877D01*
X63423135Y-182170672D01*
X63415452Y-182169001D01*
X62488331Y-182169001D01*
X62481510Y-182169371D01*
X62430648Y-182174895D01*
X62415396Y-182178521D01*
X62294946Y-182223676D01*
X62279351Y-182232214D01*
X62177276Y-182308715D01*
X62164715Y-182321276D01*
X62088214Y-182423351D01*
X62079676Y-182438946D01*
X62034522Y-182559394D01*
X62030895Y-182574649D01*
X62025369Y-182625514D01*
X62025000Y-182632328D01*
X62025000Y-183554885D01*
X60301245Y-183554885D01*
X60253385Y-183376269D01*
X60253384Y-183376267D01*
X60251962Y-183370959D01*
X60249639Y-183365977D01*
X60156062Y-183165300D01*
X60156059Y-183165295D01*
X60153736Y-183160313D01*
X60150027Y-183155016D01*
X60023583Y-182974435D01*
X60023581Y-182974432D01*
X60020424Y-182969924D01*
X59856076Y-182805576D01*
X59851568Y-182802419D01*
X59851565Y-182802417D01*
X59670196Y-182675421D01*
X59670194Y-182675420D01*
X59665687Y-182672264D01*
X59660705Y-182669941D01*
X59660700Y-182669938D01*
X59460023Y-182576361D01*
X59460022Y-182576360D01*
X59455041Y-182574038D01*
X59449733Y-182572616D01*
X59449731Y-182572615D01*
X59235853Y-182515307D01*
X59235851Y-182515307D01*
X59230538Y-182513883D01*
X58999000Y-182493626D01*
X58767462Y-182513883D01*
X58762149Y-182515307D01*
X58762147Y-182515307D01*
X58548269Y-182572615D01*
X58548267Y-182572616D01*
X58542959Y-182574038D01*
X58537978Y-182576360D01*
X58537977Y-182576361D01*
X58337300Y-182669938D01*
X58337295Y-182669941D01*
X58332313Y-182672264D01*
X58327806Y-182675420D01*
X58327804Y-182675421D01*
X58146435Y-182802417D01*
X58146432Y-182802419D01*
X58141924Y-182805576D01*
X57977576Y-182969924D01*
X57974419Y-182974432D01*
X57974417Y-182974435D01*
X57847973Y-183155016D01*
X57844264Y-183160313D01*
X57841941Y-183165295D01*
X57841938Y-183165300D01*
X57748361Y-183365977D01*
X57746038Y-183370959D01*
X57744616Y-183376267D01*
X57744615Y-183376269D01*
X57687307Y-183590147D01*
X57685883Y-183595462D01*
X57665626Y-183827000D01*
X56832374Y-183827000D01*
X56812117Y-183595462D01*
X56810693Y-183590147D01*
X56753385Y-183376269D01*
X56753384Y-183376267D01*
X56751962Y-183370959D01*
X56749639Y-183365977D01*
X56656062Y-183165300D01*
X56656059Y-183165295D01*
X56653736Y-183160313D01*
X56650027Y-183155016D01*
X56523583Y-182974435D01*
X56523581Y-182974432D01*
X56520424Y-182969924D01*
X56356076Y-182805576D01*
X56351568Y-182802419D01*
X56351565Y-182802417D01*
X56170196Y-182675421D01*
X56170194Y-182675420D01*
X56165687Y-182672264D01*
X56160705Y-182669941D01*
X56160700Y-182669938D01*
X55960023Y-182576361D01*
X55960022Y-182576360D01*
X55955041Y-182574038D01*
X55949733Y-182572616D01*
X55949731Y-182572615D01*
X55735853Y-182515307D01*
X55735851Y-182515307D01*
X55730538Y-182513883D01*
X55499000Y-182493626D01*
X55267462Y-182513883D01*
X55262149Y-182515307D01*
X55262147Y-182515307D01*
X55048269Y-182572615D01*
X55048267Y-182572616D01*
X55042959Y-182574038D01*
X55037978Y-182576360D01*
X55037977Y-182576361D01*
X54837300Y-182669938D01*
X54837295Y-182669941D01*
X54832313Y-182672264D01*
X54827806Y-182675420D01*
X54827804Y-182675421D01*
X54646435Y-182802417D01*
X54646432Y-182802419D01*
X54641924Y-182805576D01*
X54477576Y-182969924D01*
X54474419Y-182974432D01*
X54474417Y-182974435D01*
X54347973Y-183155016D01*
X54344264Y-183160313D01*
X54341941Y-183165295D01*
X54341938Y-183165300D01*
X54248361Y-183365977D01*
X54246038Y-183370959D01*
X54244616Y-183376267D01*
X54244615Y-183376269D01*
X54187307Y-183590147D01*
X54185883Y-183595462D01*
X54165626Y-183827000D01*
X53327299Y-183827000D01*
X53327299Y-182659440D01*
X53316955Y-182607431D01*
X53294643Y-182574038D01*
X53284440Y-182558769D01*
X53277547Y-182548453D01*
X53218569Y-182509045D01*
X53166561Y-182498700D01*
X51999378Y-182498700D01*
X50831440Y-182498701D01*
X50779431Y-182509045D01*
X50720453Y-182548453D01*
X50681045Y-182607431D01*
X50670700Y-182659439D01*
X25577800Y-182659439D01*
X25577800Y-181455133D01*
X31675612Y-181455133D01*
X31684325Y-181466653D01*
X31782018Y-181538284D01*
X31789928Y-181543227D01*
X32012890Y-181660533D01*
X32021453Y-181664256D01*
X32259304Y-181747318D01*
X32268313Y-181749732D01*
X32515842Y-181796727D01*
X32525098Y-181797781D01*
X32776857Y-181807673D01*
X32786171Y-181807347D01*
X33036615Y-181779920D01*
X33045792Y-181778219D01*
X33289431Y-181714074D01*
X33298251Y-181711037D01*
X33529736Y-181611583D01*
X33538008Y-181607276D01*
X33752249Y-181474700D01*
X33759188Y-181469658D01*
X33767518Y-181457019D01*
X33761456Y-181446666D01*
X32732812Y-180418022D01*
X32718868Y-180410408D01*
X32717035Y-180410539D01*
X32710420Y-180414790D01*
X31682270Y-181442940D01*
X31675612Y-181455133D01*
X25577800Y-181455133D01*
X25577800Y-180004523D01*
X30957898Y-180004523D01*
X30969987Y-180256175D01*
X30971124Y-180265435D01*
X31020274Y-180512535D01*
X31022768Y-180521528D01*
X31107900Y-180758639D01*
X31111700Y-180767174D01*
X31230946Y-180989101D01*
X31235957Y-180996968D01*
X31299446Y-181081990D01*
X31310704Y-181090439D01*
X31323123Y-181083667D01*
X32347978Y-180058812D01*
X32354356Y-180047132D01*
X33084408Y-180047132D01*
X33084539Y-180048965D01*
X33088790Y-180055580D01*
X34119913Y-181086703D01*
X34132293Y-181093463D01*
X34140634Y-181087219D01*
X34266765Y-180891127D01*
X34271212Y-180882936D01*
X34374691Y-180653222D01*
X34377882Y-180644455D01*
X34446269Y-180401976D01*
X34448129Y-180392834D01*
X34480116Y-180141396D01*
X34480597Y-180135108D01*
X34482847Y-180049160D01*
X34482696Y-180042851D01*
X34463912Y-179790074D01*
X34462536Y-179780868D01*
X34406929Y-179535126D01*
X34404205Y-179526215D01*
X34312888Y-179291392D01*
X34308877Y-179282983D01*
X34183854Y-179064240D01*
X34178643Y-179056514D01*
X34141391Y-179009261D01*
X34129466Y-179000790D01*
X34117934Y-179007276D01*
X33092022Y-180033188D01*
X33084408Y-180047132D01*
X32354356Y-180047132D01*
X32355592Y-180044868D01*
X32355461Y-180043035D01*
X32351210Y-180036420D01*
X31321321Y-179006531D01*
X31308013Y-178999264D01*
X31297974Y-179006386D01*
X31287761Y-179018666D01*
X31282346Y-179026258D01*
X31151646Y-179241646D01*
X31147408Y-179249963D01*
X31049981Y-179482299D01*
X31047020Y-179491149D01*
X30985006Y-179735331D01*
X30983384Y-179744528D01*
X30958143Y-179995198D01*
X30957898Y-180004523D01*
X25577800Y-180004523D01*
X25577800Y-178634803D01*
X31673216Y-178634803D01*
X31677789Y-178644579D01*
X32707188Y-179673978D01*
X32721132Y-179681592D01*
X32722965Y-179681461D01*
X32729580Y-179677210D01*
X33758419Y-178648371D01*
X33764803Y-178636681D01*
X33755391Y-178624570D01*
X33618593Y-178529670D01*
X33610565Y-178524942D01*
X33384593Y-178413505D01*
X33375960Y-178410017D01*
X33135998Y-178333205D01*
X33126938Y-178331029D01*
X32878260Y-178290529D01*
X32868973Y-178289717D01*
X32617053Y-178286419D01*
X32607742Y-178286989D01*
X32358097Y-178320964D01*
X32348978Y-178322902D01*
X32107098Y-178393404D01*
X32098367Y-178396667D01*
X31869558Y-178502151D01*
X31861406Y-178506670D01*
X31682353Y-178624062D01*
X31673216Y-178634803D01*
X25577800Y-178634803D01*
X25577800Y-173778439D01*
X31291700Y-173778439D01*
X31291701Y-176313560D01*
X31302045Y-176365569D01*
X31341453Y-176424547D01*
X31400431Y-176463955D01*
X31452439Y-176474300D01*
X32719590Y-176474300D01*
X33987560Y-176474299D01*
X34039569Y-176463955D01*
X34098547Y-176424547D01*
X34137955Y-176365569D01*
X34148300Y-176313561D01*
X34148299Y-173778440D01*
X34137955Y-173726431D01*
X34098547Y-173667453D01*
X34039569Y-173628045D01*
X33987561Y-173617700D01*
X32720410Y-173617700D01*
X31452440Y-173617701D01*
X31400431Y-173628045D01*
X31341453Y-173667453D01*
X31302045Y-173726431D01*
X31291700Y-173778439D01*
X25577800Y-173778439D01*
X25577800Y-164709568D01*
X30874029Y-164709568D01*
X30913835Y-164875373D01*
X30992042Y-165026896D01*
X31104135Y-165155391D01*
X31243643Y-165253438D01*
X31339512Y-165290816D01*
X31395431Y-165312618D01*
X31395434Y-165312619D01*
X31402511Y-165315378D01*
X31410044Y-165316370D01*
X31410045Y-165316370D01*
X31528477Y-165331962D01*
X31528478Y-165331962D01*
X31532564Y-165332500D01*
X31621756Y-165332500D01*
X31748281Y-165317189D01*
X31907789Y-165256916D01*
X32048316Y-165160334D01*
X32057823Y-165149664D01*
X32156695Y-165038693D01*
X32156697Y-165038690D01*
X32161748Y-165033021D01*
X32241538Y-164882324D01*
X32243388Y-164874959D01*
X32281227Y-164724317D01*
X32281227Y-164724313D01*
X32283078Y-164716946D01*
X32283157Y-164701974D01*
X32283931Y-164554026D01*
X32283971Y-164546432D01*
X32244165Y-164380627D01*
X32165958Y-164229104D01*
X32053865Y-164100609D01*
X31914357Y-164002562D01*
X31818488Y-163965184D01*
X31762569Y-163943382D01*
X31762566Y-163943381D01*
X31755489Y-163940622D01*
X31747956Y-163939630D01*
X31747955Y-163939630D01*
X31629523Y-163924038D01*
X31629522Y-163924038D01*
X31625436Y-163923500D01*
X31536244Y-163923500D01*
X31409719Y-163938811D01*
X31250211Y-163999084D01*
X31109684Y-164095666D01*
X31104632Y-164101336D01*
X31104631Y-164101337D01*
X31001305Y-164217307D01*
X31001303Y-164217310D01*
X30996252Y-164222979D01*
X30916462Y-164373676D01*
X30914612Y-164381041D01*
X30912863Y-164388006D01*
X30874922Y-164539054D01*
X30874882Y-164546653D01*
X30874882Y-164546655D01*
X30874511Y-164617571D01*
X30874029Y-164709568D01*
X25577800Y-164709568D01*
X25577800Y-160309568D01*
X30874029Y-160309568D01*
X30913835Y-160475373D01*
X30992042Y-160626896D01*
X31104135Y-160755391D01*
X31243643Y-160853438D01*
X31339512Y-160890816D01*
X31395431Y-160912618D01*
X31395434Y-160912619D01*
X31402511Y-160915378D01*
X31410044Y-160916370D01*
X31410045Y-160916370D01*
X31528477Y-160931962D01*
X31528478Y-160931962D01*
X31532564Y-160932500D01*
X31621756Y-160932500D01*
X31748281Y-160917189D01*
X31907789Y-160856916D01*
X32048316Y-160760334D01*
X32057823Y-160749664D01*
X32156695Y-160638693D01*
X32156697Y-160638690D01*
X32161748Y-160633021D01*
X32241538Y-160482324D01*
X32243388Y-160474959D01*
X32281227Y-160324317D01*
X32281227Y-160324313D01*
X32283078Y-160316946D01*
X32283157Y-160301974D01*
X32283931Y-160154026D01*
X32283971Y-160146432D01*
X32244165Y-159980627D01*
X32165958Y-159829104D01*
X32053865Y-159700609D01*
X31914357Y-159602562D01*
X31818488Y-159565184D01*
X31762569Y-159543382D01*
X31762566Y-159543381D01*
X31755489Y-159540622D01*
X31747956Y-159539630D01*
X31747955Y-159539630D01*
X31629523Y-159524038D01*
X31629522Y-159524038D01*
X31625436Y-159523500D01*
X31536244Y-159523500D01*
X31409719Y-159538811D01*
X31250211Y-159599084D01*
X31109684Y-159695666D01*
X31104632Y-159701336D01*
X31104631Y-159701337D01*
X31001305Y-159817307D01*
X31001303Y-159817310D01*
X30996252Y-159822979D01*
X30916462Y-159973676D01*
X30914612Y-159981041D01*
X30912863Y-159988006D01*
X30874922Y-160139054D01*
X30874882Y-160146653D01*
X30874882Y-160146655D01*
X30874511Y-160217571D01*
X30874029Y-160309568D01*
X25577800Y-160309568D01*
X25577800Y-153945439D01*
X38087700Y-153945439D01*
X38087701Y-155680560D01*
X38088908Y-155686628D01*
X38088908Y-155686629D01*
X38090031Y-155692274D01*
X38098045Y-155732569D01*
X38104940Y-155742888D01*
X38104941Y-155742890D01*
X38117057Y-155761023D01*
X38137453Y-155791547D01*
X38196431Y-155830955D01*
X38248439Y-155841300D01*
X39115719Y-155841300D01*
X39983560Y-155841299D01*
X40035569Y-155830955D01*
X40046525Y-155823635D01*
X40084231Y-155798440D01*
X40094547Y-155791547D01*
X40133955Y-155732569D01*
X40144300Y-155680561D01*
X40144299Y-154798573D01*
X40622825Y-154798573D01*
X40624332Y-154816522D01*
X40638441Y-154984542D01*
X40639699Y-154999526D01*
X40653970Y-155049294D01*
X40685172Y-155158108D01*
X40695284Y-155193374D01*
X40787463Y-155372734D01*
X40791289Y-155377561D01*
X40908894Y-155525944D01*
X40908899Y-155525949D01*
X40912723Y-155530774D01*
X40917416Y-155534768D01*
X40917417Y-155534769D01*
X40948555Y-155561269D01*
X41066295Y-155661474D01*
X41071673Y-155664480D01*
X41071675Y-155664481D01*
X41121405Y-155692274D01*
X41242329Y-155759856D01*
X41434119Y-155822172D01*
X41634361Y-155846049D01*
X41640496Y-155845577D01*
X41640498Y-155845577D01*
X41829285Y-155831051D01*
X41829290Y-155831050D01*
X41835426Y-155830578D01*
X41841356Y-155828922D01*
X41841358Y-155828922D01*
X41975221Y-155791547D01*
X42029658Y-155776348D01*
X42035147Y-155773575D01*
X42035153Y-155773573D01*
X42163615Y-155708681D01*
X42209657Y-155685424D01*
X42215882Y-155680561D01*
X42266202Y-155641246D01*
X42368567Y-155561269D01*
X42372593Y-155556605D01*
X42372596Y-155556602D01*
X42496307Y-155413282D01*
X42496308Y-155413280D01*
X42500336Y-155408614D01*
X42599945Y-155233271D01*
X42631771Y-155137596D01*
X42661653Y-155047769D01*
X42661654Y-155047766D01*
X42663598Y-155041921D01*
X42688873Y-154841851D01*
X42689276Y-154813000D01*
X42687861Y-154798573D01*
X43162825Y-154798573D01*
X43164332Y-154816522D01*
X43178441Y-154984542D01*
X43179699Y-154999526D01*
X43193970Y-155049294D01*
X43225172Y-155158108D01*
X43235284Y-155193374D01*
X43327463Y-155372734D01*
X43331289Y-155377561D01*
X43448894Y-155525944D01*
X43448899Y-155525949D01*
X43452723Y-155530774D01*
X43457416Y-155534768D01*
X43457417Y-155534769D01*
X43488555Y-155561269D01*
X43606295Y-155661474D01*
X43611673Y-155664480D01*
X43611675Y-155664481D01*
X43661405Y-155692274D01*
X43782329Y-155759856D01*
X43974119Y-155822172D01*
X44174361Y-155846049D01*
X44180496Y-155845577D01*
X44180498Y-155845577D01*
X44369285Y-155831051D01*
X44369290Y-155831050D01*
X44375426Y-155830578D01*
X44381356Y-155828922D01*
X44381358Y-155828922D01*
X44515221Y-155791547D01*
X44569658Y-155776348D01*
X44575147Y-155773575D01*
X44575153Y-155773573D01*
X44703615Y-155708681D01*
X44749657Y-155685424D01*
X44755882Y-155680561D01*
X44806202Y-155641246D01*
X44908567Y-155561269D01*
X44912593Y-155556605D01*
X44912596Y-155556602D01*
X45036307Y-155413282D01*
X45036308Y-155413280D01*
X45040336Y-155408614D01*
X45139945Y-155233271D01*
X45171771Y-155137596D01*
X45201653Y-155047769D01*
X45201654Y-155047766D01*
X45203598Y-155041921D01*
X45228873Y-154841851D01*
X45229276Y-154813000D01*
X45227861Y-154798573D01*
X45702825Y-154798573D01*
X45704332Y-154816522D01*
X45718441Y-154984542D01*
X45719699Y-154999526D01*
X45733970Y-155049294D01*
X45765172Y-155158108D01*
X45775284Y-155193374D01*
X45867463Y-155372734D01*
X45871289Y-155377561D01*
X45988894Y-155525944D01*
X45988899Y-155525949D01*
X45992723Y-155530774D01*
X45997416Y-155534768D01*
X45997417Y-155534769D01*
X46028555Y-155561269D01*
X46146295Y-155661474D01*
X46151673Y-155664480D01*
X46151675Y-155664481D01*
X46201405Y-155692274D01*
X46322329Y-155759856D01*
X46514119Y-155822172D01*
X46714361Y-155846049D01*
X46720496Y-155845577D01*
X46720498Y-155845577D01*
X46909285Y-155831051D01*
X46909290Y-155831050D01*
X46915426Y-155830578D01*
X46921356Y-155828922D01*
X46921358Y-155828922D01*
X47055221Y-155791547D01*
X47109658Y-155776348D01*
X47115147Y-155773575D01*
X47115153Y-155773573D01*
X47243615Y-155708681D01*
X47289657Y-155685424D01*
X47295882Y-155680561D01*
X47346202Y-155641246D01*
X47448567Y-155561269D01*
X47452593Y-155556605D01*
X47452596Y-155556602D01*
X47576307Y-155413282D01*
X47576308Y-155413280D01*
X47580336Y-155408614D01*
X47679945Y-155233271D01*
X47711771Y-155137596D01*
X47741653Y-155047769D01*
X47741654Y-155047766D01*
X47743598Y-155041921D01*
X47768873Y-154841851D01*
X47769276Y-154813000D01*
X47767861Y-154798573D01*
X48242825Y-154798573D01*
X48244332Y-154816522D01*
X48258441Y-154984542D01*
X48259699Y-154999526D01*
X48273970Y-155049294D01*
X48305172Y-155158108D01*
X48315284Y-155193374D01*
X48407463Y-155372734D01*
X48411289Y-155377561D01*
X48528894Y-155525944D01*
X48528899Y-155525949D01*
X48532723Y-155530774D01*
X48537416Y-155534768D01*
X48537417Y-155534769D01*
X48568555Y-155561269D01*
X48686295Y-155661474D01*
X48691673Y-155664480D01*
X48691675Y-155664481D01*
X48741405Y-155692274D01*
X48862329Y-155759856D01*
X49054119Y-155822172D01*
X49254361Y-155846049D01*
X49260496Y-155845577D01*
X49260498Y-155845577D01*
X49449285Y-155831051D01*
X49449290Y-155831050D01*
X49455426Y-155830578D01*
X49461356Y-155828922D01*
X49461358Y-155828922D01*
X49595221Y-155791547D01*
X49649658Y-155776348D01*
X49655147Y-155773575D01*
X49655153Y-155773573D01*
X49783615Y-155708681D01*
X49829657Y-155685424D01*
X49835882Y-155680561D01*
X49886202Y-155641246D01*
X49988567Y-155561269D01*
X49992593Y-155556605D01*
X49992596Y-155556602D01*
X50116307Y-155413282D01*
X50116308Y-155413280D01*
X50120336Y-155408614D01*
X50219945Y-155233271D01*
X50251771Y-155137596D01*
X50281653Y-155047769D01*
X50281654Y-155047766D01*
X50283598Y-155041921D01*
X50308873Y-154841851D01*
X50309276Y-154813000D01*
X50289597Y-154612302D01*
X50285331Y-154598170D01*
X50238761Y-154443925D01*
X50231311Y-154419249D01*
X50136638Y-154241194D01*
X50064854Y-154153178D01*
X50013077Y-154089693D01*
X50013074Y-154089690D01*
X50009182Y-154084918D01*
X50002602Y-154079474D01*
X49858549Y-153960303D01*
X49858550Y-153960303D01*
X49853801Y-153956375D01*
X49848384Y-153953446D01*
X49848381Y-153953444D01*
X49681831Y-153863391D01*
X49681826Y-153863389D01*
X49676411Y-153860461D01*
X49483769Y-153800828D01*
X49477644Y-153800184D01*
X49477643Y-153800184D01*
X49289342Y-153780393D01*
X49289341Y-153780393D01*
X49283214Y-153779749D01*
X49228812Y-153784700D01*
X49088522Y-153797467D01*
X49088519Y-153797468D01*
X49082383Y-153798026D01*
X49076477Y-153799764D01*
X49076473Y-153799765D01*
X48930305Y-153842785D01*
X48888928Y-153854963D01*
X48883463Y-153857820D01*
X48878411Y-153860461D01*
X48710216Y-153948392D01*
X48705411Y-153952255D01*
X48705410Y-153952256D01*
X48703839Y-153953519D01*
X48553055Y-154074753D01*
X48423430Y-154229233D01*
X48420467Y-154234622D01*
X48420464Y-154234627D01*
X48340228Y-154380577D01*
X48326280Y-154405949D01*
X48324419Y-154411816D01*
X48324418Y-154411818D01*
X48295070Y-154504336D01*
X48265304Y-154598170D01*
X48242825Y-154798573D01*
X47767861Y-154798573D01*
X47749597Y-154612302D01*
X47745331Y-154598170D01*
X47698761Y-154443925D01*
X47691311Y-154419249D01*
X47596638Y-154241194D01*
X47524854Y-154153178D01*
X47473077Y-154089693D01*
X47473074Y-154089690D01*
X47469182Y-154084918D01*
X47462602Y-154079474D01*
X47318549Y-153960303D01*
X47318550Y-153960303D01*
X47313801Y-153956375D01*
X47308384Y-153953446D01*
X47308381Y-153953444D01*
X47141831Y-153863391D01*
X47141826Y-153863389D01*
X47136411Y-153860461D01*
X46943769Y-153800828D01*
X46937644Y-153800184D01*
X46937643Y-153800184D01*
X46749342Y-153780393D01*
X46749341Y-153780393D01*
X46743214Y-153779749D01*
X46688812Y-153784700D01*
X46548522Y-153797467D01*
X46548519Y-153797468D01*
X46542383Y-153798026D01*
X46536477Y-153799764D01*
X46536473Y-153799765D01*
X46390305Y-153842785D01*
X46348928Y-153854963D01*
X46343463Y-153857820D01*
X46338411Y-153860461D01*
X46170216Y-153948392D01*
X46165411Y-153952255D01*
X46165410Y-153952256D01*
X46163839Y-153953519D01*
X46013055Y-154074753D01*
X45883430Y-154229233D01*
X45880467Y-154234622D01*
X45880464Y-154234627D01*
X45800228Y-154380577D01*
X45786280Y-154405949D01*
X45784419Y-154411816D01*
X45784418Y-154411818D01*
X45755070Y-154504336D01*
X45725304Y-154598170D01*
X45702825Y-154798573D01*
X45227861Y-154798573D01*
X45209597Y-154612302D01*
X45205331Y-154598170D01*
X45158761Y-154443925D01*
X45151311Y-154419249D01*
X45056638Y-154241194D01*
X44984854Y-154153178D01*
X44933077Y-154089693D01*
X44933074Y-154089690D01*
X44929182Y-154084918D01*
X44922602Y-154079474D01*
X44778549Y-153960303D01*
X44778550Y-153960303D01*
X44773801Y-153956375D01*
X44768384Y-153953446D01*
X44768381Y-153953444D01*
X44601831Y-153863391D01*
X44601826Y-153863389D01*
X44596411Y-153860461D01*
X44403769Y-153800828D01*
X44397644Y-153800184D01*
X44397643Y-153800184D01*
X44209342Y-153780393D01*
X44209341Y-153780393D01*
X44203214Y-153779749D01*
X44148812Y-153784700D01*
X44008522Y-153797467D01*
X44008519Y-153797468D01*
X44002383Y-153798026D01*
X43996477Y-153799764D01*
X43996473Y-153799765D01*
X43850305Y-153842785D01*
X43808928Y-153854963D01*
X43803463Y-153857820D01*
X43798411Y-153860461D01*
X43630216Y-153948392D01*
X43625411Y-153952255D01*
X43625410Y-153952256D01*
X43623839Y-153953519D01*
X43473055Y-154074753D01*
X43343430Y-154229233D01*
X43340467Y-154234622D01*
X43340464Y-154234627D01*
X43260228Y-154380577D01*
X43246280Y-154405949D01*
X43244419Y-154411816D01*
X43244418Y-154411818D01*
X43215070Y-154504336D01*
X43185304Y-154598170D01*
X43162825Y-154798573D01*
X42687861Y-154798573D01*
X42669597Y-154612302D01*
X42665331Y-154598170D01*
X42618761Y-154443925D01*
X42611311Y-154419249D01*
X42516638Y-154241194D01*
X42444854Y-154153178D01*
X42393077Y-154089693D01*
X42393074Y-154089690D01*
X42389182Y-154084918D01*
X42382602Y-154079474D01*
X42238549Y-153960303D01*
X42238550Y-153960303D01*
X42233801Y-153956375D01*
X42228384Y-153953446D01*
X42228381Y-153953444D01*
X42061831Y-153863391D01*
X42061826Y-153863389D01*
X42056411Y-153860461D01*
X41863769Y-153800828D01*
X41857644Y-153800184D01*
X41857643Y-153800184D01*
X41669342Y-153780393D01*
X41669341Y-153780393D01*
X41663214Y-153779749D01*
X41608812Y-153784700D01*
X41468522Y-153797467D01*
X41468519Y-153797468D01*
X41462383Y-153798026D01*
X41456477Y-153799764D01*
X41456473Y-153799765D01*
X41310305Y-153842785D01*
X41268928Y-153854963D01*
X41263463Y-153857820D01*
X41258411Y-153860461D01*
X41090216Y-153948392D01*
X41085411Y-153952255D01*
X41085410Y-153952256D01*
X41083839Y-153953519D01*
X40933055Y-154074753D01*
X40803430Y-154229233D01*
X40800467Y-154234622D01*
X40800464Y-154234627D01*
X40720228Y-154380577D01*
X40706280Y-154405949D01*
X40704419Y-154411816D01*
X40704418Y-154411818D01*
X40675070Y-154504336D01*
X40645304Y-154598170D01*
X40622825Y-154798573D01*
X40144299Y-154798573D01*
X40144299Y-153945440D01*
X40133955Y-153893431D01*
X40110161Y-153857820D01*
X40101440Y-153844769D01*
X40094547Y-153834453D01*
X40035569Y-153795045D01*
X39983561Y-153784700D01*
X39116281Y-153784700D01*
X38248440Y-153784701D01*
X38196431Y-153795045D01*
X38137453Y-153834453D01*
X38098045Y-153893431D01*
X38087700Y-153945439D01*
X25577800Y-153945439D01*
X25577800Y-146806037D01*
X41509468Y-146806037D01*
X41510632Y-146814939D01*
X41510632Y-146814942D01*
X41526246Y-146934346D01*
X41526247Y-146934350D01*
X41527411Y-146943251D01*
X41583144Y-147069914D01*
X41672187Y-147175843D01*
X41787381Y-147252523D01*
X41880790Y-147281706D01*
X41910898Y-147291113D01*
X41910899Y-147291113D01*
X41919467Y-147293790D01*
X41985099Y-147294992D01*
X42048848Y-147296161D01*
X42048851Y-147296161D01*
X42057826Y-147296325D01*
X42066489Y-147293963D01*
X42066491Y-147293963D01*
X42182671Y-147262289D01*
X42191335Y-147259927D01*
X42309262Y-147187519D01*
X42326049Y-147168973D01*
X42369795Y-147120644D01*
X42430339Y-147083563D01*
X42463210Y-147079200D01*
X42674262Y-147079200D01*
X42742383Y-147099202D01*
X42770712Y-147124124D01*
X42808406Y-147168966D01*
X42814187Y-147175843D01*
X42929381Y-147252523D01*
X43022790Y-147281706D01*
X43052898Y-147291113D01*
X43052899Y-147291113D01*
X43061467Y-147293790D01*
X43127099Y-147294992D01*
X43190848Y-147296161D01*
X43190851Y-147296161D01*
X43199826Y-147296325D01*
X43208489Y-147293963D01*
X43208491Y-147293963D01*
X43324671Y-147262289D01*
X43333335Y-147259927D01*
X43451262Y-147187519D01*
X43544127Y-147084924D01*
X43604464Y-146960389D01*
X43627422Y-146823925D01*
X43627568Y-146812000D01*
X43625444Y-146797165D01*
X43609223Y-146683903D01*
X43609222Y-146683901D01*
X43607950Y-146675016D01*
X43550674Y-146549043D01*
X43460344Y-146444210D01*
X43344221Y-146368943D01*
X43335619Y-146366371D01*
X43335616Y-146366369D01*
X43220244Y-146331866D01*
X43220245Y-146331866D01*
X43211641Y-146329293D01*
X43202665Y-146329238D01*
X43202664Y-146329238D01*
X43143441Y-146328877D01*
X43073262Y-146328448D01*
X43064631Y-146330915D01*
X43064629Y-146330915D01*
X42948841Y-146364007D01*
X42948838Y-146364008D01*
X42940207Y-146366475D01*
X42823173Y-146440318D01*
X42769539Y-146501048D01*
X42768515Y-146502207D01*
X42708429Y-146540026D01*
X42674073Y-146544800D01*
X42462772Y-146544800D01*
X42394651Y-146524798D01*
X42367319Y-146501048D01*
X42324204Y-146451010D01*
X42324201Y-146451007D01*
X42318344Y-146444210D01*
X42202221Y-146368943D01*
X42193619Y-146366371D01*
X42193616Y-146366369D01*
X42078244Y-146331866D01*
X42078245Y-146331866D01*
X42069641Y-146329293D01*
X42060665Y-146329238D01*
X42060664Y-146329238D01*
X42001441Y-146328877D01*
X41931262Y-146328448D01*
X41922631Y-146330915D01*
X41922629Y-146330915D01*
X41806841Y-146364007D01*
X41806838Y-146364008D01*
X41798207Y-146366475D01*
X41681173Y-146440318D01*
X41589569Y-146544040D01*
X41530758Y-146669303D01*
X41529378Y-146678168D01*
X41529377Y-146678170D01*
X41528485Y-146683903D01*
X41509468Y-146806037D01*
X25577800Y-146806037D01*
X25577800Y-138926190D01*
X26334759Y-138926190D01*
X26334931Y-138929585D01*
X26334931Y-138929586D01*
X26348191Y-139191346D01*
X26353272Y-139291647D01*
X26353809Y-139295002D01*
X26353810Y-139295008D01*
X26359449Y-139330213D01*
X26411146Y-139652967D01*
X26507704Y-140005923D01*
X26519632Y-140036204D01*
X26637331Y-140335000D01*
X26641816Y-140346387D01*
X26643399Y-140349402D01*
X26810330Y-140667359D01*
X26810335Y-140667367D01*
X26811914Y-140670375D01*
X26813808Y-140673193D01*
X26813813Y-140673202D01*
X26834187Y-140703521D01*
X27016007Y-140974098D01*
X27251708Y-141254002D01*
X27379733Y-141376346D01*
X27513797Y-141504461D01*
X27513804Y-141504467D01*
X27516260Y-141506814D01*
X27806569Y-141729575D01*
X27809482Y-141731346D01*
X28116322Y-141917908D01*
X28116327Y-141917911D01*
X28119237Y-141919680D01*
X28122325Y-141921126D01*
X28122324Y-141921126D01*
X28447524Y-142073462D01*
X28447534Y-142073466D01*
X28450608Y-142074906D01*
X28453826Y-142076008D01*
X28453829Y-142076009D01*
X28793582Y-142192333D01*
X28793590Y-142192335D01*
X28796805Y-142193436D01*
X29153778Y-142273883D01*
X29237166Y-142283384D01*
X29513968Y-142314922D01*
X29513976Y-142314922D01*
X29517351Y-142315307D01*
X29520755Y-142315325D01*
X29520758Y-142315325D01*
X29719775Y-142316367D01*
X29883272Y-142317223D01*
X29886658Y-142316873D01*
X29886660Y-142316873D01*
X30243867Y-142279959D01*
X30243875Y-142279958D01*
X30247259Y-142279608D01*
X30250592Y-142278893D01*
X30250595Y-142278893D01*
X30426847Y-142241108D01*
X30605055Y-142202904D01*
X30952474Y-142088006D01*
X31285452Y-141936259D01*
X31381431Y-141879271D01*
X31597149Y-141751187D01*
X31597154Y-141751184D01*
X31600094Y-141749438D01*
X31624191Y-141731346D01*
X31889982Y-141531784D01*
X31892719Y-141529729D01*
X31895222Y-141527387D01*
X32157407Y-141282039D01*
X32157410Y-141282036D01*
X32159904Y-141279702D01*
X32182010Y-141254002D01*
X32396297Y-141004869D01*
X32398523Y-141002281D01*
X32507340Y-140843951D01*
X32603856Y-140703521D01*
X32603861Y-140703514D01*
X32605786Y-140700712D01*
X32607398Y-140697718D01*
X32607403Y-140697710D01*
X32777645Y-140381535D01*
X32779267Y-140378523D01*
X32916937Y-140039482D01*
X33017186Y-139687557D01*
X33078840Y-139326862D01*
X33080789Y-139295008D01*
X33101068Y-138963449D01*
X33101180Y-138961619D01*
X33101262Y-138938000D01*
X33081473Y-138572610D01*
X33022338Y-138211494D01*
X32924549Y-137858877D01*
X32918841Y-137844531D01*
X32790509Y-137522049D01*
X32790505Y-137522041D01*
X32789249Y-137518884D01*
X32783577Y-137508172D01*
X32619616Y-137198501D01*
X32619614Y-137198497D01*
X32618022Y-137195491D01*
X32546943Y-137090508D01*
X32414785Y-136895312D01*
X32414779Y-136895305D01*
X32412869Y-136892483D01*
X32176192Y-136613403D01*
X31910759Y-136361516D01*
X31908052Y-136359454D01*
X31908044Y-136359447D01*
X31743703Y-136234254D01*
X31619675Y-136139770D01*
X31587778Y-136120529D01*
X31309260Y-135952515D01*
X31309254Y-135952512D01*
X31306345Y-135950757D01*
X30974435Y-135796689D01*
X30801130Y-135738029D01*
X30631053Y-135680461D01*
X30631048Y-135680460D01*
X30627826Y-135679369D01*
X30425098Y-135634425D01*
X30273910Y-135600907D01*
X30273904Y-135600906D01*
X30270575Y-135600168D01*
X30267186Y-135599794D01*
X30267181Y-135599793D01*
X29910240Y-135560386D01*
X29910235Y-135560386D01*
X29906859Y-135560013D01*
X29903460Y-135560007D01*
X29903459Y-135560007D01*
X29730188Y-135559705D01*
X29540934Y-135559375D01*
X29424612Y-135571806D01*
X29180463Y-135597897D01*
X29180455Y-135597898D01*
X29177080Y-135598259D01*
X28819554Y-135676213D01*
X28472538Y-135792323D01*
X28469445Y-135793746D01*
X28469444Y-135793746D01*
X28459921Y-135798126D01*
X28140092Y-135945231D01*
X28137158Y-135946987D01*
X28137156Y-135946988D01*
X28127921Y-135952515D01*
X27826104Y-136133149D01*
X27534248Y-136353878D01*
X27267937Y-136604836D01*
X27030287Y-136883088D01*
X26824079Y-137185379D01*
X26651723Y-137508172D01*
X26650448Y-137511344D01*
X26650446Y-137511348D01*
X26646145Y-137522049D01*
X26515238Y-137847691D01*
X26514319Y-137850959D01*
X26514317Y-137850966D01*
X26511168Y-137862170D01*
X26416218Y-138199964D01*
X26415656Y-138203321D01*
X26415656Y-138203322D01*
X26394885Y-138327448D01*
X26355823Y-138560871D01*
X26334759Y-138926190D01*
X25577800Y-138926190D01*
X25577800Y-134923800D01*
X25597802Y-134855679D01*
X25651458Y-134809186D01*
X25703800Y-134797800D01*
X34926000Y-134797800D01*
X34994121Y-134817802D01*
G37*
G04 #@! TD.AperFunction*
M02*
