M48
INCH,TZ
T1C0.0120
T2C0.0394
T3C0.0472
T4C0.0512
T5C0.1260
%
G90
G05
T1
X13150Y-58600
X13450Y-58600
X13859Y-61448
X13859Y-66448
X14100Y-54650
X14100Y-54950
X14450Y-54650
X14450Y-54950
X15200Y-56300
X15350Y-64400
X15550Y-55600
X15550Y-55950
X15550Y-56300
X15550Y-56650
X15550Y-57000
X15600Y-58250
X15650Y-64400
X15900Y-56300
X15900Y-58250
X16050Y-54250
X16050Y-54600
X16500Y-57800
X17050Y-57800
X17700Y-54650
X17700Y-54950
X18300Y-55450
X18650Y-55450
X19000Y-55450
X19350Y-55450
X19700Y-55450
X20100Y-68050
X20250Y-64400
X20450Y-68050
X20550Y-64400
X20600Y-67250
X20600Y-67650
X20800Y-68050
X22900Y-58550
X22900Y-59100
X22900Y-59650
X23400Y-58100
X23400Y-60150
X23950Y-58100
X23950Y-60150
X24050Y-68650
X24050Y-69000
X24050Y-69350
X24050Y-69700
X24050Y-70050
X24450Y-68650
X24450Y-69000
X24450Y-69350
X24450Y-69700
X24450Y-70050
X24500Y-58100
X24500Y-60150
X24950Y-67350
X25000Y-58550
X25000Y-59100
X25000Y-59650
X25300Y-67350
X25650Y-67250
X25650Y-67600
X25650Y-67950
X26000Y-67350
X26400Y-67350
X26950Y-68000
X27200Y-67800
X27650Y-70800
X28000Y-70800
X28350Y-70800
X28650Y-56100
X28950Y-56100
X29150Y-70250
X30250Y-70250
X30750Y-62300
X30950Y-60350
X31400Y-70800
X31750Y-70800
X31800Y-62350
X31800Y-62650
X31800Y-62950
X31800Y-64000
X31800Y-64300
X31800Y-64600
X32100Y-70800
X32819Y-60464
X33685Y-60298
X33685Y-60600
X35050Y-66000
X35050Y-66300
X35150Y-60400
X35150Y-73650
X35450Y-60300
X35600Y-60800
X35600Y-61200
T2
X15400Y-60950
X16400Y-60950
X17400Y-60950
X18400Y-60950
X19400Y-60950
T3
X20472Y-72373
X21850Y-72373
X23228Y-72373
X25072Y-72373
X26450Y-72373
X27828Y-72373
X29672Y-72373
X31050Y-72373
X32428Y-72373
X37523Y-57172
X37523Y-58550
X37523Y-59928
T4
X12882Y-68916
X12882Y-70884
T5
X11700Y-54700
X11700Y-73800
X38300Y-54700
X38300Y-73800
T0
M30
