G04 #@! TF.GenerationSoftware,KiCad,Pcbnew,6.0.2+dfsg-1*
G04 #@! TF.CreationDate,2023-08-12T13:44:00-06:00*
G04 #@! TF.ProjectId,ckt-soundplay,636b742d-736f-4756-9e64-706c61792e6b,rev?*
G04 #@! TF.SameCoordinates,Original*
G04 #@! TF.FileFunction,Legend,Bot*
G04 #@! TF.FilePolarity,Positive*
%FSLAX46Y46*%
G04 Gerber Fmt 4.6, Leading zero omitted, Abs format (unit mm)*
G04 Created by KiCad (PCBNEW 6.0.2+dfsg-1) date 2023-08-12 13:44:00*
%MOMM*%
%LPD*%
G01*
G04 APERTURE LIST*
%ADD10C,0.150000*%
%ADD11C,0.120000*%
G04 APERTURE END LIST*
D10*
X83684904Y-189571380D02*
X83113476Y-189571380D01*
X83399190Y-190571380D02*
X83399190Y-189571380D01*
X82780142Y-190571380D02*
X82780142Y-189571380D01*
X82399190Y-189571380D01*
X82303952Y-189619000D01*
X82256333Y-189666619D01*
X82208714Y-189761857D01*
X82208714Y-189904714D01*
X82256333Y-189999952D01*
X82303952Y-190047571D01*
X82399190Y-190095190D01*
X82780142Y-190095190D01*
X81827761Y-189666619D02*
X81780142Y-189619000D01*
X81684904Y-189571380D01*
X81446809Y-189571380D01*
X81351571Y-189619000D01*
X81303952Y-189666619D01*
X81256333Y-189761857D01*
X81256333Y-189857095D01*
X81303952Y-189999952D01*
X81875380Y-190571380D01*
X81256333Y-190571380D01*
X30217904Y-181951380D02*
X29646476Y-181951380D01*
X29932190Y-182951380D02*
X29932190Y-181951380D01*
X29313142Y-182951380D02*
X29313142Y-181951380D01*
X28932190Y-181951380D01*
X28836952Y-181999000D01*
X28789333Y-182046619D01*
X28741714Y-182141857D01*
X28741714Y-182284714D01*
X28789333Y-182379952D01*
X28836952Y-182427571D01*
X28932190Y-182475190D01*
X29313142Y-182475190D01*
X27884571Y-181951380D02*
X28075047Y-181951380D01*
X28170285Y-181999000D01*
X28217904Y-182046619D01*
X28313142Y-182189476D01*
X28360761Y-182379952D01*
X28360761Y-182760904D01*
X28313142Y-182856142D01*
X28265523Y-182903761D01*
X28170285Y-182951380D01*
X27979809Y-182951380D01*
X27884571Y-182903761D01*
X27836952Y-182856142D01*
X27789333Y-182760904D01*
X27789333Y-182522809D01*
X27836952Y-182427571D01*
X27884571Y-182379952D01*
X27979809Y-182332333D01*
X28170285Y-182332333D01*
X28265523Y-182379952D01*
X28313142Y-182427571D01*
X28360761Y-182522809D01*
X100448904Y-149439380D02*
X99877476Y-149439380D01*
X100163190Y-150439380D02*
X100163190Y-149439380D01*
X99544142Y-150439380D02*
X99544142Y-149439380D01*
X99163190Y-149439380D01*
X99067952Y-149487000D01*
X99020333Y-149534619D01*
X98972714Y-149629857D01*
X98972714Y-149772714D01*
X99020333Y-149867952D01*
X99067952Y-149915571D01*
X99163190Y-149963190D01*
X99544142Y-149963190D01*
X98639380Y-149439380D02*
X98020333Y-149439380D01*
X98353666Y-149820333D01*
X98210809Y-149820333D01*
X98115571Y-149867952D01*
X98067952Y-149915571D01*
X98020333Y-150010809D01*
X98020333Y-150248904D01*
X98067952Y-150344142D01*
X98115571Y-150391761D01*
X98210809Y-150439380D01*
X98496523Y-150439380D01*
X98591761Y-150391761D01*
X98639380Y-150344142D01*
X30217904Y-172172380D02*
X29646476Y-172172380D01*
X29932190Y-173172380D02*
X29932190Y-172172380D01*
X29313142Y-173172380D02*
X29313142Y-172172380D01*
X28932190Y-172172380D01*
X28836952Y-172220000D01*
X28789333Y-172267619D01*
X28741714Y-172362857D01*
X28741714Y-172505714D01*
X28789333Y-172600952D01*
X28836952Y-172648571D01*
X28932190Y-172696190D01*
X29313142Y-172696190D01*
X27836952Y-172172380D02*
X28313142Y-172172380D01*
X28360761Y-172648571D01*
X28313142Y-172600952D01*
X28217904Y-172553333D01*
X27979809Y-172553333D01*
X27884571Y-172600952D01*
X27836952Y-172648571D01*
X27789333Y-172743809D01*
X27789333Y-172981904D01*
X27836952Y-173077142D01*
X27884571Y-173124761D01*
X27979809Y-173172380D01*
X28217904Y-173172380D01*
X28313142Y-173124761D01*
X28360761Y-173077142D01*
X100448904Y-147153380D02*
X99877476Y-147153380D01*
X100163190Y-148153380D02*
X100163190Y-147153380D01*
X99544142Y-148153380D02*
X99544142Y-147153380D01*
X99163190Y-147153380D01*
X99067952Y-147201000D01*
X99020333Y-147248619D01*
X98972714Y-147343857D01*
X98972714Y-147486714D01*
X99020333Y-147581952D01*
X99067952Y-147629571D01*
X99163190Y-147677190D01*
X99544142Y-147677190D01*
X98115571Y-147486714D02*
X98115571Y-148153380D01*
X98353666Y-147105761D02*
X98591761Y-147820047D01*
X97972714Y-147820047D01*
X76445904Y-189571380D02*
X75874476Y-189571380D01*
X76160190Y-190571380D02*
X76160190Y-189571380D01*
X75541142Y-190571380D02*
X75541142Y-189571380D01*
X75160190Y-189571380D01*
X75064952Y-189619000D01*
X75017333Y-189666619D01*
X74969714Y-189761857D01*
X74969714Y-189904714D01*
X75017333Y-189999952D01*
X75064952Y-190047571D01*
X75160190Y-190095190D01*
X75541142Y-190095190D01*
X74017333Y-190571380D02*
X74588761Y-190571380D01*
X74303047Y-190571380D02*
X74303047Y-189571380D01*
X74398285Y-189714238D01*
X74493523Y-189809476D01*
X74588761Y-189857095D01*
D11*
X83623000Y-187706000D02*
G75*
G03*
X83623000Y-187706000I-1200000J0D01*
G01*
X30156000Y-180086000D02*
G75*
G03*
X30156000Y-180086000I-1200000J0D01*
G01*
X100387000Y-152273000D02*
G75*
G03*
X100387000Y-152273000I-1200000J0D01*
G01*
X30156000Y-175006000D02*
G75*
G03*
X30156000Y-175006000I-1200000J0D01*
G01*
X100387000Y-145161000D02*
G75*
G03*
X100387000Y-145161000I-1200000J0D01*
G01*
X76511000Y-187706000D02*
G75*
G03*
X76511000Y-187706000I-1200000J0D01*
G01*
M02*
