G04 #@! TF.GenerationSoftware,KiCad,Pcbnew,6.0.2+dfsg-1*
G04 #@! TF.CreationDate,2023-08-12T13:44:00-06:00*
G04 #@! TF.ProjectId,ckt-soundplay,636b742d-736f-4756-9e64-706c61792e6b,rev?*
G04 #@! TF.SameCoordinates,Original*
G04 #@! TF.FileFunction,Soldermask,Bot*
G04 #@! TF.FilePolarity,Negative*
%FSLAX46Y46*%
G04 Gerber Fmt 4.6, Leading zero omitted, Abs format (unit mm)*
G04 Created by KiCad (PCBNEW 6.0.2+dfsg-1) date 2023-08-12 13:44:00*
%MOMM*%
%LPD*%
G01*
G04 APERTURE LIST*
%ADD10C,2.652400*%
%ADD11C,2.452400*%
%ADD12C,6.552400*%
%ADD13O,1.852400X1.852400*%
%ADD14C,1.052400*%
%ADD15C,2.152400*%
G04 APERTURE END LIST*
G36*
G01*
X31470000Y-173719800D02*
X33970000Y-173719800D01*
G75*
G02*
X34046200Y-173796000I0J-76200D01*
G01*
X34046200Y-176296000D01*
G75*
G02*
X33970000Y-176372200I-76200J0D01*
G01*
X31470000Y-176372200D01*
G75*
G02*
X31393800Y-176296000I0J76200D01*
G01*
X31393800Y-173796000D01*
G75*
G02*
X31470000Y-173719800I76200J0D01*
G01*
G37*
D10*
X32720000Y-180046000D03*
G36*
G01*
X50772800Y-184977000D02*
X50772800Y-182677000D01*
G75*
G02*
X50849000Y-182600800I76200J0D01*
G01*
X53149000Y-182600800D01*
G75*
G02*
X53225200Y-182677000I0J-76200D01*
G01*
X53225200Y-184977000D01*
G75*
G02*
X53149000Y-185053200I-76200J0D01*
G01*
X50849000Y-185053200D01*
G75*
G02*
X50772800Y-184977000I0J76200D01*
G01*
G37*
D11*
X55499000Y-183827000D03*
X58999000Y-183827000D03*
D12*
X97282000Y-187452000D03*
X97282000Y-138938000D03*
G36*
G01*
X62456800Y-184977000D02*
X62456800Y-182677000D01*
G75*
G02*
X62533000Y-182600800I76200J0D01*
G01*
X64833000Y-182600800D01*
G75*
G02*
X64909200Y-182677000I0J-76200D01*
G01*
X64909200Y-184977000D01*
G75*
G02*
X64833000Y-185053200I-76200J0D01*
G01*
X62533000Y-185053200D01*
G75*
G02*
X62456800Y-184977000I0J76200D01*
G01*
G37*
D11*
X67183000Y-183827000D03*
X70683000Y-183827000D03*
G36*
G01*
X96458000Y-153443200D02*
X94158000Y-153443200D01*
G75*
G02*
X94081800Y-153367000I0J76200D01*
G01*
X94081800Y-151067000D01*
G75*
G02*
X94158000Y-150990800I76200J0D01*
G01*
X96458000Y-150990800D01*
G75*
G02*
X96534200Y-151067000I0J-76200D01*
G01*
X96534200Y-153367000D01*
G75*
G02*
X96458000Y-153443200I-76200J0D01*
G01*
G37*
X95308000Y-148717000D03*
X95308000Y-145217000D03*
G36*
G01*
X36747000Y-135598800D02*
X38447000Y-135598800D01*
G75*
G02*
X38523200Y-135675000I0J-76200D01*
G01*
X38523200Y-137375000D01*
G75*
G02*
X38447000Y-137451200I-76200J0D01*
G01*
X36747000Y-137451200D01*
G75*
G02*
X36670800Y-137375000I0J76200D01*
G01*
X36670800Y-135675000D01*
G75*
G02*
X36747000Y-135598800I76200J0D01*
G01*
G37*
D13*
X35057000Y-136525000D03*
G36*
G01*
X76498000Y-158839800D02*
X78198000Y-158839800D01*
G75*
G02*
X78274200Y-158916000I0J-76200D01*
G01*
X78274200Y-160616000D01*
G75*
G02*
X78198000Y-160692200I-76200J0D01*
G01*
X76498000Y-160692200D01*
G75*
G02*
X76421800Y-160616000I0J76200D01*
G01*
X76421800Y-158916000D01*
G75*
G02*
X76498000Y-158839800I76200J0D01*
G01*
G37*
X74808000Y-159766000D03*
D14*
X31579000Y-160228000D03*
X31579000Y-164628000D03*
D12*
X29718000Y-187452000D03*
X29718000Y-138938000D03*
G36*
G01*
X74140800Y-184977000D02*
X74140800Y-182677000D01*
G75*
G02*
X74217000Y-182600800I76200J0D01*
G01*
X76517000Y-182600800D01*
G75*
G02*
X76593200Y-182677000I0J-76200D01*
G01*
X76593200Y-184977000D01*
G75*
G02*
X76517000Y-185053200I-76200J0D01*
G01*
X74217000Y-185053200D01*
G75*
G02*
X74140800Y-184977000I0J76200D01*
G01*
G37*
D11*
X78867000Y-183827000D03*
X82367000Y-183827000D03*
G36*
G01*
X39966000Y-155739200D02*
X38266000Y-155739200D01*
G75*
G02*
X38189800Y-155663000I0J76200D01*
G01*
X38189800Y-153963000D01*
G75*
G02*
X38266000Y-153886800I76200J0D01*
G01*
X39966000Y-153886800D01*
G75*
G02*
X40042200Y-153963000I0J-76200D01*
G01*
X40042200Y-155663000D01*
G75*
G02*
X39966000Y-155739200I-76200J0D01*
G01*
G37*
D13*
X41656000Y-154813000D03*
X44196000Y-154813000D03*
X46736000Y-154813000D03*
X49276000Y-154813000D03*
D15*
X82423000Y-187706000D03*
X28956000Y-180086000D03*
X99187000Y-152273000D03*
X28956000Y-175006000D03*
X99187000Y-145161000D03*
X75311000Y-187706000D03*
M02*
