G04 #@! TF.GenerationSoftware,KiCad,Pcbnew,6.0.2+dfsg-1*
G04 #@! TF.CreationDate,2023-06-22T08:15:56-06:00*
G04 #@! TF.ProjectId,ckt-soundplay-test,636b742d-736f-4756-9e64-706c61792d74,rev?*
G04 #@! TF.SameCoordinates,Original*
G04 #@! TF.FileFunction,Soldermask,Bot*
G04 #@! TF.FilePolarity,Negative*
%FSLAX46Y46*%
G04 Gerber Fmt 4.6, Leading zero omitted, Abs format (unit mm)*
G04 Created by KiCad (PCBNEW 6.0.2+dfsg-1) date 2023-06-22 08:15:56*
%MOMM*%
%LPD*%
G01*
G04 APERTURE LIST*
%ADD10C,2.652400*%
%ADD11C,2.452400*%
%ADD12C,6.552400*%
%ADD13O,1.852400X1.852400*%
G04 APERTURE END LIST*
G36*
G01*
X107670000Y-83549800D02*
X110170000Y-83549800D01*
G75*
G02*
X110246200Y-83626000I0J-76200D01*
G01*
X110246200Y-86126000D01*
G75*
G02*
X110170000Y-86202200I-76200J0D01*
G01*
X107670000Y-86202200D01*
G75*
G02*
X107593800Y-86126000I0J76200D01*
G01*
X107593800Y-83626000D01*
G75*
G02*
X107670000Y-83549800I76200J0D01*
G01*
G37*
D10*
X108920000Y-89876000D03*
G36*
G01*
X126972800Y-94807000D02*
X126972800Y-92507000D01*
G75*
G02*
X127049000Y-92430800I76200J0D01*
G01*
X129349000Y-92430800D01*
G75*
G02*
X129425200Y-92507000I0J-76200D01*
G01*
X129425200Y-94807000D01*
G75*
G02*
X129349000Y-94883200I-76200J0D01*
G01*
X127049000Y-94883200D01*
G75*
G02*
X126972800Y-94807000I0J76200D01*
G01*
G37*
D11*
X131699000Y-93657000D03*
X135199000Y-93657000D03*
D12*
X173482000Y-97282000D03*
X90678000Y-112522000D03*
X173482000Y-48768000D03*
G36*
G01*
X123102000Y-107404800D02*
X124802000Y-107404800D01*
G75*
G02*
X124878200Y-107481000I0J-76200D01*
G01*
X124878200Y-109181000D01*
G75*
G02*
X124802000Y-109257200I-76200J0D01*
G01*
X123102000Y-109257200D01*
G75*
G02*
X123025800Y-109181000I0J76200D01*
G01*
X123025800Y-107481000D01*
G75*
G02*
X123102000Y-107404800I76200J0D01*
G01*
G37*
D13*
X121412000Y-108331000D03*
X118872000Y-108331000D03*
G36*
G01*
X138656800Y-94807000D02*
X138656800Y-92507000D01*
G75*
G02*
X138733000Y-92430800I76200J0D01*
G01*
X141033000Y-92430800D01*
G75*
G02*
X141109200Y-92507000I0J-76200D01*
G01*
X141109200Y-94807000D01*
G75*
G02*
X141033000Y-94883200I-76200J0D01*
G01*
X138733000Y-94883200D01*
G75*
G02*
X138656800Y-94807000I0J76200D01*
G01*
G37*
D11*
X143383000Y-93657000D03*
X146883000Y-93657000D03*
G36*
G01*
X172658000Y-63273200D02*
X170358000Y-63273200D01*
G75*
G02*
X170281800Y-63197000I0J76200D01*
G01*
X170281800Y-60897000D01*
G75*
G02*
X170358000Y-60820800I76200J0D01*
G01*
X172658000Y-60820800D01*
G75*
G02*
X172734200Y-60897000I0J-76200D01*
G01*
X172734200Y-63197000D01*
G75*
G02*
X172658000Y-63273200I-76200J0D01*
G01*
G37*
X171508000Y-58547000D03*
X171508000Y-55047000D03*
D12*
X188722000Y-112522000D03*
G36*
G01*
X112947000Y-45428800D02*
X114647000Y-45428800D01*
G75*
G02*
X114723200Y-45505000I0J-76200D01*
G01*
X114723200Y-47205000D01*
G75*
G02*
X114647000Y-47281200I-76200J0D01*
G01*
X112947000Y-47281200D01*
G75*
G02*
X112870800Y-47205000I0J76200D01*
G01*
X112870800Y-45505000D01*
G75*
G02*
X112947000Y-45428800I76200J0D01*
G01*
G37*
D13*
X111257000Y-46355000D03*
G36*
G01*
X152698000Y-68669800D02*
X154398000Y-68669800D01*
G75*
G02*
X154474200Y-68746000I0J-76200D01*
G01*
X154474200Y-70446000D01*
G75*
G02*
X154398000Y-70522200I-76200J0D01*
G01*
X152698000Y-70522200D01*
G75*
G02*
X152621800Y-70446000I0J76200D01*
G01*
X152621800Y-68746000D01*
G75*
G02*
X152698000Y-68669800I76200J0D01*
G01*
G37*
X151008000Y-69596000D03*
D12*
X91313000Y-64516000D03*
X105918000Y-97282000D03*
X105918000Y-48768000D03*
G36*
G01*
X91949800Y-59470000D02*
X91949800Y-57470000D01*
G75*
G02*
X92026000Y-57393800I76200J0D01*
G01*
X96526000Y-57393800D01*
G75*
G02*
X96602200Y-57470000I0J-76200D01*
G01*
X96602200Y-59470000D01*
G75*
G02*
X96526000Y-59546200I-76200J0D01*
G01*
X92026000Y-59546200D01*
G75*
G02*
X91949800Y-59470000I0J76200D01*
G01*
G37*
G36*
G01*
X91949800Y-53470000D02*
X91949800Y-51470000D01*
G75*
G02*
X92026000Y-51393800I76200J0D01*
G01*
X96526000Y-51393800D01*
G75*
G02*
X96602200Y-51470000I0J-76200D01*
G01*
X96602200Y-53470000D01*
G75*
G02*
X96526000Y-53546200I-76200J0D01*
G01*
X92026000Y-53546200D01*
G75*
G02*
X91949800Y-53470000I0J76200D01*
G01*
G37*
G36*
G01*
X88499800Y-57720000D02*
X88499800Y-53220000D01*
G75*
G02*
X88576000Y-53143800I76200J0D01*
G01*
X90576000Y-53143800D01*
G75*
G02*
X90652200Y-53220000I0J-76200D01*
G01*
X90652200Y-57720000D01*
G75*
G02*
X90576000Y-57796200I-76200J0D01*
G01*
X88576000Y-57796200D01*
G75*
G02*
X88499800Y-57720000I0J76200D01*
G01*
G37*
X188722000Y-47498000D03*
G36*
G01*
X150340800Y-94807000D02*
X150340800Y-92507000D01*
G75*
G02*
X150417000Y-92430800I76200J0D01*
G01*
X152717000Y-92430800D01*
G75*
G02*
X152793200Y-92507000I0J-76200D01*
G01*
X152793200Y-94807000D01*
G75*
G02*
X152717000Y-94883200I-76200J0D01*
G01*
X150417000Y-94883200D01*
G75*
G02*
X150340800Y-94807000I0J76200D01*
G01*
G37*
D11*
X155067000Y-93657000D03*
X158567000Y-93657000D03*
G36*
G01*
X116166000Y-65569200D02*
X114466000Y-65569200D01*
G75*
G02*
X114389800Y-65493000I0J76200D01*
G01*
X114389800Y-63793000D01*
G75*
G02*
X114466000Y-63716800I76200J0D01*
G01*
X116166000Y-63716800D01*
G75*
G02*
X116242200Y-63793000I0J-76200D01*
G01*
X116242200Y-65493000D01*
G75*
G02*
X116166000Y-65569200I-76200J0D01*
G01*
G37*
D13*
X117856000Y-64643000D03*
X120396000Y-64643000D03*
X122936000Y-64643000D03*
X125476000Y-64643000D03*
M02*
