G04 #@! TF.GenerationSoftware,KiCad,Pcbnew,6.0.2+dfsg-1*
G04 #@! TF.CreationDate,2023-08-12T13:44:09-06:00*
G04 #@! TF.ProjectId,ckt-soundplay-test,636b742d-736f-4756-9e64-706c61792d74,rev?*
G04 #@! TF.SameCoordinates,Original*
G04 #@! TF.FileFunction,Paste,Top*
G04 #@! TF.FilePolarity,Positive*
%FSLAX46Y46*%
G04 Gerber Fmt 4.6, Leading zero omitted, Abs format (unit mm)*
G04 Created by KiCad (PCBNEW 6.0.2+dfsg-1) date 2023-08-12 13:44:09*
%MOMM*%
%LPD*%
G01*
G04 APERTURE LIST*
%ADD10R,1.400000X2.100000*%
%ADD11R,2.100000X1.400000*%
G04 APERTURE END LIST*
D10*
X183769000Y-102467000D03*
X183769000Y-93367000D03*
X188269000Y-102467000D03*
X188269000Y-93367000D03*
D11*
X142008000Y-107732000D03*
X151108000Y-107732000D03*
X142008000Y-112232000D03*
X151108000Y-112232000D03*
X158772000Y-107732000D03*
X167872000Y-107732000D03*
X158772000Y-112232000D03*
X167872000Y-112232000D03*
G36*
G01*
X134799500Y-106859000D02*
X135712000Y-106859000D01*
G75*
G02*
X135955750Y-107102750I0J-243750D01*
G01*
X135955750Y-107590250D01*
G75*
G02*
X135712000Y-107834000I-243750J0D01*
G01*
X134799500Y-107834000D01*
G75*
G02*
X134555750Y-107590250I0J243750D01*
G01*
X134555750Y-107102750D01*
G75*
G02*
X134799500Y-106859000I243750J0D01*
G01*
G37*
G36*
G01*
X134799500Y-108734000D02*
X135712000Y-108734000D01*
G75*
G02*
X135955750Y-108977750I0J-243750D01*
G01*
X135955750Y-109465250D01*
G75*
G02*
X135712000Y-109709000I-243750J0D01*
G01*
X134799500Y-109709000D01*
G75*
G02*
X134555750Y-109465250I0J243750D01*
G01*
X134555750Y-108977750D01*
G75*
G02*
X134799500Y-108734000I243750J0D01*
G01*
G37*
D10*
X183769000Y-82401000D03*
X183769000Y-73301000D03*
X188269000Y-82401000D03*
X188269000Y-73301000D03*
G36*
G01*
X130879750Y-109732500D02*
X129979750Y-109732500D01*
G75*
G02*
X129729750Y-109482500I0J250000D01*
G01*
X129729750Y-108957500D01*
G75*
G02*
X129979750Y-108707500I250000J0D01*
G01*
X130879750Y-108707500D01*
G75*
G02*
X131129750Y-108957500I0J-250000D01*
G01*
X131129750Y-109482500D01*
G75*
G02*
X130879750Y-109732500I-250000J0D01*
G01*
G37*
G36*
G01*
X130879750Y-107907500D02*
X129979750Y-107907500D01*
G75*
G02*
X129729750Y-107657500I0J250000D01*
G01*
X129729750Y-107132500D01*
G75*
G02*
X129979750Y-106882500I250000J0D01*
G01*
X130879750Y-106882500D01*
G75*
G02*
X131129750Y-107132500I0J-250000D01*
G01*
X131129750Y-107657500D01*
G75*
G02*
X130879750Y-107907500I-250000J0D01*
G01*
G37*
X183769000Y-65637000D03*
X183769000Y-56537000D03*
X188269000Y-65637000D03*
X188269000Y-56537000D03*
D11*
X112268000Y-112232000D03*
X103168000Y-112232000D03*
X112268000Y-107732000D03*
X103168000Y-107732000D03*
M02*
