M48
INCH,TZ
T1C0.0394
T2C0.0450
T3C0.0472
T4C0.0512
T5C0.1260
%
G90
G05
T1
X43802Y-18250
X44802Y-18250
X45400Y-25450
X46400Y-25450
X46800Y-42650
X47400Y-25450
X47800Y-42650
X48400Y-25450
X48800Y-42650
X49400Y-25450
X59452Y-27400
X60452Y-27400
T2
X41400Y-33400
X41400Y-35400
X59600Y-38400
X62450Y-38400
X69050Y-21650
X69050Y-24450
T3
X50472Y-36873
X51850Y-36873
X53228Y-36873
X55072Y-36873
X56450Y-36873
X57828Y-36873
X59672Y-36873
X61050Y-36873
X62428Y-36873
X67523Y-21672
X67523Y-23050
X67523Y-24428
T4
X42882Y-33416
X42882Y-35384
T5
X35700Y-44300
X35950Y-25400
X41700Y-19200
X41700Y-38300
X68300Y-19200
X68300Y-38300
X74300Y-18700
X74300Y-44300
T1
G00X35266Y-21346
M15
G01X35266Y-22331
M16
G05
G00X36624Y-20657
M15
G01X37609Y-20657
M16
G05
G00X36624Y-23020
M15
G01X37609Y-23020
M16
G05
T0
M30
