G04 #@! TF.GenerationSoftware,KiCad,Pcbnew,6.0.2+dfsg-1*
G04 #@! TF.CreationDate,2023-08-12T13:44:09-06:00*
G04 #@! TF.ProjectId,ckt-soundplay-test,636b742d-736f-4756-9e64-706c61792d74,rev?*
G04 #@! TF.SameCoordinates,Original*
G04 #@! TF.FileFunction,Legend,Top*
G04 #@! TF.FilePolarity,Positive*
%FSLAX46Y46*%
G04 Gerber Fmt 4.6, Leading zero omitted, Abs format (unit mm)*
G04 Created by KiCad (PCBNEW 6.0.2+dfsg-1) date 2023-08-12 13:44:09*
%MOMM*%
%LPD*%
G01*
G04 APERTURE LIST*
%ADD10C,0.100000*%
%ADD11C,0.300000*%
%ADD12C,0.150000*%
%ADD13C,0.120000*%
G04 APERTURE END LIST*
D10*
X101600000Y-44450000D02*
X177800000Y-44450000D01*
X177800000Y-44450000D02*
X177800000Y-101600000D01*
X177800000Y-101600000D02*
X101600000Y-101600000D01*
X101600000Y-101600000D02*
X101600000Y-44450000D01*
D11*
X150237285Y-72663857D02*
X150451571Y-72735285D01*
X150523000Y-72806714D01*
X150594428Y-72949571D01*
X150594428Y-73163857D01*
X150523000Y-73306714D01*
X150451571Y-73378142D01*
X150308714Y-73449571D01*
X149737285Y-73449571D01*
X149737285Y-71949571D01*
X150237285Y-71949571D01*
X150380142Y-72021000D01*
X150451571Y-72092428D01*
X150523000Y-72235285D01*
X150523000Y-72378142D01*
X150451571Y-72521000D01*
X150380142Y-72592428D01*
X150237285Y-72663857D01*
X149737285Y-72663857D01*
X151523000Y-71949571D02*
X151808714Y-71949571D01*
X151951571Y-72021000D01*
X152094428Y-72163857D01*
X152165857Y-72449571D01*
X152165857Y-72949571D01*
X152094428Y-73235285D01*
X151951571Y-73378142D01*
X151808714Y-73449571D01*
X151523000Y-73449571D01*
X151380142Y-73378142D01*
X151237285Y-73235285D01*
X151165857Y-72949571D01*
X151165857Y-72449571D01*
X151237285Y-72163857D01*
X151380142Y-72021000D01*
X151523000Y-71949571D01*
X153094428Y-71949571D02*
X153380142Y-71949571D01*
X153523000Y-72021000D01*
X153665857Y-72163857D01*
X153737285Y-72449571D01*
X153737285Y-72949571D01*
X153665857Y-73235285D01*
X153523000Y-73378142D01*
X153380142Y-73449571D01*
X153094428Y-73449571D01*
X152951571Y-73378142D01*
X152808714Y-73235285D01*
X152737285Y-72949571D01*
X152737285Y-72449571D01*
X152808714Y-72163857D01*
X152951571Y-72021000D01*
X153094428Y-71949571D01*
X154165857Y-71949571D02*
X155023000Y-71949571D01*
X154594428Y-73449571D02*
X154594428Y-71949571D01*
X145058000Y-115740571D02*
X145058000Y-114240571D01*
X145772285Y-115740571D02*
X145772285Y-114240571D01*
X146629428Y-115740571D01*
X146629428Y-114240571D01*
X148129428Y-115740571D02*
X147272285Y-115740571D01*
X147700857Y-115740571D02*
X147700857Y-114240571D01*
X147558000Y-114454857D01*
X147415142Y-114597714D01*
X147272285Y-114669142D01*
X191777571Y-62587000D02*
X190277571Y-62587000D01*
X191777571Y-61872714D02*
X190277571Y-61872714D01*
X191777571Y-61015571D01*
X190277571Y-61015571D01*
X190777571Y-59658428D02*
X191777571Y-59658428D01*
X190206142Y-60015571D02*
X191277571Y-60372714D01*
X191277571Y-59444142D01*
X125493571Y-54208071D02*
X125493571Y-52708071D01*
X126422142Y-54208071D02*
X126279285Y-54136642D01*
X126207857Y-54065214D01*
X126136428Y-53922357D01*
X126136428Y-53493785D01*
X126207857Y-53350928D01*
X126279285Y-53279500D01*
X126422142Y-53208071D01*
X126636428Y-53208071D01*
X126779285Y-53279500D01*
X126850714Y-53350928D01*
X126922142Y-53493785D01*
X126922142Y-53922357D01*
X126850714Y-54065214D01*
X126779285Y-54136642D01*
X126636428Y-54208071D01*
X126422142Y-54208071D01*
X127422142Y-53208071D02*
X127707857Y-54208071D01*
X127993571Y-53493785D01*
X128279285Y-54208071D01*
X128565000Y-53208071D01*
X129779285Y-54208071D02*
X129779285Y-53422357D01*
X129707857Y-53279500D01*
X129565000Y-53208071D01*
X129279285Y-53208071D01*
X129136428Y-53279500D01*
X129779285Y-54136642D02*
X129636428Y-54208071D01*
X129279285Y-54208071D01*
X129136428Y-54136642D01*
X129065000Y-53993785D01*
X129065000Y-53850928D01*
X129136428Y-53708071D01*
X129279285Y-53636642D01*
X129636428Y-53636642D01*
X129779285Y-53565214D01*
X131565000Y-54136642D02*
X131779285Y-54208071D01*
X132136428Y-54208071D01*
X132279285Y-54136642D01*
X132350714Y-54065214D01*
X132422142Y-53922357D01*
X132422142Y-53779500D01*
X132350714Y-53636642D01*
X132279285Y-53565214D01*
X132136428Y-53493785D01*
X131850714Y-53422357D01*
X131707857Y-53350928D01*
X131636428Y-53279500D01*
X131565000Y-53136642D01*
X131565000Y-52993785D01*
X131636428Y-52850928D01*
X131707857Y-52779500D01*
X131850714Y-52708071D01*
X132207857Y-52708071D01*
X132422142Y-52779500D01*
X133707857Y-54136642D02*
X133565000Y-54208071D01*
X133279285Y-54208071D01*
X133136428Y-54136642D01*
X133065000Y-54065214D01*
X132993571Y-53922357D01*
X132993571Y-53493785D01*
X133065000Y-53350928D01*
X133136428Y-53279500D01*
X133279285Y-53208071D01*
X133565000Y-53208071D01*
X133707857Y-53279500D01*
X134993571Y-54208071D02*
X134993571Y-53422357D01*
X134922142Y-53279500D01*
X134779285Y-53208071D01*
X134493571Y-53208071D01*
X134350714Y-53279500D01*
X134993571Y-54136642D02*
X134850714Y-54208071D01*
X134493571Y-54208071D01*
X134350714Y-54136642D01*
X134279285Y-53993785D01*
X134279285Y-53850928D01*
X134350714Y-53708071D01*
X134493571Y-53636642D01*
X134850714Y-53636642D01*
X134993571Y-53565214D01*
X135922142Y-54208071D02*
X135779285Y-54136642D01*
X135707857Y-53993785D01*
X135707857Y-52708071D01*
X137065000Y-54136642D02*
X136922142Y-54208071D01*
X136636428Y-54208071D01*
X136493571Y-54136642D01*
X136422142Y-53993785D01*
X136422142Y-53422357D01*
X136493571Y-53279500D01*
X136636428Y-53208071D01*
X136922142Y-53208071D01*
X137065000Y-53279500D01*
X137136428Y-53422357D01*
X137136428Y-53565214D01*
X136422142Y-53708071D01*
X138422142Y-54208071D02*
X138422142Y-52708071D01*
X138422142Y-54136642D02*
X138279285Y-54208071D01*
X137993571Y-54208071D01*
X137850714Y-54136642D01*
X137779285Y-54065214D01*
X137707857Y-53922357D01*
X137707857Y-53493785D01*
X137779285Y-53350928D01*
X137850714Y-53279500D01*
X137993571Y-53208071D01*
X138279285Y-53208071D01*
X138422142Y-53279500D01*
X140279285Y-53422357D02*
X140779285Y-53422357D01*
X140993571Y-54208071D02*
X140279285Y-54208071D01*
X140279285Y-52708071D01*
X140993571Y-52708071D01*
X141636428Y-53208071D02*
X141636428Y-54208071D01*
X141636428Y-53350928D02*
X141707857Y-53279500D01*
X141850714Y-53208071D01*
X142065000Y-53208071D01*
X142207857Y-53279500D01*
X142279285Y-53422357D01*
X142279285Y-54208071D01*
X143636428Y-53208071D02*
X143636428Y-54422357D01*
X143565000Y-54565214D01*
X143493571Y-54636642D01*
X143350714Y-54708071D01*
X143136428Y-54708071D01*
X142993571Y-54636642D01*
X143636428Y-54136642D02*
X143493571Y-54208071D01*
X143207857Y-54208071D01*
X143065000Y-54136642D01*
X142993571Y-54065214D01*
X142922142Y-53922357D01*
X142922142Y-53493785D01*
X142993571Y-53350928D01*
X143065000Y-53279500D01*
X143207857Y-53208071D01*
X143493571Y-53208071D01*
X143636428Y-53279500D01*
X144350714Y-54208071D02*
X144350714Y-53208071D01*
X144350714Y-52708071D02*
X144279285Y-52779500D01*
X144350714Y-52850928D01*
X144422142Y-52779500D01*
X144350714Y-52708071D01*
X144350714Y-52850928D01*
X145065000Y-53208071D02*
X145065000Y-54208071D01*
X145065000Y-53350928D02*
X145136428Y-53279500D01*
X145279285Y-53208071D01*
X145493571Y-53208071D01*
X145636428Y-53279500D01*
X145707857Y-53422357D01*
X145707857Y-54208071D01*
X146993571Y-54136642D02*
X146850714Y-54208071D01*
X146565000Y-54208071D01*
X146422142Y-54136642D01*
X146350714Y-53993785D01*
X146350714Y-53422357D01*
X146422142Y-53279500D01*
X146565000Y-53208071D01*
X146850714Y-53208071D01*
X146993571Y-53279500D01*
X147065000Y-53422357D01*
X147065000Y-53565214D01*
X146350714Y-53708071D01*
X148279285Y-54136642D02*
X148136428Y-54208071D01*
X147850714Y-54208071D01*
X147707857Y-54136642D01*
X147636428Y-53993785D01*
X147636428Y-53422357D01*
X147707857Y-53279500D01*
X147850714Y-53208071D01*
X148136428Y-53208071D01*
X148279285Y-53279500D01*
X148350714Y-53422357D01*
X148350714Y-53565214D01*
X147636428Y-53708071D01*
X148993571Y-54208071D02*
X148993571Y-53208071D01*
X148993571Y-53493785D02*
X149065000Y-53350928D01*
X149136428Y-53279500D01*
X149279285Y-53208071D01*
X149422142Y-53208071D01*
X149922142Y-54208071D02*
X149922142Y-53208071D01*
X149922142Y-52708071D02*
X149850714Y-52779500D01*
X149922142Y-52850928D01*
X149993571Y-52779500D01*
X149922142Y-52708071D01*
X149922142Y-52850928D01*
X150636428Y-53208071D02*
X150636428Y-54208071D01*
X150636428Y-53350928D02*
X150707857Y-53279500D01*
X150850714Y-53208071D01*
X151065000Y-53208071D01*
X151207857Y-53279500D01*
X151279285Y-53422357D01*
X151279285Y-54208071D01*
X152636428Y-53208071D02*
X152636428Y-54422357D01*
X152565000Y-54565214D01*
X152493571Y-54636642D01*
X152350714Y-54708071D01*
X152136428Y-54708071D01*
X151993571Y-54636642D01*
X152636428Y-54136642D02*
X152493571Y-54208071D01*
X152207857Y-54208071D01*
X152065000Y-54136642D01*
X151993571Y-54065214D01*
X151922142Y-53922357D01*
X151922142Y-53493785D01*
X151993571Y-53350928D01*
X152065000Y-53279500D01*
X152207857Y-53208071D01*
X152493571Y-53208071D01*
X152636428Y-53279500D01*
X123850714Y-56480214D02*
X123779285Y-56551642D01*
X123565000Y-56623071D01*
X123422142Y-56623071D01*
X123207857Y-56551642D01*
X123065000Y-56408785D01*
X122993571Y-56265928D01*
X122922142Y-55980214D01*
X122922142Y-55765928D01*
X122993571Y-55480214D01*
X123065000Y-55337357D01*
X123207857Y-55194500D01*
X123422142Y-55123071D01*
X123565000Y-55123071D01*
X123779285Y-55194500D01*
X123850714Y-55265928D01*
X124493571Y-56623071D02*
X124493571Y-55123071D01*
X125350714Y-56623071D02*
X124707857Y-55765928D01*
X125350714Y-55123071D02*
X124493571Y-55980214D01*
X125779285Y-55123071D02*
X126636428Y-55123071D01*
X126207857Y-56623071D02*
X126207857Y-55123071D01*
X127136428Y-56051642D02*
X128279285Y-56051642D01*
X128922142Y-56551642D02*
X129136428Y-56623071D01*
X129493571Y-56623071D01*
X129636428Y-56551642D01*
X129707857Y-56480214D01*
X129779285Y-56337357D01*
X129779285Y-56194500D01*
X129707857Y-56051642D01*
X129636428Y-55980214D01*
X129493571Y-55908785D01*
X129207857Y-55837357D01*
X129065000Y-55765928D01*
X128993571Y-55694500D01*
X128922142Y-55551642D01*
X128922142Y-55408785D01*
X128993571Y-55265928D01*
X129065000Y-55194500D01*
X129207857Y-55123071D01*
X129565000Y-55123071D01*
X129779285Y-55194500D01*
X130707857Y-55123071D02*
X130993571Y-55123071D01*
X131136428Y-55194500D01*
X131279285Y-55337357D01*
X131350714Y-55623071D01*
X131350714Y-56123071D01*
X131279285Y-56408785D01*
X131136428Y-56551642D01*
X130993571Y-56623071D01*
X130707857Y-56623071D01*
X130565000Y-56551642D01*
X130422142Y-56408785D01*
X130350714Y-56123071D01*
X130350714Y-55623071D01*
X130422142Y-55337357D01*
X130565000Y-55194500D01*
X130707857Y-55123071D01*
X131993571Y-55123071D02*
X131993571Y-56337357D01*
X132065000Y-56480214D01*
X132136428Y-56551642D01*
X132279285Y-56623071D01*
X132565000Y-56623071D01*
X132707857Y-56551642D01*
X132779285Y-56480214D01*
X132850714Y-56337357D01*
X132850714Y-55123071D01*
X133565000Y-56623071D02*
X133565000Y-55123071D01*
X134422142Y-56623071D01*
X134422142Y-55123071D01*
X135136428Y-56623071D02*
X135136428Y-55123071D01*
X135493571Y-55123071D01*
X135707857Y-55194500D01*
X135850714Y-55337357D01*
X135922142Y-55480214D01*
X135993571Y-55765928D01*
X135993571Y-55980214D01*
X135922142Y-56265928D01*
X135850714Y-56408785D01*
X135707857Y-56551642D01*
X135493571Y-56623071D01*
X135136428Y-56623071D01*
X136636428Y-56623071D02*
X136636428Y-55123071D01*
X137207857Y-55123071D01*
X137350714Y-55194500D01*
X137422142Y-55265928D01*
X137493571Y-55408785D01*
X137493571Y-55623071D01*
X137422142Y-55765928D01*
X137350714Y-55837357D01*
X137207857Y-55908785D01*
X136636428Y-55908785D01*
X138850714Y-56623071D02*
X138136428Y-56623071D01*
X138136428Y-55123071D01*
X139279285Y-56194500D02*
X139993571Y-56194500D01*
X139136428Y-56623071D02*
X139636428Y-55123071D01*
X140136428Y-56623071D01*
X140922142Y-55908785D02*
X140922142Y-56623071D01*
X140422142Y-55123071D02*
X140922142Y-55908785D01*
X141422142Y-55123071D01*
X141922142Y-56051642D02*
X143065000Y-56051642D01*
X143565000Y-55123071D02*
X144422142Y-55123071D01*
X143993571Y-56623071D02*
X143993571Y-55123071D01*
X144922142Y-55837357D02*
X145422142Y-55837357D01*
X145636428Y-56623071D02*
X144922142Y-56623071D01*
X144922142Y-55123071D01*
X145636428Y-55123071D01*
X146207857Y-56551642D02*
X146422142Y-56623071D01*
X146779285Y-56623071D01*
X146922142Y-56551642D01*
X146993571Y-56480214D01*
X147065000Y-56337357D01*
X147065000Y-56194500D01*
X146993571Y-56051642D01*
X146922142Y-55980214D01*
X146779285Y-55908785D01*
X146493571Y-55837357D01*
X146350714Y-55765928D01*
X146279285Y-55694500D01*
X146207857Y-55551642D01*
X146207857Y-55408785D01*
X146279285Y-55265928D01*
X146350714Y-55194500D01*
X146493571Y-55123071D01*
X146850714Y-55123071D01*
X147065000Y-55194500D01*
X147493571Y-55123071D02*
X148350714Y-55123071D01*
X147922142Y-56623071D02*
X147922142Y-55123071D01*
X150993571Y-55623071D02*
X151350714Y-56623071D01*
X151707857Y-55623071D01*
X153065000Y-56623071D02*
X152207857Y-56623071D01*
X152636428Y-56623071D02*
X152636428Y-55123071D01*
X152493571Y-55337357D01*
X152350714Y-55480214D01*
X152207857Y-55551642D01*
X153707857Y-56480214D02*
X153779285Y-56551642D01*
X153707857Y-56623071D01*
X153636428Y-56551642D01*
X153707857Y-56480214D01*
X153707857Y-56623071D01*
X154350714Y-55265928D02*
X154422142Y-55194500D01*
X154565000Y-55123071D01*
X154922142Y-55123071D01*
X155065000Y-55194500D01*
X155136428Y-55265928D01*
X155207857Y-55408785D01*
X155207857Y-55551642D01*
X155136428Y-55765928D01*
X154279285Y-56623071D01*
X155207857Y-56623071D01*
X117927857Y-111613142D02*
X119070714Y-111613142D01*
X120927857Y-111613142D02*
X122070714Y-111613142D01*
X121499285Y-112184571D02*
X121499285Y-111041714D01*
X123856428Y-112113142D02*
X124070714Y-112184571D01*
X124427857Y-112184571D01*
X124570714Y-112113142D01*
X124642142Y-112041714D01*
X124713571Y-111898857D01*
X124713571Y-111756000D01*
X124642142Y-111613142D01*
X124570714Y-111541714D01*
X124427857Y-111470285D01*
X124142142Y-111398857D01*
X123999285Y-111327428D01*
X123927857Y-111256000D01*
X123856428Y-111113142D01*
X123856428Y-110970285D01*
X123927857Y-110827428D01*
X123999285Y-110756000D01*
X124142142Y-110684571D01*
X124499285Y-110684571D01*
X124713571Y-110756000D01*
X190991857Y-99952714D02*
X191063285Y-99738428D01*
X191134714Y-99667000D01*
X191277571Y-99595571D01*
X191491857Y-99595571D01*
X191634714Y-99667000D01*
X191706142Y-99738428D01*
X191777571Y-99881285D01*
X191777571Y-100452714D01*
X190277571Y-100452714D01*
X190277571Y-99952714D01*
X190349000Y-99809857D01*
X190420428Y-99738428D01*
X190563285Y-99667000D01*
X190706142Y-99667000D01*
X190849000Y-99738428D01*
X190920428Y-99809857D01*
X190991857Y-99952714D01*
X190991857Y-100452714D01*
X190277571Y-98667000D02*
X190277571Y-98381285D01*
X190349000Y-98238428D01*
X190491857Y-98095571D01*
X190777571Y-98024142D01*
X191277571Y-98024142D01*
X191563285Y-98095571D01*
X191706142Y-98238428D01*
X191777571Y-98381285D01*
X191777571Y-98667000D01*
X191706142Y-98809857D01*
X191563285Y-98952714D01*
X191277571Y-99024142D01*
X190777571Y-99024142D01*
X190491857Y-98952714D01*
X190349000Y-98809857D01*
X190277571Y-98667000D01*
X190277571Y-97095571D02*
X190277571Y-96809857D01*
X190349000Y-96667000D01*
X190491857Y-96524142D01*
X190777571Y-96452714D01*
X191277571Y-96452714D01*
X191563285Y-96524142D01*
X191706142Y-96667000D01*
X191777571Y-96809857D01*
X191777571Y-97095571D01*
X191706142Y-97238428D01*
X191563285Y-97381285D01*
X191277571Y-97452714D01*
X190777571Y-97452714D01*
X190491857Y-97381285D01*
X190349000Y-97238428D01*
X190277571Y-97095571D01*
X190277571Y-96024142D02*
X190277571Y-95167000D01*
X191777571Y-95595571D02*
X190277571Y-95595571D01*
X105539428Y-115740571D02*
X105039428Y-115026285D01*
X104682285Y-115740571D02*
X104682285Y-114240571D01*
X105253714Y-114240571D01*
X105396571Y-114312000D01*
X105468000Y-114383428D01*
X105539428Y-114526285D01*
X105539428Y-114740571D01*
X105468000Y-114883428D01*
X105396571Y-114954857D01*
X105253714Y-115026285D01*
X104682285Y-115026285D01*
X106182285Y-114954857D02*
X106682285Y-114954857D01*
X106896571Y-115740571D02*
X106182285Y-115740571D01*
X106182285Y-114240571D01*
X106896571Y-114240571D01*
X107468000Y-115669142D02*
X107682285Y-115740571D01*
X108039428Y-115740571D01*
X108182285Y-115669142D01*
X108253714Y-115597714D01*
X108325142Y-115454857D01*
X108325142Y-115312000D01*
X108253714Y-115169142D01*
X108182285Y-115097714D01*
X108039428Y-115026285D01*
X107753714Y-114954857D01*
X107610857Y-114883428D01*
X107539428Y-114812000D01*
X107468000Y-114669142D01*
X107468000Y-114526285D01*
X107539428Y-114383428D01*
X107610857Y-114312000D01*
X107753714Y-114240571D01*
X108110857Y-114240571D01*
X108325142Y-114312000D01*
X108968000Y-114954857D02*
X109468000Y-114954857D01*
X109682285Y-115740571D02*
X108968000Y-115740571D01*
X108968000Y-114240571D01*
X109682285Y-114240571D01*
X110110857Y-114240571D02*
X110968000Y-114240571D01*
X110539428Y-115740571D02*
X110539428Y-114240571D01*
X161822000Y-115740571D02*
X161822000Y-114240571D01*
X162536285Y-115740571D02*
X162536285Y-114240571D01*
X163393428Y-115740571D01*
X163393428Y-114240571D01*
X164036285Y-114383428D02*
X164107714Y-114312000D01*
X164250571Y-114240571D01*
X164607714Y-114240571D01*
X164750571Y-114312000D01*
X164822000Y-114383428D01*
X164893428Y-114526285D01*
X164893428Y-114669142D01*
X164822000Y-114883428D01*
X163964857Y-115740571D01*
X164893428Y-115740571D01*
X110486285Y-48666000D02*
X111986285Y-48666000D01*
X111700571Y-50589571D02*
X111200571Y-49875285D01*
X110843428Y-50589571D02*
X110843428Y-49089571D01*
X111414857Y-49089571D01*
X111557714Y-49161000D01*
X111629142Y-49232428D01*
X111700571Y-49375285D01*
X111700571Y-49589571D01*
X111629142Y-49732428D01*
X111557714Y-49803857D01*
X111414857Y-49875285D01*
X110843428Y-49875285D01*
X111986285Y-48666000D02*
X113414857Y-48666000D01*
X112272000Y-50518142D02*
X112486285Y-50589571D01*
X112843428Y-50589571D01*
X112986285Y-50518142D01*
X113057714Y-50446714D01*
X113129142Y-50303857D01*
X113129142Y-50161000D01*
X113057714Y-50018142D01*
X112986285Y-49946714D01*
X112843428Y-49875285D01*
X112557714Y-49803857D01*
X112414857Y-49732428D01*
X112343428Y-49661000D01*
X112272000Y-49518142D01*
X112272000Y-49375285D01*
X112343428Y-49232428D01*
X112414857Y-49161000D01*
X112557714Y-49089571D01*
X112914857Y-49089571D01*
X113129142Y-49161000D01*
X113414857Y-48666000D02*
X114557714Y-48666000D01*
X113557714Y-49089571D02*
X114414857Y-49089571D01*
X113986285Y-50589571D02*
X113986285Y-49089571D01*
X191777571Y-79351000D02*
X190277571Y-79351000D01*
X191777571Y-78636714D02*
X190277571Y-78636714D01*
X191777571Y-77779571D01*
X190277571Y-77779571D01*
X190277571Y-77208142D02*
X190277571Y-76279571D01*
X190849000Y-76779571D01*
X190849000Y-76565285D01*
X190920428Y-76422428D01*
X190991857Y-76351000D01*
X191134714Y-76279571D01*
X191491857Y-76279571D01*
X191634714Y-76351000D01*
X191706142Y-76422428D01*
X191777571Y-76565285D01*
X191777571Y-76993857D01*
X191706142Y-77136714D01*
X191634714Y-77208142D01*
D12*
X111553666Y-80518380D02*
X111553666Y-81232666D01*
X111506047Y-81375523D01*
X111410809Y-81470761D01*
X111267952Y-81518380D01*
X111172714Y-81518380D01*
X112553666Y-81518380D02*
X111982238Y-81518380D01*
X112267952Y-81518380D02*
X112267952Y-80518380D01*
X112172714Y-80661238D01*
X112077476Y-80756476D01*
X111982238Y-80804095D01*
X186423761Y-99250333D02*
X186471380Y-99107476D01*
X186471380Y-98869380D01*
X186423761Y-98774142D01*
X186376142Y-98726523D01*
X186280904Y-98678904D01*
X186185666Y-98678904D01*
X186090428Y-98726523D01*
X186042809Y-98774142D01*
X185995190Y-98869380D01*
X185947571Y-99059857D01*
X185899952Y-99155095D01*
X185852333Y-99202714D01*
X185757095Y-99250333D01*
X185661857Y-99250333D01*
X185566619Y-99202714D01*
X185519000Y-99155095D01*
X185471380Y-99059857D01*
X185471380Y-98821761D01*
X185519000Y-98678904D01*
X185471380Y-98345571D02*
X186471380Y-98107476D01*
X185757095Y-97917000D01*
X186471380Y-97726523D01*
X185471380Y-97488428D01*
X185566619Y-97155095D02*
X185519000Y-97107476D01*
X185471380Y-97012238D01*
X185471380Y-96774142D01*
X185519000Y-96678904D01*
X185566619Y-96631285D01*
X185661857Y-96583666D01*
X185757095Y-96583666D01*
X185899952Y-96631285D01*
X186471380Y-97202714D01*
X186471380Y-96583666D01*
X145224666Y-110386761D02*
X145367523Y-110434380D01*
X145605619Y-110434380D01*
X145700857Y-110386761D01*
X145748476Y-110339142D01*
X145796095Y-110243904D01*
X145796095Y-110148666D01*
X145748476Y-110053428D01*
X145700857Y-110005809D01*
X145605619Y-109958190D01*
X145415142Y-109910571D01*
X145319904Y-109862952D01*
X145272285Y-109815333D01*
X145224666Y-109720095D01*
X145224666Y-109624857D01*
X145272285Y-109529619D01*
X145319904Y-109482000D01*
X145415142Y-109434380D01*
X145653238Y-109434380D01*
X145796095Y-109482000D01*
X146129428Y-109434380D02*
X146367523Y-110434380D01*
X146558000Y-109720095D01*
X146748476Y-110434380D01*
X146986571Y-109434380D01*
X147272285Y-109434380D02*
X147891333Y-109434380D01*
X147558000Y-109815333D01*
X147700857Y-109815333D01*
X147796095Y-109862952D01*
X147843714Y-109910571D01*
X147891333Y-110005809D01*
X147891333Y-110243904D01*
X147843714Y-110339142D01*
X147796095Y-110386761D01*
X147700857Y-110434380D01*
X147415142Y-110434380D01*
X147319904Y-110386761D01*
X147272285Y-110339142D01*
X131421666Y-89114380D02*
X131421666Y-89828666D01*
X131374047Y-89971523D01*
X131278809Y-90066761D01*
X131135952Y-90114380D01*
X131040714Y-90114380D01*
X131850238Y-89209619D02*
X131897857Y-89162000D01*
X131993095Y-89114380D01*
X132231190Y-89114380D01*
X132326428Y-89162000D01*
X132374047Y-89209619D01*
X132421666Y-89304857D01*
X132421666Y-89400095D01*
X132374047Y-89542952D01*
X131802619Y-90114380D01*
X132421666Y-90114380D01*
X161988666Y-110386761D02*
X162131523Y-110434380D01*
X162369619Y-110434380D01*
X162464857Y-110386761D01*
X162512476Y-110339142D01*
X162560095Y-110243904D01*
X162560095Y-110148666D01*
X162512476Y-110053428D01*
X162464857Y-110005809D01*
X162369619Y-109958190D01*
X162179142Y-109910571D01*
X162083904Y-109862952D01*
X162036285Y-109815333D01*
X161988666Y-109720095D01*
X161988666Y-109624857D01*
X162036285Y-109529619D01*
X162083904Y-109482000D01*
X162179142Y-109434380D01*
X162417238Y-109434380D01*
X162560095Y-109482000D01*
X162893428Y-109434380D02*
X163131523Y-110434380D01*
X163322000Y-109720095D01*
X163512476Y-110434380D01*
X163750571Y-109434380D01*
X164560095Y-109767714D02*
X164560095Y-110434380D01*
X164322000Y-109386761D02*
X164083904Y-110101047D01*
X164702952Y-110101047D01*
X134517654Y-106196380D02*
X134517654Y-105196380D01*
X134755750Y-105196380D01*
X134898607Y-105244000D01*
X134993845Y-105339238D01*
X135041464Y-105434476D01*
X135089083Y-105624952D01*
X135089083Y-105767809D01*
X135041464Y-105958285D01*
X134993845Y-106053523D01*
X134898607Y-106148761D01*
X134755750Y-106196380D01*
X134517654Y-106196380D01*
X136041464Y-106196380D02*
X135470035Y-106196380D01*
X135755750Y-106196380D02*
X135755750Y-105196380D01*
X135660511Y-105339238D01*
X135565273Y-105434476D01*
X135470035Y-105482095D01*
X118975523Y-104989380D02*
X118975523Y-105703666D01*
X118927904Y-105846523D01*
X118832666Y-105941761D01*
X118689809Y-105989380D01*
X118594571Y-105989380D01*
X119451714Y-105989380D02*
X119451714Y-104989380D01*
X119785047Y-105703666D01*
X120118380Y-104989380D01*
X120118380Y-105989380D01*
X120594571Y-105465571D02*
X120927904Y-105465571D01*
X121070761Y-105989380D02*
X120594571Y-105989380D01*
X120594571Y-104989380D01*
X121070761Y-104989380D01*
X121356476Y-104989380D02*
X121927904Y-104989380D01*
X121642190Y-105989380D02*
X121642190Y-104989380D01*
X122261238Y-105465571D02*
X122594571Y-105465571D01*
X122737428Y-105989380D02*
X122261238Y-105989380D01*
X122261238Y-104989380D01*
X122737428Y-104989380D01*
X123737428Y-105989380D02*
X123404095Y-105513190D01*
X123166000Y-105989380D02*
X123166000Y-104989380D01*
X123546952Y-104989380D01*
X123642190Y-105037000D01*
X123689809Y-105084619D01*
X123737428Y-105179857D01*
X123737428Y-105322714D01*
X123689809Y-105417952D01*
X123642190Y-105465571D01*
X123546952Y-105513190D01*
X123166000Y-105513190D01*
X124689809Y-105989380D02*
X124118380Y-105989380D01*
X124404095Y-105989380D02*
X124404095Y-104989380D01*
X124308857Y-105132238D01*
X124213619Y-105227476D01*
X124118380Y-105275095D01*
X174125095Y-56856380D02*
X174696523Y-56856380D01*
X174410809Y-57856380D02*
X174410809Y-56856380D01*
X175029857Y-57856380D02*
X175029857Y-56856380D01*
X175410809Y-56856380D01*
X175506047Y-56904000D01*
X175553666Y-56951619D01*
X175601285Y-57046857D01*
X175601285Y-57189714D01*
X175553666Y-57284952D01*
X175506047Y-57332571D01*
X175410809Y-57380190D01*
X175029857Y-57380190D01*
X176458428Y-57189714D02*
X176458428Y-57856380D01*
X176220333Y-56808761D02*
X175982238Y-57523047D01*
X176601285Y-57523047D01*
X143105666Y-89114380D02*
X143105666Y-89828666D01*
X143058047Y-89971523D01*
X142962809Y-90066761D01*
X142819952Y-90114380D01*
X142724714Y-90114380D01*
X143486619Y-89114380D02*
X144105666Y-89114380D01*
X143772333Y-89495333D01*
X143915190Y-89495333D01*
X144010428Y-89542952D01*
X144058047Y-89590571D01*
X144105666Y-89685809D01*
X144105666Y-89923904D01*
X144058047Y-90019142D01*
X144010428Y-90066761D01*
X143915190Y-90114380D01*
X143629476Y-90114380D01*
X143534238Y-90066761D01*
X143486619Y-90019142D01*
X168362380Y-52022333D02*
X169076666Y-52022333D01*
X169219523Y-52069952D01*
X169314761Y-52165190D01*
X169362380Y-52308047D01*
X169362380Y-52403285D01*
X168790952Y-51403285D02*
X168743333Y-51498523D01*
X168695714Y-51546142D01*
X168600476Y-51593761D01*
X168552857Y-51593761D01*
X168457619Y-51546142D01*
X168410000Y-51498523D01*
X168362380Y-51403285D01*
X168362380Y-51212809D01*
X168410000Y-51117571D01*
X168457619Y-51069952D01*
X168552857Y-51022333D01*
X168600476Y-51022333D01*
X168695714Y-51069952D01*
X168743333Y-51117571D01*
X168790952Y-51212809D01*
X168790952Y-51403285D01*
X168838571Y-51498523D01*
X168886190Y-51546142D01*
X168981428Y-51593761D01*
X169171904Y-51593761D01*
X169267142Y-51546142D01*
X169314761Y-51498523D01*
X169362380Y-51403285D01*
X169362380Y-51212809D01*
X169314761Y-51117571D01*
X169267142Y-51069952D01*
X169171904Y-51022333D01*
X168981428Y-51022333D01*
X168886190Y-51069952D01*
X168838571Y-51117571D01*
X168790952Y-51212809D01*
X186423761Y-79184333D02*
X186471380Y-79041476D01*
X186471380Y-78803380D01*
X186423761Y-78708142D01*
X186376142Y-78660523D01*
X186280904Y-78612904D01*
X186185666Y-78612904D01*
X186090428Y-78660523D01*
X186042809Y-78708142D01*
X185995190Y-78803380D01*
X185947571Y-78993857D01*
X185899952Y-79089095D01*
X185852333Y-79136714D01*
X185757095Y-79184333D01*
X185661857Y-79184333D01*
X185566619Y-79136714D01*
X185519000Y-79089095D01*
X185471380Y-78993857D01*
X185471380Y-78755761D01*
X185519000Y-78612904D01*
X185471380Y-78279571D02*
X186471380Y-78041476D01*
X185757095Y-77851000D01*
X186471380Y-77660523D01*
X185471380Y-77422428D01*
X185471380Y-76565285D02*
X185471380Y-77041476D01*
X185947571Y-77089095D01*
X185899952Y-77041476D01*
X185852333Y-76946238D01*
X185852333Y-76708142D01*
X185899952Y-76612904D01*
X185947571Y-76565285D01*
X186042809Y-76517666D01*
X186280904Y-76517666D01*
X186376142Y-76565285D01*
X186423761Y-76612904D01*
X186471380Y-76708142D01*
X186471380Y-76946238D01*
X186423761Y-77041476D01*
X186376142Y-77089095D01*
X116387666Y-46061380D02*
X116387666Y-46775666D01*
X116340047Y-46918523D01*
X116244809Y-47013761D01*
X116101952Y-47061380D01*
X116006714Y-47061380D01*
X116863857Y-47061380D02*
X116863857Y-46061380D01*
X117244809Y-46061380D01*
X117340047Y-46109000D01*
X117387666Y-46156619D01*
X117435285Y-46251857D01*
X117435285Y-46394714D01*
X117387666Y-46489952D01*
X117340047Y-46537571D01*
X117244809Y-46585190D01*
X116863857Y-46585190D01*
X118387666Y-47061380D02*
X117816238Y-47061380D01*
X118101952Y-47061380D02*
X118101952Y-46061380D01*
X118006714Y-46204238D01*
X117911476Y-46299476D01*
X117816238Y-46347095D01*
X151439666Y-66508380D02*
X151439666Y-67222666D01*
X151392047Y-67365523D01*
X151296809Y-67460761D01*
X151153952Y-67508380D01*
X151058714Y-67508380D01*
X151915857Y-67508380D02*
X151915857Y-66508380D01*
X152296809Y-66508380D01*
X152392047Y-66556000D01*
X152439666Y-66603619D01*
X152487285Y-66698857D01*
X152487285Y-66841714D01*
X152439666Y-66936952D01*
X152392047Y-66984571D01*
X152296809Y-67032190D01*
X151915857Y-67032190D01*
X152868238Y-66603619D02*
X152915857Y-66556000D01*
X153011095Y-66508380D01*
X153249190Y-66508380D01*
X153344428Y-66556000D01*
X153392047Y-66603619D01*
X153439666Y-66698857D01*
X153439666Y-66794095D01*
X153392047Y-66936952D01*
X152820619Y-67508380D01*
X153439666Y-67508380D01*
X102116095Y-81828380D02*
X102687523Y-81828380D01*
X102401809Y-82828380D02*
X102401809Y-81828380D01*
X103020857Y-82828380D02*
X103020857Y-81828380D01*
X103401809Y-81828380D01*
X103497047Y-81876000D01*
X103544666Y-81923619D01*
X103592285Y-82018857D01*
X103592285Y-82161714D01*
X103544666Y-82256952D01*
X103497047Y-82304571D01*
X103401809Y-82352190D01*
X103020857Y-82352190D01*
X104497047Y-81828380D02*
X104020857Y-81828380D01*
X103973238Y-82304571D01*
X104020857Y-82256952D01*
X104116095Y-82209333D01*
X104354190Y-82209333D01*
X104449428Y-82256952D01*
X104497047Y-82304571D01*
X104544666Y-82399809D01*
X104544666Y-82637904D01*
X104497047Y-82733142D01*
X104449428Y-82780761D01*
X104354190Y-82828380D01*
X104116095Y-82828380D01*
X104020857Y-82780761D01*
X103973238Y-82733142D01*
X130263083Y-106153880D02*
X129929750Y-105677690D01*
X129691654Y-106153880D02*
X129691654Y-105153880D01*
X130072607Y-105153880D01*
X130167845Y-105201500D01*
X130215464Y-105249119D01*
X130263083Y-105344357D01*
X130263083Y-105487214D01*
X130215464Y-105582452D01*
X130167845Y-105630071D01*
X130072607Y-105677690D01*
X129691654Y-105677690D01*
X131215464Y-106153880D02*
X130644035Y-106153880D01*
X130929750Y-106153880D02*
X130929750Y-105153880D01*
X130834511Y-105296738D01*
X130739273Y-105391976D01*
X130644035Y-105439595D01*
X150122095Y-99782380D02*
X150693523Y-99782380D01*
X150407809Y-100782380D02*
X150407809Y-99782380D01*
X151026857Y-100782380D02*
X151026857Y-99782380D01*
X151407809Y-99782380D01*
X151503047Y-99830000D01*
X151550666Y-99877619D01*
X151598285Y-99972857D01*
X151598285Y-100115714D01*
X151550666Y-100210952D01*
X151503047Y-100258571D01*
X151407809Y-100306190D01*
X151026857Y-100306190D01*
X152550666Y-100782380D02*
X151979238Y-100782380D01*
X152264952Y-100782380D02*
X152264952Y-99782380D01*
X152169714Y-99925238D01*
X152074476Y-100020476D01*
X151979238Y-100068095D01*
X157488095Y-99782380D02*
X158059523Y-99782380D01*
X157773809Y-100782380D02*
X157773809Y-99782380D01*
X158392857Y-100782380D02*
X158392857Y-99782380D01*
X158773809Y-99782380D01*
X158869047Y-99830000D01*
X158916666Y-99877619D01*
X158964285Y-99972857D01*
X158964285Y-100115714D01*
X158916666Y-100210952D01*
X158869047Y-100258571D01*
X158773809Y-100306190D01*
X158392857Y-100306190D01*
X159345238Y-99877619D02*
X159392857Y-99830000D01*
X159488095Y-99782380D01*
X159726190Y-99782380D01*
X159821428Y-99830000D01*
X159869047Y-99877619D01*
X159916666Y-99972857D01*
X159916666Y-100068095D01*
X159869047Y-100210952D01*
X159297619Y-100782380D01*
X159916666Y-100782380D01*
X91821238Y-47458380D02*
X91821238Y-48172666D01*
X91773619Y-48315523D01*
X91678380Y-48410761D01*
X91535523Y-48458380D01*
X91440285Y-48458380D01*
X92297428Y-48458380D02*
X92297428Y-47458380D01*
X92678380Y-47458380D01*
X92773619Y-47506000D01*
X92821238Y-47553619D01*
X92868857Y-47648857D01*
X92868857Y-47791714D01*
X92821238Y-47886952D01*
X92773619Y-47934571D01*
X92678380Y-47982190D01*
X92297428Y-47982190D01*
X93202190Y-47458380D02*
X93440285Y-48458380D01*
X93630761Y-47744095D01*
X93821238Y-48458380D01*
X94059333Y-47458380D01*
X95011714Y-48458380D02*
X94678380Y-47982190D01*
X94440285Y-48458380D02*
X94440285Y-47458380D01*
X94821238Y-47458380D01*
X94916476Y-47506000D01*
X94964095Y-47553619D01*
X95011714Y-47648857D01*
X95011714Y-47791714D01*
X94964095Y-47886952D01*
X94916476Y-47934571D01*
X94821238Y-47982190D01*
X94440285Y-47982190D01*
X95964095Y-48458380D02*
X95392666Y-48458380D01*
X95678380Y-48458380D02*
X95678380Y-47458380D01*
X95583142Y-47601238D01*
X95487904Y-47696476D01*
X95392666Y-47744095D01*
X186423761Y-62420333D02*
X186471380Y-62277476D01*
X186471380Y-62039380D01*
X186423761Y-61944142D01*
X186376142Y-61896523D01*
X186280904Y-61848904D01*
X186185666Y-61848904D01*
X186090428Y-61896523D01*
X186042809Y-61944142D01*
X185995190Y-62039380D01*
X185947571Y-62229857D01*
X185899952Y-62325095D01*
X185852333Y-62372714D01*
X185757095Y-62420333D01*
X185661857Y-62420333D01*
X185566619Y-62372714D01*
X185519000Y-62325095D01*
X185471380Y-62229857D01*
X185471380Y-61991761D01*
X185519000Y-61848904D01*
X185471380Y-61515571D02*
X186471380Y-61277476D01*
X185757095Y-61087000D01*
X186471380Y-60896523D01*
X185471380Y-60658428D01*
X185471380Y-59848904D02*
X185471380Y-60039380D01*
X185519000Y-60134619D01*
X185566619Y-60182238D01*
X185709476Y-60277476D01*
X185899952Y-60325095D01*
X186280904Y-60325095D01*
X186376142Y-60277476D01*
X186423761Y-60229857D01*
X186471380Y-60134619D01*
X186471380Y-59944142D01*
X186423761Y-59848904D01*
X186376142Y-59801285D01*
X186280904Y-59753666D01*
X186042809Y-59753666D01*
X185947571Y-59801285D01*
X185899952Y-59848904D01*
X185852333Y-59944142D01*
X185852333Y-60134619D01*
X185899952Y-60229857D01*
X185947571Y-60277476D01*
X186042809Y-60325095D01*
X174125102Y-59225380D02*
X174696530Y-59225380D01*
X174410816Y-60225380D02*
X174410816Y-59225380D01*
X175029864Y-60225380D02*
X175029864Y-59225380D01*
X175410816Y-59225380D01*
X175506054Y-59273000D01*
X175553673Y-59320619D01*
X175601292Y-59415857D01*
X175601292Y-59558714D01*
X175553673Y-59653952D01*
X175506054Y-59701571D01*
X175410816Y-59749190D01*
X175029864Y-59749190D01*
X175934626Y-59225380D02*
X176553673Y-59225380D01*
X176220340Y-59606333D01*
X176363197Y-59606333D01*
X176458435Y-59653952D01*
X176506054Y-59701571D01*
X176553673Y-59796809D01*
X176553673Y-60034904D01*
X176506054Y-60130142D01*
X176458435Y-60177761D01*
X176363197Y-60225380D01*
X176077483Y-60225380D01*
X175982245Y-60177761D01*
X175934626Y-60130142D01*
X106384666Y-110386761D02*
X106527523Y-110434380D01*
X106765619Y-110434380D01*
X106860857Y-110386761D01*
X106908476Y-110339142D01*
X106956095Y-110243904D01*
X106956095Y-110148666D01*
X106908476Y-110053428D01*
X106860857Y-110005809D01*
X106765619Y-109958190D01*
X106575142Y-109910571D01*
X106479904Y-109862952D01*
X106432285Y-109815333D01*
X106384666Y-109720095D01*
X106384666Y-109624857D01*
X106432285Y-109529619D01*
X106479904Y-109482000D01*
X106575142Y-109434380D01*
X106813238Y-109434380D01*
X106956095Y-109482000D01*
X107289428Y-109434380D02*
X107527523Y-110434380D01*
X107718000Y-109720095D01*
X107908476Y-110434380D01*
X108146571Y-109434380D01*
X109051333Y-110434380D02*
X108479904Y-110434380D01*
X108765619Y-110434380D02*
X108765619Y-109434380D01*
X108670380Y-109577238D01*
X108575142Y-109672476D01*
X108479904Y-109720095D01*
X102116095Y-86955380D02*
X102687523Y-86955380D01*
X102401809Y-87955380D02*
X102401809Y-86955380D01*
X103020857Y-87955380D02*
X103020857Y-86955380D01*
X103401809Y-86955380D01*
X103497047Y-87003000D01*
X103544666Y-87050619D01*
X103592285Y-87145857D01*
X103592285Y-87288714D01*
X103544666Y-87383952D01*
X103497047Y-87431571D01*
X103401809Y-87479190D01*
X103020857Y-87479190D01*
X104449428Y-86955380D02*
X104258952Y-86955380D01*
X104163714Y-87003000D01*
X104116095Y-87050619D01*
X104020857Y-87193476D01*
X103973238Y-87383952D01*
X103973238Y-87764904D01*
X104020857Y-87860142D01*
X104068476Y-87907761D01*
X104163714Y-87955380D01*
X104354190Y-87955380D01*
X104449428Y-87907761D01*
X104497047Y-87860142D01*
X104544666Y-87764904D01*
X104544666Y-87526809D01*
X104497047Y-87431571D01*
X104449428Y-87383952D01*
X104354190Y-87336333D01*
X104163714Y-87336333D01*
X104068476Y-87383952D01*
X104020857Y-87431571D01*
X103973238Y-87526809D01*
X154352666Y-89114380D02*
X154352666Y-89828666D01*
X154305047Y-89971523D01*
X154209809Y-90066761D01*
X154066952Y-90114380D01*
X153971714Y-90114380D01*
X155257428Y-89447714D02*
X155257428Y-90114380D01*
X155019333Y-89066761D02*
X154781238Y-89781047D01*
X155400285Y-89781047D01*
X120189666Y-61301380D02*
X120189666Y-62015666D01*
X120142047Y-62158523D01*
X120046809Y-62253761D01*
X119903952Y-62301380D01*
X119808714Y-62301380D01*
X120713476Y-62301380D02*
X120903952Y-62301380D01*
X120999190Y-62253761D01*
X121046809Y-62206142D01*
X121142047Y-62063285D01*
X121189666Y-61872809D01*
X121189666Y-61491857D01*
X121142047Y-61396619D01*
X121094428Y-61349000D01*
X120999190Y-61301380D01*
X120808714Y-61301380D01*
X120713476Y-61349000D01*
X120665857Y-61396619D01*
X120618238Y-61491857D01*
X120618238Y-61729952D01*
X120665857Y-61825190D01*
X120713476Y-61872809D01*
X120808714Y-61920428D01*
X120999190Y-61920428D01*
X121094428Y-61872809D01*
X121142047Y-61825190D01*
X121189666Y-61729952D01*
D13*
X109989000Y-91151000D02*
X109896000Y-91057000D01*
X111320000Y-82316000D02*
X111320000Y-92436000D01*
X107704000Y-88866000D02*
X107646000Y-88807000D01*
X105960000Y-82076000D02*
X105120000Y-82076000D01*
X107944000Y-88696000D02*
X107851000Y-88602000D01*
X113080000Y-82316000D02*
X113080000Y-92436000D01*
X110195000Y-90946000D02*
X110136000Y-90887000D01*
X105120000Y-82076000D02*
X105120000Y-82676000D01*
X110404000Y-85665000D02*
G75*
G03*
X110403953Y-84086911I-1483995J789000D01*
G01*
X109709000Y-83392000D02*
G75*
G03*
X108130911Y-83392047I-789000J-1483995D01*
G01*
X108131000Y-86360000D02*
G75*
G03*
X109709089Y-86359953I789000J1483995D01*
G01*
X107436000Y-84087000D02*
G75*
G03*
X107239550Y-84905383I1483995J-788998D01*
G01*
X107240000Y-84876000D02*
G75*
G03*
X107436648Y-85664712I1679991J-2D01*
G01*
X110600000Y-89876000D02*
G75*
G03*
X110600000Y-89876000I-1680000J0D01*
G01*
X112470000Y-89876000D02*
G75*
G03*
X112470000Y-89876000I-550000J0D01*
G01*
X112470000Y-84876000D02*
G75*
G03*
X112470000Y-84876000I-550000J0D01*
G01*
D10*
X189144000Y-100642000D02*
X189144000Y-101042000D01*
X182894000Y-100692000D02*
X182894000Y-100392000D01*
X183219000Y-101342000D02*
X182994000Y-101342000D01*
X182994000Y-101342000D02*
X182994000Y-102992000D01*
X188769000Y-94792000D02*
X189144000Y-94792000D01*
X182894000Y-100692000D02*
X183219000Y-101042000D01*
X182894000Y-94792000D02*
X182894000Y-95292000D01*
X183444000Y-94792000D02*
X182894000Y-94792000D01*
X183219000Y-101042000D02*
X183219000Y-101342000D01*
X189144000Y-94792000D02*
X189144000Y-95167000D01*
X189144000Y-101042000D02*
X188744000Y-101042000D01*
X149683000Y-112732000D02*
X149683000Y-113107000D01*
X143133000Y-107182000D02*
X143133000Y-106957000D01*
X143133000Y-106957000D02*
X141483000Y-106957000D01*
X143783000Y-106857000D02*
X144083000Y-106857000D01*
X149683000Y-107407000D02*
X149683000Y-106857000D01*
X143433000Y-113107000D02*
X143433000Y-112707000D01*
X143833000Y-113107000D02*
X143433000Y-113107000D01*
X143783000Y-106857000D02*
X143433000Y-107182000D01*
X149683000Y-113107000D02*
X149308000Y-113107000D01*
X143433000Y-107182000D02*
X143133000Y-107182000D01*
X149683000Y-106857000D02*
X149183000Y-106857000D01*
D13*
X126389000Y-95857000D02*
X137009000Y-95857000D01*
X137009000Y-90797000D02*
X137009000Y-97417000D01*
X136189000Y-92477000D02*
X136135000Y-92531000D01*
X126389000Y-90797000D02*
X137009000Y-90797000D01*
X126149000Y-95917000D02*
X126149000Y-97657000D01*
X134264000Y-94782000D02*
X134210000Y-94837000D01*
X126389000Y-97417000D02*
X137009000Y-97417000D01*
X134096000Y-94571000D02*
X134020000Y-94647000D01*
X130596000Y-94571000D02*
X130520000Y-94647000D01*
X136379000Y-92667000D02*
X136303000Y-92743000D01*
X130764000Y-94782000D02*
X130710000Y-94837000D01*
X132689000Y-92477000D02*
X132635000Y-92531000D01*
X126149000Y-97657000D02*
X127649000Y-97657000D01*
X126389000Y-90797000D02*
X126389000Y-97417000D01*
X132879000Y-92667000D02*
X132803000Y-92743000D01*
X129585000Y-94364000D02*
G75*
G03*
X129585645Y-92951267I-1386001J706999D01*
G01*
X127492000Y-95043000D02*
G75*
G03*
X128225444Y-95212682I706999J1385995D01*
G01*
X128199000Y-95212000D02*
G75*
G03*
X128904955Y-95042515I-2J1555008D01*
G01*
X128906000Y-92271000D02*
G75*
G03*
X127493267Y-92270355I-706999J-1386001D01*
G01*
X126813000Y-92950000D02*
G75*
G03*
X126812355Y-94362733I1386001J-706999D01*
G01*
X133254000Y-93657000D02*
G75*
G03*
X133254000Y-93657000I-1555000J0D01*
G01*
X136754000Y-93657000D02*
G75*
G03*
X136754000Y-93657000I-1555000J0D01*
G01*
D10*
X159897000Y-106957000D02*
X158247000Y-106957000D01*
X166447000Y-112732000D02*
X166447000Y-113107000D01*
X160597000Y-113107000D02*
X160197000Y-113107000D01*
X160197000Y-113107000D02*
X160197000Y-112707000D01*
X166447000Y-106857000D02*
X165947000Y-106857000D01*
X159897000Y-107182000D02*
X159897000Y-106957000D01*
X166447000Y-113107000D02*
X166072000Y-113107000D01*
X160197000Y-107182000D02*
X159897000Y-107182000D01*
X166447000Y-107407000D02*
X166447000Y-106857000D01*
X160547000Y-106857000D02*
X160847000Y-106857000D01*
X160547000Y-106857000D02*
X160197000Y-107182000D01*
D13*
X134295750Y-106599000D02*
X134295750Y-109284000D01*
X136215750Y-109284000D02*
X136215750Y-106599000D01*
X136215750Y-106599000D02*
X134295750Y-106599000D01*
X123952000Y-107001000D02*
X125282000Y-107001000D01*
X122682000Y-109661000D02*
X117542000Y-109661000D01*
X117542000Y-107001000D02*
X117542000Y-109661000D01*
X125282000Y-107001000D02*
X125282000Y-108331000D01*
X122682000Y-107001000D02*
X122682000Y-109661000D01*
X122682000Y-107001000D02*
X117542000Y-107001000D01*
X174057000Y-54991000D02*
X174057000Y-53661000D01*
X174057000Y-56321000D02*
X176717000Y-56321000D01*
X174057000Y-56261000D02*
X176717000Y-56261000D01*
X174057000Y-53661000D02*
X175387000Y-53661000D01*
X176717000Y-56261000D02*
X176717000Y-56321000D01*
X174057000Y-56261000D02*
X174057000Y-56321000D01*
X138073000Y-95857000D02*
X148693000Y-95857000D01*
X148063000Y-92667000D02*
X147987000Y-92743000D01*
X138073000Y-90797000D02*
X148693000Y-90797000D01*
X148693000Y-90797000D02*
X148693000Y-97417000D01*
X138073000Y-90797000D02*
X138073000Y-97417000D01*
X138073000Y-97417000D02*
X148693000Y-97417000D01*
X142448000Y-94782000D02*
X142394000Y-94837000D01*
X145780000Y-94571000D02*
X145704000Y-94647000D01*
X137833000Y-97657000D02*
X139333000Y-97657000D01*
X144373000Y-92477000D02*
X144319000Y-92531000D01*
X147873000Y-92477000D02*
X147819000Y-92531000D01*
X145948000Y-94782000D02*
X145894000Y-94837000D01*
X142280000Y-94571000D02*
X142204000Y-94647000D01*
X144563000Y-92667000D02*
X144487000Y-92743000D01*
X137833000Y-95917000D02*
X137833000Y-97657000D01*
X138497000Y-92950000D02*
G75*
G03*
X138496355Y-94362733I1386001J-706999D01*
G01*
X139176000Y-95043000D02*
G75*
G03*
X139909444Y-95212682I706999J1385995D01*
G01*
X139883000Y-95212000D02*
G75*
G03*
X140588955Y-95042515I-2J1555008D01*
G01*
X140590000Y-92271000D02*
G75*
G03*
X139177267Y-92270355I-706999J-1386001D01*
G01*
X141269000Y-94364000D02*
G75*
G03*
X141269645Y-92951267I-1386001J706999D01*
G01*
X148438000Y-93657000D02*
G75*
G03*
X148438000Y-93657000I-1555000J0D01*
G01*
X144938000Y-93657000D02*
G75*
G03*
X144938000Y-93657000I-1555000J0D01*
G01*
X172633000Y-55982000D02*
X172688000Y-56036000D01*
X172422000Y-59650000D02*
X172498000Y-59726000D01*
X170328000Y-54057000D02*
X170382000Y-54111000D01*
X172633000Y-59482000D02*
X172688000Y-59536000D01*
X170518000Y-53867000D02*
X170594000Y-53943000D01*
X172422000Y-56150000D02*
X172498000Y-56226000D01*
X170328000Y-57557000D02*
X170382000Y-57611000D01*
X168648000Y-63857000D02*
X168648000Y-53237000D01*
X170518000Y-57367000D02*
X170594000Y-57443000D01*
X172894000Y-62754000D02*
G75*
G03*
X173063682Y-62020556I-1385995J706999D01*
G01*
X172215000Y-60661000D02*
G75*
G03*
X170802267Y-60660355I-706999J-1386001D01*
G01*
X173063000Y-62047000D02*
G75*
G03*
X172893515Y-61341045I-1555008J-2D01*
G01*
X170122000Y-61340000D02*
G75*
G03*
X170121355Y-62752733I1386001J-706999D01*
G01*
X170801000Y-63433000D02*
G75*
G03*
X172213733Y-63433645I706999J1386001D01*
G01*
X173063000Y-55047000D02*
G75*
G03*
X173063000Y-55047000I-1555000J0D01*
G01*
X173063000Y-58547000D02*
G75*
G03*
X173063000Y-58547000I-1555000J0D01*
G01*
D10*
X189144000Y-74726000D02*
X189144000Y-75101000D01*
X183444000Y-74726000D02*
X182894000Y-74726000D01*
X189144000Y-80976000D02*
X188744000Y-80976000D01*
X188769000Y-74726000D02*
X189144000Y-74726000D01*
X183219000Y-81276000D02*
X182994000Y-81276000D01*
X183219000Y-80976000D02*
X183219000Y-81276000D01*
X182894000Y-80626000D02*
X183219000Y-80976000D01*
X182894000Y-80626000D02*
X182894000Y-80326000D01*
X189144000Y-80576000D02*
X189144000Y-80976000D01*
X182994000Y-81276000D02*
X182994000Y-82926000D01*
X182894000Y-74726000D02*
X182894000Y-75226000D01*
D13*
X112527000Y-45025000D02*
X109927000Y-45025000D01*
X109927000Y-45025000D02*
X109927000Y-47685000D01*
X113797000Y-45025000D02*
X115127000Y-45025000D01*
X112527000Y-47685000D02*
X109927000Y-47685000D01*
X112527000Y-45025000D02*
X112527000Y-47685000D01*
X115127000Y-45025000D02*
X115127000Y-46355000D01*
X152278000Y-68266000D02*
X149678000Y-68266000D01*
X154878000Y-68266000D02*
X154878000Y-69596000D01*
X153548000Y-68266000D02*
X154878000Y-68266000D01*
X152278000Y-68266000D02*
X152278000Y-70926000D01*
X152278000Y-70926000D02*
X149678000Y-70926000D01*
X149678000Y-68266000D02*
X149678000Y-70926000D01*
X103826000Y-83506000D02*
X105156000Y-83506000D01*
X103826000Y-86106000D02*
X106486000Y-86106000D01*
X103826000Y-84836000D02*
X103826000Y-83506000D01*
X103826000Y-86166000D02*
X106486000Y-86166000D01*
X106486000Y-86106000D02*
X106486000Y-86166000D01*
X103826000Y-86106000D02*
X103826000Y-86166000D01*
X131164750Y-108534564D02*
X131164750Y-108080436D01*
X129694750Y-108534564D02*
X129694750Y-108080436D01*
X150054000Y-98806000D02*
X152714000Y-98806000D01*
X150054000Y-97536000D02*
X150054000Y-96206000D01*
X152714000Y-98806000D02*
X152714000Y-98866000D01*
X150054000Y-98866000D02*
X152714000Y-98866000D01*
X150054000Y-98806000D02*
X150054000Y-98866000D01*
X150054000Y-96206000D02*
X151384000Y-96206000D01*
X157293000Y-96206000D02*
X158623000Y-96206000D01*
X157293000Y-98866000D02*
X159953000Y-98866000D01*
X157293000Y-98806000D02*
X157293000Y-98866000D01*
X157293000Y-97536000D02*
X157293000Y-96206000D01*
X159953000Y-98806000D02*
X159953000Y-98866000D01*
X157293000Y-98806000D02*
X159953000Y-98806000D01*
D10*
X89676000Y-59270000D02*
X89676000Y-58770000D01*
X89676000Y-59270000D02*
X90176000Y-59270000D01*
X98876000Y-44670000D02*
X98876000Y-45170000D01*
X89676000Y-44670000D02*
X89676000Y-45170000D01*
X89676000Y-44670000D02*
X90176000Y-44670000D01*
X98876000Y-59270000D02*
X98376000Y-59270000D01*
X89676000Y-51970000D02*
X89676000Y-50970000D01*
X98876000Y-44670000D02*
X98376000Y-44670000D01*
X93076000Y-53670000D02*
X95476000Y-53670000D01*
X98876000Y-59270000D02*
X98876000Y-58770000D01*
X98876000Y-51970000D02*
X98876000Y-50970000D01*
X183219000Y-64512000D02*
X182994000Y-64512000D01*
X188769000Y-57962000D02*
X189144000Y-57962000D01*
X182894000Y-57962000D02*
X182894000Y-58462000D01*
X183444000Y-57962000D02*
X182894000Y-57962000D01*
X183219000Y-64212000D02*
X183219000Y-64512000D01*
X182894000Y-63862000D02*
X183219000Y-64212000D01*
X189144000Y-64212000D02*
X188744000Y-64212000D01*
X189144000Y-63812000D02*
X189144000Y-64212000D01*
X182994000Y-64512000D02*
X182994000Y-66162000D01*
X182894000Y-63862000D02*
X182894000Y-63562000D01*
X189144000Y-57962000D02*
X189144000Y-58337000D01*
D13*
X174057007Y-60773000D02*
X175387007Y-60773000D01*
X174057007Y-63433000D02*
X176717007Y-63433000D01*
X174057007Y-63373000D02*
X174057007Y-63433000D01*
X176717007Y-63373000D02*
X176717007Y-63433000D01*
X174057007Y-62103000D02*
X174057007Y-60773000D01*
X174057007Y-63373000D02*
X176717007Y-63373000D01*
D10*
X104593000Y-107232000D02*
X104593000Y-106857000D01*
X104593000Y-106857000D02*
X104968000Y-106857000D01*
X110843000Y-112782000D02*
X111143000Y-112782000D01*
X110493000Y-113107000D02*
X110193000Y-113107000D01*
X104593000Y-113107000D02*
X105093000Y-113107000D01*
X104593000Y-112557000D02*
X104593000Y-113107000D01*
X110443000Y-106857000D02*
X110843000Y-106857000D01*
X111143000Y-113007000D02*
X112793000Y-113007000D01*
X111143000Y-112782000D02*
X111143000Y-113007000D01*
X110493000Y-113107000D02*
X110843000Y-112782000D01*
X110843000Y-106857000D02*
X110843000Y-107257000D01*
D13*
X103826003Y-91186000D02*
X103826003Y-91246000D01*
X106486003Y-91186000D02*
X106486003Y-91246000D01*
X103826003Y-91246000D02*
X106486003Y-91246000D01*
X103826003Y-88586000D02*
X105156003Y-88586000D01*
X103826003Y-89916000D02*
X103826003Y-88586000D01*
X103826003Y-91186000D02*
X106486003Y-91186000D01*
X156247000Y-92667000D02*
X156171000Y-92743000D01*
X149757000Y-90797000D02*
X160377000Y-90797000D01*
X159557000Y-92477000D02*
X159503000Y-92531000D01*
X156057000Y-92477000D02*
X156003000Y-92531000D01*
X159747000Y-92667000D02*
X159671000Y-92743000D01*
X154132000Y-94782000D02*
X154078000Y-94837000D01*
X157632000Y-94782000D02*
X157578000Y-94837000D01*
X157464000Y-94571000D02*
X157388000Y-94647000D01*
X153964000Y-94571000D02*
X153888000Y-94647000D01*
X150181000Y-92950000D02*
G75*
G03*
X150180355Y-94362733I1386001J-706999D01*
G01*
X151567000Y-95212000D02*
G75*
G03*
X152272955Y-95042515I-2J1555008D01*
G01*
X152953000Y-94364000D02*
G75*
G03*
X152953645Y-92951267I-1386001J706999D01*
G01*
X150860000Y-95043000D02*
G75*
G03*
X151593444Y-95212682I706999J1385995D01*
G01*
X152274000Y-92271000D02*
G75*
G03*
X150861267Y-92270355I-706999J-1386001D01*
G01*
X156622000Y-93657000D02*
G75*
G03*
X156622000Y-93657000I-1555000J0D01*
G01*
X160122000Y-93657000D02*
G75*
G03*
X160122000Y-93657000I-1555000J0D01*
G01*
X116586000Y-65973000D02*
X116586000Y-63313000D01*
X116586000Y-63313000D02*
X126806000Y-63313000D01*
X116586000Y-65973000D02*
X126806000Y-65973000D01*
X115316000Y-65973000D02*
X113986000Y-65973000D01*
X113986000Y-65973000D02*
X113986000Y-64643000D01*
X126806000Y-65973000D02*
X126806000Y-63313000D01*
M02*
