G04 #@! TF.GenerationSoftware,KiCad,Pcbnew,6.0.2+dfsg-1*
G04 #@! TF.CreationDate,2023-08-12T13:44:09-06:00*
G04 #@! TF.ProjectId,ckt-soundplay-test,636b742d-736f-4756-9e64-706c61792d74,rev?*
G04 #@! TF.SameCoordinates,Original*
G04 #@! TF.FileFunction,Copper,L2,Bot*
G04 #@! TF.FilePolarity,Positive*
%FSLAX46Y46*%
G04 Gerber Fmt 4.6, Leading zero omitted, Abs format (unit mm)*
G04 Created by KiCad (PCBNEW 6.0.2+dfsg-1) date 2023-08-12 13:44:09*
%MOMM*%
%LPD*%
G01*
G04 APERTURE LIST*
G04 #@! TA.AperFunction,ComponentPad*
%ADD10R,2.500000X2.500000*%
G04 #@! TD*
G04 #@! TA.AperFunction,ComponentPad*
%ADD11C,2.500000*%
G04 #@! TD*
G04 #@! TA.AperFunction,ComponentPad*
%ADD12R,2.300000X2.300000*%
G04 #@! TD*
G04 #@! TA.AperFunction,ComponentPad*
%ADD13C,2.300000*%
G04 #@! TD*
G04 #@! TA.AperFunction,ComponentPad*
%ADD14C,6.400000*%
G04 #@! TD*
G04 #@! TA.AperFunction,ComponentPad*
%ADD15R,1.700000X1.700000*%
G04 #@! TD*
G04 #@! TA.AperFunction,ComponentPad*
%ADD16O,1.700000X1.700000*%
G04 #@! TD*
G04 #@! TA.AperFunction,ComponentPad*
%ADD17R,1.905000X1.905000*%
G04 #@! TD*
G04 #@! TA.AperFunction,ComponentPad*
%ADD18R,4.500000X2.000000*%
G04 #@! TD*
G04 #@! TA.AperFunction,ComponentPad*
%ADD19R,2.000000X4.500000*%
G04 #@! TD*
G04 #@! TA.AperFunction,Conductor*
%ADD20C,1.905000*%
G04 #@! TD*
G04 APERTURE END LIST*
D10*
X108920000Y-84876000D03*
D11*
X108920000Y-89876000D03*
D12*
X128199000Y-93657000D03*
D13*
X131699000Y-93657000D03*
X135199000Y-93657000D03*
D14*
X173482000Y-97282000D03*
X90678000Y-112522000D03*
X173482000Y-48768000D03*
D15*
X123952000Y-108331000D03*
D16*
X121412000Y-108331000D03*
X118872000Y-108331000D03*
D17*
X175386993Y-54990997D03*
D12*
X139883000Y-93657000D03*
D13*
X143383000Y-93657000D03*
X146883000Y-93657000D03*
D12*
X171508000Y-62047000D03*
D13*
X171508000Y-58547000D03*
X171508000Y-55047000D03*
D14*
X188722000Y-112522000D03*
D15*
X113797000Y-46355000D03*
D16*
X111257000Y-46355000D03*
D15*
X153548000Y-69596000D03*
D16*
X151008000Y-69596000D03*
D14*
X91313000Y-64516000D03*
D17*
X105156000Y-84836000D03*
X151384000Y-97536000D03*
X158623000Y-97536000D03*
D14*
X105918000Y-97282000D03*
X105918000Y-48768000D03*
D18*
X94276000Y-58470000D03*
X94276000Y-52470000D03*
D19*
X89576000Y-55470000D03*
D14*
X188722000Y-47498000D03*
D17*
X175387000Y-62103000D03*
X105156000Y-89916000D03*
D12*
X151567000Y-93657000D03*
D13*
X155067000Y-93657000D03*
X158567000Y-93657000D03*
D15*
X115316000Y-64643000D03*
D16*
X117856000Y-64643000D03*
X120396000Y-64643000D03*
X122936000Y-64643000D03*
X125476000Y-64643000D03*
D20*
X104394000Y-80350000D02*
X108920000Y-84876000D01*
X100507000Y-58470000D02*
X104394000Y-62357000D01*
X104394000Y-62357000D02*
X104394000Y-80350000D01*
X94276000Y-58470000D02*
X100507000Y-58470000D01*
X112776000Y-88773000D02*
X111673000Y-89876000D01*
X111673000Y-89876000D02*
X108920000Y-89876000D01*
X108839000Y-61087000D02*
X108839000Y-78105000D01*
X100222000Y-52470000D02*
X108839000Y-61087000D01*
X94276000Y-52470000D02*
X100222000Y-52470000D01*
X108839000Y-78105000D02*
X112776000Y-82042000D01*
X112776000Y-82042000D02*
X112776000Y-88773000D01*
M02*
