G04 #@! TF.GenerationSoftware,KiCad,Pcbnew,6.0.2+dfsg-1*
G04 #@! TF.CreationDate,2023-06-22T08:15:41-06:00*
G04 #@! TF.ProjectId,ckt-soundplay,636b742d-736f-4756-9e64-706c61792e6b,rev?*
G04 #@! TF.SameCoordinates,Original*
G04 #@! TF.FileFunction,Legend,Top*
G04 #@! TF.FilePolarity,Positive*
%FSLAX46Y46*%
G04 Gerber Fmt 4.6, Leading zero omitted, Abs format (unit mm)*
G04 Created by KiCad (PCBNEW 6.0.2+dfsg-1) date 2023-06-22 08:15:41*
%MOMM*%
%LPD*%
G01*
G04 APERTURE LIST*
%ADD10C,0.000000*%
%ADD11C,0.150000*%
%ADD12C,0.300000*%
%ADD13C,0.120000*%
%ADD14C,0.100000*%
G04 APERTURE END LIST*
D10*
G36*
X79417105Y-169295896D02*
G01*
X79431972Y-169297665D01*
X79446755Y-169300334D01*
X79461342Y-169303877D01*
X79475624Y-169308262D01*
X79489489Y-169313462D01*
X79502827Y-169319448D01*
X79515527Y-169326190D01*
X79527479Y-169333659D01*
X79538572Y-169341828D01*
X79543761Y-169346165D01*
X79548695Y-169350666D01*
X79553359Y-169355327D01*
X79557739Y-169360145D01*
X79566489Y-169370690D01*
X79574489Y-169381536D01*
X79581744Y-169392653D01*
X79588258Y-169404012D01*
X79594038Y-169415582D01*
X79599090Y-169427333D01*
X79603418Y-169439236D01*
X79607028Y-169451261D01*
X79609927Y-169463377D01*
X79612119Y-169475556D01*
X79613610Y-169487767D01*
X79614405Y-169499981D01*
X79614511Y-169512167D01*
X79613932Y-169524296D01*
X79612674Y-169536338D01*
X79610744Y-169548263D01*
X79608145Y-169560042D01*
X79604885Y-169571643D01*
X79600968Y-169583039D01*
X79596400Y-169594198D01*
X79591186Y-169605090D01*
X79585333Y-169615687D01*
X79578845Y-169625958D01*
X79571729Y-169635874D01*
X79563989Y-169645403D01*
X79555632Y-169654518D01*
X79546662Y-169663187D01*
X79537086Y-169671381D01*
X79526909Y-169679071D01*
X79516137Y-169686225D01*
X79504774Y-169692815D01*
X79492828Y-169698811D01*
X79482893Y-169703028D01*
X79472452Y-169706683D01*
X79461577Y-169709775D01*
X79450340Y-169712305D01*
X79438814Y-169714273D01*
X79427070Y-169715679D01*
X79415182Y-169716522D01*
X79403222Y-169716803D01*
X79391262Y-169716522D01*
X79379374Y-169715679D01*
X79367630Y-169714273D01*
X79356104Y-169712305D01*
X79344867Y-169709775D01*
X79333992Y-169706683D01*
X79323551Y-169703028D01*
X79313617Y-169698811D01*
X79306982Y-169695365D01*
X79299861Y-169691184D01*
X79292381Y-169686376D01*
X79284667Y-169681051D01*
X79276845Y-169675317D01*
X79269042Y-169669282D01*
X79261384Y-169663054D01*
X79253997Y-169656743D01*
X79247007Y-169650456D01*
X79240539Y-169644303D01*
X79234721Y-169638392D01*
X79229677Y-169632831D01*
X79225535Y-169627729D01*
X79223842Y-169625384D01*
X79222421Y-169623195D01*
X79221288Y-169621174D01*
X79220459Y-169619336D01*
X79219951Y-169617694D01*
X79219778Y-169616262D01*
X79219054Y-169615609D01*
X79216929Y-169614976D01*
X79208764Y-169613781D01*
X79195853Y-169612702D01*
X79178767Y-169611764D01*
X79158076Y-169610991D01*
X79134350Y-169610408D01*
X79080078Y-169609912D01*
X78940378Y-169609912D01*
X78684967Y-169932350D01*
X78429556Y-170255495D01*
X78429556Y-171047128D01*
X78447900Y-171057006D01*
X78453711Y-171060458D01*
X78459728Y-171064680D01*
X78465891Y-171069599D01*
X78472142Y-171075141D01*
X78478423Y-171081233D01*
X78484673Y-171087801D01*
X78490834Y-171094772D01*
X78496848Y-171102073D01*
X78502655Y-171109631D01*
X78508196Y-171117371D01*
X78513413Y-171125221D01*
X78518246Y-171133107D01*
X78522637Y-171140955D01*
X78526527Y-171148693D01*
X78529856Y-171156248D01*
X78532567Y-171163544D01*
X78535478Y-171173672D01*
X78537867Y-171184405D01*
X78539738Y-171195639D01*
X78541099Y-171207267D01*
X78541956Y-171219185D01*
X78542315Y-171231286D01*
X78542182Y-171243467D01*
X78541563Y-171255620D01*
X78540464Y-171267641D01*
X78538892Y-171279424D01*
X78536853Y-171290864D01*
X78534353Y-171301856D01*
X78531398Y-171312293D01*
X78527994Y-171322072D01*
X78524149Y-171331085D01*
X78519867Y-171339228D01*
X78511698Y-171352184D01*
X78503067Y-171364326D01*
X78493975Y-171375652D01*
X78484424Y-171386158D01*
X78474413Y-171395842D01*
X78463945Y-171404700D01*
X78453019Y-171412729D01*
X78441638Y-171419926D01*
X78429802Y-171426288D01*
X78417513Y-171431812D01*
X78404771Y-171436494D01*
X78391577Y-171440332D01*
X78377932Y-171443323D01*
X78363838Y-171445463D01*
X78349296Y-171446749D01*
X78334305Y-171447178D01*
X78323021Y-171446916D01*
X78311930Y-171446135D01*
X78301042Y-171444847D01*
X78290369Y-171443062D01*
X78279923Y-171440793D01*
X78269713Y-171438049D01*
X78259750Y-171434842D01*
X78250047Y-171431182D01*
X78240613Y-171427081D01*
X78231460Y-171422550D01*
X78222599Y-171417600D01*
X78214040Y-171412241D01*
X78205795Y-171406485D01*
X78197875Y-171400342D01*
X78190290Y-171393824D01*
X78183052Y-171386941D01*
X78176172Y-171379705D01*
X78169660Y-171372127D01*
X78163527Y-171364217D01*
X78157786Y-171355986D01*
X78152446Y-171347446D01*
X78147518Y-171338608D01*
X78143014Y-171329482D01*
X78138944Y-171320079D01*
X78135320Y-171310410D01*
X78132152Y-171300487D01*
X78129451Y-171290321D01*
X78127229Y-171279921D01*
X78125496Y-171269300D01*
X78124264Y-171258469D01*
X78123543Y-171247437D01*
X78123344Y-171236217D01*
X78123618Y-171223962D01*
X78124441Y-171212060D01*
X78125819Y-171200501D01*
X78127754Y-171189275D01*
X78130252Y-171178372D01*
X78133316Y-171167781D01*
X78136951Y-171157491D01*
X78141160Y-171147493D01*
X78145948Y-171137777D01*
X78151319Y-171128330D01*
X78157277Y-171119145D01*
X78163826Y-171110209D01*
X78170970Y-171101514D01*
X78178714Y-171093047D01*
X78187062Y-171084800D01*
X78196017Y-171076762D01*
X78232000Y-171045717D01*
X78232000Y-170180000D01*
X78537506Y-169793356D01*
X78842305Y-169406006D01*
X79029278Y-169405300D01*
X79216250Y-169404595D01*
X79235300Y-169377078D01*
X79239885Y-169370789D01*
X79244891Y-169364632D01*
X79250294Y-169358623D01*
X79256070Y-169352781D01*
X79262192Y-169347119D01*
X79268637Y-169341657D01*
X79275380Y-169336409D01*
X79282396Y-169331393D01*
X79289659Y-169326625D01*
X79297146Y-169322122D01*
X79304831Y-169317900D01*
X79312690Y-169313975D01*
X79320698Y-169310365D01*
X79328830Y-169307085D01*
X79337061Y-169304153D01*
X79345367Y-169301584D01*
X79352117Y-169299866D01*
X79358999Y-169298412D01*
X79373100Y-169296287D01*
X79387558Y-169295178D01*
X79402263Y-169295057D01*
X79417105Y-169295896D01*
G37*
G36*
X77230111Y-168396356D02*
G01*
X77230111Y-168170578D01*
X77484111Y-168170578D01*
X77681667Y-168170578D01*
X78450722Y-168170578D01*
X78450722Y-167796634D01*
X77681667Y-167796634D01*
X77681667Y-168170578D01*
X77484111Y-168170578D01*
X77484111Y-167796634D01*
X77230111Y-167796634D01*
X77230111Y-167570856D01*
X77484111Y-167570856D01*
X77681667Y-167570856D01*
X78450722Y-167570856D01*
X78450722Y-167196912D01*
X77681667Y-167196912D01*
X77681667Y-167570856D01*
X77484111Y-167570856D01*
X77484111Y-167196912D01*
X77230111Y-167196912D01*
X77230111Y-166978189D01*
X77484111Y-166978189D01*
X77681667Y-166978189D01*
X78450722Y-166978189D01*
X78450722Y-166604245D01*
X77681667Y-166604245D01*
X77681667Y-166978189D01*
X77484111Y-166978189D01*
X77484111Y-166604245D01*
X77230111Y-166604245D01*
X77230111Y-166378467D01*
X77484111Y-166378467D01*
X77681667Y-166378467D01*
X78450722Y-166378467D01*
X78450722Y-166004523D01*
X77681667Y-166004523D01*
X77681667Y-166378467D01*
X77484111Y-166378467D01*
X77484111Y-166004523D01*
X77230111Y-166004523D01*
X77230111Y-165785801D01*
X77484111Y-165785801D01*
X77484111Y-165433023D01*
X77681667Y-165433023D01*
X77681667Y-165785801D01*
X78450722Y-165785801D01*
X78450722Y-165433023D01*
X78648278Y-165433023D01*
X78648278Y-165785801D01*
X78902278Y-165785801D01*
X78902278Y-166004523D01*
X78648278Y-166004523D01*
X78648278Y-166378467D01*
X78902278Y-166378467D01*
X78902278Y-166604245D01*
X78648278Y-166604245D01*
X78648278Y-166978189D01*
X78902278Y-166978189D01*
X78902278Y-167196912D01*
X78648278Y-167196912D01*
X78648278Y-167570856D01*
X78902278Y-167570856D01*
X78902278Y-167796634D01*
X78648278Y-167796634D01*
X78648278Y-168170578D01*
X78902278Y-168170578D01*
X78902278Y-168396356D01*
X78648278Y-168396356D01*
X78648278Y-168763245D01*
X78902278Y-168763245D01*
X78902278Y-168996079D01*
X78648278Y-168996079D01*
X78648278Y-169324867D01*
X78256694Y-169819461D01*
X77865111Y-170314761D01*
X77865111Y-171426717D01*
X78136750Y-171698356D01*
X78803500Y-171698356D01*
X78803500Y-171113450D01*
X78803472Y-170923183D01*
X78803407Y-170845850D01*
X78803279Y-170779293D01*
X78803186Y-170749800D01*
X78803069Y-170722695D01*
X78802927Y-170697875D01*
X78802756Y-170675238D01*
X78802554Y-170654683D01*
X78802318Y-170636106D01*
X78802047Y-170619406D01*
X78801736Y-170604480D01*
X78801384Y-170591227D01*
X78800988Y-170579543D01*
X78800546Y-170569328D01*
X78800307Y-170564738D01*
X78800055Y-170560478D01*
X78799790Y-170556533D01*
X78799512Y-170552892D01*
X78799220Y-170549540D01*
X78798914Y-170546467D01*
X78798595Y-170543658D01*
X78798260Y-170541101D01*
X78797911Y-170538783D01*
X78797547Y-170536692D01*
X78797167Y-170534814D01*
X78796771Y-170533137D01*
X78796359Y-170531649D01*
X78795931Y-170530336D01*
X78795486Y-170529185D01*
X78795024Y-170528184D01*
X78794544Y-170527321D01*
X78794047Y-170526581D01*
X78793531Y-170525953D01*
X78792997Y-170525424D01*
X78792444Y-170524981D01*
X78791873Y-170524610D01*
X78791282Y-170524301D01*
X78790671Y-170524039D01*
X78789389Y-170523606D01*
X78787059Y-170522714D01*
X78784577Y-170521502D01*
X78779202Y-170518181D01*
X78773365Y-170513766D01*
X78767164Y-170508381D01*
X78760698Y-170502149D01*
X78754067Y-170495192D01*
X78747370Y-170487634D01*
X78740706Y-170479597D01*
X78734174Y-170471204D01*
X78727873Y-170462579D01*
X78721904Y-170453845D01*
X78716364Y-170445124D01*
X78711353Y-170436539D01*
X78706971Y-170428214D01*
X78703317Y-170420271D01*
X78700489Y-170412834D01*
X78697462Y-170402684D01*
X78694990Y-170392121D01*
X78693069Y-170381213D01*
X78691691Y-170370027D01*
X78690851Y-170358630D01*
X78690542Y-170347089D01*
X78690758Y-170335472D01*
X78691493Y-170323846D01*
X78692740Y-170312277D01*
X78694494Y-170300834D01*
X78696748Y-170289583D01*
X78699497Y-170278591D01*
X78702733Y-170267926D01*
X78706450Y-170257654D01*
X78710643Y-170247844D01*
X78715305Y-170238562D01*
X78719834Y-170230478D01*
X78724446Y-170222872D01*
X78729176Y-170215712D01*
X78734058Y-170208961D01*
X78739126Y-170202587D01*
X78744414Y-170196555D01*
X78749956Y-170190830D01*
X78755787Y-170185380D01*
X78761940Y-170180169D01*
X78768449Y-170175165D01*
X78775350Y-170170331D01*
X78782675Y-170165635D01*
X78790459Y-170161043D01*
X78798736Y-170156520D01*
X78807540Y-170152032D01*
X78816905Y-170147545D01*
X78828233Y-170142569D01*
X78833394Y-170140499D01*
X78838337Y-170138692D01*
X78843147Y-170137138D01*
X78847911Y-170135824D01*
X78852717Y-170134740D01*
X78857651Y-170133875D01*
X78862800Y-170133215D01*
X78868251Y-170132751D01*
X78874091Y-170132472D01*
X78880406Y-170132364D01*
X78887283Y-170132418D01*
X78894809Y-170132622D01*
X78912155Y-170133433D01*
X78924212Y-170134231D01*
X78935549Y-170135316D01*
X78946225Y-170136711D01*
X78956297Y-170138438D01*
X78965823Y-170140522D01*
X78974862Y-170142983D01*
X78983470Y-170145846D01*
X78991707Y-170149132D01*
X78999629Y-170152865D01*
X79007295Y-170157067D01*
X79014763Y-170161761D01*
X79022090Y-170166970D01*
X79029334Y-170172716D01*
X79036554Y-170179022D01*
X79043806Y-170185911D01*
X79051150Y-170193406D01*
X79059016Y-170201898D01*
X79066226Y-170210216D01*
X79072798Y-170218417D01*
X79078755Y-170226556D01*
X79084116Y-170234691D01*
X79088903Y-170242879D01*
X79093135Y-170251176D01*
X79096835Y-170259640D01*
X79100021Y-170268327D01*
X79102716Y-170277294D01*
X79104940Y-170286598D01*
X79106712Y-170296296D01*
X79108055Y-170306444D01*
X79108989Y-170317100D01*
X79109534Y-170328320D01*
X79109711Y-170340161D01*
X79109561Y-170353674D01*
X79108843Y-170366701D01*
X79107550Y-170379255D01*
X79105676Y-170391347D01*
X79103215Y-170402989D01*
X79100161Y-170414191D01*
X79096508Y-170424966D01*
X79092248Y-170435324D01*
X79087377Y-170445276D01*
X79084711Y-170450104D01*
X79081888Y-170454835D01*
X79078910Y-170459471D01*
X79075775Y-170464012D01*
X79069031Y-170472817D01*
X79061651Y-170481263D01*
X79053628Y-170489361D01*
X79044955Y-170497121D01*
X79035628Y-170504556D01*
X79001761Y-170530662D01*
X79001761Y-171212933D01*
X79001055Y-171895911D01*
X78052083Y-171895911D01*
X77860172Y-171704001D01*
X77667556Y-171511384D01*
X77667556Y-170238562D01*
X78059139Y-169743262D01*
X78450722Y-169248667D01*
X78450722Y-168996079D01*
X77681667Y-168996079D01*
X77681667Y-169318517D01*
X77680961Y-169641661D01*
X77554667Y-169800411D01*
X77428372Y-169959161D01*
X77427667Y-170904606D01*
X77427667Y-171850050D01*
X77462944Y-171880390D01*
X77472489Y-171888862D01*
X77481290Y-171897371D01*
X77489366Y-171905952D01*
X77496734Y-171914642D01*
X77503411Y-171923476D01*
X77509416Y-171932491D01*
X77514765Y-171941724D01*
X77519477Y-171951209D01*
X77523569Y-171960984D01*
X77527058Y-171971085D01*
X77529962Y-171981547D01*
X77532298Y-171992407D01*
X77534085Y-172003701D01*
X77535340Y-172015466D01*
X77536080Y-172027737D01*
X77536322Y-172040550D01*
X77536401Y-172057089D01*
X77536277Y-172064385D01*
X77536025Y-172071132D01*
X77535627Y-172077408D01*
X77535070Y-172083289D01*
X77534336Y-172088852D01*
X77533412Y-172094173D01*
X77532281Y-172099328D01*
X77530927Y-172104395D01*
X77529336Y-172109449D01*
X77527492Y-172114567D01*
X77525379Y-172119826D01*
X77522981Y-172125302D01*
X77520284Y-172131071D01*
X77517272Y-172137211D01*
X77509948Y-172150943D01*
X77502001Y-172163826D01*
X77493438Y-172175854D01*
X77484265Y-172187019D01*
X77474489Y-172197316D01*
X77464116Y-172206739D01*
X77453151Y-172215281D01*
X77441601Y-172222936D01*
X77429473Y-172229699D01*
X77416772Y-172235562D01*
X77403505Y-172240520D01*
X77389677Y-172244566D01*
X77375295Y-172247695D01*
X77360366Y-172249899D01*
X77344895Y-172251173D01*
X77328889Y-172251511D01*
X77316301Y-172251278D01*
X77304183Y-172250569D01*
X77292513Y-172249372D01*
X77281264Y-172247675D01*
X77270412Y-172245465D01*
X77259932Y-172242730D01*
X77249799Y-172239458D01*
X77239989Y-172235636D01*
X77230476Y-172231252D01*
X77221237Y-172226293D01*
X77212245Y-172220747D01*
X77203476Y-172214602D01*
X77194906Y-172207845D01*
X77186510Y-172200463D01*
X77178262Y-172192445D01*
X77170139Y-172183778D01*
X77162770Y-172175190D01*
X77156003Y-172166600D01*
X77149827Y-172157972D01*
X77144232Y-172149272D01*
X77139207Y-172140465D01*
X77134743Y-172131515D01*
X77130828Y-172122387D01*
X77127453Y-172113046D01*
X77124607Y-172103458D01*
X77122280Y-172093586D01*
X77120461Y-172083395D01*
X77119141Y-172072852D01*
X77118308Y-172061919D01*
X77117953Y-172050563D01*
X77118065Y-172038748D01*
X77118633Y-172026439D01*
X77119691Y-172014550D01*
X77121275Y-172002963D01*
X77123382Y-171991682D01*
X77126009Y-171980711D01*
X77129152Y-171970053D01*
X77132809Y-171959715D01*
X77136977Y-171949698D01*
X77141652Y-171940009D01*
X77146832Y-171930650D01*
X77152512Y-171921626D01*
X77158691Y-171912940D01*
X77165365Y-171904599D01*
X77172531Y-171896604D01*
X77180186Y-171888961D01*
X77188327Y-171881673D01*
X77196950Y-171874745D01*
X77230111Y-171850050D01*
X77230111Y-171338522D01*
X76866750Y-171338522D01*
X76835706Y-171374506D01*
X76826001Y-171385129D01*
X76815830Y-171394911D01*
X76805231Y-171403856D01*
X76794242Y-171411971D01*
X76782901Y-171419260D01*
X76771246Y-171425729D01*
X76759315Y-171431384D01*
X76747147Y-171436231D01*
X76734780Y-171440275D01*
X76722251Y-171443521D01*
X76709599Y-171445975D01*
X76696861Y-171447643D01*
X76684077Y-171448530D01*
X76671284Y-171448641D01*
X76658520Y-171447983D01*
X76645823Y-171446561D01*
X76633232Y-171444380D01*
X76620784Y-171441446D01*
X76608518Y-171437765D01*
X76596471Y-171433341D01*
X76584683Y-171428182D01*
X76573190Y-171422291D01*
X76562032Y-171415675D01*
X76551245Y-171408340D01*
X76540870Y-171400290D01*
X76530942Y-171391532D01*
X76521501Y-171382070D01*
X76512585Y-171371911D01*
X76504231Y-171361060D01*
X76496478Y-171349523D01*
X76489365Y-171337305D01*
X76482928Y-171324412D01*
X76479589Y-171316813D01*
X76476583Y-171309106D01*
X76473907Y-171301301D01*
X76471559Y-171293411D01*
X76469537Y-171285447D01*
X76467837Y-171277419D01*
X76466459Y-171269340D01*
X76465399Y-171261220D01*
X76464226Y-171244906D01*
X76464300Y-171228566D01*
X76465601Y-171212293D01*
X76468111Y-171196177D01*
X76471812Y-171180309D01*
X76476685Y-171164780D01*
X76482712Y-171149681D01*
X76489873Y-171135102D01*
X76493874Y-171128037D01*
X76498151Y-171121136D01*
X76502702Y-171114411D01*
X76507526Y-171107872D01*
X76512619Y-171101532D01*
X76517980Y-171095402D01*
X76523606Y-171089494D01*
X76529495Y-171083817D01*
X76537854Y-171076447D01*
X76546032Y-171069673D01*
X76554081Y-171063477D01*
X76562049Y-171057844D01*
X76569989Y-171052756D01*
X76577950Y-171048197D01*
X76585984Y-171044151D01*
X76594141Y-171040602D01*
X76602471Y-171037531D01*
X76611026Y-171034924D01*
X76619856Y-171032763D01*
X76629011Y-171031033D01*
X76638542Y-171029715D01*
X76648501Y-171028795D01*
X76658936Y-171028254D01*
X76669900Y-171028078D01*
X76683140Y-171028264D01*
X76695649Y-171028842D01*
X76707490Y-171029836D01*
X76718727Y-171031275D01*
X76729422Y-171033185D01*
X76739638Y-171035594D01*
X76749440Y-171038527D01*
X76758888Y-171042013D01*
X76768048Y-171046077D01*
X76776981Y-171050747D01*
X76785750Y-171056049D01*
X76794420Y-171062011D01*
X76803052Y-171068659D01*
X76811710Y-171076020D01*
X76820457Y-171084121D01*
X76829356Y-171092989D01*
X76870278Y-171133911D01*
X77230111Y-171133911D01*
X77230111Y-170731745D01*
X76573945Y-170731745D01*
X76573945Y-170326051D01*
X76537961Y-170295006D01*
X76526635Y-170284668D01*
X76516213Y-170273784D01*
X76506704Y-170262388D01*
X76498119Y-170250512D01*
X76490469Y-170238189D01*
X76483763Y-170225454D01*
X76478012Y-170212337D01*
X76473226Y-170198874D01*
X76469417Y-170185096D01*
X76466593Y-170171038D01*
X76464765Y-170156731D01*
X76463944Y-170142209D01*
X76464140Y-170127505D01*
X76465363Y-170112653D01*
X76467624Y-170097685D01*
X76470933Y-170082634D01*
X76476293Y-170064457D01*
X76482823Y-170047250D01*
X76486515Y-170039019D01*
X76490486Y-170031042D01*
X76494730Y-170023321D01*
X76499244Y-170015860D01*
X76504022Y-170008662D01*
X76509060Y-170001732D01*
X76514354Y-169995072D01*
X76519898Y-169988686D01*
X76525688Y-169982578D01*
X76531719Y-169976750D01*
X76537987Y-169971208D01*
X76544488Y-169965953D01*
X76551215Y-169960989D01*
X76558165Y-169956321D01*
X76565334Y-169951951D01*
X76572715Y-169947882D01*
X76580306Y-169944120D01*
X76588100Y-169940666D01*
X76596095Y-169937524D01*
X76604283Y-169934699D01*
X76612662Y-169932192D01*
X76621227Y-169930009D01*
X76638894Y-169926625D01*
X76657248Y-169924574D01*
X76676250Y-169923884D01*
X76684148Y-169924078D01*
X76691962Y-169924525D01*
X76699690Y-169925225D01*
X76707328Y-169926173D01*
X76714870Y-169927367D01*
X76722312Y-169928806D01*
X76729652Y-169930486D01*
X76736884Y-169932406D01*
X76744004Y-169934562D01*
X76751009Y-169936952D01*
X76757893Y-169939574D01*
X76764654Y-169942425D01*
X76771286Y-169945504D01*
X76777787Y-169948806D01*
X76784150Y-169952331D01*
X76790374Y-169956075D01*
X76796452Y-169960036D01*
X76802382Y-169964212D01*
X76808159Y-169968599D01*
X76813778Y-169973197D01*
X76819237Y-169978002D01*
X76824530Y-169983011D01*
X76829653Y-169988223D01*
X76834603Y-169993635D01*
X76839375Y-169999244D01*
X76843966Y-170005048D01*
X76848370Y-170011044D01*
X76852584Y-170017231D01*
X76856604Y-170023605D01*
X76860425Y-170030164D01*
X76864044Y-170036906D01*
X76867456Y-170043828D01*
X76871077Y-170052256D01*
X76874267Y-170061346D01*
X76877026Y-170071014D01*
X76879351Y-170081179D01*
X76881242Y-170091756D01*
X76882698Y-170102665D01*
X76883718Y-170113821D01*
X76884301Y-170125143D01*
X76884445Y-170136548D01*
X76884151Y-170147953D01*
X76883416Y-170159275D01*
X76882239Y-170170431D01*
X76880621Y-170181340D01*
X76878558Y-170191918D01*
X76876052Y-170202082D01*
X76873100Y-170211751D01*
X76870460Y-170218612D01*
X76867097Y-170225895D01*
X76863098Y-170233492D01*
X76858548Y-170241296D01*
X76853535Y-170249199D01*
X76848147Y-170257093D01*
X76842468Y-170264872D01*
X76836588Y-170272428D01*
X76830591Y-170279653D01*
X76824566Y-170286440D01*
X76818598Y-170292681D01*
X76812775Y-170298269D01*
X76807184Y-170303096D01*
X76801911Y-170307055D01*
X76799421Y-170308676D01*
X76797043Y-170310039D01*
X76794788Y-170311131D01*
X76792667Y-170311939D01*
X76790299Y-170312789D01*
X76788212Y-170313840D01*
X76786387Y-170315227D01*
X76784806Y-170317088D01*
X76783454Y-170319555D01*
X76782311Y-170322766D01*
X76781360Y-170326856D01*
X76780584Y-170331959D01*
X76779965Y-170338212D01*
X76779486Y-170345749D01*
X76778875Y-170365220D01*
X76778612Y-170391453D01*
X76778556Y-170425534D01*
X76778556Y-170534190D01*
X77230111Y-170534190D01*
X77230111Y-169883667D01*
X77357111Y-169724212D01*
X77484111Y-169564050D01*
X77484111Y-168996079D01*
X77230111Y-168996079D01*
X77230111Y-168763245D01*
X77484111Y-168763245D01*
X77681667Y-168763245D01*
X78450722Y-168763245D01*
X78450722Y-168396356D01*
X77681667Y-168396356D01*
X77681667Y-168763245D01*
X77484111Y-168763245D01*
X77484111Y-168396356D01*
X77230111Y-168396356D01*
G37*
G36*
X79726664Y-170116588D02*
G01*
X79721256Y-170092429D01*
X79717854Y-170073665D01*
X79716666Y-170060995D01*
X79716967Y-170057163D01*
X79717900Y-170055117D01*
X79932135Y-170006356D01*
X80396203Y-169906333D01*
X80859610Y-169808558D01*
X81071861Y-169766544D01*
X81072771Y-169768957D01*
X81074375Y-169774868D01*
X81079269Y-169795561D01*
X81085752Y-169825381D01*
X81093028Y-169861089D01*
X81109658Y-169939340D01*
X81128574Y-170014520D01*
X81149745Y-170086582D01*
X81173141Y-170155482D01*
X81198733Y-170221174D01*
X81226489Y-170283612D01*
X81256381Y-170342752D01*
X81288378Y-170398546D01*
X81305157Y-170425175D01*
X81322451Y-170450951D01*
X81340256Y-170475868D01*
X81358569Y-170499920D01*
X81377385Y-170523102D01*
X81396702Y-170545409D01*
X81416515Y-170566833D01*
X81436821Y-170587370D01*
X81457615Y-170607015D01*
X81478895Y-170625760D01*
X81500656Y-170643602D01*
X81522894Y-170660533D01*
X81545607Y-170676549D01*
X81568789Y-170691643D01*
X81592438Y-170705810D01*
X81616550Y-170719044D01*
X81647341Y-170734374D01*
X81678327Y-170748083D01*
X81709509Y-170760171D01*
X81740882Y-170770638D01*
X81772446Y-170779486D01*
X81804197Y-170786712D01*
X81836135Y-170792318D01*
X81868257Y-170796303D01*
X81900560Y-170798668D01*
X81933044Y-170799412D01*
X81965705Y-170798536D01*
X81998542Y-170796039D01*
X82031553Y-170791921D01*
X82064735Y-170786183D01*
X82098086Y-170778824D01*
X82131606Y-170769845D01*
X82180995Y-170753402D01*
X82227775Y-170733516D01*
X82271865Y-170710300D01*
X82313187Y-170683866D01*
X82351660Y-170654328D01*
X82387205Y-170621798D01*
X82419743Y-170586389D01*
X82449194Y-170548212D01*
X82475477Y-170507382D01*
X82498515Y-170464010D01*
X82518227Y-170418209D01*
X82534533Y-170370092D01*
X82547354Y-170319772D01*
X82556610Y-170267361D01*
X82562223Y-170212972D01*
X82564111Y-170156717D01*
X82563511Y-170125642D01*
X82561695Y-170095339D01*
X82558637Y-170065740D01*
X82554310Y-170036773D01*
X82548690Y-170008368D01*
X82541750Y-169980455D01*
X82533464Y-169952964D01*
X82523806Y-169925824D01*
X82512751Y-169898965D01*
X82500273Y-169872318D01*
X82486346Y-169845810D01*
X82470944Y-169819373D01*
X82454042Y-169792936D01*
X82435613Y-169766429D01*
X82415632Y-169739781D01*
X82394072Y-169712922D01*
X82365008Y-169679032D01*
X82334370Y-169645925D01*
X82301656Y-169613260D01*
X82266366Y-169580697D01*
X82228001Y-169547894D01*
X82186060Y-169514510D01*
X82140042Y-169480204D01*
X82089448Y-169444635D01*
X81972530Y-169368344D01*
X81831303Y-169282909D01*
X81661766Y-169185600D01*
X81459917Y-169073690D01*
X81296747Y-168983533D01*
X81156274Y-168904224D01*
X81035000Y-168833580D01*
X80929427Y-168769419D01*
X80836058Y-168709557D01*
X80751396Y-168651811D01*
X80671942Y-168594000D01*
X80594200Y-168533939D01*
X80553023Y-168499867D01*
X80507935Y-168460198D01*
X80460714Y-168416675D01*
X80413137Y-168371044D01*
X80366982Y-168325050D01*
X80324027Y-168280436D01*
X80286050Y-168238947D01*
X80269483Y-168219920D01*
X80254828Y-168202329D01*
X80209598Y-168143823D01*
X80167562Y-168084425D01*
X80128705Y-168024087D01*
X80093013Y-167962759D01*
X80060471Y-167900394D01*
X80031065Y-167836943D01*
X80004780Y-167772357D01*
X79981601Y-167706587D01*
X79961515Y-167639586D01*
X79944507Y-167571304D01*
X79930563Y-167501693D01*
X79919667Y-167430704D01*
X79911805Y-167358289D01*
X79906964Y-167284399D01*
X79905128Y-167208986D01*
X79906283Y-167132001D01*
X79910600Y-167046506D01*
X79917466Y-166963053D01*
X79926885Y-166881634D01*
X79938860Y-166802241D01*
X79953394Y-166724866D01*
X79970490Y-166649500D01*
X79990152Y-166576134D01*
X80012381Y-166504762D01*
X80037182Y-166435373D01*
X80064558Y-166367961D01*
X80094511Y-166302517D01*
X80127045Y-166239032D01*
X80162163Y-166177498D01*
X80199867Y-166117908D01*
X80240162Y-166060252D01*
X80283050Y-166004523D01*
X80294617Y-165990656D01*
X80307751Y-165975642D01*
X80337918Y-165942941D01*
X80371938Y-165907958D01*
X80408198Y-165872231D01*
X80445087Y-165837298D01*
X80480992Y-165804696D01*
X80514300Y-165775964D01*
X80529477Y-165763530D01*
X80543400Y-165752640D01*
X80596244Y-165714831D01*
X80651035Y-165678937D01*
X80707733Y-165644969D01*
X80766301Y-165612940D01*
X80826700Y-165582862D01*
X80888892Y-165554748D01*
X80952839Y-165528610D01*
X81018503Y-165504461D01*
X81085846Y-165482312D01*
X81154829Y-165462177D01*
X81225413Y-165444067D01*
X81297562Y-165427996D01*
X81371235Y-165413975D01*
X81446397Y-165402017D01*
X81523007Y-165392134D01*
X81601028Y-165384340D01*
X81648402Y-165381531D01*
X81710014Y-165379467D01*
X81780986Y-165378163D01*
X81856439Y-165377637D01*
X81931495Y-165377904D01*
X82001276Y-165378982D01*
X82060904Y-165380886D01*
X82105500Y-165383634D01*
X82261135Y-165402892D01*
X82411213Y-165431730D01*
X82484111Y-165449698D01*
X82555551Y-165470007D01*
X82625511Y-165492640D01*
X82693966Y-165517579D01*
X82760895Y-165544807D01*
X82826275Y-165574305D01*
X82890082Y-165606055D01*
X82952295Y-165640040D01*
X83012889Y-165676242D01*
X83071842Y-165714643D01*
X83129132Y-165755226D01*
X83184735Y-165797972D01*
X83238629Y-165842863D01*
X83290790Y-165889882D01*
X83341196Y-165939011D01*
X83389825Y-165990233D01*
X83436652Y-166043528D01*
X83481655Y-166098880D01*
X83524812Y-166156271D01*
X83566099Y-166215682D01*
X83605494Y-166277097D01*
X83642973Y-166340497D01*
X83678515Y-166405863D01*
X83712095Y-166473180D01*
X83743692Y-166542428D01*
X83773282Y-166613590D01*
X83826350Y-166761584D01*
X83837717Y-166797770D01*
X83849688Y-166838478D01*
X83861610Y-166881155D01*
X83872828Y-166923244D01*
X83882691Y-166962192D01*
X83890544Y-166995442D01*
X83895735Y-167020441D01*
X83897128Y-167029048D01*
X83897611Y-167034634D01*
X83895840Y-167036548D01*
X83890357Y-167039432D01*
X83867228Y-167048414D01*
X83765143Y-167081377D01*
X83574952Y-167138417D01*
X83280250Y-167224428D01*
X83040074Y-167293859D01*
X82843158Y-167350193D01*
X82709742Y-167387742D01*
X82673172Y-167397694D01*
X82660067Y-167400817D01*
X82658868Y-167398339D01*
X82656429Y-167392240D01*
X82648425Y-167370831D01*
X82637246Y-167339897D01*
X82624083Y-167302745D01*
X82593469Y-167219228D01*
X82562164Y-167141122D01*
X82530087Y-167068330D01*
X82497160Y-167000756D01*
X82463303Y-166938305D01*
X82428436Y-166880879D01*
X82410599Y-166854021D01*
X82392480Y-166828384D01*
X82374068Y-166803955D01*
X82355355Y-166780722D01*
X82336329Y-166758674D01*
X82316981Y-166737798D01*
X82297301Y-166718083D01*
X82277279Y-166699516D01*
X82256905Y-166682085D01*
X82236170Y-166665779D01*
X82215062Y-166650585D01*
X82193573Y-166636491D01*
X82171692Y-166623486D01*
X82149409Y-166611557D01*
X82126715Y-166600692D01*
X82103600Y-166590879D01*
X82080052Y-166582107D01*
X82056064Y-166574363D01*
X82031624Y-166567635D01*
X82006722Y-166561912D01*
X81990067Y-166558671D01*
X81972234Y-166555828D01*
X81953403Y-166553383D01*
X81933752Y-166551339D01*
X81892707Y-166548455D01*
X81850530Y-166547183D01*
X81808650Y-166547532D01*
X81768498Y-166549510D01*
X81749517Y-166551112D01*
X81731505Y-166553124D01*
X81714639Y-166555548D01*
X81699100Y-166558384D01*
X81653607Y-166569482D01*
X81610784Y-166583201D01*
X81570624Y-166599552D01*
X81533118Y-166618544D01*
X81515358Y-166629033D01*
X81498258Y-166640185D01*
X81481817Y-166652003D01*
X81466035Y-166664486D01*
X81450910Y-166677636D01*
X81436442Y-166691455D01*
X81422628Y-166705944D01*
X81409469Y-166721103D01*
X81396963Y-166736933D01*
X81385110Y-166753437D01*
X81373907Y-166770615D01*
X81363355Y-166788468D01*
X81344196Y-166826205D01*
X81327625Y-166866657D01*
X81313634Y-166909833D01*
X81302214Y-166955743D01*
X81293357Y-167004395D01*
X81287055Y-167055801D01*
X81285239Y-167077255D01*
X81284033Y-167097756D01*
X81283454Y-167117394D01*
X81283517Y-167136256D01*
X81284237Y-167154432D01*
X81285629Y-167172010D01*
X81287710Y-167189081D01*
X81290495Y-167205731D01*
X81293999Y-167222051D01*
X81298238Y-167238129D01*
X81303228Y-167254054D01*
X81308983Y-167269915D01*
X81315520Y-167285800D01*
X81322853Y-167301800D01*
X81330999Y-167318002D01*
X81339972Y-167334495D01*
X81351343Y-167353720D01*
X81364030Y-167373039D01*
X81378044Y-167392461D01*
X81393396Y-167411996D01*
X81410096Y-167431655D01*
X81428153Y-167451449D01*
X81447579Y-167471388D01*
X81468383Y-167491481D01*
X81490577Y-167511740D01*
X81514170Y-167532175D01*
X81539173Y-167552795D01*
X81565596Y-167573612D01*
X81593449Y-167594636D01*
X81622743Y-167615877D01*
X81653488Y-167637345D01*
X81685694Y-167659051D01*
X81731193Y-167688749D01*
X81776898Y-167717512D01*
X81825531Y-167746921D01*
X81879810Y-167778554D01*
X82016192Y-167854809D01*
X82207805Y-167958912D01*
X82338874Y-168029675D01*
X82451487Y-168091237D01*
X82548622Y-168145307D01*
X82633256Y-168193597D01*
X82708364Y-168237820D01*
X82776924Y-168279686D01*
X82841912Y-168320907D01*
X82906305Y-168363195D01*
X83028395Y-168448220D01*
X83142323Y-168534603D01*
X83248196Y-168622512D01*
X83346120Y-168712114D01*
X83436202Y-168803576D01*
X83518547Y-168897066D01*
X83593263Y-168992751D01*
X83660456Y-169090799D01*
X83720233Y-169191377D01*
X83772699Y-169294652D01*
X83817961Y-169400793D01*
X83856127Y-169509965D01*
X83887301Y-169622338D01*
X83911591Y-169738077D01*
X83929103Y-169857352D01*
X83939944Y-169980328D01*
X83942968Y-170055908D01*
X83943097Y-170133853D01*
X83940416Y-170213220D01*
X83935005Y-170293066D01*
X83926949Y-170372449D01*
X83916330Y-170450427D01*
X83903230Y-170526056D01*
X83887733Y-170598395D01*
X83851634Y-170729673D01*
X83806707Y-170855369D01*
X83753152Y-170975305D01*
X83691170Y-171089307D01*
X83620960Y-171197199D01*
X83542725Y-171298805D01*
X83456663Y-171393949D01*
X83362976Y-171482456D01*
X83261864Y-171564150D01*
X83153528Y-171638855D01*
X83038168Y-171706396D01*
X82915985Y-171766596D01*
X82787179Y-171819281D01*
X82651950Y-171864274D01*
X82510499Y-171901400D01*
X82363028Y-171930483D01*
X82256774Y-171945822D01*
X82147469Y-171957416D01*
X82036561Y-171965223D01*
X81925495Y-171969201D01*
X81815719Y-171969310D01*
X81708680Y-171965508D01*
X81605825Y-171957754D01*
X81556418Y-171952382D01*
X81508600Y-171946006D01*
X81393831Y-171926122D01*
X81282368Y-171900874D01*
X81174224Y-171870269D01*
X81069414Y-171834319D01*
X80967953Y-171793031D01*
X80869855Y-171746415D01*
X80775134Y-171694481D01*
X80683806Y-171637237D01*
X80595884Y-171574694D01*
X80511383Y-171506859D01*
X80430317Y-171433744D01*
X80352702Y-171355357D01*
X80278550Y-171271706D01*
X80207878Y-171182803D01*
X80140699Y-171088655D01*
X80077028Y-170989273D01*
X80053448Y-170948698D01*
X80026900Y-170900020D01*
X79998583Y-170845653D01*
X79969695Y-170788013D01*
X79941436Y-170729512D01*
X79915003Y-170672566D01*
X79891597Y-170619589D01*
X79872416Y-170572995D01*
X79845375Y-170501199D01*
X79817218Y-170420242D01*
X79789606Y-170335713D01*
X79764202Y-170253202D01*
X79749341Y-170201512D01*
X79945560Y-170201512D01*
X79945794Y-170204959D01*
X79946491Y-170209291D01*
X79947666Y-170214629D01*
X79949332Y-170221093D01*
X79951505Y-170228805D01*
X79957428Y-170248454D01*
X79965550Y-170274545D01*
X79983892Y-170331130D01*
X80003179Y-170387071D01*
X80023379Y-170442303D01*
X80044462Y-170496762D01*
X80066397Y-170550381D01*
X80089152Y-170603095D01*
X80112697Y-170654840D01*
X80137000Y-170705551D01*
X80162031Y-170755162D01*
X80187759Y-170803608D01*
X80214152Y-170850824D01*
X80241180Y-170896745D01*
X80268811Y-170941307D01*
X80297015Y-170984442D01*
X80325761Y-171026088D01*
X80355017Y-171066178D01*
X80416255Y-171143703D01*
X80480129Y-171216745D01*
X80546661Y-171285318D01*
X80615874Y-171349437D01*
X80687791Y-171409115D01*
X80762434Y-171464368D01*
X80839826Y-171515209D01*
X80919990Y-171561655D01*
X81002949Y-171603717D01*
X81088726Y-171641413D01*
X81177342Y-171674755D01*
X81268821Y-171703758D01*
X81363186Y-171728437D01*
X81460460Y-171748806D01*
X81560664Y-171764880D01*
X81663822Y-171776672D01*
X81719564Y-171780262D01*
X81787361Y-171782107D01*
X81863326Y-171782315D01*
X81943575Y-171780994D01*
X82024221Y-171778250D01*
X82101377Y-171774192D01*
X82171158Y-171768926D01*
X82229678Y-171762561D01*
X82312312Y-171750192D01*
X82392736Y-171735571D01*
X82470956Y-171718697D01*
X82546979Y-171699568D01*
X82620811Y-171678182D01*
X82692459Y-171654537D01*
X82761927Y-171628630D01*
X82829223Y-171600460D01*
X82894353Y-171570024D01*
X82957323Y-171537321D01*
X83018139Y-171502348D01*
X83076807Y-171465104D01*
X83133334Y-171425585D01*
X83187726Y-171383791D01*
X83239988Y-171339719D01*
X83290128Y-171293367D01*
X83336104Y-171246931D01*
X83379595Y-171199131D01*
X83420631Y-171149909D01*
X83459240Y-171099207D01*
X83495452Y-171046967D01*
X83529294Y-170993131D01*
X83560797Y-170937642D01*
X83589989Y-170880441D01*
X83616898Y-170821470D01*
X83641555Y-170760673D01*
X83663987Y-170697990D01*
X83684225Y-170633364D01*
X83702296Y-170566737D01*
X83718229Y-170498052D01*
X83732054Y-170427249D01*
X83743800Y-170354273D01*
X83746373Y-170332975D01*
X83748538Y-170307089D01*
X83751671Y-170244162D01*
X83753251Y-170170718D01*
X83753325Y-170091982D01*
X83751944Y-170013181D01*
X83749158Y-169939538D01*
X83745015Y-169876281D01*
X83739566Y-169828634D01*
X83732839Y-169789887D01*
X83724507Y-169748057D01*
X83714886Y-169704424D01*
X83704289Y-169660270D01*
X83693030Y-169616877D01*
X83681425Y-169575527D01*
X83669786Y-169537500D01*
X83658428Y-169504078D01*
X83647573Y-169475718D01*
X83635683Y-169446796D01*
X83622816Y-169417411D01*
X83609028Y-169387662D01*
X83594375Y-169357648D01*
X83578916Y-169327469D01*
X83545803Y-169267012D01*
X83510144Y-169207083D01*
X83472392Y-169148478D01*
X83452874Y-169119920D01*
X83433004Y-169091990D01*
X83412838Y-169064787D01*
X83392433Y-169038411D01*
X83378645Y-169021679D01*
X83362360Y-169002908D01*
X83323564Y-168960492D01*
X83278567Y-168913644D01*
X83229891Y-168864845D01*
X83180057Y-168816575D01*
X83131587Y-168771315D01*
X83087004Y-168731545D01*
X83048828Y-168699745D01*
X82961368Y-168632533D01*
X82874478Y-168569372D01*
X82783901Y-168507633D01*
X82685379Y-168444687D01*
X82574652Y-168377904D01*
X82447463Y-168304656D01*
X82299554Y-168222313D01*
X82126667Y-168128245D01*
X81952726Y-168033519D01*
X81807634Y-167952385D01*
X81744648Y-167916099D01*
X81687363Y-167882232D01*
X81635277Y-167850457D01*
X81587887Y-167820446D01*
X81544688Y-167791875D01*
X81505178Y-167764415D01*
X81468854Y-167737741D01*
X81435211Y-167711526D01*
X81403747Y-167685443D01*
X81373959Y-167659166D01*
X81345342Y-167632368D01*
X81317394Y-167604723D01*
X81290637Y-167576989D01*
X81265892Y-167549807D01*
X81243101Y-167523064D01*
X81222210Y-167496651D01*
X81203164Y-167470458D01*
X81185905Y-167444373D01*
X81170378Y-167418286D01*
X81156528Y-167392086D01*
X81144298Y-167365663D01*
X81133633Y-167338906D01*
X81124477Y-167311705D01*
X81116774Y-167283949D01*
X81110468Y-167255527D01*
X81105504Y-167226329D01*
X81101826Y-167196244D01*
X81099378Y-167165162D01*
X81097688Y-167116308D01*
X81098661Y-167067752D01*
X81102230Y-167019662D01*
X81108330Y-166972203D01*
X81116893Y-166925543D01*
X81127854Y-166879846D01*
X81141146Y-166835280D01*
X81156704Y-166792011D01*
X81174462Y-166750206D01*
X81194352Y-166710030D01*
X81216310Y-166671651D01*
X81240268Y-166635234D01*
X81266162Y-166600947D01*
X81293924Y-166568955D01*
X81323488Y-166539425D01*
X81338926Y-166525635D01*
X81354789Y-166512523D01*
X81401371Y-166479089D01*
X81451651Y-166449709D01*
X81505177Y-166424401D01*
X81561495Y-166403184D01*
X81620152Y-166386076D01*
X81680698Y-166373096D01*
X81742677Y-166364262D01*
X81805639Y-166359594D01*
X81869129Y-166359109D01*
X81932697Y-166362827D01*
X81995888Y-166370765D01*
X82058250Y-166382943D01*
X82119330Y-166399379D01*
X82178677Y-166420092D01*
X82235836Y-166445100D01*
X82290356Y-166474423D01*
X82306199Y-166484437D01*
X82323178Y-166496362D01*
X82341103Y-166510010D01*
X82359787Y-166525190D01*
X82379041Y-166541713D01*
X82398678Y-166559391D01*
X82418509Y-166578035D01*
X82438346Y-166597454D01*
X82458001Y-166617461D01*
X82477286Y-166637865D01*
X82496014Y-166658478D01*
X82513995Y-166679111D01*
X82531041Y-166699574D01*
X82546966Y-166719679D01*
X82561579Y-166739236D01*
X82574695Y-166758056D01*
X82596765Y-166793009D01*
X82619762Y-166832095D01*
X82643156Y-166874291D01*
X82666417Y-166918570D01*
X82689017Y-166963908D01*
X82710426Y-167009278D01*
X82730115Y-167053657D01*
X82747555Y-167096018D01*
X82751891Y-167106904D01*
X82755915Y-167116829D01*
X82759645Y-167125823D01*
X82763100Y-167133919D01*
X82766298Y-167141146D01*
X82769259Y-167147537D01*
X82770657Y-167150427D01*
X82772001Y-167153121D01*
X82773296Y-167155620D01*
X82774543Y-167157930D01*
X82775744Y-167160053D01*
X82776902Y-167161995D01*
X82778020Y-167163758D01*
X82779099Y-167165346D01*
X82780141Y-167166764D01*
X82781150Y-167168016D01*
X82782127Y-167169105D01*
X82783076Y-167170034D01*
X82783997Y-167170809D01*
X82784894Y-167171433D01*
X82785768Y-167171909D01*
X82786623Y-167172242D01*
X82787460Y-167172435D01*
X82788281Y-167172493D01*
X82789090Y-167172419D01*
X82789889Y-167172217D01*
X83227333Y-167045217D01*
X83532221Y-166956582D01*
X83627681Y-166928239D01*
X83654942Y-166919884D01*
X83666189Y-166916101D01*
X83667915Y-166915252D01*
X83669379Y-166914239D01*
X83670568Y-166912980D01*
X83671469Y-166911393D01*
X83672069Y-166909397D01*
X83672353Y-166906911D01*
X83672308Y-166903851D01*
X83671921Y-166900137D01*
X83671179Y-166895688D01*
X83670068Y-166890421D01*
X83666685Y-166877108D01*
X83661665Y-166859545D01*
X83654900Y-166837078D01*
X83640288Y-166791663D01*
X83624518Y-166746478D01*
X83607627Y-166701586D01*
X83589647Y-166657051D01*
X83570613Y-166612939D01*
X83550559Y-166569312D01*
X83529519Y-166526235D01*
X83507527Y-166483771D01*
X83484617Y-166441986D01*
X83460824Y-166400943D01*
X83436181Y-166360706D01*
X83410722Y-166321339D01*
X83384483Y-166282907D01*
X83357496Y-166245473D01*
X83329795Y-166209101D01*
X83301416Y-166173856D01*
X83288878Y-166159158D01*
X83274928Y-166143487D01*
X83243495Y-166109893D01*
X83208523Y-166074414D01*
X83171418Y-166038390D01*
X83133585Y-166003159D01*
X83096430Y-165970061D01*
X83061359Y-165940436D01*
X83045044Y-165927344D01*
X83029778Y-165915623D01*
X82984291Y-165882689D01*
X82937778Y-165851355D01*
X82890222Y-165821614D01*
X82841604Y-165793462D01*
X82791907Y-165766894D01*
X82741113Y-165741903D01*
X82689205Y-165718486D01*
X82636166Y-165696636D01*
X82581977Y-165676349D01*
X82526622Y-165657620D01*
X82470082Y-165640443D01*
X82412340Y-165624813D01*
X82353378Y-165610725D01*
X82293179Y-165598174D01*
X82231726Y-165587155D01*
X82169000Y-165577662D01*
X82122793Y-165572983D01*
X82060620Y-165569074D01*
X81987615Y-165566041D01*
X81908914Y-165563992D01*
X81829651Y-165563034D01*
X81754960Y-165563275D01*
X81689976Y-165564823D01*
X81639833Y-165567784D01*
X81478796Y-165586542D01*
X81401438Y-165599164D01*
X81326199Y-165613937D01*
X81253086Y-165630854D01*
X81182111Y-165649906D01*
X81113280Y-165671087D01*
X81046604Y-165694387D01*
X80982091Y-165719800D01*
X80919751Y-165747318D01*
X80859591Y-165776933D01*
X80801621Y-165808638D01*
X80745850Y-165842423D01*
X80692287Y-165878283D01*
X80640940Y-165916209D01*
X80591819Y-165956192D01*
X80544932Y-165998227D01*
X80500289Y-166042304D01*
X80457898Y-166088416D01*
X80417768Y-166136555D01*
X80379909Y-166186714D01*
X80344328Y-166238885D01*
X80311036Y-166293060D01*
X80280040Y-166349231D01*
X80251351Y-166407390D01*
X80224976Y-166467531D01*
X80200924Y-166529644D01*
X80179205Y-166593722D01*
X80159828Y-166659758D01*
X80142801Y-166727744D01*
X80128133Y-166797672D01*
X80115833Y-166869534D01*
X80108317Y-166923473D01*
X80102172Y-166977030D01*
X80097394Y-167030140D01*
X80093983Y-167082733D01*
X80091937Y-167134743D01*
X80091252Y-167186104D01*
X80091928Y-167236747D01*
X80093961Y-167286605D01*
X80097351Y-167335612D01*
X80102094Y-167383701D01*
X80108190Y-167430803D01*
X80115635Y-167476852D01*
X80124428Y-167521781D01*
X80134567Y-167565522D01*
X80146049Y-167608008D01*
X80158872Y-167649173D01*
X80173190Y-167690035D01*
X80189378Y-167731068D01*
X80207370Y-167772178D01*
X80227102Y-167813269D01*
X80248508Y-167854250D01*
X80271523Y-167895024D01*
X80296082Y-167935499D01*
X80322120Y-167975580D01*
X80349572Y-168015174D01*
X80378373Y-168054185D01*
X80408458Y-168092520D01*
X80439761Y-168130086D01*
X80472217Y-168166787D01*
X80505762Y-168202531D01*
X80540330Y-168237222D01*
X80575856Y-168270767D01*
X80659927Y-168344699D01*
X80746909Y-168415208D01*
X80840571Y-168484757D01*
X80944685Y-168555811D01*
X81063020Y-168630835D01*
X81199346Y-168712291D01*
X81357435Y-168802643D01*
X81541055Y-168904356D01*
X81746813Y-169017939D01*
X81828839Y-169064011D01*
X81899654Y-169104469D01*
X81961274Y-169140462D01*
X82015718Y-169173140D01*
X82065002Y-169203651D01*
X82111144Y-169233145D01*
X82171355Y-169273422D01*
X82227969Y-169313103D01*
X82281094Y-169352302D01*
X82330837Y-169391134D01*
X82377305Y-169429714D01*
X82420608Y-169468157D01*
X82460850Y-169506577D01*
X82498142Y-169545089D01*
X82532588Y-169583807D01*
X82564298Y-169622847D01*
X82593379Y-169662323D01*
X82619938Y-169702350D01*
X82644083Y-169743043D01*
X82665920Y-169784516D01*
X82685559Y-169826884D01*
X82703105Y-169870262D01*
X82712869Y-169898410D01*
X82721521Y-169927734D01*
X82729057Y-169958104D01*
X82735473Y-169989390D01*
X82740764Y-170021462D01*
X82744926Y-170054188D01*
X82747956Y-170087440D01*
X82749848Y-170121087D01*
X82750600Y-170154998D01*
X82750207Y-170189043D01*
X82748664Y-170223093D01*
X82745968Y-170257016D01*
X82742114Y-170290684D01*
X82737099Y-170323964D01*
X82730918Y-170356728D01*
X82723567Y-170388845D01*
X82704274Y-170454064D01*
X82680614Y-170516035D01*
X82652720Y-170574654D01*
X82620721Y-170629815D01*
X82584749Y-170681411D01*
X82544936Y-170729339D01*
X82501412Y-170773492D01*
X82454309Y-170813766D01*
X82403758Y-170850054D01*
X82349891Y-170882252D01*
X82292838Y-170910253D01*
X82232732Y-170933953D01*
X82169702Y-170953246D01*
X82103881Y-170968026D01*
X82035399Y-170978189D01*
X81964389Y-170983628D01*
X81920716Y-170984417D01*
X81877558Y-170983097D01*
X81834939Y-170979689D01*
X81792886Y-170974217D01*
X81751426Y-170966705D01*
X81710584Y-170957175D01*
X81670387Y-170945651D01*
X81630860Y-170932156D01*
X81592029Y-170916712D01*
X81553921Y-170899343D01*
X81516562Y-170880072D01*
X81479978Y-170858923D01*
X81444195Y-170835917D01*
X81409239Y-170811079D01*
X81375136Y-170784432D01*
X81341913Y-170755998D01*
X81309594Y-170725801D01*
X81278208Y-170693864D01*
X81247778Y-170660210D01*
X81218333Y-170624863D01*
X81162497Y-170549178D01*
X81110909Y-170466996D01*
X81063778Y-170378501D01*
X81021312Y-170283878D01*
X80983720Y-170183313D01*
X80951211Y-170076989D01*
X80946501Y-170059160D01*
X80941973Y-170042439D01*
X80937742Y-170027206D01*
X80933925Y-170013842D01*
X80930637Y-170002727D01*
X80927994Y-169994241D01*
X80926112Y-169988765D01*
X80925492Y-169987274D01*
X80925106Y-169986679D01*
X80460233Y-170083780D01*
X79955672Y-170191995D01*
X79950830Y-170193314D01*
X79948966Y-170194151D01*
X79947492Y-170195269D01*
X79946424Y-170196788D01*
X79945775Y-170198828D01*
X79945560Y-170201512D01*
X79749341Y-170201512D01*
X79742667Y-170178297D01*
X79726664Y-170116588D01*
G37*
G36*
X78083128Y-163056536D02*
G01*
X78125726Y-163057883D01*
X78165413Y-163060041D01*
X78199412Y-163062960D01*
X78213410Y-163064689D01*
X78224944Y-163066590D01*
X78255692Y-163072971D01*
X78286014Y-163080469D01*
X78315897Y-163089075D01*
X78345330Y-163098781D01*
X78374300Y-163109578D01*
X78402794Y-163121458D01*
X78430801Y-163134413D01*
X78458307Y-163148434D01*
X78485301Y-163163514D01*
X78511769Y-163179644D01*
X78537701Y-163196816D01*
X78563082Y-163215021D01*
X78587901Y-163234252D01*
X78612146Y-163254499D01*
X78635803Y-163275755D01*
X78658861Y-163298012D01*
X78678696Y-163318492D01*
X78697720Y-163339448D01*
X78715932Y-163360878D01*
X78733330Y-163382778D01*
X78749914Y-163405145D01*
X78765682Y-163427976D01*
X78780634Y-163451268D01*
X78794769Y-163475018D01*
X78808085Y-163499223D01*
X78820581Y-163523879D01*
X78832256Y-163548984D01*
X78843110Y-163574535D01*
X78853142Y-163600527D01*
X78862349Y-163626959D01*
X78870732Y-163653827D01*
X78878289Y-163681128D01*
X78884780Y-163708530D01*
X78890234Y-163736931D01*
X78894654Y-163766187D01*
X78898044Y-163796156D01*
X78900410Y-163826696D01*
X78901754Y-163857663D01*
X78902081Y-163888916D01*
X78901396Y-163920312D01*
X78899701Y-163951707D01*
X78897003Y-163982960D01*
X78893303Y-164013928D01*
X78888607Y-164044468D01*
X78882920Y-164074437D01*
X78876244Y-164103693D01*
X78868584Y-164132093D01*
X78859944Y-164159495D01*
X78851450Y-164183436D01*
X78842361Y-164206857D01*
X78832659Y-164229784D01*
X78822329Y-164252243D01*
X78811355Y-164274259D01*
X78799719Y-164295859D01*
X78787404Y-164317068D01*
X78774396Y-164337912D01*
X78760676Y-164358418D01*
X78746229Y-164378610D01*
X78731037Y-164398515D01*
X78715085Y-164418158D01*
X78698356Y-164437566D01*
X78680833Y-164456764D01*
X78662499Y-164475778D01*
X78643339Y-164494634D01*
X78615342Y-164520580D01*
X78586644Y-164544975D01*
X78557239Y-164567822D01*
X78527121Y-164589123D01*
X78496283Y-164608883D01*
X78464720Y-164627103D01*
X78432426Y-164643788D01*
X78399393Y-164658940D01*
X78365616Y-164672563D01*
X78331089Y-164684659D01*
X78295806Y-164695231D01*
X78259759Y-164704283D01*
X78222944Y-164711818D01*
X78185353Y-164717839D01*
X78146982Y-164722349D01*
X78107822Y-164725351D01*
X78064097Y-164726679D01*
X78020554Y-164725655D01*
X77977275Y-164722310D01*
X77934344Y-164716674D01*
X77891842Y-164708777D01*
X77849853Y-164698648D01*
X77808460Y-164686318D01*
X77767744Y-164671817D01*
X77727790Y-164655174D01*
X77688678Y-164636419D01*
X77650493Y-164615583D01*
X77613316Y-164592695D01*
X77577231Y-164567786D01*
X77542320Y-164540885D01*
X77508665Y-164512023D01*
X77476350Y-164481228D01*
X77446958Y-164450583D01*
X77419381Y-164418991D01*
X77393628Y-164386481D01*
X77369712Y-164353082D01*
X77347644Y-164318823D01*
X77327435Y-164283733D01*
X77309097Y-164247842D01*
X77292641Y-164211177D01*
X77278078Y-164173768D01*
X77265421Y-164135644D01*
X77254679Y-164096834D01*
X77245865Y-164057366D01*
X77238990Y-164017270D01*
X77234065Y-163976574D01*
X77231101Y-163935308D01*
X77230111Y-163893500D01*
X77230867Y-163857027D01*
X77233119Y-163820918D01*
X77236838Y-163785208D01*
X77241999Y-163749931D01*
X77248576Y-163715121D01*
X77256542Y-163680813D01*
X77265870Y-163647040D01*
X77276535Y-163613836D01*
X77288508Y-163581236D01*
X77301765Y-163549274D01*
X77316278Y-163517983D01*
X77332021Y-163487399D01*
X77348968Y-163457554D01*
X77367092Y-163428483D01*
X77386366Y-163400221D01*
X77406765Y-163372801D01*
X77428261Y-163346257D01*
X77450828Y-163320624D01*
X77474440Y-163295936D01*
X77499070Y-163272226D01*
X77524691Y-163249529D01*
X77551278Y-163227880D01*
X77578804Y-163207311D01*
X77607242Y-163187857D01*
X77636565Y-163169553D01*
X77666748Y-163152432D01*
X77697763Y-163136529D01*
X77729585Y-163121877D01*
X77762187Y-163108511D01*
X77795542Y-163096464D01*
X77829623Y-163085772D01*
X77864406Y-163076468D01*
X77887005Y-163071154D01*
X77908679Y-163066237D01*
X77918383Y-163064134D01*
X77926913Y-163062379D01*
X77933955Y-163061053D01*
X77939194Y-163060240D01*
X77951225Y-163058916D01*
X77965653Y-163057850D01*
X78000313Y-163056469D01*
X78040398Y-163056048D01*
X78083128Y-163056536D01*
G37*
D11*
X49657000Y-188087000D02*
X49657000Y-191389000D01*
X61341000Y-188087000D02*
X61341000Y-191389000D01*
X73025000Y-188087000D02*
X73025000Y-191389000D01*
X84709000Y-188214000D02*
X84709000Y-191516000D01*
D10*
G36*
X88074500Y-165461245D02*
G01*
X88074500Y-166703023D01*
X86000166Y-166703023D01*
X86000166Y-167951856D01*
X87580611Y-167951856D01*
X87580611Y-169186578D01*
X86000166Y-169186578D01*
X86000166Y-170647078D01*
X88159167Y-170647078D01*
X88159167Y-171881800D01*
X84624333Y-171881800D01*
X84624333Y-171698356D01*
X84807777Y-171698356D01*
X87975722Y-171698356D01*
X87975722Y-170830523D01*
X85816721Y-170830523D01*
X85816721Y-169003134D01*
X87397166Y-169003134D01*
X87397166Y-168135301D01*
X85816721Y-168135301D01*
X85816721Y-166512523D01*
X87891055Y-166512523D01*
X87891055Y-165644690D01*
X84807777Y-165644690D01*
X84807777Y-171698356D01*
X84624333Y-171698356D01*
X84624333Y-165461245D01*
X88074500Y-165461245D01*
G37*
D11*
X63992523Y-189210761D02*
X64135380Y-189258380D01*
X64373476Y-189258380D01*
X64468714Y-189210761D01*
X64516333Y-189163142D01*
X64563952Y-189067904D01*
X64563952Y-188972666D01*
X64516333Y-188877428D01*
X64468714Y-188829809D01*
X64373476Y-188782190D01*
X64183000Y-188734571D01*
X64087761Y-188686952D01*
X64040142Y-188639333D01*
X63992523Y-188544095D01*
X63992523Y-188448857D01*
X64040142Y-188353619D01*
X64087761Y-188306000D01*
X64183000Y-188258380D01*
X64421095Y-188258380D01*
X64563952Y-188306000D01*
X64992523Y-189258380D02*
X64992523Y-188258380D01*
X65563952Y-189258380D01*
X65563952Y-188258380D01*
X65992523Y-189210761D02*
X66135380Y-189258380D01*
X66373476Y-189258380D01*
X66468714Y-189210761D01*
X66516333Y-189163142D01*
X66563952Y-189067904D01*
X66563952Y-188972666D01*
X66516333Y-188877428D01*
X66468714Y-188829809D01*
X66373476Y-188782190D01*
X66183000Y-188734571D01*
X66087761Y-188686952D01*
X66040142Y-188639333D01*
X65992523Y-188544095D01*
X65992523Y-188448857D01*
X66040142Y-188353619D01*
X66087761Y-188306000D01*
X66183000Y-188258380D01*
X66421095Y-188258380D01*
X66563952Y-188306000D01*
X68278238Y-188306000D02*
X68183000Y-188258380D01*
X68040142Y-188258380D01*
X67897285Y-188306000D01*
X67802047Y-188401238D01*
X67754428Y-188496476D01*
X67706809Y-188686952D01*
X67706809Y-188829809D01*
X67754428Y-189020285D01*
X67802047Y-189115523D01*
X67897285Y-189210761D01*
X68040142Y-189258380D01*
X68135380Y-189258380D01*
X68278238Y-189210761D01*
X68325857Y-189163142D01*
X68325857Y-188829809D01*
X68135380Y-188829809D01*
X68754428Y-189258380D02*
X68754428Y-188258380D01*
X69325857Y-189258380D01*
X69325857Y-188258380D01*
X69802047Y-189258380D02*
X69802047Y-188258380D01*
X70040142Y-188258380D01*
X70183000Y-188306000D01*
X70278238Y-188401238D01*
X70325857Y-188496476D01*
X70373476Y-188686952D01*
X70373476Y-188829809D01*
X70325857Y-189020285D01*
X70278238Y-189115523D01*
X70183000Y-189210761D01*
X70040142Y-189258380D01*
X69802047Y-189258380D01*
X65635380Y-191249333D02*
X65587761Y-191201714D01*
X65492523Y-191058857D01*
X65444904Y-190963619D01*
X65397285Y-190820761D01*
X65349666Y-190582666D01*
X65349666Y-190392190D01*
X65397285Y-190154095D01*
X65444904Y-190011238D01*
X65492523Y-189916000D01*
X65587761Y-189773142D01*
X65635380Y-189725523D01*
X66349666Y-190344571D02*
X66492523Y-190392190D01*
X66540142Y-190439809D01*
X66587761Y-190535047D01*
X66587761Y-190677904D01*
X66540142Y-190773142D01*
X66492523Y-190820761D01*
X66397285Y-190868380D01*
X66016333Y-190868380D01*
X66016333Y-189868380D01*
X66349666Y-189868380D01*
X66444904Y-189916000D01*
X66492523Y-189963619D01*
X66540142Y-190058857D01*
X66540142Y-190154095D01*
X66492523Y-190249333D01*
X66444904Y-190296952D01*
X66349666Y-190344571D01*
X66016333Y-190344571D01*
X67492523Y-190868380D02*
X67016333Y-190868380D01*
X67016333Y-189868380D01*
X67825857Y-190868380D02*
X67825857Y-189868380D01*
X68397285Y-190868380D02*
X67968714Y-190296952D01*
X68397285Y-189868380D02*
X67825857Y-190439809D01*
X68730619Y-191249333D02*
X68778238Y-191201714D01*
X68873476Y-191058857D01*
X68921095Y-190963619D01*
X68968714Y-190820761D01*
X69016333Y-190582666D01*
X69016333Y-190392190D01*
X68968714Y-190154095D01*
X68921095Y-190011238D01*
X68873476Y-189916000D01*
X68778238Y-189773142D01*
X68730619Y-189725523D01*
D12*
X27826428Y-173403142D02*
X26326428Y-173903142D01*
X27826428Y-174403142D01*
X26326428Y-174903142D02*
X27826428Y-174903142D01*
X26326428Y-175617428D02*
X27826428Y-175617428D01*
X26326428Y-176474571D01*
X27826428Y-176474571D01*
D11*
X57007166Y-163561380D02*
X57007166Y-162561380D01*
X57626214Y-163561380D02*
X57530976Y-163513761D01*
X57483357Y-163466142D01*
X57435738Y-163370904D01*
X57435738Y-163085190D01*
X57483357Y-162989952D01*
X57530976Y-162942333D01*
X57626214Y-162894714D01*
X57769071Y-162894714D01*
X57864309Y-162942333D01*
X57911928Y-162989952D01*
X57959547Y-163085190D01*
X57959547Y-163370904D01*
X57911928Y-163466142D01*
X57864309Y-163513761D01*
X57769071Y-163561380D01*
X57626214Y-163561380D01*
X58292880Y-162894714D02*
X58483357Y-163561380D01*
X58673833Y-163085190D01*
X58864309Y-163561380D01*
X59054785Y-162894714D01*
X59864309Y-163561380D02*
X59864309Y-163037571D01*
X59816690Y-162942333D01*
X59721452Y-162894714D01*
X59530976Y-162894714D01*
X59435738Y-162942333D01*
X59864309Y-163513761D02*
X59769071Y-163561380D01*
X59530976Y-163561380D01*
X59435738Y-163513761D01*
X59388119Y-163418523D01*
X59388119Y-163323285D01*
X59435738Y-163228047D01*
X59530976Y-163180428D01*
X59769071Y-163180428D01*
X59864309Y-163132809D01*
X61054785Y-163513761D02*
X61197642Y-163561380D01*
X61435738Y-163561380D01*
X61530976Y-163513761D01*
X61578595Y-163466142D01*
X61626214Y-163370904D01*
X61626214Y-163275666D01*
X61578595Y-163180428D01*
X61530976Y-163132809D01*
X61435738Y-163085190D01*
X61245261Y-163037571D01*
X61150023Y-162989952D01*
X61102404Y-162942333D01*
X61054785Y-162847095D01*
X61054785Y-162751857D01*
X61102404Y-162656619D01*
X61150023Y-162609000D01*
X61245261Y-162561380D01*
X61483357Y-162561380D01*
X61626214Y-162609000D01*
X62483357Y-163513761D02*
X62388119Y-163561380D01*
X62197642Y-163561380D01*
X62102404Y-163513761D01*
X62054785Y-163466142D01*
X62007166Y-163370904D01*
X62007166Y-163085190D01*
X62054785Y-162989952D01*
X62102404Y-162942333D01*
X62197642Y-162894714D01*
X62388119Y-162894714D01*
X62483357Y-162942333D01*
X63340500Y-163561380D02*
X63340500Y-163037571D01*
X63292880Y-162942333D01*
X63197642Y-162894714D01*
X63007166Y-162894714D01*
X62911928Y-162942333D01*
X63340500Y-163513761D02*
X63245261Y-163561380D01*
X63007166Y-163561380D01*
X62911928Y-163513761D01*
X62864309Y-163418523D01*
X62864309Y-163323285D01*
X62911928Y-163228047D01*
X63007166Y-163180428D01*
X63245261Y-163180428D01*
X63340500Y-163132809D01*
X63959547Y-163561380D02*
X63864309Y-163513761D01*
X63816690Y-163418523D01*
X63816690Y-162561380D01*
X64721452Y-163513761D02*
X64626214Y-163561380D01*
X64435738Y-163561380D01*
X64340500Y-163513761D01*
X64292880Y-163418523D01*
X64292880Y-163037571D01*
X64340500Y-162942333D01*
X64435738Y-162894714D01*
X64626214Y-162894714D01*
X64721452Y-162942333D01*
X64769071Y-163037571D01*
X64769071Y-163132809D01*
X64292880Y-163228047D01*
X65626214Y-163561380D02*
X65626214Y-162561380D01*
X65626214Y-163513761D02*
X65530976Y-163561380D01*
X65340500Y-163561380D01*
X65245261Y-163513761D01*
X65197642Y-163466142D01*
X65150023Y-163370904D01*
X65150023Y-163085190D01*
X65197642Y-162989952D01*
X65245261Y-162942333D01*
X65340500Y-162894714D01*
X65530976Y-162894714D01*
X65626214Y-162942333D01*
X66864309Y-163037571D02*
X67197642Y-163037571D01*
X67340500Y-163561380D02*
X66864309Y-163561380D01*
X66864309Y-162561380D01*
X67340500Y-162561380D01*
X67769071Y-162894714D02*
X67769071Y-163561380D01*
X67769071Y-162989952D02*
X67816690Y-162942333D01*
X67911928Y-162894714D01*
X68054785Y-162894714D01*
X68150023Y-162942333D01*
X68197642Y-163037571D01*
X68197642Y-163561380D01*
X69102404Y-162894714D02*
X69102404Y-163704238D01*
X69054785Y-163799476D01*
X69007166Y-163847095D01*
X68911928Y-163894714D01*
X68769071Y-163894714D01*
X68673833Y-163847095D01*
X69102404Y-163513761D02*
X69007166Y-163561380D01*
X68816690Y-163561380D01*
X68721452Y-163513761D01*
X68673833Y-163466142D01*
X68626214Y-163370904D01*
X68626214Y-163085190D01*
X68673833Y-162989952D01*
X68721452Y-162942333D01*
X68816690Y-162894714D01*
X69007166Y-162894714D01*
X69102404Y-162942333D01*
X69578595Y-163561380D02*
X69578595Y-162894714D01*
X69578595Y-162561380D02*
X69530976Y-162609000D01*
X69578595Y-162656619D01*
X69626214Y-162609000D01*
X69578595Y-162561380D01*
X69578595Y-162656619D01*
X70054785Y-162894714D02*
X70054785Y-163561380D01*
X70054785Y-162989952D02*
X70102404Y-162942333D01*
X70197642Y-162894714D01*
X70340500Y-162894714D01*
X70435738Y-162942333D01*
X70483357Y-163037571D01*
X70483357Y-163561380D01*
X71340500Y-163513761D02*
X71245261Y-163561380D01*
X71054785Y-163561380D01*
X70959547Y-163513761D01*
X70911928Y-163418523D01*
X70911928Y-163037571D01*
X70959547Y-162942333D01*
X71054785Y-162894714D01*
X71245261Y-162894714D01*
X71340500Y-162942333D01*
X71388119Y-163037571D01*
X71388119Y-163132809D01*
X70911928Y-163228047D01*
X72197642Y-163513761D02*
X72102404Y-163561380D01*
X71911928Y-163561380D01*
X71816690Y-163513761D01*
X71769071Y-163418523D01*
X71769071Y-163037571D01*
X71816690Y-162942333D01*
X71911928Y-162894714D01*
X72102404Y-162894714D01*
X72197642Y-162942333D01*
X72245261Y-163037571D01*
X72245261Y-163132809D01*
X71769071Y-163228047D01*
X72673833Y-163561380D02*
X72673833Y-162894714D01*
X72673833Y-163085190D02*
X72721452Y-162989952D01*
X72769071Y-162942333D01*
X72864309Y-162894714D01*
X72959547Y-162894714D01*
X73292880Y-163561380D02*
X73292880Y-162894714D01*
X73292880Y-162561380D02*
X73245261Y-162609000D01*
X73292880Y-162656619D01*
X73340500Y-162609000D01*
X73292880Y-162561380D01*
X73292880Y-162656619D01*
X73769071Y-162894714D02*
X73769071Y-163561380D01*
X73769071Y-162989952D02*
X73816690Y-162942333D01*
X73911928Y-162894714D01*
X74054785Y-162894714D01*
X74150023Y-162942333D01*
X74197642Y-163037571D01*
X74197642Y-163561380D01*
X75102404Y-162894714D02*
X75102404Y-163704238D01*
X75054785Y-163799476D01*
X75007166Y-163847095D01*
X74911928Y-163894714D01*
X74769071Y-163894714D01*
X74673833Y-163847095D01*
X75102404Y-163513761D02*
X75007166Y-163561380D01*
X74816690Y-163561380D01*
X74721452Y-163513761D01*
X74673833Y-163466142D01*
X74626214Y-163370904D01*
X74626214Y-163085190D01*
X74673833Y-162989952D01*
X74721452Y-162942333D01*
X74816690Y-162894714D01*
X75007166Y-162894714D01*
X75102404Y-162942333D01*
X59626214Y-165076142D02*
X59578595Y-165123761D01*
X59435738Y-165171380D01*
X59340500Y-165171380D01*
X59197642Y-165123761D01*
X59102404Y-165028523D01*
X59054785Y-164933285D01*
X59007166Y-164742809D01*
X59007166Y-164599952D01*
X59054785Y-164409476D01*
X59102404Y-164314238D01*
X59197642Y-164219000D01*
X59340500Y-164171380D01*
X59435738Y-164171380D01*
X59578595Y-164219000D01*
X59626214Y-164266619D01*
X60054785Y-165171380D02*
X60054785Y-164171380D01*
X60626214Y-165171380D02*
X60197642Y-164599952D01*
X60626214Y-164171380D02*
X60054785Y-164742809D01*
X60911928Y-164171380D02*
X61483357Y-164171380D01*
X61197642Y-165171380D02*
X61197642Y-164171380D01*
X61816690Y-164790428D02*
X62578595Y-164790428D01*
X63007166Y-165123761D02*
X63150023Y-165171380D01*
X63388119Y-165171380D01*
X63483357Y-165123761D01*
X63530976Y-165076142D01*
X63578595Y-164980904D01*
X63578595Y-164885666D01*
X63530976Y-164790428D01*
X63483357Y-164742809D01*
X63388119Y-164695190D01*
X63197642Y-164647571D01*
X63102404Y-164599952D01*
X63054785Y-164552333D01*
X63007166Y-164457095D01*
X63007166Y-164361857D01*
X63054785Y-164266619D01*
X63102404Y-164219000D01*
X63197642Y-164171380D01*
X63435738Y-164171380D01*
X63578595Y-164219000D01*
X64197642Y-164171380D02*
X64388119Y-164171380D01*
X64483357Y-164219000D01*
X64578595Y-164314238D01*
X64626214Y-164504714D01*
X64626214Y-164838047D01*
X64578595Y-165028523D01*
X64483357Y-165123761D01*
X64388119Y-165171380D01*
X64197642Y-165171380D01*
X64102404Y-165123761D01*
X64007166Y-165028523D01*
X63959547Y-164838047D01*
X63959547Y-164504714D01*
X64007166Y-164314238D01*
X64102404Y-164219000D01*
X64197642Y-164171380D01*
X65054785Y-164171380D02*
X65054785Y-164980904D01*
X65102404Y-165076142D01*
X65150023Y-165123761D01*
X65245261Y-165171380D01*
X65435738Y-165171380D01*
X65530976Y-165123761D01*
X65578595Y-165076142D01*
X65626214Y-164980904D01*
X65626214Y-164171380D01*
X66102404Y-165171380D02*
X66102404Y-164171380D01*
X66673833Y-165171380D01*
X66673833Y-164171380D01*
X67150023Y-165171380D02*
X67150023Y-164171380D01*
X67388119Y-164171380D01*
X67530976Y-164219000D01*
X67626214Y-164314238D01*
X67673833Y-164409476D01*
X67721452Y-164599952D01*
X67721452Y-164742809D01*
X67673833Y-164933285D01*
X67626214Y-165028523D01*
X67530976Y-165123761D01*
X67388119Y-165171380D01*
X67150023Y-165171380D01*
X68150023Y-165171380D02*
X68150023Y-164171380D01*
X68530976Y-164171380D01*
X68626214Y-164219000D01*
X68673833Y-164266619D01*
X68721452Y-164361857D01*
X68721452Y-164504714D01*
X68673833Y-164599952D01*
X68626214Y-164647571D01*
X68530976Y-164695190D01*
X68150023Y-164695190D01*
X69626214Y-165171380D02*
X69150023Y-165171380D01*
X69150023Y-164171380D01*
X69911928Y-164885666D02*
X70388119Y-164885666D01*
X69816690Y-165171380D02*
X70150023Y-164171380D01*
X70483357Y-165171380D01*
X71007166Y-164695190D02*
X71007166Y-165171380D01*
X70673833Y-164171380D02*
X71007166Y-164695190D01*
X71340500Y-164171380D01*
X72340500Y-164504714D02*
X72578595Y-165171380D01*
X72816690Y-164504714D01*
X73721452Y-165171380D02*
X73150023Y-165171380D01*
X73435738Y-165171380D02*
X73435738Y-164171380D01*
X73340500Y-164314238D01*
X73245261Y-164409476D01*
X73150023Y-164457095D01*
X74150023Y-165076142D02*
X74197642Y-165123761D01*
X74150023Y-165171380D01*
X74102404Y-165123761D01*
X74150023Y-165076142D01*
X74150023Y-165171380D01*
X75150023Y-165171380D02*
X74578595Y-165171380D01*
X74864309Y-165171380D02*
X74864309Y-164171380D01*
X74769071Y-164314238D01*
X74673833Y-164409476D01*
X74578595Y-164457095D01*
X60911928Y-166019476D02*
X60816690Y-165971857D01*
X60626214Y-165971857D01*
X60530976Y-166019476D01*
X60435738Y-166114714D01*
X60388119Y-166209952D01*
X60388119Y-166400428D01*
X60435738Y-166495666D01*
X60530976Y-166590904D01*
X60626214Y-166638523D01*
X60816690Y-166638523D01*
X60911928Y-166590904D01*
X60721452Y-165638523D02*
X60483357Y-165686142D01*
X60245261Y-165829000D01*
X60102404Y-166067095D01*
X60054785Y-166305190D01*
X60102404Y-166543285D01*
X60245261Y-166781380D01*
X60483357Y-166924238D01*
X60721452Y-166971857D01*
X60959547Y-166924238D01*
X61197642Y-166781380D01*
X61340500Y-166543285D01*
X61388119Y-166305190D01*
X61340500Y-166067095D01*
X61197642Y-165829000D01*
X60959547Y-165686142D01*
X60721452Y-165638523D01*
X61769071Y-165876619D02*
X61816690Y-165829000D01*
X61911928Y-165781380D01*
X62150023Y-165781380D01*
X62245261Y-165829000D01*
X62292880Y-165876619D01*
X62340500Y-165971857D01*
X62340500Y-166067095D01*
X62292880Y-166209952D01*
X61721452Y-166781380D01*
X62340500Y-166781380D01*
X62959547Y-165781380D02*
X63054785Y-165781380D01*
X63150023Y-165829000D01*
X63197642Y-165876619D01*
X63245261Y-165971857D01*
X63292880Y-166162333D01*
X63292880Y-166400428D01*
X63245261Y-166590904D01*
X63197642Y-166686142D01*
X63150023Y-166733761D01*
X63054785Y-166781380D01*
X62959547Y-166781380D01*
X62864309Y-166733761D01*
X62816690Y-166686142D01*
X62769071Y-166590904D01*
X62721452Y-166400428D01*
X62721452Y-166162333D01*
X62769071Y-165971857D01*
X62816690Y-165876619D01*
X62864309Y-165829000D01*
X62959547Y-165781380D01*
X63673833Y-165876619D02*
X63721452Y-165829000D01*
X63816690Y-165781380D01*
X64054785Y-165781380D01*
X64150023Y-165829000D01*
X64197642Y-165876619D01*
X64245261Y-165971857D01*
X64245261Y-166067095D01*
X64197642Y-166209952D01*
X63626214Y-166781380D01*
X64245261Y-166781380D01*
X64578595Y-165781380D02*
X65197642Y-165781380D01*
X64864309Y-166162333D01*
X65007166Y-166162333D01*
X65102404Y-166209952D01*
X65150023Y-166257571D01*
X65197642Y-166352809D01*
X65197642Y-166590904D01*
X65150023Y-166686142D01*
X65102404Y-166733761D01*
X65007166Y-166781380D01*
X64721452Y-166781380D01*
X64626214Y-166733761D01*
X64578595Y-166686142D01*
X68483357Y-166686142D02*
X68435738Y-166733761D01*
X68292880Y-166781380D01*
X68197642Y-166781380D01*
X68054785Y-166733761D01*
X67959547Y-166638523D01*
X67911928Y-166543285D01*
X67864309Y-166352809D01*
X67864309Y-166209952D01*
X67911928Y-166019476D01*
X67959547Y-165924238D01*
X68054785Y-165829000D01*
X68197642Y-165781380D01*
X68292880Y-165781380D01*
X68435738Y-165829000D01*
X68483357Y-165876619D01*
X69483357Y-166686142D02*
X69435738Y-166733761D01*
X69292880Y-166781380D01*
X69197642Y-166781380D01*
X69054785Y-166733761D01*
X68959547Y-166638523D01*
X68911928Y-166543285D01*
X68864309Y-166352809D01*
X68864309Y-166209952D01*
X68911928Y-166019476D01*
X68959547Y-165924238D01*
X69054785Y-165829000D01*
X69197642Y-165781380D01*
X69292880Y-165781380D01*
X69435738Y-165829000D01*
X69483357Y-165876619D01*
X71007166Y-166257571D02*
X71150023Y-166305190D01*
X71197642Y-166352809D01*
X71245261Y-166448047D01*
X71245261Y-166590904D01*
X71197642Y-166686142D01*
X71150023Y-166733761D01*
X71054785Y-166781380D01*
X70673833Y-166781380D01*
X70673833Y-165781380D01*
X71007166Y-165781380D01*
X71102404Y-165829000D01*
X71150023Y-165876619D01*
X71197642Y-165971857D01*
X71197642Y-166067095D01*
X71150023Y-166162333D01*
X71102404Y-166209952D01*
X71007166Y-166257571D01*
X70673833Y-166257571D01*
X71864309Y-166305190D02*
X71864309Y-166781380D01*
X71530976Y-165781380D02*
X71864309Y-166305190D01*
X72197642Y-165781380D01*
X72530976Y-166400428D02*
X73292880Y-166400428D01*
X73721452Y-166733761D02*
X73864309Y-166781380D01*
X74102404Y-166781380D01*
X74197642Y-166733761D01*
X74245261Y-166686142D01*
X74292880Y-166590904D01*
X74292880Y-166495666D01*
X74245261Y-166400428D01*
X74197642Y-166352809D01*
X74102404Y-166305190D01*
X73911928Y-166257571D01*
X73816690Y-166209952D01*
X73769071Y-166162333D01*
X73721452Y-166067095D01*
X73721452Y-165971857D01*
X73769071Y-165876619D01*
X73816690Y-165829000D01*
X73911928Y-165781380D01*
X74150023Y-165781380D01*
X74292880Y-165829000D01*
X74673833Y-166495666D02*
X75150023Y-166495666D01*
X74578595Y-166781380D02*
X74911928Y-165781380D01*
X75245261Y-166781380D01*
D12*
X27755000Y-178983142D02*
X27826428Y-178840285D01*
X27826428Y-178626000D01*
X27755000Y-178411714D01*
X27612142Y-178268857D01*
X27469285Y-178197428D01*
X27183571Y-178126000D01*
X26969285Y-178126000D01*
X26683571Y-178197428D01*
X26540714Y-178268857D01*
X26397857Y-178411714D01*
X26326428Y-178626000D01*
X26326428Y-178768857D01*
X26397857Y-178983142D01*
X26469285Y-179054571D01*
X26969285Y-179054571D01*
X26969285Y-178768857D01*
X26326428Y-179697428D02*
X27826428Y-179697428D01*
X26326428Y-180554571D01*
X27826428Y-180554571D01*
X26326428Y-181268857D02*
X27826428Y-181268857D01*
X27826428Y-181626000D01*
X27755000Y-181840285D01*
X27612142Y-181983142D01*
X27469285Y-182054571D01*
X27183571Y-182126000D01*
X26969285Y-182126000D01*
X26683571Y-182054571D01*
X26540714Y-181983142D01*
X26397857Y-181840285D01*
X26326428Y-181626000D01*
X26326428Y-181268857D01*
D11*
X100782380Y-152978904D02*
X99782380Y-152978904D01*
X100782380Y-152502714D02*
X99782380Y-152502714D01*
X100782380Y-151931285D01*
X99782380Y-151931285D01*
X99782380Y-151550333D02*
X99782380Y-150931285D01*
X100163333Y-151264619D01*
X100163333Y-151121761D01*
X100210952Y-151026523D01*
X100258571Y-150978904D01*
X100353809Y-150931285D01*
X100591904Y-150931285D01*
X100687142Y-150978904D01*
X100734761Y-151026523D01*
X100782380Y-151121761D01*
X100782380Y-151407476D01*
X100734761Y-151502714D01*
X100687142Y-151550333D01*
X99830000Y-148455095D02*
X99782380Y-148550333D01*
X99782380Y-148693190D01*
X99830000Y-148836047D01*
X99925238Y-148931285D01*
X100020476Y-148978904D01*
X100210952Y-149026523D01*
X100353809Y-149026523D01*
X100544285Y-148978904D01*
X100639523Y-148931285D01*
X100734761Y-148836047D01*
X100782380Y-148693190D01*
X100782380Y-148597952D01*
X100734761Y-148455095D01*
X100687142Y-148407476D01*
X100353809Y-148407476D01*
X100353809Y-148597952D01*
X100782380Y-146455095D02*
X99782380Y-146455095D01*
X100782380Y-145978904D02*
X99782380Y-145978904D01*
X100782380Y-145407476D01*
X99782380Y-145407476D01*
X100115714Y-144502714D02*
X100782380Y-144502714D01*
X99734761Y-144740809D02*
X100449047Y-144978904D01*
X100449047Y-144359857D01*
X47625000Y-165314380D02*
X47625000Y-165552476D01*
X47386904Y-165457238D02*
X47625000Y-165552476D01*
X47863095Y-165457238D01*
X47482142Y-165742952D02*
X47625000Y-165552476D01*
X47767857Y-165742952D01*
X87010904Y-190158666D02*
X87487095Y-190158666D01*
X86915666Y-190444380D02*
X87249000Y-189444380D01*
X87582333Y-190444380D01*
X52260904Y-189210761D02*
X52403761Y-189258380D01*
X52641857Y-189258380D01*
X52737095Y-189210761D01*
X52784714Y-189163142D01*
X52832333Y-189067904D01*
X52832333Y-188972666D01*
X52784714Y-188877428D01*
X52737095Y-188829809D01*
X52641857Y-188782190D01*
X52451380Y-188734571D01*
X52356142Y-188686952D01*
X52308523Y-188639333D01*
X52260904Y-188544095D01*
X52260904Y-188448857D01*
X52308523Y-188353619D01*
X52356142Y-188306000D01*
X52451380Y-188258380D01*
X52689476Y-188258380D01*
X52832333Y-188306000D01*
X53260904Y-189258380D02*
X53260904Y-188258380D01*
X53832333Y-189258380D01*
X53832333Y-188258380D01*
X54260904Y-189210761D02*
X54403761Y-189258380D01*
X54641857Y-189258380D01*
X54737095Y-189210761D01*
X54784714Y-189163142D01*
X54832333Y-189067904D01*
X54832333Y-188972666D01*
X54784714Y-188877428D01*
X54737095Y-188829809D01*
X54641857Y-188782190D01*
X54451380Y-188734571D01*
X54356142Y-188686952D01*
X54308523Y-188639333D01*
X54260904Y-188544095D01*
X54260904Y-188448857D01*
X54308523Y-188353619D01*
X54356142Y-188306000D01*
X54451380Y-188258380D01*
X54689476Y-188258380D01*
X54832333Y-188306000D01*
X56022809Y-189258380D02*
X56022809Y-188258380D01*
X56403761Y-188258380D01*
X56499000Y-188306000D01*
X56546619Y-188353619D01*
X56594238Y-188448857D01*
X56594238Y-188591714D01*
X56546619Y-188686952D01*
X56499000Y-188734571D01*
X56403761Y-188782190D01*
X56022809Y-188782190D01*
X56927571Y-188258380D02*
X57165666Y-189258380D01*
X57356142Y-188544095D01*
X57546619Y-189258380D01*
X57784714Y-188258380D01*
X58737095Y-189258380D02*
X58403761Y-188782190D01*
X58165666Y-189258380D02*
X58165666Y-188258380D01*
X58546619Y-188258380D01*
X58641857Y-188306000D01*
X58689476Y-188353619D01*
X58737095Y-188448857D01*
X58737095Y-188591714D01*
X58689476Y-188686952D01*
X58641857Y-188734571D01*
X58546619Y-188782190D01*
X58165666Y-188782190D01*
X53903761Y-191249333D02*
X53856142Y-191201714D01*
X53760904Y-191058857D01*
X53713285Y-190963619D01*
X53665666Y-190820761D01*
X53618047Y-190582666D01*
X53618047Y-190392190D01*
X53665666Y-190154095D01*
X53713285Y-190011238D01*
X53760904Y-189916000D01*
X53856142Y-189773142D01*
X53903761Y-189725523D01*
X54856142Y-190868380D02*
X54522809Y-190392190D01*
X54284714Y-190868380D02*
X54284714Y-189868380D01*
X54665666Y-189868380D01*
X54760904Y-189916000D01*
X54808523Y-189963619D01*
X54856142Y-190058857D01*
X54856142Y-190201714D01*
X54808523Y-190296952D01*
X54760904Y-190344571D01*
X54665666Y-190392190D01*
X54284714Y-190392190D01*
X55284714Y-190344571D02*
X55618047Y-190344571D01*
X55760904Y-190868380D02*
X55284714Y-190868380D01*
X55284714Y-189868380D01*
X55760904Y-189868380D01*
X56189476Y-190868380D02*
X56189476Y-189868380D01*
X56427571Y-189868380D01*
X56570428Y-189916000D01*
X56665666Y-190011238D01*
X56713285Y-190106476D01*
X56760904Y-190296952D01*
X56760904Y-190439809D01*
X56713285Y-190630285D01*
X56665666Y-190725523D01*
X56570428Y-190820761D01*
X56427571Y-190868380D01*
X56189476Y-190868380D01*
X57094238Y-191249333D02*
X57141857Y-191201714D01*
X57237095Y-191058857D01*
X57284714Y-190963619D01*
X57332333Y-190820761D01*
X57379952Y-190582666D01*
X57379952Y-190392190D01*
X57332333Y-190154095D01*
X57284714Y-190011238D01*
X57237095Y-189916000D01*
X57141857Y-189773142D01*
X57094238Y-189725523D01*
X99365380Y-178735666D02*
X100365380Y-178402333D01*
X99365380Y-178069000D01*
X99365380Y-177545190D02*
X99365380Y-177354714D01*
X99413000Y-177259476D01*
X99508238Y-177164238D01*
X99698714Y-177116619D01*
X100032047Y-177116619D01*
X100222523Y-177164238D01*
X100317761Y-177259476D01*
X100365380Y-177354714D01*
X100365380Y-177545190D01*
X100317761Y-177640428D01*
X100222523Y-177735666D01*
X100032047Y-177783285D01*
X99698714Y-177783285D01*
X99508238Y-177735666D01*
X99413000Y-177640428D01*
X99365380Y-177545190D01*
X100365380Y-176211857D02*
X100365380Y-176688047D01*
X99365380Y-176688047D01*
X100365380Y-175116619D02*
X99365380Y-175116619D01*
X99365380Y-174878523D01*
X99413000Y-174735666D01*
X99508238Y-174640428D01*
X99603476Y-174592809D01*
X99793952Y-174545190D01*
X99936809Y-174545190D01*
X100127285Y-174592809D01*
X100222523Y-174640428D01*
X100317761Y-174735666D01*
X100365380Y-174878523D01*
X100365380Y-175116619D01*
X100365380Y-174116619D02*
X99365380Y-174116619D01*
X100365380Y-173545190D01*
X99365380Y-173545190D01*
X26165976Y-144301761D02*
X26308833Y-144349380D01*
X26546928Y-144349380D01*
X26642166Y-144301761D01*
X26689785Y-144254142D01*
X26737404Y-144158904D01*
X26737404Y-144063666D01*
X26689785Y-143968428D01*
X26642166Y-143920809D01*
X26546928Y-143873190D01*
X26356452Y-143825571D01*
X26261214Y-143777952D01*
X26213595Y-143730333D01*
X26165976Y-143635095D01*
X26165976Y-143539857D01*
X26213595Y-143444619D01*
X26261214Y-143397000D01*
X26356452Y-143349380D01*
X26594547Y-143349380D01*
X26737404Y-143397000D01*
X27165976Y-144349380D02*
X27165976Y-143349380D01*
X27546928Y-143349380D01*
X27642166Y-143397000D01*
X27689785Y-143444619D01*
X27737404Y-143539857D01*
X27737404Y-143682714D01*
X27689785Y-143777952D01*
X27642166Y-143825571D01*
X27546928Y-143873190D01*
X27165976Y-143873190D01*
X28165976Y-144349380D02*
X28165976Y-143349380D01*
X28737404Y-144349380D02*
X28308833Y-143777952D01*
X28737404Y-143349380D02*
X28165976Y-143920809D01*
X30118357Y-143349380D02*
X30308833Y-143349380D01*
X30404071Y-143397000D01*
X30499309Y-143492238D01*
X30546928Y-143682714D01*
X30546928Y-144016047D01*
X30499309Y-144206523D01*
X30404071Y-144301761D01*
X30308833Y-144349380D01*
X30118357Y-144349380D01*
X30023119Y-144301761D01*
X29927880Y-144206523D01*
X29880261Y-144016047D01*
X29880261Y-143682714D01*
X29927880Y-143492238D01*
X30023119Y-143397000D01*
X30118357Y-143349380D01*
X30975500Y-143349380D02*
X30975500Y-144158904D01*
X31023119Y-144254142D01*
X31070738Y-144301761D01*
X31165976Y-144349380D01*
X31356452Y-144349380D01*
X31451690Y-144301761D01*
X31499309Y-144254142D01*
X31546928Y-144158904D01*
X31546928Y-143349380D01*
X31880261Y-143349380D02*
X32451690Y-143349380D01*
X32165976Y-144349380D02*
X32165976Y-143349380D01*
X74605095Y-190063380D02*
X74605095Y-189063380D01*
X75081285Y-190063380D02*
X75081285Y-189063380D01*
X75652714Y-190063380D01*
X75652714Y-189063380D01*
X76652714Y-190063380D02*
X76081285Y-190063380D01*
X76367000Y-190063380D02*
X76367000Y-189063380D01*
X76271761Y-189206238D01*
X76176523Y-189301476D01*
X76081285Y-189349095D01*
X79128904Y-189111000D02*
X79033666Y-189063380D01*
X78890809Y-189063380D01*
X78747952Y-189111000D01*
X78652714Y-189206238D01*
X78605095Y-189301476D01*
X78557476Y-189491952D01*
X78557476Y-189634809D01*
X78605095Y-189825285D01*
X78652714Y-189920523D01*
X78747952Y-190015761D01*
X78890809Y-190063380D01*
X78986047Y-190063380D01*
X79128904Y-190015761D01*
X79176523Y-189968142D01*
X79176523Y-189634809D01*
X78986047Y-189634809D01*
X81128904Y-190063380D02*
X81128904Y-189063380D01*
X81605095Y-190063380D02*
X81605095Y-189063380D01*
X82176523Y-190063380D01*
X82176523Y-189063380D01*
X82605095Y-189158619D02*
X82652714Y-189111000D01*
X82747952Y-189063380D01*
X82986047Y-189063380D01*
X83081285Y-189111000D01*
X83128904Y-189158619D01*
X83176523Y-189253857D01*
X83176523Y-189349095D01*
X83128904Y-189491952D01*
X82557476Y-190063380D01*
X83176523Y-190063380D01*
D12*
X43593000Y-191051571D02*
X43593000Y-189551571D01*
X44164428Y-189551571D01*
X44307285Y-189623000D01*
X44378714Y-189694428D01*
X44450142Y-189837285D01*
X44450142Y-190051571D01*
X44378714Y-190194428D01*
X44307285Y-190265857D01*
X44164428Y-190337285D01*
X43593000Y-190337285D01*
X44950142Y-189551571D02*
X45307285Y-191051571D01*
X45593000Y-189980142D01*
X45878714Y-191051571D01*
X46235857Y-189551571D01*
X47664428Y-191051571D02*
X47164428Y-190337285D01*
X46807285Y-191051571D02*
X46807285Y-189551571D01*
X47378714Y-189551571D01*
X47521571Y-189623000D01*
X47593000Y-189694428D01*
X47664428Y-189837285D01*
X47664428Y-190051571D01*
X47593000Y-190194428D01*
X47521571Y-190265857D01*
X47378714Y-190337285D01*
X46807285Y-190337285D01*
D11*
X99365380Y-164455166D02*
X100365380Y-164121833D01*
X99365380Y-163788500D01*
X99365380Y-163264690D02*
X99365380Y-163074214D01*
X99413000Y-162978976D01*
X99508238Y-162883738D01*
X99698714Y-162836119D01*
X100032047Y-162836119D01*
X100222523Y-162883738D01*
X100317761Y-162978976D01*
X100365380Y-163074214D01*
X100365380Y-163264690D01*
X100317761Y-163359928D01*
X100222523Y-163455166D01*
X100032047Y-163502785D01*
X99698714Y-163502785D01*
X99508238Y-163455166D01*
X99413000Y-163359928D01*
X99365380Y-163264690D01*
X100365380Y-161931357D02*
X100365380Y-162407547D01*
X99365380Y-162407547D01*
X99365380Y-160836119D02*
X100174904Y-160836119D01*
X100270142Y-160788500D01*
X100317761Y-160740880D01*
X100365380Y-160645642D01*
X100365380Y-160455166D01*
X100317761Y-160359928D01*
X100270142Y-160312309D01*
X100174904Y-160264690D01*
X99365380Y-160264690D01*
X100365380Y-159788500D02*
X99365380Y-159788500D01*
X99365380Y-159407547D01*
X99413000Y-159312309D01*
X99460619Y-159264690D01*
X99555857Y-159217071D01*
X99698714Y-159217071D01*
X99793952Y-159264690D01*
X99841571Y-159312309D01*
X99889190Y-159407547D01*
X99889190Y-159788500D01*
X91384428Y-189920571D02*
X91527285Y-189968190D01*
X91574904Y-190015809D01*
X91622523Y-190111047D01*
X91622523Y-190253904D01*
X91574904Y-190349142D01*
X91527285Y-190396761D01*
X91432047Y-190444380D01*
X91051095Y-190444380D01*
X91051095Y-189444380D01*
X91384428Y-189444380D01*
X91479666Y-189492000D01*
X91527285Y-189539619D01*
X91574904Y-189634857D01*
X91574904Y-189730095D01*
X91527285Y-189825333D01*
X91479666Y-189872952D01*
X91384428Y-189920571D01*
X91051095Y-189920571D01*
X35353666Y-170688380D02*
X35353666Y-171402666D01*
X35306047Y-171545523D01*
X35210809Y-171640761D01*
X35067952Y-171688380D01*
X34972714Y-171688380D01*
X36353666Y-171688380D02*
X35782238Y-171688380D01*
X36067952Y-171688380D02*
X36067952Y-170688380D01*
X35972714Y-170831238D01*
X35877476Y-170926476D01*
X35782238Y-170974095D01*
X34169024Y-144756142D02*
X34121405Y-144803761D01*
X33978548Y-144851380D01*
X33883310Y-144851380D01*
X33740453Y-144803761D01*
X33645215Y-144708523D01*
X33597596Y-144613285D01*
X33549977Y-144422809D01*
X33549977Y-144279952D01*
X33597596Y-144089476D01*
X33645215Y-143994238D01*
X33740453Y-143899000D01*
X33883310Y-143851380D01*
X33978548Y-143851380D01*
X34121405Y-143899000D01*
X34169024Y-143946619D01*
X34502358Y-143851380D02*
X35169024Y-143851380D01*
X34740453Y-144851380D01*
X95527761Y-177482333D02*
X95575380Y-177339476D01*
X95575380Y-177101380D01*
X95527761Y-177006142D01*
X95480142Y-176958523D01*
X95384904Y-176910904D01*
X95289666Y-176910904D01*
X95194428Y-176958523D01*
X95146809Y-177006142D01*
X95099190Y-177101380D01*
X95051571Y-177291857D01*
X95003952Y-177387095D01*
X94956333Y-177434714D01*
X94861095Y-177482333D01*
X94765857Y-177482333D01*
X94670619Y-177434714D01*
X94623000Y-177387095D01*
X94575380Y-177291857D01*
X94575380Y-177053761D01*
X94623000Y-176910904D01*
X94575380Y-176577571D02*
X95575380Y-176339476D01*
X94861095Y-176149000D01*
X95575380Y-175958523D01*
X94575380Y-175720428D01*
X94670619Y-175387095D02*
X94623000Y-175339476D01*
X94575380Y-175244238D01*
X94575380Y-175006142D01*
X94623000Y-174910904D01*
X94670619Y-174863285D01*
X94765857Y-174815666D01*
X94861095Y-174815666D01*
X95003952Y-174863285D01*
X95575380Y-175434714D01*
X95575380Y-174815666D01*
X51435095Y-164806380D02*
X51435095Y-165615904D01*
X51482714Y-165711142D01*
X51530333Y-165758761D01*
X51625571Y-165806380D01*
X51816047Y-165806380D01*
X51911285Y-165758761D01*
X51958904Y-165711142D01*
X52006523Y-165615904D01*
X52006523Y-164806380D01*
X53006523Y-165806380D02*
X52435095Y-165806380D01*
X52720809Y-165806380D02*
X52720809Y-164806380D01*
X52625571Y-164949238D01*
X52530333Y-165044476D01*
X52435095Y-165092095D01*
X49548023Y-173585142D02*
X49500404Y-173632761D01*
X49357547Y-173680380D01*
X49262309Y-173680380D01*
X49119452Y-173632761D01*
X49024214Y-173537523D01*
X48976595Y-173442285D01*
X48928976Y-173251809D01*
X48928976Y-173108952D01*
X48976595Y-172918476D01*
X49024214Y-172823238D01*
X49119452Y-172728000D01*
X49262309Y-172680380D01*
X49357547Y-172680380D01*
X49500404Y-172728000D01*
X49548023Y-172775619D01*
X49928976Y-172775619D02*
X49976595Y-172728000D01*
X50071833Y-172680380D01*
X50309928Y-172680380D01*
X50405166Y-172728000D01*
X50452785Y-172775619D01*
X50500404Y-172870857D01*
X50500404Y-172966095D01*
X50452785Y-173108952D01*
X49881357Y-173680380D01*
X50500404Y-173680380D01*
X49141142Y-145965142D02*
X49093523Y-146012761D01*
X48950666Y-146060380D01*
X48855428Y-146060380D01*
X48712571Y-146012761D01*
X48617333Y-145917523D01*
X48569714Y-145822285D01*
X48522095Y-145631809D01*
X48522095Y-145488952D01*
X48569714Y-145298476D01*
X48617333Y-145203238D01*
X48712571Y-145108000D01*
X48855428Y-145060380D01*
X48950666Y-145060380D01*
X49093523Y-145108000D01*
X49141142Y-145155619D01*
X50093523Y-146060380D02*
X49522095Y-146060380D01*
X49807809Y-146060380D02*
X49807809Y-145060380D01*
X49712571Y-145203238D01*
X49617333Y-145298476D01*
X49522095Y-145346095D01*
X50426857Y-145060380D02*
X51045904Y-145060380D01*
X50712571Y-145441333D01*
X50855428Y-145441333D01*
X50950666Y-145488952D01*
X50998285Y-145536571D01*
X51045904Y-145631809D01*
X51045904Y-145869904D01*
X50998285Y-145965142D01*
X50950666Y-146012761D01*
X50855428Y-146060380D01*
X50569714Y-146060380D01*
X50474476Y-146012761D01*
X50426857Y-145965142D01*
X55221666Y-179284380D02*
X55221666Y-179998666D01*
X55174047Y-180141523D01*
X55078809Y-180236761D01*
X54935952Y-180284380D01*
X54840714Y-180284380D01*
X55650238Y-179379619D02*
X55697857Y-179332000D01*
X55793095Y-179284380D01*
X56031190Y-179284380D01*
X56126428Y-179332000D01*
X56174047Y-179379619D01*
X56221666Y-179474857D01*
X56221666Y-179570095D01*
X56174047Y-179712952D01*
X55602619Y-180284380D01*
X56221666Y-180284380D01*
X44259833Y-144851380D02*
X43926500Y-144375190D01*
X43688404Y-144851380D02*
X43688404Y-143851380D01*
X44069357Y-143851380D01*
X44164595Y-143899000D01*
X44212214Y-143946619D01*
X44259833Y-144041857D01*
X44259833Y-144184714D01*
X44212214Y-144279952D01*
X44164595Y-144327571D01*
X44069357Y-144375190D01*
X43688404Y-144375190D01*
X44593166Y-143851380D02*
X45259833Y-143851380D01*
X44831261Y-144851380D01*
X66381333Y-176379142D02*
X66333714Y-176426761D01*
X66190857Y-176474380D01*
X66095619Y-176474380D01*
X65952761Y-176426761D01*
X65857523Y-176331523D01*
X65809904Y-176236285D01*
X65762285Y-176045809D01*
X65762285Y-175902952D01*
X65809904Y-175712476D01*
X65857523Y-175617238D01*
X65952761Y-175522000D01*
X66095619Y-175474380D01*
X66190857Y-175474380D01*
X66333714Y-175522000D01*
X66381333Y-175569619D01*
X67286095Y-175474380D02*
X66809904Y-175474380D01*
X66762285Y-175950571D01*
X66809904Y-175902952D01*
X66905142Y-175855333D01*
X67143238Y-175855333D01*
X67238476Y-175902952D01*
X67286095Y-175950571D01*
X67333714Y-176045809D01*
X67333714Y-176283904D01*
X67286095Y-176379142D01*
X67238476Y-176426761D01*
X67143238Y-176474380D01*
X66905142Y-176474380D01*
X66809904Y-176426761D01*
X66762285Y-176379142D01*
X82288142Y-164187142D02*
X82240523Y-164234761D01*
X82097666Y-164282380D01*
X82002428Y-164282380D01*
X81859571Y-164234761D01*
X81764333Y-164139523D01*
X81716714Y-164044285D01*
X81669095Y-163853809D01*
X81669095Y-163710952D01*
X81716714Y-163520476D01*
X81764333Y-163425238D01*
X81859571Y-163330000D01*
X82002428Y-163282380D01*
X82097666Y-163282380D01*
X82240523Y-163330000D01*
X82288142Y-163377619D01*
X83240523Y-164282380D02*
X82669095Y-164282380D01*
X82954809Y-164282380D02*
X82954809Y-163282380D01*
X82859571Y-163425238D01*
X82764333Y-163520476D01*
X82669095Y-163568095D01*
X83573857Y-163282380D02*
X84240523Y-163282380D01*
X83811952Y-164282380D01*
X86860142Y-164282380D02*
X86526809Y-163806190D01*
X86288714Y-164282380D02*
X86288714Y-163282380D01*
X86669666Y-163282380D01*
X86764904Y-163330000D01*
X86812523Y-163377619D01*
X86860142Y-163472857D01*
X86860142Y-163615714D01*
X86812523Y-163710952D01*
X86764904Y-163758571D01*
X86669666Y-163806190D01*
X86288714Y-163806190D01*
X87812523Y-164282380D02*
X87241095Y-164282380D01*
X87526809Y-164282380D02*
X87526809Y-163282380D01*
X87431571Y-163425238D01*
X87336333Y-163520476D01*
X87241095Y-163568095D01*
X88193476Y-163377619D02*
X88241095Y-163330000D01*
X88336333Y-163282380D01*
X88574428Y-163282380D01*
X88669666Y-163330000D01*
X88717285Y-163377619D01*
X88764904Y-163472857D01*
X88764904Y-163568095D01*
X88717285Y-163710952D01*
X88145857Y-164282380D01*
X88764904Y-164282380D01*
X39457333Y-173712142D02*
X39409714Y-173759761D01*
X39266857Y-173807380D01*
X39171619Y-173807380D01*
X39028761Y-173759761D01*
X38933523Y-173664523D01*
X38885904Y-173569285D01*
X38838285Y-173378809D01*
X38838285Y-173235952D01*
X38885904Y-173045476D01*
X38933523Y-172950238D01*
X39028761Y-172855000D01*
X39171619Y-172807380D01*
X39266857Y-172807380D01*
X39409714Y-172855000D01*
X39457333Y-172902619D01*
X40409714Y-173807380D02*
X39838285Y-173807380D01*
X40124000Y-173807380D02*
X40124000Y-172807380D01*
X40028761Y-172950238D01*
X39933523Y-173045476D01*
X39838285Y-173093095D01*
X50419095Y-135469380D02*
X50419095Y-136278904D01*
X50466714Y-136374142D01*
X50514333Y-136421761D01*
X50609571Y-136469380D01*
X50800047Y-136469380D01*
X50895285Y-136421761D01*
X50942904Y-136374142D01*
X50990523Y-136278904D01*
X50990523Y-135469380D01*
X51419095Y-135564619D02*
X51466714Y-135517000D01*
X51561952Y-135469380D01*
X51800047Y-135469380D01*
X51895285Y-135517000D01*
X51942904Y-135564619D01*
X51990523Y-135659857D01*
X51990523Y-135755095D01*
X51942904Y-135897952D01*
X51371476Y-136469380D01*
X51990523Y-136469380D01*
X57595095Y-138121666D02*
X58071285Y-138121666D01*
X57499857Y-138407380D02*
X57833190Y-137407380D01*
X58166523Y-138407380D01*
X58499857Y-137740714D02*
X58499857Y-138407380D01*
X58499857Y-137835952D02*
X58547476Y-137788333D01*
X58642714Y-137740714D01*
X58785571Y-137740714D01*
X58880809Y-137788333D01*
X58928428Y-137883571D01*
X58928428Y-138407380D01*
X59261761Y-137740714D02*
X59642714Y-137740714D01*
X59404619Y-137407380D02*
X59404619Y-138264523D01*
X59452238Y-138359761D01*
X59547476Y-138407380D01*
X59642714Y-138407380D01*
X60357000Y-138359761D02*
X60261761Y-138407380D01*
X60071285Y-138407380D01*
X59976047Y-138359761D01*
X59928428Y-138264523D01*
X59928428Y-137883571D01*
X59976047Y-137788333D01*
X60071285Y-137740714D01*
X60261761Y-137740714D01*
X60357000Y-137788333D01*
X60404619Y-137883571D01*
X60404619Y-137978809D01*
X59928428Y-138074047D01*
X60833190Y-137740714D02*
X60833190Y-138407380D01*
X60833190Y-137835952D02*
X60880809Y-137788333D01*
X60976047Y-137740714D01*
X61118904Y-137740714D01*
X61214142Y-137788333D01*
X61261761Y-137883571D01*
X61261761Y-138407380D01*
X61737952Y-137740714D02*
X61737952Y-138407380D01*
X61737952Y-137835952D02*
X61785571Y-137788333D01*
X61880809Y-137740714D01*
X62023666Y-137740714D01*
X62118904Y-137788333D01*
X62166523Y-137883571D01*
X62166523Y-138407380D01*
X63071285Y-138407380D02*
X63071285Y-137883571D01*
X63023666Y-137788333D01*
X62928428Y-137740714D01*
X62737952Y-137740714D01*
X62642714Y-137788333D01*
X63071285Y-138359761D02*
X62976047Y-138407380D01*
X62737952Y-138407380D01*
X62642714Y-138359761D01*
X62595095Y-138264523D01*
X62595095Y-138169285D01*
X62642714Y-138074047D01*
X62737952Y-138026428D01*
X62976047Y-138026428D01*
X63071285Y-137978809D01*
X64261761Y-138121666D02*
X64737952Y-138121666D01*
X64166523Y-138407380D02*
X64499857Y-137407380D01*
X64833190Y-138407380D01*
X65166523Y-138407380D02*
X65166523Y-137740714D01*
X65166523Y-137931190D02*
X65214142Y-137835952D01*
X65261761Y-137788333D01*
X65357000Y-137740714D01*
X65452238Y-137740714D01*
X66166523Y-138359761D02*
X66071285Y-138407380D01*
X65880809Y-138407380D01*
X65785571Y-138359761D01*
X65737952Y-138264523D01*
X65737952Y-137883571D01*
X65785571Y-137788333D01*
X65880809Y-137740714D01*
X66071285Y-137740714D01*
X66166523Y-137788333D01*
X66214142Y-137883571D01*
X66214142Y-137978809D01*
X65737952Y-138074047D01*
X67071285Y-138407380D02*
X67071285Y-137883571D01*
X67023666Y-137788333D01*
X66928428Y-137740714D01*
X66737952Y-137740714D01*
X66642714Y-137788333D01*
X67071285Y-138359761D02*
X66976047Y-138407380D01*
X66737952Y-138407380D01*
X66642714Y-138359761D01*
X66595095Y-138264523D01*
X66595095Y-138169285D01*
X66642714Y-138074047D01*
X66737952Y-138026428D01*
X66976047Y-138026428D01*
X67071285Y-137978809D01*
X49474380Y-184792857D02*
X48998190Y-185126190D01*
X49474380Y-185364285D02*
X48474380Y-185364285D01*
X48474380Y-184983333D01*
X48522000Y-184888095D01*
X48569619Y-184840476D01*
X48664857Y-184792857D01*
X48807714Y-184792857D01*
X48902952Y-184840476D01*
X48950571Y-184888095D01*
X48998190Y-184983333D01*
X48998190Y-185364285D01*
X49474380Y-183840476D02*
X49474380Y-184411904D01*
X49474380Y-184126190D02*
X48474380Y-184126190D01*
X48617238Y-184221428D01*
X48712476Y-184316666D01*
X48760095Y-184411904D01*
X48474380Y-183507142D02*
X48474380Y-182888095D01*
X48855333Y-183221428D01*
X48855333Y-183078571D01*
X48902952Y-182983333D01*
X48950571Y-182935714D01*
X49045809Y-182888095D01*
X49283904Y-182888095D01*
X49379142Y-182935714D01*
X49426761Y-182983333D01*
X49474380Y-183078571D01*
X49474380Y-183364285D01*
X49426761Y-183459523D01*
X49379142Y-183507142D01*
X82288142Y-157837142D02*
X82240523Y-157884761D01*
X82097666Y-157932380D01*
X82002428Y-157932380D01*
X81859571Y-157884761D01*
X81764333Y-157789523D01*
X81716714Y-157694285D01*
X81669095Y-157503809D01*
X81669095Y-157360952D01*
X81716714Y-157170476D01*
X81764333Y-157075238D01*
X81859571Y-156980000D01*
X82002428Y-156932380D01*
X82097666Y-156932380D01*
X82240523Y-156980000D01*
X82288142Y-157027619D01*
X83240523Y-157932380D02*
X82669095Y-157932380D01*
X82954809Y-157932380D02*
X82954809Y-156932380D01*
X82859571Y-157075238D01*
X82764333Y-157170476D01*
X82669095Y-157218095D01*
X84097666Y-156932380D02*
X83907190Y-156932380D01*
X83811952Y-156980000D01*
X83764333Y-157027619D01*
X83669095Y-157170476D01*
X83621476Y-157360952D01*
X83621476Y-157741904D01*
X83669095Y-157837142D01*
X83716714Y-157884761D01*
X83811952Y-157932380D01*
X84002428Y-157932380D01*
X84097666Y-157884761D01*
X84145285Y-157837142D01*
X84192904Y-157741904D01*
X84192904Y-157503809D01*
X84145285Y-157408571D01*
X84097666Y-157360952D01*
X84002428Y-157313333D01*
X83811952Y-157313333D01*
X83716714Y-157360952D01*
X83669095Y-157408571D01*
X83621476Y-157503809D01*
X49490333Y-178633380D02*
X49157000Y-178157190D01*
X48918904Y-178633380D02*
X48918904Y-177633380D01*
X49299857Y-177633380D01*
X49395095Y-177681000D01*
X49442714Y-177728619D01*
X49490333Y-177823857D01*
X49490333Y-177966714D01*
X49442714Y-178061952D01*
X49395095Y-178109571D01*
X49299857Y-178157190D01*
X48918904Y-178157190D01*
X49823666Y-177633380D02*
X50442714Y-177633380D01*
X50109380Y-178014333D01*
X50252238Y-178014333D01*
X50347476Y-178061952D01*
X50395095Y-178109571D01*
X50442714Y-178204809D01*
X50442714Y-178442904D01*
X50395095Y-178538142D01*
X50347476Y-178585761D01*
X50252238Y-178633380D01*
X49966523Y-178633380D01*
X49871285Y-178585761D01*
X49823666Y-178538142D01*
X37163476Y-183940380D02*
X37163476Y-184654666D01*
X37115857Y-184797523D01*
X37020619Y-184892761D01*
X36877761Y-184940380D01*
X36782523Y-184940380D01*
X38163476Y-184940380D02*
X37592047Y-184940380D01*
X37877761Y-184940380D02*
X37877761Y-183940380D01*
X37782523Y-184083238D01*
X37687285Y-184178476D01*
X37592047Y-184226095D01*
X38782523Y-183940380D02*
X38877761Y-183940380D01*
X38973000Y-183988000D01*
X39020619Y-184035619D01*
X39068238Y-184130857D01*
X39115857Y-184321333D01*
X39115857Y-184559428D01*
X39068238Y-184749904D01*
X39020619Y-184845142D01*
X38973000Y-184892761D01*
X38877761Y-184940380D01*
X38782523Y-184940380D01*
X38687285Y-184892761D01*
X38639666Y-184845142D01*
X38592047Y-184749904D01*
X38544428Y-184559428D01*
X38544428Y-184321333D01*
X38592047Y-184130857D01*
X38639666Y-184035619D01*
X38687285Y-183988000D01*
X38782523Y-183940380D01*
X86008642Y-174315380D02*
X85675309Y-173839190D01*
X85437214Y-174315380D02*
X85437214Y-173315380D01*
X85818166Y-173315380D01*
X85913404Y-173363000D01*
X85961023Y-173410619D01*
X86008642Y-173505857D01*
X86008642Y-173648714D01*
X85961023Y-173743952D01*
X85913404Y-173791571D01*
X85818166Y-173839190D01*
X85437214Y-173839190D01*
X86913404Y-173315380D02*
X86437214Y-173315380D01*
X86389595Y-173791571D01*
X86437214Y-173743952D01*
X86532452Y-173696333D01*
X86770547Y-173696333D01*
X86865785Y-173743952D01*
X86913404Y-173791571D01*
X86961023Y-173886809D01*
X86961023Y-174124904D01*
X86913404Y-174220142D01*
X86865785Y-174267761D01*
X86770547Y-174315380D01*
X86532452Y-174315380D01*
X86437214Y-174267761D01*
X86389595Y-174220142D01*
X56856333Y-173045380D02*
X56380142Y-173045380D01*
X56380142Y-172045380D01*
X57713476Y-173045380D02*
X57142047Y-173045380D01*
X57427761Y-173045380D02*
X57427761Y-172045380D01*
X57332523Y-172188238D01*
X57237285Y-172283476D01*
X57142047Y-172331095D01*
X90574904Y-184094380D02*
X90574904Y-183094380D01*
X90813000Y-183094380D01*
X90955857Y-183142000D01*
X91051095Y-183237238D01*
X91098714Y-183332476D01*
X91146333Y-183522952D01*
X91146333Y-183665809D01*
X91098714Y-183856285D01*
X91051095Y-183951523D01*
X90955857Y-184046761D01*
X90813000Y-184094380D01*
X90574904Y-184094380D01*
X92051095Y-183094380D02*
X91574904Y-183094380D01*
X91527285Y-183570571D01*
X91574904Y-183522952D01*
X91670142Y-183475333D01*
X91908238Y-183475333D01*
X92003476Y-183522952D01*
X92051095Y-183570571D01*
X92098714Y-183665809D01*
X92098714Y-183903904D01*
X92051095Y-183999142D01*
X92003476Y-184046761D01*
X91908238Y-184094380D01*
X91670142Y-184094380D01*
X91574904Y-184046761D01*
X91527285Y-183999142D01*
X46569333Y-146026142D02*
X46521714Y-146073761D01*
X46378857Y-146121380D01*
X46283619Y-146121380D01*
X46140761Y-146073761D01*
X46045523Y-145978523D01*
X45997904Y-145883285D01*
X45950285Y-145692809D01*
X45950285Y-145549952D01*
X45997904Y-145359476D01*
X46045523Y-145264238D01*
X46140761Y-145169000D01*
X46283619Y-145121380D01*
X46378857Y-145121380D01*
X46521714Y-145169000D01*
X46569333Y-145216619D01*
X47426476Y-145121380D02*
X47236000Y-145121380D01*
X47140761Y-145169000D01*
X47093142Y-145216619D01*
X46997904Y-145359476D01*
X46950285Y-145549952D01*
X46950285Y-145930904D01*
X46997904Y-146026142D01*
X47045523Y-146073761D01*
X47140761Y-146121380D01*
X47331238Y-146121380D01*
X47426476Y-146073761D01*
X47474095Y-146026142D01*
X47521714Y-145930904D01*
X47521714Y-145692809D01*
X47474095Y-145597571D01*
X47426476Y-145549952D01*
X47331238Y-145502333D01*
X47140761Y-145502333D01*
X47045523Y-145549952D01*
X46997904Y-145597571D01*
X46950285Y-145692809D01*
X66905666Y-179284380D02*
X66905666Y-179998666D01*
X66858047Y-180141523D01*
X66762809Y-180236761D01*
X66619952Y-180284380D01*
X66524714Y-180284380D01*
X67286619Y-179284380D02*
X67905666Y-179284380D01*
X67572333Y-179665333D01*
X67715190Y-179665333D01*
X67810428Y-179712952D01*
X67858047Y-179760571D01*
X67905666Y-179855809D01*
X67905666Y-180093904D01*
X67858047Y-180189142D01*
X67810428Y-180236761D01*
X67715190Y-180284380D01*
X67429476Y-180284380D01*
X67334238Y-180236761D01*
X67286619Y-180189142D01*
X92162380Y-142192333D02*
X92876666Y-142192333D01*
X93019523Y-142239952D01*
X93114761Y-142335190D01*
X93162380Y-142478047D01*
X93162380Y-142573285D01*
X92590952Y-141573285D02*
X92543333Y-141668523D01*
X92495714Y-141716142D01*
X92400476Y-141763761D01*
X92352857Y-141763761D01*
X92257619Y-141716142D01*
X92210000Y-141668523D01*
X92162380Y-141573285D01*
X92162380Y-141382809D01*
X92210000Y-141287571D01*
X92257619Y-141239952D01*
X92352857Y-141192333D01*
X92400476Y-141192333D01*
X92495714Y-141239952D01*
X92543333Y-141287571D01*
X92590952Y-141382809D01*
X92590952Y-141573285D01*
X92638571Y-141668523D01*
X92686190Y-141716142D01*
X92781428Y-141763761D01*
X92971904Y-141763761D01*
X93067142Y-141716142D01*
X93114761Y-141668523D01*
X93162380Y-141573285D01*
X93162380Y-141382809D01*
X93114761Y-141287571D01*
X93067142Y-141239952D01*
X92971904Y-141192333D01*
X92781428Y-141192333D01*
X92686190Y-141239952D01*
X92638571Y-141287571D01*
X92590952Y-141382809D01*
X83018333Y-174315380D02*
X82685000Y-173839190D01*
X82446904Y-174315380D02*
X82446904Y-173315380D01*
X82827857Y-173315380D01*
X82923095Y-173363000D01*
X82970714Y-173410619D01*
X83018333Y-173505857D01*
X83018333Y-173648714D01*
X82970714Y-173743952D01*
X82923095Y-173791571D01*
X82827857Y-173839190D01*
X82446904Y-173839190D01*
X83875476Y-173648714D02*
X83875476Y-174315380D01*
X83637380Y-173267761D02*
X83399285Y-173982047D01*
X84018333Y-173982047D01*
X37774666Y-138390380D02*
X37774666Y-139104666D01*
X37727047Y-139247523D01*
X37631809Y-139342761D01*
X37488952Y-139390380D01*
X37393714Y-139390380D01*
X38250857Y-139390380D02*
X38250857Y-138390380D01*
X38631809Y-138390380D01*
X38727047Y-138438000D01*
X38774666Y-138485619D01*
X38822285Y-138580857D01*
X38822285Y-138723714D01*
X38774666Y-138818952D01*
X38727047Y-138866571D01*
X38631809Y-138914190D01*
X38250857Y-138914190D01*
X39774666Y-139390380D02*
X39203238Y-139390380D01*
X39488952Y-139390380D02*
X39488952Y-138390380D01*
X39393714Y-138533238D01*
X39298476Y-138628476D01*
X39203238Y-138676095D01*
X75485666Y-153249380D02*
X75485666Y-153963666D01*
X75438047Y-154106523D01*
X75342809Y-154201761D01*
X75199952Y-154249380D01*
X75104714Y-154249380D01*
X75866619Y-153249380D02*
X76533285Y-153249380D01*
X76104714Y-154249380D01*
X27606666Y-153376380D02*
X27606666Y-154090666D01*
X27559047Y-154233523D01*
X27463809Y-154328761D01*
X27320952Y-154376380D01*
X27225714Y-154376380D01*
X28511428Y-153376380D02*
X28320952Y-153376380D01*
X28225714Y-153424000D01*
X28178095Y-153471619D01*
X28082857Y-153614476D01*
X28035238Y-153804952D01*
X28035238Y-154185904D01*
X28082857Y-154281142D01*
X28130476Y-154328761D01*
X28225714Y-154376380D01*
X28416190Y-154376380D01*
X28511428Y-154328761D01*
X28559047Y-154281142D01*
X28606666Y-154185904D01*
X28606666Y-153947809D01*
X28559047Y-153852571D01*
X28511428Y-153804952D01*
X28416190Y-153757333D01*
X28225714Y-153757333D01*
X28130476Y-153804952D01*
X28082857Y-153852571D01*
X28035238Y-153947809D01*
X49395142Y-160377142D02*
X49347523Y-160424761D01*
X49204666Y-160472380D01*
X49109428Y-160472380D01*
X48966571Y-160424761D01*
X48871333Y-160329523D01*
X48823714Y-160234285D01*
X48776095Y-160043809D01*
X48776095Y-159900952D01*
X48823714Y-159710476D01*
X48871333Y-159615238D01*
X48966571Y-159520000D01*
X49109428Y-159472380D01*
X49204666Y-159472380D01*
X49347523Y-159520000D01*
X49395142Y-159567619D01*
X50347523Y-160472380D02*
X49776095Y-160472380D01*
X50061809Y-160472380D02*
X50061809Y-159472380D01*
X49966571Y-159615238D01*
X49871333Y-159710476D01*
X49776095Y-159758095D01*
X51204666Y-159805714D02*
X51204666Y-160472380D01*
X50966571Y-159424761D02*
X50728476Y-160139047D01*
X51347523Y-160139047D01*
X75239666Y-156678380D02*
X75239666Y-157392666D01*
X75192047Y-157535523D01*
X75096809Y-157630761D01*
X74953952Y-157678380D01*
X74858714Y-157678380D01*
X75715857Y-157678380D02*
X75715857Y-156678380D01*
X76096809Y-156678380D01*
X76192047Y-156726000D01*
X76239666Y-156773619D01*
X76287285Y-156868857D01*
X76287285Y-157011714D01*
X76239666Y-157106952D01*
X76192047Y-157154571D01*
X76096809Y-157202190D01*
X75715857Y-157202190D01*
X76668238Y-156773619D02*
X76715857Y-156726000D01*
X76811095Y-156678380D01*
X77049190Y-156678380D01*
X77144428Y-156726000D01*
X77192047Y-156773619D01*
X77239666Y-156868857D01*
X77239666Y-156964095D01*
X77192047Y-157106952D01*
X76620619Y-157678380D01*
X77239666Y-157678380D01*
X40505142Y-160377142D02*
X40457523Y-160424761D01*
X40314666Y-160472380D01*
X40219428Y-160472380D01*
X40076571Y-160424761D01*
X39981333Y-160329523D01*
X39933714Y-160234285D01*
X39886095Y-160043809D01*
X39886095Y-159900952D01*
X39933714Y-159710476D01*
X39981333Y-159615238D01*
X40076571Y-159520000D01*
X40219428Y-159472380D01*
X40314666Y-159472380D01*
X40457523Y-159520000D01*
X40505142Y-159567619D01*
X41457523Y-160472380D02*
X40886095Y-160472380D01*
X41171809Y-160472380D02*
X41171809Y-159472380D01*
X41076571Y-159615238D01*
X40981333Y-159710476D01*
X40886095Y-159758095D01*
X42362285Y-159472380D02*
X41886095Y-159472380D01*
X41838476Y-159948571D01*
X41886095Y-159900952D01*
X41981333Y-159853333D01*
X42219428Y-159853333D01*
X42314666Y-159900952D01*
X42362285Y-159948571D01*
X42409904Y-160043809D01*
X42409904Y-160281904D01*
X42362285Y-160377142D01*
X42314666Y-160424761D01*
X42219428Y-160472380D01*
X41981333Y-160472380D01*
X41886095Y-160424761D01*
X41838476Y-160377142D01*
X29914666Y-161880380D02*
X29914666Y-162594666D01*
X29867047Y-162737523D01*
X29771809Y-162832761D01*
X29628952Y-162880380D01*
X29533714Y-162880380D01*
X30867047Y-161880380D02*
X30390857Y-161880380D01*
X30343238Y-162356571D01*
X30390857Y-162308952D01*
X30486095Y-162261333D01*
X30724190Y-162261333D01*
X30819428Y-162308952D01*
X30867047Y-162356571D01*
X30914666Y-162451809D01*
X30914666Y-162689904D01*
X30867047Y-162785142D01*
X30819428Y-162832761D01*
X30724190Y-162880380D01*
X30486095Y-162880380D01*
X30390857Y-162832761D01*
X30343238Y-162785142D01*
X73874333Y-174249380D02*
X73541000Y-173773190D01*
X73302904Y-174249380D02*
X73302904Y-173249380D01*
X73683857Y-173249380D01*
X73779095Y-173297000D01*
X73826714Y-173344619D01*
X73874333Y-173439857D01*
X73874333Y-173582714D01*
X73826714Y-173677952D01*
X73779095Y-173725571D01*
X73683857Y-173773190D01*
X73302904Y-173773190D01*
X74826714Y-174249380D02*
X74255285Y-174249380D01*
X74541000Y-174249380D02*
X74541000Y-173249380D01*
X74445761Y-173392238D01*
X74350523Y-173487476D01*
X74255285Y-173535095D01*
X42870380Y-184792857D02*
X42394190Y-185126190D01*
X42870380Y-185364285D02*
X41870380Y-185364285D01*
X41870380Y-184983333D01*
X41918000Y-184888095D01*
X41965619Y-184840476D01*
X42060857Y-184792857D01*
X42203714Y-184792857D01*
X42298952Y-184840476D01*
X42346571Y-184888095D01*
X42394190Y-184983333D01*
X42394190Y-185364285D01*
X42870380Y-183840476D02*
X42870380Y-184411904D01*
X42870380Y-184126190D02*
X41870380Y-184126190D01*
X42013238Y-184221428D01*
X42108476Y-184316666D01*
X42156095Y-184411904D01*
X42203714Y-182983333D02*
X42870380Y-182983333D01*
X41822761Y-183221428D02*
X42537047Y-183459523D01*
X42537047Y-182840476D01*
X76668333Y-174249380D02*
X76335000Y-173773190D01*
X76096904Y-174249380D02*
X76096904Y-173249380D01*
X76477857Y-173249380D01*
X76573095Y-173297000D01*
X76620714Y-173344619D01*
X76668333Y-173439857D01*
X76668333Y-173582714D01*
X76620714Y-173677952D01*
X76573095Y-173725571D01*
X76477857Y-173773190D01*
X76096904Y-173773190D01*
X77049285Y-173344619D02*
X77096904Y-173297000D01*
X77192142Y-173249380D01*
X77430238Y-173249380D01*
X77525476Y-173297000D01*
X77573095Y-173344619D01*
X77620714Y-173439857D01*
X77620714Y-173535095D01*
X77573095Y-173677952D01*
X77001666Y-174249380D01*
X77620714Y-174249380D01*
X86510904Y-184094380D02*
X86510904Y-183094380D01*
X86749000Y-183094380D01*
X86891857Y-183142000D01*
X86987095Y-183237238D01*
X87034714Y-183332476D01*
X87082333Y-183522952D01*
X87082333Y-183665809D01*
X87034714Y-183856285D01*
X86987095Y-183951523D01*
X86891857Y-184046761D01*
X86749000Y-184094380D01*
X86510904Y-184094380D01*
X87939476Y-183427714D02*
X87939476Y-184094380D01*
X87701380Y-183046761D02*
X87463285Y-183761047D01*
X88082333Y-183761047D01*
X39209214Y-167076380D02*
X39209214Y-166076380D01*
X39447309Y-166076380D01*
X39590166Y-166124000D01*
X39685404Y-166219238D01*
X39733023Y-166314476D01*
X39780642Y-166504952D01*
X39780642Y-166647809D01*
X39733023Y-166838285D01*
X39685404Y-166933523D01*
X39590166Y-167028761D01*
X39447309Y-167076380D01*
X39209214Y-167076380D01*
X40733023Y-167076380D02*
X40161595Y-167076380D01*
X40447309Y-167076380D02*
X40447309Y-166076380D01*
X40352071Y-166219238D01*
X40256833Y-166314476D01*
X40161595Y-166362095D01*
X81397333Y-155551142D02*
X81349714Y-155598761D01*
X81206857Y-155646380D01*
X81111619Y-155646380D01*
X80968761Y-155598761D01*
X80873523Y-155503523D01*
X80825904Y-155408285D01*
X80778285Y-155217809D01*
X80778285Y-155074952D01*
X80825904Y-154884476D01*
X80873523Y-154789238D01*
X80968761Y-154694000D01*
X81111619Y-154646380D01*
X81206857Y-154646380D01*
X81349714Y-154694000D01*
X81397333Y-154741619D01*
X81873523Y-155646380D02*
X82064000Y-155646380D01*
X82159238Y-155598761D01*
X82206857Y-155551142D01*
X82302095Y-155408285D01*
X82349714Y-155217809D01*
X82349714Y-154836857D01*
X82302095Y-154741619D01*
X82254476Y-154694000D01*
X82159238Y-154646380D01*
X81968761Y-154646380D01*
X81873523Y-154694000D01*
X81825904Y-154741619D01*
X81778285Y-154836857D01*
X81778285Y-155074952D01*
X81825904Y-155170190D01*
X81873523Y-155217809D01*
X81968761Y-155265428D01*
X82159238Y-155265428D01*
X82254476Y-155217809D01*
X82302095Y-155170190D01*
X82349714Y-155074952D01*
X43902333Y-160472380D02*
X43569000Y-159996190D01*
X43330904Y-160472380D02*
X43330904Y-159472380D01*
X43711857Y-159472380D01*
X43807095Y-159520000D01*
X43854714Y-159567619D01*
X43902333Y-159662857D01*
X43902333Y-159805714D01*
X43854714Y-159900952D01*
X43807095Y-159948571D01*
X43711857Y-159996190D01*
X43330904Y-159996190D01*
X44378523Y-160472380D02*
X44569000Y-160472380D01*
X44664238Y-160424761D01*
X44711857Y-160377142D01*
X44807095Y-160234285D01*
X44854714Y-160043809D01*
X44854714Y-159662857D01*
X44807095Y-159567619D01*
X44759476Y-159520000D01*
X44664238Y-159472380D01*
X44473761Y-159472380D01*
X44378523Y-159520000D01*
X44330904Y-159567619D01*
X44283285Y-159662857D01*
X44283285Y-159900952D01*
X44330904Y-159996190D01*
X44378523Y-160043809D01*
X44473761Y-160091428D01*
X44664238Y-160091428D01*
X44759476Y-160043809D01*
X44807095Y-159996190D01*
X44854714Y-159900952D01*
X70350142Y-174093142D02*
X70302523Y-174140761D01*
X70159666Y-174188380D01*
X70064428Y-174188380D01*
X69921571Y-174140761D01*
X69826333Y-174045523D01*
X69778714Y-173950285D01*
X69731095Y-173759809D01*
X69731095Y-173616952D01*
X69778714Y-173426476D01*
X69826333Y-173331238D01*
X69921571Y-173236000D01*
X70064428Y-173188380D01*
X70159666Y-173188380D01*
X70302523Y-173236000D01*
X70350142Y-173283619D01*
X71302523Y-174188380D02*
X70731095Y-174188380D01*
X71016809Y-174188380D02*
X71016809Y-173188380D01*
X70921571Y-173331238D01*
X70826333Y-173426476D01*
X70731095Y-173474095D01*
X72254904Y-174188380D02*
X71683476Y-174188380D01*
X71969190Y-174188380D02*
X71969190Y-173188380D01*
X71873952Y-173331238D01*
X71778714Y-173426476D01*
X71683476Y-173474095D01*
X79240142Y-174220142D02*
X79192523Y-174267761D01*
X79049666Y-174315380D01*
X78954428Y-174315380D01*
X78811571Y-174267761D01*
X78716333Y-174172523D01*
X78668714Y-174077285D01*
X78621095Y-173886809D01*
X78621095Y-173743952D01*
X78668714Y-173553476D01*
X78716333Y-173458238D01*
X78811571Y-173363000D01*
X78954428Y-173315380D01*
X79049666Y-173315380D01*
X79192523Y-173363000D01*
X79240142Y-173410619D01*
X80192523Y-174315380D02*
X79621095Y-174315380D01*
X79906809Y-174315380D02*
X79906809Y-173315380D01*
X79811571Y-173458238D01*
X79716333Y-173553476D01*
X79621095Y-173601095D01*
X80811571Y-173315380D02*
X80906809Y-173315380D01*
X81002047Y-173363000D01*
X81049666Y-173410619D01*
X81097285Y-173505857D01*
X81144904Y-173696333D01*
X81144904Y-173934428D01*
X81097285Y-174124904D01*
X81049666Y-174220142D01*
X81002047Y-174267761D01*
X80906809Y-174315380D01*
X80811571Y-174315380D01*
X80716333Y-174267761D01*
X80668714Y-174220142D01*
X80621095Y-174124904D01*
X80573476Y-173934428D01*
X80573476Y-173696333D01*
X80621095Y-173505857D01*
X80668714Y-173410619D01*
X80716333Y-173363000D01*
X80811571Y-173315380D01*
X47516023Y-136850380D02*
X47182690Y-136374190D01*
X46944595Y-136850380D02*
X46944595Y-135850380D01*
X47325547Y-135850380D01*
X47420785Y-135898000D01*
X47468404Y-135945619D01*
X47516023Y-136040857D01*
X47516023Y-136183714D01*
X47468404Y-136278952D01*
X47420785Y-136326571D01*
X47325547Y-136374190D01*
X46944595Y-136374190D01*
X48087452Y-136278952D02*
X47992214Y-136231333D01*
X47944595Y-136183714D01*
X47896976Y-136088476D01*
X47896976Y-136040857D01*
X47944595Y-135945619D01*
X47992214Y-135898000D01*
X48087452Y-135850380D01*
X48277928Y-135850380D01*
X48373166Y-135898000D01*
X48420785Y-135945619D01*
X48468404Y-136040857D01*
X48468404Y-136088476D01*
X48420785Y-136183714D01*
X48373166Y-136231333D01*
X48277928Y-136278952D01*
X48087452Y-136278952D01*
X47992214Y-136326571D01*
X47944595Y-136374190D01*
X47896976Y-136469428D01*
X47896976Y-136659904D01*
X47944595Y-136755142D01*
X47992214Y-136802761D01*
X48087452Y-136850380D01*
X48277928Y-136850380D01*
X48373166Y-136802761D01*
X48420785Y-136755142D01*
X48468404Y-136659904D01*
X48468404Y-136469428D01*
X48420785Y-136374190D01*
X48373166Y-136326571D01*
X48277928Y-136278952D01*
X63587333Y-176379142D02*
X63539714Y-176426761D01*
X63396857Y-176474380D01*
X63301619Y-176474380D01*
X63158761Y-176426761D01*
X63063523Y-176331523D01*
X63015904Y-176236285D01*
X62968285Y-176045809D01*
X62968285Y-175902952D01*
X63015904Y-175712476D01*
X63063523Y-175617238D01*
X63158761Y-175522000D01*
X63301619Y-175474380D01*
X63396857Y-175474380D01*
X63539714Y-175522000D01*
X63587333Y-175569619D01*
X64444476Y-175807714D02*
X64444476Y-176474380D01*
X64206380Y-175426761D02*
X63968285Y-176141047D01*
X64587333Y-176141047D01*
X46220142Y-160472380D02*
X45886809Y-159996190D01*
X45648714Y-160472380D02*
X45648714Y-159472380D01*
X46029666Y-159472380D01*
X46124904Y-159520000D01*
X46172523Y-159567619D01*
X46220142Y-159662857D01*
X46220142Y-159805714D01*
X46172523Y-159900952D01*
X46124904Y-159948571D01*
X46029666Y-159996190D01*
X45648714Y-159996190D01*
X47172523Y-160472380D02*
X46601095Y-160472380D01*
X46886809Y-160472380D02*
X46886809Y-159472380D01*
X46791571Y-159615238D01*
X46696333Y-159710476D01*
X46601095Y-159758095D01*
X47791571Y-159472380D02*
X47886809Y-159472380D01*
X47982047Y-159520000D01*
X48029666Y-159567619D01*
X48077285Y-159662857D01*
X48124904Y-159853333D01*
X48124904Y-160091428D01*
X48077285Y-160281904D01*
X48029666Y-160377142D01*
X47982047Y-160424761D01*
X47886809Y-160472380D01*
X47791571Y-160472380D01*
X47696333Y-160424761D01*
X47648714Y-160377142D01*
X47601095Y-160281904D01*
X47553476Y-160091428D01*
X47553476Y-159853333D01*
X47601095Y-159662857D01*
X47648714Y-159567619D01*
X47696333Y-159520000D01*
X47791571Y-159472380D01*
X44317523Y-142184380D02*
X43984190Y-141708190D01*
X43746095Y-142184380D02*
X43746095Y-141184380D01*
X44127047Y-141184380D01*
X44222285Y-141232000D01*
X44269904Y-141279619D01*
X44317523Y-141374857D01*
X44317523Y-141517714D01*
X44269904Y-141612952D01*
X44222285Y-141660571D01*
X44127047Y-141708190D01*
X43746095Y-141708190D01*
X45174666Y-141184380D02*
X44984190Y-141184380D01*
X44888952Y-141232000D01*
X44841333Y-141279619D01*
X44746095Y-141422476D01*
X44698476Y-141612952D01*
X44698476Y-141993904D01*
X44746095Y-142089142D01*
X44793714Y-142136761D01*
X44888952Y-142184380D01*
X45079428Y-142184380D01*
X45174666Y-142136761D01*
X45222285Y-142089142D01*
X45269904Y-141993904D01*
X45269904Y-141755809D01*
X45222285Y-141660571D01*
X45174666Y-141612952D01*
X45079428Y-141565333D01*
X44888952Y-141565333D01*
X44793714Y-141612952D01*
X44746095Y-141660571D01*
X44698476Y-141755809D01*
X95527761Y-163201833D02*
X95575380Y-163058976D01*
X95575380Y-162820880D01*
X95527761Y-162725642D01*
X95480142Y-162678023D01*
X95384904Y-162630404D01*
X95289666Y-162630404D01*
X95194428Y-162678023D01*
X95146809Y-162725642D01*
X95099190Y-162820880D01*
X95051571Y-163011357D01*
X95003952Y-163106595D01*
X94956333Y-163154214D01*
X94861095Y-163201833D01*
X94765857Y-163201833D01*
X94670619Y-163154214D01*
X94623000Y-163106595D01*
X94575380Y-163011357D01*
X94575380Y-162773261D01*
X94623000Y-162630404D01*
X94575380Y-162297071D02*
X95575380Y-162058976D01*
X94861095Y-161868500D01*
X95575380Y-161678023D01*
X94575380Y-161439928D01*
X95575380Y-160535166D02*
X95575380Y-161106595D01*
X95575380Y-160820880D02*
X94575380Y-160820880D01*
X94718238Y-160916119D01*
X94813476Y-161011357D01*
X94861095Y-161106595D01*
X55713333Y-165584142D02*
X55665714Y-165631761D01*
X55522857Y-165679380D01*
X55427619Y-165679380D01*
X55284761Y-165631761D01*
X55189523Y-165536523D01*
X55141904Y-165441285D01*
X55094285Y-165250809D01*
X55094285Y-165107952D01*
X55141904Y-164917476D01*
X55189523Y-164822238D01*
X55284761Y-164727000D01*
X55427619Y-164679380D01*
X55522857Y-164679380D01*
X55665714Y-164727000D01*
X55713333Y-164774619D01*
X56046666Y-164679380D02*
X56665714Y-164679380D01*
X56332380Y-165060333D01*
X56475238Y-165060333D01*
X56570476Y-165107952D01*
X56618095Y-165155571D01*
X56665714Y-165250809D01*
X56665714Y-165488904D01*
X56618095Y-165584142D01*
X56570476Y-165631761D01*
X56475238Y-165679380D01*
X56189523Y-165679380D01*
X56094285Y-165631761D01*
X56046666Y-165584142D01*
X33135096Y-149871180D02*
X33135096Y-150680704D01*
X33182715Y-150775942D01*
X33230334Y-150823561D01*
X33325572Y-150871180D01*
X33516048Y-150871180D01*
X33611286Y-150823561D01*
X33658905Y-150775942D01*
X33706524Y-150680704D01*
X33706524Y-149871180D01*
X34087477Y-149871180D02*
X34706524Y-149871180D01*
X34373191Y-150252133D01*
X34516048Y-150252133D01*
X34611286Y-150299752D01*
X34658905Y-150347371D01*
X34706524Y-150442609D01*
X34706524Y-150680704D01*
X34658905Y-150775942D01*
X34611286Y-150823561D01*
X34516048Y-150871180D01*
X34230334Y-150871180D01*
X34135096Y-150823561D01*
X34087477Y-150775942D01*
X39243000Y-149820380D02*
X39243000Y-150058476D01*
X39004904Y-149963238D02*
X39243000Y-150058476D01*
X39481095Y-149963238D01*
X39100142Y-150248952D02*
X39243000Y-150058476D01*
X39385857Y-150248952D01*
X34169024Y-141962142D02*
X34121405Y-142009761D01*
X33978548Y-142057380D01*
X33883310Y-142057380D01*
X33740453Y-142009761D01*
X33645215Y-141914523D01*
X33597596Y-141819285D01*
X33549977Y-141628809D01*
X33549977Y-141485952D01*
X33597596Y-141295476D01*
X33645215Y-141200238D01*
X33740453Y-141105000D01*
X33883310Y-141057380D01*
X33978548Y-141057380D01*
X34121405Y-141105000D01*
X34169024Y-141152619D01*
X34740453Y-141485952D02*
X34645215Y-141438333D01*
X34597596Y-141390714D01*
X34549977Y-141295476D01*
X34549977Y-141247857D01*
X34597596Y-141152619D01*
X34645215Y-141105000D01*
X34740453Y-141057380D01*
X34930929Y-141057380D01*
X35026167Y-141105000D01*
X35073786Y-141152619D01*
X35121405Y-141247857D01*
X35121405Y-141295476D01*
X35073786Y-141390714D01*
X35026167Y-141438333D01*
X34930929Y-141485952D01*
X34740453Y-141485952D01*
X34645215Y-141533571D01*
X34597596Y-141581190D01*
X34549977Y-141676428D01*
X34549977Y-141866904D01*
X34597596Y-141962142D01*
X34645215Y-142009761D01*
X34740453Y-142057380D01*
X34930929Y-142057380D01*
X35026167Y-142009761D01*
X35073786Y-141962142D01*
X35121405Y-141866904D01*
X35121405Y-141676428D01*
X35073786Y-141581190D01*
X35026167Y-141533571D01*
X34930929Y-141485952D01*
X86860142Y-157924380D02*
X86526809Y-157448190D01*
X86288714Y-157924380D02*
X86288714Y-156924380D01*
X86669666Y-156924380D01*
X86764904Y-156972000D01*
X86812523Y-157019619D01*
X86860142Y-157114857D01*
X86860142Y-157257714D01*
X86812523Y-157352952D01*
X86764904Y-157400571D01*
X86669666Y-157448190D01*
X86288714Y-157448190D01*
X87812523Y-157924380D02*
X87241095Y-157924380D01*
X87526809Y-157924380D02*
X87526809Y-156924380D01*
X87431571Y-157067238D01*
X87336333Y-157162476D01*
X87241095Y-157210095D01*
X88764904Y-157924380D02*
X88193476Y-157924380D01*
X88479190Y-157924380D02*
X88479190Y-156924380D01*
X88383952Y-157067238D01*
X88288714Y-157162476D01*
X88193476Y-157210095D01*
X39209214Y-170378380D02*
X39209214Y-169378380D01*
X39447309Y-169378380D01*
X39590166Y-169426000D01*
X39685404Y-169521238D01*
X39733023Y-169616476D01*
X39780642Y-169806952D01*
X39780642Y-169949809D01*
X39733023Y-170140285D01*
X39685404Y-170235523D01*
X39590166Y-170330761D01*
X39447309Y-170378380D01*
X39209214Y-170378380D01*
X40161595Y-169473619D02*
X40209214Y-169426000D01*
X40304452Y-169378380D01*
X40542547Y-169378380D01*
X40637785Y-169426000D01*
X40685404Y-169473619D01*
X40733023Y-169568857D01*
X40733023Y-169664095D01*
X40685404Y-169806952D01*
X40113976Y-170378380D01*
X40733023Y-170378380D01*
X78152666Y-179284380D02*
X78152666Y-179998666D01*
X78105047Y-180141523D01*
X78009809Y-180236761D01*
X77866952Y-180284380D01*
X77771714Y-180284380D01*
X79057428Y-179617714D02*
X79057428Y-180284380D01*
X78819333Y-179236761D02*
X78581238Y-179951047D01*
X79200285Y-179951047D01*
X41547023Y-136755142D02*
X41499404Y-136802761D01*
X41356547Y-136850380D01*
X41261309Y-136850380D01*
X41118452Y-136802761D01*
X41023214Y-136707523D01*
X40975595Y-136612285D01*
X40927976Y-136421809D01*
X40927976Y-136278952D01*
X40975595Y-136088476D01*
X41023214Y-135993238D01*
X41118452Y-135898000D01*
X41261309Y-135850380D01*
X41356547Y-135850380D01*
X41499404Y-135898000D01*
X41547023Y-135945619D01*
X42499404Y-136850380D02*
X41927976Y-136850380D01*
X42213690Y-136850380D02*
X42213690Y-135850380D01*
X42118452Y-135993238D01*
X42023214Y-136088476D01*
X41927976Y-136136095D01*
X42880357Y-135945619D02*
X42927976Y-135898000D01*
X43023214Y-135850380D01*
X43261309Y-135850380D01*
X43356547Y-135898000D01*
X43404166Y-135945619D01*
X43451785Y-136040857D01*
X43451785Y-136136095D01*
X43404166Y-136278952D01*
X42832738Y-136850380D01*
X43451785Y-136850380D01*
X43378380Y-188571095D02*
X42378380Y-188571095D01*
X42378380Y-188333000D01*
X42426000Y-188190142D01*
X42521238Y-188094904D01*
X42616476Y-188047285D01*
X42806952Y-187999666D01*
X42949809Y-187999666D01*
X43140285Y-188047285D01*
X43235523Y-188094904D01*
X43330761Y-188190142D01*
X43378380Y-188333000D01*
X43378380Y-188571095D01*
X42378380Y-187666333D02*
X42378380Y-187047285D01*
X42759333Y-187380619D01*
X42759333Y-187237761D01*
X42806952Y-187142523D01*
X42854571Y-187094904D01*
X42949809Y-187047285D01*
X43187904Y-187047285D01*
X43283142Y-187094904D01*
X43330761Y-187142523D01*
X43378380Y-187237761D01*
X43378380Y-187523476D01*
X43330761Y-187618714D01*
X43283142Y-187666333D01*
X43989666Y-151471380D02*
X43989666Y-152185666D01*
X43942047Y-152328523D01*
X43846809Y-152423761D01*
X43703952Y-152471380D01*
X43608714Y-152471380D01*
X44513476Y-152471380D02*
X44703952Y-152471380D01*
X44799190Y-152423761D01*
X44846809Y-152376142D01*
X44942047Y-152233285D01*
X44989666Y-152042809D01*
X44989666Y-151661857D01*
X44942047Y-151566619D01*
X44894428Y-151519000D01*
X44799190Y-151471380D01*
X44608714Y-151471380D01*
X44513476Y-151519000D01*
X44465857Y-151566619D01*
X44418238Y-151661857D01*
X44418238Y-151899952D01*
X44465857Y-151995190D01*
X44513476Y-152042809D01*
X44608714Y-152090428D01*
X44799190Y-152090428D01*
X44894428Y-152042809D01*
X44942047Y-151995190D01*
X44989666Y-151899952D01*
D13*
X33789000Y-181321000D02*
X33696000Y-181227000D01*
X35120000Y-172486000D02*
X35120000Y-182606000D01*
X31504000Y-179036000D02*
X31446000Y-178977000D01*
X36880000Y-172486000D02*
X29159000Y-172486000D01*
X36880000Y-182606000D02*
X29159000Y-182606000D01*
X29820000Y-172486000D02*
X29820000Y-182606000D01*
X29760000Y-172246000D02*
X28920000Y-172246000D01*
X31744000Y-178866000D02*
X31651000Y-178772000D01*
X29159000Y-172486000D02*
X29159000Y-182606000D01*
X36880000Y-172486000D02*
X36880000Y-182606000D01*
X30420000Y-172486000D02*
X30420000Y-182606000D01*
X33995000Y-181116000D02*
X33936000Y-181057000D01*
X28920000Y-172246000D02*
X28920000Y-172846000D01*
X34204000Y-175835000D02*
G75*
G03*
X34203953Y-174256911I-1483995J789000D01*
G01*
X33509000Y-173562000D02*
G75*
G03*
X31930911Y-173562047I-789000J-1483995D01*
G01*
X31931000Y-176530000D02*
G75*
G03*
X33509089Y-176529953I789000J1483995D01*
G01*
X31236000Y-174257000D02*
G75*
G03*
X31039550Y-175075383I1483995J-788998D01*
G01*
X31040000Y-175046000D02*
G75*
G03*
X31236648Y-175834712I1679991J-2D01*
G01*
X34400000Y-180046000D02*
G75*
G03*
X34400000Y-180046000I-1680000J0D01*
G01*
X36270000Y-180046000D02*
G75*
G03*
X36270000Y-180046000I-550000J0D01*
G01*
X36270000Y-175046000D02*
G75*
G03*
X36270000Y-175046000I-550000J0D01*
G01*
X37064749Y-143664000D02*
X37587253Y-143664000D01*
X37064749Y-145134000D02*
X37587253Y-145134000D01*
D14*
X98248000Y-178874000D02*
X98248000Y-179274000D01*
X91998000Y-178924000D02*
X91998000Y-178624000D01*
X92323000Y-179574000D02*
X92098000Y-179574000D01*
X92098000Y-179574000D02*
X92098000Y-181224000D01*
X97873000Y-173024000D02*
X98248000Y-173024000D01*
X91998000Y-178924000D02*
X92323000Y-179274000D01*
X91998000Y-173024000D02*
X91998000Y-173524000D01*
X92548000Y-173024000D02*
X91998000Y-173024000D01*
X92323000Y-179274000D02*
X92323000Y-179574000D01*
X98248000Y-173024000D02*
X98248000Y-173399000D01*
X98248000Y-179274000D02*
X97848000Y-179274000D01*
D13*
X50038000Y-166207000D02*
X50838000Y-166207000D01*
X50038000Y-169327000D02*
X50838000Y-169327000D01*
X50038000Y-169327000D02*
X49238000Y-169327000D01*
X50038000Y-166207000D02*
X48238000Y-166207000D01*
X49776748Y-172058000D02*
X50299252Y-172058000D01*
X49776748Y-170588000D02*
X50299252Y-170588000D01*
X50519000Y-143390252D02*
X50519000Y-142867748D01*
X49049000Y-143390252D02*
X49049000Y-142867748D01*
X50189000Y-186027000D02*
X60809000Y-186027000D01*
X60809000Y-180967000D02*
X60809000Y-187587000D01*
X59989000Y-182647000D02*
X59935000Y-182701000D01*
X50189000Y-180967000D02*
X60809000Y-180967000D01*
X49949000Y-186087000D02*
X49949000Y-187827000D01*
X58064000Y-184952000D02*
X58010000Y-185007000D01*
X50189000Y-187587000D02*
X60809000Y-187587000D01*
X57896000Y-184741000D02*
X57820000Y-184817000D01*
X54396000Y-184741000D02*
X54320000Y-184817000D01*
X60179000Y-182837000D02*
X60103000Y-182913000D01*
X54564000Y-184952000D02*
X54510000Y-185007000D01*
X56489000Y-182647000D02*
X56435000Y-182701000D01*
X49949000Y-187827000D02*
X51449000Y-187827000D01*
X50189000Y-180967000D02*
X50189000Y-187587000D01*
X56679000Y-182837000D02*
X56603000Y-182913000D01*
X53385000Y-184534000D02*
G75*
G03*
X53385645Y-183121267I-1386001J706999D01*
G01*
X51292000Y-185213000D02*
G75*
G03*
X52025444Y-185382682I706999J1385995D01*
G01*
X51999000Y-185382000D02*
G75*
G03*
X52704955Y-185212515I-2J1555008D01*
G01*
X52706000Y-182441000D02*
G75*
G03*
X51293267Y-182440355I-706999J-1386001D01*
G01*
X50613000Y-183120000D02*
G75*
G03*
X50612355Y-184532733I1386001J-706999D01*
G01*
X57054000Y-183827000D02*
G75*
G03*
X57054000Y-183827000I-1555000J0D01*
G01*
X60554000Y-183827000D02*
G75*
G03*
X60554000Y-183827000I-1555000J0D01*
G01*
X41428936Y-143664000D02*
X41883064Y-143664000D01*
X41428936Y-145134000D02*
X41883064Y-145134000D01*
X65813000Y-173616252D02*
X65813000Y-173093748D01*
X67283000Y-173616252D02*
X67283000Y-173093748D01*
X83192252Y-161317000D02*
X82669748Y-161317000D01*
X83192252Y-162787000D02*
X82669748Y-162787000D01*
X87730064Y-162787000D02*
X87275936Y-162787000D01*
X87730064Y-161317000D02*
X87275936Y-161317000D01*
X46844000Y-174692437D02*
X46844000Y-180448000D01*
X41088437Y-173628000D02*
X42374000Y-173628000D01*
X40024000Y-174692437D02*
X40024000Y-180448000D01*
X45281500Y-172600500D02*
X45281500Y-173388000D01*
X41088437Y-173628000D02*
X40024000Y-174692437D01*
X45675250Y-172994250D02*
X44887750Y-172994250D01*
X45779563Y-173628000D02*
X46844000Y-174692437D01*
X45779563Y-173628000D02*
X44494000Y-173628000D01*
X46844000Y-180448000D02*
X44494000Y-180448000D01*
X40024000Y-180448000D02*
X42374000Y-180448000D01*
X71357000Y-160455000D02*
X70357000Y-160455000D01*
X53357000Y-159705000D02*
X53357000Y-160455000D01*
X53357000Y-134955000D02*
X53357000Y-141705000D01*
X53357000Y-134955000D02*
X71357000Y-134955000D01*
X71357000Y-159705000D02*
X71357000Y-160455000D01*
X71357000Y-140895000D02*
X53357000Y-140895000D01*
X53357000Y-160455000D02*
X54357000Y-160455000D01*
X71357000Y-134955000D02*
X71357000Y-141705000D01*
X47852000Y-183922936D02*
X47852000Y-184377064D01*
X46382000Y-183922936D02*
X46382000Y-184377064D01*
X83192252Y-158396000D02*
X82669748Y-158396000D01*
X83192252Y-159866000D02*
X82669748Y-159866000D01*
X51208000Y-178408064D02*
X51208000Y-177953936D01*
X52678000Y-178408064D02*
X52678000Y-177953936D01*
X34863000Y-186683000D02*
X35913000Y-186683000D01*
X41083000Y-189183000D02*
X41083000Y-186683000D01*
X35913000Y-186683000D02*
X35913000Y-185693000D01*
X34863000Y-189183000D02*
X34863000Y-186683000D01*
X36033000Y-191153000D02*
X39913000Y-191153000D01*
X41083000Y-186683000D02*
X40033000Y-186683000D01*
X85498000Y-176606564D02*
X85498000Y-176152436D01*
X86968000Y-176606564D02*
X86968000Y-176152436D01*
X59956700Y-173541813D02*
X59956700Y-171644187D01*
X54089300Y-171644187D02*
X54089300Y-173541813D01*
X90353000Y-185182000D02*
X90353000Y-187867000D01*
X92273000Y-187867000D02*
X92273000Y-185182000D01*
X90353000Y-187867000D02*
X92273000Y-187867000D01*
X47471000Y-143390252D02*
X47471000Y-142867748D01*
X46001000Y-143390252D02*
X46001000Y-142867748D01*
X61873000Y-186027000D02*
X72493000Y-186027000D01*
X71863000Y-182837000D02*
X71787000Y-182913000D01*
X61873000Y-180967000D02*
X72493000Y-180967000D01*
X72493000Y-180967000D02*
X72493000Y-187587000D01*
X61873000Y-180967000D02*
X61873000Y-187587000D01*
X61873000Y-187587000D02*
X72493000Y-187587000D01*
X66248000Y-184952000D02*
X66194000Y-185007000D01*
X69580000Y-184741000D02*
X69504000Y-184817000D01*
X61633000Y-187827000D02*
X63133000Y-187827000D01*
X68173000Y-182647000D02*
X68119000Y-182701000D01*
X71673000Y-182647000D02*
X71619000Y-182701000D01*
X69748000Y-184952000D02*
X69694000Y-185007000D01*
X66080000Y-184741000D02*
X66004000Y-184817000D01*
X68363000Y-182837000D02*
X68287000Y-182913000D01*
X61633000Y-186087000D02*
X61633000Y-187827000D01*
X62297000Y-183120000D02*
G75*
G03*
X62296355Y-184532733I1386001J-706999D01*
G01*
X62976000Y-185213000D02*
G75*
G03*
X63709444Y-185382682I706999J1385995D01*
G01*
X63683000Y-185382000D02*
G75*
G03*
X64388955Y-185212515I-2J1555008D01*
G01*
X64390000Y-182441000D02*
G75*
G03*
X62977267Y-182440355I-706999J-1386001D01*
G01*
X65069000Y-184534000D02*
G75*
G03*
X65069645Y-183121267I-1386001J706999D01*
G01*
X72238000Y-183827000D02*
G75*
G03*
X72238000Y-183827000I-1555000J0D01*
G01*
X68738000Y-183827000D02*
G75*
G03*
X68738000Y-183827000I-1555000J0D01*
G01*
X96433000Y-146152000D02*
X96488000Y-146206000D01*
X92448000Y-143407000D02*
X99068000Y-143407000D01*
X96222000Y-149820000D02*
X96298000Y-149896000D01*
X97568000Y-154267000D02*
X99308000Y-154267000D01*
X92448000Y-154027000D02*
X99068000Y-154027000D01*
X94128000Y-144227000D02*
X94182000Y-144281000D01*
X96433000Y-149652000D02*
X96488000Y-149706000D01*
X99308000Y-154267000D02*
X99308000Y-152767000D01*
X94318000Y-144037000D02*
X94394000Y-144113000D01*
X96222000Y-146320000D02*
X96298000Y-146396000D01*
X97508000Y-154027000D02*
X97508000Y-143407000D01*
X99068000Y-154027000D02*
X99068000Y-143407000D01*
X94128000Y-147727000D02*
X94182000Y-147781000D01*
X92448000Y-154027000D02*
X92448000Y-143407000D01*
X94318000Y-147537000D02*
X94394000Y-147613000D01*
X96694000Y-152924000D02*
G75*
G03*
X96863682Y-152190556I-1385995J706999D01*
G01*
X96015000Y-150831000D02*
G75*
G03*
X94602267Y-150830355I-706999J-1386001D01*
G01*
X96863000Y-152217000D02*
G75*
G03*
X96693515Y-151511045I-1555008J-2D01*
G01*
X93922000Y-151510000D02*
G75*
G03*
X93921355Y-152922733I1386001J-706999D01*
G01*
X94601000Y-153603000D02*
G75*
G03*
X96013733Y-153603645I706999J1386001D01*
G01*
X96863000Y-145217000D02*
G75*
G03*
X96863000Y-145217000I-1555000J0D01*
G01*
X96863000Y-148717000D02*
G75*
G03*
X96863000Y-148717000I-1555000J0D01*
G01*
X82577000Y-176630064D02*
X82577000Y-176175936D01*
X84047000Y-176630064D02*
X84047000Y-176175936D01*
X36327000Y-135195000D02*
X33727000Y-135195000D01*
X33727000Y-135195000D02*
X33727000Y-137855000D01*
X37597000Y-135195000D02*
X38927000Y-135195000D01*
X36327000Y-137855000D02*
X33727000Y-137855000D01*
X36327000Y-135195000D02*
X36327000Y-137855000D01*
X38927000Y-135195000D02*
X38927000Y-136525000D01*
X77519000Y-135558000D02*
X79829000Y-135558000D01*
X77759000Y-151828000D02*
X75839000Y-151828000D01*
X89809000Y-146518000D02*
X89809000Y-141818000D01*
X79829000Y-135558000D02*
X80339000Y-135908000D01*
X89359000Y-151828000D02*
X89809000Y-151828000D01*
X88779000Y-135558000D02*
X86919000Y-135558000D01*
X86709000Y-135908000D02*
X80339000Y-135908000D01*
X77519000Y-135558000D02*
X77319000Y-135758000D01*
X86709000Y-135908000D02*
X86709000Y-135758000D01*
X77319000Y-135758000D02*
X77059000Y-135758000D01*
X89809000Y-151828000D02*
X89809000Y-148218000D01*
X89809000Y-140518000D02*
X89809000Y-138718000D01*
X86919000Y-135558000D02*
X86709000Y-135758000D01*
X75839000Y-151828000D02*
X75839000Y-137818000D01*
X88779000Y-135558000D02*
X88979000Y-135758000D01*
X27987000Y-152087000D02*
X30487000Y-152087000D01*
X30487000Y-146917000D02*
X31477000Y-146917000D01*
X30487000Y-152087000D02*
X30487000Y-151037000D01*
X30487000Y-145867000D02*
X30487000Y-146917000D01*
X27987000Y-145867000D02*
X30487000Y-145867000D01*
X26017000Y-147037000D02*
X26017000Y-150917000D01*
X49176000Y-162298748D02*
X49176000Y-162821252D01*
X50646000Y-162298748D02*
X50646000Y-162821252D01*
X76078000Y-158436000D02*
X73478000Y-158436000D01*
X78678000Y-158436000D02*
X78678000Y-159766000D01*
X77348000Y-158436000D02*
X78678000Y-158436000D01*
X76078000Y-158436000D02*
X76078000Y-161096000D01*
X76078000Y-161096000D02*
X73478000Y-161096000D01*
X73478000Y-158436000D02*
X73478000Y-161096000D01*
X42010000Y-162298748D02*
X42010000Y-162821252D01*
X40540000Y-162298748D02*
X40540000Y-162821252D01*
D14*
X34979000Y-164628000D02*
X34979000Y-165528000D01*
X31579000Y-166328000D02*
X31079000Y-166328000D01*
X25579000Y-158528000D02*
X25579000Y-159028000D01*
X31579000Y-158528000D02*
X32079000Y-158528000D01*
X25579000Y-166328000D02*
X25579000Y-165828000D01*
X25579000Y-158528000D02*
X26079000Y-158528000D01*
X25579000Y-166328000D02*
X26079000Y-166328000D01*
X31579000Y-166328000D02*
X32079000Y-166328000D01*
X31579000Y-158528000D02*
X31079000Y-158528000D01*
X34979000Y-160228000D02*
X34979000Y-159328000D01*
D13*
X74776000Y-176630064D02*
X74776000Y-176175936D01*
X73306000Y-176630064D02*
X73306000Y-176175936D01*
X43496000Y-183922936D02*
X43496000Y-184377064D01*
X44966000Y-183922936D02*
X44966000Y-184377064D01*
X77570000Y-176630064D02*
X77570000Y-176175936D01*
X76100000Y-176630064D02*
X76100000Y-176175936D01*
X86289000Y-187867000D02*
X88209000Y-187867000D01*
X86289000Y-185182000D02*
X86289000Y-187867000D01*
X88209000Y-187867000D02*
X88209000Y-185182000D01*
X45811000Y-167624000D02*
X45811000Y-165624000D01*
X45811000Y-167624000D02*
X41911000Y-167624000D01*
X45811000Y-165624000D02*
X41911000Y-165624000D01*
X84223748Y-155929000D02*
X84746252Y-155929000D01*
X84223748Y-154459000D02*
X84746252Y-154459000D01*
X43461000Y-162787064D02*
X43461000Y-162332936D01*
X44931000Y-162787064D02*
X44931000Y-162332936D01*
X71855000Y-176141748D02*
X71855000Y-176664252D01*
X70385000Y-176141748D02*
X70385000Y-176664252D01*
X80491000Y-176202748D02*
X80491000Y-176725252D01*
X79021000Y-176202748D02*
X79021000Y-176725252D01*
X47397936Y-137441000D02*
X47852064Y-137441000D01*
X47397936Y-138911000D02*
X47852064Y-138911000D01*
X64489000Y-173616252D02*
X64489000Y-173093748D01*
X63019000Y-173616252D02*
X63019000Y-173093748D01*
X46255000Y-162787064D02*
X46255000Y-162332936D01*
X47725000Y-162787064D02*
X47725000Y-162332936D01*
X41859564Y-140870000D02*
X41405436Y-140870000D01*
X41859564Y-142340000D02*
X41405436Y-142340000D01*
D14*
X97873000Y-158743500D02*
X98248000Y-158743500D01*
X98248000Y-158743500D02*
X98248000Y-159118500D01*
X92323000Y-164993500D02*
X92323000Y-165293500D01*
X91998000Y-164643500D02*
X91998000Y-164343500D01*
X91998000Y-158743500D02*
X91998000Y-159243500D01*
X92548000Y-158743500D02*
X91998000Y-158743500D01*
X98248000Y-164593500D02*
X98248000Y-164993500D01*
X92098000Y-165293500D02*
X92098000Y-166943500D01*
X92323000Y-165293500D02*
X92098000Y-165293500D01*
X91998000Y-164643500D02*
X92323000Y-164993500D01*
X98248000Y-164993500D02*
X97848000Y-164993500D01*
D13*
X56141252Y-167740000D02*
X55618748Y-167740000D01*
X56141252Y-166270000D02*
X55618748Y-166270000D01*
X38494401Y-150063200D02*
X38494401Y-149596541D01*
X35141601Y-149596541D02*
X35141601Y-150063200D01*
X38494401Y-146710400D02*
X38027742Y-146710400D01*
X35141601Y-146710400D02*
X35141601Y-147177059D01*
X35141601Y-150063200D02*
X35608260Y-150063200D01*
X38027742Y-150063200D02*
X38494401Y-150063200D01*
X38494401Y-147177059D02*
X38494401Y-146710400D01*
X35608260Y-146710400D02*
X35141601Y-146710400D01*
X37064749Y-140870000D02*
X37587253Y-140870000D01*
X37064749Y-142340000D02*
X37587253Y-142340000D01*
X87730064Y-159866000D02*
X87275936Y-159866000D01*
X87730064Y-158396000D02*
X87275936Y-158396000D01*
X45811000Y-168926000D02*
X41911000Y-168926000D01*
X45811000Y-170926000D02*
X41911000Y-170926000D01*
X45811000Y-170926000D02*
X45811000Y-168926000D01*
X80047000Y-182837000D02*
X79971000Y-182913000D01*
X73557000Y-186027000D02*
X84177000Y-186027000D01*
X84177000Y-180967000D02*
X84177000Y-187587000D01*
X73557000Y-187587000D02*
X84177000Y-187587000D01*
X73557000Y-180967000D02*
X84177000Y-180967000D01*
X83357000Y-182647000D02*
X83303000Y-182701000D01*
X79857000Y-182647000D02*
X79803000Y-182701000D01*
X83547000Y-182837000D02*
X83471000Y-182913000D01*
X73557000Y-180967000D02*
X73557000Y-187587000D01*
X73317000Y-186087000D02*
X73317000Y-187827000D01*
X77932000Y-184952000D02*
X77878000Y-185007000D01*
X81432000Y-184952000D02*
X81378000Y-185007000D01*
X73317000Y-187827000D02*
X74817000Y-187827000D01*
X81264000Y-184741000D02*
X81188000Y-184817000D01*
X77764000Y-184741000D02*
X77688000Y-184817000D01*
X73981000Y-183120000D02*
G75*
G03*
X73980355Y-184532733I1386001J-706999D01*
G01*
X75367000Y-185382000D02*
G75*
G03*
X76072955Y-185212515I-2J1555008D01*
G01*
X76753000Y-184534000D02*
G75*
G03*
X76753645Y-183121267I-1386001J706999D01*
G01*
X74660000Y-185213000D02*
G75*
G03*
X75393444Y-185382682I706999J1385995D01*
G01*
X76074000Y-182441000D02*
G75*
G03*
X74661267Y-182440355I-706999J-1386001D01*
G01*
X80422000Y-183827000D02*
G75*
G03*
X80422000Y-183827000I-1555000J0D01*
G01*
X83922000Y-183827000D02*
G75*
G03*
X83922000Y-183827000I-1555000J0D01*
G01*
X42425252Y-137441000D02*
X41902748Y-137441000D01*
X42425252Y-138911000D02*
X41902748Y-138911000D01*
X43908000Y-188793000D02*
X46593000Y-188793000D01*
X43908000Y-186873000D02*
X43908000Y-188793000D01*
X46593000Y-186873000D02*
X43908000Y-186873000D01*
X40386000Y-156143000D02*
X40386000Y-153483000D01*
X40386000Y-153483000D02*
X50606000Y-153483000D01*
X40386000Y-156143000D02*
X50606000Y-156143000D01*
X39116000Y-156143000D02*
X37786000Y-156143000D01*
X37786000Y-156143000D02*
X37786000Y-154813000D01*
X50606000Y-156143000D02*
X50606000Y-153483000D01*
M02*
