G04 #@! TF.GenerationSoftware,KiCad,Pcbnew,6.0.2+dfsg-1*
G04 #@! TF.CreationDate,2023-06-22T08:15:41-06:00*
G04 #@! TF.ProjectId,ckt-soundplay,636b742d-736f-4756-9e64-706c61792e6b,rev?*
G04 #@! TF.SameCoordinates,Original*
G04 #@! TF.FileFunction,Copper,L1,Top*
G04 #@! TF.FilePolarity,Positive*
%FSLAX46Y46*%
G04 Gerber Fmt 4.6, Leading zero omitted, Abs format (unit mm)*
G04 Created by KiCad (PCBNEW 6.0.2+dfsg-1) date 2023-06-22 08:15:41*
%MOMM*%
%LPD*%
G01*
G04 APERTURE LIST*
G04 #@! TA.AperFunction,ComponentPad*
%ADD10R,2.500000X2.500000*%
G04 #@! TD*
G04 #@! TA.AperFunction,ComponentPad*
%ADD11C,2.500000*%
G04 #@! TD*
G04 #@! TA.AperFunction,SMDPad,CuDef*
%ADD12R,1.400000X2.100000*%
G04 #@! TD*
G04 #@! TA.AperFunction,ComponentPad*
%ADD13R,2.300000X2.300000*%
G04 #@! TD*
G04 #@! TA.AperFunction,ComponentPad*
%ADD14C,2.300000*%
G04 #@! TD*
G04 #@! TA.AperFunction,SMDPad,CuDef*
%ADD15R,1.500000X0.900000*%
G04 #@! TD*
G04 #@! TA.AperFunction,SMDPad,CuDef*
%ADD16R,0.900000X1.500000*%
G04 #@! TD*
G04 #@! TA.AperFunction,SMDPad,CuDef*
%ADD17R,0.900000X0.900000*%
G04 #@! TD*
G04 #@! TA.AperFunction,ComponentPad*
%ADD18C,6.400000*%
G04 #@! TD*
G04 #@! TA.AperFunction,SMDPad,CuDef*
%ADD19R,5.562600X2.108200*%
G04 #@! TD*
G04 #@! TA.AperFunction,ComponentPad*
%ADD20R,1.700000X1.700000*%
G04 #@! TD*
G04 #@! TA.AperFunction,ComponentPad*
%ADD21O,1.700000X1.700000*%
G04 #@! TD*
G04 #@! TA.AperFunction,SMDPad,CuDef*
%ADD22R,0.700000X1.200000*%
G04 #@! TD*
G04 #@! TA.AperFunction,SMDPad,CuDef*
%ADD23R,1.000000X0.800000*%
G04 #@! TD*
G04 #@! TA.AperFunction,SMDPad,CuDef*
%ADD24R,1.000000X1.200000*%
G04 #@! TD*
G04 #@! TA.AperFunction,SMDPad,CuDef*
%ADD25R,1.300000X1.900000*%
G04 #@! TD*
G04 #@! TA.AperFunction,SMDPad,CuDef*
%ADD26R,1.000000X2.800000*%
G04 #@! TD*
G04 #@! TA.AperFunction,SMDPad,CuDef*
%ADD27R,2.300000X0.500000*%
G04 #@! TD*
G04 #@! TA.AperFunction,SMDPad,CuDef*
%ADD28R,2.500000X2.000000*%
G04 #@! TD*
G04 #@! TA.AperFunction,SMDPad,CuDef*
%ADD29R,0.900000X1.200000*%
G04 #@! TD*
G04 #@! TA.AperFunction,SMDPad,CuDef*
%ADD30R,0.812800X0.254000*%
G04 #@! TD*
G04 #@! TA.AperFunction,SMDPad,CuDef*
%ADD31R,0.254000X0.812800*%
G04 #@! TD*
G04 #@! TA.AperFunction,SMDPad,CuDef*
%ADD32R,1.244600X1.244600*%
G04 #@! TD*
G04 #@! TA.AperFunction,ViaPad*
%ADD33C,0.609600*%
G04 #@! TD*
G04 #@! TA.AperFunction,Conductor*
%ADD34C,0.254000*%
G04 #@! TD*
G04 #@! TA.AperFunction,Conductor*
%ADD35C,0.635000*%
G04 #@! TD*
G04 #@! TA.AperFunction,Conductor*
%ADD36C,0.177800*%
G04 #@! TD*
G04 #@! TA.AperFunction,Conductor*
%ADD37C,0.508000*%
G04 #@! TD*
G04 #@! TA.AperFunction,Conductor*
%ADD38C,0.457200*%
G04 #@! TD*
G04 APERTURE END LIST*
D10*
X32720000Y-175046000D03*
D11*
X32720000Y-180046000D03*
G04 #@! TA.AperFunction,SMDPad,CuDef*
G36*
G01*
X35876001Y-144874000D02*
X35876001Y-143924000D01*
G75*
G02*
X36126001Y-143674000I250000J0D01*
G01*
X36626001Y-143674000D01*
G75*
G02*
X36876001Y-143924000I0J-250000D01*
G01*
X36876001Y-144874000D01*
G75*
G02*
X36626001Y-145124000I-250000J0D01*
G01*
X36126001Y-145124000D01*
G75*
G02*
X35876001Y-144874000I0J250000D01*
G01*
G37*
G04 #@! TD.AperFunction*
G04 #@! TA.AperFunction,SMDPad,CuDef*
G36*
G01*
X37776001Y-144874000D02*
X37776001Y-143924000D01*
G75*
G02*
X38026001Y-143674000I250000J0D01*
G01*
X38526001Y-143674000D01*
G75*
G02*
X38776001Y-143924000I0J-250000D01*
G01*
X38776001Y-144874000D01*
G75*
G02*
X38526001Y-145124000I-250000J0D01*
G01*
X38026001Y-145124000D01*
G75*
G02*
X37776001Y-144874000I0J250000D01*
G01*
G37*
G04 #@! TD.AperFunction*
D12*
X92873000Y-180699000D03*
X92873000Y-171599000D03*
X97373000Y-180699000D03*
X97373000Y-171599000D03*
G04 #@! TA.AperFunction,SMDPad,CuDef*
G36*
G01*
X48238000Y-166967000D02*
X48238000Y-166667000D01*
G75*
G02*
X48388000Y-166517000I150000J0D01*
G01*
X49413000Y-166517000D01*
G75*
G02*
X49563000Y-166667000I0J-150000D01*
G01*
X49563000Y-166967000D01*
G75*
G02*
X49413000Y-167117000I-150000J0D01*
G01*
X48388000Y-167117000D01*
G75*
G02*
X48238000Y-166967000I0J150000D01*
G01*
G37*
G04 #@! TD.AperFunction*
G04 #@! TA.AperFunction,SMDPad,CuDef*
G36*
G01*
X48238000Y-167917000D02*
X48238000Y-167617000D01*
G75*
G02*
X48388000Y-167467000I150000J0D01*
G01*
X49413000Y-167467000D01*
G75*
G02*
X49563000Y-167617000I0J-150000D01*
G01*
X49563000Y-167917000D01*
G75*
G02*
X49413000Y-168067000I-150000J0D01*
G01*
X48388000Y-168067000D01*
G75*
G02*
X48238000Y-167917000I0J150000D01*
G01*
G37*
G04 #@! TD.AperFunction*
G04 #@! TA.AperFunction,SMDPad,CuDef*
G36*
G01*
X48238000Y-168867000D02*
X48238000Y-168567000D01*
G75*
G02*
X48388000Y-168417000I150000J0D01*
G01*
X49413000Y-168417000D01*
G75*
G02*
X49563000Y-168567000I0J-150000D01*
G01*
X49563000Y-168867000D01*
G75*
G02*
X49413000Y-169017000I-150000J0D01*
G01*
X48388000Y-169017000D01*
G75*
G02*
X48238000Y-168867000I0J150000D01*
G01*
G37*
G04 #@! TD.AperFunction*
G04 #@! TA.AperFunction,SMDPad,CuDef*
G36*
G01*
X50513000Y-168867000D02*
X50513000Y-168567000D01*
G75*
G02*
X50663000Y-168417000I150000J0D01*
G01*
X51688000Y-168417000D01*
G75*
G02*
X51838000Y-168567000I0J-150000D01*
G01*
X51838000Y-168867000D01*
G75*
G02*
X51688000Y-169017000I-150000J0D01*
G01*
X50663000Y-169017000D01*
G75*
G02*
X50513000Y-168867000I0J150000D01*
G01*
G37*
G04 #@! TD.AperFunction*
G04 #@! TA.AperFunction,SMDPad,CuDef*
G36*
G01*
X50513000Y-167917000D02*
X50513000Y-167617000D01*
G75*
G02*
X50663000Y-167467000I150000J0D01*
G01*
X51688000Y-167467000D01*
G75*
G02*
X51838000Y-167617000I0J-150000D01*
G01*
X51838000Y-167917000D01*
G75*
G02*
X51688000Y-168067000I-150000J0D01*
G01*
X50663000Y-168067000D01*
G75*
G02*
X50513000Y-167917000I0J150000D01*
G01*
G37*
G04 #@! TD.AperFunction*
G04 #@! TA.AperFunction,SMDPad,CuDef*
G36*
G01*
X50513000Y-166967000D02*
X50513000Y-166667000D01*
G75*
G02*
X50663000Y-166517000I150000J0D01*
G01*
X51688000Y-166517000D01*
G75*
G02*
X51838000Y-166667000I0J-150000D01*
G01*
X51838000Y-166967000D01*
G75*
G02*
X51688000Y-167117000I-150000J0D01*
G01*
X50663000Y-167117000D01*
G75*
G02*
X50513000Y-166967000I0J150000D01*
G01*
G37*
G04 #@! TD.AperFunction*
G04 #@! TA.AperFunction,SMDPad,CuDef*
G36*
G01*
X48588000Y-171798000D02*
X48588000Y-170848000D01*
G75*
G02*
X48838000Y-170598000I250000J0D01*
G01*
X49338000Y-170598000D01*
G75*
G02*
X49588000Y-170848000I0J-250000D01*
G01*
X49588000Y-171798000D01*
G75*
G02*
X49338000Y-172048000I-250000J0D01*
G01*
X48838000Y-172048000D01*
G75*
G02*
X48588000Y-171798000I0J250000D01*
G01*
G37*
G04 #@! TD.AperFunction*
G04 #@! TA.AperFunction,SMDPad,CuDef*
G36*
G01*
X50488000Y-171798000D02*
X50488000Y-170848000D01*
G75*
G02*
X50738000Y-170598000I250000J0D01*
G01*
X51238000Y-170598000D01*
G75*
G02*
X51488000Y-170848000I0J-250000D01*
G01*
X51488000Y-171798000D01*
G75*
G02*
X51238000Y-172048000I-250000J0D01*
G01*
X50738000Y-172048000D01*
G75*
G02*
X50488000Y-171798000I0J250000D01*
G01*
G37*
G04 #@! TD.AperFunction*
G04 #@! TA.AperFunction,SMDPad,CuDef*
G36*
G01*
X50259000Y-144579000D02*
X49309000Y-144579000D01*
G75*
G02*
X49059000Y-144329000I0J250000D01*
G01*
X49059000Y-143829000D01*
G75*
G02*
X49309000Y-143579000I250000J0D01*
G01*
X50259000Y-143579000D01*
G75*
G02*
X50509000Y-143829000I0J-250000D01*
G01*
X50509000Y-144329000D01*
G75*
G02*
X50259000Y-144579000I-250000J0D01*
G01*
G37*
G04 #@! TD.AperFunction*
G04 #@! TA.AperFunction,SMDPad,CuDef*
G36*
G01*
X50259000Y-142679000D02*
X49309000Y-142679000D01*
G75*
G02*
X49059000Y-142429000I0J250000D01*
G01*
X49059000Y-141929000D01*
G75*
G02*
X49309000Y-141679000I250000J0D01*
G01*
X50259000Y-141679000D01*
G75*
G02*
X50509000Y-141929000I0J-250000D01*
G01*
X50509000Y-142429000D01*
G75*
G02*
X50259000Y-142679000I-250000J0D01*
G01*
G37*
G04 #@! TD.AperFunction*
D13*
X51999000Y-183827000D03*
D14*
X55499000Y-183827000D03*
X58999000Y-183827000D03*
G04 #@! TA.AperFunction,SMDPad,CuDef*
G36*
G01*
X40231000Y-144849000D02*
X40231000Y-143949000D01*
G75*
G02*
X40481000Y-143699000I250000J0D01*
G01*
X41006000Y-143699000D01*
G75*
G02*
X41256000Y-143949000I0J-250000D01*
G01*
X41256000Y-144849000D01*
G75*
G02*
X41006000Y-145099000I-250000J0D01*
G01*
X40481000Y-145099000D01*
G75*
G02*
X40231000Y-144849000I0J250000D01*
G01*
G37*
G04 #@! TD.AperFunction*
G04 #@! TA.AperFunction,SMDPad,CuDef*
G36*
G01*
X42056000Y-144849000D02*
X42056000Y-143949000D01*
G75*
G02*
X42306000Y-143699000I250000J0D01*
G01*
X42831000Y-143699000D01*
G75*
G02*
X43081000Y-143949000I0J-250000D01*
G01*
X43081000Y-144849000D01*
G75*
G02*
X42831000Y-145099000I-250000J0D01*
G01*
X42306000Y-145099000D01*
G75*
G02*
X42056000Y-144849000I0J250000D01*
G01*
G37*
G04 #@! TD.AperFunction*
G04 #@! TA.AperFunction,SMDPad,CuDef*
G36*
G01*
X67023000Y-174805000D02*
X66073000Y-174805000D01*
G75*
G02*
X65823000Y-174555000I0J250000D01*
G01*
X65823000Y-174055000D01*
G75*
G02*
X66073000Y-173805000I250000J0D01*
G01*
X67023000Y-173805000D01*
G75*
G02*
X67273000Y-174055000I0J-250000D01*
G01*
X67273000Y-174555000D01*
G75*
G02*
X67023000Y-174805000I-250000J0D01*
G01*
G37*
G04 #@! TD.AperFunction*
G04 #@! TA.AperFunction,SMDPad,CuDef*
G36*
G01*
X67023000Y-172905000D02*
X66073000Y-172905000D01*
G75*
G02*
X65823000Y-172655000I0J250000D01*
G01*
X65823000Y-172155000D01*
G75*
G02*
X66073000Y-171905000I250000J0D01*
G01*
X67023000Y-171905000D01*
G75*
G02*
X67273000Y-172155000I0J-250000D01*
G01*
X67273000Y-172655000D01*
G75*
G02*
X67023000Y-172905000I-250000J0D01*
G01*
G37*
G04 #@! TD.AperFunction*
G04 #@! TA.AperFunction,SMDPad,CuDef*
G36*
G01*
X84381000Y-161577000D02*
X84381000Y-162527000D01*
G75*
G02*
X84131000Y-162777000I-250000J0D01*
G01*
X83631000Y-162777000D01*
G75*
G02*
X83381000Y-162527000I0J250000D01*
G01*
X83381000Y-161577000D01*
G75*
G02*
X83631000Y-161327000I250000J0D01*
G01*
X84131000Y-161327000D01*
G75*
G02*
X84381000Y-161577000I0J-250000D01*
G01*
G37*
G04 #@! TD.AperFunction*
G04 #@! TA.AperFunction,SMDPad,CuDef*
G36*
G01*
X82481000Y-161577000D02*
X82481000Y-162527000D01*
G75*
G02*
X82231000Y-162777000I-250000J0D01*
G01*
X81731000Y-162777000D01*
G75*
G02*
X81481000Y-162527000I0J250000D01*
G01*
X81481000Y-161577000D01*
G75*
G02*
X81731000Y-161327000I250000J0D01*
G01*
X82231000Y-161327000D01*
G75*
G02*
X82481000Y-161577000I0J-250000D01*
G01*
G37*
G04 #@! TD.AperFunction*
G04 #@! TA.AperFunction,SMDPad,CuDef*
G36*
G01*
X88928000Y-161602000D02*
X88928000Y-162502000D01*
G75*
G02*
X88678000Y-162752000I-250000J0D01*
G01*
X88153000Y-162752000D01*
G75*
G02*
X87903000Y-162502000I0J250000D01*
G01*
X87903000Y-161602000D01*
G75*
G02*
X88153000Y-161352000I250000J0D01*
G01*
X88678000Y-161352000D01*
G75*
G02*
X88928000Y-161602000I0J-250000D01*
G01*
G37*
G04 #@! TD.AperFunction*
G04 #@! TA.AperFunction,SMDPad,CuDef*
G36*
G01*
X87103000Y-161602000D02*
X87103000Y-162502000D01*
G75*
G02*
X86853000Y-162752000I-250000J0D01*
G01*
X86328000Y-162752000D01*
G75*
G02*
X86078000Y-162502000I0J250000D01*
G01*
X86078000Y-161602000D01*
G75*
G02*
X86328000Y-161352000I250000J0D01*
G01*
X86853000Y-161352000D01*
G75*
G02*
X87103000Y-161602000I0J-250000D01*
G01*
G37*
G04 #@! TD.AperFunction*
G04 #@! TA.AperFunction,SMDPad,CuDef*
G36*
G01*
X42884000Y-172588000D02*
X43984000Y-172588000D01*
G75*
G02*
X44234000Y-172838000I0J-250000D01*
G01*
X44234000Y-175838000D01*
G75*
G02*
X43984000Y-176088000I-250000J0D01*
G01*
X42884000Y-176088000D01*
G75*
G02*
X42634000Y-175838000I0J250000D01*
G01*
X42634000Y-172838000D01*
G75*
G02*
X42884000Y-172588000I250000J0D01*
G01*
G37*
G04 #@! TD.AperFunction*
G04 #@! TA.AperFunction,SMDPad,CuDef*
G36*
G01*
X42884000Y-177988000D02*
X43984000Y-177988000D01*
G75*
G02*
X44234000Y-178238000I0J-250000D01*
G01*
X44234000Y-181238000D01*
G75*
G02*
X43984000Y-181488000I-250000J0D01*
G01*
X42884000Y-181488000D01*
G75*
G02*
X42634000Y-181238000I0J250000D01*
G01*
X42634000Y-178238000D01*
G75*
G02*
X42884000Y-177988000I250000J0D01*
G01*
G37*
G04 #@! TD.AperFunction*
D15*
X53607000Y-142445000D03*
X53607000Y-143715000D03*
X53607000Y-144985000D03*
X53607000Y-146255000D03*
X53607000Y-147525000D03*
X53607000Y-148795000D03*
X53607000Y-150065000D03*
X53607000Y-151335000D03*
X53607000Y-152605000D03*
X53607000Y-153875000D03*
X53607000Y-155145000D03*
X53607000Y-156415000D03*
X53607000Y-157685000D03*
X53607000Y-158955000D03*
D16*
X55372000Y-160205000D03*
X56642000Y-160205000D03*
X57912000Y-160205000D03*
X59182000Y-160205000D03*
X60452000Y-160205000D03*
X61722000Y-160205000D03*
X62992000Y-160205000D03*
X64262000Y-160205000D03*
X65532000Y-160205000D03*
X66802000Y-160205000D03*
X68072000Y-160205000D03*
X69342000Y-160205000D03*
D15*
X71107000Y-158955000D03*
X71107000Y-157685000D03*
X71107000Y-156415000D03*
X71107000Y-155145000D03*
X71107000Y-153875000D03*
X71107000Y-152605000D03*
X71107000Y-151335000D03*
X71107000Y-150065000D03*
X71107000Y-148795000D03*
X71107000Y-147525000D03*
X71107000Y-146255000D03*
X71107000Y-144985000D03*
X71107000Y-143715000D03*
X71107000Y-142445000D03*
D17*
X60857000Y-148765000D03*
X62257000Y-148765000D03*
X59457000Y-151565000D03*
X62257000Y-151565000D03*
X59457000Y-150165000D03*
X59457000Y-148765000D03*
X60857000Y-150165000D03*
X62257000Y-150165000D03*
X60857000Y-151565000D03*
D18*
X97282000Y-187452000D03*
G04 #@! TA.AperFunction,SMDPad,CuDef*
G36*
G01*
X46667000Y-182725000D02*
X47567000Y-182725000D01*
G75*
G02*
X47817000Y-182975000I0J-250000D01*
G01*
X47817000Y-183500000D01*
G75*
G02*
X47567000Y-183750000I-250000J0D01*
G01*
X46667000Y-183750000D01*
G75*
G02*
X46417000Y-183500000I0J250000D01*
G01*
X46417000Y-182975000D01*
G75*
G02*
X46667000Y-182725000I250000J0D01*
G01*
G37*
G04 #@! TD.AperFunction*
G04 #@! TA.AperFunction,SMDPad,CuDef*
G36*
G01*
X46667000Y-184550000D02*
X47567000Y-184550000D01*
G75*
G02*
X47817000Y-184800000I0J-250000D01*
G01*
X47817000Y-185325000D01*
G75*
G02*
X47567000Y-185575000I-250000J0D01*
G01*
X46667000Y-185575000D01*
G75*
G02*
X46417000Y-185325000I0J250000D01*
G01*
X46417000Y-184800000D01*
G75*
G02*
X46667000Y-184550000I250000J0D01*
G01*
G37*
G04 #@! TD.AperFunction*
G04 #@! TA.AperFunction,SMDPad,CuDef*
G36*
G01*
X84381000Y-158656000D02*
X84381000Y-159606000D01*
G75*
G02*
X84131000Y-159856000I-250000J0D01*
G01*
X83631000Y-159856000D01*
G75*
G02*
X83381000Y-159606000I0J250000D01*
G01*
X83381000Y-158656000D01*
G75*
G02*
X83631000Y-158406000I250000J0D01*
G01*
X84131000Y-158406000D01*
G75*
G02*
X84381000Y-158656000I0J-250000D01*
G01*
G37*
G04 #@! TD.AperFunction*
G04 #@! TA.AperFunction,SMDPad,CuDef*
G36*
G01*
X82481000Y-158656000D02*
X82481000Y-159606000D01*
G75*
G02*
X82231000Y-159856000I-250000J0D01*
G01*
X81731000Y-159856000D01*
G75*
G02*
X81481000Y-159606000I0J250000D01*
G01*
X81481000Y-158656000D01*
G75*
G02*
X81731000Y-158406000I250000J0D01*
G01*
X82231000Y-158406000D01*
G75*
G02*
X82481000Y-158656000I0J-250000D01*
G01*
G37*
G04 #@! TD.AperFunction*
G04 #@! TA.AperFunction,SMDPad,CuDef*
G36*
G01*
X52393000Y-179606000D02*
X51493000Y-179606000D01*
G75*
G02*
X51243000Y-179356000I0J250000D01*
G01*
X51243000Y-178831000D01*
G75*
G02*
X51493000Y-178581000I250000J0D01*
G01*
X52393000Y-178581000D01*
G75*
G02*
X52643000Y-178831000I0J-250000D01*
G01*
X52643000Y-179356000D01*
G75*
G02*
X52393000Y-179606000I-250000J0D01*
G01*
G37*
G04 #@! TD.AperFunction*
G04 #@! TA.AperFunction,SMDPad,CuDef*
G36*
G01*
X52393000Y-177781000D02*
X51493000Y-177781000D01*
G75*
G02*
X51243000Y-177531000I0J250000D01*
G01*
X51243000Y-177006000D01*
G75*
G02*
X51493000Y-176756000I250000J0D01*
G01*
X52393000Y-176756000D01*
G75*
G02*
X52643000Y-177006000I0J-250000D01*
G01*
X52643000Y-177531000D01*
G75*
G02*
X52393000Y-177781000I-250000J0D01*
G01*
G37*
G04 #@! TD.AperFunction*
G04 #@! TA.AperFunction,SMDPad,CuDef*
G36*
G01*
X36173000Y-187093000D02*
X36173000Y-185843000D01*
G75*
G02*
X36323000Y-185693000I150000J0D01*
G01*
X36623000Y-185693000D01*
G75*
G02*
X36773000Y-185843000I0J-150000D01*
G01*
X36773000Y-187093000D01*
G75*
G02*
X36623000Y-187243000I-150000J0D01*
G01*
X36323000Y-187243000D01*
G75*
G02*
X36173000Y-187093000I0J150000D01*
G01*
G37*
G04 #@! TD.AperFunction*
G04 #@! TA.AperFunction,SMDPad,CuDef*
G36*
G01*
X37173000Y-187093000D02*
X37173000Y-185843000D01*
G75*
G02*
X37323000Y-185693000I150000J0D01*
G01*
X37623000Y-185693000D01*
G75*
G02*
X37773000Y-185843000I0J-150000D01*
G01*
X37773000Y-187093000D01*
G75*
G02*
X37623000Y-187243000I-150000J0D01*
G01*
X37323000Y-187243000D01*
G75*
G02*
X37173000Y-187093000I0J150000D01*
G01*
G37*
G04 #@! TD.AperFunction*
G04 #@! TA.AperFunction,SMDPad,CuDef*
G36*
G01*
X38173000Y-187093000D02*
X38173000Y-185843000D01*
G75*
G02*
X38323000Y-185693000I150000J0D01*
G01*
X38623000Y-185693000D01*
G75*
G02*
X38773000Y-185843000I0J-150000D01*
G01*
X38773000Y-187093000D01*
G75*
G02*
X38623000Y-187243000I-150000J0D01*
G01*
X38323000Y-187243000D01*
G75*
G02*
X38173000Y-187093000I0J150000D01*
G01*
G37*
G04 #@! TD.AperFunction*
G04 #@! TA.AperFunction,SMDPad,CuDef*
G36*
G01*
X39173000Y-187093000D02*
X39173000Y-185843000D01*
G75*
G02*
X39323000Y-185693000I150000J0D01*
G01*
X39623000Y-185693000D01*
G75*
G02*
X39773000Y-185843000I0J-150000D01*
G01*
X39773000Y-187093000D01*
G75*
G02*
X39623000Y-187243000I-150000J0D01*
G01*
X39323000Y-187243000D01*
G75*
G02*
X39173000Y-187093000I0J150000D01*
G01*
G37*
G04 #@! TD.AperFunction*
G04 #@! TA.AperFunction,SMDPad,CuDef*
G36*
G01*
X40173000Y-190993000D02*
X40173000Y-189693000D01*
G75*
G02*
X40423000Y-189443000I250000J0D01*
G01*
X41123000Y-189443000D01*
G75*
G02*
X41373000Y-189693000I0J-250000D01*
G01*
X41373000Y-190993000D01*
G75*
G02*
X41123000Y-191243000I-250000J0D01*
G01*
X40423000Y-191243000D01*
G75*
G02*
X40173000Y-190993000I0J250000D01*
G01*
G37*
G04 #@! TD.AperFunction*
G04 #@! TA.AperFunction,SMDPad,CuDef*
G36*
G01*
X34573000Y-190993000D02*
X34573000Y-189693000D01*
G75*
G02*
X34823000Y-189443000I250000J0D01*
G01*
X35523000Y-189443000D01*
G75*
G02*
X35773000Y-189693000I0J-250000D01*
G01*
X35773000Y-190993000D01*
G75*
G02*
X35523000Y-191243000I-250000J0D01*
G01*
X34823000Y-191243000D01*
G75*
G02*
X34573000Y-190993000I0J250000D01*
G01*
G37*
G04 #@! TD.AperFunction*
G04 #@! TA.AperFunction,SMDPad,CuDef*
G36*
G01*
X86683000Y-177804500D02*
X85783000Y-177804500D01*
G75*
G02*
X85533000Y-177554500I0J250000D01*
G01*
X85533000Y-177029500D01*
G75*
G02*
X85783000Y-176779500I250000J0D01*
G01*
X86683000Y-176779500D01*
G75*
G02*
X86933000Y-177029500I0J-250000D01*
G01*
X86933000Y-177554500D01*
G75*
G02*
X86683000Y-177804500I-250000J0D01*
G01*
G37*
G04 #@! TD.AperFunction*
G04 #@! TA.AperFunction,SMDPad,CuDef*
G36*
G01*
X86683000Y-175979500D02*
X85783000Y-175979500D01*
G75*
G02*
X85533000Y-175729500I0J250000D01*
G01*
X85533000Y-175204500D01*
G75*
G02*
X85783000Y-174954500I250000J0D01*
G01*
X86683000Y-174954500D01*
G75*
G02*
X86933000Y-175204500I0J-250000D01*
G01*
X86933000Y-175729500D01*
G75*
G02*
X86683000Y-175979500I-250000J0D01*
G01*
G37*
G04 #@! TD.AperFunction*
X97282000Y-138938000D03*
D19*
X57023000Y-170294300D03*
X57023000Y-174891700D03*
G04 #@! TA.AperFunction,SMDPad,CuDef*
G36*
G01*
X91769250Y-187607000D02*
X90856750Y-187607000D01*
G75*
G02*
X90613000Y-187363250I0J243750D01*
G01*
X90613000Y-186875750D01*
G75*
G02*
X90856750Y-186632000I243750J0D01*
G01*
X91769250Y-186632000D01*
G75*
G02*
X92013000Y-186875750I0J-243750D01*
G01*
X92013000Y-187363250D01*
G75*
G02*
X91769250Y-187607000I-243750J0D01*
G01*
G37*
G04 #@! TD.AperFunction*
G04 #@! TA.AperFunction,SMDPad,CuDef*
G36*
G01*
X91769250Y-185732000D02*
X90856750Y-185732000D01*
G75*
G02*
X90613000Y-185488250I0J243750D01*
G01*
X90613000Y-185000750D01*
G75*
G02*
X90856750Y-184757000I243750J0D01*
G01*
X91769250Y-184757000D01*
G75*
G02*
X92013000Y-185000750I0J-243750D01*
G01*
X92013000Y-185488250D01*
G75*
G02*
X91769250Y-185732000I-243750J0D01*
G01*
G37*
G04 #@! TD.AperFunction*
G04 #@! TA.AperFunction,SMDPad,CuDef*
G36*
G01*
X47211000Y-144579000D02*
X46261000Y-144579000D01*
G75*
G02*
X46011000Y-144329000I0J250000D01*
G01*
X46011000Y-143829000D01*
G75*
G02*
X46261000Y-143579000I250000J0D01*
G01*
X47211000Y-143579000D01*
G75*
G02*
X47461000Y-143829000I0J-250000D01*
G01*
X47461000Y-144329000D01*
G75*
G02*
X47211000Y-144579000I-250000J0D01*
G01*
G37*
G04 #@! TD.AperFunction*
G04 #@! TA.AperFunction,SMDPad,CuDef*
G36*
G01*
X47211000Y-142679000D02*
X46261000Y-142679000D01*
G75*
G02*
X46011000Y-142429000I0J250000D01*
G01*
X46011000Y-141929000D01*
G75*
G02*
X46261000Y-141679000I250000J0D01*
G01*
X47211000Y-141679000D01*
G75*
G02*
X47461000Y-141929000I0J-250000D01*
G01*
X47461000Y-142429000D01*
G75*
G02*
X47211000Y-142679000I-250000J0D01*
G01*
G37*
G04 #@! TD.AperFunction*
D13*
X63683000Y-183827000D03*
D14*
X67183000Y-183827000D03*
X70683000Y-183827000D03*
D13*
X95308000Y-152217000D03*
D14*
X95308000Y-148717000D03*
X95308000Y-145217000D03*
G04 #@! TA.AperFunction,SMDPad,CuDef*
G36*
G01*
X83762000Y-177828000D02*
X82862000Y-177828000D01*
G75*
G02*
X82612000Y-177578000I0J250000D01*
G01*
X82612000Y-177053000D01*
G75*
G02*
X82862000Y-176803000I250000J0D01*
G01*
X83762000Y-176803000D01*
G75*
G02*
X84012000Y-177053000I0J-250000D01*
G01*
X84012000Y-177578000D01*
G75*
G02*
X83762000Y-177828000I-250000J0D01*
G01*
G37*
G04 #@! TD.AperFunction*
G04 #@! TA.AperFunction,SMDPad,CuDef*
G36*
G01*
X83762000Y-176003000D02*
X82862000Y-176003000D01*
G75*
G02*
X82612000Y-175753000I0J250000D01*
G01*
X82612000Y-175228000D01*
G75*
G02*
X82862000Y-174978000I250000J0D01*
G01*
X83762000Y-174978000D01*
G75*
G02*
X84012000Y-175228000I0J-250000D01*
G01*
X84012000Y-175753000D01*
G75*
G02*
X83762000Y-176003000I-250000J0D01*
G01*
G37*
G04 #@! TD.AperFunction*
D20*
X37597000Y-136525000D03*
D21*
X35057000Y-136525000D03*
D22*
X80059000Y-151668000D03*
X81159000Y-151668000D03*
X82259000Y-151668000D03*
X83359000Y-151668000D03*
X84459000Y-151668000D03*
X85559000Y-151668000D03*
X86659000Y-151668000D03*
X87759000Y-151668000D03*
X88709000Y-151668000D03*
D23*
X89659000Y-141168000D03*
D24*
X78509000Y-151668000D03*
D25*
X76159000Y-136568000D03*
D26*
X89659000Y-137018000D03*
D24*
X89659000Y-147368000D03*
G04 #@! TA.AperFunction,SMDPad,CuDef*
G36*
G01*
X30077000Y-147177000D02*
X31327000Y-147177000D01*
G75*
G02*
X31477000Y-147327000I0J-150000D01*
G01*
X31477000Y-147627000D01*
G75*
G02*
X31327000Y-147777000I-150000J0D01*
G01*
X30077000Y-147777000D01*
G75*
G02*
X29927000Y-147627000I0J150000D01*
G01*
X29927000Y-147327000D01*
G75*
G02*
X30077000Y-147177000I150000J0D01*
G01*
G37*
G04 #@! TD.AperFunction*
G04 #@! TA.AperFunction,SMDPad,CuDef*
G36*
G01*
X30077000Y-148177000D02*
X31327000Y-148177000D01*
G75*
G02*
X31477000Y-148327000I0J-150000D01*
G01*
X31477000Y-148627000D01*
G75*
G02*
X31327000Y-148777000I-150000J0D01*
G01*
X30077000Y-148777000D01*
G75*
G02*
X29927000Y-148627000I0J150000D01*
G01*
X29927000Y-148327000D01*
G75*
G02*
X30077000Y-148177000I150000J0D01*
G01*
G37*
G04 #@! TD.AperFunction*
G04 #@! TA.AperFunction,SMDPad,CuDef*
G36*
G01*
X30077000Y-149177000D02*
X31327000Y-149177000D01*
G75*
G02*
X31477000Y-149327000I0J-150000D01*
G01*
X31477000Y-149627000D01*
G75*
G02*
X31327000Y-149777000I-150000J0D01*
G01*
X30077000Y-149777000D01*
G75*
G02*
X29927000Y-149627000I0J150000D01*
G01*
X29927000Y-149327000D01*
G75*
G02*
X30077000Y-149177000I150000J0D01*
G01*
G37*
G04 #@! TD.AperFunction*
G04 #@! TA.AperFunction,SMDPad,CuDef*
G36*
G01*
X30077000Y-150177000D02*
X31327000Y-150177000D01*
G75*
G02*
X31477000Y-150327000I0J-150000D01*
G01*
X31477000Y-150627000D01*
G75*
G02*
X31327000Y-150777000I-150000J0D01*
G01*
X30077000Y-150777000D01*
G75*
G02*
X29927000Y-150627000I0J150000D01*
G01*
X29927000Y-150327000D01*
G75*
G02*
X30077000Y-150177000I150000J0D01*
G01*
G37*
G04 #@! TD.AperFunction*
G04 #@! TA.AperFunction,SMDPad,CuDef*
G36*
G01*
X26177000Y-151177000D02*
X27477000Y-151177000D01*
G75*
G02*
X27727000Y-151427000I0J-250000D01*
G01*
X27727000Y-152127000D01*
G75*
G02*
X27477000Y-152377000I-250000J0D01*
G01*
X26177000Y-152377000D01*
G75*
G02*
X25927000Y-152127000I0J250000D01*
G01*
X25927000Y-151427000D01*
G75*
G02*
X26177000Y-151177000I250000J0D01*
G01*
G37*
G04 #@! TD.AperFunction*
G04 #@! TA.AperFunction,SMDPad,CuDef*
G36*
G01*
X26177000Y-145577000D02*
X27477000Y-145577000D01*
G75*
G02*
X27727000Y-145827000I0J-250000D01*
G01*
X27727000Y-146527000D01*
G75*
G02*
X27477000Y-146777000I-250000J0D01*
G01*
X26177000Y-146777000D01*
G75*
G02*
X25927000Y-146527000I0J250000D01*
G01*
X25927000Y-145827000D01*
G75*
G02*
X26177000Y-145577000I250000J0D01*
G01*
G37*
G04 #@! TD.AperFunction*
G04 #@! TA.AperFunction,SMDPad,CuDef*
G36*
G01*
X49436000Y-161110000D02*
X50386000Y-161110000D01*
G75*
G02*
X50636000Y-161360000I0J-250000D01*
G01*
X50636000Y-161860000D01*
G75*
G02*
X50386000Y-162110000I-250000J0D01*
G01*
X49436000Y-162110000D01*
G75*
G02*
X49186000Y-161860000I0J250000D01*
G01*
X49186000Y-161360000D01*
G75*
G02*
X49436000Y-161110000I250000J0D01*
G01*
G37*
G04 #@! TD.AperFunction*
G04 #@! TA.AperFunction,SMDPad,CuDef*
G36*
G01*
X49436000Y-163010000D02*
X50386000Y-163010000D01*
G75*
G02*
X50636000Y-163260000I0J-250000D01*
G01*
X50636000Y-163760000D01*
G75*
G02*
X50386000Y-164010000I-250000J0D01*
G01*
X49436000Y-164010000D01*
G75*
G02*
X49186000Y-163760000I0J250000D01*
G01*
X49186000Y-163260000D01*
G75*
G02*
X49436000Y-163010000I250000J0D01*
G01*
G37*
G04 #@! TD.AperFunction*
D20*
X77348000Y-159766000D03*
D21*
X74808000Y-159766000D03*
G04 #@! TA.AperFunction,SMDPad,CuDef*
G36*
G01*
X40800000Y-161110000D02*
X41750000Y-161110000D01*
G75*
G02*
X42000000Y-161360000I0J-250000D01*
G01*
X42000000Y-161860000D01*
G75*
G02*
X41750000Y-162110000I-250000J0D01*
G01*
X40800000Y-162110000D01*
G75*
G02*
X40550000Y-161860000I0J250000D01*
G01*
X40550000Y-161360000D01*
G75*
G02*
X40800000Y-161110000I250000J0D01*
G01*
G37*
G04 #@! TD.AperFunction*
G04 #@! TA.AperFunction,SMDPad,CuDef*
G36*
G01*
X40800000Y-163010000D02*
X41750000Y-163010000D01*
G75*
G02*
X42000000Y-163260000I0J-250000D01*
G01*
X42000000Y-163760000D01*
G75*
G02*
X41750000Y-164010000I-250000J0D01*
G01*
X40800000Y-164010000D01*
G75*
G02*
X40550000Y-163760000I0J250000D01*
G01*
X40550000Y-163260000D01*
G75*
G02*
X40800000Y-163010000I250000J0D01*
G01*
G37*
G04 #@! TD.AperFunction*
D27*
X34429000Y-160828000D03*
X34429000Y-161628000D03*
X34429000Y-162428000D03*
X34429000Y-163228000D03*
X34429000Y-164028000D03*
D28*
X34329000Y-166878000D03*
X28829000Y-157978000D03*
X34329000Y-157978000D03*
X28829000Y-166878000D03*
G04 #@! TA.AperFunction,SMDPad,CuDef*
G36*
G01*
X74491000Y-177828000D02*
X73591000Y-177828000D01*
G75*
G02*
X73341000Y-177578000I0J250000D01*
G01*
X73341000Y-177053000D01*
G75*
G02*
X73591000Y-176803000I250000J0D01*
G01*
X74491000Y-176803000D01*
G75*
G02*
X74741000Y-177053000I0J-250000D01*
G01*
X74741000Y-177578000D01*
G75*
G02*
X74491000Y-177828000I-250000J0D01*
G01*
G37*
G04 #@! TD.AperFunction*
G04 #@! TA.AperFunction,SMDPad,CuDef*
G36*
G01*
X74491000Y-176003000D02*
X73591000Y-176003000D01*
G75*
G02*
X73341000Y-175753000I0J250000D01*
G01*
X73341000Y-175228000D01*
G75*
G02*
X73591000Y-174978000I250000J0D01*
G01*
X74491000Y-174978000D01*
G75*
G02*
X74741000Y-175228000I0J-250000D01*
G01*
X74741000Y-175753000D01*
G75*
G02*
X74491000Y-176003000I-250000J0D01*
G01*
G37*
G04 #@! TD.AperFunction*
G04 #@! TA.AperFunction,SMDPad,CuDef*
G36*
G01*
X43781000Y-182725000D02*
X44681000Y-182725000D01*
G75*
G02*
X44931000Y-182975000I0J-250000D01*
G01*
X44931000Y-183500000D01*
G75*
G02*
X44681000Y-183750000I-250000J0D01*
G01*
X43781000Y-183750000D01*
G75*
G02*
X43531000Y-183500000I0J250000D01*
G01*
X43531000Y-182975000D01*
G75*
G02*
X43781000Y-182725000I250000J0D01*
G01*
G37*
G04 #@! TD.AperFunction*
G04 #@! TA.AperFunction,SMDPad,CuDef*
G36*
G01*
X43781000Y-184550000D02*
X44681000Y-184550000D01*
G75*
G02*
X44931000Y-184800000I0J-250000D01*
G01*
X44931000Y-185325000D01*
G75*
G02*
X44681000Y-185575000I-250000J0D01*
G01*
X43781000Y-185575000D01*
G75*
G02*
X43531000Y-185325000I0J250000D01*
G01*
X43531000Y-184800000D01*
G75*
G02*
X43781000Y-184550000I250000J0D01*
G01*
G37*
G04 #@! TD.AperFunction*
G04 #@! TA.AperFunction,SMDPad,CuDef*
G36*
G01*
X77285000Y-177828000D02*
X76385000Y-177828000D01*
G75*
G02*
X76135000Y-177578000I0J250000D01*
G01*
X76135000Y-177053000D01*
G75*
G02*
X76385000Y-176803000I250000J0D01*
G01*
X77285000Y-176803000D01*
G75*
G02*
X77535000Y-177053000I0J-250000D01*
G01*
X77535000Y-177578000D01*
G75*
G02*
X77285000Y-177828000I-250000J0D01*
G01*
G37*
G04 #@! TD.AperFunction*
G04 #@! TA.AperFunction,SMDPad,CuDef*
G36*
G01*
X77285000Y-176003000D02*
X76385000Y-176003000D01*
G75*
G02*
X76135000Y-175753000I0J250000D01*
G01*
X76135000Y-175228000D01*
G75*
G02*
X76385000Y-174978000I250000J0D01*
G01*
X77285000Y-174978000D01*
G75*
G02*
X77535000Y-175228000I0J-250000D01*
G01*
X77535000Y-175753000D01*
G75*
G02*
X77285000Y-176003000I-250000J0D01*
G01*
G37*
G04 #@! TD.AperFunction*
G04 #@! TA.AperFunction,SMDPad,CuDef*
G36*
G01*
X87705250Y-187607000D02*
X86792750Y-187607000D01*
G75*
G02*
X86549000Y-187363250I0J243750D01*
G01*
X86549000Y-186875750D01*
G75*
G02*
X86792750Y-186632000I243750J0D01*
G01*
X87705250Y-186632000D01*
G75*
G02*
X87949000Y-186875750I0J-243750D01*
G01*
X87949000Y-187363250D01*
G75*
G02*
X87705250Y-187607000I-243750J0D01*
G01*
G37*
G04 #@! TD.AperFunction*
G04 #@! TA.AperFunction,SMDPad,CuDef*
G36*
G01*
X87705250Y-185732000D02*
X86792750Y-185732000D01*
G75*
G02*
X86549000Y-185488250I0J243750D01*
G01*
X86549000Y-185000750D01*
G75*
G02*
X86792750Y-184757000I243750J0D01*
G01*
X87705250Y-184757000D01*
G75*
G02*
X87949000Y-185000750I0J-243750D01*
G01*
X87949000Y-185488250D01*
G75*
G02*
X87705250Y-185732000I-243750J0D01*
G01*
G37*
G04 #@! TD.AperFunction*
D18*
X29718000Y-187452000D03*
D29*
X45211000Y-166624000D03*
X41911000Y-166624000D03*
G04 #@! TA.AperFunction,SMDPad,CuDef*
G36*
G01*
X83035000Y-155669000D02*
X83035000Y-154719000D01*
G75*
G02*
X83285000Y-154469000I250000J0D01*
G01*
X83785000Y-154469000D01*
G75*
G02*
X84035000Y-154719000I0J-250000D01*
G01*
X84035000Y-155669000D01*
G75*
G02*
X83785000Y-155919000I-250000J0D01*
G01*
X83285000Y-155919000D01*
G75*
G02*
X83035000Y-155669000I0J250000D01*
G01*
G37*
G04 #@! TD.AperFunction*
G04 #@! TA.AperFunction,SMDPad,CuDef*
G36*
G01*
X84935000Y-155669000D02*
X84935000Y-154719000D01*
G75*
G02*
X85185000Y-154469000I250000J0D01*
G01*
X85685000Y-154469000D01*
G75*
G02*
X85935000Y-154719000I0J-250000D01*
G01*
X85935000Y-155669000D01*
G75*
G02*
X85685000Y-155919000I-250000J0D01*
G01*
X85185000Y-155919000D01*
G75*
G02*
X84935000Y-155669000I0J250000D01*
G01*
G37*
G04 #@! TD.AperFunction*
G04 #@! TA.AperFunction,SMDPad,CuDef*
G36*
G01*
X44646000Y-163985000D02*
X43746000Y-163985000D01*
G75*
G02*
X43496000Y-163735000I0J250000D01*
G01*
X43496000Y-163210000D01*
G75*
G02*
X43746000Y-162960000I250000J0D01*
G01*
X44646000Y-162960000D01*
G75*
G02*
X44896000Y-163210000I0J-250000D01*
G01*
X44896000Y-163735000D01*
G75*
G02*
X44646000Y-163985000I-250000J0D01*
G01*
G37*
G04 #@! TD.AperFunction*
G04 #@! TA.AperFunction,SMDPad,CuDef*
G36*
G01*
X44646000Y-162160000D02*
X43746000Y-162160000D01*
G75*
G02*
X43496000Y-161910000I0J250000D01*
G01*
X43496000Y-161385000D01*
G75*
G02*
X43746000Y-161135000I250000J0D01*
G01*
X44646000Y-161135000D01*
G75*
G02*
X44896000Y-161385000I0J-250000D01*
G01*
X44896000Y-161910000D01*
G75*
G02*
X44646000Y-162160000I-250000J0D01*
G01*
G37*
G04 #@! TD.AperFunction*
D18*
X29718000Y-138938000D03*
G04 #@! TA.AperFunction,SMDPad,CuDef*
G36*
G01*
X70645000Y-174953000D02*
X71595000Y-174953000D01*
G75*
G02*
X71845000Y-175203000I0J-250000D01*
G01*
X71845000Y-175703000D01*
G75*
G02*
X71595000Y-175953000I-250000J0D01*
G01*
X70645000Y-175953000D01*
G75*
G02*
X70395000Y-175703000I0J250000D01*
G01*
X70395000Y-175203000D01*
G75*
G02*
X70645000Y-174953000I250000J0D01*
G01*
G37*
G04 #@! TD.AperFunction*
G04 #@! TA.AperFunction,SMDPad,CuDef*
G36*
G01*
X70645000Y-176853000D02*
X71595000Y-176853000D01*
G75*
G02*
X71845000Y-177103000I0J-250000D01*
G01*
X71845000Y-177603000D01*
G75*
G02*
X71595000Y-177853000I-250000J0D01*
G01*
X70645000Y-177853000D01*
G75*
G02*
X70395000Y-177603000I0J250000D01*
G01*
X70395000Y-177103000D01*
G75*
G02*
X70645000Y-176853000I250000J0D01*
G01*
G37*
G04 #@! TD.AperFunction*
G04 #@! TA.AperFunction,SMDPad,CuDef*
G36*
G01*
X79281000Y-175014000D02*
X80231000Y-175014000D01*
G75*
G02*
X80481000Y-175264000I0J-250000D01*
G01*
X80481000Y-175764000D01*
G75*
G02*
X80231000Y-176014000I-250000J0D01*
G01*
X79281000Y-176014000D01*
G75*
G02*
X79031000Y-175764000I0J250000D01*
G01*
X79031000Y-175264000D01*
G75*
G02*
X79281000Y-175014000I250000J0D01*
G01*
G37*
G04 #@! TD.AperFunction*
G04 #@! TA.AperFunction,SMDPad,CuDef*
G36*
G01*
X79281000Y-176914000D02*
X80231000Y-176914000D01*
G75*
G02*
X80481000Y-177164000I0J-250000D01*
G01*
X80481000Y-177664000D01*
G75*
G02*
X80231000Y-177914000I-250000J0D01*
G01*
X79281000Y-177914000D01*
G75*
G02*
X79031000Y-177664000I0J250000D01*
G01*
X79031000Y-177164000D01*
G75*
G02*
X79281000Y-176914000I250000J0D01*
G01*
G37*
G04 #@! TD.AperFunction*
G04 #@! TA.AperFunction,SMDPad,CuDef*
G36*
G01*
X46200000Y-138626000D02*
X46200000Y-137726000D01*
G75*
G02*
X46450000Y-137476000I250000J0D01*
G01*
X46975000Y-137476000D01*
G75*
G02*
X47225000Y-137726000I0J-250000D01*
G01*
X47225000Y-138626000D01*
G75*
G02*
X46975000Y-138876000I-250000J0D01*
G01*
X46450000Y-138876000D01*
G75*
G02*
X46200000Y-138626000I0J250000D01*
G01*
G37*
G04 #@! TD.AperFunction*
G04 #@! TA.AperFunction,SMDPad,CuDef*
G36*
G01*
X48025000Y-138626000D02*
X48025000Y-137726000D01*
G75*
G02*
X48275000Y-137476000I250000J0D01*
G01*
X48800000Y-137476000D01*
G75*
G02*
X49050000Y-137726000I0J-250000D01*
G01*
X49050000Y-138626000D01*
G75*
G02*
X48800000Y-138876000I-250000J0D01*
G01*
X48275000Y-138876000D01*
G75*
G02*
X48025000Y-138626000I0J250000D01*
G01*
G37*
G04 #@! TD.AperFunction*
G04 #@! TA.AperFunction,SMDPad,CuDef*
G36*
G01*
X64229000Y-174805000D02*
X63279000Y-174805000D01*
G75*
G02*
X63029000Y-174555000I0J250000D01*
G01*
X63029000Y-174055000D01*
G75*
G02*
X63279000Y-173805000I250000J0D01*
G01*
X64229000Y-173805000D01*
G75*
G02*
X64479000Y-174055000I0J-250000D01*
G01*
X64479000Y-174555000D01*
G75*
G02*
X64229000Y-174805000I-250000J0D01*
G01*
G37*
G04 #@! TD.AperFunction*
G04 #@! TA.AperFunction,SMDPad,CuDef*
G36*
G01*
X64229000Y-172905000D02*
X63279000Y-172905000D01*
G75*
G02*
X63029000Y-172655000I0J250000D01*
G01*
X63029000Y-172155000D01*
G75*
G02*
X63279000Y-171905000I250000J0D01*
G01*
X64229000Y-171905000D01*
G75*
G02*
X64479000Y-172155000I0J-250000D01*
G01*
X64479000Y-172655000D01*
G75*
G02*
X64229000Y-172905000I-250000J0D01*
G01*
G37*
G04 #@! TD.AperFunction*
G04 #@! TA.AperFunction,SMDPad,CuDef*
G36*
G01*
X47440000Y-163985000D02*
X46540000Y-163985000D01*
G75*
G02*
X46290000Y-163735000I0J250000D01*
G01*
X46290000Y-163210000D01*
G75*
G02*
X46540000Y-162960000I250000J0D01*
G01*
X47440000Y-162960000D01*
G75*
G02*
X47690000Y-163210000I0J-250000D01*
G01*
X47690000Y-163735000D01*
G75*
G02*
X47440000Y-163985000I-250000J0D01*
G01*
G37*
G04 #@! TD.AperFunction*
G04 #@! TA.AperFunction,SMDPad,CuDef*
G36*
G01*
X47440000Y-162160000D02*
X46540000Y-162160000D01*
G75*
G02*
X46290000Y-161910000I0J250000D01*
G01*
X46290000Y-161385000D01*
G75*
G02*
X46540000Y-161135000I250000J0D01*
G01*
X47440000Y-161135000D01*
G75*
G02*
X47690000Y-161385000I0J-250000D01*
G01*
X47690000Y-161910000D01*
G75*
G02*
X47440000Y-162160000I-250000J0D01*
G01*
G37*
G04 #@! TD.AperFunction*
G04 #@! TA.AperFunction,SMDPad,CuDef*
G36*
G01*
X43057500Y-141155000D02*
X43057500Y-142055000D01*
G75*
G02*
X42807500Y-142305000I-250000J0D01*
G01*
X42282500Y-142305000D01*
G75*
G02*
X42032500Y-142055000I0J250000D01*
G01*
X42032500Y-141155000D01*
G75*
G02*
X42282500Y-140905000I250000J0D01*
G01*
X42807500Y-140905000D01*
G75*
G02*
X43057500Y-141155000I0J-250000D01*
G01*
G37*
G04 #@! TD.AperFunction*
G04 #@! TA.AperFunction,SMDPad,CuDef*
G36*
G01*
X41232500Y-141155000D02*
X41232500Y-142055000D01*
G75*
G02*
X40982500Y-142305000I-250000J0D01*
G01*
X40457500Y-142305000D01*
G75*
G02*
X40207500Y-142055000I0J250000D01*
G01*
X40207500Y-141155000D01*
G75*
G02*
X40457500Y-140905000I250000J0D01*
G01*
X40982500Y-140905000D01*
G75*
G02*
X41232500Y-141155000I0J-250000D01*
G01*
G37*
G04 #@! TD.AperFunction*
D12*
X92873000Y-166418500D03*
X92873000Y-157318500D03*
X97373000Y-166418500D03*
X97373000Y-157318500D03*
G04 #@! TA.AperFunction,SMDPad,CuDef*
G36*
G01*
X57330000Y-166530000D02*
X57330000Y-167480000D01*
G75*
G02*
X57080000Y-167730000I-250000J0D01*
G01*
X56580000Y-167730000D01*
G75*
G02*
X56330000Y-167480000I0J250000D01*
G01*
X56330000Y-166530000D01*
G75*
G02*
X56580000Y-166280000I250000J0D01*
G01*
X57080000Y-166280000D01*
G75*
G02*
X57330000Y-166530000I0J-250000D01*
G01*
G37*
G04 #@! TD.AperFunction*
G04 #@! TA.AperFunction,SMDPad,CuDef*
G36*
G01*
X55430000Y-166530000D02*
X55430000Y-167480000D01*
G75*
G02*
X55180000Y-167730000I-250000J0D01*
G01*
X54680000Y-167730000D01*
G75*
G02*
X54430000Y-167480000I0J250000D01*
G01*
X54430000Y-166530000D01*
G75*
G02*
X54680000Y-166280000I250000J0D01*
G01*
X55180000Y-166280000D01*
G75*
G02*
X55430000Y-166530000I0J-250000D01*
G01*
G37*
G04 #@! TD.AperFunction*
D30*
X38265801Y-149136801D03*
X38265801Y-148636800D03*
X38265801Y-148136800D03*
X38265801Y-147636799D03*
D31*
X37568002Y-146939000D03*
X37068001Y-146939000D03*
X36568001Y-146939000D03*
X36068000Y-146939000D03*
D30*
X35370201Y-147636799D03*
X35370201Y-148136800D03*
X35370201Y-148636800D03*
X35370201Y-149136801D03*
D31*
X36068000Y-149834600D03*
X36568001Y-149834600D03*
X37068001Y-149834600D03*
X37568002Y-149834600D03*
D32*
X36818001Y-148386800D03*
G04 #@! TA.AperFunction,SMDPad,CuDef*
G36*
G01*
X35876001Y-142080000D02*
X35876001Y-141130000D01*
G75*
G02*
X36126001Y-140880000I250000J0D01*
G01*
X36626001Y-140880000D01*
G75*
G02*
X36876001Y-141130000I0J-250000D01*
G01*
X36876001Y-142080000D01*
G75*
G02*
X36626001Y-142330000I-250000J0D01*
G01*
X36126001Y-142330000D01*
G75*
G02*
X35876001Y-142080000I0J250000D01*
G01*
G37*
G04 #@! TD.AperFunction*
G04 #@! TA.AperFunction,SMDPad,CuDef*
G36*
G01*
X37776001Y-142080000D02*
X37776001Y-141130000D01*
G75*
G02*
X38026001Y-140880000I250000J0D01*
G01*
X38526001Y-140880000D01*
G75*
G02*
X38776001Y-141130000I0J-250000D01*
G01*
X38776001Y-142080000D01*
G75*
G02*
X38526001Y-142330000I-250000J0D01*
G01*
X38026001Y-142330000D01*
G75*
G02*
X37776001Y-142080000I0J250000D01*
G01*
G37*
G04 #@! TD.AperFunction*
G04 #@! TA.AperFunction,SMDPad,CuDef*
G36*
G01*
X88928000Y-158681000D02*
X88928000Y-159581000D01*
G75*
G02*
X88678000Y-159831000I-250000J0D01*
G01*
X88153000Y-159831000D01*
G75*
G02*
X87903000Y-159581000I0J250000D01*
G01*
X87903000Y-158681000D01*
G75*
G02*
X88153000Y-158431000I250000J0D01*
G01*
X88678000Y-158431000D01*
G75*
G02*
X88928000Y-158681000I0J-250000D01*
G01*
G37*
G04 #@! TD.AperFunction*
G04 #@! TA.AperFunction,SMDPad,CuDef*
G36*
G01*
X87103000Y-158681000D02*
X87103000Y-159581000D01*
G75*
G02*
X86853000Y-159831000I-250000J0D01*
G01*
X86328000Y-159831000D01*
G75*
G02*
X86078000Y-159581000I0J250000D01*
G01*
X86078000Y-158681000D01*
G75*
G02*
X86328000Y-158431000I250000J0D01*
G01*
X86853000Y-158431000D01*
G75*
G02*
X87103000Y-158681000I0J-250000D01*
G01*
G37*
G04 #@! TD.AperFunction*
D29*
X45211000Y-169926000D03*
X41911000Y-169926000D03*
D13*
X75367000Y-183827000D03*
D14*
X78867000Y-183827000D03*
X82367000Y-183827000D03*
G04 #@! TA.AperFunction,SMDPad,CuDef*
G36*
G01*
X43614000Y-137701000D02*
X43614000Y-138651000D01*
G75*
G02*
X43364000Y-138901000I-250000J0D01*
G01*
X42864000Y-138901000D01*
G75*
G02*
X42614000Y-138651000I0J250000D01*
G01*
X42614000Y-137701000D01*
G75*
G02*
X42864000Y-137451000I250000J0D01*
G01*
X43364000Y-137451000D01*
G75*
G02*
X43614000Y-137701000I0J-250000D01*
G01*
G37*
G04 #@! TD.AperFunction*
G04 #@! TA.AperFunction,SMDPad,CuDef*
G36*
G01*
X41714000Y-137701000D02*
X41714000Y-138651000D01*
G75*
G02*
X41464000Y-138901000I-250000J0D01*
G01*
X40964000Y-138901000D01*
G75*
G02*
X40714000Y-138651000I0J250000D01*
G01*
X40714000Y-137701000D01*
G75*
G02*
X40964000Y-137451000I250000J0D01*
G01*
X41464000Y-137451000D01*
G75*
G02*
X41714000Y-137701000I0J-250000D01*
G01*
G37*
G04 #@! TD.AperFunction*
G04 #@! TA.AperFunction,SMDPad,CuDef*
G36*
G01*
X44168000Y-188289250D02*
X44168000Y-187376750D01*
G75*
G02*
X44411750Y-187133000I243750J0D01*
G01*
X44899250Y-187133000D01*
G75*
G02*
X45143000Y-187376750I0J-243750D01*
G01*
X45143000Y-188289250D01*
G75*
G02*
X44899250Y-188533000I-243750J0D01*
G01*
X44411750Y-188533000D01*
G75*
G02*
X44168000Y-188289250I0J243750D01*
G01*
G37*
G04 #@! TD.AperFunction*
G04 #@! TA.AperFunction,SMDPad,CuDef*
G36*
G01*
X46043000Y-188289250D02*
X46043000Y-187376750D01*
G75*
G02*
X46286750Y-187133000I243750J0D01*
G01*
X46774250Y-187133000D01*
G75*
G02*
X47018000Y-187376750I0J-243750D01*
G01*
X47018000Y-188289250D01*
G75*
G02*
X46774250Y-188533000I-243750J0D01*
G01*
X46286750Y-188533000D01*
G75*
G02*
X46043000Y-188289250I0J243750D01*
G01*
G37*
G04 #@! TD.AperFunction*
D20*
X39116000Y-154813000D03*
D21*
X41656000Y-154813000D03*
X44196000Y-154813000D03*
X46736000Y-154813000D03*
X49276000Y-154813000D03*
D33*
X80645000Y-179832000D03*
X39497000Y-144780000D03*
X66040000Y-171069000D03*
X51054000Y-172847000D03*
X70231000Y-179832000D03*
X40767000Y-179832000D03*
X62230000Y-147574000D03*
X41656000Y-178943000D03*
X33401000Y-148844000D03*
X46101000Y-178943000D03*
X58166000Y-148717000D03*
X72009000Y-179832000D03*
X52832000Y-172847000D03*
X50038000Y-140843000D03*
X40767000Y-178943000D03*
X80772000Y-158369000D03*
X46101000Y-179832000D03*
X51435000Y-163576000D03*
X85559000Y-153924000D03*
X90043000Y-153162000D03*
X67056000Y-171069000D03*
X89027000Y-167640000D03*
X58166000Y-150114000D03*
X40767000Y-178054000D03*
X47371000Y-140843000D03*
X45212000Y-178054000D03*
X63500000Y-148717000D03*
X46101000Y-178054000D03*
X46482000Y-140843000D03*
X63373000Y-171069000D03*
X51943000Y-172847000D03*
X59436000Y-147574000D03*
X39751000Y-163576000D03*
X89027000Y-168402000D03*
X52197000Y-163576000D03*
X65151000Y-170815000D03*
X52324000Y-171831000D03*
X62230000Y-152781000D03*
X39497000Y-143891000D03*
X80772000Y-159893000D03*
X79756000Y-179832000D03*
X38608000Y-143002000D03*
X39497000Y-141224000D03*
X44577000Y-186436000D03*
X40386000Y-147955000D03*
X80772000Y-162560000D03*
X60833000Y-147574000D03*
X60833000Y-152781000D03*
X80772000Y-163322000D03*
X39497000Y-142113000D03*
X78613000Y-153289000D03*
X80772000Y-159131000D03*
X59436000Y-152781000D03*
X81534000Y-179832000D03*
X89281000Y-187071000D03*
X41656000Y-178054000D03*
X45212000Y-178943000D03*
X80772000Y-164084000D03*
X65151000Y-172593000D03*
X65151000Y-171704000D03*
X48260000Y-140843000D03*
X73533000Y-142494000D03*
X39497000Y-143002000D03*
X39624000Y-147955000D03*
X35201000Y-168778000D03*
X85559000Y-153156000D03*
X45212000Y-179832000D03*
X64262000Y-171069000D03*
X34163000Y-148844000D03*
X89281000Y-153416000D03*
X38989000Y-163576000D03*
X63500000Y-151511000D03*
X52324000Y-170815000D03*
X58166000Y-151511000D03*
X49149000Y-140843000D03*
X63500000Y-150114000D03*
X72771000Y-142494000D03*
X71120000Y-179832000D03*
X40386000Y-143002000D03*
X41656000Y-179832000D03*
X35201000Y-156078000D03*
X62103000Y-176149000D03*
X61087000Y-174371000D03*
X35814000Y-138811000D03*
X44958000Y-139573000D03*
X62103000Y-177927000D03*
X62103000Y-177038000D03*
X61087000Y-175260000D03*
X36703000Y-138811000D03*
X61087000Y-177927000D03*
X61087000Y-177038000D03*
X62103000Y-175260000D03*
X35814000Y-139573000D03*
X83359000Y-153578000D03*
X36703000Y-139573000D03*
X61087000Y-176149000D03*
X44958000Y-138811000D03*
X62103000Y-174371000D03*
X74041000Y-178435000D03*
X43307000Y-146812000D03*
X41910000Y-146812000D03*
X76835000Y-178435000D03*
X26416000Y-154051000D03*
X35306000Y-186182000D03*
X34671000Y-185547000D03*
X27051000Y-154813000D03*
X56642000Y-158877000D03*
X56642000Y-161544000D03*
X90424000Y-155448000D03*
X68453000Y-172720000D03*
X90424000Y-154432000D03*
X69088000Y-172212000D03*
D34*
X48900500Y-168717000D02*
X47178000Y-168717000D01*
X48900500Y-167767000D02*
X47117000Y-167767000D01*
D35*
X49149000Y-180977000D02*
X49149000Y-176276000D01*
X58999000Y-183827000D02*
X51999000Y-183827000D01*
X51999000Y-183827000D02*
X49149000Y-180977000D01*
X33401000Y-148844000D02*
X34163000Y-148844000D01*
X53607000Y-142445000D02*
X51386000Y-142445000D01*
D34*
X51175500Y-170301500D02*
X51181000Y-170307000D01*
D35*
X97210000Y-168885000D02*
X97210000Y-157238500D01*
D34*
X38265801Y-148136800D02*
X38934200Y-148136800D01*
X33989200Y-148636800D02*
X33782000Y-148844000D01*
D36*
X44577000Y-186436000D02*
X44577000Y-187754500D01*
D35*
X96393000Y-143002000D02*
X93980000Y-143002000D01*
X97210000Y-180619000D02*
X97210000Y-168885000D01*
X93980000Y-143002000D02*
X90424000Y-143002000D01*
X52197000Y-163576000D02*
X49977000Y-163576000D01*
D37*
X85559000Y-151668000D02*
X85559000Y-153156000D01*
D34*
X35057000Y-136525000D02*
X36581000Y-138049000D01*
X36814001Y-148636800D02*
X36818001Y-148640800D01*
X89281000Y-187071000D02*
X87297500Y-187071000D01*
X38934200Y-148136800D02*
X39116000Y-147955000D01*
D35*
X97536000Y-144780000D02*
X97536000Y-144145000D01*
D34*
X38265801Y-148136800D02*
X36822001Y-148136800D01*
X87297500Y-187071000D02*
X87249000Y-187119500D01*
D35*
X51386000Y-142445000D02*
X51120000Y-142179000D01*
X89027000Y-168402000D02*
X89027000Y-167640000D01*
D34*
X89281000Y-187071000D02*
X91264500Y-187071000D01*
X36581000Y-138049000D02*
X41087000Y-138049000D01*
D35*
X97536000Y-146489000D02*
X97536000Y-144780000D01*
D34*
X39116000Y-147955000D02*
X40386000Y-147955000D01*
X91264500Y-187071000D02*
X91313000Y-187119500D01*
D35*
X89027000Y-168402000D02*
X89662000Y-169037000D01*
X97536000Y-144145000D02*
X96520000Y-143129000D01*
D34*
X35370201Y-148636800D02*
X33989200Y-148636800D01*
D35*
X89662000Y-169037000D02*
X97138007Y-169037000D01*
D37*
X85559000Y-153156000D02*
X85559000Y-153924000D01*
X85559000Y-153924000D02*
X85559000Y-155249000D01*
D34*
X51175500Y-168717000D02*
X51175500Y-170301500D01*
D35*
X71156000Y-142494000D02*
X71107000Y-142445000D01*
X38989000Y-163576000D02*
X41209000Y-163576000D01*
X51120000Y-142179000D02*
X46736000Y-142179000D01*
X96520000Y-143129000D02*
X96393000Y-143002000D01*
D34*
X78613000Y-153289000D02*
X78613000Y-152273000D01*
X37068001Y-149834600D02*
X37068001Y-148517800D01*
X35370201Y-148636800D02*
X36814001Y-148636800D01*
D35*
X95308000Y-148717000D02*
X97536000Y-146489000D01*
D34*
X97138000Y-168957000D02*
X97210000Y-168885000D01*
D35*
X73533000Y-142494000D02*
X71156000Y-142494000D01*
D37*
X51175500Y-167767000D02*
X52705000Y-167767000D01*
D34*
X56830000Y-167005000D02*
X57785000Y-167005000D01*
X58293000Y-167513000D02*
X58293000Y-170942000D01*
D37*
X55232300Y-170294300D02*
X57023000Y-170294300D01*
D34*
X57785000Y-167005000D02*
X58293000Y-167513000D01*
D37*
X52705000Y-167767000D02*
X55232300Y-170294300D01*
D34*
X51175500Y-166817000D02*
X54742000Y-166817000D01*
X54742000Y-166817000D02*
X54930000Y-167005000D01*
D37*
X38100000Y-188341000D02*
X37473000Y-187714000D01*
D34*
X42672000Y-185420000D02*
X42672000Y-188214000D01*
D35*
X51120000Y-144079000D02*
X46736000Y-144079000D01*
D34*
X36068000Y-146939000D02*
X36068000Y-145731799D01*
X44231000Y-185062500D02*
X43029500Y-185062500D01*
X47117000Y-185062500D02*
X44231000Y-185062500D01*
D37*
X42545000Y-188341000D02*
X43307000Y-189103000D01*
X60515500Y-187198000D02*
X61722000Y-185991500D01*
X49657000Y-187198000D02*
X60515500Y-187198000D01*
D34*
X48537500Y-139295500D02*
X48260000Y-139573000D01*
X36322000Y-140081000D02*
X40386000Y-140081000D01*
D37*
X61722000Y-185991500D02*
X61722000Y-178562000D01*
X42545000Y-188341000D02*
X38100000Y-188341000D01*
D34*
X40720000Y-140415000D02*
X40720000Y-141605000D01*
D35*
X53607000Y-143715000D02*
X51484000Y-143715000D01*
D34*
X36568001Y-146939000D02*
X36568001Y-145723800D01*
X60579000Y-168402000D02*
X60579000Y-175133000D01*
D35*
X45527000Y-144079000D02*
X46736000Y-144079000D01*
D37*
X83359000Y-153578000D02*
X83359000Y-155451000D01*
D34*
X48900500Y-165983500D02*
X49403000Y-165481000D01*
X43029500Y-185062500D02*
X42672000Y-185420000D01*
X51943000Y-177268500D02*
X54967500Y-177268500D01*
D35*
X44958000Y-143510000D02*
X45527000Y-144079000D01*
D34*
X59575700Y-174879000D02*
X58928000Y-175526700D01*
X40386000Y-140081000D02*
X40720000Y-140415000D01*
D37*
X37473000Y-187714000D02*
X37473000Y-186468000D01*
X43307000Y-189103000D02*
X47752000Y-189103000D01*
X47752000Y-189103000D02*
X49657000Y-187198000D01*
D34*
X49403000Y-165481000D02*
X57658000Y-165481000D01*
D35*
X51484000Y-143715000D02*
X51120000Y-144079000D01*
D34*
X48260000Y-139573000D02*
X44958000Y-139573000D01*
X57658000Y-165481000D02*
X60579000Y-168402000D01*
X42672000Y-188214000D02*
X42545000Y-188341000D01*
X48537500Y-138176000D02*
X48537500Y-139295500D01*
X48900500Y-166817000D02*
X48900500Y-165983500D01*
D35*
X44958000Y-138811000D02*
X44958000Y-143510000D01*
D37*
X83359000Y-151668000D02*
X83359000Y-153578000D01*
D34*
X76835000Y-168529000D02*
X76835000Y-174982500D01*
X79756000Y-175514000D02*
X76858500Y-175514000D01*
X59182000Y-161798000D02*
X64262000Y-166878000D01*
X59182000Y-160205000D02*
X59182000Y-161798000D01*
X75184000Y-166878000D02*
X76835000Y-168529000D01*
X64262000Y-166878000D02*
X75184000Y-166878000D01*
X74041000Y-175490500D02*
X71157500Y-175490500D01*
X63500000Y-167386000D02*
X72898000Y-167386000D01*
X57912000Y-160205000D02*
X57912000Y-161798000D01*
X74041000Y-168529000D02*
X74041000Y-174982500D01*
X57912000Y-161798000D02*
X63500000Y-167386000D01*
X72898000Y-167386000D02*
X74041000Y-168529000D01*
X49022000Y-186563000D02*
X47752000Y-187833000D01*
X60198000Y-186563000D02*
X49022000Y-186563000D01*
X60960000Y-180213000D02*
X60960000Y-185801000D01*
X47752000Y-187833000D02*
X46657500Y-187833000D01*
X60960000Y-185801000D02*
X60198000Y-186563000D01*
X59840500Y-179093500D02*
X60960000Y-180213000D01*
X51943000Y-179093500D02*
X59840500Y-179093500D01*
X83312000Y-178689000D02*
X83312000Y-176807500D01*
X87249000Y-182626000D02*
X83312000Y-178689000D01*
X87249000Y-185244500D02*
X87249000Y-182626000D01*
X91313000Y-183769000D02*
X86233000Y-178689000D01*
X91313000Y-185244500D02*
X91313000Y-183769000D01*
X86233000Y-178689000D02*
X86233000Y-176784000D01*
X74041000Y-177315500D02*
X74041000Y-178435000D01*
X64262000Y-161798000D02*
X67310000Y-164846000D01*
X85217000Y-160020000D02*
X85217000Y-159131000D01*
X77152500Y-164846000D02*
X81470500Y-160528000D01*
X81470500Y-160528000D02*
X84709000Y-160528000D01*
X67310000Y-164846000D02*
X77152500Y-164846000D01*
X86590500Y-159131000D02*
X83881000Y-159131000D01*
X64262000Y-160205000D02*
X64262000Y-161798000D01*
X84709000Y-160528000D02*
X85217000Y-160020000D01*
X66548000Y-165354000D02*
X83058000Y-165354000D01*
X86590500Y-162052000D02*
X83881000Y-162052000D01*
X83058000Y-165354000D02*
X83881000Y-164531000D01*
X62992000Y-160205000D02*
X62992000Y-161798000D01*
X83881000Y-164531000D02*
X83881000Y-162052000D01*
X62992000Y-161798000D02*
X66548000Y-165354000D01*
D36*
X51484000Y-148795000D02*
X53607000Y-148795000D01*
X50444400Y-149834600D02*
X51484000Y-148795000D01*
X37568002Y-149834600D02*
X50444400Y-149834600D01*
X51484000Y-150065000D02*
X53607000Y-150065000D01*
X36568001Y-149834600D02*
X36568001Y-150614001D01*
X36568001Y-150614001D02*
X36703000Y-150749000D01*
X50800000Y-150749000D02*
X51484000Y-150065000D01*
X36703000Y-150749000D02*
X50800000Y-150749000D01*
X38265801Y-149136801D02*
X49999199Y-149136801D01*
X49999199Y-149136801D02*
X51611000Y-147525000D01*
X51611000Y-147525000D02*
X53607000Y-147525000D01*
D38*
X27686000Y-170053000D02*
X36830000Y-170053000D01*
X26543000Y-162687000D02*
X26543000Y-168910000D01*
X32720000Y-160828000D02*
X31877000Y-161671000D01*
X40259000Y-166624000D02*
X41911000Y-166624000D01*
X31877000Y-161671000D02*
X27559000Y-161671000D01*
X34429000Y-160828000D02*
X32720000Y-160828000D01*
X36830000Y-170053000D02*
X40259000Y-166624000D01*
X27559000Y-161671000D02*
X26543000Y-162687000D01*
X26543000Y-168910000D02*
X27686000Y-170053000D01*
D36*
X68072000Y-161163000D02*
X68072000Y-160205000D01*
X81159000Y-151668000D02*
X81159000Y-150755000D01*
X77724000Y-150495000D02*
X77343000Y-150876000D01*
X80899000Y-150495000D02*
X77724000Y-150495000D01*
X77343000Y-150876000D02*
X77343000Y-155575000D01*
X81159000Y-150755000D02*
X80899000Y-150495000D01*
X78486000Y-161544000D02*
X68453000Y-161544000D01*
X79248000Y-160782000D02*
X78486000Y-161544000D01*
X79248000Y-157480000D02*
X79248000Y-160782000D01*
X68453000Y-161544000D02*
X68072000Y-161163000D01*
X77343000Y-155575000D02*
X79248000Y-157480000D01*
X76503000Y-157685000D02*
X70472000Y-157685000D01*
X81788000Y-150114000D02*
X77470000Y-150114000D01*
X76962000Y-157226000D02*
X76503000Y-157685000D01*
X76962000Y-150622000D02*
X76962000Y-157226000D01*
X77470000Y-150114000D02*
X76962000Y-150622000D01*
X82259000Y-150585000D02*
X81788000Y-150114000D01*
X82259000Y-151668000D02*
X82259000Y-150585000D01*
D34*
X60452000Y-160205000D02*
X60452000Y-161798000D01*
X60452000Y-161798000D02*
X65024000Y-166370000D01*
X83312000Y-168910000D02*
X83312000Y-174982500D01*
X80772000Y-166370000D02*
X83312000Y-168910000D01*
X65024000Y-166370000D02*
X80772000Y-166370000D01*
X65786000Y-165862000D02*
X61722000Y-161798000D01*
X86233000Y-168910000D02*
X83185000Y-165862000D01*
X86233000Y-174959000D02*
X86233000Y-168910000D01*
X83185000Y-165862000D02*
X65786000Y-165862000D01*
X61722000Y-161798000D02*
X61722000Y-160205000D01*
D36*
X38265801Y-147636799D02*
X38862701Y-147636799D01*
X38862701Y-147636799D02*
X39687500Y-146812000D01*
X51611000Y-146255000D02*
X53607000Y-146255000D01*
X39687500Y-146812000D02*
X41910000Y-146812000D01*
X51054000Y-146812000D02*
X51611000Y-146255000D01*
X43307000Y-146812000D02*
X51054000Y-146812000D01*
D34*
X76835000Y-177315500D02*
X76835000Y-178435000D01*
D36*
X42164000Y-187007500D02*
X41465500Y-187706000D01*
X38735000Y-187706000D02*
X38473000Y-187444000D01*
D34*
X51435000Y-152146000D02*
X52246000Y-151335000D01*
D36*
X42822500Y-183237500D02*
X42164000Y-183896000D01*
X44231000Y-183237500D02*
X42822500Y-183237500D01*
X35306000Y-186182000D02*
X35306000Y-185547000D01*
D34*
X52246000Y-151335000D02*
X53607000Y-151335000D01*
D36*
X37211000Y-154813000D02*
X39116000Y-154813000D01*
X38473000Y-185412000D02*
X38473000Y-186468000D01*
X42164000Y-183896000D02*
X42164000Y-187007500D01*
X41465500Y-187706000D02*
X38735000Y-187706000D01*
X26416000Y-154051000D02*
X36449000Y-154051000D01*
X38473000Y-187444000D02*
X38473000Y-186468000D01*
D34*
X39116000Y-154813000D02*
X41783000Y-152146000D01*
X41783000Y-152146000D02*
X51435000Y-152146000D01*
D36*
X36449000Y-154051000D02*
X37211000Y-154813000D01*
X35687000Y-185166000D02*
X38227000Y-185166000D01*
X35306000Y-185547000D02*
X35687000Y-185166000D01*
X38227000Y-185166000D02*
X38473000Y-185412000D01*
X44958000Y-182245000D02*
X43180000Y-182245000D01*
X39116000Y-184785000D02*
X39473000Y-185142000D01*
X40386000Y-156083000D02*
X37465000Y-156083000D01*
X35433000Y-184785000D02*
X39116000Y-184785000D01*
X41656000Y-154813000D02*
X40386000Y-156083000D01*
X43180000Y-182245000D02*
X41656000Y-183769000D01*
D34*
X43815000Y-152654000D02*
X53594000Y-152654000D01*
D36*
X45950500Y-183237500D02*
X44958000Y-182245000D01*
X41656000Y-183769000D02*
X41656000Y-184531000D01*
X39473000Y-185142000D02*
X39473000Y-186468000D01*
X36195000Y-154813000D02*
X27051000Y-154813000D01*
X37465000Y-156083000D02*
X36195000Y-154813000D01*
X41045000Y-185142000D02*
X39473000Y-185142000D01*
D34*
X41656000Y-154813000D02*
X43815000Y-152654000D01*
D36*
X47117000Y-183237500D02*
X45950500Y-183237500D01*
X41656000Y-184531000D02*
X41045000Y-185142000D01*
X34671000Y-185547000D02*
X35433000Y-184785000D01*
X84459000Y-151668000D02*
X84459000Y-150499000D01*
X77216000Y-149733000D02*
X76581000Y-150368000D01*
X83693000Y-149733000D02*
X77216000Y-149733000D01*
X84459000Y-150499000D02*
X83693000Y-149733000D01*
X75995000Y-156415000D02*
X70472000Y-156415000D01*
X76581000Y-150368000D02*
X76581000Y-155829000D01*
X76581000Y-155829000D02*
X75995000Y-156415000D01*
X75487000Y-155145000D02*
X70472000Y-155145000D01*
X86659000Y-151668000D02*
X86659000Y-150159000D01*
X76200000Y-150114000D02*
X76200000Y-154432000D01*
X76200000Y-154432000D02*
X75487000Y-155145000D01*
X85852000Y-149352000D02*
X76962000Y-149352000D01*
X86659000Y-150159000D02*
X85852000Y-149352000D01*
X76962000Y-149352000D02*
X76200000Y-150114000D01*
D35*
X40132000Y-169926000D02*
X41911000Y-169926000D01*
X35012000Y-175046000D02*
X40132000Y-169926000D01*
X32720000Y-175046000D02*
X35012000Y-175046000D01*
D36*
X78740000Y-161925000D02*
X79629000Y-161036000D01*
X88519000Y-155956000D02*
X88519000Y-151858000D01*
X79629000Y-157480000D02*
X80645000Y-156464000D01*
X66802000Y-161417000D02*
X67310000Y-161925000D01*
X88519000Y-151858000D02*
X88709000Y-151668000D01*
X80645000Y-156464000D02*
X88011000Y-156464000D01*
X67310000Y-161925000D02*
X78740000Y-161925000D01*
X88011000Y-156464000D02*
X88519000Y-155956000D01*
X79629000Y-161036000D02*
X79629000Y-157480000D01*
X66802000Y-160205000D02*
X66802000Y-161417000D01*
D34*
X35370201Y-147636799D02*
X33082799Y-147636799D01*
X30694000Y-149485000D02*
X30702000Y-149477000D01*
X33082799Y-147636799D02*
X32923000Y-147477000D01*
X29337000Y-149231000D02*
X29591000Y-149485000D01*
X30702000Y-147477000D02*
X29567000Y-147477000D01*
X29591000Y-149485000D02*
X30694000Y-149485000D01*
X29567000Y-147477000D02*
X29337000Y-147707000D01*
X32923000Y-147477000D02*
X30702000Y-147477000D01*
X29337000Y-147707000D02*
X29337000Y-149231000D01*
X32012000Y-148477000D02*
X30702000Y-148477000D01*
X31774000Y-150477000D02*
X32012000Y-150239000D01*
X35370201Y-148136800D02*
X33098200Y-148136800D01*
X32758000Y-148477000D02*
X32012000Y-148477000D01*
X33098200Y-148136800D02*
X32758000Y-148477000D01*
X32012000Y-150239000D02*
X32012000Y-148477000D01*
X30702000Y-150477000D02*
X31774000Y-150477000D01*
X45847000Y-153162000D02*
X51435000Y-153162000D01*
X52148000Y-153875000D02*
X53607000Y-153875000D01*
X44196000Y-154813000D02*
X45847000Y-153162000D01*
X51435000Y-153162000D02*
X52148000Y-153875000D01*
X52275000Y-155145000D02*
X53607000Y-155145000D01*
X46736000Y-154813000D02*
X47890800Y-153658200D01*
X47890800Y-153658200D02*
X50788200Y-153658200D01*
X50788200Y-153658200D02*
X52275000Y-155145000D01*
X50878000Y-156415000D02*
X53607000Y-156415000D01*
X49276000Y-154813000D02*
X50878000Y-156415000D01*
D36*
X44323000Y-138684000D02*
X43114000Y-138684000D01*
X53607000Y-144985000D02*
X44909000Y-144985000D01*
X44577000Y-138176000D02*
X46863000Y-138176000D01*
D34*
X43114000Y-136967000D02*
X43114000Y-138176000D01*
D36*
X44909000Y-144985000D02*
X44323000Y-144399000D01*
X44323000Y-144399000D02*
X44323000Y-138684000D01*
D34*
X42672000Y-136525000D02*
X43114000Y-136967000D01*
X37597000Y-136525000D02*
X42672000Y-136525000D01*
D36*
X44323000Y-138430000D02*
X44577000Y-138176000D01*
X44323000Y-138684000D02*
X44323000Y-138430000D01*
X36301500Y-161628000D02*
X40244500Y-157685000D01*
X40244500Y-157685000D02*
X53607000Y-157685000D01*
X34429000Y-161628000D02*
X36301500Y-161628000D01*
X40181000Y-158955000D02*
X53607000Y-158955000D01*
X34429000Y-162428000D02*
X36708000Y-162428000D01*
X36708000Y-162428000D02*
X40181000Y-158955000D01*
X74808000Y-159766000D02*
X73533000Y-159766000D01*
X72722000Y-158955000D02*
X71107000Y-158955000D01*
X73533000Y-159766000D02*
X72722000Y-158955000D01*
X41863200Y-148636800D02*
X42568500Y-147931500D01*
X42568500Y-144399000D02*
X42568500Y-141628500D01*
X42568500Y-147931500D02*
X42568500Y-144399000D01*
X38265801Y-148636800D02*
X41863200Y-148636800D01*
X42568500Y-141628500D02*
X42545000Y-141605000D01*
D34*
X56642000Y-158877000D02*
X65151000Y-158877000D01*
X55880000Y-162306000D02*
X51816000Y-162306000D01*
X51816000Y-162306000D02*
X51120000Y-161610000D01*
X51120000Y-161610000D02*
X49911000Y-161610000D01*
X56642000Y-161544000D02*
X55880000Y-162306000D01*
X65532000Y-159258000D02*
X65532000Y-160205000D01*
X65151000Y-158877000D02*
X65532000Y-159258000D01*
X49873500Y-161647500D02*
X49911000Y-161610000D01*
X46990000Y-161647500D02*
X49873500Y-161647500D01*
X52197000Y-161671000D02*
X51054000Y-160528000D01*
X45315500Y-160528000D02*
X44196000Y-161647500D01*
X51054000Y-160528000D02*
X45315500Y-160528000D01*
X44196000Y-161647500D02*
X41312500Y-161647500D01*
X55372000Y-160205000D02*
X55372000Y-161417000D01*
X41312500Y-161647500D02*
X41275000Y-161610000D01*
X55118000Y-161671000D02*
X52197000Y-161671000D01*
X55372000Y-161417000D02*
X55118000Y-161671000D01*
X93655000Y-152217000D02*
X95308000Y-152217000D01*
X44196000Y-163472500D02*
X44196000Y-164465000D01*
X58547000Y-164973000D02*
X62865000Y-169291000D01*
X90424000Y-155448000D02*
X93655000Y-152217000D01*
X62865000Y-169291000D02*
X67691000Y-169291000D01*
X67691000Y-169291000D02*
X68453000Y-170053000D01*
X44704000Y-164973000D02*
X58547000Y-164973000D01*
X68453000Y-170053000D02*
X68453000Y-172720000D01*
X44196000Y-164465000D02*
X44704000Y-164973000D01*
X95308000Y-145217000D02*
X93218000Y-147307000D01*
X46990000Y-164211000D02*
X46990000Y-163472500D01*
X63436500Y-168656000D02*
X59245500Y-164465000D01*
X67945000Y-168656000D02*
X63436500Y-168656000D01*
X93218000Y-151638000D02*
X90424000Y-154432000D01*
X69088000Y-169799000D02*
X67945000Y-168656000D01*
X47244000Y-164465000D02*
X46990000Y-164211000D01*
X69088000Y-172212000D02*
X69088000Y-169799000D01*
X59245500Y-164465000D02*
X47244000Y-164465000D01*
X93218000Y-147307000D02*
X93218000Y-151638000D01*
X92710000Y-159131000D02*
X92710000Y-166338500D01*
X88415500Y-159131000D02*
X92710000Y-159131000D01*
X92710000Y-157238500D02*
X92710000Y-159131000D01*
X90065000Y-171599000D02*
X88265000Y-169799000D01*
X88265000Y-169799000D02*
X88265000Y-162202500D01*
X88265000Y-162202500D02*
X88415500Y-162052000D01*
X92873000Y-171599000D02*
X90065000Y-171599000D01*
X92710000Y-180619000D02*
X92710000Y-171519000D01*
G04 #@! TA.AperFunction,Conductor*
G36*
X53282121Y-169946002D02*
G01*
X53328614Y-169999658D01*
X53340000Y-170052000D01*
X53340000Y-173229000D01*
X53319998Y-173297121D01*
X53266342Y-173343614D01*
X53214000Y-173355000D01*
X50418000Y-173355000D01*
X50349879Y-173334998D01*
X50303386Y-173281342D01*
X50292000Y-173229000D01*
X50292000Y-170052000D01*
X50312002Y-169983879D01*
X50365658Y-169937386D01*
X50418000Y-169926000D01*
X53214000Y-169926000D01*
X53282121Y-169946002D01*
G37*
G04 #@! TD.AperFunction*
G04 #@! TA.AperFunction,Conductor*
G36*
X49911000Y-177039000D02*
G01*
X49890998Y-177107121D01*
X49837342Y-177153614D01*
X49785000Y-177165000D01*
X41401000Y-177165000D01*
X41332879Y-177144998D01*
X41286386Y-177091342D01*
X41275000Y-177039000D01*
X41275000Y-172465000D01*
X41295002Y-172396879D01*
X41348658Y-172350386D01*
X41401000Y-172339000D01*
X49911000Y-172339000D01*
X49911000Y-177039000D01*
G37*
G04 #@! TD.AperFunction*
G04 #@! TA.AperFunction,Conductor*
G36*
X35778121Y-155463002D02*
G01*
X35824614Y-155516658D01*
X35836000Y-155569000D01*
X35836000Y-160217635D01*
X35815998Y-160285756D01*
X35762342Y-160332249D01*
X35692068Y-160342353D01*
X35679089Y-160338793D01*
X35678301Y-160338266D01*
X35604067Y-160323500D01*
X34429190Y-160323500D01*
X33253934Y-160323501D01*
X33179699Y-160338266D01*
X33179646Y-160337998D01*
X33144949Y-160344900D01*
X32788227Y-160344900D01*
X32776891Y-160343633D01*
X32776845Y-160344205D01*
X32767897Y-160343485D01*
X32759142Y-160341504D01*
X32708306Y-160344658D01*
X32700504Y-160344900D01*
X32685311Y-160344900D01*
X32675718Y-160346274D01*
X32665670Y-160347303D01*
X32629986Y-160349517D01*
X32629985Y-160349517D01*
X32621026Y-160350073D01*
X32612583Y-160353121D01*
X32607113Y-160354254D01*
X32597274Y-160356707D01*
X32591904Y-160358277D01*
X32583016Y-160359550D01*
X32574842Y-160363266D01*
X32574840Y-160363267D01*
X32542295Y-160378064D01*
X32532935Y-160381874D01*
X32490866Y-160397062D01*
X32483616Y-160402358D01*
X32478672Y-160404987D01*
X32463196Y-160414028D01*
X32461297Y-160414891D01*
X32391005Y-160424865D01*
X32326478Y-160395253D01*
X32288205Y-160335455D01*
X32283169Y-160299521D01*
X32283931Y-160154026D01*
X32283971Y-160146432D01*
X32244165Y-159980627D01*
X32165958Y-159829104D01*
X32053865Y-159700609D01*
X31914357Y-159602562D01*
X31818488Y-159565184D01*
X31762569Y-159543382D01*
X31762566Y-159543381D01*
X31755489Y-159540622D01*
X31747956Y-159539630D01*
X31747955Y-159539630D01*
X31629523Y-159524038D01*
X31629522Y-159524038D01*
X31625436Y-159523500D01*
X31536244Y-159523500D01*
X31409719Y-159538811D01*
X31250211Y-159599084D01*
X31109684Y-159695666D01*
X31104632Y-159701336D01*
X31104631Y-159701337D01*
X31001305Y-159817307D01*
X31001303Y-159817310D01*
X30996252Y-159822979D01*
X30916462Y-159973676D01*
X30914612Y-159981041D01*
X30912863Y-159988006D01*
X30874922Y-160139054D01*
X30874882Y-160146653D01*
X30874882Y-160146655D01*
X30874511Y-160217571D01*
X30874029Y-160309568D01*
X30875801Y-160316948D01*
X30875801Y-160316950D01*
X30910092Y-160459782D01*
X30913835Y-160475373D01*
X30992042Y-160626896D01*
X31104135Y-160755391D01*
X31243643Y-160853438D01*
X31339512Y-160890816D01*
X31395431Y-160912618D01*
X31395434Y-160912619D01*
X31402511Y-160915378D01*
X31410044Y-160916370D01*
X31410045Y-160916370D01*
X31528477Y-160931962D01*
X31528478Y-160931962D01*
X31532564Y-160932500D01*
X31621756Y-160932500D01*
X31621756Y-160932510D01*
X31690131Y-160948189D01*
X31739768Y-160998951D01*
X31754080Y-161068490D01*
X31728525Y-161134728D01*
X31717605Y-161147188D01*
X31713798Y-161150995D01*
X31651486Y-161185021D01*
X31624703Y-161187900D01*
X27627227Y-161187900D01*
X27615891Y-161186633D01*
X27615845Y-161187205D01*
X27606897Y-161186485D01*
X27598142Y-161184504D01*
X27547306Y-161187658D01*
X27539504Y-161187900D01*
X27524311Y-161187900D01*
X27514718Y-161189274D01*
X27504670Y-161190303D01*
X27468986Y-161192517D01*
X27468985Y-161192517D01*
X27460026Y-161193073D01*
X27451583Y-161196121D01*
X27446113Y-161197254D01*
X27436274Y-161199707D01*
X27430904Y-161201277D01*
X27422016Y-161202550D01*
X27413842Y-161206266D01*
X27413840Y-161206267D01*
X27381295Y-161221064D01*
X27371935Y-161224874D01*
X27329866Y-161240062D01*
X27322618Y-161245357D01*
X27317690Y-161247977D01*
X27308901Y-161253113D01*
X27304212Y-161256112D01*
X27296043Y-161259826D01*
X27289246Y-161265682D01*
X27289244Y-161265684D01*
X27275975Y-161277118D01*
X27262161Y-161289022D01*
X27254238Y-161295312D01*
X27247944Y-161299909D01*
X27247938Y-161299914D01*
X27244012Y-161302782D01*
X27233758Y-161313036D01*
X27226912Y-161319393D01*
X27191210Y-161350156D01*
X27186326Y-161357690D01*
X27180427Y-161364453D01*
X27180370Y-161364403D01*
X27171804Y-161374990D01*
X26249643Y-162297151D01*
X26240728Y-162304274D01*
X26241100Y-162304711D01*
X26234267Y-162310526D01*
X26226673Y-162315318D01*
X26192944Y-162353509D01*
X26187598Y-162359196D01*
X26176868Y-162369926D01*
X26174184Y-162373506D01*
X26174177Y-162373515D01*
X26171054Y-162377681D01*
X26164677Y-162385514D01*
X26135069Y-162419040D01*
X26131256Y-162427162D01*
X26128201Y-162431812D01*
X26122955Y-162440542D01*
X26120273Y-162445441D01*
X26114894Y-162452618D01*
X26111746Y-162461016D01*
X26111744Y-162461019D01*
X26099192Y-162494502D01*
X26095274Y-162503801D01*
X26076258Y-162544303D01*
X26074878Y-162553170D01*
X26073247Y-162558503D01*
X26070668Y-162568335D01*
X26069469Y-162573787D01*
X26066317Y-162582195D01*
X26065652Y-162591145D01*
X26063002Y-162626805D01*
X26061848Y-162636850D01*
X26059900Y-162649361D01*
X26059900Y-162663867D01*
X26059554Y-162673204D01*
X26056062Y-162720196D01*
X26057935Y-162728971D01*
X26058546Y-162737930D01*
X26058471Y-162737935D01*
X26059900Y-162751476D01*
X26059900Y-168841773D01*
X26058633Y-168853109D01*
X26059205Y-168853155D01*
X26058485Y-168862103D01*
X26056504Y-168870858D01*
X26057060Y-168879817D01*
X26059658Y-168921694D01*
X26059900Y-168929496D01*
X26059900Y-168944689D01*
X26060535Y-168949122D01*
X26061273Y-168954274D01*
X26062303Y-168964330D01*
X26065073Y-169008974D01*
X26068121Y-169017417D01*
X26069254Y-169022887D01*
X26071707Y-169032726D01*
X26073277Y-169038096D01*
X26074550Y-169046984D01*
X26078266Y-169055158D01*
X26078267Y-169055160D01*
X26093064Y-169087705D01*
X26096874Y-169097065D01*
X26112062Y-169139134D01*
X26117357Y-169146382D01*
X26119977Y-169151310D01*
X26125113Y-169160099D01*
X26128112Y-169164788D01*
X26131826Y-169172957D01*
X26137682Y-169179754D01*
X26137684Y-169179756D01*
X26159222Y-169204751D01*
X26188537Y-169269413D01*
X26178238Y-169339659D01*
X26131597Y-169393186D01*
X26063770Y-169413000D01*
X25780000Y-169413000D01*
X25711879Y-169392998D01*
X25665386Y-169339342D01*
X25654000Y-169287000D01*
X25654000Y-155569000D01*
X25674002Y-155500879D01*
X25727658Y-155454386D01*
X25780000Y-155443000D01*
X35710000Y-155443000D01*
X35778121Y-155463002D01*
G37*
G04 #@! TD.AperFunction*
G04 #@! TA.AperFunction,Conductor*
G36*
X32942532Y-161392840D02*
G01*
X32999368Y-161435387D01*
X33024179Y-161501907D01*
X33024500Y-161510896D01*
X33024501Y-161903066D01*
X33039266Y-161977301D01*
X33043297Y-161983333D01*
X33050504Y-162050373D01*
X33044476Y-162070902D01*
X33039266Y-162078699D01*
X33024500Y-162152933D01*
X33024501Y-162703066D01*
X33039266Y-162777301D01*
X33043297Y-162783333D01*
X33050504Y-162850373D01*
X33044476Y-162870902D01*
X33039266Y-162878699D01*
X33024500Y-162952933D01*
X33024501Y-163503066D01*
X33039266Y-163577301D01*
X33095516Y-163661484D01*
X33179699Y-163717734D01*
X33253933Y-163732500D01*
X34428810Y-163732500D01*
X35604066Y-163732499D01*
X35678301Y-163717734D01*
X35678777Y-163720128D01*
X35732375Y-163714367D01*
X35795861Y-163746147D01*
X35832087Y-163807206D01*
X35836000Y-163838364D01*
X35836000Y-169287000D01*
X35815998Y-169355121D01*
X35762342Y-169401614D01*
X35710000Y-169413000D01*
X27781398Y-169413000D01*
X27713277Y-169392998D01*
X27692303Y-169376096D01*
X27063005Y-168746799D01*
X27028980Y-168684486D01*
X27026100Y-168657703D01*
X27026100Y-164709568D01*
X30874029Y-164709568D01*
X30913835Y-164875373D01*
X30992042Y-165026896D01*
X31104135Y-165155391D01*
X31243643Y-165253438D01*
X31339512Y-165290816D01*
X31395431Y-165312618D01*
X31395434Y-165312619D01*
X31402511Y-165315378D01*
X31410044Y-165316370D01*
X31410045Y-165316370D01*
X31528477Y-165331962D01*
X31528478Y-165331962D01*
X31532564Y-165332500D01*
X31621756Y-165332500D01*
X31748281Y-165317189D01*
X31907789Y-165256916D01*
X32048316Y-165160334D01*
X32057823Y-165149664D01*
X32156695Y-165038693D01*
X32156697Y-165038690D01*
X32161748Y-165033021D01*
X32241538Y-164882324D01*
X32243388Y-164874959D01*
X32281227Y-164724317D01*
X32281227Y-164724313D01*
X32283078Y-164716946D01*
X32283157Y-164701974D01*
X32283931Y-164554026D01*
X32283971Y-164546432D01*
X32244165Y-164380627D01*
X32165958Y-164229104D01*
X32053865Y-164100609D01*
X31914357Y-164002562D01*
X31818488Y-163965184D01*
X31762569Y-163943382D01*
X31762566Y-163943381D01*
X31755489Y-163940622D01*
X31747956Y-163939630D01*
X31747955Y-163939630D01*
X31629523Y-163924038D01*
X31629522Y-163924038D01*
X31625436Y-163923500D01*
X31536244Y-163923500D01*
X31409719Y-163938811D01*
X31250211Y-163999084D01*
X31109684Y-164095666D01*
X31104632Y-164101336D01*
X31104631Y-164101337D01*
X31001305Y-164217307D01*
X31001303Y-164217310D01*
X30996252Y-164222979D01*
X30916462Y-164373676D01*
X30914612Y-164381041D01*
X30912863Y-164388006D01*
X30874922Y-164539054D01*
X30874882Y-164546653D01*
X30874882Y-164546655D01*
X30874511Y-164617571D01*
X30874029Y-164709568D01*
X27026100Y-164709568D01*
X27026100Y-162939296D01*
X27046102Y-162871175D01*
X27063005Y-162850201D01*
X27722201Y-162191005D01*
X27784513Y-162156979D01*
X27811296Y-162154100D01*
X31808773Y-162154100D01*
X31820109Y-162155367D01*
X31820155Y-162154795D01*
X31829103Y-162155515D01*
X31837858Y-162157496D01*
X31888695Y-162154342D01*
X31896496Y-162154100D01*
X31911689Y-162154100D01*
X31921282Y-162152726D01*
X31931330Y-162151697D01*
X31967014Y-162149483D01*
X31967015Y-162149483D01*
X31975974Y-162148927D01*
X31984417Y-162145879D01*
X31989887Y-162144746D01*
X31999726Y-162142293D01*
X32005096Y-162140723D01*
X32013984Y-162139450D01*
X32022158Y-162135734D01*
X32022160Y-162135733D01*
X32054705Y-162120936D01*
X32064065Y-162117126D01*
X32106134Y-162101938D01*
X32113382Y-162096643D01*
X32118310Y-162094023D01*
X32127099Y-162088887D01*
X32131788Y-162085888D01*
X32139957Y-162082174D01*
X32146754Y-162076318D01*
X32146756Y-162076316D01*
X32160025Y-162064882D01*
X32173839Y-162052978D01*
X32181762Y-162046688D01*
X32188056Y-162042091D01*
X32188062Y-162042086D01*
X32191988Y-162039218D01*
X32202242Y-162028964D01*
X32209089Y-162022606D01*
X32237988Y-161997705D01*
X32244790Y-161991844D01*
X32249674Y-161984310D01*
X32255573Y-161977547D01*
X32255630Y-161977597D01*
X32264196Y-161967010D01*
X32809405Y-161421801D01*
X32871717Y-161387775D01*
X32942532Y-161392840D01*
G37*
G04 #@! TD.AperFunction*
G04 #@! TA.AperFunction,Conductor*
G36*
X90805000Y-153459287D02*
G01*
X90784998Y-153527408D01*
X90768095Y-153548382D01*
X90482577Y-153833900D01*
X90420265Y-153867926D01*
X90409937Y-153869725D01*
X90339224Y-153879035D01*
X90286179Y-153886018D01*
X90286177Y-153886019D01*
X90277993Y-153887096D01*
X90270365Y-153890256D01*
X90270364Y-153890256D01*
X90212053Y-153914409D01*
X90163835Y-153924000D01*
X88988400Y-153924000D01*
X88920279Y-153903998D01*
X88873786Y-153850342D01*
X88862400Y-153798000D01*
X88862400Y-152648499D01*
X88882402Y-152580378D01*
X88936058Y-152533885D01*
X88988400Y-152522499D01*
X89084066Y-152522499D01*
X89119818Y-152515388D01*
X89146126Y-152510156D01*
X89146128Y-152510155D01*
X89158301Y-152507734D01*
X89168621Y-152500839D01*
X89168622Y-152500838D01*
X89232168Y-152458377D01*
X89242484Y-152451484D01*
X89276885Y-152400000D01*
X90805000Y-152400000D01*
X90805000Y-153459287D01*
G37*
G04 #@! TD.AperFunction*
G04 #@! TA.AperFunction,Conductor*
G36*
X50742121Y-140355002D02*
G01*
X50788614Y-140408658D01*
X50800000Y-140461000D01*
X50800000Y-143003000D01*
X50779998Y-143071121D01*
X50726342Y-143117614D01*
X50674000Y-143129000D01*
X45846000Y-143129000D01*
X45777879Y-143108998D01*
X45731386Y-143055342D01*
X45720000Y-143003000D01*
X45720000Y-140461000D01*
X45740002Y-140392879D01*
X45793658Y-140346386D01*
X45846000Y-140335000D01*
X50674000Y-140335000D01*
X50742121Y-140355002D01*
G37*
G04 #@! TD.AperFunction*
G04 #@! TA.AperFunction,Conductor*
G36*
X82619121Y-157754002D02*
G01*
X82665614Y-157807658D01*
X82677000Y-157860000D01*
X82677000Y-160020500D01*
X82656998Y-160088621D01*
X82603342Y-160135114D01*
X82551000Y-160146500D01*
X81524635Y-160146500D01*
X81500336Y-160143914D01*
X81498898Y-160143846D01*
X81488720Y-160141655D01*
X81459016Y-160145170D01*
X81455158Y-160145627D01*
X81449180Y-160145979D01*
X81449188Y-160146072D01*
X81444010Y-160146500D01*
X81438808Y-160146500D01*
X81419654Y-160149688D01*
X81413796Y-160150522D01*
X81397182Y-160152488D01*
X81372933Y-160155358D01*
X81372932Y-160155358D01*
X81362593Y-160156582D01*
X81354294Y-160160567D01*
X81345217Y-160162078D01*
X81299849Y-160186558D01*
X81294586Y-160189239D01*
X81255250Y-160208127D01*
X81255246Y-160208130D01*
X81248102Y-160211560D01*
X81243808Y-160215170D01*
X81241876Y-160217102D01*
X81239927Y-160218889D01*
X81239874Y-160218918D01*
X81239755Y-160218788D01*
X81239187Y-160219289D01*
X81233443Y-160222388D01*
X81226376Y-160230033D01*
X81196633Y-160262209D01*
X81193203Y-160265775D01*
X80967883Y-160491095D01*
X80905571Y-160525121D01*
X80878788Y-160528000D01*
X80263000Y-160528000D01*
X80194879Y-160507998D01*
X80148386Y-160454342D01*
X80137000Y-160402000D01*
X80137000Y-157860000D01*
X80157002Y-157791879D01*
X80210658Y-157745386D01*
X80263000Y-157734000D01*
X82551000Y-157734000D01*
X82619121Y-157754002D01*
G37*
G04 #@! TD.AperFunction*
G04 #@! TA.AperFunction,Conductor*
G36*
X90747121Y-135148002D02*
G01*
X90793614Y-135201658D01*
X90805000Y-135254000D01*
X90805000Y-152833000D01*
X89129293Y-152833000D01*
X89136402Y-152808789D01*
X89190058Y-152762296D01*
X89198171Y-152758928D01*
X89297295Y-152721768D01*
X89297296Y-152721767D01*
X89305705Y-152718615D01*
X89422261Y-152631261D01*
X89509615Y-152514705D01*
X89560745Y-152378316D01*
X89567500Y-152316134D01*
X89567500Y-151344000D01*
X89587502Y-151275879D01*
X89641158Y-151229386D01*
X89693500Y-151218000D01*
X90059000Y-151218000D01*
X90059000Y-147968000D01*
X89309000Y-147968000D01*
X89309000Y-150441010D01*
X89288998Y-150509131D01*
X89235342Y-150555624D01*
X89169442Y-150565099D01*
X89169316Y-150566255D01*
X89110531Y-150559869D01*
X89107134Y-150559500D01*
X88310866Y-150559500D01*
X88248684Y-150566255D01*
X88248420Y-150563826D01*
X88219580Y-150563826D01*
X88219316Y-150566255D01*
X88160531Y-150559869D01*
X88157134Y-150559500D01*
X87382400Y-150559500D01*
X87314279Y-150539498D01*
X87267786Y-150485842D01*
X87256400Y-150433500D01*
X87256400Y-150206414D01*
X87257478Y-150189967D01*
X87260477Y-150167188D01*
X87261555Y-150159000D01*
X87241023Y-150003047D01*
X87180828Y-149857723D01*
X87171965Y-149846172D01*
X87090098Y-149739480D01*
X87090097Y-149739479D01*
X87085071Y-149732929D01*
X87060285Y-149713910D01*
X87047894Y-149703043D01*
X86307961Y-148963110D01*
X86297093Y-148950719D01*
X86283094Y-148932475D01*
X86283093Y-148932474D01*
X86278071Y-148925929D01*
X86153277Y-148830172D01*
X86007953Y-148769977D01*
X85891155Y-148754600D01*
X85852000Y-148749445D01*
X85843812Y-148750523D01*
X85843811Y-148750523D01*
X85821031Y-148753522D01*
X85804585Y-148754600D01*
X77009420Y-148754600D01*
X76992975Y-148753522D01*
X76962000Y-148749444D01*
X76953812Y-148750522D01*
X76941147Y-148752189D01*
X76806055Y-148769976D01*
X76806047Y-148769977D01*
X76660723Y-148830172D01*
X76535929Y-148925929D01*
X76530903Y-148932479D01*
X76530900Y-148932482D01*
X76516916Y-148950707D01*
X76506050Y-148963098D01*
X75811106Y-149658043D01*
X75798713Y-149668911D01*
X75780478Y-149682903D01*
X75780474Y-149682907D01*
X75773929Y-149687929D01*
X75704761Y-149778071D01*
X75678172Y-149812723D01*
X75617977Y-149958047D01*
X75597445Y-150114000D01*
X75598523Y-150122188D01*
X75598523Y-150122189D01*
X75601522Y-150144969D01*
X75602600Y-150161415D01*
X75602600Y-152707000D01*
X75582598Y-152775121D01*
X75528942Y-152821614D01*
X75476600Y-152833000D01*
X75056000Y-152833000D01*
X74987879Y-152812998D01*
X74941386Y-152759342D01*
X74930000Y-152707000D01*
X74930000Y-146768000D01*
X89309000Y-146768000D01*
X90059000Y-146768000D01*
X90059000Y-143168000D01*
X89309000Y-143168000D01*
X89309000Y-146768000D01*
X74930000Y-146768000D01*
X74930000Y-146668000D01*
X79559000Y-146668000D01*
X88259000Y-146668000D01*
X88259000Y-145494000D01*
X88279002Y-145425879D01*
X88332658Y-145379386D01*
X88385000Y-145368000D01*
X88959000Y-145368000D01*
X88959000Y-137768000D01*
X88259000Y-137768000D01*
X88259000Y-144942000D01*
X88238998Y-145010121D01*
X88185342Y-145056614D01*
X88133000Y-145068000D01*
X79559000Y-145068000D01*
X79559000Y-146668000D01*
X74930000Y-146668000D01*
X74930000Y-136968000D01*
X77359000Y-136968000D01*
X79909000Y-136968000D01*
X79909000Y-135618000D01*
X77359000Y-135618000D01*
X77359000Y-136968000D01*
X74930000Y-136968000D01*
X74930000Y-135254000D01*
X74950002Y-135185879D01*
X75003658Y-135139386D01*
X75056000Y-135128000D01*
X90679000Y-135128000D01*
X90747121Y-135148002D01*
G37*
G04 #@! TD.AperFunction*
G04 #@! TA.AperFunction,Conductor*
G36*
X85620480Y-149969402D02*
G01*
X85641454Y-149986305D01*
X86024695Y-150369546D01*
X86058721Y-150431858D01*
X86061600Y-150458641D01*
X86061600Y-150554879D01*
X86041598Y-150623000D01*
X86011165Y-150655705D01*
X85945739Y-150704739D01*
X85858385Y-150821295D01*
X85807255Y-150957684D01*
X85800500Y-151019866D01*
X85800500Y-152316134D01*
X85807255Y-152378316D01*
X85858385Y-152514705D01*
X85863771Y-152521891D01*
X85945739Y-152631261D01*
X85942713Y-152633529D01*
X85968208Y-152680217D01*
X85963143Y-152751032D01*
X85920596Y-152807868D01*
X85854076Y-152832679D01*
X85845087Y-152833000D01*
X85272913Y-152833000D01*
X85204792Y-152812998D01*
X85158299Y-152759342D01*
X85148195Y-152689068D01*
X85174000Y-152632565D01*
X85172261Y-152631261D01*
X85254229Y-152521891D01*
X85259615Y-152514705D01*
X85310745Y-152378316D01*
X85317500Y-152316134D01*
X85317500Y-151019866D01*
X85310745Y-150957684D01*
X85259615Y-150821295D01*
X85172261Y-150704739D01*
X85106835Y-150655705D01*
X85064320Y-150598846D01*
X85056400Y-150554879D01*
X85056400Y-150546420D01*
X85057478Y-150529972D01*
X85060478Y-150507187D01*
X85061556Y-150499000D01*
X85041023Y-150343047D01*
X84980828Y-150197723D01*
X84945823Y-150152103D01*
X84920223Y-150085883D01*
X84934488Y-150016334D01*
X84984090Y-149965538D01*
X85045786Y-149949400D01*
X85552359Y-149949400D01*
X85620480Y-149969402D01*
G37*
G04 #@! TD.AperFunction*
G04 #@! TA.AperFunction,Conductor*
G36*
X79142621Y-151112402D02*
G01*
X79189114Y-151166058D01*
X79200500Y-151218400D01*
X79200500Y-152316134D01*
X79207255Y-152378316D01*
X79258385Y-152514705D01*
X79263771Y-152521891D01*
X79345739Y-152631261D01*
X79342713Y-152633529D01*
X79368208Y-152680217D01*
X79363143Y-152751032D01*
X79320596Y-152807868D01*
X79254076Y-152832679D01*
X79245087Y-152833000D01*
X78066400Y-152833000D01*
X77998279Y-152812998D01*
X77951786Y-152759342D01*
X77940400Y-152707000D01*
X77940400Y-151218400D01*
X77960402Y-151150279D01*
X78014058Y-151103786D01*
X78066400Y-151092400D01*
X79074500Y-151092400D01*
X79142621Y-151112402D01*
G37*
G04 #@! TD.AperFunction*
G04 #@! TA.AperFunction,Conductor*
G36*
X67633121Y-173629002D02*
G01*
X67679614Y-173682658D01*
X67691000Y-173735000D01*
X67691000Y-178563000D01*
X67670998Y-178631121D01*
X67617342Y-178677614D01*
X67565000Y-178689000D01*
X54101000Y-178689000D01*
X54032879Y-178668998D01*
X53986386Y-178615342D01*
X53975000Y-178563000D01*
X53975000Y-173735000D01*
X53995002Y-173666879D01*
X54048658Y-173620386D01*
X54101000Y-173609000D01*
X67565000Y-173609000D01*
X67633121Y-173629002D01*
G37*
G04 #@! TD.AperFunction*
G04 #@! TA.AperFunction,Conductor*
G36*
X40068422Y-140609002D02*
G01*
X40114915Y-140662658D01*
X40125019Y-140732932D01*
X40096918Y-140794462D01*
X40097096Y-140794596D01*
X40054739Y-140851113D01*
X40015811Y-140903054D01*
X40015809Y-140903057D01*
X40010429Y-140910236D01*
X39959702Y-141045552D01*
X39953000Y-141107244D01*
X39953000Y-142102756D01*
X39959702Y-142164448D01*
X40010429Y-142299764D01*
X40015809Y-142306943D01*
X40015811Y-142306946D01*
X40081787Y-142394977D01*
X40097096Y-142415404D01*
X40104276Y-142420785D01*
X40205554Y-142496689D01*
X40205557Y-142496691D01*
X40212736Y-142502071D01*
X40302454Y-142535704D01*
X40340657Y-142550026D01*
X40340659Y-142550026D01*
X40348052Y-142552798D01*
X40355902Y-142553651D01*
X40355903Y-142553651D01*
X40406347Y-142559131D01*
X40409744Y-142559500D01*
X41030256Y-142559500D01*
X41033653Y-142559131D01*
X41084097Y-142553651D01*
X41084098Y-142553651D01*
X41091948Y-142552798D01*
X41099341Y-142550026D01*
X41099343Y-142550026D01*
X41137546Y-142535704D01*
X41227264Y-142502071D01*
X41234443Y-142496691D01*
X41234446Y-142496689D01*
X41327435Y-142426997D01*
X41393941Y-142402149D01*
X41463324Y-142417202D01*
X41513554Y-142467376D01*
X41529000Y-142527823D01*
X41529000Y-145289000D01*
X41508998Y-145357121D01*
X41455342Y-145403614D01*
X41403000Y-145415000D01*
X37718000Y-145415000D01*
X37649879Y-145394998D01*
X37603386Y-145341342D01*
X37592000Y-145289000D01*
X37592000Y-140715000D01*
X37612002Y-140646879D01*
X37665658Y-140600386D01*
X37718000Y-140589000D01*
X40000301Y-140589000D01*
X40068422Y-140609002D01*
G37*
G04 #@! TD.AperFunction*
G04 #@! TA.AperFunction,Conductor*
G36*
X36514658Y-138430250D02*
G01*
X36514662Y-138430148D01*
X36517386Y-138430266D01*
X36520091Y-138430500D01*
X36522804Y-138430500D01*
X36525469Y-138430615D01*
X36525532Y-138430634D01*
X36525525Y-138430808D01*
X36526271Y-138430855D01*
X36532524Y-138432725D01*
X36582383Y-138430766D01*
X36586678Y-138430597D01*
X36591625Y-138430500D01*
X36958000Y-138430500D01*
X37026121Y-138450502D01*
X37072614Y-138504158D01*
X37084000Y-138556500D01*
X37084000Y-145924000D01*
X37063998Y-145992121D01*
X37010342Y-146038614D01*
X36958000Y-146050000D01*
X35559000Y-146050000D01*
X35490879Y-146029998D01*
X35444386Y-145976342D01*
X35433000Y-145924000D01*
X35433000Y-138556000D01*
X35453002Y-138487879D01*
X35506658Y-138441386D01*
X35559000Y-138430000D01*
X36508874Y-138430000D01*
X36514658Y-138430250D01*
G37*
G04 #@! TD.AperFunction*
G04 #@! TA.AperFunction,Conductor*
G36*
X28644121Y-144425002D02*
G01*
X28690614Y-144478658D01*
X28702000Y-144531000D01*
X28702000Y-153423000D01*
X28681998Y-153491121D01*
X28628342Y-153537614D01*
X28576000Y-153549000D01*
X26690650Y-153549000D01*
X26642432Y-153539409D01*
X26569636Y-153509256D01*
X26569635Y-153509256D01*
X26562007Y-153506096D01*
X26553823Y-153505019D01*
X26553821Y-153505018D01*
X26424188Y-153487952D01*
X26416000Y-153486874D01*
X26407812Y-153487952D01*
X26278179Y-153505018D01*
X26278177Y-153505019D01*
X26269993Y-153506096D01*
X26262365Y-153509256D01*
X26262364Y-153509256D01*
X26189568Y-153539409D01*
X26141350Y-153549000D01*
X25780000Y-153549000D01*
X25711879Y-153528998D01*
X25665386Y-153475342D01*
X25654000Y-153423000D01*
X25654000Y-144531000D01*
X25674002Y-144462879D01*
X25727658Y-144416386D01*
X25780000Y-144405000D01*
X28576000Y-144405000D01*
X28644121Y-144425002D01*
G37*
G04 #@! TD.AperFunction*
G04 #@! TA.AperFunction,Conductor*
G36*
X64077121Y-146959002D02*
G01*
X64123614Y-147012658D01*
X64135000Y-147065000D01*
X64135000Y-153290000D01*
X64114998Y-153358121D01*
X64061342Y-153404614D01*
X64009000Y-153416000D01*
X57657000Y-153416000D01*
X57588879Y-153395998D01*
X57542386Y-153342342D01*
X57531000Y-153290000D01*
X57531000Y-147065000D01*
X57551002Y-146996879D01*
X57604658Y-146950386D01*
X57657000Y-146939000D01*
X64009000Y-146939000D01*
X64077121Y-146959002D01*
G37*
G04 #@! TD.AperFunction*
G04 #@! TA.AperFunction,Conductor*
G36*
X47694121Y-165628002D02*
G01*
X47740614Y-165681658D01*
X47752000Y-165734000D01*
X47752000Y-169926000D01*
X49785000Y-169926000D01*
X49853121Y-169946002D01*
X49899614Y-169999658D01*
X49911000Y-170052000D01*
X49911000Y-177039000D01*
X49890998Y-177107121D01*
X49837342Y-177153614D01*
X49785000Y-177165000D01*
X44323000Y-177165000D01*
X44323000Y-165734000D01*
X44343002Y-165665879D01*
X44396658Y-165619386D01*
X44449000Y-165608000D01*
X47626000Y-165608000D01*
X47694121Y-165628002D01*
G37*
G04 #@! TD.AperFunction*
G04 #@! TA.AperFunction,Conductor*
G36*
X82619121Y-161056002D02*
G01*
X82665614Y-161109658D01*
X82677000Y-161162000D01*
X82677000Y-164466000D01*
X82656998Y-164534121D01*
X82603342Y-164580614D01*
X82551000Y-164592000D01*
X80263000Y-164592000D01*
X80194879Y-164571998D01*
X80148386Y-164518342D01*
X80137000Y-164466000D01*
X80137000Y-162453213D01*
X80157002Y-162385092D01*
X80173905Y-162364118D01*
X81465118Y-161072905D01*
X81527430Y-161038879D01*
X81554213Y-161036000D01*
X82551000Y-161036000D01*
X82619121Y-161056002D01*
G37*
G04 #@! TD.AperFunction*
G04 #@! TA.AperFunction,Conductor*
G36*
X73168685Y-176550002D02*
G01*
X73215178Y-176603658D01*
X73225282Y-176673932D01*
X73201391Y-176731564D01*
X73143929Y-176808236D01*
X73093202Y-176943552D01*
X73086500Y-177005244D01*
X73086500Y-177625756D01*
X73093202Y-177687448D01*
X73143929Y-177822764D01*
X73149309Y-177829943D01*
X73149311Y-177829946D01*
X73215287Y-177917977D01*
X73230596Y-177938404D01*
X73237776Y-177943785D01*
X73339054Y-178019689D01*
X73339057Y-178019691D01*
X73346236Y-178025071D01*
X73448512Y-178063412D01*
X73505277Y-178106053D01*
X73529977Y-178172614D01*
X73520692Y-178229612D01*
X73499256Y-178281364D01*
X73496096Y-178288993D01*
X73495019Y-178297177D01*
X73495018Y-178297179D01*
X73482350Y-178393404D01*
X73476874Y-178435000D01*
X73477952Y-178443188D01*
X73485715Y-178502151D01*
X73496096Y-178581007D01*
X73552453Y-178717063D01*
X73642103Y-178833897D01*
X73758937Y-178923547D01*
X73894993Y-178979904D01*
X73903177Y-178980981D01*
X73903179Y-178980982D01*
X74032812Y-178998048D01*
X74041000Y-178999126D01*
X74049188Y-178998048D01*
X74178821Y-178980982D01*
X74178823Y-178980981D01*
X74187007Y-178979904D01*
X74323063Y-178923547D01*
X74439897Y-178833897D01*
X74529547Y-178717063D01*
X74585904Y-178581007D01*
X74596286Y-178502151D01*
X74604048Y-178443188D01*
X74605126Y-178435000D01*
X74599650Y-178393404D01*
X74586982Y-178297179D01*
X74586981Y-178297177D01*
X74585904Y-178288993D01*
X74582744Y-178281364D01*
X74561308Y-178229612D01*
X74553719Y-178159022D01*
X74585498Y-178095535D01*
X74633488Y-178063412D01*
X74735764Y-178025071D01*
X74742943Y-178019691D01*
X74742946Y-178019689D01*
X74844224Y-177943785D01*
X74851404Y-177938404D01*
X74866713Y-177917977D01*
X74932689Y-177829946D01*
X74932691Y-177829943D01*
X74938071Y-177822764D01*
X74988798Y-177687448D01*
X74995500Y-177625756D01*
X74995500Y-177005244D01*
X74988798Y-176943552D01*
X74938071Y-176808236D01*
X74880609Y-176731564D01*
X74855762Y-176665058D01*
X74870815Y-176595675D01*
X74920990Y-176545446D01*
X74981436Y-176530000D01*
X75894564Y-176530000D01*
X75962685Y-176550002D01*
X76009178Y-176603658D01*
X76019282Y-176673932D01*
X75995391Y-176731564D01*
X75937929Y-176808236D01*
X75887202Y-176943552D01*
X75880500Y-177005244D01*
X75880500Y-177625756D01*
X75887202Y-177687448D01*
X75937929Y-177822764D01*
X75943309Y-177829943D01*
X75943311Y-177829946D01*
X76009287Y-177917977D01*
X76024596Y-177938404D01*
X76031776Y-177943785D01*
X76133054Y-178019689D01*
X76133057Y-178019691D01*
X76140236Y-178025071D01*
X76242512Y-178063412D01*
X76299277Y-178106053D01*
X76323977Y-178172614D01*
X76314692Y-178229612D01*
X76293256Y-178281364D01*
X76290096Y-178288993D01*
X76289019Y-178297177D01*
X76289018Y-178297179D01*
X76276350Y-178393404D01*
X76270874Y-178435000D01*
X76271952Y-178443188D01*
X76279715Y-178502151D01*
X76290096Y-178581007D01*
X76346453Y-178717063D01*
X76436103Y-178833897D01*
X76552937Y-178923547D01*
X76688993Y-178979904D01*
X76697177Y-178980981D01*
X76697179Y-178980982D01*
X76826812Y-178998048D01*
X76835000Y-178999126D01*
X76843188Y-178998048D01*
X76972821Y-178980982D01*
X76972823Y-178980981D01*
X76981007Y-178979904D01*
X77117063Y-178923547D01*
X77233897Y-178833897D01*
X77323547Y-178717063D01*
X77379904Y-178581007D01*
X77390286Y-178502151D01*
X77398048Y-178443188D01*
X77399126Y-178435000D01*
X77393650Y-178393404D01*
X77380982Y-178297179D01*
X77380981Y-178297177D01*
X77379904Y-178288993D01*
X77376744Y-178281364D01*
X77355308Y-178229612D01*
X77347719Y-178159022D01*
X77379498Y-178095535D01*
X77427488Y-178063412D01*
X77529764Y-178025071D01*
X77536943Y-178019691D01*
X77536946Y-178019689D01*
X77638224Y-177943785D01*
X77645404Y-177938404D01*
X77660713Y-177917977D01*
X77726689Y-177829946D01*
X77726691Y-177829943D01*
X77732071Y-177822764D01*
X77782798Y-177687448D01*
X77789500Y-177625756D01*
X77789500Y-177005244D01*
X77782798Y-176943552D01*
X77732071Y-176808236D01*
X77674609Y-176731564D01*
X77649762Y-176665058D01*
X77664815Y-176595675D01*
X77714990Y-176545446D01*
X77775436Y-176530000D01*
X82371564Y-176530000D01*
X82439685Y-176550002D01*
X82486178Y-176603658D01*
X82496282Y-176673932D01*
X82472391Y-176731564D01*
X82414929Y-176808236D01*
X82364202Y-176943552D01*
X82357500Y-177005244D01*
X82357500Y-177625756D01*
X82364202Y-177687448D01*
X82414929Y-177822764D01*
X82420309Y-177829943D01*
X82420311Y-177829946D01*
X82486287Y-177917977D01*
X82501596Y-177938404D01*
X82508776Y-177943785D01*
X82610054Y-178019689D01*
X82610057Y-178019691D01*
X82617236Y-178025071D01*
X82706954Y-178058704D01*
X82745157Y-178073026D01*
X82745159Y-178073026D01*
X82752552Y-178075798D01*
X82760402Y-178076651D01*
X82760403Y-178076651D01*
X82768404Y-178077520D01*
X82811405Y-178082192D01*
X82811406Y-178082192D01*
X82814244Y-178082500D01*
X82814171Y-178083169D01*
X82878246Y-178105808D01*
X82921773Y-178161896D01*
X82930500Y-178207972D01*
X82930500Y-178634865D01*
X82927914Y-178659164D01*
X82927846Y-178660602D01*
X82925655Y-178670780D01*
X82926879Y-178681120D01*
X82929627Y-178704342D01*
X82929979Y-178710320D01*
X82930072Y-178710312D01*
X82930500Y-178715490D01*
X82930500Y-178720692D01*
X82931354Y-178725822D01*
X82933686Y-178739832D01*
X82934522Y-178745704D01*
X82940582Y-178796907D01*
X82944567Y-178805206D01*
X82946078Y-178814283D01*
X82970558Y-178859651D01*
X82973239Y-178864914D01*
X82992127Y-178904250D01*
X82992130Y-178904254D01*
X82995560Y-178911398D01*
X82999170Y-178915692D01*
X83001102Y-178917624D01*
X83002889Y-178919573D01*
X83002918Y-178919626D01*
X83002788Y-178919745D01*
X83003289Y-178920313D01*
X83006388Y-178926057D01*
X83014033Y-178933124D01*
X83046209Y-178962867D01*
X83049775Y-178966297D01*
X84672095Y-180588617D01*
X84706121Y-180650929D01*
X84709000Y-180677712D01*
X84709000Y-191390000D01*
X84688998Y-191458121D01*
X84635342Y-191504614D01*
X84583000Y-191516000D01*
X30225000Y-191516000D01*
X30156879Y-191495998D01*
X30110386Y-191442342D01*
X30099000Y-191390000D01*
X30099000Y-190999186D01*
X30119002Y-190931065D01*
X30172658Y-190884572D01*
X30212047Y-190873853D01*
X30231056Y-190871889D01*
X30255804Y-190869332D01*
X30255811Y-190869331D01*
X30259197Y-190868981D01*
X30262530Y-190868267D01*
X30262533Y-190868266D01*
X30442820Y-190829616D01*
X30625063Y-190790546D01*
X30980318Y-190673056D01*
X31320807Y-190517887D01*
X31418707Y-190459758D01*
X31639601Y-190328601D01*
X31639606Y-190328598D01*
X31642546Y-190326852D01*
X31941771Y-190102187D01*
X32214983Y-189846521D01*
X32458985Y-189562842D01*
X32469990Y-189546829D01*
X32668992Y-189257280D01*
X32668997Y-189257273D01*
X32670922Y-189254471D01*
X32672534Y-189251477D01*
X32672539Y-189251469D01*
X32846694Y-188928027D01*
X32848316Y-188925015D01*
X32955821Y-188660261D01*
X32987811Y-188581480D01*
X32987813Y-188581475D01*
X32989091Y-188578327D01*
X33091601Y-188218463D01*
X33100350Y-188167278D01*
X33154075Y-187852981D01*
X33154075Y-187852979D01*
X33154647Y-187849634D01*
X33156392Y-187821114D01*
X33173113Y-187547710D01*
X33177490Y-187476152D01*
X33177574Y-187452000D01*
X33157339Y-187078368D01*
X33096870Y-186709107D01*
X32996875Y-186348537D01*
X32994427Y-186342384D01*
X32859783Y-186004039D01*
X32859779Y-186004031D01*
X32858523Y-186000874D01*
X32835060Y-185956559D01*
X32764237Y-185822798D01*
X32683434Y-185670188D01*
X32681534Y-185667382D01*
X32681530Y-185667375D01*
X32505129Y-185406834D01*
X32473654Y-185360345D01*
X32231639Y-185074970D01*
X31960219Y-184817402D01*
X31957512Y-184815340D01*
X31957504Y-184815333D01*
X31665281Y-184592720D01*
X31662569Y-184590654D01*
X31342172Y-184397377D01*
X31339082Y-184395943D01*
X31339077Y-184395940D01*
X31005871Y-184241272D01*
X31005869Y-184241271D01*
X31002775Y-184239835D01*
X30999540Y-184238740D01*
X30999535Y-184238738D01*
X30651583Y-184120963D01*
X30648348Y-184119868D01*
X30283038Y-184038881D01*
X30211173Y-184030947D01*
X30145659Y-184003591D01*
X30105335Y-183945157D01*
X30099000Y-183905708D01*
X30099000Y-181455133D01*
X31675612Y-181455133D01*
X31684325Y-181466653D01*
X31782018Y-181538284D01*
X31789928Y-181543227D01*
X32012890Y-181660533D01*
X32021453Y-181664256D01*
X32259304Y-181747318D01*
X32268313Y-181749732D01*
X32515842Y-181796727D01*
X32525098Y-181797781D01*
X32776857Y-181807673D01*
X32786171Y-181807347D01*
X33036615Y-181779920D01*
X33045792Y-181778219D01*
X33289431Y-181714074D01*
X33298251Y-181711037D01*
X33529736Y-181611583D01*
X33538008Y-181607276D01*
X33752249Y-181474700D01*
X33759188Y-181469658D01*
X33767518Y-181457019D01*
X33761456Y-181446666D01*
X32732812Y-180418022D01*
X32718868Y-180410408D01*
X32717035Y-180410539D01*
X32710420Y-180414790D01*
X31682270Y-181442940D01*
X31675612Y-181455133D01*
X30099000Y-181455133D01*
X30099000Y-180004523D01*
X30957898Y-180004523D01*
X30969987Y-180256175D01*
X30971124Y-180265435D01*
X31020274Y-180512535D01*
X31022768Y-180521528D01*
X31107900Y-180758639D01*
X31111700Y-180767174D01*
X31230946Y-180989101D01*
X31235957Y-180996968D01*
X31299446Y-181081990D01*
X31310704Y-181090439D01*
X31323123Y-181083667D01*
X32347978Y-180058812D01*
X32354356Y-180047132D01*
X33084408Y-180047132D01*
X33084539Y-180048965D01*
X33088790Y-180055580D01*
X34119913Y-181086703D01*
X34132293Y-181093463D01*
X34140634Y-181087219D01*
X34266765Y-180891127D01*
X34271212Y-180882936D01*
X34374691Y-180653222D01*
X34377882Y-180644455D01*
X34446269Y-180401976D01*
X34448129Y-180392834D01*
X34480116Y-180141396D01*
X34480597Y-180135108D01*
X34482847Y-180049160D01*
X34482696Y-180042851D01*
X34463912Y-179790074D01*
X34462536Y-179780868D01*
X34406929Y-179535126D01*
X34404205Y-179526215D01*
X34312888Y-179291392D01*
X34308877Y-179282983D01*
X34183854Y-179064240D01*
X34178643Y-179056514D01*
X34141391Y-179009261D01*
X34129466Y-179000790D01*
X34117934Y-179007276D01*
X33092022Y-180033188D01*
X33084408Y-180047132D01*
X32354356Y-180047132D01*
X32355592Y-180044868D01*
X32355461Y-180043035D01*
X32351210Y-180036420D01*
X31321321Y-179006531D01*
X31308013Y-178999264D01*
X31297974Y-179006386D01*
X31287761Y-179018666D01*
X31282346Y-179026258D01*
X31151646Y-179241646D01*
X31147408Y-179249963D01*
X31049981Y-179482299D01*
X31047020Y-179491149D01*
X30985006Y-179735331D01*
X30983384Y-179744528D01*
X30958143Y-179995198D01*
X30957898Y-180004523D01*
X30099000Y-180004523D01*
X30099000Y-178634803D01*
X31673216Y-178634803D01*
X31677789Y-178644579D01*
X32707188Y-179673978D01*
X32721132Y-179681592D01*
X32722965Y-179681461D01*
X32729580Y-179677210D01*
X33758419Y-178648371D01*
X33764803Y-178636681D01*
X33755391Y-178624570D01*
X33618593Y-178529670D01*
X33610565Y-178524942D01*
X33384593Y-178413505D01*
X33375960Y-178410017D01*
X33135998Y-178333205D01*
X33126938Y-178331029D01*
X32878260Y-178290529D01*
X32868973Y-178289717D01*
X32617053Y-178286419D01*
X32607742Y-178286989D01*
X32358097Y-178320964D01*
X32348978Y-178322902D01*
X32107098Y-178393404D01*
X32098367Y-178396667D01*
X31869558Y-178502151D01*
X31861406Y-178506670D01*
X31682353Y-178624062D01*
X31673216Y-178634803D01*
X30099000Y-178634803D01*
X30099000Y-177799000D01*
X30119002Y-177730879D01*
X30172658Y-177684386D01*
X30225000Y-177673000D01*
X47245000Y-177673000D01*
X47313121Y-177693002D01*
X47359614Y-177746658D01*
X47371000Y-177799000D01*
X47371000Y-182344500D01*
X47350998Y-182412621D01*
X47297342Y-182459114D01*
X47245000Y-182470500D01*
X46619244Y-182470500D01*
X46615848Y-182470869D01*
X46615847Y-182470869D01*
X46565403Y-182476349D01*
X46565402Y-182476349D01*
X46557552Y-182477202D01*
X46550159Y-182479974D01*
X46550157Y-182479974D01*
X46514034Y-182493516D01*
X46422236Y-182527929D01*
X46415057Y-182533309D01*
X46415054Y-182533311D01*
X46355828Y-182577699D01*
X46306596Y-182614596D01*
X46293508Y-182632059D01*
X46225311Y-182723054D01*
X46225309Y-182723057D01*
X46219929Y-182730236D01*
X46216779Y-182738638D01*
X46216777Y-182738642D01*
X46209264Y-182758683D01*
X46166622Y-182815447D01*
X46100060Y-182840146D01*
X46030712Y-182824938D01*
X46002188Y-182803547D01*
X45215311Y-182016670D01*
X45207884Y-182008566D01*
X45189222Y-181986325D01*
X45189221Y-181986324D01*
X45182138Y-181977883D01*
X45147455Y-181957858D01*
X45138194Y-181951958D01*
X45114396Y-181935295D01*
X45114393Y-181935294D01*
X45105366Y-181928973D01*
X45094723Y-181926121D01*
X45090841Y-181924311D01*
X45086804Y-181922842D01*
X45077261Y-181917332D01*
X45066411Y-181915419D01*
X45066409Y-181915418D01*
X45045403Y-181911714D01*
X45037809Y-181910375D01*
X45027094Y-181908000D01*
X44988391Y-181897630D01*
X44977417Y-181898590D01*
X44977415Y-181898590D01*
X44948490Y-181901121D01*
X44937508Y-181901600D01*
X43200469Y-181901600D01*
X43189487Y-181901120D01*
X43160594Y-181898592D01*
X43160593Y-181898592D01*
X43149609Y-181897631D01*
X43138958Y-181900485D01*
X43138957Y-181900485D01*
X43110930Y-181907994D01*
X43100203Y-181910372D01*
X43071596Y-181915417D01*
X43071593Y-181915418D01*
X43060739Y-181917332D01*
X43051195Y-181922842D01*
X43047171Y-181924307D01*
X43043279Y-181926122D01*
X43032634Y-181928974D01*
X43023607Y-181935295D01*
X43023603Y-181935297D01*
X42999816Y-181951952D01*
X42990548Y-181957856D01*
X42965412Y-181972368D01*
X42965407Y-181972372D01*
X42955862Y-181977883D01*
X42948774Y-181986330D01*
X42930120Y-182008561D01*
X42922694Y-182016665D01*
X41427670Y-183511689D01*
X41419566Y-183519116D01*
X41388883Y-183544862D01*
X41368862Y-183579539D01*
X41362958Y-183588806D01*
X41346295Y-183612604D01*
X41346294Y-183612607D01*
X41339973Y-183621634D01*
X41337121Y-183632277D01*
X41335311Y-183636159D01*
X41333842Y-183640196D01*
X41328332Y-183649739D01*
X41326419Y-183660589D01*
X41326418Y-183660591D01*
X41321376Y-183689188D01*
X41319000Y-183699906D01*
X41308630Y-183738609D01*
X41309590Y-183749583D01*
X41309590Y-183749585D01*
X41312121Y-183778510D01*
X41312600Y-183789492D01*
X41312600Y-184336569D01*
X41292598Y-184404690D01*
X41275695Y-184425664D01*
X40939664Y-184761695D01*
X40877352Y-184795721D01*
X40850569Y-184798600D01*
X39667431Y-184798600D01*
X39599310Y-184778598D01*
X39578335Y-184761695D01*
X39479898Y-184663257D01*
X39373305Y-184556664D01*
X39365879Y-184548560D01*
X39347222Y-184526325D01*
X39347221Y-184526324D01*
X39340138Y-184517883D01*
X39305455Y-184497858D01*
X39296194Y-184491958D01*
X39272396Y-184475295D01*
X39272393Y-184475294D01*
X39263366Y-184468973D01*
X39252723Y-184466121D01*
X39248841Y-184464311D01*
X39244804Y-184462842D01*
X39235261Y-184457332D01*
X39224411Y-184455419D01*
X39224409Y-184455418D01*
X39203403Y-184451714D01*
X39195809Y-184450375D01*
X39185094Y-184448000D01*
X39146391Y-184437630D01*
X39135417Y-184438590D01*
X39135415Y-184438590D01*
X39106490Y-184441121D01*
X39095508Y-184441600D01*
X35453492Y-184441600D01*
X35442510Y-184441121D01*
X35413585Y-184438590D01*
X35413583Y-184438590D01*
X35402609Y-184437630D01*
X35363906Y-184448000D01*
X35353191Y-184450375D01*
X35345597Y-184451714D01*
X35324591Y-184455418D01*
X35324589Y-184455419D01*
X35313739Y-184457332D01*
X35304196Y-184462842D01*
X35300159Y-184464311D01*
X35296277Y-184466121D01*
X35285634Y-184468973D01*
X35276607Y-184475294D01*
X35276604Y-184475295D01*
X35252806Y-184491958D01*
X35243545Y-184497858D01*
X35208862Y-184517883D01*
X35201774Y-184526330D01*
X35183120Y-184548561D01*
X35175694Y-184556665D01*
X34784292Y-184948067D01*
X34721980Y-184982093D01*
X34687447Y-184983533D01*
X34687447Y-184983952D01*
X34679188Y-184983952D01*
X34671000Y-184982874D01*
X34662812Y-184983952D01*
X34533179Y-185001018D01*
X34533177Y-185001019D01*
X34524993Y-185002096D01*
X34388937Y-185058453D01*
X34272103Y-185148103D01*
X34182453Y-185264937D01*
X34126096Y-185400993D01*
X34125019Y-185409177D01*
X34125018Y-185409179D01*
X34110737Y-185517658D01*
X34106874Y-185547000D01*
X34107952Y-185555188D01*
X34124566Y-185681382D01*
X34126096Y-185693007D01*
X34182453Y-185829063D01*
X34272103Y-185945897D01*
X34388937Y-186035547D01*
X34524993Y-186091904D01*
X34533175Y-186092981D01*
X34533178Y-186092982D01*
X34637773Y-186106752D01*
X34702700Y-186135475D01*
X34741791Y-186194740D01*
X34746248Y-186215227D01*
X34759630Y-186316870D01*
X34761096Y-186328007D01*
X34817453Y-186464063D01*
X34907103Y-186580897D01*
X35023937Y-186670547D01*
X35159993Y-186726904D01*
X35168177Y-186727981D01*
X35168179Y-186727982D01*
X35297812Y-186745048D01*
X35306000Y-186746126D01*
X35314188Y-186745048D01*
X35443821Y-186727982D01*
X35443823Y-186727981D01*
X35452007Y-186726904D01*
X35588063Y-186670547D01*
X35704897Y-186580897D01*
X35794547Y-186464063D01*
X35850904Y-186328007D01*
X35852904Y-186312821D01*
X35868564Y-186193867D01*
X35870126Y-186182000D01*
X35865891Y-186149829D01*
X35851982Y-186044179D01*
X35851981Y-186044177D01*
X35850904Y-186035993D01*
X35794547Y-185899937D01*
X35707316Y-185786255D01*
X35681716Y-185720035D01*
X35695981Y-185650487D01*
X35718184Y-185620457D01*
X35792336Y-185546305D01*
X35854648Y-185512279D01*
X35881431Y-185509400D01*
X36833383Y-185509400D01*
X36901504Y-185529402D01*
X36947997Y-185583058D01*
X36958101Y-185653332D01*
X36945650Y-185692602D01*
X36938004Y-185707608D01*
X36938003Y-185707612D01*
X36933502Y-185716445D01*
X36918500Y-185811166D01*
X36918500Y-187124834D01*
X36933502Y-187219555D01*
X36938005Y-187228392D01*
X36938006Y-187228396D01*
X36950766Y-187253438D01*
X36964500Y-187310641D01*
X36964500Y-187642928D01*
X36963145Y-187655058D01*
X36963627Y-187655097D01*
X36962907Y-187664044D01*
X36960926Y-187672800D01*
X36961482Y-187681760D01*
X36964258Y-187726508D01*
X36964500Y-187734310D01*
X36964500Y-187750513D01*
X36965136Y-187754953D01*
X36965984Y-187760878D01*
X36967013Y-187770928D01*
X36969945Y-187818177D01*
X36972994Y-187826623D01*
X36973593Y-187829514D01*
X36977822Y-187846480D01*
X36978648Y-187849305D01*
X36979920Y-187858187D01*
X36999522Y-187901298D01*
X37003327Y-187910647D01*
X37019404Y-187955181D01*
X37024699Y-187962429D01*
X37026080Y-187965027D01*
X37034915Y-187980145D01*
X37036494Y-187982614D01*
X37040208Y-187990782D01*
X37046064Y-187997578D01*
X37071115Y-188026652D01*
X37077401Y-188034569D01*
X37082548Y-188041615D01*
X37082553Y-188041620D01*
X37085425Y-188045552D01*
X37096400Y-188056527D01*
X37102758Y-188063374D01*
X37135287Y-188101127D01*
X37142822Y-188106011D01*
X37149066Y-188111458D01*
X37160931Y-188121058D01*
X37690177Y-188650304D01*
X37697800Y-188659844D01*
X37698168Y-188659530D01*
X37703986Y-188666366D01*
X37708776Y-188673958D01*
X37715504Y-188679900D01*
X37749125Y-188709593D01*
X37754812Y-188714939D01*
X37766255Y-188726382D01*
X37773780Y-188732022D01*
X37774630Y-188732659D01*
X37782459Y-188739033D01*
X37817951Y-188770378D01*
X37826074Y-188774192D01*
X37828562Y-188775826D01*
X37843523Y-188784814D01*
X37846108Y-188786229D01*
X37853295Y-188791616D01*
X37897642Y-188808241D01*
X37906958Y-188812167D01*
X37949800Y-188832281D01*
X37958669Y-188833662D01*
X37961502Y-188834528D01*
X37978389Y-188838958D01*
X37981274Y-188839592D01*
X37989684Y-188842745D01*
X38018842Y-188844912D01*
X38036906Y-188846254D01*
X38046952Y-188847408D01*
X38055575Y-188848751D01*
X38055578Y-188848751D01*
X38060386Y-188849500D01*
X38075906Y-188849500D01*
X38085243Y-188849846D01*
X38134941Y-188853539D01*
X38143720Y-188851665D01*
X38151978Y-188851102D01*
X38167161Y-188849500D01*
X42282182Y-188849500D01*
X42350303Y-188869502D01*
X42371278Y-188886405D01*
X42897183Y-189412311D01*
X42904800Y-189421845D01*
X42905169Y-189421531D01*
X42910984Y-189428364D01*
X42915776Y-189435958D01*
X42927799Y-189446576D01*
X42956116Y-189471585D01*
X42961803Y-189476931D01*
X42973255Y-189488383D01*
X42976846Y-189491074D01*
X42976848Y-189491076D01*
X42981630Y-189494660D01*
X42989473Y-189501045D01*
X42993821Y-189504885D01*
X43024951Y-189532378D01*
X43033078Y-189536194D01*
X43035534Y-189537807D01*
X43050547Y-189546829D01*
X43053118Y-189548237D01*
X43060296Y-189553616D01*
X43068696Y-189556765D01*
X43068698Y-189556766D01*
X43104640Y-189570239D01*
X43113943Y-189574159D01*
X43156800Y-189594281D01*
X43165669Y-189595662D01*
X43168495Y-189596526D01*
X43185399Y-189600960D01*
X43188275Y-189601592D01*
X43196684Y-189604745D01*
X43205634Y-189605410D01*
X43243906Y-189608254D01*
X43253952Y-189609408D01*
X43262575Y-189610751D01*
X43262578Y-189610751D01*
X43267386Y-189611500D01*
X43282906Y-189611500D01*
X43292243Y-189611846D01*
X43341941Y-189615539D01*
X43350720Y-189613665D01*
X43358978Y-189613102D01*
X43374161Y-189611500D01*
X47680928Y-189611500D01*
X47693058Y-189612855D01*
X47693097Y-189612373D01*
X47702044Y-189613093D01*
X47710800Y-189615074D01*
X47764508Y-189611742D01*
X47772310Y-189611500D01*
X47788513Y-189611500D01*
X47797429Y-189610223D01*
X47798878Y-189610016D01*
X47808928Y-189608987D01*
X47847216Y-189606611D01*
X47856177Y-189606055D01*
X47864623Y-189603006D01*
X47867514Y-189602407D01*
X47884480Y-189598178D01*
X47887305Y-189597352D01*
X47896187Y-189596080D01*
X47939298Y-189576478D01*
X47948649Y-189572672D01*
X47950475Y-189572013D01*
X47993181Y-189556596D01*
X48000429Y-189551301D01*
X48003027Y-189549920D01*
X48018145Y-189541085D01*
X48020614Y-189539506D01*
X48028782Y-189535792D01*
X48064653Y-189504884D01*
X48072569Y-189498599D01*
X48079615Y-189493452D01*
X48079620Y-189493447D01*
X48083552Y-189490575D01*
X48094527Y-189479600D01*
X48101375Y-189473242D01*
X48132323Y-189446576D01*
X48132324Y-189446575D01*
X48139127Y-189440713D01*
X48144011Y-189433178D01*
X48149458Y-189426934D01*
X48159058Y-189415069D01*
X49830723Y-187743405D01*
X49893035Y-187709379D01*
X49919818Y-187706500D01*
X60444428Y-187706500D01*
X60456558Y-187707855D01*
X60456597Y-187707373D01*
X60465544Y-187708093D01*
X60474300Y-187710074D01*
X60528008Y-187706742D01*
X60535810Y-187706500D01*
X60552013Y-187706500D01*
X60560929Y-187705223D01*
X60562378Y-187705016D01*
X60572428Y-187703987D01*
X60610716Y-187701611D01*
X60619677Y-187701055D01*
X60628123Y-187698006D01*
X60631014Y-187697407D01*
X60647980Y-187693178D01*
X60650805Y-187692352D01*
X60659687Y-187691080D01*
X60702798Y-187671478D01*
X60712149Y-187667672D01*
X60748235Y-187654645D01*
X60756681Y-187651596D01*
X60763929Y-187646301D01*
X60766527Y-187644920D01*
X60781645Y-187636085D01*
X60784114Y-187634506D01*
X60792282Y-187630792D01*
X60828153Y-187599884D01*
X60836069Y-187593599D01*
X60843115Y-187588452D01*
X60843120Y-187588447D01*
X60847052Y-187585575D01*
X60858027Y-187574600D01*
X60864875Y-187568242D01*
X60895823Y-187541576D01*
X60895824Y-187541575D01*
X60902627Y-187535713D01*
X60907511Y-187528178D01*
X60912958Y-187521934D01*
X60922558Y-187510069D01*
X62031308Y-186401320D01*
X62040845Y-186393700D01*
X62040531Y-186393331D01*
X62047364Y-186387516D01*
X62054958Y-186382724D01*
X62090585Y-186342383D01*
X62095931Y-186336697D01*
X62107383Y-186325245D01*
X62110076Y-186321652D01*
X62113660Y-186316870D01*
X62120045Y-186309027D01*
X62145436Y-186280277D01*
X62151378Y-186273549D01*
X62155194Y-186265422D01*
X62156807Y-186262966D01*
X62165823Y-186247963D01*
X62167234Y-186245385D01*
X62172616Y-186238204D01*
X62189239Y-186193863D01*
X62193164Y-186184548D01*
X62196870Y-186176655D01*
X62213281Y-186141700D01*
X62214663Y-186132825D01*
X62215527Y-186129998D01*
X62219955Y-186113121D01*
X62220591Y-186110228D01*
X62223745Y-186101815D01*
X62227256Y-186054575D01*
X62228407Y-186044556D01*
X62229752Y-186035920D01*
X62229752Y-186035916D01*
X62230500Y-186031114D01*
X62230500Y-186015590D01*
X62230847Y-186006252D01*
X62233875Y-185965510D01*
X62233875Y-185965509D01*
X62234540Y-185956559D01*
X62232666Y-185947782D01*
X62232104Y-185939531D01*
X62230500Y-185924334D01*
X62230500Y-185587963D01*
X62250502Y-185519842D01*
X62304158Y-185473349D01*
X62374432Y-185463245D01*
X62400729Y-185469981D01*
X62415391Y-185475478D01*
X62430649Y-185479105D01*
X62481514Y-185484631D01*
X62488328Y-185485000D01*
X63410885Y-185485000D01*
X63426124Y-185480525D01*
X63427329Y-185479135D01*
X63429000Y-185471452D01*
X63429000Y-185466884D01*
X63937000Y-185466884D01*
X63941475Y-185482123D01*
X63942865Y-185483328D01*
X63950548Y-185484999D01*
X64877669Y-185484999D01*
X64884490Y-185484629D01*
X64935352Y-185479105D01*
X64950604Y-185475479D01*
X65071054Y-185430324D01*
X65086649Y-185421786D01*
X65188724Y-185345285D01*
X65201285Y-185332724D01*
X65277786Y-185230649D01*
X65286324Y-185215054D01*
X65303512Y-185169204D01*
X66206151Y-185169204D01*
X66210720Y-185175735D01*
X66423736Y-185306271D01*
X66432530Y-185310752D01*
X66664492Y-185406834D01*
X66673877Y-185409883D01*
X66918017Y-185468496D01*
X66927764Y-185470039D01*
X67178070Y-185489739D01*
X67187930Y-185489739D01*
X67438236Y-185470039D01*
X67447983Y-185468496D01*
X67692123Y-185409883D01*
X67701508Y-185406834D01*
X67933470Y-185310752D01*
X67942264Y-185306271D01*
X68153875Y-185176596D01*
X68158699Y-185169204D01*
X69706151Y-185169204D01*
X69710720Y-185175735D01*
X69923736Y-185306271D01*
X69932530Y-185310752D01*
X70164492Y-185406834D01*
X70173877Y-185409883D01*
X70418017Y-185468496D01*
X70427764Y-185470039D01*
X70678070Y-185489739D01*
X70687930Y-185489739D01*
X70938236Y-185470039D01*
X70947983Y-185468496D01*
X71192123Y-185409883D01*
X71201508Y-185406834D01*
X71433470Y-185310752D01*
X71442264Y-185306271D01*
X71653875Y-185176596D01*
X71659922Y-185167330D01*
X71653915Y-185157125D01*
X70695812Y-184199022D01*
X70681868Y-184191408D01*
X70680035Y-184191539D01*
X70673420Y-184195790D01*
X69713544Y-185155666D01*
X69706151Y-185169204D01*
X68158699Y-185169204D01*
X68159922Y-185167330D01*
X68153915Y-185157125D01*
X67195812Y-184199022D01*
X67181868Y-184191408D01*
X67180035Y-184191539D01*
X67173420Y-184195790D01*
X66213544Y-185155666D01*
X66206151Y-185169204D01*
X65303512Y-185169204D01*
X65331478Y-185094606D01*
X65335105Y-185079351D01*
X65340631Y-185028486D01*
X65341000Y-185021672D01*
X65341000Y-184321393D01*
X65361002Y-184253272D01*
X65414658Y-184206779D01*
X65484932Y-184196675D01*
X65549512Y-184226169D01*
X65589519Y-184291980D01*
X65600116Y-184336120D01*
X65603166Y-184345508D01*
X65699248Y-184577470D01*
X65703729Y-184586264D01*
X65833404Y-184797875D01*
X65842670Y-184803922D01*
X65852875Y-184797915D01*
X66810978Y-183839812D01*
X66817356Y-183828132D01*
X67547408Y-183828132D01*
X67547539Y-183829965D01*
X67551790Y-183836580D01*
X68511666Y-184796456D01*
X68525204Y-184803849D01*
X68531735Y-184799280D01*
X68662271Y-184586264D01*
X68666752Y-184577470D01*
X68762834Y-184345508D01*
X68765883Y-184336123D01*
X68810481Y-184150358D01*
X68845833Y-184088789D01*
X68908860Y-184056106D01*
X68979551Y-184062686D01*
X69035462Y-184106441D01*
X69055519Y-184150358D01*
X69100117Y-184336123D01*
X69103166Y-184345508D01*
X69199248Y-184577470D01*
X69203729Y-184586264D01*
X69333404Y-184797875D01*
X69342670Y-184803922D01*
X69352875Y-184797915D01*
X70310978Y-183839812D01*
X70317356Y-183828132D01*
X71047408Y-183828132D01*
X71047539Y-183829965D01*
X71051790Y-183836580D01*
X72011666Y-184796456D01*
X72025204Y-184803849D01*
X72031735Y-184799280D01*
X72162271Y-184586264D01*
X72166752Y-184577470D01*
X72262834Y-184345508D01*
X72265883Y-184336123D01*
X72324496Y-184091983D01*
X72326039Y-184082236D01*
X72345739Y-183831930D01*
X72345739Y-183822070D01*
X72326039Y-183571764D01*
X72324496Y-183562017D01*
X72265883Y-183317877D01*
X72262834Y-183308492D01*
X72166752Y-183076530D01*
X72162271Y-183067736D01*
X72032596Y-182856125D01*
X72023330Y-182850078D01*
X72013125Y-182856085D01*
X71055022Y-183814188D01*
X71047408Y-183828132D01*
X70317356Y-183828132D01*
X70318592Y-183825868D01*
X70318461Y-183824035D01*
X70314210Y-183817420D01*
X69354334Y-182857544D01*
X69340796Y-182850151D01*
X69334265Y-182854720D01*
X69203729Y-183067736D01*
X69199248Y-183076530D01*
X69103166Y-183308492D01*
X69100117Y-183317877D01*
X69055519Y-183503642D01*
X69020167Y-183565211D01*
X68957140Y-183597894D01*
X68886449Y-183591314D01*
X68830538Y-183547559D01*
X68810481Y-183503642D01*
X68765883Y-183317877D01*
X68762834Y-183308492D01*
X68666752Y-183076530D01*
X68662271Y-183067736D01*
X68532596Y-182856125D01*
X68523330Y-182850078D01*
X68513125Y-182856085D01*
X67555022Y-183814188D01*
X67547408Y-183828132D01*
X66817356Y-183828132D01*
X66818592Y-183825868D01*
X66818461Y-183824035D01*
X66814210Y-183817420D01*
X65854334Y-182857544D01*
X65840796Y-182850151D01*
X65834265Y-182854720D01*
X65703729Y-183067736D01*
X65699248Y-183076530D01*
X65603166Y-183308492D01*
X65600114Y-183317886D01*
X65589517Y-183362024D01*
X65554165Y-183423593D01*
X65491139Y-183456275D01*
X65420448Y-183449694D01*
X65364536Y-183405940D01*
X65340999Y-183332609D01*
X65340999Y-182632331D01*
X65340629Y-182625510D01*
X65335105Y-182574648D01*
X65331479Y-182559396D01*
X65304215Y-182486670D01*
X66206078Y-182486670D01*
X66212085Y-182496875D01*
X67170188Y-183454978D01*
X67184132Y-183462592D01*
X67185965Y-183462461D01*
X67192580Y-183458210D01*
X68152456Y-182498334D01*
X68158826Y-182486670D01*
X69706078Y-182486670D01*
X69712085Y-182496875D01*
X70670188Y-183454978D01*
X70684132Y-183462592D01*
X70685965Y-183462461D01*
X70692580Y-183458210D01*
X71498857Y-182651933D01*
X73962500Y-182651933D01*
X73962501Y-185002066D01*
X73966401Y-185021672D01*
X73974716Y-185063479D01*
X73977266Y-185076301D01*
X73984161Y-185086620D01*
X73984162Y-185086622D01*
X73992972Y-185099807D01*
X74033516Y-185160484D01*
X74117699Y-185216734D01*
X74191933Y-185231500D01*
X75366810Y-185231500D01*
X76542066Y-185231499D01*
X76577818Y-185224388D01*
X76604126Y-185219156D01*
X76604128Y-185219155D01*
X76616301Y-185216734D01*
X76626621Y-185209839D01*
X76626622Y-185209838D01*
X76687434Y-185169204D01*
X77890151Y-185169204D01*
X77894720Y-185175735D01*
X78107736Y-185306271D01*
X78116530Y-185310752D01*
X78348492Y-185406834D01*
X78357877Y-185409883D01*
X78602017Y-185468496D01*
X78611764Y-185470039D01*
X78862070Y-185489739D01*
X78871930Y-185489739D01*
X79122236Y-185470039D01*
X79131983Y-185468496D01*
X79376123Y-185409883D01*
X79385508Y-185406834D01*
X79617470Y-185310752D01*
X79626264Y-185306271D01*
X79837875Y-185176596D01*
X79843922Y-185167330D01*
X79837915Y-185157125D01*
X78879812Y-184199022D01*
X78865868Y-184191408D01*
X78864035Y-184191539D01*
X78857420Y-184195790D01*
X77897544Y-185155666D01*
X77890151Y-185169204D01*
X76687434Y-185169204D01*
X76690168Y-185167377D01*
X76700484Y-185160484D01*
X76756734Y-185076301D01*
X76771500Y-185002067D01*
X76771500Y-183831930D01*
X77204261Y-183831930D01*
X77223961Y-184082236D01*
X77225504Y-184091983D01*
X77284117Y-184336123D01*
X77287166Y-184345508D01*
X77383248Y-184577470D01*
X77387729Y-184586264D01*
X77517404Y-184797875D01*
X77526670Y-184803922D01*
X77536875Y-184797915D01*
X78494978Y-183839812D01*
X78501356Y-183828132D01*
X79231408Y-183828132D01*
X79231539Y-183829965D01*
X79235790Y-183836580D01*
X80195666Y-184796456D01*
X80209204Y-184803849D01*
X80215735Y-184799280D01*
X80346271Y-184586264D01*
X80350752Y-184577470D01*
X80446834Y-184345508D01*
X80449883Y-184336123D01*
X80508496Y-184091983D01*
X80510039Y-184082236D01*
X80529739Y-183831930D01*
X80529739Y-183822070D01*
X80527417Y-183792567D01*
X80958107Y-183792567D01*
X80958404Y-183797720D01*
X80958404Y-183797723D01*
X80969940Y-183997798D01*
X80971401Y-184023139D01*
X80972538Y-184028185D01*
X80972539Y-184028191D01*
X80980313Y-184062686D01*
X81022176Y-184248442D01*
X81066789Y-184358311D01*
X81106220Y-184455418D01*
X81109066Y-184462428D01*
X81229740Y-184659349D01*
X81233124Y-184663255D01*
X81233125Y-184663257D01*
X81248044Y-184680480D01*
X81380955Y-184833916D01*
X81558651Y-184981442D01*
X81563103Y-184984044D01*
X81563108Y-184984047D01*
X81723159Y-185077573D01*
X81758056Y-185097965D01*
X81973814Y-185180355D01*
X81978880Y-185181386D01*
X81978881Y-185181386D01*
X82010712Y-185187862D01*
X82200132Y-185226400D01*
X82330323Y-185231174D01*
X82425767Y-185234674D01*
X82425771Y-185234674D01*
X82430931Y-185234863D01*
X82436051Y-185234207D01*
X82436053Y-185234207D01*
X82507088Y-185225107D01*
X82660013Y-185205517D01*
X82664961Y-185204032D01*
X82664968Y-185204031D01*
X82854254Y-185147242D01*
X82881226Y-185139150D01*
X83088629Y-185037544D01*
X83092834Y-185034544D01*
X83092840Y-185034541D01*
X83272449Y-184906427D01*
X83272451Y-184906425D01*
X83276653Y-184903428D01*
X83440247Y-184740404D01*
X83472094Y-184696085D01*
X83572000Y-184557050D01*
X83575018Y-184552850D01*
X83577389Y-184548054D01*
X83651055Y-184399000D01*
X83677347Y-184345803D01*
X83705460Y-184253272D01*
X83742982Y-184129775D01*
X83742983Y-184129769D01*
X83744486Y-184124823D01*
X83761574Y-183995026D01*
X83774194Y-183899167D01*
X83774194Y-183899161D01*
X83774631Y-183895845D01*
X83775366Y-183865785D01*
X83776232Y-183830364D01*
X83776232Y-183830360D01*
X83776314Y-183827000D01*
X83757390Y-183596822D01*
X83701126Y-183372826D01*
X83609033Y-183161028D01*
X83483585Y-182967114D01*
X83328150Y-182796293D01*
X83235413Y-182723054D01*
X83150956Y-182656353D01*
X83150951Y-182656350D01*
X83146902Y-182653152D01*
X83142386Y-182650659D01*
X83142383Y-182650657D01*
X82949234Y-182544033D01*
X82949230Y-182544031D01*
X82944710Y-182541536D01*
X82939841Y-182539812D01*
X82939837Y-182539810D01*
X82731878Y-182466168D01*
X82731874Y-182466167D01*
X82727003Y-182464442D01*
X82721913Y-182463535D01*
X82721908Y-182463534D01*
X82574435Y-182437266D01*
X82499628Y-182423941D01*
X82413124Y-182422884D01*
X82273861Y-182421182D01*
X82273859Y-182421182D01*
X82268691Y-182421119D01*
X82040394Y-182456053D01*
X81820869Y-182527805D01*
X81816277Y-182530195D01*
X81816278Y-182530195D01*
X81640353Y-182621776D01*
X81616010Y-182634448D01*
X81611877Y-182637551D01*
X81611874Y-182637553D01*
X81435454Y-182770013D01*
X81431319Y-182773118D01*
X81271757Y-182940090D01*
X81141609Y-183130881D01*
X81139435Y-183135565D01*
X81139433Y-183135568D01*
X81047409Y-183333817D01*
X81044369Y-183340366D01*
X80982649Y-183562921D01*
X80958107Y-183792567D01*
X80527417Y-183792567D01*
X80510039Y-183571764D01*
X80508496Y-183562017D01*
X80449883Y-183317877D01*
X80446834Y-183308492D01*
X80350752Y-183076530D01*
X80346271Y-183067736D01*
X80216596Y-182856125D01*
X80207330Y-182850078D01*
X80197125Y-182856085D01*
X79239022Y-183814188D01*
X79231408Y-183828132D01*
X78501356Y-183828132D01*
X78502592Y-183825868D01*
X78502461Y-183824035D01*
X78498210Y-183817420D01*
X77538334Y-182857544D01*
X77524796Y-182850151D01*
X77518265Y-182854720D01*
X77387729Y-183067736D01*
X77383248Y-183076530D01*
X77287166Y-183308492D01*
X77284117Y-183317877D01*
X77225504Y-183562017D01*
X77223961Y-183571764D01*
X77204261Y-183822070D01*
X77204261Y-183831930D01*
X76771500Y-183831930D01*
X76771499Y-182651934D01*
X76764073Y-182614596D01*
X76759156Y-182589874D01*
X76759155Y-182589872D01*
X76756734Y-182577699D01*
X76732571Y-182541536D01*
X76707377Y-182503832D01*
X76700484Y-182493516D01*
X76690238Y-182486670D01*
X77890078Y-182486670D01*
X77896085Y-182496875D01*
X78854188Y-183454978D01*
X78868132Y-183462592D01*
X78869965Y-183462461D01*
X78876580Y-183458210D01*
X79836456Y-182498334D01*
X79843849Y-182484796D01*
X79839280Y-182478265D01*
X79626264Y-182347729D01*
X79617470Y-182343248D01*
X79385508Y-182247166D01*
X79376123Y-182244117D01*
X79131983Y-182185504D01*
X79122236Y-182183961D01*
X78871930Y-182164261D01*
X78862070Y-182164261D01*
X78611764Y-182183961D01*
X78602017Y-182185504D01*
X78357877Y-182244117D01*
X78348492Y-182247166D01*
X78116530Y-182343248D01*
X78107736Y-182347729D01*
X77896125Y-182477404D01*
X77890078Y-182486670D01*
X76690238Y-182486670D01*
X76616301Y-182437266D01*
X76542067Y-182422500D01*
X75367190Y-182422500D01*
X74191934Y-182422501D01*
X74156182Y-182429612D01*
X74129874Y-182434844D01*
X74129872Y-182434845D01*
X74117699Y-182437266D01*
X74107379Y-182444161D01*
X74107378Y-182444162D01*
X74067961Y-182470500D01*
X74033516Y-182493516D01*
X73977266Y-182577699D01*
X73962500Y-182651933D01*
X71498857Y-182651933D01*
X71652456Y-182498334D01*
X71659849Y-182484796D01*
X71655280Y-182478265D01*
X71442264Y-182347729D01*
X71433470Y-182343248D01*
X71201508Y-182247166D01*
X71192123Y-182244117D01*
X70947983Y-182185504D01*
X70938236Y-182183961D01*
X70687930Y-182164261D01*
X70678070Y-182164261D01*
X70427764Y-182183961D01*
X70418017Y-182185504D01*
X70173877Y-182244117D01*
X70164492Y-182247166D01*
X69932530Y-182343248D01*
X69923736Y-182347729D01*
X69712125Y-182477404D01*
X69706078Y-182486670D01*
X68158826Y-182486670D01*
X68159849Y-182484796D01*
X68155280Y-182478265D01*
X67942264Y-182347729D01*
X67933470Y-182343248D01*
X67701508Y-182247166D01*
X67692123Y-182244117D01*
X67447983Y-182185504D01*
X67438236Y-182183961D01*
X67187930Y-182164261D01*
X67178070Y-182164261D01*
X66927764Y-182183961D01*
X66918017Y-182185504D01*
X66673877Y-182244117D01*
X66664492Y-182247166D01*
X66432530Y-182343248D01*
X66423736Y-182347729D01*
X66212125Y-182477404D01*
X66206078Y-182486670D01*
X65304215Y-182486670D01*
X65286324Y-182438946D01*
X65277786Y-182423351D01*
X65201285Y-182321276D01*
X65188724Y-182308715D01*
X65086649Y-182232214D01*
X65071054Y-182223676D01*
X64950606Y-182178522D01*
X64935351Y-182174895D01*
X64884486Y-182169369D01*
X64877672Y-182169000D01*
X63955115Y-182169000D01*
X63939876Y-182173475D01*
X63938671Y-182174865D01*
X63937000Y-182182548D01*
X63937000Y-185466884D01*
X63429000Y-185466884D01*
X63429000Y-182187116D01*
X63424525Y-182171877D01*
X63423135Y-182170672D01*
X63415452Y-182169001D01*
X62488331Y-182169001D01*
X62481510Y-182169371D01*
X62430648Y-182174895D01*
X62415393Y-182178522D01*
X62400729Y-182184019D01*
X62329922Y-182189202D01*
X62267553Y-182155281D01*
X62233424Y-182093025D01*
X62230500Y-182066037D01*
X62230500Y-179323000D01*
X62250502Y-179254879D01*
X62304158Y-179208386D01*
X62356500Y-179197000D01*
X68199000Y-179197000D01*
X68199000Y-176656000D01*
X68219002Y-176587879D01*
X68272658Y-176541386D01*
X68325000Y-176530000D01*
X73100564Y-176530000D01*
X73168685Y-176550002D01*
G37*
G04 #@! TD.AperFunction*
G04 #@! TA.AperFunction,Conductor*
G36*
X46153576Y-185464002D02*
G01*
X46200069Y-185517658D01*
X46203437Y-185525771D01*
X46219929Y-185569764D01*
X46225309Y-185576943D01*
X46225311Y-185576946D01*
X46244296Y-185602277D01*
X46306596Y-185685404D01*
X46313776Y-185690785D01*
X46415054Y-185766689D01*
X46415057Y-185766691D01*
X46422236Y-185772071D01*
X46511954Y-185805704D01*
X46550157Y-185820026D01*
X46550159Y-185820026D01*
X46557552Y-185822798D01*
X46565402Y-185823651D01*
X46565403Y-185823651D01*
X46615221Y-185829063D01*
X46619244Y-185829500D01*
X47245000Y-185829500D01*
X47313121Y-185849502D01*
X47359614Y-185903158D01*
X47371000Y-185955500D01*
X47371000Y-186963906D01*
X47350998Y-187032027D01*
X47297342Y-187078520D01*
X47227068Y-187088624D01*
X47162488Y-187059130D01*
X47144174Y-187039471D01*
X47135571Y-187027992D01*
X47130189Y-187020811D01*
X47123008Y-187015429D01*
X47023166Y-186940601D01*
X47023165Y-186940601D01*
X47015982Y-186935217D01*
X46889745Y-186887894D01*
X46889740Y-186887892D01*
X46889738Y-186887891D01*
X46882342Y-186885119D01*
X46821415Y-186878500D01*
X46530543Y-186878500D01*
X46239586Y-186878501D01*
X46236192Y-186878870D01*
X46236186Y-186878870D01*
X46186517Y-186884265D01*
X46186514Y-186884266D01*
X46178658Y-186885119D01*
X46045018Y-186935217D01*
X46037835Y-186940601D01*
X46037834Y-186940601D01*
X45937992Y-187015429D01*
X45930811Y-187020811D01*
X45925429Y-187027992D01*
X45852850Y-187124834D01*
X45845217Y-187135018D01*
X45842065Y-187143426D01*
X45800825Y-187253438D01*
X45795119Y-187268658D01*
X45788500Y-187329585D01*
X45788501Y-188336414D01*
X45788870Y-188339808D01*
X45788870Y-188339814D01*
X45790893Y-188358432D01*
X45795119Y-188397342D01*
X45797893Y-188404741D01*
X45805215Y-188424273D01*
X45810397Y-188495080D01*
X45776474Y-188557448D01*
X45714218Y-188591576D01*
X45687232Y-188594500D01*
X43569817Y-188594500D01*
X43501696Y-188574498D01*
X43480722Y-188557595D01*
X43090405Y-188167278D01*
X43056379Y-188104966D01*
X43053500Y-188078183D01*
X43053500Y-185630213D01*
X43073502Y-185562092D01*
X43090406Y-185541116D01*
X43121338Y-185510185D01*
X43183651Y-185476161D01*
X43254466Y-185481227D01*
X43311301Y-185523775D01*
X43328413Y-185555051D01*
X43333929Y-185569764D01*
X43339309Y-185576943D01*
X43339311Y-185576946D01*
X43358296Y-185602277D01*
X43420596Y-185685404D01*
X43427776Y-185690785D01*
X43529054Y-185766689D01*
X43529057Y-185766691D01*
X43536236Y-185772071D01*
X43625954Y-185805704D01*
X43664157Y-185820026D01*
X43664159Y-185820026D01*
X43671552Y-185822798D01*
X43679402Y-185823651D01*
X43679403Y-185823651D01*
X43729221Y-185829063D01*
X43733244Y-185829500D01*
X44728756Y-185829500D01*
X44732779Y-185829063D01*
X44782597Y-185823651D01*
X44782598Y-185823651D01*
X44790448Y-185822798D01*
X44797841Y-185820026D01*
X44797843Y-185820026D01*
X44836046Y-185805704D01*
X44925764Y-185772071D01*
X44932943Y-185766691D01*
X44932946Y-185766689D01*
X45034224Y-185690785D01*
X45041404Y-185685404D01*
X45103704Y-185602277D01*
X45122689Y-185576946D01*
X45122691Y-185576943D01*
X45128071Y-185569764D01*
X45144563Y-185525771D01*
X45187204Y-185469006D01*
X45253765Y-185444306D01*
X45262545Y-185444000D01*
X46085455Y-185444000D01*
X46153576Y-185464002D01*
G37*
G04 #@! TD.AperFunction*
G04 #@! TA.AperFunction,Conductor*
G36*
X67760121Y-170200002D02*
G01*
X67806614Y-170253658D01*
X67818000Y-170306000D01*
X67818000Y-172975000D01*
X67797998Y-173043121D01*
X67744342Y-173089614D01*
X67692000Y-173101000D01*
X62610000Y-173101000D01*
X62541879Y-173080998D01*
X62495386Y-173027342D01*
X62484000Y-172975000D01*
X62484000Y-170306000D01*
X62504002Y-170237879D01*
X62557658Y-170191386D01*
X62610000Y-170180000D01*
X67692000Y-170180000D01*
X67760121Y-170200002D01*
G37*
G04 #@! TD.AperFunction*
M02*
