G04 #@! TF.GenerationSoftware,KiCad,Pcbnew,6.0.2+dfsg-1*
G04 #@! TF.CreationDate,2023-06-22T08:15:41-06:00*
G04 #@! TF.ProjectId,ckt-soundplay,636b742d-736f-4756-9e64-706c61792e6b,rev?*
G04 #@! TF.SameCoordinates,Original*
G04 #@! TF.FileFunction,Paste,Top*
G04 #@! TF.FilePolarity,Positive*
%FSLAX46Y46*%
G04 Gerber Fmt 4.6, Leading zero omitted, Abs format (unit mm)*
G04 Created by KiCad (PCBNEW 6.0.2+dfsg-1) date 2023-06-22 08:15:41*
%MOMM*%
%LPD*%
G01*
G04 APERTURE LIST*
%ADD10R,1.400000X2.100000*%
%ADD11R,1.500000X0.900000*%
%ADD12R,0.900000X1.500000*%
%ADD13R,0.900000X0.900000*%
%ADD14R,5.562600X2.108200*%
%ADD15R,0.700000X1.200000*%
%ADD16R,1.000000X0.800000*%
%ADD17R,1.000000X1.200000*%
%ADD18R,1.300000X1.900000*%
%ADD19R,1.000000X2.800000*%
%ADD20R,2.300000X0.500000*%
%ADD21R,2.500000X2.000000*%
%ADD22R,0.900000X1.200000*%
%ADD23R,0.812800X0.254000*%
%ADD24R,0.254000X0.812800*%
%ADD25R,1.244600X1.244600*%
G04 APERTURE END LIST*
G36*
G01*
X35876001Y-144874000D02*
X35876001Y-143924000D01*
G75*
G02*
X36126001Y-143674000I250000J0D01*
G01*
X36626001Y-143674000D01*
G75*
G02*
X36876001Y-143924000I0J-250000D01*
G01*
X36876001Y-144874000D01*
G75*
G02*
X36626001Y-145124000I-250000J0D01*
G01*
X36126001Y-145124000D01*
G75*
G02*
X35876001Y-144874000I0J250000D01*
G01*
G37*
G36*
G01*
X37776001Y-144874000D02*
X37776001Y-143924000D01*
G75*
G02*
X38026001Y-143674000I250000J0D01*
G01*
X38526001Y-143674000D01*
G75*
G02*
X38776001Y-143924000I0J-250000D01*
G01*
X38776001Y-144874000D01*
G75*
G02*
X38526001Y-145124000I-250000J0D01*
G01*
X38026001Y-145124000D01*
G75*
G02*
X37776001Y-144874000I0J250000D01*
G01*
G37*
D10*
X92873000Y-180699000D03*
X92873000Y-171599000D03*
X97373000Y-180699000D03*
X97373000Y-171599000D03*
G36*
G01*
X48238000Y-166967000D02*
X48238000Y-166667000D01*
G75*
G02*
X48388000Y-166517000I150000J0D01*
G01*
X49413000Y-166517000D01*
G75*
G02*
X49563000Y-166667000I0J-150000D01*
G01*
X49563000Y-166967000D01*
G75*
G02*
X49413000Y-167117000I-150000J0D01*
G01*
X48388000Y-167117000D01*
G75*
G02*
X48238000Y-166967000I0J150000D01*
G01*
G37*
G36*
G01*
X48238000Y-167917000D02*
X48238000Y-167617000D01*
G75*
G02*
X48388000Y-167467000I150000J0D01*
G01*
X49413000Y-167467000D01*
G75*
G02*
X49563000Y-167617000I0J-150000D01*
G01*
X49563000Y-167917000D01*
G75*
G02*
X49413000Y-168067000I-150000J0D01*
G01*
X48388000Y-168067000D01*
G75*
G02*
X48238000Y-167917000I0J150000D01*
G01*
G37*
G36*
G01*
X48238000Y-168867000D02*
X48238000Y-168567000D01*
G75*
G02*
X48388000Y-168417000I150000J0D01*
G01*
X49413000Y-168417000D01*
G75*
G02*
X49563000Y-168567000I0J-150000D01*
G01*
X49563000Y-168867000D01*
G75*
G02*
X49413000Y-169017000I-150000J0D01*
G01*
X48388000Y-169017000D01*
G75*
G02*
X48238000Y-168867000I0J150000D01*
G01*
G37*
G36*
G01*
X50513000Y-168867000D02*
X50513000Y-168567000D01*
G75*
G02*
X50663000Y-168417000I150000J0D01*
G01*
X51688000Y-168417000D01*
G75*
G02*
X51838000Y-168567000I0J-150000D01*
G01*
X51838000Y-168867000D01*
G75*
G02*
X51688000Y-169017000I-150000J0D01*
G01*
X50663000Y-169017000D01*
G75*
G02*
X50513000Y-168867000I0J150000D01*
G01*
G37*
G36*
G01*
X50513000Y-167917000D02*
X50513000Y-167617000D01*
G75*
G02*
X50663000Y-167467000I150000J0D01*
G01*
X51688000Y-167467000D01*
G75*
G02*
X51838000Y-167617000I0J-150000D01*
G01*
X51838000Y-167917000D01*
G75*
G02*
X51688000Y-168067000I-150000J0D01*
G01*
X50663000Y-168067000D01*
G75*
G02*
X50513000Y-167917000I0J150000D01*
G01*
G37*
G36*
G01*
X50513000Y-166967000D02*
X50513000Y-166667000D01*
G75*
G02*
X50663000Y-166517000I150000J0D01*
G01*
X51688000Y-166517000D01*
G75*
G02*
X51838000Y-166667000I0J-150000D01*
G01*
X51838000Y-166967000D01*
G75*
G02*
X51688000Y-167117000I-150000J0D01*
G01*
X50663000Y-167117000D01*
G75*
G02*
X50513000Y-166967000I0J150000D01*
G01*
G37*
G36*
G01*
X48588000Y-171798000D02*
X48588000Y-170848000D01*
G75*
G02*
X48838000Y-170598000I250000J0D01*
G01*
X49338000Y-170598000D01*
G75*
G02*
X49588000Y-170848000I0J-250000D01*
G01*
X49588000Y-171798000D01*
G75*
G02*
X49338000Y-172048000I-250000J0D01*
G01*
X48838000Y-172048000D01*
G75*
G02*
X48588000Y-171798000I0J250000D01*
G01*
G37*
G36*
G01*
X50488000Y-171798000D02*
X50488000Y-170848000D01*
G75*
G02*
X50738000Y-170598000I250000J0D01*
G01*
X51238000Y-170598000D01*
G75*
G02*
X51488000Y-170848000I0J-250000D01*
G01*
X51488000Y-171798000D01*
G75*
G02*
X51238000Y-172048000I-250000J0D01*
G01*
X50738000Y-172048000D01*
G75*
G02*
X50488000Y-171798000I0J250000D01*
G01*
G37*
G36*
G01*
X50259000Y-144579000D02*
X49309000Y-144579000D01*
G75*
G02*
X49059000Y-144329000I0J250000D01*
G01*
X49059000Y-143829000D01*
G75*
G02*
X49309000Y-143579000I250000J0D01*
G01*
X50259000Y-143579000D01*
G75*
G02*
X50509000Y-143829000I0J-250000D01*
G01*
X50509000Y-144329000D01*
G75*
G02*
X50259000Y-144579000I-250000J0D01*
G01*
G37*
G36*
G01*
X50259000Y-142679000D02*
X49309000Y-142679000D01*
G75*
G02*
X49059000Y-142429000I0J250000D01*
G01*
X49059000Y-141929000D01*
G75*
G02*
X49309000Y-141679000I250000J0D01*
G01*
X50259000Y-141679000D01*
G75*
G02*
X50509000Y-141929000I0J-250000D01*
G01*
X50509000Y-142429000D01*
G75*
G02*
X50259000Y-142679000I-250000J0D01*
G01*
G37*
G36*
G01*
X40231000Y-144849000D02*
X40231000Y-143949000D01*
G75*
G02*
X40481000Y-143699000I250000J0D01*
G01*
X41006000Y-143699000D01*
G75*
G02*
X41256000Y-143949000I0J-250000D01*
G01*
X41256000Y-144849000D01*
G75*
G02*
X41006000Y-145099000I-250000J0D01*
G01*
X40481000Y-145099000D01*
G75*
G02*
X40231000Y-144849000I0J250000D01*
G01*
G37*
G36*
G01*
X42056000Y-144849000D02*
X42056000Y-143949000D01*
G75*
G02*
X42306000Y-143699000I250000J0D01*
G01*
X42831000Y-143699000D01*
G75*
G02*
X43081000Y-143949000I0J-250000D01*
G01*
X43081000Y-144849000D01*
G75*
G02*
X42831000Y-145099000I-250000J0D01*
G01*
X42306000Y-145099000D01*
G75*
G02*
X42056000Y-144849000I0J250000D01*
G01*
G37*
G36*
G01*
X67023000Y-174805000D02*
X66073000Y-174805000D01*
G75*
G02*
X65823000Y-174555000I0J250000D01*
G01*
X65823000Y-174055000D01*
G75*
G02*
X66073000Y-173805000I250000J0D01*
G01*
X67023000Y-173805000D01*
G75*
G02*
X67273000Y-174055000I0J-250000D01*
G01*
X67273000Y-174555000D01*
G75*
G02*
X67023000Y-174805000I-250000J0D01*
G01*
G37*
G36*
G01*
X67023000Y-172905000D02*
X66073000Y-172905000D01*
G75*
G02*
X65823000Y-172655000I0J250000D01*
G01*
X65823000Y-172155000D01*
G75*
G02*
X66073000Y-171905000I250000J0D01*
G01*
X67023000Y-171905000D01*
G75*
G02*
X67273000Y-172155000I0J-250000D01*
G01*
X67273000Y-172655000D01*
G75*
G02*
X67023000Y-172905000I-250000J0D01*
G01*
G37*
G36*
G01*
X84381000Y-161577000D02*
X84381000Y-162527000D01*
G75*
G02*
X84131000Y-162777000I-250000J0D01*
G01*
X83631000Y-162777000D01*
G75*
G02*
X83381000Y-162527000I0J250000D01*
G01*
X83381000Y-161577000D01*
G75*
G02*
X83631000Y-161327000I250000J0D01*
G01*
X84131000Y-161327000D01*
G75*
G02*
X84381000Y-161577000I0J-250000D01*
G01*
G37*
G36*
G01*
X82481000Y-161577000D02*
X82481000Y-162527000D01*
G75*
G02*
X82231000Y-162777000I-250000J0D01*
G01*
X81731000Y-162777000D01*
G75*
G02*
X81481000Y-162527000I0J250000D01*
G01*
X81481000Y-161577000D01*
G75*
G02*
X81731000Y-161327000I250000J0D01*
G01*
X82231000Y-161327000D01*
G75*
G02*
X82481000Y-161577000I0J-250000D01*
G01*
G37*
G36*
G01*
X88928000Y-161602000D02*
X88928000Y-162502000D01*
G75*
G02*
X88678000Y-162752000I-250000J0D01*
G01*
X88153000Y-162752000D01*
G75*
G02*
X87903000Y-162502000I0J250000D01*
G01*
X87903000Y-161602000D01*
G75*
G02*
X88153000Y-161352000I250000J0D01*
G01*
X88678000Y-161352000D01*
G75*
G02*
X88928000Y-161602000I0J-250000D01*
G01*
G37*
G36*
G01*
X87103000Y-161602000D02*
X87103000Y-162502000D01*
G75*
G02*
X86853000Y-162752000I-250000J0D01*
G01*
X86328000Y-162752000D01*
G75*
G02*
X86078000Y-162502000I0J250000D01*
G01*
X86078000Y-161602000D01*
G75*
G02*
X86328000Y-161352000I250000J0D01*
G01*
X86853000Y-161352000D01*
G75*
G02*
X87103000Y-161602000I0J-250000D01*
G01*
G37*
G36*
G01*
X42884000Y-172588000D02*
X43984000Y-172588000D01*
G75*
G02*
X44234000Y-172838000I0J-250000D01*
G01*
X44234000Y-175838000D01*
G75*
G02*
X43984000Y-176088000I-250000J0D01*
G01*
X42884000Y-176088000D01*
G75*
G02*
X42634000Y-175838000I0J250000D01*
G01*
X42634000Y-172838000D01*
G75*
G02*
X42884000Y-172588000I250000J0D01*
G01*
G37*
G36*
G01*
X42884000Y-177988000D02*
X43984000Y-177988000D01*
G75*
G02*
X44234000Y-178238000I0J-250000D01*
G01*
X44234000Y-181238000D01*
G75*
G02*
X43984000Y-181488000I-250000J0D01*
G01*
X42884000Y-181488000D01*
G75*
G02*
X42634000Y-181238000I0J250000D01*
G01*
X42634000Y-178238000D01*
G75*
G02*
X42884000Y-177988000I250000J0D01*
G01*
G37*
D11*
X53607000Y-142445000D03*
X53607000Y-143715000D03*
X53607000Y-144985000D03*
X53607000Y-146255000D03*
X53607000Y-147525000D03*
X53607000Y-148795000D03*
X53607000Y-150065000D03*
X53607000Y-151335000D03*
X53607000Y-152605000D03*
X53607000Y-153875000D03*
X53607000Y-155145000D03*
X53607000Y-156415000D03*
X53607000Y-157685000D03*
X53607000Y-158955000D03*
D12*
X55372000Y-160205000D03*
X56642000Y-160205000D03*
X57912000Y-160205000D03*
X59182000Y-160205000D03*
X60452000Y-160205000D03*
X61722000Y-160205000D03*
X62992000Y-160205000D03*
X64262000Y-160205000D03*
X65532000Y-160205000D03*
X66802000Y-160205000D03*
X68072000Y-160205000D03*
X69342000Y-160205000D03*
D11*
X71107000Y-158955000D03*
X71107000Y-157685000D03*
X71107000Y-156415000D03*
X71107000Y-155145000D03*
X71107000Y-153875000D03*
X71107000Y-152605000D03*
X71107000Y-151335000D03*
X71107000Y-150065000D03*
X71107000Y-148795000D03*
X71107000Y-147525000D03*
X71107000Y-146255000D03*
X71107000Y-144985000D03*
X71107000Y-143715000D03*
X71107000Y-142445000D03*
D13*
X60857000Y-148765000D03*
X62257000Y-148765000D03*
X59457000Y-151565000D03*
X62257000Y-151565000D03*
X59457000Y-150165000D03*
X59457000Y-148765000D03*
X60857000Y-150165000D03*
X62257000Y-150165000D03*
X60857000Y-151565000D03*
G36*
G01*
X46667000Y-182725000D02*
X47567000Y-182725000D01*
G75*
G02*
X47817000Y-182975000I0J-250000D01*
G01*
X47817000Y-183500000D01*
G75*
G02*
X47567000Y-183750000I-250000J0D01*
G01*
X46667000Y-183750000D01*
G75*
G02*
X46417000Y-183500000I0J250000D01*
G01*
X46417000Y-182975000D01*
G75*
G02*
X46667000Y-182725000I250000J0D01*
G01*
G37*
G36*
G01*
X46667000Y-184550000D02*
X47567000Y-184550000D01*
G75*
G02*
X47817000Y-184800000I0J-250000D01*
G01*
X47817000Y-185325000D01*
G75*
G02*
X47567000Y-185575000I-250000J0D01*
G01*
X46667000Y-185575000D01*
G75*
G02*
X46417000Y-185325000I0J250000D01*
G01*
X46417000Y-184800000D01*
G75*
G02*
X46667000Y-184550000I250000J0D01*
G01*
G37*
G36*
G01*
X84381000Y-158656000D02*
X84381000Y-159606000D01*
G75*
G02*
X84131000Y-159856000I-250000J0D01*
G01*
X83631000Y-159856000D01*
G75*
G02*
X83381000Y-159606000I0J250000D01*
G01*
X83381000Y-158656000D01*
G75*
G02*
X83631000Y-158406000I250000J0D01*
G01*
X84131000Y-158406000D01*
G75*
G02*
X84381000Y-158656000I0J-250000D01*
G01*
G37*
G36*
G01*
X82481000Y-158656000D02*
X82481000Y-159606000D01*
G75*
G02*
X82231000Y-159856000I-250000J0D01*
G01*
X81731000Y-159856000D01*
G75*
G02*
X81481000Y-159606000I0J250000D01*
G01*
X81481000Y-158656000D01*
G75*
G02*
X81731000Y-158406000I250000J0D01*
G01*
X82231000Y-158406000D01*
G75*
G02*
X82481000Y-158656000I0J-250000D01*
G01*
G37*
G36*
G01*
X52393000Y-179606000D02*
X51493000Y-179606000D01*
G75*
G02*
X51243000Y-179356000I0J250000D01*
G01*
X51243000Y-178831000D01*
G75*
G02*
X51493000Y-178581000I250000J0D01*
G01*
X52393000Y-178581000D01*
G75*
G02*
X52643000Y-178831000I0J-250000D01*
G01*
X52643000Y-179356000D01*
G75*
G02*
X52393000Y-179606000I-250000J0D01*
G01*
G37*
G36*
G01*
X52393000Y-177781000D02*
X51493000Y-177781000D01*
G75*
G02*
X51243000Y-177531000I0J250000D01*
G01*
X51243000Y-177006000D01*
G75*
G02*
X51493000Y-176756000I250000J0D01*
G01*
X52393000Y-176756000D01*
G75*
G02*
X52643000Y-177006000I0J-250000D01*
G01*
X52643000Y-177531000D01*
G75*
G02*
X52393000Y-177781000I-250000J0D01*
G01*
G37*
G36*
G01*
X36173000Y-187093000D02*
X36173000Y-185843000D01*
G75*
G02*
X36323000Y-185693000I150000J0D01*
G01*
X36623000Y-185693000D01*
G75*
G02*
X36773000Y-185843000I0J-150000D01*
G01*
X36773000Y-187093000D01*
G75*
G02*
X36623000Y-187243000I-150000J0D01*
G01*
X36323000Y-187243000D01*
G75*
G02*
X36173000Y-187093000I0J150000D01*
G01*
G37*
G36*
G01*
X37173000Y-187093000D02*
X37173000Y-185843000D01*
G75*
G02*
X37323000Y-185693000I150000J0D01*
G01*
X37623000Y-185693000D01*
G75*
G02*
X37773000Y-185843000I0J-150000D01*
G01*
X37773000Y-187093000D01*
G75*
G02*
X37623000Y-187243000I-150000J0D01*
G01*
X37323000Y-187243000D01*
G75*
G02*
X37173000Y-187093000I0J150000D01*
G01*
G37*
G36*
G01*
X38173000Y-187093000D02*
X38173000Y-185843000D01*
G75*
G02*
X38323000Y-185693000I150000J0D01*
G01*
X38623000Y-185693000D01*
G75*
G02*
X38773000Y-185843000I0J-150000D01*
G01*
X38773000Y-187093000D01*
G75*
G02*
X38623000Y-187243000I-150000J0D01*
G01*
X38323000Y-187243000D01*
G75*
G02*
X38173000Y-187093000I0J150000D01*
G01*
G37*
G36*
G01*
X39173000Y-187093000D02*
X39173000Y-185843000D01*
G75*
G02*
X39323000Y-185693000I150000J0D01*
G01*
X39623000Y-185693000D01*
G75*
G02*
X39773000Y-185843000I0J-150000D01*
G01*
X39773000Y-187093000D01*
G75*
G02*
X39623000Y-187243000I-150000J0D01*
G01*
X39323000Y-187243000D01*
G75*
G02*
X39173000Y-187093000I0J150000D01*
G01*
G37*
G36*
G01*
X40173000Y-190993000D02*
X40173000Y-189693000D01*
G75*
G02*
X40423000Y-189443000I250000J0D01*
G01*
X41123000Y-189443000D01*
G75*
G02*
X41373000Y-189693000I0J-250000D01*
G01*
X41373000Y-190993000D01*
G75*
G02*
X41123000Y-191243000I-250000J0D01*
G01*
X40423000Y-191243000D01*
G75*
G02*
X40173000Y-190993000I0J250000D01*
G01*
G37*
G36*
G01*
X34573000Y-190993000D02*
X34573000Y-189693000D01*
G75*
G02*
X34823000Y-189443000I250000J0D01*
G01*
X35523000Y-189443000D01*
G75*
G02*
X35773000Y-189693000I0J-250000D01*
G01*
X35773000Y-190993000D01*
G75*
G02*
X35523000Y-191243000I-250000J0D01*
G01*
X34823000Y-191243000D01*
G75*
G02*
X34573000Y-190993000I0J250000D01*
G01*
G37*
G36*
G01*
X86683000Y-177804500D02*
X85783000Y-177804500D01*
G75*
G02*
X85533000Y-177554500I0J250000D01*
G01*
X85533000Y-177029500D01*
G75*
G02*
X85783000Y-176779500I250000J0D01*
G01*
X86683000Y-176779500D01*
G75*
G02*
X86933000Y-177029500I0J-250000D01*
G01*
X86933000Y-177554500D01*
G75*
G02*
X86683000Y-177804500I-250000J0D01*
G01*
G37*
G36*
G01*
X86683000Y-175979500D02*
X85783000Y-175979500D01*
G75*
G02*
X85533000Y-175729500I0J250000D01*
G01*
X85533000Y-175204500D01*
G75*
G02*
X85783000Y-174954500I250000J0D01*
G01*
X86683000Y-174954500D01*
G75*
G02*
X86933000Y-175204500I0J-250000D01*
G01*
X86933000Y-175729500D01*
G75*
G02*
X86683000Y-175979500I-250000J0D01*
G01*
G37*
D14*
X57023000Y-170294300D03*
X57023000Y-174891700D03*
G36*
G01*
X91769250Y-187607000D02*
X90856750Y-187607000D01*
G75*
G02*
X90613000Y-187363250I0J243750D01*
G01*
X90613000Y-186875750D01*
G75*
G02*
X90856750Y-186632000I243750J0D01*
G01*
X91769250Y-186632000D01*
G75*
G02*
X92013000Y-186875750I0J-243750D01*
G01*
X92013000Y-187363250D01*
G75*
G02*
X91769250Y-187607000I-243750J0D01*
G01*
G37*
G36*
G01*
X91769250Y-185732000D02*
X90856750Y-185732000D01*
G75*
G02*
X90613000Y-185488250I0J243750D01*
G01*
X90613000Y-185000750D01*
G75*
G02*
X90856750Y-184757000I243750J0D01*
G01*
X91769250Y-184757000D01*
G75*
G02*
X92013000Y-185000750I0J-243750D01*
G01*
X92013000Y-185488250D01*
G75*
G02*
X91769250Y-185732000I-243750J0D01*
G01*
G37*
G36*
G01*
X47211000Y-144579000D02*
X46261000Y-144579000D01*
G75*
G02*
X46011000Y-144329000I0J250000D01*
G01*
X46011000Y-143829000D01*
G75*
G02*
X46261000Y-143579000I250000J0D01*
G01*
X47211000Y-143579000D01*
G75*
G02*
X47461000Y-143829000I0J-250000D01*
G01*
X47461000Y-144329000D01*
G75*
G02*
X47211000Y-144579000I-250000J0D01*
G01*
G37*
G36*
G01*
X47211000Y-142679000D02*
X46261000Y-142679000D01*
G75*
G02*
X46011000Y-142429000I0J250000D01*
G01*
X46011000Y-141929000D01*
G75*
G02*
X46261000Y-141679000I250000J0D01*
G01*
X47211000Y-141679000D01*
G75*
G02*
X47461000Y-141929000I0J-250000D01*
G01*
X47461000Y-142429000D01*
G75*
G02*
X47211000Y-142679000I-250000J0D01*
G01*
G37*
G36*
G01*
X83762000Y-177828000D02*
X82862000Y-177828000D01*
G75*
G02*
X82612000Y-177578000I0J250000D01*
G01*
X82612000Y-177053000D01*
G75*
G02*
X82862000Y-176803000I250000J0D01*
G01*
X83762000Y-176803000D01*
G75*
G02*
X84012000Y-177053000I0J-250000D01*
G01*
X84012000Y-177578000D01*
G75*
G02*
X83762000Y-177828000I-250000J0D01*
G01*
G37*
G36*
G01*
X83762000Y-176003000D02*
X82862000Y-176003000D01*
G75*
G02*
X82612000Y-175753000I0J250000D01*
G01*
X82612000Y-175228000D01*
G75*
G02*
X82862000Y-174978000I250000J0D01*
G01*
X83762000Y-174978000D01*
G75*
G02*
X84012000Y-175228000I0J-250000D01*
G01*
X84012000Y-175753000D01*
G75*
G02*
X83762000Y-176003000I-250000J0D01*
G01*
G37*
D15*
X80059000Y-151668000D03*
X81159000Y-151668000D03*
X82259000Y-151668000D03*
X83359000Y-151668000D03*
X84459000Y-151668000D03*
X85559000Y-151668000D03*
X86659000Y-151668000D03*
X87759000Y-151668000D03*
X88709000Y-151668000D03*
D16*
X89659000Y-141168000D03*
D17*
X78509000Y-151668000D03*
D18*
X76159000Y-136568000D03*
D19*
X89659000Y-137018000D03*
D17*
X89659000Y-147368000D03*
G36*
G01*
X30077000Y-147177000D02*
X31327000Y-147177000D01*
G75*
G02*
X31477000Y-147327000I0J-150000D01*
G01*
X31477000Y-147627000D01*
G75*
G02*
X31327000Y-147777000I-150000J0D01*
G01*
X30077000Y-147777000D01*
G75*
G02*
X29927000Y-147627000I0J150000D01*
G01*
X29927000Y-147327000D01*
G75*
G02*
X30077000Y-147177000I150000J0D01*
G01*
G37*
G36*
G01*
X30077000Y-148177000D02*
X31327000Y-148177000D01*
G75*
G02*
X31477000Y-148327000I0J-150000D01*
G01*
X31477000Y-148627000D01*
G75*
G02*
X31327000Y-148777000I-150000J0D01*
G01*
X30077000Y-148777000D01*
G75*
G02*
X29927000Y-148627000I0J150000D01*
G01*
X29927000Y-148327000D01*
G75*
G02*
X30077000Y-148177000I150000J0D01*
G01*
G37*
G36*
G01*
X30077000Y-149177000D02*
X31327000Y-149177000D01*
G75*
G02*
X31477000Y-149327000I0J-150000D01*
G01*
X31477000Y-149627000D01*
G75*
G02*
X31327000Y-149777000I-150000J0D01*
G01*
X30077000Y-149777000D01*
G75*
G02*
X29927000Y-149627000I0J150000D01*
G01*
X29927000Y-149327000D01*
G75*
G02*
X30077000Y-149177000I150000J0D01*
G01*
G37*
G36*
G01*
X30077000Y-150177000D02*
X31327000Y-150177000D01*
G75*
G02*
X31477000Y-150327000I0J-150000D01*
G01*
X31477000Y-150627000D01*
G75*
G02*
X31327000Y-150777000I-150000J0D01*
G01*
X30077000Y-150777000D01*
G75*
G02*
X29927000Y-150627000I0J150000D01*
G01*
X29927000Y-150327000D01*
G75*
G02*
X30077000Y-150177000I150000J0D01*
G01*
G37*
G36*
G01*
X26177000Y-151177000D02*
X27477000Y-151177000D01*
G75*
G02*
X27727000Y-151427000I0J-250000D01*
G01*
X27727000Y-152127000D01*
G75*
G02*
X27477000Y-152377000I-250000J0D01*
G01*
X26177000Y-152377000D01*
G75*
G02*
X25927000Y-152127000I0J250000D01*
G01*
X25927000Y-151427000D01*
G75*
G02*
X26177000Y-151177000I250000J0D01*
G01*
G37*
G36*
G01*
X26177000Y-145577000D02*
X27477000Y-145577000D01*
G75*
G02*
X27727000Y-145827000I0J-250000D01*
G01*
X27727000Y-146527000D01*
G75*
G02*
X27477000Y-146777000I-250000J0D01*
G01*
X26177000Y-146777000D01*
G75*
G02*
X25927000Y-146527000I0J250000D01*
G01*
X25927000Y-145827000D01*
G75*
G02*
X26177000Y-145577000I250000J0D01*
G01*
G37*
G36*
G01*
X49436000Y-161110000D02*
X50386000Y-161110000D01*
G75*
G02*
X50636000Y-161360000I0J-250000D01*
G01*
X50636000Y-161860000D01*
G75*
G02*
X50386000Y-162110000I-250000J0D01*
G01*
X49436000Y-162110000D01*
G75*
G02*
X49186000Y-161860000I0J250000D01*
G01*
X49186000Y-161360000D01*
G75*
G02*
X49436000Y-161110000I250000J0D01*
G01*
G37*
G36*
G01*
X49436000Y-163010000D02*
X50386000Y-163010000D01*
G75*
G02*
X50636000Y-163260000I0J-250000D01*
G01*
X50636000Y-163760000D01*
G75*
G02*
X50386000Y-164010000I-250000J0D01*
G01*
X49436000Y-164010000D01*
G75*
G02*
X49186000Y-163760000I0J250000D01*
G01*
X49186000Y-163260000D01*
G75*
G02*
X49436000Y-163010000I250000J0D01*
G01*
G37*
G36*
G01*
X40800000Y-161110000D02*
X41750000Y-161110000D01*
G75*
G02*
X42000000Y-161360000I0J-250000D01*
G01*
X42000000Y-161860000D01*
G75*
G02*
X41750000Y-162110000I-250000J0D01*
G01*
X40800000Y-162110000D01*
G75*
G02*
X40550000Y-161860000I0J250000D01*
G01*
X40550000Y-161360000D01*
G75*
G02*
X40800000Y-161110000I250000J0D01*
G01*
G37*
G36*
G01*
X40800000Y-163010000D02*
X41750000Y-163010000D01*
G75*
G02*
X42000000Y-163260000I0J-250000D01*
G01*
X42000000Y-163760000D01*
G75*
G02*
X41750000Y-164010000I-250000J0D01*
G01*
X40800000Y-164010000D01*
G75*
G02*
X40550000Y-163760000I0J250000D01*
G01*
X40550000Y-163260000D01*
G75*
G02*
X40800000Y-163010000I250000J0D01*
G01*
G37*
D20*
X34429000Y-160828000D03*
X34429000Y-161628000D03*
X34429000Y-162428000D03*
X34429000Y-163228000D03*
X34429000Y-164028000D03*
D21*
X34329000Y-166878000D03*
X28829000Y-157978000D03*
X34329000Y-157978000D03*
X28829000Y-166878000D03*
G36*
G01*
X74491000Y-177828000D02*
X73591000Y-177828000D01*
G75*
G02*
X73341000Y-177578000I0J250000D01*
G01*
X73341000Y-177053000D01*
G75*
G02*
X73591000Y-176803000I250000J0D01*
G01*
X74491000Y-176803000D01*
G75*
G02*
X74741000Y-177053000I0J-250000D01*
G01*
X74741000Y-177578000D01*
G75*
G02*
X74491000Y-177828000I-250000J0D01*
G01*
G37*
G36*
G01*
X74491000Y-176003000D02*
X73591000Y-176003000D01*
G75*
G02*
X73341000Y-175753000I0J250000D01*
G01*
X73341000Y-175228000D01*
G75*
G02*
X73591000Y-174978000I250000J0D01*
G01*
X74491000Y-174978000D01*
G75*
G02*
X74741000Y-175228000I0J-250000D01*
G01*
X74741000Y-175753000D01*
G75*
G02*
X74491000Y-176003000I-250000J0D01*
G01*
G37*
G36*
G01*
X43781000Y-182725000D02*
X44681000Y-182725000D01*
G75*
G02*
X44931000Y-182975000I0J-250000D01*
G01*
X44931000Y-183500000D01*
G75*
G02*
X44681000Y-183750000I-250000J0D01*
G01*
X43781000Y-183750000D01*
G75*
G02*
X43531000Y-183500000I0J250000D01*
G01*
X43531000Y-182975000D01*
G75*
G02*
X43781000Y-182725000I250000J0D01*
G01*
G37*
G36*
G01*
X43781000Y-184550000D02*
X44681000Y-184550000D01*
G75*
G02*
X44931000Y-184800000I0J-250000D01*
G01*
X44931000Y-185325000D01*
G75*
G02*
X44681000Y-185575000I-250000J0D01*
G01*
X43781000Y-185575000D01*
G75*
G02*
X43531000Y-185325000I0J250000D01*
G01*
X43531000Y-184800000D01*
G75*
G02*
X43781000Y-184550000I250000J0D01*
G01*
G37*
G36*
G01*
X77285000Y-177828000D02*
X76385000Y-177828000D01*
G75*
G02*
X76135000Y-177578000I0J250000D01*
G01*
X76135000Y-177053000D01*
G75*
G02*
X76385000Y-176803000I250000J0D01*
G01*
X77285000Y-176803000D01*
G75*
G02*
X77535000Y-177053000I0J-250000D01*
G01*
X77535000Y-177578000D01*
G75*
G02*
X77285000Y-177828000I-250000J0D01*
G01*
G37*
G36*
G01*
X77285000Y-176003000D02*
X76385000Y-176003000D01*
G75*
G02*
X76135000Y-175753000I0J250000D01*
G01*
X76135000Y-175228000D01*
G75*
G02*
X76385000Y-174978000I250000J0D01*
G01*
X77285000Y-174978000D01*
G75*
G02*
X77535000Y-175228000I0J-250000D01*
G01*
X77535000Y-175753000D01*
G75*
G02*
X77285000Y-176003000I-250000J0D01*
G01*
G37*
G36*
G01*
X87705250Y-187607000D02*
X86792750Y-187607000D01*
G75*
G02*
X86549000Y-187363250I0J243750D01*
G01*
X86549000Y-186875750D01*
G75*
G02*
X86792750Y-186632000I243750J0D01*
G01*
X87705250Y-186632000D01*
G75*
G02*
X87949000Y-186875750I0J-243750D01*
G01*
X87949000Y-187363250D01*
G75*
G02*
X87705250Y-187607000I-243750J0D01*
G01*
G37*
G36*
G01*
X87705250Y-185732000D02*
X86792750Y-185732000D01*
G75*
G02*
X86549000Y-185488250I0J243750D01*
G01*
X86549000Y-185000750D01*
G75*
G02*
X86792750Y-184757000I243750J0D01*
G01*
X87705250Y-184757000D01*
G75*
G02*
X87949000Y-185000750I0J-243750D01*
G01*
X87949000Y-185488250D01*
G75*
G02*
X87705250Y-185732000I-243750J0D01*
G01*
G37*
D22*
X45211000Y-166624000D03*
X41911000Y-166624000D03*
G36*
G01*
X83035000Y-155669000D02*
X83035000Y-154719000D01*
G75*
G02*
X83285000Y-154469000I250000J0D01*
G01*
X83785000Y-154469000D01*
G75*
G02*
X84035000Y-154719000I0J-250000D01*
G01*
X84035000Y-155669000D01*
G75*
G02*
X83785000Y-155919000I-250000J0D01*
G01*
X83285000Y-155919000D01*
G75*
G02*
X83035000Y-155669000I0J250000D01*
G01*
G37*
G36*
G01*
X84935000Y-155669000D02*
X84935000Y-154719000D01*
G75*
G02*
X85185000Y-154469000I250000J0D01*
G01*
X85685000Y-154469000D01*
G75*
G02*
X85935000Y-154719000I0J-250000D01*
G01*
X85935000Y-155669000D01*
G75*
G02*
X85685000Y-155919000I-250000J0D01*
G01*
X85185000Y-155919000D01*
G75*
G02*
X84935000Y-155669000I0J250000D01*
G01*
G37*
G36*
G01*
X44646000Y-163985000D02*
X43746000Y-163985000D01*
G75*
G02*
X43496000Y-163735000I0J250000D01*
G01*
X43496000Y-163210000D01*
G75*
G02*
X43746000Y-162960000I250000J0D01*
G01*
X44646000Y-162960000D01*
G75*
G02*
X44896000Y-163210000I0J-250000D01*
G01*
X44896000Y-163735000D01*
G75*
G02*
X44646000Y-163985000I-250000J0D01*
G01*
G37*
G36*
G01*
X44646000Y-162160000D02*
X43746000Y-162160000D01*
G75*
G02*
X43496000Y-161910000I0J250000D01*
G01*
X43496000Y-161385000D01*
G75*
G02*
X43746000Y-161135000I250000J0D01*
G01*
X44646000Y-161135000D01*
G75*
G02*
X44896000Y-161385000I0J-250000D01*
G01*
X44896000Y-161910000D01*
G75*
G02*
X44646000Y-162160000I-250000J0D01*
G01*
G37*
G36*
G01*
X70645000Y-174953000D02*
X71595000Y-174953000D01*
G75*
G02*
X71845000Y-175203000I0J-250000D01*
G01*
X71845000Y-175703000D01*
G75*
G02*
X71595000Y-175953000I-250000J0D01*
G01*
X70645000Y-175953000D01*
G75*
G02*
X70395000Y-175703000I0J250000D01*
G01*
X70395000Y-175203000D01*
G75*
G02*
X70645000Y-174953000I250000J0D01*
G01*
G37*
G36*
G01*
X70645000Y-176853000D02*
X71595000Y-176853000D01*
G75*
G02*
X71845000Y-177103000I0J-250000D01*
G01*
X71845000Y-177603000D01*
G75*
G02*
X71595000Y-177853000I-250000J0D01*
G01*
X70645000Y-177853000D01*
G75*
G02*
X70395000Y-177603000I0J250000D01*
G01*
X70395000Y-177103000D01*
G75*
G02*
X70645000Y-176853000I250000J0D01*
G01*
G37*
G36*
G01*
X79281000Y-175014000D02*
X80231000Y-175014000D01*
G75*
G02*
X80481000Y-175264000I0J-250000D01*
G01*
X80481000Y-175764000D01*
G75*
G02*
X80231000Y-176014000I-250000J0D01*
G01*
X79281000Y-176014000D01*
G75*
G02*
X79031000Y-175764000I0J250000D01*
G01*
X79031000Y-175264000D01*
G75*
G02*
X79281000Y-175014000I250000J0D01*
G01*
G37*
G36*
G01*
X79281000Y-176914000D02*
X80231000Y-176914000D01*
G75*
G02*
X80481000Y-177164000I0J-250000D01*
G01*
X80481000Y-177664000D01*
G75*
G02*
X80231000Y-177914000I-250000J0D01*
G01*
X79281000Y-177914000D01*
G75*
G02*
X79031000Y-177664000I0J250000D01*
G01*
X79031000Y-177164000D01*
G75*
G02*
X79281000Y-176914000I250000J0D01*
G01*
G37*
G36*
G01*
X46200000Y-138626000D02*
X46200000Y-137726000D01*
G75*
G02*
X46450000Y-137476000I250000J0D01*
G01*
X46975000Y-137476000D01*
G75*
G02*
X47225000Y-137726000I0J-250000D01*
G01*
X47225000Y-138626000D01*
G75*
G02*
X46975000Y-138876000I-250000J0D01*
G01*
X46450000Y-138876000D01*
G75*
G02*
X46200000Y-138626000I0J250000D01*
G01*
G37*
G36*
G01*
X48025000Y-138626000D02*
X48025000Y-137726000D01*
G75*
G02*
X48275000Y-137476000I250000J0D01*
G01*
X48800000Y-137476000D01*
G75*
G02*
X49050000Y-137726000I0J-250000D01*
G01*
X49050000Y-138626000D01*
G75*
G02*
X48800000Y-138876000I-250000J0D01*
G01*
X48275000Y-138876000D01*
G75*
G02*
X48025000Y-138626000I0J250000D01*
G01*
G37*
G36*
G01*
X64229000Y-174805000D02*
X63279000Y-174805000D01*
G75*
G02*
X63029000Y-174555000I0J250000D01*
G01*
X63029000Y-174055000D01*
G75*
G02*
X63279000Y-173805000I250000J0D01*
G01*
X64229000Y-173805000D01*
G75*
G02*
X64479000Y-174055000I0J-250000D01*
G01*
X64479000Y-174555000D01*
G75*
G02*
X64229000Y-174805000I-250000J0D01*
G01*
G37*
G36*
G01*
X64229000Y-172905000D02*
X63279000Y-172905000D01*
G75*
G02*
X63029000Y-172655000I0J250000D01*
G01*
X63029000Y-172155000D01*
G75*
G02*
X63279000Y-171905000I250000J0D01*
G01*
X64229000Y-171905000D01*
G75*
G02*
X64479000Y-172155000I0J-250000D01*
G01*
X64479000Y-172655000D01*
G75*
G02*
X64229000Y-172905000I-250000J0D01*
G01*
G37*
G36*
G01*
X47440000Y-163985000D02*
X46540000Y-163985000D01*
G75*
G02*
X46290000Y-163735000I0J250000D01*
G01*
X46290000Y-163210000D01*
G75*
G02*
X46540000Y-162960000I250000J0D01*
G01*
X47440000Y-162960000D01*
G75*
G02*
X47690000Y-163210000I0J-250000D01*
G01*
X47690000Y-163735000D01*
G75*
G02*
X47440000Y-163985000I-250000J0D01*
G01*
G37*
G36*
G01*
X47440000Y-162160000D02*
X46540000Y-162160000D01*
G75*
G02*
X46290000Y-161910000I0J250000D01*
G01*
X46290000Y-161385000D01*
G75*
G02*
X46540000Y-161135000I250000J0D01*
G01*
X47440000Y-161135000D01*
G75*
G02*
X47690000Y-161385000I0J-250000D01*
G01*
X47690000Y-161910000D01*
G75*
G02*
X47440000Y-162160000I-250000J0D01*
G01*
G37*
G36*
G01*
X43057500Y-141155000D02*
X43057500Y-142055000D01*
G75*
G02*
X42807500Y-142305000I-250000J0D01*
G01*
X42282500Y-142305000D01*
G75*
G02*
X42032500Y-142055000I0J250000D01*
G01*
X42032500Y-141155000D01*
G75*
G02*
X42282500Y-140905000I250000J0D01*
G01*
X42807500Y-140905000D01*
G75*
G02*
X43057500Y-141155000I0J-250000D01*
G01*
G37*
G36*
G01*
X41232500Y-141155000D02*
X41232500Y-142055000D01*
G75*
G02*
X40982500Y-142305000I-250000J0D01*
G01*
X40457500Y-142305000D01*
G75*
G02*
X40207500Y-142055000I0J250000D01*
G01*
X40207500Y-141155000D01*
G75*
G02*
X40457500Y-140905000I250000J0D01*
G01*
X40982500Y-140905000D01*
G75*
G02*
X41232500Y-141155000I0J-250000D01*
G01*
G37*
D10*
X92873000Y-166418500D03*
X92873000Y-157318500D03*
X97373000Y-166418500D03*
X97373000Y-157318500D03*
G36*
G01*
X57330000Y-166530000D02*
X57330000Y-167480000D01*
G75*
G02*
X57080000Y-167730000I-250000J0D01*
G01*
X56580000Y-167730000D01*
G75*
G02*
X56330000Y-167480000I0J250000D01*
G01*
X56330000Y-166530000D01*
G75*
G02*
X56580000Y-166280000I250000J0D01*
G01*
X57080000Y-166280000D01*
G75*
G02*
X57330000Y-166530000I0J-250000D01*
G01*
G37*
G36*
G01*
X55430000Y-166530000D02*
X55430000Y-167480000D01*
G75*
G02*
X55180000Y-167730000I-250000J0D01*
G01*
X54680000Y-167730000D01*
G75*
G02*
X54430000Y-167480000I0J250000D01*
G01*
X54430000Y-166530000D01*
G75*
G02*
X54680000Y-166280000I250000J0D01*
G01*
X55180000Y-166280000D01*
G75*
G02*
X55430000Y-166530000I0J-250000D01*
G01*
G37*
D23*
X38265801Y-149136801D03*
X38265801Y-148636800D03*
X38265801Y-148136800D03*
X38265801Y-147636799D03*
D24*
X37568002Y-146939000D03*
X37068001Y-146939000D03*
X36568001Y-146939000D03*
X36068000Y-146939000D03*
D23*
X35370201Y-147636799D03*
X35370201Y-148136800D03*
X35370201Y-148636800D03*
X35370201Y-149136801D03*
D24*
X36068000Y-149834600D03*
X36568001Y-149834600D03*
X37068001Y-149834600D03*
X37568002Y-149834600D03*
D25*
X36818001Y-148386800D03*
G36*
G01*
X35876001Y-142080000D02*
X35876001Y-141130000D01*
G75*
G02*
X36126001Y-140880000I250000J0D01*
G01*
X36626001Y-140880000D01*
G75*
G02*
X36876001Y-141130000I0J-250000D01*
G01*
X36876001Y-142080000D01*
G75*
G02*
X36626001Y-142330000I-250000J0D01*
G01*
X36126001Y-142330000D01*
G75*
G02*
X35876001Y-142080000I0J250000D01*
G01*
G37*
G36*
G01*
X37776001Y-142080000D02*
X37776001Y-141130000D01*
G75*
G02*
X38026001Y-140880000I250000J0D01*
G01*
X38526001Y-140880000D01*
G75*
G02*
X38776001Y-141130000I0J-250000D01*
G01*
X38776001Y-142080000D01*
G75*
G02*
X38526001Y-142330000I-250000J0D01*
G01*
X38026001Y-142330000D01*
G75*
G02*
X37776001Y-142080000I0J250000D01*
G01*
G37*
G36*
G01*
X88928000Y-158681000D02*
X88928000Y-159581000D01*
G75*
G02*
X88678000Y-159831000I-250000J0D01*
G01*
X88153000Y-159831000D01*
G75*
G02*
X87903000Y-159581000I0J250000D01*
G01*
X87903000Y-158681000D01*
G75*
G02*
X88153000Y-158431000I250000J0D01*
G01*
X88678000Y-158431000D01*
G75*
G02*
X88928000Y-158681000I0J-250000D01*
G01*
G37*
G36*
G01*
X87103000Y-158681000D02*
X87103000Y-159581000D01*
G75*
G02*
X86853000Y-159831000I-250000J0D01*
G01*
X86328000Y-159831000D01*
G75*
G02*
X86078000Y-159581000I0J250000D01*
G01*
X86078000Y-158681000D01*
G75*
G02*
X86328000Y-158431000I250000J0D01*
G01*
X86853000Y-158431000D01*
G75*
G02*
X87103000Y-158681000I0J-250000D01*
G01*
G37*
D22*
X45211000Y-169926000D03*
X41911000Y-169926000D03*
G36*
G01*
X43614000Y-137701000D02*
X43614000Y-138651000D01*
G75*
G02*
X43364000Y-138901000I-250000J0D01*
G01*
X42864000Y-138901000D01*
G75*
G02*
X42614000Y-138651000I0J250000D01*
G01*
X42614000Y-137701000D01*
G75*
G02*
X42864000Y-137451000I250000J0D01*
G01*
X43364000Y-137451000D01*
G75*
G02*
X43614000Y-137701000I0J-250000D01*
G01*
G37*
G36*
G01*
X41714000Y-137701000D02*
X41714000Y-138651000D01*
G75*
G02*
X41464000Y-138901000I-250000J0D01*
G01*
X40964000Y-138901000D01*
G75*
G02*
X40714000Y-138651000I0J250000D01*
G01*
X40714000Y-137701000D01*
G75*
G02*
X40964000Y-137451000I250000J0D01*
G01*
X41464000Y-137451000D01*
G75*
G02*
X41714000Y-137701000I0J-250000D01*
G01*
G37*
G36*
G01*
X44168000Y-188289250D02*
X44168000Y-187376750D01*
G75*
G02*
X44411750Y-187133000I243750J0D01*
G01*
X44899250Y-187133000D01*
G75*
G02*
X45143000Y-187376750I0J-243750D01*
G01*
X45143000Y-188289250D01*
G75*
G02*
X44899250Y-188533000I-243750J0D01*
G01*
X44411750Y-188533000D01*
G75*
G02*
X44168000Y-188289250I0J243750D01*
G01*
G37*
G36*
G01*
X46043000Y-188289250D02*
X46043000Y-187376750D01*
G75*
G02*
X46286750Y-187133000I243750J0D01*
G01*
X46774250Y-187133000D01*
G75*
G02*
X47018000Y-187376750I0J-243750D01*
G01*
X47018000Y-188289250D01*
G75*
G02*
X46774250Y-188533000I-243750J0D01*
G01*
X46286750Y-188533000D01*
G75*
G02*
X46043000Y-188289250I0J243750D01*
G01*
G37*
M02*
