G04 #@! TF.GenerationSoftware,KiCad,Pcbnew,6.0.2+dfsg-1*
G04 #@! TF.CreationDate,2023-06-22T08:15:41-06:00*
G04 #@! TF.ProjectId,ckt-soundplay,636b742d-736f-4756-9e64-706c61792e6b,rev?*
G04 #@! TF.SameCoordinates,Original*
G04 #@! TF.FileFunction,Soldermask,Top*
G04 #@! TF.FilePolarity,Negative*
%FSLAX46Y46*%
G04 Gerber Fmt 4.6, Leading zero omitted, Abs format (unit mm)*
G04 Created by KiCad (PCBNEW 6.0.2+dfsg-1) date 2023-06-22 08:15:41*
%MOMM*%
%LPD*%
G01*
G04 APERTURE LIST*
%ADD10C,2.652400*%
%ADD11C,2.452400*%
%ADD12C,6.552400*%
%ADD13O,1.852400X1.852400*%
%ADD14C,1.052400*%
G04 APERTURE END LIST*
G36*
G01*
X31470000Y-173719800D02*
X33970000Y-173719800D01*
G75*
G02*
X34046200Y-173796000I0J-76200D01*
G01*
X34046200Y-176296000D01*
G75*
G02*
X33970000Y-176372200I-76200J0D01*
G01*
X31470000Y-176372200D01*
G75*
G02*
X31393800Y-176296000I0J76200D01*
G01*
X31393800Y-173796000D01*
G75*
G02*
X31470000Y-173719800I76200J0D01*
G01*
G37*
D10*
X32720000Y-180046000D03*
G36*
G01*
X35799801Y-144874000D02*
X35799801Y-143924000D01*
G75*
G02*
X36126001Y-143597800I326200J0D01*
G01*
X36626001Y-143597800D01*
G75*
G02*
X36952201Y-143924000I0J-326200D01*
G01*
X36952201Y-144874000D01*
G75*
G02*
X36626001Y-145200200I-326200J0D01*
G01*
X36126001Y-145200200D01*
G75*
G02*
X35799801Y-144874000I0J326200D01*
G01*
G37*
G36*
G01*
X37699801Y-144874000D02*
X37699801Y-143924000D01*
G75*
G02*
X38026001Y-143597800I326200J0D01*
G01*
X38526001Y-143597800D01*
G75*
G02*
X38852201Y-143924000I0J-326200D01*
G01*
X38852201Y-144874000D01*
G75*
G02*
X38526001Y-145200200I-326200J0D01*
G01*
X38026001Y-145200200D01*
G75*
G02*
X37699801Y-144874000I0J326200D01*
G01*
G37*
G36*
G01*
X92096800Y-181749000D02*
X92096800Y-179649000D01*
G75*
G02*
X92173000Y-179572800I76200J0D01*
G01*
X93573000Y-179572800D01*
G75*
G02*
X93649200Y-179649000I0J-76200D01*
G01*
X93649200Y-181749000D01*
G75*
G02*
X93573000Y-181825200I-76200J0D01*
G01*
X92173000Y-181825200D01*
G75*
G02*
X92096800Y-181749000I0J76200D01*
G01*
G37*
G36*
G01*
X92096800Y-172649000D02*
X92096800Y-170549000D01*
G75*
G02*
X92173000Y-170472800I76200J0D01*
G01*
X93573000Y-170472800D01*
G75*
G02*
X93649200Y-170549000I0J-76200D01*
G01*
X93649200Y-172649000D01*
G75*
G02*
X93573000Y-172725200I-76200J0D01*
G01*
X92173000Y-172725200D01*
G75*
G02*
X92096800Y-172649000I0J76200D01*
G01*
G37*
G36*
G01*
X96596800Y-181749000D02*
X96596800Y-179649000D01*
G75*
G02*
X96673000Y-179572800I76200J0D01*
G01*
X98073000Y-179572800D01*
G75*
G02*
X98149200Y-179649000I0J-76200D01*
G01*
X98149200Y-181749000D01*
G75*
G02*
X98073000Y-181825200I-76200J0D01*
G01*
X96673000Y-181825200D01*
G75*
G02*
X96596800Y-181749000I0J76200D01*
G01*
G37*
G36*
G01*
X96596800Y-172649000D02*
X96596800Y-170549000D01*
G75*
G02*
X96673000Y-170472800I76200J0D01*
G01*
X98073000Y-170472800D01*
G75*
G02*
X98149200Y-170549000I0J-76200D01*
G01*
X98149200Y-172649000D01*
G75*
G02*
X98073000Y-172725200I-76200J0D01*
G01*
X96673000Y-172725200D01*
G75*
G02*
X96596800Y-172649000I0J76200D01*
G01*
G37*
G36*
G01*
X48161800Y-166967000D02*
X48161800Y-166667000D01*
G75*
G02*
X48388000Y-166440800I226200J0D01*
G01*
X49413000Y-166440800D01*
G75*
G02*
X49639200Y-166667000I0J-226200D01*
G01*
X49639200Y-166967000D01*
G75*
G02*
X49413000Y-167193200I-226200J0D01*
G01*
X48388000Y-167193200D01*
G75*
G02*
X48161800Y-166967000I0J226200D01*
G01*
G37*
G36*
G01*
X48161800Y-167917000D02*
X48161800Y-167617000D01*
G75*
G02*
X48388000Y-167390800I226200J0D01*
G01*
X49413000Y-167390800D01*
G75*
G02*
X49639200Y-167617000I0J-226200D01*
G01*
X49639200Y-167917000D01*
G75*
G02*
X49413000Y-168143200I-226200J0D01*
G01*
X48388000Y-168143200D01*
G75*
G02*
X48161800Y-167917000I0J226200D01*
G01*
G37*
G36*
G01*
X48161800Y-168867000D02*
X48161800Y-168567000D01*
G75*
G02*
X48388000Y-168340800I226200J0D01*
G01*
X49413000Y-168340800D01*
G75*
G02*
X49639200Y-168567000I0J-226200D01*
G01*
X49639200Y-168867000D01*
G75*
G02*
X49413000Y-169093200I-226200J0D01*
G01*
X48388000Y-169093200D01*
G75*
G02*
X48161800Y-168867000I0J226200D01*
G01*
G37*
G36*
G01*
X50436800Y-168867000D02*
X50436800Y-168567000D01*
G75*
G02*
X50663000Y-168340800I226200J0D01*
G01*
X51688000Y-168340800D01*
G75*
G02*
X51914200Y-168567000I0J-226200D01*
G01*
X51914200Y-168867000D01*
G75*
G02*
X51688000Y-169093200I-226200J0D01*
G01*
X50663000Y-169093200D01*
G75*
G02*
X50436800Y-168867000I0J226200D01*
G01*
G37*
G36*
G01*
X50436800Y-167917000D02*
X50436800Y-167617000D01*
G75*
G02*
X50663000Y-167390800I226200J0D01*
G01*
X51688000Y-167390800D01*
G75*
G02*
X51914200Y-167617000I0J-226200D01*
G01*
X51914200Y-167917000D01*
G75*
G02*
X51688000Y-168143200I-226200J0D01*
G01*
X50663000Y-168143200D01*
G75*
G02*
X50436800Y-167917000I0J226200D01*
G01*
G37*
G36*
G01*
X50436800Y-166967000D02*
X50436800Y-166667000D01*
G75*
G02*
X50663000Y-166440800I226200J0D01*
G01*
X51688000Y-166440800D01*
G75*
G02*
X51914200Y-166667000I0J-226200D01*
G01*
X51914200Y-166967000D01*
G75*
G02*
X51688000Y-167193200I-226200J0D01*
G01*
X50663000Y-167193200D01*
G75*
G02*
X50436800Y-166967000I0J226200D01*
G01*
G37*
G36*
G01*
X48511800Y-171798000D02*
X48511800Y-170848000D01*
G75*
G02*
X48838000Y-170521800I326200J0D01*
G01*
X49338000Y-170521800D01*
G75*
G02*
X49664200Y-170848000I0J-326200D01*
G01*
X49664200Y-171798000D01*
G75*
G02*
X49338000Y-172124200I-326200J0D01*
G01*
X48838000Y-172124200D01*
G75*
G02*
X48511800Y-171798000I0J326200D01*
G01*
G37*
G36*
G01*
X50411800Y-171798000D02*
X50411800Y-170848000D01*
G75*
G02*
X50738000Y-170521800I326200J0D01*
G01*
X51238000Y-170521800D01*
G75*
G02*
X51564200Y-170848000I0J-326200D01*
G01*
X51564200Y-171798000D01*
G75*
G02*
X51238000Y-172124200I-326200J0D01*
G01*
X50738000Y-172124200D01*
G75*
G02*
X50411800Y-171798000I0J326200D01*
G01*
G37*
G36*
G01*
X50259000Y-144655200D02*
X49309000Y-144655200D01*
G75*
G02*
X48982800Y-144329000I0J326200D01*
G01*
X48982800Y-143829000D01*
G75*
G02*
X49309000Y-143502800I326200J0D01*
G01*
X50259000Y-143502800D01*
G75*
G02*
X50585200Y-143829000I0J-326200D01*
G01*
X50585200Y-144329000D01*
G75*
G02*
X50259000Y-144655200I-326200J0D01*
G01*
G37*
G36*
G01*
X50259000Y-142755200D02*
X49309000Y-142755200D01*
G75*
G02*
X48982800Y-142429000I0J326200D01*
G01*
X48982800Y-141929000D01*
G75*
G02*
X49309000Y-141602800I326200J0D01*
G01*
X50259000Y-141602800D01*
G75*
G02*
X50585200Y-141929000I0J-326200D01*
G01*
X50585200Y-142429000D01*
G75*
G02*
X50259000Y-142755200I-326200J0D01*
G01*
G37*
G36*
G01*
X50772800Y-184977000D02*
X50772800Y-182677000D01*
G75*
G02*
X50849000Y-182600800I76200J0D01*
G01*
X53149000Y-182600800D01*
G75*
G02*
X53225200Y-182677000I0J-76200D01*
G01*
X53225200Y-184977000D01*
G75*
G02*
X53149000Y-185053200I-76200J0D01*
G01*
X50849000Y-185053200D01*
G75*
G02*
X50772800Y-184977000I0J76200D01*
G01*
G37*
D11*
X55499000Y-183827000D03*
X58999000Y-183827000D03*
G36*
G01*
X40154800Y-144849000D02*
X40154800Y-143949000D01*
G75*
G02*
X40481000Y-143622800I326200J0D01*
G01*
X41006000Y-143622800D01*
G75*
G02*
X41332200Y-143949000I0J-326200D01*
G01*
X41332200Y-144849000D01*
G75*
G02*
X41006000Y-145175200I-326200J0D01*
G01*
X40481000Y-145175200D01*
G75*
G02*
X40154800Y-144849000I0J326200D01*
G01*
G37*
G36*
G01*
X41979800Y-144849000D02*
X41979800Y-143949000D01*
G75*
G02*
X42306000Y-143622800I326200J0D01*
G01*
X42831000Y-143622800D01*
G75*
G02*
X43157200Y-143949000I0J-326200D01*
G01*
X43157200Y-144849000D01*
G75*
G02*
X42831000Y-145175200I-326200J0D01*
G01*
X42306000Y-145175200D01*
G75*
G02*
X41979800Y-144849000I0J326200D01*
G01*
G37*
G36*
G01*
X67023000Y-174881200D02*
X66073000Y-174881200D01*
G75*
G02*
X65746800Y-174555000I0J326200D01*
G01*
X65746800Y-174055000D01*
G75*
G02*
X66073000Y-173728800I326200J0D01*
G01*
X67023000Y-173728800D01*
G75*
G02*
X67349200Y-174055000I0J-326200D01*
G01*
X67349200Y-174555000D01*
G75*
G02*
X67023000Y-174881200I-326200J0D01*
G01*
G37*
G36*
G01*
X67023000Y-172981200D02*
X66073000Y-172981200D01*
G75*
G02*
X65746800Y-172655000I0J326200D01*
G01*
X65746800Y-172155000D01*
G75*
G02*
X66073000Y-171828800I326200J0D01*
G01*
X67023000Y-171828800D01*
G75*
G02*
X67349200Y-172155000I0J-326200D01*
G01*
X67349200Y-172655000D01*
G75*
G02*
X67023000Y-172981200I-326200J0D01*
G01*
G37*
G36*
G01*
X84457200Y-161577000D02*
X84457200Y-162527000D01*
G75*
G02*
X84131000Y-162853200I-326200J0D01*
G01*
X83631000Y-162853200D01*
G75*
G02*
X83304800Y-162527000I0J326200D01*
G01*
X83304800Y-161577000D01*
G75*
G02*
X83631000Y-161250800I326200J0D01*
G01*
X84131000Y-161250800D01*
G75*
G02*
X84457200Y-161577000I0J-326200D01*
G01*
G37*
G36*
G01*
X82557200Y-161577000D02*
X82557200Y-162527000D01*
G75*
G02*
X82231000Y-162853200I-326200J0D01*
G01*
X81731000Y-162853200D01*
G75*
G02*
X81404800Y-162527000I0J326200D01*
G01*
X81404800Y-161577000D01*
G75*
G02*
X81731000Y-161250800I326200J0D01*
G01*
X82231000Y-161250800D01*
G75*
G02*
X82557200Y-161577000I0J-326200D01*
G01*
G37*
G36*
G01*
X89004200Y-161602000D02*
X89004200Y-162502000D01*
G75*
G02*
X88678000Y-162828200I-326200J0D01*
G01*
X88153000Y-162828200D01*
G75*
G02*
X87826800Y-162502000I0J326200D01*
G01*
X87826800Y-161602000D01*
G75*
G02*
X88153000Y-161275800I326200J0D01*
G01*
X88678000Y-161275800D01*
G75*
G02*
X89004200Y-161602000I0J-326200D01*
G01*
G37*
G36*
G01*
X87179200Y-161602000D02*
X87179200Y-162502000D01*
G75*
G02*
X86853000Y-162828200I-326200J0D01*
G01*
X86328000Y-162828200D01*
G75*
G02*
X86001800Y-162502000I0J326200D01*
G01*
X86001800Y-161602000D01*
G75*
G02*
X86328000Y-161275800I326200J0D01*
G01*
X86853000Y-161275800D01*
G75*
G02*
X87179200Y-161602000I0J-326200D01*
G01*
G37*
G36*
G01*
X42884000Y-172511800D02*
X43984000Y-172511800D01*
G75*
G02*
X44310200Y-172838000I0J-326200D01*
G01*
X44310200Y-175838000D01*
G75*
G02*
X43984000Y-176164200I-326200J0D01*
G01*
X42884000Y-176164200D01*
G75*
G02*
X42557800Y-175838000I0J326200D01*
G01*
X42557800Y-172838000D01*
G75*
G02*
X42884000Y-172511800I326200J0D01*
G01*
G37*
G36*
G01*
X42884000Y-177911800D02*
X43984000Y-177911800D01*
G75*
G02*
X44310200Y-178238000I0J-326200D01*
G01*
X44310200Y-181238000D01*
G75*
G02*
X43984000Y-181564200I-326200J0D01*
G01*
X42884000Y-181564200D01*
G75*
G02*
X42557800Y-181238000I0J326200D01*
G01*
X42557800Y-178238000D01*
G75*
G02*
X42884000Y-177911800I326200J0D01*
G01*
G37*
G36*
G01*
X52780800Y-142895000D02*
X52780800Y-141995000D01*
G75*
G02*
X52857000Y-141918800I76200J0D01*
G01*
X54357000Y-141918800D01*
G75*
G02*
X54433200Y-141995000I0J-76200D01*
G01*
X54433200Y-142895000D01*
G75*
G02*
X54357000Y-142971200I-76200J0D01*
G01*
X52857000Y-142971200D01*
G75*
G02*
X52780800Y-142895000I0J76200D01*
G01*
G37*
G36*
G01*
X52780800Y-144165000D02*
X52780800Y-143265000D01*
G75*
G02*
X52857000Y-143188800I76200J0D01*
G01*
X54357000Y-143188800D01*
G75*
G02*
X54433200Y-143265000I0J-76200D01*
G01*
X54433200Y-144165000D01*
G75*
G02*
X54357000Y-144241200I-76200J0D01*
G01*
X52857000Y-144241200D01*
G75*
G02*
X52780800Y-144165000I0J76200D01*
G01*
G37*
G36*
G01*
X52780800Y-145435000D02*
X52780800Y-144535000D01*
G75*
G02*
X52857000Y-144458800I76200J0D01*
G01*
X54357000Y-144458800D01*
G75*
G02*
X54433200Y-144535000I0J-76200D01*
G01*
X54433200Y-145435000D01*
G75*
G02*
X54357000Y-145511200I-76200J0D01*
G01*
X52857000Y-145511200D01*
G75*
G02*
X52780800Y-145435000I0J76200D01*
G01*
G37*
G36*
G01*
X52780800Y-146705000D02*
X52780800Y-145805000D01*
G75*
G02*
X52857000Y-145728800I76200J0D01*
G01*
X54357000Y-145728800D01*
G75*
G02*
X54433200Y-145805000I0J-76200D01*
G01*
X54433200Y-146705000D01*
G75*
G02*
X54357000Y-146781200I-76200J0D01*
G01*
X52857000Y-146781200D01*
G75*
G02*
X52780800Y-146705000I0J76200D01*
G01*
G37*
G36*
G01*
X52780800Y-147975000D02*
X52780800Y-147075000D01*
G75*
G02*
X52857000Y-146998800I76200J0D01*
G01*
X54357000Y-146998800D01*
G75*
G02*
X54433200Y-147075000I0J-76200D01*
G01*
X54433200Y-147975000D01*
G75*
G02*
X54357000Y-148051200I-76200J0D01*
G01*
X52857000Y-148051200D01*
G75*
G02*
X52780800Y-147975000I0J76200D01*
G01*
G37*
G36*
G01*
X52780800Y-149245000D02*
X52780800Y-148345000D01*
G75*
G02*
X52857000Y-148268800I76200J0D01*
G01*
X54357000Y-148268800D01*
G75*
G02*
X54433200Y-148345000I0J-76200D01*
G01*
X54433200Y-149245000D01*
G75*
G02*
X54357000Y-149321200I-76200J0D01*
G01*
X52857000Y-149321200D01*
G75*
G02*
X52780800Y-149245000I0J76200D01*
G01*
G37*
G36*
G01*
X52780800Y-150515000D02*
X52780800Y-149615000D01*
G75*
G02*
X52857000Y-149538800I76200J0D01*
G01*
X54357000Y-149538800D01*
G75*
G02*
X54433200Y-149615000I0J-76200D01*
G01*
X54433200Y-150515000D01*
G75*
G02*
X54357000Y-150591200I-76200J0D01*
G01*
X52857000Y-150591200D01*
G75*
G02*
X52780800Y-150515000I0J76200D01*
G01*
G37*
G36*
G01*
X52780800Y-151785000D02*
X52780800Y-150885000D01*
G75*
G02*
X52857000Y-150808800I76200J0D01*
G01*
X54357000Y-150808800D01*
G75*
G02*
X54433200Y-150885000I0J-76200D01*
G01*
X54433200Y-151785000D01*
G75*
G02*
X54357000Y-151861200I-76200J0D01*
G01*
X52857000Y-151861200D01*
G75*
G02*
X52780800Y-151785000I0J76200D01*
G01*
G37*
G36*
G01*
X52780800Y-153055000D02*
X52780800Y-152155000D01*
G75*
G02*
X52857000Y-152078800I76200J0D01*
G01*
X54357000Y-152078800D01*
G75*
G02*
X54433200Y-152155000I0J-76200D01*
G01*
X54433200Y-153055000D01*
G75*
G02*
X54357000Y-153131200I-76200J0D01*
G01*
X52857000Y-153131200D01*
G75*
G02*
X52780800Y-153055000I0J76200D01*
G01*
G37*
G36*
G01*
X52780800Y-154325000D02*
X52780800Y-153425000D01*
G75*
G02*
X52857000Y-153348800I76200J0D01*
G01*
X54357000Y-153348800D01*
G75*
G02*
X54433200Y-153425000I0J-76200D01*
G01*
X54433200Y-154325000D01*
G75*
G02*
X54357000Y-154401200I-76200J0D01*
G01*
X52857000Y-154401200D01*
G75*
G02*
X52780800Y-154325000I0J76200D01*
G01*
G37*
G36*
G01*
X52780800Y-155595000D02*
X52780800Y-154695000D01*
G75*
G02*
X52857000Y-154618800I76200J0D01*
G01*
X54357000Y-154618800D01*
G75*
G02*
X54433200Y-154695000I0J-76200D01*
G01*
X54433200Y-155595000D01*
G75*
G02*
X54357000Y-155671200I-76200J0D01*
G01*
X52857000Y-155671200D01*
G75*
G02*
X52780800Y-155595000I0J76200D01*
G01*
G37*
G36*
G01*
X52780800Y-156865000D02*
X52780800Y-155965000D01*
G75*
G02*
X52857000Y-155888800I76200J0D01*
G01*
X54357000Y-155888800D01*
G75*
G02*
X54433200Y-155965000I0J-76200D01*
G01*
X54433200Y-156865000D01*
G75*
G02*
X54357000Y-156941200I-76200J0D01*
G01*
X52857000Y-156941200D01*
G75*
G02*
X52780800Y-156865000I0J76200D01*
G01*
G37*
G36*
G01*
X52780800Y-158135000D02*
X52780800Y-157235000D01*
G75*
G02*
X52857000Y-157158800I76200J0D01*
G01*
X54357000Y-157158800D01*
G75*
G02*
X54433200Y-157235000I0J-76200D01*
G01*
X54433200Y-158135000D01*
G75*
G02*
X54357000Y-158211200I-76200J0D01*
G01*
X52857000Y-158211200D01*
G75*
G02*
X52780800Y-158135000I0J76200D01*
G01*
G37*
G36*
G01*
X52780800Y-159405000D02*
X52780800Y-158505000D01*
G75*
G02*
X52857000Y-158428800I76200J0D01*
G01*
X54357000Y-158428800D01*
G75*
G02*
X54433200Y-158505000I0J-76200D01*
G01*
X54433200Y-159405000D01*
G75*
G02*
X54357000Y-159481200I-76200J0D01*
G01*
X52857000Y-159481200D01*
G75*
G02*
X52780800Y-159405000I0J76200D01*
G01*
G37*
G36*
G01*
X55822000Y-161031200D02*
X54922000Y-161031200D01*
G75*
G02*
X54845800Y-160955000I0J76200D01*
G01*
X54845800Y-159455000D01*
G75*
G02*
X54922000Y-159378800I76200J0D01*
G01*
X55822000Y-159378800D01*
G75*
G02*
X55898200Y-159455000I0J-76200D01*
G01*
X55898200Y-160955000D01*
G75*
G02*
X55822000Y-161031200I-76200J0D01*
G01*
G37*
G36*
G01*
X57092000Y-161031200D02*
X56192000Y-161031200D01*
G75*
G02*
X56115800Y-160955000I0J76200D01*
G01*
X56115800Y-159455000D01*
G75*
G02*
X56192000Y-159378800I76200J0D01*
G01*
X57092000Y-159378800D01*
G75*
G02*
X57168200Y-159455000I0J-76200D01*
G01*
X57168200Y-160955000D01*
G75*
G02*
X57092000Y-161031200I-76200J0D01*
G01*
G37*
G36*
G01*
X58362000Y-161031200D02*
X57462000Y-161031200D01*
G75*
G02*
X57385800Y-160955000I0J76200D01*
G01*
X57385800Y-159455000D01*
G75*
G02*
X57462000Y-159378800I76200J0D01*
G01*
X58362000Y-159378800D01*
G75*
G02*
X58438200Y-159455000I0J-76200D01*
G01*
X58438200Y-160955000D01*
G75*
G02*
X58362000Y-161031200I-76200J0D01*
G01*
G37*
G36*
G01*
X59632000Y-161031200D02*
X58732000Y-161031200D01*
G75*
G02*
X58655800Y-160955000I0J76200D01*
G01*
X58655800Y-159455000D01*
G75*
G02*
X58732000Y-159378800I76200J0D01*
G01*
X59632000Y-159378800D01*
G75*
G02*
X59708200Y-159455000I0J-76200D01*
G01*
X59708200Y-160955000D01*
G75*
G02*
X59632000Y-161031200I-76200J0D01*
G01*
G37*
G36*
G01*
X60902000Y-161031200D02*
X60002000Y-161031200D01*
G75*
G02*
X59925800Y-160955000I0J76200D01*
G01*
X59925800Y-159455000D01*
G75*
G02*
X60002000Y-159378800I76200J0D01*
G01*
X60902000Y-159378800D01*
G75*
G02*
X60978200Y-159455000I0J-76200D01*
G01*
X60978200Y-160955000D01*
G75*
G02*
X60902000Y-161031200I-76200J0D01*
G01*
G37*
G36*
G01*
X62172000Y-161031200D02*
X61272000Y-161031200D01*
G75*
G02*
X61195800Y-160955000I0J76200D01*
G01*
X61195800Y-159455000D01*
G75*
G02*
X61272000Y-159378800I76200J0D01*
G01*
X62172000Y-159378800D01*
G75*
G02*
X62248200Y-159455000I0J-76200D01*
G01*
X62248200Y-160955000D01*
G75*
G02*
X62172000Y-161031200I-76200J0D01*
G01*
G37*
G36*
G01*
X63442000Y-161031200D02*
X62542000Y-161031200D01*
G75*
G02*
X62465800Y-160955000I0J76200D01*
G01*
X62465800Y-159455000D01*
G75*
G02*
X62542000Y-159378800I76200J0D01*
G01*
X63442000Y-159378800D01*
G75*
G02*
X63518200Y-159455000I0J-76200D01*
G01*
X63518200Y-160955000D01*
G75*
G02*
X63442000Y-161031200I-76200J0D01*
G01*
G37*
G36*
G01*
X64712000Y-161031200D02*
X63812000Y-161031200D01*
G75*
G02*
X63735800Y-160955000I0J76200D01*
G01*
X63735800Y-159455000D01*
G75*
G02*
X63812000Y-159378800I76200J0D01*
G01*
X64712000Y-159378800D01*
G75*
G02*
X64788200Y-159455000I0J-76200D01*
G01*
X64788200Y-160955000D01*
G75*
G02*
X64712000Y-161031200I-76200J0D01*
G01*
G37*
G36*
G01*
X65982000Y-161031200D02*
X65082000Y-161031200D01*
G75*
G02*
X65005800Y-160955000I0J76200D01*
G01*
X65005800Y-159455000D01*
G75*
G02*
X65082000Y-159378800I76200J0D01*
G01*
X65982000Y-159378800D01*
G75*
G02*
X66058200Y-159455000I0J-76200D01*
G01*
X66058200Y-160955000D01*
G75*
G02*
X65982000Y-161031200I-76200J0D01*
G01*
G37*
G36*
G01*
X67252000Y-161031200D02*
X66352000Y-161031200D01*
G75*
G02*
X66275800Y-160955000I0J76200D01*
G01*
X66275800Y-159455000D01*
G75*
G02*
X66352000Y-159378800I76200J0D01*
G01*
X67252000Y-159378800D01*
G75*
G02*
X67328200Y-159455000I0J-76200D01*
G01*
X67328200Y-160955000D01*
G75*
G02*
X67252000Y-161031200I-76200J0D01*
G01*
G37*
G36*
G01*
X68522000Y-161031200D02*
X67622000Y-161031200D01*
G75*
G02*
X67545800Y-160955000I0J76200D01*
G01*
X67545800Y-159455000D01*
G75*
G02*
X67622000Y-159378800I76200J0D01*
G01*
X68522000Y-159378800D01*
G75*
G02*
X68598200Y-159455000I0J-76200D01*
G01*
X68598200Y-160955000D01*
G75*
G02*
X68522000Y-161031200I-76200J0D01*
G01*
G37*
G36*
G01*
X69792000Y-161031200D02*
X68892000Y-161031200D01*
G75*
G02*
X68815800Y-160955000I0J76200D01*
G01*
X68815800Y-159455000D01*
G75*
G02*
X68892000Y-159378800I76200J0D01*
G01*
X69792000Y-159378800D01*
G75*
G02*
X69868200Y-159455000I0J-76200D01*
G01*
X69868200Y-160955000D01*
G75*
G02*
X69792000Y-161031200I-76200J0D01*
G01*
G37*
G36*
G01*
X71933200Y-158505000D02*
X71933200Y-159405000D01*
G75*
G02*
X71857000Y-159481200I-76200J0D01*
G01*
X70357000Y-159481200D01*
G75*
G02*
X70280800Y-159405000I0J76200D01*
G01*
X70280800Y-158505000D01*
G75*
G02*
X70357000Y-158428800I76200J0D01*
G01*
X71857000Y-158428800D01*
G75*
G02*
X71933200Y-158505000I0J-76200D01*
G01*
G37*
G36*
G01*
X71933200Y-157235000D02*
X71933200Y-158135000D01*
G75*
G02*
X71857000Y-158211200I-76200J0D01*
G01*
X70357000Y-158211200D01*
G75*
G02*
X70280800Y-158135000I0J76200D01*
G01*
X70280800Y-157235000D01*
G75*
G02*
X70357000Y-157158800I76200J0D01*
G01*
X71857000Y-157158800D01*
G75*
G02*
X71933200Y-157235000I0J-76200D01*
G01*
G37*
G36*
G01*
X71933200Y-155965000D02*
X71933200Y-156865000D01*
G75*
G02*
X71857000Y-156941200I-76200J0D01*
G01*
X70357000Y-156941200D01*
G75*
G02*
X70280800Y-156865000I0J76200D01*
G01*
X70280800Y-155965000D01*
G75*
G02*
X70357000Y-155888800I76200J0D01*
G01*
X71857000Y-155888800D01*
G75*
G02*
X71933200Y-155965000I0J-76200D01*
G01*
G37*
G36*
G01*
X71933200Y-154695000D02*
X71933200Y-155595000D01*
G75*
G02*
X71857000Y-155671200I-76200J0D01*
G01*
X70357000Y-155671200D01*
G75*
G02*
X70280800Y-155595000I0J76200D01*
G01*
X70280800Y-154695000D01*
G75*
G02*
X70357000Y-154618800I76200J0D01*
G01*
X71857000Y-154618800D01*
G75*
G02*
X71933200Y-154695000I0J-76200D01*
G01*
G37*
G36*
G01*
X71933200Y-153425000D02*
X71933200Y-154325000D01*
G75*
G02*
X71857000Y-154401200I-76200J0D01*
G01*
X70357000Y-154401200D01*
G75*
G02*
X70280800Y-154325000I0J76200D01*
G01*
X70280800Y-153425000D01*
G75*
G02*
X70357000Y-153348800I76200J0D01*
G01*
X71857000Y-153348800D01*
G75*
G02*
X71933200Y-153425000I0J-76200D01*
G01*
G37*
G36*
G01*
X71933200Y-152155000D02*
X71933200Y-153055000D01*
G75*
G02*
X71857000Y-153131200I-76200J0D01*
G01*
X70357000Y-153131200D01*
G75*
G02*
X70280800Y-153055000I0J76200D01*
G01*
X70280800Y-152155000D01*
G75*
G02*
X70357000Y-152078800I76200J0D01*
G01*
X71857000Y-152078800D01*
G75*
G02*
X71933200Y-152155000I0J-76200D01*
G01*
G37*
G36*
G01*
X71933200Y-150885000D02*
X71933200Y-151785000D01*
G75*
G02*
X71857000Y-151861200I-76200J0D01*
G01*
X70357000Y-151861200D01*
G75*
G02*
X70280800Y-151785000I0J76200D01*
G01*
X70280800Y-150885000D01*
G75*
G02*
X70357000Y-150808800I76200J0D01*
G01*
X71857000Y-150808800D01*
G75*
G02*
X71933200Y-150885000I0J-76200D01*
G01*
G37*
G36*
G01*
X71933200Y-149615000D02*
X71933200Y-150515000D01*
G75*
G02*
X71857000Y-150591200I-76200J0D01*
G01*
X70357000Y-150591200D01*
G75*
G02*
X70280800Y-150515000I0J76200D01*
G01*
X70280800Y-149615000D01*
G75*
G02*
X70357000Y-149538800I76200J0D01*
G01*
X71857000Y-149538800D01*
G75*
G02*
X71933200Y-149615000I0J-76200D01*
G01*
G37*
G36*
G01*
X71933200Y-148345000D02*
X71933200Y-149245000D01*
G75*
G02*
X71857000Y-149321200I-76200J0D01*
G01*
X70357000Y-149321200D01*
G75*
G02*
X70280800Y-149245000I0J76200D01*
G01*
X70280800Y-148345000D01*
G75*
G02*
X70357000Y-148268800I76200J0D01*
G01*
X71857000Y-148268800D01*
G75*
G02*
X71933200Y-148345000I0J-76200D01*
G01*
G37*
G36*
G01*
X71933200Y-147075000D02*
X71933200Y-147975000D01*
G75*
G02*
X71857000Y-148051200I-76200J0D01*
G01*
X70357000Y-148051200D01*
G75*
G02*
X70280800Y-147975000I0J76200D01*
G01*
X70280800Y-147075000D01*
G75*
G02*
X70357000Y-146998800I76200J0D01*
G01*
X71857000Y-146998800D01*
G75*
G02*
X71933200Y-147075000I0J-76200D01*
G01*
G37*
G36*
G01*
X71933200Y-145805000D02*
X71933200Y-146705000D01*
G75*
G02*
X71857000Y-146781200I-76200J0D01*
G01*
X70357000Y-146781200D01*
G75*
G02*
X70280800Y-146705000I0J76200D01*
G01*
X70280800Y-145805000D01*
G75*
G02*
X70357000Y-145728800I76200J0D01*
G01*
X71857000Y-145728800D01*
G75*
G02*
X71933200Y-145805000I0J-76200D01*
G01*
G37*
G36*
G01*
X71933200Y-144535000D02*
X71933200Y-145435000D01*
G75*
G02*
X71857000Y-145511200I-76200J0D01*
G01*
X70357000Y-145511200D01*
G75*
G02*
X70280800Y-145435000I0J76200D01*
G01*
X70280800Y-144535000D01*
G75*
G02*
X70357000Y-144458800I76200J0D01*
G01*
X71857000Y-144458800D01*
G75*
G02*
X71933200Y-144535000I0J-76200D01*
G01*
G37*
G36*
G01*
X71933200Y-143265000D02*
X71933200Y-144165000D01*
G75*
G02*
X71857000Y-144241200I-76200J0D01*
G01*
X70357000Y-144241200D01*
G75*
G02*
X70280800Y-144165000I0J76200D01*
G01*
X70280800Y-143265000D01*
G75*
G02*
X70357000Y-143188800I76200J0D01*
G01*
X71857000Y-143188800D01*
G75*
G02*
X71933200Y-143265000I0J-76200D01*
G01*
G37*
G36*
G01*
X71933200Y-141995000D02*
X71933200Y-142895000D01*
G75*
G02*
X71857000Y-142971200I-76200J0D01*
G01*
X70357000Y-142971200D01*
G75*
G02*
X70280800Y-142895000I0J76200D01*
G01*
X70280800Y-141995000D01*
G75*
G02*
X70357000Y-141918800I76200J0D01*
G01*
X71857000Y-141918800D01*
G75*
G02*
X71933200Y-141995000I0J-76200D01*
G01*
G37*
G36*
G01*
X61383200Y-148315000D02*
X61383200Y-149215000D01*
G75*
G02*
X61307000Y-149291200I-76200J0D01*
G01*
X60407000Y-149291200D01*
G75*
G02*
X60330800Y-149215000I0J76200D01*
G01*
X60330800Y-148315000D01*
G75*
G02*
X60407000Y-148238800I76200J0D01*
G01*
X61307000Y-148238800D01*
G75*
G02*
X61383200Y-148315000I0J-76200D01*
G01*
G37*
G36*
G01*
X62783200Y-148315000D02*
X62783200Y-149215000D01*
G75*
G02*
X62707000Y-149291200I-76200J0D01*
G01*
X61807000Y-149291200D01*
G75*
G02*
X61730800Y-149215000I0J76200D01*
G01*
X61730800Y-148315000D01*
G75*
G02*
X61807000Y-148238800I76200J0D01*
G01*
X62707000Y-148238800D01*
G75*
G02*
X62783200Y-148315000I0J-76200D01*
G01*
G37*
G36*
G01*
X59983200Y-151115000D02*
X59983200Y-152015000D01*
G75*
G02*
X59907000Y-152091200I-76200J0D01*
G01*
X59007000Y-152091200D01*
G75*
G02*
X58930800Y-152015000I0J76200D01*
G01*
X58930800Y-151115000D01*
G75*
G02*
X59007000Y-151038800I76200J0D01*
G01*
X59907000Y-151038800D01*
G75*
G02*
X59983200Y-151115000I0J-76200D01*
G01*
G37*
G36*
G01*
X62783200Y-151115000D02*
X62783200Y-152015000D01*
G75*
G02*
X62707000Y-152091200I-76200J0D01*
G01*
X61807000Y-152091200D01*
G75*
G02*
X61730800Y-152015000I0J76200D01*
G01*
X61730800Y-151115000D01*
G75*
G02*
X61807000Y-151038800I76200J0D01*
G01*
X62707000Y-151038800D01*
G75*
G02*
X62783200Y-151115000I0J-76200D01*
G01*
G37*
G36*
G01*
X59983200Y-149715000D02*
X59983200Y-150615000D01*
G75*
G02*
X59907000Y-150691200I-76200J0D01*
G01*
X59007000Y-150691200D01*
G75*
G02*
X58930800Y-150615000I0J76200D01*
G01*
X58930800Y-149715000D01*
G75*
G02*
X59007000Y-149638800I76200J0D01*
G01*
X59907000Y-149638800D01*
G75*
G02*
X59983200Y-149715000I0J-76200D01*
G01*
G37*
G36*
G01*
X59983200Y-148315000D02*
X59983200Y-149215000D01*
G75*
G02*
X59907000Y-149291200I-76200J0D01*
G01*
X59007000Y-149291200D01*
G75*
G02*
X58930800Y-149215000I0J76200D01*
G01*
X58930800Y-148315000D01*
G75*
G02*
X59007000Y-148238800I76200J0D01*
G01*
X59907000Y-148238800D01*
G75*
G02*
X59983200Y-148315000I0J-76200D01*
G01*
G37*
G36*
G01*
X61383200Y-149715000D02*
X61383200Y-150615000D01*
G75*
G02*
X61307000Y-150691200I-76200J0D01*
G01*
X60407000Y-150691200D01*
G75*
G02*
X60330800Y-150615000I0J76200D01*
G01*
X60330800Y-149715000D01*
G75*
G02*
X60407000Y-149638800I76200J0D01*
G01*
X61307000Y-149638800D01*
G75*
G02*
X61383200Y-149715000I0J-76200D01*
G01*
G37*
G36*
G01*
X62783200Y-149715000D02*
X62783200Y-150615000D01*
G75*
G02*
X62707000Y-150691200I-76200J0D01*
G01*
X61807000Y-150691200D01*
G75*
G02*
X61730800Y-150615000I0J76200D01*
G01*
X61730800Y-149715000D01*
G75*
G02*
X61807000Y-149638800I76200J0D01*
G01*
X62707000Y-149638800D01*
G75*
G02*
X62783200Y-149715000I0J-76200D01*
G01*
G37*
G36*
G01*
X61383200Y-151115000D02*
X61383200Y-152015000D01*
G75*
G02*
X61307000Y-152091200I-76200J0D01*
G01*
X60407000Y-152091200D01*
G75*
G02*
X60330800Y-152015000I0J76200D01*
G01*
X60330800Y-151115000D01*
G75*
G02*
X60407000Y-151038800I76200J0D01*
G01*
X61307000Y-151038800D01*
G75*
G02*
X61383200Y-151115000I0J-76200D01*
G01*
G37*
D12*
X97282000Y-187452000D03*
G36*
G01*
X46667000Y-182648800D02*
X47567000Y-182648800D01*
G75*
G02*
X47893200Y-182975000I0J-326200D01*
G01*
X47893200Y-183500000D01*
G75*
G02*
X47567000Y-183826200I-326200J0D01*
G01*
X46667000Y-183826200D01*
G75*
G02*
X46340800Y-183500000I0J326200D01*
G01*
X46340800Y-182975000D01*
G75*
G02*
X46667000Y-182648800I326200J0D01*
G01*
G37*
G36*
G01*
X46667000Y-184473800D02*
X47567000Y-184473800D01*
G75*
G02*
X47893200Y-184800000I0J-326200D01*
G01*
X47893200Y-185325000D01*
G75*
G02*
X47567000Y-185651200I-326200J0D01*
G01*
X46667000Y-185651200D01*
G75*
G02*
X46340800Y-185325000I0J326200D01*
G01*
X46340800Y-184800000D01*
G75*
G02*
X46667000Y-184473800I326200J0D01*
G01*
G37*
G36*
G01*
X84457200Y-158656000D02*
X84457200Y-159606000D01*
G75*
G02*
X84131000Y-159932200I-326200J0D01*
G01*
X83631000Y-159932200D01*
G75*
G02*
X83304800Y-159606000I0J326200D01*
G01*
X83304800Y-158656000D01*
G75*
G02*
X83631000Y-158329800I326200J0D01*
G01*
X84131000Y-158329800D01*
G75*
G02*
X84457200Y-158656000I0J-326200D01*
G01*
G37*
G36*
G01*
X82557200Y-158656000D02*
X82557200Y-159606000D01*
G75*
G02*
X82231000Y-159932200I-326200J0D01*
G01*
X81731000Y-159932200D01*
G75*
G02*
X81404800Y-159606000I0J326200D01*
G01*
X81404800Y-158656000D01*
G75*
G02*
X81731000Y-158329800I326200J0D01*
G01*
X82231000Y-158329800D01*
G75*
G02*
X82557200Y-158656000I0J-326200D01*
G01*
G37*
G36*
G01*
X52393000Y-179682200D02*
X51493000Y-179682200D01*
G75*
G02*
X51166800Y-179356000I0J326200D01*
G01*
X51166800Y-178831000D01*
G75*
G02*
X51493000Y-178504800I326200J0D01*
G01*
X52393000Y-178504800D01*
G75*
G02*
X52719200Y-178831000I0J-326200D01*
G01*
X52719200Y-179356000D01*
G75*
G02*
X52393000Y-179682200I-326200J0D01*
G01*
G37*
G36*
G01*
X52393000Y-177857200D02*
X51493000Y-177857200D01*
G75*
G02*
X51166800Y-177531000I0J326200D01*
G01*
X51166800Y-177006000D01*
G75*
G02*
X51493000Y-176679800I326200J0D01*
G01*
X52393000Y-176679800D01*
G75*
G02*
X52719200Y-177006000I0J-326200D01*
G01*
X52719200Y-177531000D01*
G75*
G02*
X52393000Y-177857200I-326200J0D01*
G01*
G37*
G36*
G01*
X36096800Y-187093000D02*
X36096800Y-185843000D01*
G75*
G02*
X36323000Y-185616800I226200J0D01*
G01*
X36623000Y-185616800D01*
G75*
G02*
X36849200Y-185843000I0J-226200D01*
G01*
X36849200Y-187093000D01*
G75*
G02*
X36623000Y-187319200I-226200J0D01*
G01*
X36323000Y-187319200D01*
G75*
G02*
X36096800Y-187093000I0J226200D01*
G01*
G37*
G36*
G01*
X37096800Y-187093000D02*
X37096800Y-185843000D01*
G75*
G02*
X37323000Y-185616800I226200J0D01*
G01*
X37623000Y-185616800D01*
G75*
G02*
X37849200Y-185843000I0J-226200D01*
G01*
X37849200Y-187093000D01*
G75*
G02*
X37623000Y-187319200I-226200J0D01*
G01*
X37323000Y-187319200D01*
G75*
G02*
X37096800Y-187093000I0J226200D01*
G01*
G37*
G36*
G01*
X38096800Y-187093000D02*
X38096800Y-185843000D01*
G75*
G02*
X38323000Y-185616800I226200J0D01*
G01*
X38623000Y-185616800D01*
G75*
G02*
X38849200Y-185843000I0J-226200D01*
G01*
X38849200Y-187093000D01*
G75*
G02*
X38623000Y-187319200I-226200J0D01*
G01*
X38323000Y-187319200D01*
G75*
G02*
X38096800Y-187093000I0J226200D01*
G01*
G37*
G36*
G01*
X39096800Y-187093000D02*
X39096800Y-185843000D01*
G75*
G02*
X39323000Y-185616800I226200J0D01*
G01*
X39623000Y-185616800D01*
G75*
G02*
X39849200Y-185843000I0J-226200D01*
G01*
X39849200Y-187093000D01*
G75*
G02*
X39623000Y-187319200I-226200J0D01*
G01*
X39323000Y-187319200D01*
G75*
G02*
X39096800Y-187093000I0J226200D01*
G01*
G37*
G36*
G01*
X40096800Y-190993000D02*
X40096800Y-189693000D01*
G75*
G02*
X40423000Y-189366800I326200J0D01*
G01*
X41123000Y-189366800D01*
G75*
G02*
X41449200Y-189693000I0J-326200D01*
G01*
X41449200Y-190993000D01*
G75*
G02*
X41123000Y-191319200I-326200J0D01*
G01*
X40423000Y-191319200D01*
G75*
G02*
X40096800Y-190993000I0J326200D01*
G01*
G37*
G36*
G01*
X34496800Y-190993000D02*
X34496800Y-189693000D01*
G75*
G02*
X34823000Y-189366800I326200J0D01*
G01*
X35523000Y-189366800D01*
G75*
G02*
X35849200Y-189693000I0J-326200D01*
G01*
X35849200Y-190993000D01*
G75*
G02*
X35523000Y-191319200I-326200J0D01*
G01*
X34823000Y-191319200D01*
G75*
G02*
X34496800Y-190993000I0J326200D01*
G01*
G37*
G36*
G01*
X86683000Y-177880700D02*
X85783000Y-177880700D01*
G75*
G02*
X85456800Y-177554500I0J326200D01*
G01*
X85456800Y-177029500D01*
G75*
G02*
X85783000Y-176703300I326200J0D01*
G01*
X86683000Y-176703300D01*
G75*
G02*
X87009200Y-177029500I0J-326200D01*
G01*
X87009200Y-177554500D01*
G75*
G02*
X86683000Y-177880700I-326200J0D01*
G01*
G37*
G36*
G01*
X86683000Y-176055700D02*
X85783000Y-176055700D01*
G75*
G02*
X85456800Y-175729500I0J326200D01*
G01*
X85456800Y-175204500D01*
G75*
G02*
X85783000Y-174878300I326200J0D01*
G01*
X86683000Y-174878300D01*
G75*
G02*
X87009200Y-175204500I0J-326200D01*
G01*
X87009200Y-175729500D01*
G75*
G02*
X86683000Y-176055700I-326200J0D01*
G01*
G37*
X97282000Y-138938000D03*
G36*
G01*
X54241700Y-169164000D02*
X59804300Y-169164000D01*
G75*
G02*
X59880500Y-169240200I0J-76200D01*
G01*
X59880500Y-171348400D01*
G75*
G02*
X59804300Y-171424600I-76200J0D01*
G01*
X54241700Y-171424600D01*
G75*
G02*
X54165500Y-171348400I0J76200D01*
G01*
X54165500Y-169240200D01*
G75*
G02*
X54241700Y-169164000I76200J0D01*
G01*
G37*
G36*
G01*
X54241700Y-173761400D02*
X59804300Y-173761400D01*
G75*
G02*
X59880500Y-173837600I0J-76200D01*
G01*
X59880500Y-175945800D01*
G75*
G02*
X59804300Y-176022000I-76200J0D01*
G01*
X54241700Y-176022000D01*
G75*
G02*
X54165500Y-175945800I0J76200D01*
G01*
X54165500Y-173837600D01*
G75*
G02*
X54241700Y-173761400I76200J0D01*
G01*
G37*
G36*
G01*
X91769250Y-187683200D02*
X90856750Y-187683200D01*
G75*
G02*
X90536800Y-187363250I0J319950D01*
G01*
X90536800Y-186875750D01*
G75*
G02*
X90856750Y-186555800I319950J0D01*
G01*
X91769250Y-186555800D01*
G75*
G02*
X92089200Y-186875750I0J-319950D01*
G01*
X92089200Y-187363250D01*
G75*
G02*
X91769250Y-187683200I-319950J0D01*
G01*
G37*
G36*
G01*
X91769250Y-185808200D02*
X90856750Y-185808200D01*
G75*
G02*
X90536800Y-185488250I0J319950D01*
G01*
X90536800Y-185000750D01*
G75*
G02*
X90856750Y-184680800I319950J0D01*
G01*
X91769250Y-184680800D01*
G75*
G02*
X92089200Y-185000750I0J-319950D01*
G01*
X92089200Y-185488250D01*
G75*
G02*
X91769250Y-185808200I-319950J0D01*
G01*
G37*
G36*
G01*
X47211000Y-144655200D02*
X46261000Y-144655200D01*
G75*
G02*
X45934800Y-144329000I0J326200D01*
G01*
X45934800Y-143829000D01*
G75*
G02*
X46261000Y-143502800I326200J0D01*
G01*
X47211000Y-143502800D01*
G75*
G02*
X47537200Y-143829000I0J-326200D01*
G01*
X47537200Y-144329000D01*
G75*
G02*
X47211000Y-144655200I-326200J0D01*
G01*
G37*
G36*
G01*
X47211000Y-142755200D02*
X46261000Y-142755200D01*
G75*
G02*
X45934800Y-142429000I0J326200D01*
G01*
X45934800Y-141929000D01*
G75*
G02*
X46261000Y-141602800I326200J0D01*
G01*
X47211000Y-141602800D01*
G75*
G02*
X47537200Y-141929000I0J-326200D01*
G01*
X47537200Y-142429000D01*
G75*
G02*
X47211000Y-142755200I-326200J0D01*
G01*
G37*
G36*
G01*
X62456800Y-184977000D02*
X62456800Y-182677000D01*
G75*
G02*
X62533000Y-182600800I76200J0D01*
G01*
X64833000Y-182600800D01*
G75*
G02*
X64909200Y-182677000I0J-76200D01*
G01*
X64909200Y-184977000D01*
G75*
G02*
X64833000Y-185053200I-76200J0D01*
G01*
X62533000Y-185053200D01*
G75*
G02*
X62456800Y-184977000I0J76200D01*
G01*
G37*
D11*
X67183000Y-183827000D03*
X70683000Y-183827000D03*
G36*
G01*
X96458000Y-153443200D02*
X94158000Y-153443200D01*
G75*
G02*
X94081800Y-153367000I0J76200D01*
G01*
X94081800Y-151067000D01*
G75*
G02*
X94158000Y-150990800I76200J0D01*
G01*
X96458000Y-150990800D01*
G75*
G02*
X96534200Y-151067000I0J-76200D01*
G01*
X96534200Y-153367000D01*
G75*
G02*
X96458000Y-153443200I-76200J0D01*
G01*
G37*
X95308000Y-148717000D03*
X95308000Y-145217000D03*
G36*
G01*
X83762000Y-177904200D02*
X82862000Y-177904200D01*
G75*
G02*
X82535800Y-177578000I0J326200D01*
G01*
X82535800Y-177053000D01*
G75*
G02*
X82862000Y-176726800I326200J0D01*
G01*
X83762000Y-176726800D01*
G75*
G02*
X84088200Y-177053000I0J-326200D01*
G01*
X84088200Y-177578000D01*
G75*
G02*
X83762000Y-177904200I-326200J0D01*
G01*
G37*
G36*
G01*
X83762000Y-176079200D02*
X82862000Y-176079200D01*
G75*
G02*
X82535800Y-175753000I0J326200D01*
G01*
X82535800Y-175228000D01*
G75*
G02*
X82862000Y-174901800I326200J0D01*
G01*
X83762000Y-174901800D01*
G75*
G02*
X84088200Y-175228000I0J-326200D01*
G01*
X84088200Y-175753000D01*
G75*
G02*
X83762000Y-176079200I-326200J0D01*
G01*
G37*
G36*
G01*
X36747000Y-135598800D02*
X38447000Y-135598800D01*
G75*
G02*
X38523200Y-135675000I0J-76200D01*
G01*
X38523200Y-137375000D01*
G75*
G02*
X38447000Y-137451200I-76200J0D01*
G01*
X36747000Y-137451200D01*
G75*
G02*
X36670800Y-137375000I0J76200D01*
G01*
X36670800Y-135675000D01*
G75*
G02*
X36747000Y-135598800I76200J0D01*
G01*
G37*
D13*
X35057000Y-136525000D03*
G36*
G01*
X80485200Y-151068000D02*
X80485200Y-152268000D01*
G75*
G02*
X80409000Y-152344200I-76200J0D01*
G01*
X79709000Y-152344200D01*
G75*
G02*
X79632800Y-152268000I0J76200D01*
G01*
X79632800Y-151068000D01*
G75*
G02*
X79709000Y-150991800I76200J0D01*
G01*
X80409000Y-150991800D01*
G75*
G02*
X80485200Y-151068000I0J-76200D01*
G01*
G37*
G36*
G01*
X81585200Y-151068000D02*
X81585200Y-152268000D01*
G75*
G02*
X81509000Y-152344200I-76200J0D01*
G01*
X80809000Y-152344200D01*
G75*
G02*
X80732800Y-152268000I0J76200D01*
G01*
X80732800Y-151068000D01*
G75*
G02*
X80809000Y-150991800I76200J0D01*
G01*
X81509000Y-150991800D01*
G75*
G02*
X81585200Y-151068000I0J-76200D01*
G01*
G37*
G36*
G01*
X82685200Y-151068000D02*
X82685200Y-152268000D01*
G75*
G02*
X82609000Y-152344200I-76200J0D01*
G01*
X81909000Y-152344200D01*
G75*
G02*
X81832800Y-152268000I0J76200D01*
G01*
X81832800Y-151068000D01*
G75*
G02*
X81909000Y-150991800I76200J0D01*
G01*
X82609000Y-150991800D01*
G75*
G02*
X82685200Y-151068000I0J-76200D01*
G01*
G37*
G36*
G01*
X83785200Y-151068000D02*
X83785200Y-152268000D01*
G75*
G02*
X83709000Y-152344200I-76200J0D01*
G01*
X83009000Y-152344200D01*
G75*
G02*
X82932800Y-152268000I0J76200D01*
G01*
X82932800Y-151068000D01*
G75*
G02*
X83009000Y-150991800I76200J0D01*
G01*
X83709000Y-150991800D01*
G75*
G02*
X83785200Y-151068000I0J-76200D01*
G01*
G37*
G36*
G01*
X84885200Y-151068000D02*
X84885200Y-152268000D01*
G75*
G02*
X84809000Y-152344200I-76200J0D01*
G01*
X84109000Y-152344200D01*
G75*
G02*
X84032800Y-152268000I0J76200D01*
G01*
X84032800Y-151068000D01*
G75*
G02*
X84109000Y-150991800I76200J0D01*
G01*
X84809000Y-150991800D01*
G75*
G02*
X84885200Y-151068000I0J-76200D01*
G01*
G37*
G36*
G01*
X85985200Y-151068000D02*
X85985200Y-152268000D01*
G75*
G02*
X85909000Y-152344200I-76200J0D01*
G01*
X85209000Y-152344200D01*
G75*
G02*
X85132800Y-152268000I0J76200D01*
G01*
X85132800Y-151068000D01*
G75*
G02*
X85209000Y-150991800I76200J0D01*
G01*
X85909000Y-150991800D01*
G75*
G02*
X85985200Y-151068000I0J-76200D01*
G01*
G37*
G36*
G01*
X87085200Y-151068000D02*
X87085200Y-152268000D01*
G75*
G02*
X87009000Y-152344200I-76200J0D01*
G01*
X86309000Y-152344200D01*
G75*
G02*
X86232800Y-152268000I0J76200D01*
G01*
X86232800Y-151068000D01*
G75*
G02*
X86309000Y-150991800I76200J0D01*
G01*
X87009000Y-150991800D01*
G75*
G02*
X87085200Y-151068000I0J-76200D01*
G01*
G37*
G36*
G01*
X88185200Y-151068000D02*
X88185200Y-152268000D01*
G75*
G02*
X88109000Y-152344200I-76200J0D01*
G01*
X87409000Y-152344200D01*
G75*
G02*
X87332800Y-152268000I0J76200D01*
G01*
X87332800Y-151068000D01*
G75*
G02*
X87409000Y-150991800I76200J0D01*
G01*
X88109000Y-150991800D01*
G75*
G02*
X88185200Y-151068000I0J-76200D01*
G01*
G37*
G36*
G01*
X89135200Y-151068000D02*
X89135200Y-152268000D01*
G75*
G02*
X89059000Y-152344200I-76200J0D01*
G01*
X88359000Y-152344200D01*
G75*
G02*
X88282800Y-152268000I0J76200D01*
G01*
X88282800Y-151068000D01*
G75*
G02*
X88359000Y-150991800I76200J0D01*
G01*
X89059000Y-150991800D01*
G75*
G02*
X89135200Y-151068000I0J-76200D01*
G01*
G37*
G36*
G01*
X90235200Y-140768000D02*
X90235200Y-141568000D01*
G75*
G02*
X90159000Y-141644200I-76200J0D01*
G01*
X89159000Y-141644200D01*
G75*
G02*
X89082800Y-141568000I0J76200D01*
G01*
X89082800Y-140768000D01*
G75*
G02*
X89159000Y-140691800I76200J0D01*
G01*
X90159000Y-140691800D01*
G75*
G02*
X90235200Y-140768000I0J-76200D01*
G01*
G37*
G36*
G01*
X79085200Y-151068000D02*
X79085200Y-152268000D01*
G75*
G02*
X79009000Y-152344200I-76200J0D01*
G01*
X78009000Y-152344200D01*
G75*
G02*
X77932800Y-152268000I0J76200D01*
G01*
X77932800Y-151068000D01*
G75*
G02*
X78009000Y-150991800I76200J0D01*
G01*
X79009000Y-150991800D01*
G75*
G02*
X79085200Y-151068000I0J-76200D01*
G01*
G37*
G36*
G01*
X76885200Y-135618000D02*
X76885200Y-137518000D01*
G75*
G02*
X76809000Y-137594200I-76200J0D01*
G01*
X75509000Y-137594200D01*
G75*
G02*
X75432800Y-137518000I0J76200D01*
G01*
X75432800Y-135618000D01*
G75*
G02*
X75509000Y-135541800I76200J0D01*
G01*
X76809000Y-135541800D01*
G75*
G02*
X76885200Y-135618000I0J-76200D01*
G01*
G37*
G36*
G01*
X90235200Y-135618000D02*
X90235200Y-138418000D01*
G75*
G02*
X90159000Y-138494200I-76200J0D01*
G01*
X89159000Y-138494200D01*
G75*
G02*
X89082800Y-138418000I0J76200D01*
G01*
X89082800Y-135618000D01*
G75*
G02*
X89159000Y-135541800I76200J0D01*
G01*
X90159000Y-135541800D01*
G75*
G02*
X90235200Y-135618000I0J-76200D01*
G01*
G37*
G36*
G01*
X90235200Y-146768000D02*
X90235200Y-147968000D01*
G75*
G02*
X90159000Y-148044200I-76200J0D01*
G01*
X89159000Y-148044200D01*
G75*
G02*
X89082800Y-147968000I0J76200D01*
G01*
X89082800Y-146768000D01*
G75*
G02*
X89159000Y-146691800I76200J0D01*
G01*
X90159000Y-146691800D01*
G75*
G02*
X90235200Y-146768000I0J-76200D01*
G01*
G37*
G36*
G01*
X30077000Y-147100800D02*
X31327000Y-147100800D01*
G75*
G02*
X31553200Y-147327000I0J-226200D01*
G01*
X31553200Y-147627000D01*
G75*
G02*
X31327000Y-147853200I-226200J0D01*
G01*
X30077000Y-147853200D01*
G75*
G02*
X29850800Y-147627000I0J226200D01*
G01*
X29850800Y-147327000D01*
G75*
G02*
X30077000Y-147100800I226200J0D01*
G01*
G37*
G36*
G01*
X30077000Y-148100800D02*
X31327000Y-148100800D01*
G75*
G02*
X31553200Y-148327000I0J-226200D01*
G01*
X31553200Y-148627000D01*
G75*
G02*
X31327000Y-148853200I-226200J0D01*
G01*
X30077000Y-148853200D01*
G75*
G02*
X29850800Y-148627000I0J226200D01*
G01*
X29850800Y-148327000D01*
G75*
G02*
X30077000Y-148100800I226200J0D01*
G01*
G37*
G36*
G01*
X30077000Y-149100800D02*
X31327000Y-149100800D01*
G75*
G02*
X31553200Y-149327000I0J-226200D01*
G01*
X31553200Y-149627000D01*
G75*
G02*
X31327000Y-149853200I-226200J0D01*
G01*
X30077000Y-149853200D01*
G75*
G02*
X29850800Y-149627000I0J226200D01*
G01*
X29850800Y-149327000D01*
G75*
G02*
X30077000Y-149100800I226200J0D01*
G01*
G37*
G36*
G01*
X30077000Y-150100800D02*
X31327000Y-150100800D01*
G75*
G02*
X31553200Y-150327000I0J-226200D01*
G01*
X31553200Y-150627000D01*
G75*
G02*
X31327000Y-150853200I-226200J0D01*
G01*
X30077000Y-150853200D01*
G75*
G02*
X29850800Y-150627000I0J226200D01*
G01*
X29850800Y-150327000D01*
G75*
G02*
X30077000Y-150100800I226200J0D01*
G01*
G37*
G36*
G01*
X26177000Y-151100800D02*
X27477000Y-151100800D01*
G75*
G02*
X27803200Y-151427000I0J-326200D01*
G01*
X27803200Y-152127000D01*
G75*
G02*
X27477000Y-152453200I-326200J0D01*
G01*
X26177000Y-152453200D01*
G75*
G02*
X25850800Y-152127000I0J326200D01*
G01*
X25850800Y-151427000D01*
G75*
G02*
X26177000Y-151100800I326200J0D01*
G01*
G37*
G36*
G01*
X26177000Y-145500800D02*
X27477000Y-145500800D01*
G75*
G02*
X27803200Y-145827000I0J-326200D01*
G01*
X27803200Y-146527000D01*
G75*
G02*
X27477000Y-146853200I-326200J0D01*
G01*
X26177000Y-146853200D01*
G75*
G02*
X25850800Y-146527000I0J326200D01*
G01*
X25850800Y-145827000D01*
G75*
G02*
X26177000Y-145500800I326200J0D01*
G01*
G37*
G36*
G01*
X49436000Y-161033800D02*
X50386000Y-161033800D01*
G75*
G02*
X50712200Y-161360000I0J-326200D01*
G01*
X50712200Y-161860000D01*
G75*
G02*
X50386000Y-162186200I-326200J0D01*
G01*
X49436000Y-162186200D01*
G75*
G02*
X49109800Y-161860000I0J326200D01*
G01*
X49109800Y-161360000D01*
G75*
G02*
X49436000Y-161033800I326200J0D01*
G01*
G37*
G36*
G01*
X49436000Y-162933800D02*
X50386000Y-162933800D01*
G75*
G02*
X50712200Y-163260000I0J-326200D01*
G01*
X50712200Y-163760000D01*
G75*
G02*
X50386000Y-164086200I-326200J0D01*
G01*
X49436000Y-164086200D01*
G75*
G02*
X49109800Y-163760000I0J326200D01*
G01*
X49109800Y-163260000D01*
G75*
G02*
X49436000Y-162933800I326200J0D01*
G01*
G37*
G36*
G01*
X76498000Y-158839800D02*
X78198000Y-158839800D01*
G75*
G02*
X78274200Y-158916000I0J-76200D01*
G01*
X78274200Y-160616000D01*
G75*
G02*
X78198000Y-160692200I-76200J0D01*
G01*
X76498000Y-160692200D01*
G75*
G02*
X76421800Y-160616000I0J76200D01*
G01*
X76421800Y-158916000D01*
G75*
G02*
X76498000Y-158839800I76200J0D01*
G01*
G37*
X74808000Y-159766000D03*
G36*
G01*
X40800000Y-161033800D02*
X41750000Y-161033800D01*
G75*
G02*
X42076200Y-161360000I0J-326200D01*
G01*
X42076200Y-161860000D01*
G75*
G02*
X41750000Y-162186200I-326200J0D01*
G01*
X40800000Y-162186200D01*
G75*
G02*
X40473800Y-161860000I0J326200D01*
G01*
X40473800Y-161360000D01*
G75*
G02*
X40800000Y-161033800I326200J0D01*
G01*
G37*
G36*
G01*
X40800000Y-162933800D02*
X41750000Y-162933800D01*
G75*
G02*
X42076200Y-163260000I0J-326200D01*
G01*
X42076200Y-163760000D01*
G75*
G02*
X41750000Y-164086200I-326200J0D01*
G01*
X40800000Y-164086200D01*
G75*
G02*
X40473800Y-163760000I0J326200D01*
G01*
X40473800Y-163260000D01*
G75*
G02*
X40800000Y-162933800I326200J0D01*
G01*
G37*
D14*
X31579000Y-160228000D03*
X31579000Y-164628000D03*
G36*
G01*
X33202800Y-161078000D02*
X33202800Y-160578000D01*
G75*
G02*
X33279000Y-160501800I76200J0D01*
G01*
X35579000Y-160501800D01*
G75*
G02*
X35655200Y-160578000I0J-76200D01*
G01*
X35655200Y-161078000D01*
G75*
G02*
X35579000Y-161154200I-76200J0D01*
G01*
X33279000Y-161154200D01*
G75*
G02*
X33202800Y-161078000I0J76200D01*
G01*
G37*
G36*
G01*
X33202800Y-161878000D02*
X33202800Y-161378000D01*
G75*
G02*
X33279000Y-161301800I76200J0D01*
G01*
X35579000Y-161301800D01*
G75*
G02*
X35655200Y-161378000I0J-76200D01*
G01*
X35655200Y-161878000D01*
G75*
G02*
X35579000Y-161954200I-76200J0D01*
G01*
X33279000Y-161954200D01*
G75*
G02*
X33202800Y-161878000I0J76200D01*
G01*
G37*
G36*
G01*
X33202800Y-162678000D02*
X33202800Y-162178000D01*
G75*
G02*
X33279000Y-162101800I76200J0D01*
G01*
X35579000Y-162101800D01*
G75*
G02*
X35655200Y-162178000I0J-76200D01*
G01*
X35655200Y-162678000D01*
G75*
G02*
X35579000Y-162754200I-76200J0D01*
G01*
X33279000Y-162754200D01*
G75*
G02*
X33202800Y-162678000I0J76200D01*
G01*
G37*
G36*
G01*
X33202800Y-163478000D02*
X33202800Y-162978000D01*
G75*
G02*
X33279000Y-162901800I76200J0D01*
G01*
X35579000Y-162901800D01*
G75*
G02*
X35655200Y-162978000I0J-76200D01*
G01*
X35655200Y-163478000D01*
G75*
G02*
X35579000Y-163554200I-76200J0D01*
G01*
X33279000Y-163554200D01*
G75*
G02*
X33202800Y-163478000I0J76200D01*
G01*
G37*
G36*
G01*
X33202800Y-164278000D02*
X33202800Y-163778000D01*
G75*
G02*
X33279000Y-163701800I76200J0D01*
G01*
X35579000Y-163701800D01*
G75*
G02*
X35655200Y-163778000I0J-76200D01*
G01*
X35655200Y-164278000D01*
G75*
G02*
X35579000Y-164354200I-76200J0D01*
G01*
X33279000Y-164354200D01*
G75*
G02*
X33202800Y-164278000I0J76200D01*
G01*
G37*
G36*
G01*
X33002800Y-167878000D02*
X33002800Y-165878000D01*
G75*
G02*
X33079000Y-165801800I76200J0D01*
G01*
X35579000Y-165801800D01*
G75*
G02*
X35655200Y-165878000I0J-76200D01*
G01*
X35655200Y-167878000D01*
G75*
G02*
X35579000Y-167954200I-76200J0D01*
G01*
X33079000Y-167954200D01*
G75*
G02*
X33002800Y-167878000I0J76200D01*
G01*
G37*
G36*
G01*
X27502800Y-158978000D02*
X27502800Y-156978000D01*
G75*
G02*
X27579000Y-156901800I76200J0D01*
G01*
X30079000Y-156901800D01*
G75*
G02*
X30155200Y-156978000I0J-76200D01*
G01*
X30155200Y-158978000D01*
G75*
G02*
X30079000Y-159054200I-76200J0D01*
G01*
X27579000Y-159054200D01*
G75*
G02*
X27502800Y-158978000I0J76200D01*
G01*
G37*
G36*
G01*
X33002800Y-158978000D02*
X33002800Y-156978000D01*
G75*
G02*
X33079000Y-156901800I76200J0D01*
G01*
X35579000Y-156901800D01*
G75*
G02*
X35655200Y-156978000I0J-76200D01*
G01*
X35655200Y-158978000D01*
G75*
G02*
X35579000Y-159054200I-76200J0D01*
G01*
X33079000Y-159054200D01*
G75*
G02*
X33002800Y-158978000I0J76200D01*
G01*
G37*
G36*
G01*
X27502800Y-167878000D02*
X27502800Y-165878000D01*
G75*
G02*
X27579000Y-165801800I76200J0D01*
G01*
X30079000Y-165801800D01*
G75*
G02*
X30155200Y-165878000I0J-76200D01*
G01*
X30155200Y-167878000D01*
G75*
G02*
X30079000Y-167954200I-76200J0D01*
G01*
X27579000Y-167954200D01*
G75*
G02*
X27502800Y-167878000I0J76200D01*
G01*
G37*
G36*
G01*
X74491000Y-177904200D02*
X73591000Y-177904200D01*
G75*
G02*
X73264800Y-177578000I0J326200D01*
G01*
X73264800Y-177053000D01*
G75*
G02*
X73591000Y-176726800I326200J0D01*
G01*
X74491000Y-176726800D01*
G75*
G02*
X74817200Y-177053000I0J-326200D01*
G01*
X74817200Y-177578000D01*
G75*
G02*
X74491000Y-177904200I-326200J0D01*
G01*
G37*
G36*
G01*
X74491000Y-176079200D02*
X73591000Y-176079200D01*
G75*
G02*
X73264800Y-175753000I0J326200D01*
G01*
X73264800Y-175228000D01*
G75*
G02*
X73591000Y-174901800I326200J0D01*
G01*
X74491000Y-174901800D01*
G75*
G02*
X74817200Y-175228000I0J-326200D01*
G01*
X74817200Y-175753000D01*
G75*
G02*
X74491000Y-176079200I-326200J0D01*
G01*
G37*
G36*
G01*
X43781000Y-182648800D02*
X44681000Y-182648800D01*
G75*
G02*
X45007200Y-182975000I0J-326200D01*
G01*
X45007200Y-183500000D01*
G75*
G02*
X44681000Y-183826200I-326200J0D01*
G01*
X43781000Y-183826200D01*
G75*
G02*
X43454800Y-183500000I0J326200D01*
G01*
X43454800Y-182975000D01*
G75*
G02*
X43781000Y-182648800I326200J0D01*
G01*
G37*
G36*
G01*
X43781000Y-184473800D02*
X44681000Y-184473800D01*
G75*
G02*
X45007200Y-184800000I0J-326200D01*
G01*
X45007200Y-185325000D01*
G75*
G02*
X44681000Y-185651200I-326200J0D01*
G01*
X43781000Y-185651200D01*
G75*
G02*
X43454800Y-185325000I0J326200D01*
G01*
X43454800Y-184800000D01*
G75*
G02*
X43781000Y-184473800I326200J0D01*
G01*
G37*
G36*
G01*
X77285000Y-177904200D02*
X76385000Y-177904200D01*
G75*
G02*
X76058800Y-177578000I0J326200D01*
G01*
X76058800Y-177053000D01*
G75*
G02*
X76385000Y-176726800I326200J0D01*
G01*
X77285000Y-176726800D01*
G75*
G02*
X77611200Y-177053000I0J-326200D01*
G01*
X77611200Y-177578000D01*
G75*
G02*
X77285000Y-177904200I-326200J0D01*
G01*
G37*
G36*
G01*
X77285000Y-176079200D02*
X76385000Y-176079200D01*
G75*
G02*
X76058800Y-175753000I0J326200D01*
G01*
X76058800Y-175228000D01*
G75*
G02*
X76385000Y-174901800I326200J0D01*
G01*
X77285000Y-174901800D01*
G75*
G02*
X77611200Y-175228000I0J-326200D01*
G01*
X77611200Y-175753000D01*
G75*
G02*
X77285000Y-176079200I-326200J0D01*
G01*
G37*
G36*
G01*
X87705250Y-187683200D02*
X86792750Y-187683200D01*
G75*
G02*
X86472800Y-187363250I0J319950D01*
G01*
X86472800Y-186875750D01*
G75*
G02*
X86792750Y-186555800I319950J0D01*
G01*
X87705250Y-186555800D01*
G75*
G02*
X88025200Y-186875750I0J-319950D01*
G01*
X88025200Y-187363250D01*
G75*
G02*
X87705250Y-187683200I-319950J0D01*
G01*
G37*
G36*
G01*
X87705250Y-185808200D02*
X86792750Y-185808200D01*
G75*
G02*
X86472800Y-185488250I0J319950D01*
G01*
X86472800Y-185000750D01*
G75*
G02*
X86792750Y-184680800I319950J0D01*
G01*
X87705250Y-184680800D01*
G75*
G02*
X88025200Y-185000750I0J-319950D01*
G01*
X88025200Y-185488250D01*
G75*
G02*
X87705250Y-185808200I-319950J0D01*
G01*
G37*
D12*
X29718000Y-187452000D03*
G36*
G01*
X45737200Y-166024000D02*
X45737200Y-167224000D01*
G75*
G02*
X45661000Y-167300200I-76200J0D01*
G01*
X44761000Y-167300200D01*
G75*
G02*
X44684800Y-167224000I0J76200D01*
G01*
X44684800Y-166024000D01*
G75*
G02*
X44761000Y-165947800I76200J0D01*
G01*
X45661000Y-165947800D01*
G75*
G02*
X45737200Y-166024000I0J-76200D01*
G01*
G37*
G36*
G01*
X42437200Y-166024000D02*
X42437200Y-167224000D01*
G75*
G02*
X42361000Y-167300200I-76200J0D01*
G01*
X41461000Y-167300200D01*
G75*
G02*
X41384800Y-167224000I0J76200D01*
G01*
X41384800Y-166024000D01*
G75*
G02*
X41461000Y-165947800I76200J0D01*
G01*
X42361000Y-165947800D01*
G75*
G02*
X42437200Y-166024000I0J-76200D01*
G01*
G37*
G36*
G01*
X82958800Y-155669000D02*
X82958800Y-154719000D01*
G75*
G02*
X83285000Y-154392800I326200J0D01*
G01*
X83785000Y-154392800D01*
G75*
G02*
X84111200Y-154719000I0J-326200D01*
G01*
X84111200Y-155669000D01*
G75*
G02*
X83785000Y-155995200I-326200J0D01*
G01*
X83285000Y-155995200D01*
G75*
G02*
X82958800Y-155669000I0J326200D01*
G01*
G37*
G36*
G01*
X84858800Y-155669000D02*
X84858800Y-154719000D01*
G75*
G02*
X85185000Y-154392800I326200J0D01*
G01*
X85685000Y-154392800D01*
G75*
G02*
X86011200Y-154719000I0J-326200D01*
G01*
X86011200Y-155669000D01*
G75*
G02*
X85685000Y-155995200I-326200J0D01*
G01*
X85185000Y-155995200D01*
G75*
G02*
X84858800Y-155669000I0J326200D01*
G01*
G37*
G36*
G01*
X44646000Y-164061200D02*
X43746000Y-164061200D01*
G75*
G02*
X43419800Y-163735000I0J326200D01*
G01*
X43419800Y-163210000D01*
G75*
G02*
X43746000Y-162883800I326200J0D01*
G01*
X44646000Y-162883800D01*
G75*
G02*
X44972200Y-163210000I0J-326200D01*
G01*
X44972200Y-163735000D01*
G75*
G02*
X44646000Y-164061200I-326200J0D01*
G01*
G37*
G36*
G01*
X44646000Y-162236200D02*
X43746000Y-162236200D01*
G75*
G02*
X43419800Y-161910000I0J326200D01*
G01*
X43419800Y-161385000D01*
G75*
G02*
X43746000Y-161058800I326200J0D01*
G01*
X44646000Y-161058800D01*
G75*
G02*
X44972200Y-161385000I0J-326200D01*
G01*
X44972200Y-161910000D01*
G75*
G02*
X44646000Y-162236200I-326200J0D01*
G01*
G37*
X29718000Y-138938000D03*
G36*
G01*
X70645000Y-174876800D02*
X71595000Y-174876800D01*
G75*
G02*
X71921200Y-175203000I0J-326200D01*
G01*
X71921200Y-175703000D01*
G75*
G02*
X71595000Y-176029200I-326200J0D01*
G01*
X70645000Y-176029200D01*
G75*
G02*
X70318800Y-175703000I0J326200D01*
G01*
X70318800Y-175203000D01*
G75*
G02*
X70645000Y-174876800I326200J0D01*
G01*
G37*
G36*
G01*
X70645000Y-176776800D02*
X71595000Y-176776800D01*
G75*
G02*
X71921200Y-177103000I0J-326200D01*
G01*
X71921200Y-177603000D01*
G75*
G02*
X71595000Y-177929200I-326200J0D01*
G01*
X70645000Y-177929200D01*
G75*
G02*
X70318800Y-177603000I0J326200D01*
G01*
X70318800Y-177103000D01*
G75*
G02*
X70645000Y-176776800I326200J0D01*
G01*
G37*
G36*
G01*
X79281000Y-174937800D02*
X80231000Y-174937800D01*
G75*
G02*
X80557200Y-175264000I0J-326200D01*
G01*
X80557200Y-175764000D01*
G75*
G02*
X80231000Y-176090200I-326200J0D01*
G01*
X79281000Y-176090200D01*
G75*
G02*
X78954800Y-175764000I0J326200D01*
G01*
X78954800Y-175264000D01*
G75*
G02*
X79281000Y-174937800I326200J0D01*
G01*
G37*
G36*
G01*
X79281000Y-176837800D02*
X80231000Y-176837800D01*
G75*
G02*
X80557200Y-177164000I0J-326200D01*
G01*
X80557200Y-177664000D01*
G75*
G02*
X80231000Y-177990200I-326200J0D01*
G01*
X79281000Y-177990200D01*
G75*
G02*
X78954800Y-177664000I0J326200D01*
G01*
X78954800Y-177164000D01*
G75*
G02*
X79281000Y-176837800I326200J0D01*
G01*
G37*
G36*
G01*
X46123800Y-138626000D02*
X46123800Y-137726000D01*
G75*
G02*
X46450000Y-137399800I326200J0D01*
G01*
X46975000Y-137399800D01*
G75*
G02*
X47301200Y-137726000I0J-326200D01*
G01*
X47301200Y-138626000D01*
G75*
G02*
X46975000Y-138952200I-326200J0D01*
G01*
X46450000Y-138952200D01*
G75*
G02*
X46123800Y-138626000I0J326200D01*
G01*
G37*
G36*
G01*
X47948800Y-138626000D02*
X47948800Y-137726000D01*
G75*
G02*
X48275000Y-137399800I326200J0D01*
G01*
X48800000Y-137399800D01*
G75*
G02*
X49126200Y-137726000I0J-326200D01*
G01*
X49126200Y-138626000D01*
G75*
G02*
X48800000Y-138952200I-326200J0D01*
G01*
X48275000Y-138952200D01*
G75*
G02*
X47948800Y-138626000I0J326200D01*
G01*
G37*
G36*
G01*
X64229000Y-174881200D02*
X63279000Y-174881200D01*
G75*
G02*
X62952800Y-174555000I0J326200D01*
G01*
X62952800Y-174055000D01*
G75*
G02*
X63279000Y-173728800I326200J0D01*
G01*
X64229000Y-173728800D01*
G75*
G02*
X64555200Y-174055000I0J-326200D01*
G01*
X64555200Y-174555000D01*
G75*
G02*
X64229000Y-174881200I-326200J0D01*
G01*
G37*
G36*
G01*
X64229000Y-172981200D02*
X63279000Y-172981200D01*
G75*
G02*
X62952800Y-172655000I0J326200D01*
G01*
X62952800Y-172155000D01*
G75*
G02*
X63279000Y-171828800I326200J0D01*
G01*
X64229000Y-171828800D01*
G75*
G02*
X64555200Y-172155000I0J-326200D01*
G01*
X64555200Y-172655000D01*
G75*
G02*
X64229000Y-172981200I-326200J0D01*
G01*
G37*
G36*
G01*
X47440000Y-164061200D02*
X46540000Y-164061200D01*
G75*
G02*
X46213800Y-163735000I0J326200D01*
G01*
X46213800Y-163210000D01*
G75*
G02*
X46540000Y-162883800I326200J0D01*
G01*
X47440000Y-162883800D01*
G75*
G02*
X47766200Y-163210000I0J-326200D01*
G01*
X47766200Y-163735000D01*
G75*
G02*
X47440000Y-164061200I-326200J0D01*
G01*
G37*
G36*
G01*
X47440000Y-162236200D02*
X46540000Y-162236200D01*
G75*
G02*
X46213800Y-161910000I0J326200D01*
G01*
X46213800Y-161385000D01*
G75*
G02*
X46540000Y-161058800I326200J0D01*
G01*
X47440000Y-161058800D01*
G75*
G02*
X47766200Y-161385000I0J-326200D01*
G01*
X47766200Y-161910000D01*
G75*
G02*
X47440000Y-162236200I-326200J0D01*
G01*
G37*
G36*
G01*
X43133700Y-141155000D02*
X43133700Y-142055000D01*
G75*
G02*
X42807500Y-142381200I-326200J0D01*
G01*
X42282500Y-142381200D01*
G75*
G02*
X41956300Y-142055000I0J326200D01*
G01*
X41956300Y-141155000D01*
G75*
G02*
X42282500Y-140828800I326200J0D01*
G01*
X42807500Y-140828800D01*
G75*
G02*
X43133700Y-141155000I0J-326200D01*
G01*
G37*
G36*
G01*
X41308700Y-141155000D02*
X41308700Y-142055000D01*
G75*
G02*
X40982500Y-142381200I-326200J0D01*
G01*
X40457500Y-142381200D01*
G75*
G02*
X40131300Y-142055000I0J326200D01*
G01*
X40131300Y-141155000D01*
G75*
G02*
X40457500Y-140828800I326200J0D01*
G01*
X40982500Y-140828800D01*
G75*
G02*
X41308700Y-141155000I0J-326200D01*
G01*
G37*
G36*
G01*
X92096800Y-167468500D02*
X92096800Y-165368500D01*
G75*
G02*
X92173000Y-165292300I76200J0D01*
G01*
X93573000Y-165292300D01*
G75*
G02*
X93649200Y-165368500I0J-76200D01*
G01*
X93649200Y-167468500D01*
G75*
G02*
X93573000Y-167544700I-76200J0D01*
G01*
X92173000Y-167544700D01*
G75*
G02*
X92096800Y-167468500I0J76200D01*
G01*
G37*
G36*
G01*
X92096800Y-158368500D02*
X92096800Y-156268500D01*
G75*
G02*
X92173000Y-156192300I76200J0D01*
G01*
X93573000Y-156192300D01*
G75*
G02*
X93649200Y-156268500I0J-76200D01*
G01*
X93649200Y-158368500D01*
G75*
G02*
X93573000Y-158444700I-76200J0D01*
G01*
X92173000Y-158444700D01*
G75*
G02*
X92096800Y-158368500I0J76200D01*
G01*
G37*
G36*
G01*
X96596800Y-167468500D02*
X96596800Y-165368500D01*
G75*
G02*
X96673000Y-165292300I76200J0D01*
G01*
X98073000Y-165292300D01*
G75*
G02*
X98149200Y-165368500I0J-76200D01*
G01*
X98149200Y-167468500D01*
G75*
G02*
X98073000Y-167544700I-76200J0D01*
G01*
X96673000Y-167544700D01*
G75*
G02*
X96596800Y-167468500I0J76200D01*
G01*
G37*
G36*
G01*
X96596800Y-158368500D02*
X96596800Y-156268500D01*
G75*
G02*
X96673000Y-156192300I76200J0D01*
G01*
X98073000Y-156192300D01*
G75*
G02*
X98149200Y-156268500I0J-76200D01*
G01*
X98149200Y-158368500D01*
G75*
G02*
X98073000Y-158444700I-76200J0D01*
G01*
X96673000Y-158444700D01*
G75*
G02*
X96596800Y-158368500I0J76200D01*
G01*
G37*
G36*
G01*
X57406200Y-166530000D02*
X57406200Y-167480000D01*
G75*
G02*
X57080000Y-167806200I-326200J0D01*
G01*
X56580000Y-167806200D01*
G75*
G02*
X56253800Y-167480000I0J326200D01*
G01*
X56253800Y-166530000D01*
G75*
G02*
X56580000Y-166203800I326200J0D01*
G01*
X57080000Y-166203800D01*
G75*
G02*
X57406200Y-166530000I0J-326200D01*
G01*
G37*
G36*
G01*
X55506200Y-166530000D02*
X55506200Y-167480000D01*
G75*
G02*
X55180000Y-167806200I-326200J0D01*
G01*
X54680000Y-167806200D01*
G75*
G02*
X54353800Y-167480000I0J326200D01*
G01*
X54353800Y-166530000D01*
G75*
G02*
X54680000Y-166203800I326200J0D01*
G01*
X55180000Y-166203800D01*
G75*
G02*
X55506200Y-166530000I0J-326200D01*
G01*
G37*
G36*
G01*
X37859401Y-148933601D02*
X38672201Y-148933601D01*
G75*
G02*
X38748401Y-149009801I0J-76200D01*
G01*
X38748401Y-149263801D01*
G75*
G02*
X38672201Y-149340001I-76200J0D01*
G01*
X37859401Y-149340001D01*
G75*
G02*
X37783201Y-149263801I0J76200D01*
G01*
X37783201Y-149009801D01*
G75*
G02*
X37859401Y-148933601I76200J0D01*
G01*
G37*
G36*
G01*
X37859401Y-148433600D02*
X38672201Y-148433600D01*
G75*
G02*
X38748401Y-148509800I0J-76200D01*
G01*
X38748401Y-148763800D01*
G75*
G02*
X38672201Y-148840000I-76200J0D01*
G01*
X37859401Y-148840000D01*
G75*
G02*
X37783201Y-148763800I0J76200D01*
G01*
X37783201Y-148509800D01*
G75*
G02*
X37859401Y-148433600I76200J0D01*
G01*
G37*
G36*
G01*
X37859401Y-147933600D02*
X38672201Y-147933600D01*
G75*
G02*
X38748401Y-148009800I0J-76200D01*
G01*
X38748401Y-148263800D01*
G75*
G02*
X38672201Y-148340000I-76200J0D01*
G01*
X37859401Y-148340000D01*
G75*
G02*
X37783201Y-148263800I0J76200D01*
G01*
X37783201Y-148009800D01*
G75*
G02*
X37859401Y-147933600I76200J0D01*
G01*
G37*
G36*
G01*
X37859401Y-147433599D02*
X38672201Y-147433599D01*
G75*
G02*
X38748401Y-147509799I0J-76200D01*
G01*
X38748401Y-147763799D01*
G75*
G02*
X38672201Y-147839999I-76200J0D01*
G01*
X37859401Y-147839999D01*
G75*
G02*
X37783201Y-147763799I0J76200D01*
G01*
X37783201Y-147509799D01*
G75*
G02*
X37859401Y-147433599I76200J0D01*
G01*
G37*
G36*
G01*
X37771202Y-146532600D02*
X37771202Y-147345400D01*
G75*
G02*
X37695002Y-147421600I-76200J0D01*
G01*
X37441002Y-147421600D01*
G75*
G02*
X37364802Y-147345400I0J76200D01*
G01*
X37364802Y-146532600D01*
G75*
G02*
X37441002Y-146456400I76200J0D01*
G01*
X37695002Y-146456400D01*
G75*
G02*
X37771202Y-146532600I0J-76200D01*
G01*
G37*
G36*
G01*
X37271201Y-146532600D02*
X37271201Y-147345400D01*
G75*
G02*
X37195001Y-147421600I-76200J0D01*
G01*
X36941001Y-147421600D01*
G75*
G02*
X36864801Y-147345400I0J76200D01*
G01*
X36864801Y-146532600D01*
G75*
G02*
X36941001Y-146456400I76200J0D01*
G01*
X37195001Y-146456400D01*
G75*
G02*
X37271201Y-146532600I0J-76200D01*
G01*
G37*
G36*
G01*
X36771201Y-146532600D02*
X36771201Y-147345400D01*
G75*
G02*
X36695001Y-147421600I-76200J0D01*
G01*
X36441001Y-147421600D01*
G75*
G02*
X36364801Y-147345400I0J76200D01*
G01*
X36364801Y-146532600D01*
G75*
G02*
X36441001Y-146456400I76200J0D01*
G01*
X36695001Y-146456400D01*
G75*
G02*
X36771201Y-146532600I0J-76200D01*
G01*
G37*
G36*
G01*
X36271200Y-146532600D02*
X36271200Y-147345400D01*
G75*
G02*
X36195000Y-147421600I-76200J0D01*
G01*
X35941000Y-147421600D01*
G75*
G02*
X35864800Y-147345400I0J76200D01*
G01*
X35864800Y-146532600D01*
G75*
G02*
X35941000Y-146456400I76200J0D01*
G01*
X36195000Y-146456400D01*
G75*
G02*
X36271200Y-146532600I0J-76200D01*
G01*
G37*
G36*
G01*
X34963801Y-147433599D02*
X35776601Y-147433599D01*
G75*
G02*
X35852801Y-147509799I0J-76200D01*
G01*
X35852801Y-147763799D01*
G75*
G02*
X35776601Y-147839999I-76200J0D01*
G01*
X34963801Y-147839999D01*
G75*
G02*
X34887601Y-147763799I0J76200D01*
G01*
X34887601Y-147509799D01*
G75*
G02*
X34963801Y-147433599I76200J0D01*
G01*
G37*
G36*
G01*
X34963801Y-147933600D02*
X35776601Y-147933600D01*
G75*
G02*
X35852801Y-148009800I0J-76200D01*
G01*
X35852801Y-148263800D01*
G75*
G02*
X35776601Y-148340000I-76200J0D01*
G01*
X34963801Y-148340000D01*
G75*
G02*
X34887601Y-148263800I0J76200D01*
G01*
X34887601Y-148009800D01*
G75*
G02*
X34963801Y-147933600I76200J0D01*
G01*
G37*
G36*
G01*
X34963801Y-148433600D02*
X35776601Y-148433600D01*
G75*
G02*
X35852801Y-148509800I0J-76200D01*
G01*
X35852801Y-148763800D01*
G75*
G02*
X35776601Y-148840000I-76200J0D01*
G01*
X34963801Y-148840000D01*
G75*
G02*
X34887601Y-148763800I0J76200D01*
G01*
X34887601Y-148509800D01*
G75*
G02*
X34963801Y-148433600I76200J0D01*
G01*
G37*
G36*
G01*
X34963801Y-148933601D02*
X35776601Y-148933601D01*
G75*
G02*
X35852801Y-149009801I0J-76200D01*
G01*
X35852801Y-149263801D01*
G75*
G02*
X35776601Y-149340001I-76200J0D01*
G01*
X34963801Y-149340001D01*
G75*
G02*
X34887601Y-149263801I0J76200D01*
G01*
X34887601Y-149009801D01*
G75*
G02*
X34963801Y-148933601I76200J0D01*
G01*
G37*
G36*
G01*
X36271200Y-149428200D02*
X36271200Y-150241000D01*
G75*
G02*
X36195000Y-150317200I-76200J0D01*
G01*
X35941000Y-150317200D01*
G75*
G02*
X35864800Y-150241000I0J76200D01*
G01*
X35864800Y-149428200D01*
G75*
G02*
X35941000Y-149352000I76200J0D01*
G01*
X36195000Y-149352000D01*
G75*
G02*
X36271200Y-149428200I0J-76200D01*
G01*
G37*
G36*
G01*
X36771201Y-149428200D02*
X36771201Y-150241000D01*
G75*
G02*
X36695001Y-150317200I-76200J0D01*
G01*
X36441001Y-150317200D01*
G75*
G02*
X36364801Y-150241000I0J76200D01*
G01*
X36364801Y-149428200D01*
G75*
G02*
X36441001Y-149352000I76200J0D01*
G01*
X36695001Y-149352000D01*
G75*
G02*
X36771201Y-149428200I0J-76200D01*
G01*
G37*
G36*
G01*
X37271201Y-149428200D02*
X37271201Y-150241000D01*
G75*
G02*
X37195001Y-150317200I-76200J0D01*
G01*
X36941001Y-150317200D01*
G75*
G02*
X36864801Y-150241000I0J76200D01*
G01*
X36864801Y-149428200D01*
G75*
G02*
X36941001Y-149352000I76200J0D01*
G01*
X37195001Y-149352000D01*
G75*
G02*
X37271201Y-149428200I0J-76200D01*
G01*
G37*
G36*
G01*
X37771202Y-149428200D02*
X37771202Y-150241000D01*
G75*
G02*
X37695002Y-150317200I-76200J0D01*
G01*
X37441002Y-150317200D01*
G75*
G02*
X37364802Y-150241000I0J76200D01*
G01*
X37364802Y-149428200D01*
G75*
G02*
X37441002Y-149352000I76200J0D01*
G01*
X37695002Y-149352000D01*
G75*
G02*
X37771202Y-149428200I0J-76200D01*
G01*
G37*
G36*
G01*
X37516501Y-147764500D02*
X37516501Y-149009100D01*
G75*
G02*
X37440301Y-149085300I-76200J0D01*
G01*
X36195701Y-149085300D01*
G75*
G02*
X36119501Y-149009100I0J76200D01*
G01*
X36119501Y-147764500D01*
G75*
G02*
X36195701Y-147688300I76200J0D01*
G01*
X37440301Y-147688300D01*
G75*
G02*
X37516501Y-147764500I0J-76200D01*
G01*
G37*
G36*
G01*
X35799801Y-142080000D02*
X35799801Y-141130000D01*
G75*
G02*
X36126001Y-140803800I326200J0D01*
G01*
X36626001Y-140803800D01*
G75*
G02*
X36952201Y-141130000I0J-326200D01*
G01*
X36952201Y-142080000D01*
G75*
G02*
X36626001Y-142406200I-326200J0D01*
G01*
X36126001Y-142406200D01*
G75*
G02*
X35799801Y-142080000I0J326200D01*
G01*
G37*
G36*
G01*
X37699801Y-142080000D02*
X37699801Y-141130000D01*
G75*
G02*
X38026001Y-140803800I326200J0D01*
G01*
X38526001Y-140803800D01*
G75*
G02*
X38852201Y-141130000I0J-326200D01*
G01*
X38852201Y-142080000D01*
G75*
G02*
X38526001Y-142406200I-326200J0D01*
G01*
X38026001Y-142406200D01*
G75*
G02*
X37699801Y-142080000I0J326200D01*
G01*
G37*
G36*
G01*
X89004200Y-158681000D02*
X89004200Y-159581000D01*
G75*
G02*
X88678000Y-159907200I-326200J0D01*
G01*
X88153000Y-159907200D01*
G75*
G02*
X87826800Y-159581000I0J326200D01*
G01*
X87826800Y-158681000D01*
G75*
G02*
X88153000Y-158354800I326200J0D01*
G01*
X88678000Y-158354800D01*
G75*
G02*
X89004200Y-158681000I0J-326200D01*
G01*
G37*
G36*
G01*
X87179200Y-158681000D02*
X87179200Y-159581000D01*
G75*
G02*
X86853000Y-159907200I-326200J0D01*
G01*
X86328000Y-159907200D01*
G75*
G02*
X86001800Y-159581000I0J326200D01*
G01*
X86001800Y-158681000D01*
G75*
G02*
X86328000Y-158354800I326200J0D01*
G01*
X86853000Y-158354800D01*
G75*
G02*
X87179200Y-158681000I0J-326200D01*
G01*
G37*
G36*
G01*
X45737200Y-169326000D02*
X45737200Y-170526000D01*
G75*
G02*
X45661000Y-170602200I-76200J0D01*
G01*
X44761000Y-170602200D01*
G75*
G02*
X44684800Y-170526000I0J76200D01*
G01*
X44684800Y-169326000D01*
G75*
G02*
X44761000Y-169249800I76200J0D01*
G01*
X45661000Y-169249800D01*
G75*
G02*
X45737200Y-169326000I0J-76200D01*
G01*
G37*
G36*
G01*
X42437200Y-169326000D02*
X42437200Y-170526000D01*
G75*
G02*
X42361000Y-170602200I-76200J0D01*
G01*
X41461000Y-170602200D01*
G75*
G02*
X41384800Y-170526000I0J76200D01*
G01*
X41384800Y-169326000D01*
G75*
G02*
X41461000Y-169249800I76200J0D01*
G01*
X42361000Y-169249800D01*
G75*
G02*
X42437200Y-169326000I0J-76200D01*
G01*
G37*
G36*
G01*
X74140800Y-184977000D02*
X74140800Y-182677000D01*
G75*
G02*
X74217000Y-182600800I76200J0D01*
G01*
X76517000Y-182600800D01*
G75*
G02*
X76593200Y-182677000I0J-76200D01*
G01*
X76593200Y-184977000D01*
G75*
G02*
X76517000Y-185053200I-76200J0D01*
G01*
X74217000Y-185053200D01*
G75*
G02*
X74140800Y-184977000I0J76200D01*
G01*
G37*
D11*
X78867000Y-183827000D03*
X82367000Y-183827000D03*
G36*
G01*
X43690200Y-137701000D02*
X43690200Y-138651000D01*
G75*
G02*
X43364000Y-138977200I-326200J0D01*
G01*
X42864000Y-138977200D01*
G75*
G02*
X42537800Y-138651000I0J326200D01*
G01*
X42537800Y-137701000D01*
G75*
G02*
X42864000Y-137374800I326200J0D01*
G01*
X43364000Y-137374800D01*
G75*
G02*
X43690200Y-137701000I0J-326200D01*
G01*
G37*
G36*
G01*
X41790200Y-137701000D02*
X41790200Y-138651000D01*
G75*
G02*
X41464000Y-138977200I-326200J0D01*
G01*
X40964000Y-138977200D01*
G75*
G02*
X40637800Y-138651000I0J326200D01*
G01*
X40637800Y-137701000D01*
G75*
G02*
X40964000Y-137374800I326200J0D01*
G01*
X41464000Y-137374800D01*
G75*
G02*
X41790200Y-137701000I0J-326200D01*
G01*
G37*
G36*
G01*
X44091800Y-188289250D02*
X44091800Y-187376750D01*
G75*
G02*
X44411750Y-187056800I319950J0D01*
G01*
X44899250Y-187056800D01*
G75*
G02*
X45219200Y-187376750I0J-319950D01*
G01*
X45219200Y-188289250D01*
G75*
G02*
X44899250Y-188609200I-319950J0D01*
G01*
X44411750Y-188609200D01*
G75*
G02*
X44091800Y-188289250I0J319950D01*
G01*
G37*
G36*
G01*
X45966800Y-188289250D02*
X45966800Y-187376750D01*
G75*
G02*
X46286750Y-187056800I319950J0D01*
G01*
X46774250Y-187056800D01*
G75*
G02*
X47094200Y-187376750I0J-319950D01*
G01*
X47094200Y-188289250D01*
G75*
G02*
X46774250Y-188609200I-319950J0D01*
G01*
X46286750Y-188609200D01*
G75*
G02*
X45966800Y-188289250I0J319950D01*
G01*
G37*
G36*
G01*
X39966000Y-155739200D02*
X38266000Y-155739200D01*
G75*
G02*
X38189800Y-155663000I0J76200D01*
G01*
X38189800Y-153963000D01*
G75*
G02*
X38266000Y-153886800I76200J0D01*
G01*
X39966000Y-153886800D01*
G75*
G02*
X40042200Y-153963000I0J-76200D01*
G01*
X40042200Y-155663000D01*
G75*
G02*
X39966000Y-155739200I-76200J0D01*
G01*
G37*
D13*
X41656000Y-154813000D03*
X44196000Y-154813000D03*
X46736000Y-154813000D03*
X49276000Y-154813000D03*
M02*
